<?xml version="1.0" standalone="no"?>
<!DOCTYPE svg PUBLIC "-//W3C//DTD SVG 20010904//EN"
 "http://www.w3.org/TR/2001/REC-SVG-20010904/DTD/svg10.dtd">
<svg version="1.0" xmlns="http://www.w3.org/2000/svg"
 width="1344.000000pt" height="1344.000000pt" viewBox="0 0 1344.000000 1344.000000"
 preserveAspectRatio="xMidYMid meet">
<metadata>
Created by potrace 1.11, written by Peter Selinger 2001-2013
</metadata>
<g transform="translate(0.000000,1344.000000) scale(0.100000,-0.100000)"
fill="#000000" stroke="none">
<path d="M10564 13274 c-71 -75 -149 -158 -174 -184 -25 -26 -99 -105 -165
-175 -66 -70 -138 -147 -160 -170 -22 -23 -92 -97 -155 -164 -63 -68 -137
-147 -165 -176 -45 -47 -194 -206 -300 -318 -183 -195 -288 -306 -330 -351
-42 -44 -240 -255 -350 -371 -16 -18 -64 -68 -105 -112 -41 -43 -136 -143
-210 -222 -74 -79 -153 -163 -175 -186 -22 -23 -92 -97 -155 -165 -63 -67
-137 -146 -165 -175 -27 -29 -99 -106 -160 -170 -60 -65 -126 -134 -145 -154
-19 -20 -54 -57 -77 -83 -23 -25 -44 -43 -47 -40 -3 3 -6 0 -6 -6 0 -7 -21
-34 -47 -60 -27 -27 -102 -107 -169 -178 -67 -71 -138 -147 -159 -169 -48 -51
-265 -282 -330 -350 -27 -29 -97 -103 -155 -165 -58 -62 -127 -136 -155 -165
-27 -29 -104 -110 -170 -180 -66 -70 -145 -154 -175 -186 -30 -31 -104 -110
-165 -175 -60 -64 -123 -131 -140 -149 -16 -17 -88 -93 -160 -169 -71 -76
-152 -162 -180 -191 -27 -29 -93 -98 -145 -154 -52 -56 -120 -128 -150 -160
-30 -32 -107 -113 -170 -180 -174 -186 -204 -218 -345 -367 -71 -75 -143 -152
-160 -170 -16 -17 -86 -91 -155 -164 -69 -73 -143 -152 -165 -175 -22 -24 -94
-100 -160 -170 -66 -69 -123 -132 -127 -138 -5 -10 226 -12 1015 -10 562 2
1029 0 1037 -3 10 -3 11 -7 4 -12 -6 -4 -20 -25 -31 -47 -21 -43 -152 -293
-215 -410 -20 -38 -47 -91 -60 -117 -13 -27 -26 -48 -30 -48 -5 0 -8 -6 -8
-12 0 -7 -6 -24 -13 -38 -8 -14 -36 -68 -64 -120 -28 -52 -74 -140 -103 -195
-29 -55 -73 -138 -98 -185 -24 -47 -69 -131 -99 -188 -30 -57 -71 -136 -92
-175 -21 -40 -55 -106 -77 -147 -21 -41 -42 -76 -46 -78 -4 -2 -8 -10 -8 -18
0 -8 -11 -32 -25 -54 -14 -22 -22 -40 -19 -40 4 0 1 -8 -7 -17 -8 -10 -25 -40
-39 -68 -14 -27 -28 -51 -32 -53 -5 -2 -8 -12 -8 -23 0 -10 -3 -19 -7 -19 -5
0 -16 -20 -26 -45 -11 -25 -23 -45 -28 -45 -5 0 -9 -6 -9 -12 0 -7 -6 -24 -13
-38 -8 -14 -37 -70 -67 -125 -29 -55 -57 -106 -62 -113 -6 -6 -7 -12 -4 -12 4
0 -1 -12 -12 -27 -10 -16 -50 -88 -87 -161 -38 -73 -72 -135 -77 -138 -4 -3
-8 -14 -8 -24 0 -10 -3 -20 -7 -22 -5 -1 -23 -32 -41 -68 -19 -36 -58 -111
-88 -167 -29 -56 -68 -130 -85 -165 -18 -35 -36 -65 -41 -66 -4 -2 -8 -11 -8
-21 0 -9 -4 -21 -9 -27 -8 -8 -51 -88 -175 -327 -28 -54 -67 -128 -87 -165
-20 -37 -54 -102 -75 -145 -21 -42 -42 -77 -46 -77 -4 0 -8 -8 -8 -18 0 -10
-4 -22 -9 -27 -5 -6 -34 -59 -66 -120 -32 -60 -65 -120 -73 -132 -8 -13 -11
-23 -7 -23 5 0 1 -8 -7 -17 -8 -10 -55 -94 -103 -188 -113 -218 -118 -229
-128 -236 -5 -3 -9 -10 -9 -15 -1 -14 -14 -40 -89 -179 -38 -71 -75 -142 -82
-157 -6 -16 -15 -28 -19 -28 -4 0 -8 -6 -8 -12 0 -7 -6 -24 -13 -38 -8 -14
-38 -70 -67 -125 -62 -116 -127 -240 -197 -375 -49 -94 -123 -233 -191 -360
-19 -36 -39 -71 -44 -77 -7 -8 -7 -13 -1 -13 5 0 68 61 139 136 71 75 152 160
179 189 28 29 104 110 170 180 66 70 150 160 188 198 37 39 67 75 67 79 0 4 7
8 15 8 8 0 15 4 15 9 0 5 21 31 47 59 27 27 104 109 173 182 69 73 150 158
180 190 30 32 99 105 152 162 53 57 130 137 170 180 40 42 116 122 168 178 52
55 124 132 160 169 36 37 113 119 172 182 58 63 132 141 163 174 109 115 312
330 350 370 20 22 94 100 163 174 137 144 155 162 342 361 179 189 192 203
322 341 65 69 146 155 180 191 35 37 117 124 183 194 66 70 153 161 193 203
40 42 107 113 150 159 42 46 106 114 142 152 36 37 117 123 180 190 63 67 145
154 182 192 37 39 95 101 129 137 52 56 137 146 364 386 22 23 94 99 160 169
139 149 162 173 350 371 178 188 185 196 335 355 69 73 145 154 170 180 25 26
92 98 150 160 58 61 141 149 185 195 44 46 125 132 180 190 55 59 126 134 158
168 31 33 57 64 57 69 0 4 7 8 15 8 8 0 15 4 15 9 0 5 -7 11 -15 15 -8 3 -15
1 -15 -5 0 -6 -5 -7 -12 -3 -14 9 -172 9 -186 0 -6 -3 -13 -3 -16 2 -5 9 -99
7 -115 -2 -5 -4 -12 -2 -15 2 -6 10 -48 8 -65 -3 -6 -3 -11 -3 -11 2 0 9 -231
9 -254 0 -9 -4 -17 -3 -20 1 -5 9 -100 7 -115 -2 -5 -4 -12 -3 -14 1 -6 9
-161 8 -175 -1 -6 -3 -13 -3 -16 2 -5 9 -99 7 -115 -2 -5 -4 -12 -3 -14 1 -6
9 -161 8 -175 -1 -6 -3 -13 -3 -16 2 -5 9 -99 7 -115 -2 -5 -4 -12 -3 -14 1
-6 9 -161 8 -175 -1 -6 -3 -13 -3 -16 2 -5 9 -99 7 -115 -2 -5 -4 -12 -2 -15
2 -6 10 -48 8 -65 -3 -6 -3 -11 -3 -11 2 0 4 -44 7 -97 6 -54 0 -101 1 -105 3
-7 5 22 67 35 72 4 2 7 11 7 21 0 9 4 21 9 26 6 6 25 39 44 75 19 36 53 101
77 145 23 44 56 107 73 140 17 33 34 62 39 63 4 2 8 9 8 16 0 7 25 59 55 115
31 56 60 112 66 124 5 12 21 42 35 67 14 25 57 106 96 180 39 74 75 141 81
148 5 6 6 12 1 12 -5 0 -4 4 1 8 6 4 28 41 49 82 21 41 55 107 76 145 46 86
108 204 208 395 42 80 80 148 86 152 6 4 8 8 3 8 -4 0 4 18 18 40 14 22 22 40
18 40 -5 0 -3 4 2 8 6 4 20 27 33 52 12 25 54 104 92 175 38 72 81 153 94 180
14 28 47 91 74 140 26 50 81 153 121 230 41 77 85 163 100 190 14 28 28 52 31
55 3 3 22 39 42 80 21 41 62 120 91 175 29 55 82 154 117 220 34 66 80 152
100 190 20 39 57 108 81 155 24 47 46 87 49 90 3 3 22 40 43 82 21 42 42 80
47 83 6 4 8 11 5 16 -4 5 -2 9 4 9 5 0 12 14 16 30 4 17 10 30 14 30 4 0 17
21 29 48 12 26 48 97 81 157 33 61 85 160 117 220 31 61 73 139 92 175 19 36
66 126 105 200 38 74 75 138 81 142 6 4 7 8 2 8 -5 0 -4 6 1 13 10 11 32 53
183 341 34 65 74 142 89 170 16 28 63 119 106 201 43 83 89 167 102 188 13 20
19 37 15 37 -5 0 -67 -61 -138 -136z"/>
</g>
</svg>
