<svg viewBox="0 0 50 51" xmlns="http://www.w3.org/2000/svg">
<g>
<path d="M46.0938 27.8627H44.5312H13.2895C13.2879 27.8627 13.2863 27.8627 13.2848 27.8627H5.46875H3.90625C2.61387 27.8627 1.5625 28.9141 1.5625 30.2064C1.5625 30.6379 1.9123 30.9877 2.34375 30.9877C2.7752 30.9877 3.125 30.6379 3.125 30.2064C3.125 29.7757 3.47549 29.4252 3.90625 29.4252H4.54648L2.73271 40.3083C2.4583 41.9552 2.78018 43.6506 3.63916 45.0821L4.6875 46.8291V49.64C4.6875 50.1247 5.08184 50.5189 5.56641 50.5189H44.4336C44.9182 50.5189 45.3125 50.1247 45.3125 49.64V46.8291L46.3608 45.0821C47.2198 43.6506 47.5417 41.9552 47.2673 40.3083L45.4535 29.4252H46.0938C46.5245 29.4252 46.875 29.7757 46.875 30.2064C46.875 30.6379 47.2248 30.9877 47.6562 30.9877C48.0877 30.9877 48.4375 30.6379 48.4375 30.2064C48.4375 28.9141 47.3861 27.8627 46.0938 27.8627ZM41.1147 44.2782L40.1827 45.8314H37.8728L38.4247 44.4515C38.8529 43.381 39.012 42.2094 38.8847 41.0635L37.5916 29.4252H39.9632L41.8198 40.5652C42.0332 41.8461 41.7828 43.1647 41.1147 44.2782ZM33.8479 45.8314L34.3689 44.0062C34.6002 43.1965 34.6837 42.3601 34.6171 41.5203L33.6581 29.4252H36.0194L37.3317 41.236C37.4308 42.1273 37.3071 43.0385 36.9739 43.8711L36.1898 45.8314H33.8479ZM29.7327 45.8314L29.8935 42.9748C29.9028 42.8077 29.9063 42.638 29.9036 42.4701L29.6998 29.4252H32.0907L33.0595 41.6438C33.1112 42.2969 33.0464 42.9474 32.8665 43.5772L32.223 45.8314H29.7327ZM25.7812 45.8314V29.4252H28.1371L28.3413 42.4945C28.3434 42.6251 28.3407 42.7572 28.3334 42.8872L28.1678 45.8314H25.7812ZM21.8276 45.8314L21.6448 42.9072C21.6358 42.7623 21.6325 42.6156 21.6351 42.471L21.8616 29.4252H24.2188V45.8314H21.8276ZM9.81729 45.8314L8.88525 44.2782C8.21719 43.1648 7.9668 41.8462 8.18018 40.5652L10.0368 29.4252H12.4084L11.1152 41.0635C10.9879 42.2094 11.147 43.381 11.5752 44.4515L12.1271 45.8314H9.81729ZM13.8102 45.8314L13.026 43.8712C12.6929 43.0386 12.5691 42.1274 12.6682 41.2361L13.9806 29.4252H16.3414L15.3762 41.5121C15.3087 42.3576 15.3933 43.1996 15.6276 44.0147L16.15 45.8314H13.8102ZM17.7758 45.8314L17.1293 43.5829C16.947 42.949 16.8812 42.2941 16.9337 41.6364L17.9089 29.4252H20.2988L20.0729 42.4438C20.0695 42.6296 20.0738 42.8182 20.0854 43.0046L20.2622 45.8314H17.7758ZM4.27393 40.5652L6.13057 29.4252H8.45283L6.63897 40.3083C6.36455 41.9552 6.68643 43.6506 7.54541 45.0821L7.99502 45.8314H5.91104L4.979 44.2782C4.31094 43.1647 4.06055 41.8461 4.27393 40.5652ZM43.75 48.9564H6.25V47.3939H9.37422C9.37471 47.3939 9.3752 47.394 9.37568 47.394C9.37617 47.394 9.37666 47.3939 9.37715 47.3939H13.2789C13.2798 47.3939 13.2806 47.3941 13.2814 47.3941C13.2828 47.3941 13.2842 47.3939 13.2855 47.3939H17.1848C17.1855 47.3939 17.1863 47.3941 17.1871 47.3941C17.188 47.3941 17.189 47.3939 17.1898 47.3939H32.8102C32.811 47.3939 32.812 47.3941 32.8129 47.3941C32.8137 47.3941 32.8145 47.3939 32.8152 47.3939H36.7145C36.7158 47.3939 36.7172 47.3941 36.7186 47.3941C36.7194 47.3941 36.7202 47.3939 36.7211 47.3939H40.6229C40.6233 47.3939 40.6238 47.394 40.6243 47.394C40.6248 47.394 40.6253 47.3939 40.6258 47.3939H43.75V48.9564ZM45.021 44.2782L44.089 45.8314H42.005L42.4546 45.0821C43.3136 43.6506 43.6354 41.9552 43.361 40.3083L41.5473 29.4252H43.8694L45.7261 40.5652C45.9395 41.8461 45.6891 43.1647 45.021 44.2782Z"/>
<path d="M10.1562 26.3002C10.5877 26.3002 10.9375 25.9504 10.9375 25.5189V2.08142H39.0625V25.5189C39.0625 25.9504 39.4123 26.3002 39.8438 26.3002C40.2752 26.3002 40.625 25.9504 40.625 25.5189V2.08142C40.625 1.2199 39.924 0.518921 39.0625 0.518921H10.9375C10.076 0.518921 9.375 1.2199 9.375 2.08142V25.5189C9.375 25.9504 9.7248 26.3002 10.1562 26.3002Z"/>
<path d="M36.7188 26.3002C37.1502 26.3002 37.5 25.9504 37.5 25.5189V4.42517C37.5 3.99373 37.1502 3.64392 36.7188 3.64392H13.2812C12.8498 3.64392 12.5 3.99373 12.5 4.42517V25.5189C12.5 25.9504 12.8498 26.3002 13.2812 26.3002C13.7127 26.3002 14.0625 25.9504 14.0625 25.5189V13.8002H21.8749C22.3063 13.8002 22.6562 13.4504 22.6562 13.0189C22.6562 12.5875 22.3063 12.2377 21.8749 12.2377H14.0625V5.20642H24.2188V25.5189C24.2188 25.9504 24.5686 26.3002 25 26.3002C25.4314 26.3002 25.7812 25.9504 25.7812 25.5189V13.8002H35.9375V25.5189C35.9375 25.9504 36.2873 26.3002 36.7188 26.3002ZM25.7812 12.2377V5.20642H35.9375V12.2377H25.7812Z"/>
</g>
</svg>
