<svg viewBox="0 0 58 58" xmlns="http://www.w3.org/2000/svg">
<g>
<path d="M56.55 29.7933C56.5468 29.3698 56.2601 29.0005 55.85 28.8938C57.4262 26.369 56.7068 23.0486 54.2274 21.4028C53.9078 21.1899 53.4922 21.1899 53.1726 21.4028C50.6932 23.0486 49.9738 26.369 51.55 28.8938C51.1399 29.0005 50.8532 29.3698 50.85 29.7933V36.4433H49.9V38.3433H50.85V39.2933C50.8551 40.4965 51.6154 41.5671 52.75 41.9684V48.3183C52.7537 51.4174 50.7521 54.163 47.8001 55.1065C44.848 56.0505 41.6246 54.9757 39.8299 52.449C40.1708 52.5408 40.522 52.5891 40.875 52.5933C43.2352 52.5905 45.1472 50.6784 45.15 48.3183V41.9684C46.2846 41.5671 47.0449 40.4965 47.05 39.2933V38.3433H48V36.4433H47.05V29.7933C47.0468 29.3698 46.7601 29.0005 46.35 28.8938C47.9262 26.369 47.2068 23.0486 44.7274 21.4028C44.4078 21.1899 43.9922 21.1899 43.6726 21.4028C41.1932 23.0486 40.4738 26.369 42.05 28.8938C41.6399 29.0005 41.3532 29.3698 41.35 29.7933V36.4433H40.4V38.3433H41.35V39.2933C41.3551 40.4965 42.1154 41.5671 43.25 41.9684V48.3183C43.25 49.6301 42.1868 50.6933 40.875 50.6933C39.5632 50.6933 38.5 49.6301 38.5 48.3183V34.0683C38.4968 31.1839 36.1593 28.8465 33.275 28.8433C33.1136 28.8433 32.9549 28.8525 32.8 28.8669C32.8 28.8595 32.8 28.8516 32.8 28.8433C32.7981 27.8673 32.2962 26.9604 31.4701 26.4409C31.7164 26.016 31.8472 25.534 31.85 25.0433V24.2473L32.7508 21.5434C32.8362 21.2836 32.8042 20.9993 32.6632 20.7646C33.4285 19.8837 34.0812 18.9105 34.6049 17.8677L35.5549 15.9677C35.7024 15.6727 35.6862 15.322 35.5118 15.0414C35.3374 14.7612 35.0303 14.5914 34.7 14.5933H33.1934C32.9081 14.5965 32.6237 14.6285 32.3449 14.6884C33.1289 12.7063 32.9457 10.4723 31.85 8.64417V5.64062C33.2648 5.02136 34.2918 3.75547 34.6049 2.24326H36.6V0.343262H21.4V2.24326H23.3951C23.7082 3.75547 24.7352 5.02136 26.15 5.64062V8.64417C25.0539 10.4727 24.8711 12.7067 25.6551 14.6893C25.3763 14.6294 25.0919 14.5974 24.8066 14.5942H23.3C22.9707 14.5942 22.665 14.7644 22.4915 15.0446C22.3185 15.3243 22.3027 15.6741 22.4497 15.9691L23.3997 17.8691C23.922 18.9123 24.5729 19.8864 25.3368 20.7683C25.1958 21.003 25.1638 21.2873 25.2492 21.5471L26.15 24.2473V25.0433C26.1528 25.534 26.2836 26.016 26.5299 26.4409C25.7038 26.9604 25.2019 27.8673 25.2 28.8433V28.8669C25.0423 28.8525 24.8836 28.8433 24.725 28.8433C21.8407 28.8465 19.5032 31.1839 19.5 34.0683V48.3183C19.5 49.6301 18.4368 50.6933 17.125 50.6933C15.8132 50.6933 14.75 49.6301 14.75 48.3183V41.9684C15.8846 41.5671 16.6449 40.4965 16.65 39.2933V38.3433H17.6V36.4433H16.65V29.7933C16.6468 29.3698 16.3601 29.0005 15.95 28.8938C17.5262 26.369 16.8068 23.0486 14.3274 21.4028C14.0078 21.1899 13.5922 21.1899 13.2726 21.4028C10.7932 23.0486 10.0738 26.369 11.65 28.8938C11.2399 29.0005 10.9532 29.3698 10.95 29.7933V36.4433H10V38.3433H10.95V39.2933C10.9551 40.4965 11.7154 41.5671 12.85 41.9684V48.3183C12.8528 50.6784 14.7648 52.5905 17.125 52.5933C17.478 52.5891 17.8292 52.5408 18.1701 52.449C16.3754 54.9757 13.152 56.0505 10.1999 55.1065C7.24788 54.163 5.24629 51.4174 5.25 48.3183V41.9684C6.38462 41.5671 7.1449 40.4965 7.15 39.2933V38.3433H8.1V36.4433H7.15V29.7933C7.14675 29.3698 6.86008 29.0005 6.45002 28.8938C8.02625 26.369 7.30679 23.0486 4.82742 21.4028C4.50781 21.1899 4.09219 21.1899 3.77258 21.4028C1.29321 23.0486 0.573755 26.369 2.14998 28.8938C1.73992 29.0005 1.45325 29.3698 1.45 29.7933V36.4433H0.5V38.3433H1.45V39.2933C1.4551 40.4965 2.21538 41.5671 3.35 41.9684V48.3183C3.35 53.3025 7.39075 57.3433 12.375 57.3433C17.3593 57.3433 21.4 53.3025 21.4 48.3183V35.0183C21.4 34.2311 22.0378 33.5933 22.825 33.5933C23.6122 33.5933 24.25 34.2311 24.25 35.0183V36.4433H23.3V38.3433H24.5158L26.1792 43.3335C25.3447 44.5192 25.0247 45.992 25.2923 47.417C25.5595 48.842 26.3912 50.0986 27.5987 50.9015L28.4726 51.4837C28.7922 51.6966 29.2078 51.6966 29.5274 51.4837L30.4013 50.9015C31.6088 50.0986 32.4405 48.842 32.7077 47.417C32.9753 45.992 32.6553 44.5192 31.8208 43.3335L33.4842 38.3433H34.7V36.4433H33.75V35.0183C33.75 34.2311 34.3878 33.5933 35.175 33.5933C35.9622 33.5933 36.6 34.2311 36.6 35.0183V48.3183C36.6 53.3025 40.6407 57.3433 45.625 57.3433C50.6093 57.3433 54.65 53.3025 54.65 48.3183V41.9684C55.7846 41.5671 56.5449 40.4965 56.55 39.2933V38.3433H57.5V36.4433H56.55V29.7933ZM45.15 39.2933C45.15 39.8179 44.7246 40.2433 44.2 40.2433C43.6754 40.2433 43.25 39.8179 43.25 39.2933V38.3433H45.15V39.2933ZM43.25 30.7433H45.15V36.4433H43.25V30.7433ZM44.2 23.4072C44.8935 24.0891 45.2841 25.021 45.2841 25.9933C45.2841 26.9655 44.8935 27.8974 44.2 28.5793C43.5065 27.8974 43.1159 26.9655 43.1159 25.9933C43.1159 25.021 43.5065 24.0891 44.2 23.4072ZM14.75 39.2933C14.75 39.8179 14.3246 40.2433 13.8 40.2433C13.2754 40.2433 12.85 39.8179 12.85 39.2933V38.3433H14.75V39.2933ZM12.85 30.7433H14.75V36.4433H12.85V30.7433ZM13.8 23.4072C14.4935 24.0891 14.8841 25.021 14.8841 25.9933C14.8841 26.9655 14.4935 27.8974 13.8 28.5793C13.1065 27.8974 12.7159 26.9655 12.7159 25.9933C12.7159 25.021 13.1065 24.0891 13.8 23.4072ZM5.25 39.2933C5.25 39.8179 4.82463 40.2433 4.3 40.2433C3.77537 40.2433 3.35 39.8179 3.35 39.2933V38.3433H5.25V39.2933ZM3.35 30.7433H5.25V36.4433H3.35V30.7433ZM4.3 23.4072C4.99348 24.0891 5.38406 25.021 5.38406 25.9933C5.38406 26.9655 4.99348 27.8974 4.3 28.5793C3.60652 27.8974 3.21594 26.9655 3.21594 25.9933C3.21594 25.021 3.60652 24.0891 4.3 23.4072ZM28.05 27.8933H29.95C30.4746 27.8933 30.9 28.3186 30.9 28.8433C30.9 29.3679 30.4746 29.7933 29.95 29.7933H28.05C27.5254 29.7933 27.1 29.3679 27.1 28.8433C27.1 28.3186 27.5254 27.8933 28.05 27.8933ZM28.05 25.0433V24.0933C28.0495 23.9912 28.0333 23.8896 28.0008 23.7931L27.4688 22.1933H30.5312L29.9992 23.7931C29.9667 23.8896 29.9505 23.9912 29.95 24.0933V25.0433C29.95 25.5679 29.5246 25.9933 29 25.9933C28.4754 25.9933 28.05 25.5679 28.05 25.0433ZM27.6376 9.84326H30.3624C31.112 11.2585 31.1329 12.9489 30.4185 14.3822L30.3127 14.5933H27.6873L27.5815 14.3822C26.8671 12.9489 26.888 11.2585 27.6376 9.84326ZM25.3624 2.24326H32.6376C32.2336 3.38113 31.1574 4.14187 29.95 4.14326H28.05C26.8426 4.14187 25.7664 3.38113 25.3624 2.24326ZM29.95 6.04326V7.94326H28.05V6.04326H29.95ZM24.8373 16.4933C25.4352 16.5002 26.0067 16.7414 26.4283 17.1659C26.7173 17.4549 27.1589 17.5263 27.5244 17.3435L29 16.6055L30.4756 17.3435C30.8411 17.5263 31.2827 17.4549 31.5717 17.1659C31.9933 16.7414 32.5648 16.5002 33.1627 16.4933L32.8997 17.0188C32.3171 18.1859 31.5494 19.2514 30.6263 20.1736L30.5066 20.2933H27.4934L27.3737 20.1736C26.4524 19.251 25.6866 18.1854 25.1049 17.0188L24.8373 16.4933ZM22.825 31.6933C22.6677 31.6979 22.5114 31.7137 22.3565 31.7406C23.3028 30.7804 24.7352 30.4867 25.983 30.997C27.2313 31.5068 28.0477 32.7203 28.05 34.0683V36.4433H26.15V35.0183C26.15 33.1818 24.6614 31.6933 22.825 31.6933ZM29.347 49.3207L29 49.5531L28.653 49.3225C27.8009 48.7552 27.2415 47.8423 27.1227 46.8255C27.004 45.8087 27.338 44.7915 28.0365 44.0433H29.9635C30.6611 44.7915 30.9951 45.8083 30.8763 46.8246C30.7576 47.8409 30.1982 48.7534 29.347 49.3207ZM30.2149 42.1433H27.7851L26.5188 38.3433H31.4812L30.2149 42.1433ZM31.85 35.0183V36.4433H29.95V34.0683C29.9523 32.7203 30.7687 31.5068 32.017 30.997C33.2648 30.4867 34.6972 30.7804 35.6435 31.7406C34.6861 31.5727 33.7041 31.8436 32.9688 32.4791C32.2332 33.1146 31.8226 34.0469 31.85 35.0183ZM52.75 30.7433H54.65V36.4433H52.75V30.7433ZM53.7 23.4072C54.3935 24.0891 54.7841 25.021 54.7841 25.9933C54.7841 26.9655 54.3935 27.8974 53.7 28.5793C53.0065 27.8974 52.6159 26.9655 52.6159 25.9933C52.6159 25.021 53.0065 24.0891 53.7 23.4072ZM54.65 39.2933C54.65 39.8179 54.2246 40.2433 53.7 40.2433C53.1754 40.2433 52.75 39.8179 52.75 39.2933V38.3433H54.65V39.2933Z"/>
</g>
</svg>
