<svg viewBox="0 0 40 42" xmlns="http://www.w3.org/2000/svg">
<path d="M35.4 29.4H34.3038C33.535 29.4007 32.7769 29.5796 32.089 29.9229C31.0881 30.4204 29.9119 30.4204 28.911 29.9229C28.5117 29.727 28.088 29.5857 27.651 29.5029L29.0153 18.9H30.5C30.8866 18.9 31.2 18.5866 31.2 18.2V15.4C31.2 15.0134 30.8866 14.7 30.5 14.7H27.7V12.6C27.7 12.4143 27.6261 12.2363 27.4949 12.1051L24.2 8.8102V6.636L25.2612 5.7876L27.0735 9.4129L28.3265 8.7871L26.3791 4.893L27.245 4.2H29.8C30.1866 4.2 30.5 3.88657 30.5 3.5V0.7C30.5 0.313425 30.1866 0 29.8 0H22.8C19.3224 0.0042 16.5042 2.8224 16.5 6.3C16.5 6.68657 16.8134 7 17.2 7H18.6V8.8102L16.7051 10.7051C16.5738 10.8364 16.5 11.0143 16.5 11.2V14.7H15.1V9.1C15.0989 9.01329 15.0816 8.92762 15.0489 8.8473C15.0361 8.82009 15.0216 8.79366 15.0055 8.7682C14.9887 8.73154 14.969 8.69619 14.9467 8.6625L12.3 5.355V0.7C12.3 0.313425 11.9866 0 11.6 0H7.39999C7.01342 0 6.69999 0.313425 6.69999 0.7V5.355L4.05329 8.6625C4.03098 8.69619 4.01129 8.73154 3.99449 8.7682C3.97839 8.79366 3.96387 8.82009 3.95109 8.8473C3.91837 8.92762 3.90104 9.01329 3.89999 9.1V14.7H1.09999C0.713419 14.7 0.399994 15.0134 0.399994 15.4V18.2C0.399994 18.5866 0.713419 18.9 1.09999 18.9H2.58469L5.30559 39.9896C5.35066 40.3387 5.64798 40.6001 5.99999 40.6H22.478C23.2719 41.4899 24.4075 41.9991 25.6 42H26.6962C27.465 41.9993 28.2231 41.8204 28.911 41.4771C29.9119 40.9796 31.0881 40.9796 32.089 41.4771C32.7769 41.8204 33.535 41.9993 34.3038 42H35.4C37.7187 41.9977 39.5977 40.1187 39.6 37.8V33.6C39.5977 31.2813 37.7187 29.4023 35.4 29.4ZM27.7 1.4H29.1V2.8H27.7V1.4ZM29.8 16.1V17.5H20V16.1H29.8ZM17.9497 5.6C18.3008 3.19069 20.3652 1.40306 22.8 1.4H26.3V3.164L23.2543 5.6H17.9497ZM22.8 7V8.4H20V7H22.8ZM17.9 11.4898L19.5898 9.8H23.2102L26.3 12.8898V14.7H17.9V11.4898ZM17.2 16.1H18.6V21C18.5985 21.2666 18.7487 21.5108 18.9871 21.63L23.1871 23.73C23.3919 23.831 23.5472 24.0104 23.6176 24.2277C23.6901 24.4609 23.6649 24.7135 23.5476 24.9277C23.3462 25.3319 22.8553 25.4962 22.4511 25.2947C22.4505 25.2944 22.4499 25.2941 22.4493 25.2938L19.6073 23.8728C19.2599 23.703 18.8408 23.8471 18.671 24.1944C18.6246 24.2896 18.6003 24.3941 18.6 24.5V31.5C18.6 32.2732 17.9732 32.9 17.2 32.9V26.6H15.8V32.9H14.4V26.6H13V32.9H11.6V26.6H10.2V32.9C9.42676 32.9 8.79999 32.2732 8.79999 31.5V16.1H17.2ZM8.09999 1.4H10.9V4.9H8.09999V1.4ZM7.73599 6.3H11.264L12.944 8.4H6.05599L7.73599 6.3ZM5.29999 9.8H13.7V14.7H5.29999V9.8ZM1.79999 17.5V16.1H7.39999V17.5H1.79999ZM21.4 33.6V37.8C21.4012 38.2772 21.4841 38.7507 21.645 39.2H6.61529L3.99589 18.9H7.39999V31.5C7.39999 33.0464 8.65361 34.3 10.2 34.3H17.2C18.7464 34.3 20 33.0464 20 31.5V25.6326L21.8284 26.5468C22.9333 27.0921 24.271 26.6385 24.8163 25.5336C24.8185 25.5291 24.8207 25.5245 24.823 25.5199C25.0942 24.9824 25.1403 24.3589 24.9511 23.7874C24.7645 23.2156 24.3559 22.7429 23.8171 22.4756L20 20.5674V18.9H27.6041L26.2489 29.4H25.6C23.2813 29.4023 21.4023 31.2813 21.4 33.6ZM38.2 37.8C38.2 39.3464 36.9464 40.6 35.4 40.6H34.3038C33.7525 40.5992 33.2088 40.4708 32.7155 40.2248C31.3199 39.5314 29.6801 39.5314 28.2845 40.2248C27.7912 40.4708 27.2475 40.5992 26.6962 40.6H25.6C24.0536 40.6 22.8 39.3464 22.8 37.8V36.722C23.5676 37.4156 24.5654 37.7997 25.6 37.8H26.6962C27.465 37.7993 28.2231 37.6204 28.911 37.2771C29.9119 36.7796 31.0881 36.7796 32.089 37.2771C32.7769 37.6204 33.535 37.7993 34.3038 37.8H35.4C36.4346 37.7997 37.4324 37.4156 38.2 36.722V37.8ZM35.4 36.4H34.3038C33.7525 36.3992 33.2088 36.2709 32.7155 36.0248C31.3199 35.3314 29.6801 35.3314 28.2845 36.0248C27.7912 36.2709 27.2475 36.3992 26.6962 36.4H25.6C24.0536 36.4 22.8 35.1464 22.8 33.6C22.8 32.0536 24.0536 30.8 25.6 30.8H26.6962C27.2475 30.8008 27.7912 30.9291 28.2845 31.1752C29.6802 31.8682 31.3198 31.8682 32.7155 31.1752C33.2088 30.9291 33.7525 30.8008 34.3038 30.8H35.4C36.9464 30.8 38.2 32.0536 38.2 33.6C38.2 35.1464 36.9464 36.4 35.4 36.4Z"/>
<path d="M36.1 32.2H34.7V33.6H36.1V32.2Z"/>
</svg>
