<svg viewBox="0 0 53 53" xmlns="http://www.w3.org/2000/svg">
<path d="M40.6459 19.1724H12.479C12.2905 19.1724 12.1096 19.2473 11.9763 19.3806C11.843 19.5139 11.7681 19.6947 11.7681 19.8833V44.1226C11.7681 44.3112 11.843 44.492 11.9763 44.6253C12.1096 44.7586 12.2905 44.8335 12.479 44.8335H16.1084H16.1137H37.0112H37.0165H40.6459C40.8345 44.8335 41.0153 44.7586 41.1487 44.6253C41.282 44.492 41.3569 44.3112 41.3569 44.1226V19.8833C41.3569 19.6947 41.282 19.5139 41.1487 19.3806C41.0153 19.2473 40.8345 19.1724 40.6459 19.1724ZM16.0325 39.7278C16.0325 35.8753 17.6936 33.1912 19.185 33.1912C19.7399 33.1912 20.3046 33.541 20.8035 34.1817C19.9312 35.8982 19.494 37.8027 19.5303 39.7278C19.5228 40.9734 19.6926 42.2138 20.0344 43.4117H16.6061C16.2146 42.2234 16.0209 40.9789 16.0325 39.7278ZM36.5189 43.4117H31.3562C30.9642 42.2235 30.7706 40.9789 30.7834 39.7278C30.7834 37.6965 31.2543 35.8002 32.0761 34.5278C32.6298 33.667 33.2916 33.1929 33.94 33.1929C35.4313 33.1929 37.0925 35.877 37.0925 39.7294C37.104 40.98 36.9102 42.2239 36.5189 43.4117ZM29.8657 43.4117H26.4406C26.0485 42.2235 25.855 40.9789 25.8678 39.7278C25.8678 37.6929 26.3386 35.7961 27.1593 34.5241C27.4814 34.0261 28.1517 33.1912 29.0203 33.1912C29.7109 33.1912 30.2707 33.7161 30.6343 34.1825C29.7624 35.8988 29.3253 37.803 29.3615 39.7278C29.3541 40.9734 29.5238 42.2138 29.8657 43.4117ZM24.9501 43.4117H21.525C21.1327 42.2236 20.9392 40.9789 20.9522 39.7278C20.9522 37.6965 21.423 35.8002 22.2448 34.5278C22.5654 34.0293 23.2337 33.1929 24.1047 33.1929C24.7928 33.1929 25.3531 33.7161 25.7179 34.1813C24.8465 35.8982 24.4098 37.8027 24.4459 39.7278C24.4384 40.9735 24.6082 42.2138 24.9501 43.4117ZM39.935 43.4117H38.0086C38.3506 42.2138 38.5209 40.9735 38.5143 39.7278C38.5143 35.2647 36.505 31.7694 33.94 31.7694C33.4673 31.787 33.0037 31.9042 32.5795 32.1133C32.1553 32.3224 31.78 32.6187 31.4781 32.9828C31.189 32.6056 30.8169 32.3 30.3907 32.0897C29.9645 31.8794 29.4956 31.77 29.0203 31.77C28.545 31.77 28.0761 31.8794 27.6499 32.0897C27.2237 32.3 26.8516 32.6056 26.5625 32.9828C26.261 32.6193 25.8863 32.3233 25.4628 32.1143C25.0394 31.9052 24.5766 31.7877 24.1047 31.7694C23.6327 31.7873 23.1698 31.9046 22.7463 32.1136C22.3228 32.3226 21.9481 32.6187 21.6468 32.9824C21.3449 32.6184 20.9696 32.3222 20.5454 32.1131C20.1211 31.9041 19.6576 31.787 19.185 31.7694C16.6199 31.7694 14.6106 35.2631 14.6106 39.7278C14.6041 40.9735 14.7744 42.2138 15.1164 43.4117H13.1899V20.5942H39.935V43.4117Z"/>
<path d="M22.2969 23.0317H30.8281C31.0167 23.0317 31.1975 22.9568 31.3308 22.8235C31.4642 22.6902 31.5391 22.5094 31.5391 22.3208C31.5391 22.1322 31.4642 21.9514 31.3308 21.8181C31.1975 21.6848 31.0167 21.6099 30.8281 21.6099H22.2969C22.1083 21.6099 21.9275 21.6848 21.7942 21.8181C21.6608 21.9514 21.5859 22.1322 21.5859 22.3208C21.5859 22.5094 21.6608 22.6902 21.7942 22.8235C21.9275 22.9568 22.1083 23.0317 22.2969 23.0317Z"/>
<path d="M46.3282 2.09278H6.79678C6.6085 2.09321 6.42809 2.1683 6.29512 2.30158C6.16214 2.43486 6.08746 2.61544 6.08746 2.80371V49.5225C6.08746 49.711 6.16237 49.8918 6.29569 50.0252C6.42902 50.1585 6.60985 50.2334 6.7984 50.2334H46.3298C46.5183 50.2334 46.6992 50.1585 46.8325 50.0252C46.9658 49.8918 47.0407 49.711 47.0407 49.5225V2.80371C47.0407 2.71021 47.0223 2.61763 46.9864 2.53127C46.9506 2.44491 46.8981 2.36647 46.8319 2.30043C46.7657 2.23439 46.6872 2.18206 46.6007 2.14643C46.5143 2.11079 46.4216 2.09256 46.3282 2.09278ZM7.50934 3.51465H45.6156V13.7725H7.50934V3.51465ZM7.50934 48.8115V15.1943H45.6156V48.8115H7.50934Z"/>
<path d="M40.5753 5.69824C39.9928 5.69824 39.4233 5.87098 38.939 6.19462C38.4546 6.51825 38.0771 6.97825 37.8542 7.51643C37.6313 8.05462 37.573 8.64682 37.6866 9.21815C37.8002 9.78949 38.0808 10.3143 38.4927 10.7262C38.9046 11.1381 39.4294 11.4186 40.0007 11.5323C40.572 11.6459 41.1642 11.5876 41.7024 11.3647C42.2406 11.1417 42.7006 10.7642 43.0242 10.2799C43.3479 9.79553 43.5206 9.22608 43.5206 8.64355C43.5198 7.86267 43.2092 7.11402 42.657 6.56185C42.1048 6.00969 41.3562 5.6991 40.5753 5.69824ZM40.5753 10.167C40.274 10.167 39.9795 10.0776 39.7289 9.91024C39.4784 9.74285 39.2831 9.50492 39.1678 9.22655C39.0525 8.94818 39.0224 8.64186 39.0812 8.34635C39.1399 8.05083 39.285 7.77938 39.4981 7.56632C39.7111 7.35326 39.9826 7.20817 40.2781 7.14939C40.5736 7.09061 40.8799 7.12078 41.1583 7.23608C41.4367 7.35139 41.6746 7.54665 41.842 7.79718C42.0094 8.0477 42.0987 8.34225 42.0987 8.64355C42.0982 9.04743 41.9375 9.43461 41.6519 9.72019C41.3664 10.0058 40.9792 10.1665 40.5753 10.167Z"/>
<path d="M32.6729 5.69824C32.0904 5.69824 31.5209 5.87098 31.0366 6.19462C30.5522 6.51825 30.1747 6.97825 29.9518 7.51643C29.7289 8.05462 29.6705 8.64682 29.7842 9.21815C29.8978 9.78949 30.1784 10.3143 30.5903 10.7262C31.0022 11.1381 31.527 11.4186 32.0983 11.5323C32.6696 11.6459 33.2618 11.5876 33.8 11.3647C34.3382 11.1417 34.7982 10.7642 35.1218 10.2799C35.4455 9.79553 35.6182 9.22608 35.6182 8.64355C35.6174 7.86267 35.3068 7.11402 34.7546 6.56185C34.2024 6.00969 33.4538 5.6991 32.6729 5.69824ZM32.6729 10.167C32.3716 10.167 32.0771 10.0776 31.8265 9.91024C31.576 9.74285 31.3807 9.50492 31.2654 9.22655C31.1501 8.94818 31.12 8.64186 31.1787 8.34635C31.2375 8.05083 31.3826 7.77938 31.5957 7.56632C31.8087 7.35326 32.0802 7.20817 32.3757 7.14939C32.6712 7.09061 32.9775 7.12078 33.2559 7.23608C33.5343 7.35139 33.7722 7.54665 33.9396 7.79718C34.107 8.0477 34.1963 8.34225 34.1963 8.64355C34.1958 9.04743 34.0351 9.43461 33.7495 9.72019C33.464 10.0058 33.0768 10.1665 32.6729 10.167Z"/>
<path d="M12.5497 5.69824C11.9672 5.69824 11.3977 5.87098 10.9134 6.19462C10.429 6.51825 10.0515 6.97825 9.82857 7.51643C9.60565 8.05462 9.54732 8.64682 9.66096 9.21815C9.77461 9.78949 10.0551 10.3143 10.467 10.7262C10.8789 11.1381 11.4037 11.4186 11.9751 11.5323C12.5464 11.6459 13.1386 11.5876 13.6768 11.3647C14.215 11.1417 14.675 10.7642 14.9986 10.2799C15.3223 9.79553 15.495 9.22608 15.495 8.64355C15.4941 7.86267 15.1835 7.11402 14.6314 6.56185C14.0792 6.00969 13.3306 5.6991 12.5497 5.69824ZM12.5497 10.167C12.2484 10.167 11.9538 10.0776 11.7033 9.91024C11.4528 9.74285 11.2575 9.50492 11.1422 9.22655C11.0269 8.94818 10.9967 8.64186 11.0555 8.34635C11.1143 8.05083 11.2594 7.77938 11.4724 7.56632C11.6855 7.35326 11.957 7.20817 12.2525 7.14939C12.548 7.09061 12.8543 7.12078 13.1327 7.23608C13.411 7.35139 13.649 7.54665 13.8164 7.79718C13.9838 8.0477 14.0731 8.34225 14.0731 8.64355C14.0726 9.04743 13.9119 9.43461 13.6263 9.72019C13.3407 10.0058 12.9536 10.1665 12.5497 10.167Z"/>
</svg>
