<svg viewBox="0 0 51 51" xmlns="http://www.w3.org/2000/svg">
<g>
<path d="M42.2164 9.09456C42.6209 9.09456 42.9488 8.76663 42.9488 8.36213V3.67268C42.9487 2.16213 41.7198 0.933228 40.2093 0.933228H10.9157C9.40518 0.933228 8.17627 2.16213 8.17627 3.67278V45.1395C8.17627 46.65 9.40518 47.879 10.9158 47.879H11.4274V49.2133C11.4274 50.1617 12.199 50.9333 13.1475 50.9333H15.2249C16.1733 50.9333 16.9449 50.1617 16.9449 49.2133V47.879H34.1806V49.2133C34.1806 50.1617 34.9521 50.9333 35.9006 50.9333H37.978C38.9265 50.9333 39.698 50.1617 39.698 49.2133V47.879H40.2097C41.7202 47.879 42.9492 46.6501 42.9492 45.1395V11.7862C42.9492 11.3817 42.6214 11.0537 42.2168 11.0537C41.8123 11.0537 41.4844 11.3817 41.4844 11.7862V17.7503H20.6356C20.2312 17.7503 19.9032 18.0782 19.9032 18.4827C19.9032 18.8872 20.2312 19.2152 20.6356 19.2152H41.484V45.1396C41.484 45.8424 40.9122 46.4143 40.2093 46.4143H10.9157C10.2129 46.4143 9.64102 45.8424 9.64102 45.1396V19.2151H17.2117C17.6162 19.2151 17.9441 18.8871 17.9441 18.4826C17.9441 18.0781 17.6162 17.7502 17.2117 17.7502H9.64102V3.67278C9.64102 2.96995 10.2129 2.39807 10.9157 2.39807H40.2093C40.9122 2.39807 41.484 2.96995 41.484 3.67278V8.36223C41.484 8.76663 41.8118 9.09456 42.2164 9.09456ZM15.4799 49.2132C15.4799 49.3539 15.3654 49.4684 15.2247 49.4684H13.1473C13.0065 49.4684 12.8921 49.3539 12.8921 49.2132V47.8789H15.4799V49.2132ZM38.2328 49.2132C38.2328 49.3539 38.1184 49.4684 37.9776 49.4684H35.9002C35.7595 49.4684 35.645 49.3539 35.645 49.2132V47.8789H38.2328V49.2132Z"/>
<path d="M11.5011 6.65803V13.4903C11.5011 14.6341 12.4317 15.5647 13.5755 15.5647C14.7194 15.5647 15.6499 14.6341 15.6499 13.4903V6.65803C15.6499 5.51418 14.7194 4.58362 13.5755 4.58362C12.4317 4.58362 11.5011 5.51418 11.5011 6.65803ZM14.1852 6.65803V13.4903C14.1852 13.8264 13.9116 14.0998 13.5755 14.0998C13.2394 14.0998 12.9658 13.8264 12.9658 13.4903V6.65803C12.9658 6.3219 13.2394 6.04836 13.5755 6.04836C13.9116 6.04836 14.1852 6.3219 14.1852 6.65803Z"/>
<path d="M11.5011 23.0097V29.842C11.5011 30.9858 12.4317 31.9164 13.5755 31.9164C14.7194 31.9164 15.6499 30.9858 15.6499 29.842V23.0097C15.6499 21.8659 14.7194 20.9353 13.5755 20.9353C12.4317 20.9353 11.5011 21.8659 11.5011 23.0097ZM14.1852 23.0097V29.842C14.1852 30.1781 13.9116 30.4516 13.5755 30.4516C13.2394 30.4516 12.9658 30.1781 12.9658 29.842V23.0097C12.9658 22.6736 13.2394 22.4 13.5755 22.4C13.9116 22.4 14.1852 22.6736 14.1852 23.0097Z"/>
</g>
</svg>
