<svg viewBox="0 0 55 55" xmlns="http://www.w3.org/2000/svg">
<g>
<path d="M52.2027 5.59668H1.88437C0.869338 5.59668 0.0435181 6.4225 0.0435181 7.43753C0.0435181 8.96641 1.28731 10.2102 2.81619 10.2102H5.81013V14.0092C5.81013 14.9591 6.583 15.7319 7.53285 15.7319H8.06136C7.71437 16.9242 7.44679 18.1424 7.2656 19.3668C7.08967 20.5555 6.84857 22.1836 7.00403 24.3167C7.1248 25.9735 7.4528 27.6164 7.97962 29.2007L10.2036 35.8586C10.7261 37.4228 10.8766 39.0706 10.6519 40.6893C9.79294 40.2119 8.68647 40.3376 7.95789 41.0661L6.90901 42.1149C6.22652 42.7975 5.85063 43.7049 5.85063 44.6701C5.85063 45.6354 6.22652 46.5428 6.90901 47.2253L7.95789 48.2743C8.39801 48.7144 8.97619 48.9344 9.55437 48.9344C10.1085 48.9344 10.6627 48.7322 11.0953 48.328C11.4221 48.0961 12.9422 46.9592 14.2476 45.0071C16.1703 42.1315 16.7096 38.8474 15.8072 35.5097C15.1059 32.7488 13.3478 25.1583 13.6053 23.1146C13.7991 21.5773 14.2729 20.1124 15.0155 18.7535C15.685 18.7247 16.7948 18.5185 17.6792 17.5772C18.2343 16.9862 18.4898 16.3282 18.6055 15.7934C19.0014 15.835 19.3964 15.8891 19.7858 15.9589C19.833 15.9673 19.88 15.9714 19.9264 15.9714C20.3022 15.9714 20.6354 15.7027 20.7041 15.3198C20.7812 14.8898 20.4952 14.4787 20.0651 14.4016C19.3697 14.277 18.6589 14.1927 17.9523 14.1511C17.9369 14.1503 17.9214 14.1498 17.906 14.1498H7.53285C7.45523 14.1498 7.39216 14.0866 7.39216 14.0091V10.2102H41.8131C42.25 10.2102 42.6042 9.85604 42.6042 9.41918C42.6042 8.98233 42.25 8.62817 41.8131 8.62817H2.81619C2.15964 8.62817 1.62555 8.09407 1.62555 7.43753C1.62555 7.29483 1.74167 7.17871 1.88437 7.17871H52.2028C52.3455 7.17871 52.4616 7.29483 52.4616 7.43753C52.4616 8.09397 51.9275 8.62806 51.271 8.62806H45.4154C44.9786 8.62806 44.6244 8.98223 44.6244 9.41908C44.6244 9.85593 44.9786 10.2101 45.4154 10.2101H46.695V14.0091C46.695 14.0867 46.6318 14.1498 46.5542 14.1498H36.1811C36.1766 14.1498 36.1719 14.1498 36.1674 14.1499C34.1019 14.1857 32.1027 14.6118 30.2256 15.4163C29.1128 15.8933 28.053 16.5021 27.0756 17.2261C27.0445 17.2493 27.003 17.2507 26.9723 17.2297C25.8725 16.4776 24.6878 15.8491 23.4511 15.3617C23.0445 15.2015 22.5854 15.4012 22.4251 15.8075C22.2649 16.2139 22.4646 16.6733 22.871 16.8335C23.9977 17.2776 25.0771 17.8503 26.0793 18.5356C26.3631 18.7296 26.6919 18.8263 27.0204 18.8263C27.371 18.8263 27.7215 18.7164 28.017 18.4975C28.896 17.8466 29.8487 17.2992 30.8488 16.8706C32.3178 16.2409 33.8708 15.8692 35.4748 15.7622C35.5872 16.3024 35.8418 16.9746 36.4078 17.5771C37.2923 18.5186 38.4021 18.7247 39.0714 18.7534C39.814 20.1123 40.2879 21.5772 40.4816 23.1145C40.7391 25.1577 38.9808 32.7492 38.2796 35.5099C37.3772 38.8476 37.9166 42.1314 39.8393 45.007C41.1446 46.9592 42.6648 48.0959 42.9917 48.3279C43.4243 48.7321 43.9784 48.9343 44.5326 48.9343C45.1107 48.9343 45.6889 48.7143 46.129 48.2741L47.1779 47.2253C47.8604 46.5427 48.2363 45.6354 48.2363 44.67C48.2363 43.7049 47.8604 42.7974 47.1779 42.1149L46.129 41.0659C45.4005 40.3375 44.2941 40.2116 43.435 40.6892C43.2103 39.0705 43.3608 37.4227 43.8833 35.8585L46.1077 29.1995C46.6341 27.6162 46.9622 25.9733 47.0829 24.3166C47.2384 22.1835 46.9973 20.5554 46.8214 19.3667C46.6402 18.1423 46.3728 16.9241 46.0257 15.7318H46.5542C47.5041 15.7318 48.277 14.9589 48.277 14.0091V10.2102H51.271C52.7997 10.2102 54.0435 8.96641 54.0435 7.43753C54.0435 6.4225 53.2177 5.59668 52.2027 5.59668ZM16.9853 15.7319C16.899 15.9797 16.7574 16.2479 16.5262 16.4939C15.7996 17.2673 14.7625 17.1793 14.6468 17.1668C14.3385 17.1329 14.0396 17.2828 13.8814 17.549C12.8967 19.2059 12.2757 21.0119 12.0357 22.9169C11.694 25.6286 14.0102 34.8615 14.2755 35.9053C14.2765 35.9093 14.2776 35.9134 14.2786 35.9174C15.0662 38.8247 14.6238 41.5713 12.9639 44.0806C12.1397 45.3265 11.2162 46.2681 10.0323 47.1555C9.73409 47.379 9.34006 47.4188 9.0766 47.1556L8.02771 46.1066C7.23564 45.3145 7.23564 44.0258 8.02771 43.2336L9.0766 42.1848C9.20833 42.053 9.3814 41.9872 9.55437 41.9872C9.72734 41.9872 9.90042 42.0531 10.0321 42.1847L10.5946 42.7473C10.7946 42.9473 11.0858 43.0252 11.3589 42.952C11.632 42.8788 11.8452 42.6654 11.9182 42.3923C12.5395 40.0688 12.4654 37.6362 11.7042 35.3574L9.48055 28.7006C8.99539 27.2416 8.69312 25.7279 8.58185 24.2018C8.43915 22.2427 8.66538 20.7144 8.83054 19.5985C9.02365 18.2933 9.31971 16.9953 9.71215 15.7319H16.9853ZM45.2565 19.5985C45.4217 20.7145 45.6479 22.2427 45.5052 24.2018C45.3939 25.7279 45.0916 27.2415 44.6069 28.6995L42.3829 35.3574C41.6217 37.6362 41.5478 40.0688 42.1689 42.3923C42.2419 42.6654 42.4551 42.8787 42.7282 42.952C43.0013 43.025 43.2927 42.9473 43.4925 42.7473L44.055 42.1848C44.3185 41.9212 44.7472 41.9215 45.0106 42.1847L46.0595 43.2337C46.8516 44.0258 46.8516 45.3145 46.0595 46.1067L45.0106 47.1555C44.7472 47.4189 44.3593 47.3705 44.055 47.1555C42.9137 46.3488 41.9484 45.3277 41.1234 44.0806C39.4634 41.5713 39.021 38.8247 39.8086 35.9174C39.8097 35.9134 39.8107 35.9093 39.8118 35.9053C40.077 34.8616 42.3932 25.6287 42.0515 22.9169C41.8116 21.012 41.1906 19.2059 40.2058 17.549C40.0623 17.3075 39.8028 17.1622 39.5261 17.1622C39.4977 17.1622 39.4691 17.1636 39.4404 17.1668C39.3245 17.1793 38.2876 17.2672 37.5611 16.4939C37.33 16.2479 37.1882 15.9797 37.102 15.7319H44.3749C44.7672 16.9953 45.0633 18.2933 45.2565 19.5985Z"/>
</g>
</svg>
