<svg viewBox="0 0 51 51" xmlns="http://www.w3.org/2000/svg">
<g>
<path d="M29.8722 33.8803H40.9114C42.1229 33.8803 43.1086 32.8946 43.1086 31.683V26.8329C43.1086 25.6213 42.1229 24.6356 40.9114 24.6356H29.8722C28.6607 24.6356 27.675 25.6213 27.675 26.8329V31.683C27.675 32.8945 28.6607 33.8803 29.8722 33.8803ZM38.199 32.4154H32.5847V30.3522H38.199V32.4154ZM29.1398 26.8329C29.1398 26.429 29.4683 26.1005 29.8722 26.1005H40.9114C41.3153 26.1005 41.6438 26.429 41.6438 26.8329V31.683C41.6438 32.0869 41.3153 32.4154 40.9114 32.4154H39.6638V30.108C39.6638 29.4349 39.1163 28.8873 38.4432 28.8873H32.3406C31.6674 28.8873 31.1199 29.4349 31.1199 30.108V32.4154H29.8723C29.4684 32.4154 29.1399 32.0869 29.1399 31.683V26.8329H29.1398Z"/>
<path d="M50.4062 36.5566L47.143 24.2289C46.5859 22.1242 44.6764 20.6543 42.4992 20.6543H28.8341V19.9474C28.8341 19.1783 28.5086 18.4842 27.9888 17.9942C28.5086 17.5041 28.8341 16.81 28.8341 16.041V14.6547C28.8341 13.8856 28.5086 13.1916 27.9888 12.7015C28.5086 12.2115 28.8341 11.5174 28.8341 10.7483V9.36192C28.8341 7.88107 27.6294 6.67639 26.1486 6.67639H22.8142C22.4096 6.67639 22.0817 7.00432 22.0817 7.40881C22.0817 7.8133 22.4096 8.14122 22.8142 8.14122H26.1486C26.8217 8.14122 27.3693 8.68878 27.3693 9.36192V10.7481C27.3693 11.4213 26.8217 11.9688 26.1486 11.9688H3.1854C2.51226 11.9688 1.96471 11.4213 1.96471 10.7481V9.36192C1.96471 8.68878 2.51226 8.14122 3.1854 8.14122H19.3962C19.8008 8.14122 20.1286 7.8133 20.1286 7.40881C20.1286 7.00432 19.8008 6.67639 19.3962 6.67639H3.1854C1.70456 6.67639 0.499878 7.88117 0.499878 9.36192V10.7481C0.499878 11.5173 0.825364 12.2113 1.34518 12.7013C0.825364 13.1915 0.499878 13.8856 0.499878 14.6547V16.041C0.499878 16.81 0.825364 17.5041 1.34518 17.9942C0.825364 18.4842 0.499878 19.1783 0.499878 19.9474V21.3336C0.499878 22.1027 0.825364 22.7968 1.34518 23.2868C0.825364 23.7769 0.499878 24.471 0.499878 25.2401V26.6263C0.499878 27.3955 0.825364 28.0895 1.34518 28.5795C0.825364 29.0697 0.499878 29.7638 0.499878 30.5328V31.9191C0.499878 32.6881 0.825364 33.3822 1.34518 33.8723C0.825364 34.3624 0.499878 35.0565 0.499878 35.8256V37.2118C0.499878 37.9809 0.825364 38.675 1.34518 39.165C0.825364 39.6551 0.499878 40.3492 0.499878 41.1183V42.5045C0.499878 43.9854 1.70456 45.1901 3.1854 45.1901H40.0872C41.6774 45.1901 43.1425 44.2603 43.8198 42.8213L45.132 40.0331H47.7303C48.5961 40.0331 49.3957 39.6396 49.9238 38.9535C50.4519 38.2674 50.6277 37.3937 50.4062 36.5566ZM42.4992 22.1192C44.0124 22.1192 45.3398 23.1409 45.727 24.6038L47.9679 33.0693C47.8336 33.0601 47.699 33.0536 47.5643 33.0536C44.4392 33.0536 41.8746 35.4936 41.6717 38.5682H16.0525L19.9645 33.1629C20.3852 32.5818 20.5542 31.8717 20.4407 31.1633C20.3273 30.455 19.9446 29.8333 19.3636 29.4128L18.3469 28.677L22.154 23.484C22.7806 22.6294 23.7872 22.1191 24.8468 22.1191H42.4992V22.1192ZM14.2443 38.5682H11.0955L17.4809 29.8584L18.5048 30.5994C18.7689 30.7907 18.9427 31.0732 18.9944 31.3951C19.0459 31.717 18.9691 32.0399 18.7779 32.304L14.2443 38.5682ZM1.96471 14.6547C1.96471 13.9816 2.51226 13.4341 3.1854 13.4341H26.1486C26.8217 13.4341 27.3693 13.9816 27.3693 14.6547V16.041C27.3693 16.7141 26.8217 17.2617 26.1486 17.2617H3.1854C2.51226 17.2617 1.96471 16.7141 1.96471 16.041V14.6547ZM1.96471 19.9474C1.96471 19.2742 2.51226 18.7267 3.1854 18.7267H26.1486C26.8217 18.7267 27.3693 19.2742 27.3693 19.9474V20.6543H24.8469C23.3494 20.6543 21.9267 21.3638 21.0223 22.5543H3.1854C2.51226 22.5543 1.96471 22.0067 1.96471 21.3336V19.9474ZM1.96471 30.5328C1.96471 29.8597 2.51226 29.3122 3.1854 29.3122C3.18736 29.3122 3.18911 29.3119 3.19107 29.3119H7.72638C8.13097 29.3119 8.4588 28.9839 8.4588 28.5794C8.4588 28.175 8.13097 27.847 7.72638 27.847H3.1854C2.51226 27.847 1.96471 27.2995 1.96471 26.6263V25.2401C1.96471 24.567 2.51226 24.0194 3.1854 24.0194H19.9451L17.139 27.847H11.1443C10.7397 27.847 10.4119 28.175 10.4119 28.5794C10.4119 28.9839 10.7397 29.3119 11.1443 29.3119H16.0652L13.2589 33.1398H3.1854C2.51226 33.1398 1.96471 32.5922 1.96471 31.9191V30.5328ZM1.96471 35.8256C1.96471 35.1524 2.51226 34.6049 3.1854 34.6049H12.1847L9.37871 38.4325H3.1854C2.51226 38.4325 1.96471 37.8849 1.96471 37.2118V35.8256ZM3.1854 43.7252C2.51226 43.7252 1.96471 43.1777 1.96471 42.5045V41.1183C1.96471 40.4452 2.51226 39.8976 3.1854 39.8976H8.3046L5.49857 43.7252H3.1854ZM43.0003 41.1223H27.4528C27.0482 41.1223 26.7204 41.4502 26.7204 41.8547C26.7204 42.2592 27.0482 42.5871 27.4528 42.5871H42.2665C41.7743 43.2893 40.9606 43.7252 40.0872 43.7252H19.4688L19.7368 43.3596C20.0914 42.8759 20.6611 42.5871 21.2608 42.5871H23.9698C24.3744 42.5871 24.7022 42.2592 24.7022 41.8547C24.7022 41.4502 24.3744 41.1223 23.9698 41.1223H21.2608C20.1962 41.1223 19.1848 41.635 18.5554 42.4936L17.6524 43.7252H7.31486L10.0216 40.0331H43.5129L43.0003 41.1223ZM48.763 38.0599C48.5143 38.383 48.138 38.5682 47.7303 38.5682H43.1393C43.3387 36.3019 45.2472 34.5185 47.5644 34.5185C47.8347 34.5185 48.1046 34.5434 48.3711 34.5926L48.9903 36.9314C49.0944 37.3256 49.0117 37.7369 48.763 38.0599Z"/>
<path d="M33.8981 37.1082C34.3026 37.1082 34.6305 36.7802 34.6305 36.3757C34.6305 35.9712 34.3026 35.6433 33.8981 35.6433C33.4936 35.6433 33.1656 35.9712 33.1656 36.3757C33.1656 36.7802 33.4936 37.1082 33.8981 37.1082Z"/>
<path d="M31.2278 37.1082C31.6323 37.1082 31.9602 36.7802 31.9602 36.3757C31.9602 35.9712 31.6323 35.6433 31.2278 35.6433C30.8233 35.6433 30.4954 35.9712 30.4954 36.3757C30.4954 36.7802 30.8233 37.1082 31.2278 37.1082Z"/>
<path d="M28.5576 37.1082C28.9621 37.1082 29.29 36.7802 29.29 36.3757C29.29 35.9712 28.9621 35.6433 28.5576 35.6433C28.1531 35.6433 27.8251 35.9712 27.8251 36.3757C27.8251 36.7802 28.1531 37.1082 28.5576 37.1082Z"/>
<path d="M39.8876 35.6433H36.7515C36.3469 35.6433 36.019 35.9712 36.019 36.3757C36.019 36.7802 36.3469 37.1082 36.7515 37.1082H39.8876C40.2922 37.1082 40.62 36.7802 40.62 36.3757C40.62 35.9712 40.2922 35.6433 39.8876 35.6433Z"/>
</g>
</svg>
