<svg viewBox="0 0 57 57" xmlns="http://www.w3.org/2000/svg">
<g>
<path d="M13.0598 51.8321L19.3525 28.6353L21.159 29.1254L14.8663 52.3222L13.0598 51.8321Z"/>
<path d="M43.2027 27.2088C45.9967 24.1354 47.0392 19.8532 45.9706 15.8393C44.797 11.4505 41.2746 8.08217 36.8378 7.10602C35.3783 2.87449 32.5756 0.265625 29.4277 0.265625C26.3451 0.265625 23.5817 2.77802 22.1086 6.85867C17.4359 7.15448 13.3465 10.1044 11.5917 14.4457C9.83739 18.7874 10.7285 23.75 13.8837 27.2098L12.0951 33.9089L13.6748 37.952L9.97501 40.8105L11.8011 44.8953L8.39259 47.6939L7.69122 50.3421L12.8893 56.2607L20.3492 53.7374L26.6455 30.563C27.3021 30.3485 27.939 30.0779 28.5494 29.7542C29.1863 30.0952 29.8524 30.3796 30.5401 30.6032L32.3301 37.306L35.7217 40.01L33.9587 44.3297L37.5817 46.9637L36.0317 51.0892L36.7331 53.7374L44.1962 56.2658L49.3956 50.3448L43.2027 27.2088ZM29.4277 2.13838C31.5071 2.13838 33.5006 3.93889 34.73 6.83078C33.4937 6.77865 32.2569 6.9149 31.0613 7.23495C30.1862 7.4695 29.3408 7.80281 28.5416 8.2294C27.1645 7.49877 25.6589 7.04155 24.108 6.8829C25.3288 3.96541 27.3382 2.13838 29.4277 2.13838ZM21.2714 16.6979C21.554 18.4738 22.1205 20.1929 22.9494 21.7881C22.6778 21.7991 22.4053 21.7707 22.1415 21.704C21.0863 21.4237 20.2907 20.555 20.1037 19.4796C19.9167 18.4038 20.373 17.3179 21.2714 16.6979ZM24.7111 21.1178C23.8835 19.5903 23.333 17.9278 23.0843 16.2083C23.1936 16.2124 23.3024 16.2233 23.4103 16.2412L23.6041 16.2823C24.3247 16.4734 24.9388 16.9439 25.3114 17.5895C25.684 18.2351 25.7837 19.0023 25.5885 19.7215C25.4431 20.2647 25.1376 20.7516 24.7111 21.1178ZM25.6296 28.9152L25.1157 29.0565L18.8043 52.2853L13.4727 54.0876L9.75692 49.8561L10.0482 48.7588L14.0931 45.4344L12.2862 41.3912L15.928 38.5757L14.0625 33.8001L15.9673 26.6629L15.585 26.2821C12.8116 23.5077 11.8546 19.3992 13.117 15.6852C14.3794 11.9708 17.6416 9.29608 21.5311 8.78674C21.1745 10.2901 20.9962 11.83 21.0003 13.3749C21.0003 13.7932 21.02 14.2363 21.0478 14.6972C19.2089 15.4721 18.0659 17.3298 18.2026 19.3205C18.3393 21.3112 19.726 22.9952 21.6537 23.5114C22.0556 23.6202 22.4702 23.675 22.8868 23.675C25.23 23.6645 27.2043 21.9234 27.5083 19.6003C27.8119 17.2772 26.3515 15.0867 24.0902 14.474L23.99 14.4489C23.9027 14.4256 23.8145 14.4073 23.7248 14.3936C23.4523 14.3451 23.1762 14.3204 22.8991 14.3204C22.8822 13.994 22.8731 13.6785 22.8731 13.3749C22.8735 11.8044 23.0815 10.2407 23.4917 8.72502C28.5197 9.01763 32.5971 12.9062 33.1275 17.915C33.6578 22.9234 30.4848 27.5796 25.6296 28.9188V28.9152ZM43.6078 54.0876L38.2807 52.2862L37.9895 51.1884L39.8307 46.2866L36.2425 43.6777L37.9813 39.4192L33.9793 36.2224L32.0754 29.088L31.5542 28.9476C31.1582 28.837 30.7687 28.7039 30.3883 28.5489C32.0228 27.2637 33.3035 25.5839 34.1096 23.6677C34.1429 23.6677 34.1759 23.6769 34.2097 23.6769C34.6207 23.6769 35.0304 23.6215 35.4268 23.5123C37.7133 22.9005 39.1815 20.6762 38.8459 18.3329C38.5098 15.9902 36.4757 14.2683 34.1096 14.3236C33.3044 12.4065 32.0242 10.7262 30.3892 9.44193C30.765 9.28785 31.1505 9.15663 31.5428 9.04964C36.0468 7.83848 40.8027 9.8045 43.1364 13.8426C45.47 17.8812 44.7988 22.9837 41.5 26.2812L41.1182 26.6629L47.3263 49.8579L43.6078 54.0876ZM34.7122 16.2348C35.9988 16.4776 36.9466 17.5767 36.9983 18.8843C37.0499 20.1924 36.1908 21.3624 34.9275 21.7058C34.8612 21.7255 34.7881 21.7246 34.719 21.7387C35.1484 19.9286 35.1461 18.0435 34.7122 16.2348Z"/>
<path d="M36.5731 29.0589L38.3818 28.5742L44.5862 51.7285L42.7775 52.2132L36.5731 29.0589Z"/>
</g>
</svg>
