<svg viewBox="0 0 50 50" xmlns="http://www.w3.org/2000/svg">
<path d="M47.9688 28.0814H2.03125C1.82819 28.0814 1.63345 28.1621 1.48987 28.3057C1.34629 28.4492 1.26563 28.644 1.26562 28.847V47.222C1.26563 47.4251 1.34629 47.6198 1.48987 47.7634C1.63345 47.907 1.82819 47.9877 2.03125 47.9877H47.9688C48.1718 47.9877 48.3665 47.907 48.5101 47.7634C48.6537 47.6198 48.7344 47.4251 48.7344 47.222V28.847C48.7344 28.644 48.6537 28.4492 48.5101 28.3057C48.3665 28.1621 48.1718 28.0814 47.9688 28.0814ZM15.0469 46.4564H2.79688V29.6127H15.0469V46.4564ZM33.4219 46.4564H16.5781V29.6127H33.4219V46.4564ZM47.2031 46.4564H34.9531V38.0345H47.2031V46.4564ZM47.2031 36.5033H34.9531V29.6127H47.2031V36.5033Z"/>
<path d="M31.8906 36.5033H18.1094C17.9063 36.5033 17.7116 36.584 17.568 36.7275C17.4244 36.8711 17.3438 37.0659 17.3438 37.2689V43.3939C17.3438 43.597 17.4244 43.7917 17.568 43.9353C17.7116 44.0789 17.9063 44.1595 18.1094 44.1595H31.8906C32.0937 44.1595 32.2884 44.0789 32.432 43.9353C32.5756 43.7917 32.6562 43.597 32.6562 43.3939V37.2689C32.6562 37.0659 32.5756 36.8711 32.432 36.7275C32.2884 36.584 32.0937 36.5033 31.8906 36.5033ZM18.875 38.0345H31.125V38.8002H18.875V38.0345ZM31.125 42.6283H18.875V40.3314H31.125V42.6283Z"/>
<path d="M25 35.7377C25.4543 35.7377 25.8984 35.603 26.2761 35.3506C26.6538 35.0982 26.9482 34.7395 27.122 34.3198C27.2959 33.9001 27.3414 33.4383 27.2527 32.9927C27.1641 32.5472 26.9454 32.1379 26.6241 31.8167C26.3029 31.4954 25.8937 31.2767 25.4481 31.1881C25.0026 31.0994 24.5407 31.1449 24.121 31.3188C23.7013 31.4926 23.3426 31.787 23.0902 32.1647C22.8378 32.5424 22.7031 32.9865 22.7031 33.4408C22.7038 34.0498 22.946 34.6336 23.3766 35.0642C23.8072 35.4948 24.391 35.737 25 35.7377ZM25 32.6752C25.1514 32.6752 25.2995 32.7201 25.4254 32.8042C25.5513 32.8883 25.6494 33.0079 25.7073 33.1478C25.7653 33.2877 25.7805 33.4417 25.7509 33.5902C25.7214 33.7387 25.6485 33.8751 25.5414 33.9822C25.4343 34.0893 25.2979 34.1622 25.1494 34.1917C25.0009 34.2213 24.8469 34.2061 24.707 34.1481C24.5671 34.0902 24.4475 33.9921 24.3634 33.8662C24.2793 33.7403 24.2344 33.5922 24.2344 33.4408C24.2346 33.2378 24.3153 33.0432 24.4589 32.8997C24.6024 32.7561 24.797 32.6754 25 32.6752Z"/>
<path d="M19.6406 35.7377C20.0949 35.7377 20.539 35.603 20.9167 35.3506C21.2944 35.0982 21.5888 34.7395 21.7627 34.3198C21.9365 33.9001 21.982 33.4383 21.8934 32.9927C21.8047 32.5472 21.586 32.1379 21.2648 31.8167C20.9435 31.4954 20.5343 31.2767 20.0887 31.1881C19.6432 31.0994 19.1813 31.1449 18.7616 31.3188C18.3419 31.4926 17.9832 31.787 17.7308 32.1647C17.4785 32.5424 17.3438 32.9865 17.3438 33.4408C17.3444 34.0498 17.5866 34.6336 18.0172 35.0642C18.4478 35.4948 19.0317 35.737 19.6406 35.7377ZM19.6406 32.6752C19.792 32.6752 19.9401 32.7201 20.066 32.8042C20.1919 32.8883 20.29 33.0079 20.348 33.1478C20.4059 33.2877 20.4211 33.4417 20.3915 33.5902C20.362 33.7387 20.2891 33.8751 20.182 33.9822C20.0749 34.0893 19.9385 34.1622 19.79 34.1917C19.6415 34.2213 19.4875 34.2061 19.3476 34.1481C19.2077 34.0902 19.0882 33.9921 19.004 33.8662C18.9199 33.7403 18.875 33.5922 18.875 33.4408C18.8752 33.2378 18.956 33.0432 19.0995 32.8997C19.243 32.7561 19.4376 32.6754 19.6406 32.6752Z"/>
<path d="M30.3594 31.1439C29.9051 31.1439 29.461 31.2786 29.0833 31.531C28.7056 31.7834 28.4112 32.1421 28.2373 32.5618C28.0635 32.9815 28.018 33.4433 28.1066 33.8889C28.1953 34.3344 28.414 34.7437 28.7352 35.0649C29.0565 35.3862 29.4657 35.6049 29.9113 35.6935C30.3568 35.7822 30.8187 35.7367 31.2384 35.5628C31.6581 35.389 32.0168 35.0946 32.2692 34.7169C32.5215 34.3392 32.6563 33.8951 32.6563 33.4408C32.6556 32.8318 32.4134 32.248 31.9828 31.8174C31.5522 31.3868 30.9683 31.1446 30.3594 31.1439ZM30.3594 34.2064C30.208 34.2064 30.0599 34.1615 29.934 34.0774C29.8081 33.9933 29.71 33.8737 29.652 33.7338C29.5941 33.5939 29.5789 33.4399 29.6085 33.2914C29.638 33.1429 29.7109 33.0065 29.818 32.8994C29.9251 32.7923 30.0615 32.7194 30.21 32.6899C30.3585 32.6603 30.5125 32.6755 30.6524 32.7335C30.7923 32.7914 30.9118 32.8895 30.996 33.0154C31.0801 33.1413 31.125 33.2894 31.125 33.4408C31.1248 33.6438 31.044 33.8384 30.9005 33.9819C30.757 34.1255 30.5624 34.2062 30.3594 34.2064Z"/>
<path d="M39.5469 31.9095H42.6094C42.8124 31.9095 43.0072 31.8289 43.1508 31.6853C43.2943 31.5417 43.375 31.347 43.375 31.1439C43.375 30.9409 43.2943 30.7461 43.1508 30.6025C43.0072 30.459 42.8124 30.3783 42.6094 30.3783H39.5469C39.3438 30.3783 39.1491 30.459 39.0055 30.6025C38.8619 30.7461 38.7812 30.9409 38.7812 31.1439C38.7812 31.347 38.8619 31.5417 39.0055 31.6853C39.1491 31.8289 39.3438 31.9095 39.5469 31.9095Z"/>
<path d="M39.5469 40.3314H42.6094C42.8124 40.3314 43.0072 40.2508 43.1508 40.1072C43.2943 39.9636 43.375 39.7689 43.375 39.5658C43.375 39.3627 43.2943 39.168 43.1508 39.0244C43.0072 38.8808 42.8124 38.8002 42.6094 38.8002H39.5469C39.3438 38.8002 39.1491 38.8808 39.0055 39.0244C38.8619 39.168 38.7812 39.3627 38.7812 39.5658C38.7812 39.7689 38.8619 39.9636 39.0055 40.1072C39.1491 40.2508 39.3438 40.3314 39.5469 40.3314Z"/>
<path d="M44.9062 1.28455H2.03125C1.82819 1.28455 1.63345 1.36521 1.48987 1.50879C1.34629 1.65237 1.26563 1.84711 1.26562 2.05017C1.26562 2.25323 1.34629 2.44797 1.48987 2.59155C1.63345 2.73513 1.82819 2.8158 2.03125 2.8158H20.4062V6.49654L17.5907 13.5345H15.8125C15.6094 13.5345 15.4147 13.6152 15.2711 13.7588C15.1275 13.9024 15.0469 14.0971 15.0469 14.3002V17.3627C15.0469 17.5657 15.1275 17.7605 15.2711 17.9041C15.4147 18.0476 15.6094 18.1283 15.8125 18.1283H34.1875C34.3906 18.1283 34.5853 18.0476 34.7289 17.9041C34.8725 17.7605 34.9531 17.5657 34.9531 17.3627V14.3002C34.9531 14.0971 34.8725 13.9024 34.7289 13.7588C34.5853 13.6152 34.3906 13.5345 34.1875 13.5345H32.4093L29.5938 6.49654V2.8158H44.9062C45.1093 2.8158 45.304 2.73513 45.4476 2.59155C45.5912 2.44797 45.6719 2.25323 45.6719 2.05017C45.6719 1.84711 45.5912 1.65237 45.4476 1.50879C45.304 1.36521 45.1093 1.28455 44.9062 1.28455ZM21.9375 2.8158H28.0625V5.8783H21.9375V2.8158ZM33.4219 15.0658V16.597H16.5781V15.0658H33.4219ZM30.7594 13.5345H19.2406L21.6906 7.40955H28.3094L30.7594 13.5345Z"/>
<path d="M47.2031 2.8158H47.9688C48.1718 2.8158 48.3665 2.73513 48.5101 2.59155C48.6537 2.44797 48.7344 2.25323 48.7344 2.05017C48.7344 1.84711 48.6537 1.65237 48.5101 1.50879C48.3665 1.36521 48.1718 1.28455 47.9688 1.28455H47.2031C47.0001 1.28455 46.8053 1.36521 46.6617 1.50879C46.5182 1.65237 46.4375 1.84711 46.4375 2.05017C46.4375 2.25323 46.5182 2.44797 46.6617 2.59155C46.8053 2.73513 47.0001 2.8158 47.2031 2.8158Z"/>
<path d="M12.75 34.972C12.5469 34.972 12.3522 35.0527 12.2086 35.1963C12.065 35.3399 11.9844 35.5346 11.9844 35.7377V40.3314C11.9844 40.5345 12.065 40.7292 12.2086 40.8728C12.3522 41.0164 12.5469 41.097 12.75 41.097C12.9531 41.097 13.1478 41.0164 13.2914 40.8728C13.435 40.7292 13.5156 40.5345 13.5156 40.3314V35.7377C13.5156 35.5346 13.435 35.3399 13.2914 35.1963C13.1478 35.0527 12.9531 34.972 12.75 34.972Z"/>
</svg>
