<svg viewBox="0 0 65 64" xmlns="http://www.w3.org/2000/svg">
<g>
<path d="M32.5 53.3433C31.9109 53.3433 31.4333 53.8134 31.4333 54.3933V62.7933C31.4333 63.3731 31.9109 63.8433 32.5 63.8433C33.089 63.8433 33.5666 63.3731 33.5666 62.7933V54.3933C33.5666 53.8134 33.089 53.3433 32.5 53.3433Z"/>
<path d="M40.8903 51.8995C40.5993 51.3954 39.9481 51.219 39.4359 51.5055C38.9238 51.792 38.7446 52.433 39.0357 52.9372C39.0381 52.9412 39.0405 52.9453 39.0429 52.9494L43.3095 60.2238C43.6075 60.724 44.261 60.8917 44.7693 60.5983C45.2726 60.3078 45.4454 59.673 45.157 59.1738L40.8903 51.8995Z"/>
<path d="M53.3565 50.3339L45.9666 46.1339C45.4585 45.8406 44.8049 46.0083 44.5069 46.5085C44.2089 47.0087 44.3793 47.6521 44.8874 47.9454C44.8915 47.9478 44.8957 47.9502 44.8998 47.9525L52.2897 52.1525C52.8018 52.439 53.453 52.2626 53.7441 51.7585C54.0326 51.2592 53.8598 50.6245 53.3565 50.3339Z"/>
<path d="M20.4916 46.5185C20.4916 46.5184 20.4915 46.5184 20.4915 46.5183C20.1972 46.016 19.5449 45.8435 19.0345 46.1333C19.0341 46.1336 19.0337 46.1338 19.0333 46.134L11.6435 50.334C11.1313 50.6205 10.9521 51.2615 11.2432 51.7656C11.5343 52.2698 12.1855 52.4462 12.6976 52.1596C12.7017 52.1573 12.7059 52.1549 12.71 52.1526L20.0999 47.9526C20.6104 47.663 20.7857 47.021 20.4916 46.5185Z"/>
<path d="M25.5678 51.5148C25.5674 51.5145 25.567 51.5142 25.5666 51.5141C25.0564 51.2244 24.404 51.3968 24.1097 51.8992C24.1097 51.8993 24.1096 51.8995 24.1096 51.8995L19.8429 59.1739C19.545 59.6742 19.7154 60.3175 20.2237 60.6107C20.732 60.9039 21.3854 60.7361 21.6833 60.2358C21.6857 60.2319 21.688 60.2278 21.6904 60.2237L25.957 52.9493C26.252 52.4476 26.0778 51.8052 25.5678 51.5148Z"/>
<path d="M33.5666 14.5195V8.09876C36.6421 7.58439 38.8942 4.96412 38.9 1.89326C38.9 1.3134 38.4224 0.843262 37.8333 0.843262H27.1666C26.5776 0.843262 26.1 1.3134 26.1 1.89326C26.1057 4.96412 28.3578 7.58439 31.4333 8.09876V14.5195C17.73 15.0966 6.91716 26.1917 6.89996 39.6933C6.89996 40.2731 7.37756 40.7433 7.96663 40.7433H20.821C21.3998 47.0931 27.0985 51.7789 33.5492 51.209C39.1977 50.71 43.6741 46.3035 44.181 40.7433H57.0333C57.6224 40.7433 58.1 40.2731 58.1 39.6933C58.0828 26.1917 47.2701 15.0966 33.5666 14.5195ZM28.3677 2.94326H36.6322C36.0454 5.18974 33.7197 6.54266 31.4376 5.96516C29.9312 5.58388 28.755 4.42599 28.3677 2.94326ZM32.5 49.1433C27.6129 49.1375 23.508 45.5235 22.9586 40.7433H42.0413C41.492 45.5235 37.387 49.1375 32.5 49.1433ZM9.05676 38.6433C9.63623 25.8982 20.6018 16.0288 33.5492 16.5992C45.6849 17.1337 55.4 26.6971 55.9432 38.6433H9.05676Z"/>
<path d="M24.6184 21.3078C21.5444 22.5913 18.8378 24.5986 16.7368 27.1532C16.3662 27.604 16.4372 28.2652 16.8952 28.63C17.3532 28.9947 18.0249 28.9249 18.3954 28.4741C20.2756 26.1881 22.6976 24.3917 25.4482 23.243C25.991 23.0173 26.2454 22.4013 26.0162 21.8669C25.787 21.3326 25.1612 21.0822 24.6184 21.3078Z"/>
</g>
</svg>
