<svg viewBox="0 0 53 39" xmlns="http://www.w3.org/2000/svg">
<path d="M51.6219 0.849121H1.77812C1.5502 0.849121 1.33162 0.939662 1.17045 1.10083C1.00929 1.26199 0.918747 1.48058 0.918747 1.7085V34.3647C0.918747 34.5927 1.00929 34.8113 1.17045 34.9724C1.33162 35.1336 1.5502 35.2241 1.77812 35.2241H3.49687V37.8022C3.49687 38.0302 3.58741 38.2488 3.74858 38.4099C3.90974 38.5711 4.12833 38.6616 4.35625 38.6616H9.5125C9.74042 38.6616 9.959 38.5711 10.1202 38.4099C10.2813 38.2488 10.3719 38.0302 10.3719 37.8022V35.2241H43.0281V37.8022C43.0281 38.0302 43.1187 38.2488 43.2798 38.4099C43.441 38.5711 43.6596 38.6616 43.8875 38.6616H49.0437C49.2717 38.6616 49.4903 38.5711 49.6514 38.4099C49.8126 38.2488 49.9031 38.0302 49.9031 37.8022V35.2241H51.6219C51.8498 35.2241 52.0684 35.1336 52.2295 34.9724C52.3907 34.8113 52.4812 34.5927 52.4812 34.3647V1.7085C52.4812 1.48058 52.3907 1.26199 52.2295 1.10083C52.0684 0.939662 51.8498 0.849121 51.6219 0.849121ZM8.65312 36.9429H5.21562V35.2241H8.65312V36.9429ZM37.8719 33.5054H2.6375V2.56787H37.8719V33.5054ZM40.45 33.5054H39.5906V2.56787H40.45V33.5054ZM48.1844 36.9429H44.7469V35.2241H48.1844V36.9429ZM50.7625 33.5054H42.1687V2.56787H50.7625V33.5054Z"/>
<path d="M5.21562 31.7866H35.2937C35.5217 31.7866 35.7403 31.6961 35.9014 31.5349C36.0626 31.3738 36.1531 31.1552 36.1531 30.9272V5.146C36.1531 4.91808 36.0626 4.69949 35.9014 4.53833C35.7403 4.37716 35.5217 4.28662 35.2937 4.28662H5.21562C4.9877 4.28662 4.76912 4.37716 4.60795 4.53833C4.44679 4.69949 4.35625 4.91808 4.35625 5.146V30.9272C4.35625 31.1552 4.44679 31.3738 4.60795 31.5349C4.76912 31.6961 4.9877 31.7866 5.21562 31.7866ZM6.075 6.00537H34.4344V30.0679H6.075V6.00537Z"/>
<path d="M46.4656 13.7397C47.1455 13.7397 47.8101 13.5381 48.3754 13.1604C48.9407 12.7827 49.3813 12.2458 49.6415 11.6177C49.9016 10.9896 49.9697 10.2984 49.8371 9.63163C49.7044 8.96482 49.3771 8.35231 48.8963 7.87157C48.4156 7.39083 47.8031 7.06343 47.1363 6.9308C46.4694 6.79816 45.7783 6.86624 45.1502 7.12641C44.522 7.38659 43.9852 7.82718 43.6074 8.39248C43.2297 8.95777 43.0281 9.62238 43.0281 10.3022C43.0281 11.2139 43.3903 12.0883 44.0349 12.7329C44.6796 13.3776 45.5539 13.7397 46.4656 13.7397ZM46.4656 8.5835C46.8056 8.5835 47.1379 8.6843 47.4205 8.87316C47.7032 9.06202 47.9235 9.33045 48.0536 9.64451C48.1836 9.95857 48.2177 10.3042 48.1514 10.6376C48.085 10.971 47.9213 11.2772 47.681 11.5176C47.4406 11.758 47.1343 11.9217 46.8009 11.988C46.4675 12.0543 46.122 12.0203 45.8079 11.8902C45.4938 11.7601 45.2254 11.5398 45.0365 11.2571C44.8477 10.9745 44.7469 10.6422 44.7469 10.3022C44.7469 9.84641 44.928 9.40924 45.2503 9.08691C45.5726 8.76458 46.0098 8.5835 46.4656 8.5835Z"/>
<path d="M46.4656 16.3179C45.7857 16.3179 45.1211 16.5195 44.5558 16.8972C43.9906 17.2749 43.55 17.8118 43.2898 18.4399C43.0296 19.068 42.9615 19.7592 43.0942 20.426C43.2268 21.0928 43.5542 21.7053 44.0349 22.1861C44.5157 22.6668 45.1282 22.9942 45.795 23.1268C46.4618 23.2595 47.153 23.1914 47.7811 22.9312C48.4092 22.671 48.9461 22.2305 49.3238 21.6652C49.7015 21.0999 49.9031 20.4353 49.9031 19.7554C49.9031 18.8437 49.5409 17.9694 48.8963 17.3247C48.2516 16.68 47.3773 16.3179 46.4656 16.3179ZM46.4656 21.4741C46.1257 21.4741 45.7934 21.3733 45.5107 21.1845C45.2281 20.9956 45.0078 20.7272 44.8777 20.4131C44.7476 20.0991 44.7136 19.7535 44.7799 19.4201C44.8462 19.0867 45.0099 18.7804 45.2503 18.54C45.4906 18.2997 45.7969 18.136 46.1303 18.0696C46.4637 18.0033 46.8093 18.0374 47.1234 18.1675C47.4374 18.2975 47.7058 18.5178 47.8947 18.8005C48.0836 19.0831 48.1844 19.4154 48.1844 19.7554C48.1844 20.2112 48.0033 20.6484 47.681 20.9707C47.3586 21.2931 46.9215 21.4741 46.4656 21.4741Z"/>
</svg>
