<svg viewBox="0 0 42 42" xmlns="http://www.w3.org/2000/svg">
<g>
<path d="M40.0029 31.9061C39.862 31.2621 39.2933 30.8024 38.6343 30.8H34.3V28.7C34.3 28.3134 33.9865 28 33.6 28V2.1C33.6 0.940283 32.6597 0 31.5 0C30.3403 0 29.4 0.940283 29.4 2.1V28C29.0134 28 28.7 28.3134 28.7 28.7V30.8H24.3656C23.7067 30.8024 23.1379 31.2621 22.9971 31.9061L21.0154 41.1537C20.9713 41.3605 21.0229 41.5758 21.1558 41.7402C21.2885 41.9046 21.4887 42 21.7 42H41.3C41.5112 42 41.7115 41.9046 41.8441 41.7402C41.9771 41.5758 42.0287 41.3605 41.9846 41.1537L40.0029 31.9061ZM30.8 9.8H32.2V11.2H30.8V9.8ZM30.8 7H32.2V8.4H30.8V7ZM32.2 5.6H30.8V4.2H32.2V5.6ZM30.8 12.6H32.2V14H30.8V12.6ZM30.8 2.1C30.8 1.71343 31.1134 1.4 31.5 1.4C31.8865 1.4 32.2 1.71343 32.2 2.1V2.8H30.8V2.1ZM30.8 15.4H32.2V28H30.8V15.4ZM30.1 29.4H32.9V30.8H30.1V29.4ZM38.6343 32.2L38.9347 33.6H24.0652L24.3656 32.2H38.6343ZM39.2 40.6V39.2C39.2 38.8134 38.8865 38.5 38.5 38.5C38.1134 38.5 37.8 38.8134 37.8 39.2V40.6H36.4V39.2C36.4 38.8134 36.0865 38.5 35.7 38.5C35.3134 38.5 35 38.8134 35 39.2V40.6H33.6V39.2C33.6 38.8134 33.2865 38.5 32.9 38.5C32.5134 38.5 32.2 38.8134 32.2 39.2V40.6H30.8V39.2C30.8 38.8134 30.4865 38.5 30.1 38.5C29.7134 38.5 29.4 38.8134 29.4 39.2V40.6H28V39.2C28 38.8134 27.6865 38.5 27.3 38.5C26.9134 38.5 26.6 38.8134 26.6 39.2V40.6H25.2V39.2C25.2 38.8134 24.8865 38.5 24.5 38.5C24.1134 38.5 23.8 38.8134 23.8 39.2V40.6H22.5657L23.7658 35H39.2355L40.4356 40.6H39.2Z"/>
<path d="M20.3 21H0.7C0.313428 21 0 21.3134 0 21.7V24.5C0 24.8866 0.313428 25.2 0.7 25.2H1.4V39.9C1.4 41.0597 2.34028 42 3.5 42H17.5C18.6597 42 19.6 41.0597 19.6 39.9V25.2H20.3C20.6866 25.2 21 24.8866 21 24.5V21.7C21 21.3134 20.6866 21 20.3 21ZM18.2 39.9C18.2 40.2866 17.8866 40.6 17.5 40.6H3.5C3.11343 40.6 2.8 40.2866 2.8 39.9V32.6501C3.70439 33.7791 4.97144 34.5604 6.38613 34.8623C6.6377 35.7677 7.46006 36.3959 8.4 36.4H12.6C13.5403 36.3956 14.363 35.7663 14.6139 34.8599C16.0282 34.5587 17.2953 33.7781 18.2 32.6501V39.9ZM7.7 34.3C7.7 33.9134 8.01343 33.6 8.4 33.6H12.6C12.9866 33.6 13.3 33.9134 13.3 34.3C13.3 34.6866 12.9866 35 12.6 35H8.4C8.01343 35 7.7 34.6866 7.7 34.3ZM18.2 28.7C18.1997 30.9381 16.6828 32.8915 14.5144 33.4462C14.1777 32.6895 13.4278 32.2017 12.6 32.2H8.4C7.57217 32.2017 6.82227 32.6895 6.4856 33.4462C4.31724 32.8915 2.80034 30.9381 2.8 28.7V25.2H18.2V28.7ZM19.6 23.8H1.4V22.4H19.6V23.8Z"/>
<path d="M16.1 16.8C17.2597 16.8 18.2 15.8597 18.2 14.7C18.2 13.5403 17.2597 12.6 16.1 12.6C14.9403 12.6 14 13.5403 14 14.7C14 15.8597 14.9403 16.8 16.1 16.8ZM16.1 14C16.4866 14 16.8 14.3134 16.8 14.7C16.8 15.0865 16.4866 15.4 16.1 15.4C15.7134 15.4 15.4 15.0865 15.4 14.7C15.4 14.3134 15.7134 14 16.1 14Z"/>
<path d="M9.79997 16.1C10.1865 16.1 10.5 15.7866 10.5 15.4V14.7C10.5 14.3134 10.1865 14 9.79997 14C9.4134 14 9.09998 14.3134 9.09998 14.7V15.4C9.09998 15.7866 9.4134 16.1 9.79997 16.1Z"/>
<path d="M7.7 17.5H8.4C8.78657 17.5 9.1 17.1865 9.1 16.8C9.1 16.4134 8.78657 16.1 8.4 16.1H7.7C7.31343 16.1 7 16.4134 7 16.8C7 17.1865 7.31343 17.5 7.7 17.5Z"/>
<path d="M9.79997 17.5C9.4134 17.5 9.09998 17.8134 9.09998 18.2V18.9C9.09998 19.2866 9.4134 19.6 9.79997 19.6C10.1865 19.6 10.5 19.2866 10.5 18.9V18.2C10.5 17.8134 10.1865 17.5 9.79997 17.5Z"/>
<path d="M11.2 17.5H11.9C12.2866 17.5 12.6 17.1865 12.6 16.8C12.6 16.4134 12.2866 16.1 11.9 16.1H11.2C10.8134 16.1 10.5 16.4134 10.5 16.8C10.5 17.1865 10.8134 17.5 11.2 17.5Z"/>
<path d="M3.49999 9.80001C3.88656 9.80001 4.19999 9.48658 4.19999 9.10001V8.40001C4.19999 8.01344 3.88656 7.70001 3.49999 7.70001C3.11342 7.70001 2.79999 8.01344 2.79999 8.40001V9.10001C2.79999 9.48658 3.11342 9.80001 3.49999 9.80001Z"/>
<path d="M1.52033 10.2102C1.79513 10.4754 2.23161 10.4716 2.50163 10.2016C2.77165 9.93161 2.7754 9.49513 2.51017 9.22033L2.01456 8.72541C1.7401 8.46017 1.30329 8.46393 1.03327 8.73395C0.763247 9.00397 0.759487 9.44079 1.02472 9.71525L1.52033 10.2102Z"/>
<path d="M0.7 11.9H1.4C1.78657 11.9 2.1 11.5866 2.1 11.2C2.1 10.8134 1.78657 10.5 1.4 10.5H0.7C0.313428 10.5 0 10.8134 0 11.2C0 11.5866 0.313428 11.9 0.7 11.9Z"/>
<path d="M1.52028 12.1898L1.02468 12.6847C0.842841 12.8604 0.769697 13.1209 0.833955 13.3656C0.897871 13.6103 1.08893 13.8014 1.33366 13.8653C1.57839 13.9296 1.83884 13.8564 2.01452 13.6746L2.51013 13.1797C2.77536 12.9049 2.7716 12.4684 2.50158 12.1984C2.23156 11.9283 1.79509 11.9246 1.52028 12.1898Z"/>
<path d="M3.49999 14.7C3.88656 14.7 4.19999 14.3865 4.19999 14V13.3C4.19999 12.9134 3.88656 12.6 3.49999 12.6C3.11342 12.6 2.79999 12.9134 2.79999 13.3V14C2.79999 14.3865 3.11342 14.7 3.49999 14.7Z"/>
<path d="M4.98548 13.6746C5.16116 13.8564 5.42161 13.9296 5.66634 13.8653C5.91106 13.8014 6.10213 13.6103 6.16604 13.3656C6.2303 13.1209 6.15716 12.8604 5.97532 12.6847L5.47971 12.1898C5.20491 11.9246 4.76844 11.9283 4.49842 12.1984C4.2284 12.4684 4.22464 12.9049 4.48987 13.1797L4.98548 13.6746Z"/>
<path d="M4.90002 11.2C4.90002 11.5866 5.21345 11.9 5.60002 11.9H6.30002C6.6866 11.9 7.00002 11.5866 7.00002 11.2C7.00002 10.8134 6.6866 10.5 6.30002 10.5H5.60002C5.21345 10.5 4.90002 10.8134 4.90002 11.2Z"/>
<path d="M4.98479 10.4152C5.17039 10.4152 5.34846 10.3414 5.47971 10.2102L5.97532 9.71525C6.24055 9.44078 6.23679 9.00397 5.96678 8.73395C5.69676 8.46393 5.25994 8.46017 4.98548 8.7254L4.48987 9.22033C4.28958 9.42062 4.22976 9.72174 4.33811 9.98322C4.44646 10.2447 4.70178 10.4152 4.98479 10.4152Z"/>
</g>
</svg>
