<svg viewBox="0 0 47 47" xmlns="http://www.w3.org/2000/svg">
<g>
<path d="M43.4017 0.753174H3.59563C1.8886 0.753174 0.499878 2.14189 0.499878 3.84892V19.7611C0.499878 20.257 0.901718 20.6588 1.39761 20.6588C1.89351 20.6588 2.29535 20.257 2.29535 19.7611V3.84892C2.29535 3.13193 2.87863 2.54865 3.59528 2.54865H43.4017C44.1197 2.54865 44.7041 3.13193 44.7041 3.84892V43.655C44.7041 44.3734 44.1197 44.9577 43.4017 44.9577H3.59563C2.87863 44.9577 2.29535 44.3734 2.29535 43.655V27.5466C2.29535 27.0507 1.89351 26.6489 1.39761 26.6489C0.902069 26.6489 0.499878 27.0507 0.499878 27.5466V43.655C0.499878 45.3634 1.8886 46.7532 3.59563 46.7532H43.4017C45.1101 46.7532 46.4999 45.3634 46.4999 43.655V3.84892C46.4999 2.14189 45.1101 0.753174 43.4017 0.753174V0.753174Z"/>
<path d="M4.88043 15.3375V40.4081C4.88043 41.667 5.90451 42.691 7.16338 42.691H40.2385C41.4974 42.691 42.5218 41.667 42.5218 40.4081V15.3375C42.5218 14.08 41.4974 13.0566 40.2385 13.0566H7.16338C5.90451 13.057 4.88043 14.08 4.88043 15.3375ZM19.3397 24.6346C19.8356 24.6346 20.2374 24.2327 20.2374 23.7368V22.2965C20.9561 22.1372 21.7054 22.0301 22.4631 21.9778V22.3362C22.4631 22.8321 22.8653 23.2339 23.3609 23.2339C23.8568 23.2339 24.2586 22.8317 24.2586 22.3362V21.9434C25.0977 21.9617 25.9102 22.0463 26.6781 22.1874V23.7368C26.6781 24.2327 27.0799 24.6346 27.5758 24.6346C28.0717 24.6346 28.4735 24.2327 28.4735 23.7368V22.6457C30.7614 23.4111 32.3677 24.7283 32.5839 26.2416H14.8499C15.0489 24.8595 16.3576 23.6315 18.4419 22.8307V23.7368C18.4419 24.2327 18.8438 24.6346 19.3397 24.6346ZM40.7263 28.037V29.6693H6.6759V28.037H40.7263ZM40.2385 40.8956H7.16338C6.89911 40.8956 6.6759 40.6724 6.6759 40.4081V31.4651H40.7263V40.4081C40.7263 40.6724 40.5031 40.8956 40.2385 40.8956ZM40.7263 15.3375V26.2416H34.3895C34.3881 26.2212 34.3867 26.203 34.3857 26.1896C34.1095 23.3276 31.265 21.4388 27.8787 20.6158C27.8155 20.593 27.7495 20.5768 27.6804 20.5688C26.4524 20.287 25.1591 20.1434 23.8954 20.1434C23.8364 20.1434 23.7767 20.1438 23.7178 20.1445C23.5999 20.1431 23.4816 20.1434 23.3637 20.1448C23.3626 20.1448 23.3619 20.1445 23.3609 20.1445C23.3595 20.1445 23.3581 20.1448 23.3563 20.1448C21.9034 20.1599 20.4409 20.3589 19.1007 20.727C19.0922 20.7295 19.0842 20.732 19.0757 20.7344C19.0743 20.7348 19.0729 20.7351 19.0715 20.7355C15.5318 21.7209 13.2805 23.7593 13.0464 26.1991C13.0453 26.211 13.0443 26.2254 13.0432 26.2416H6.6759V15.3375C6.6759 15.0746 6.89911 14.8525 7.16338 14.8525H40.2385C40.5031 14.8525 40.7263 15.0746 40.7263 15.3375Z"/>
<path d="M33.5705 11.1882C33.7723 11.2254 33.9741 11.2437 34.1748 11.2437C34.8349 11.2437 35.4782 11.0447 36.032 10.6632C36.7585 10.1656 37.247 9.41453 37.4081 8.54908C37.5689 7.68328 37.3825 6.80661 36.8835 6.08084C35.8559 4.58473 33.8007 4.20289 32.3 5.23118C30.8046 6.26193 30.4238 8.3171 31.4507 9.81251C31.4511 9.81251 31.4511 9.81251 31.4511 9.81286C31.9512 10.5397 32.704 11.0282 33.5705 11.1882ZM33.3171 6.7108C33.9993 6.24298 34.9353 6.41635 35.4035 7.09755C35.6309 7.42849 35.7158 7.82718 35.6425 8.22094C35.5695 8.61436 35.3473 8.95584 35.015 9.18361C34.6861 9.41032 34.2892 9.49525 33.8961 9.42225C33.5013 9.34961 33.1584 9.12675 32.9303 8.7951C32.4632 8.1146 32.6376 7.17897 33.3171 6.7108Z"/>
<path d="M22.738 11.1872C22.9408 11.2251 23.1444 11.2437 23.3465 11.2437C24.0067 11.2437 24.6507 11.0447 25.2066 10.6629C26.7027 9.63496 27.0845 7.57979 26.0562 6.07947C25.0255 4.58406 22.9703 4.20328 21.4745 5.23052C20.7474 5.73062 20.2588 6.48306 20.0992 7.35027C19.9395 8.21466 20.1262 9.08923 20.6245 9.8129C21.1225 10.5383 21.8729 11.0265 22.738 11.1872ZM21.8648 7.6756C21.9374 7.28078 22.1603 6.9379 22.4916 6.71013C22.7499 6.53255 23.0447 6.44797 23.337 6.44797C23.815 6.44797 24.2857 6.67503 24.5763 7.09653C25.0441 7.77913 24.8707 8.71512 24.1895 9.18294C23.8589 9.41036 23.4595 9.49529 23.0661 9.42194C22.6727 9.34894 22.3312 9.12679 22.1049 8.79654C22.1045 8.79584 22.1042 8.79514 22.1034 8.79443C21.8771 8.46594 21.7922 8.06867 21.8648 7.6756Z"/>
<path d="M11.9153 11.1882C12.1171 11.2254 12.3189 11.2437 12.5196 11.2437C13.1798 11.2437 13.8231 11.0447 14.3769 10.6632C15.103 10.1656 15.5919 9.41453 15.7526 8.54943C15.9137 7.68364 15.7273 6.80661 15.2283 6.08084C14.2003 4.58473 12.1452 4.20289 10.6448 5.23118C9.14942 6.26193 8.76829 8.3171 9.79553 9.81251C9.79588 9.81251 9.79588 9.81251 9.79588 9.81286C10.2956 10.5397 11.0484 11.0282 11.9153 11.1882ZM11.6619 6.7108C12.3441 6.24298 13.2801 6.41635 13.7483 7.09755C13.9757 7.42849 14.0606 7.82718 13.9873 8.22094C13.9143 8.61436 13.6921 8.95584 13.3594 9.18361C13.031 9.41032 12.6337 9.49525 12.241 9.42225C11.8461 9.34961 11.5033 9.12675 11.2751 8.7951C10.808 8.1146 10.9821 7.17897 11.6619 6.7108Z"/>
<path d="M1.39761 24.6497C1.89351 24.6497 2.29535 24.2478 2.29535 23.7519V23.7368C2.29535 23.241 1.89351 22.8391 1.39761 22.8391C0.901718 22.8391 0.499878 23.241 0.499878 23.7368V23.7519C0.499878 24.2478 0.901718 24.6497 1.39761 24.6497Z"/>
</g>
</svg>
