<svg viewBox="0 0 24 25" xmlns="http://www.w3.org/2000/svg">
<g>
<path d="M12 0.125488C7.34756 0.125488 3.5625 3.91055 3.5625 8.56299C3.5625 10.1349 3.99792 11.6689 4.82198 12.9998L11.5197 23.7931C11.648 23.9999 11.874 24.1255 12.1171 24.1255C12.119 24.1255 12.1208 24.1255 12.1227 24.1255C12.3679 24.1236 12.5944 23.9941 12.7204 23.7837L19.2474 12.8858C20.026 11.5831 20.4375 10.0883 20.4375 8.56299C20.4375 3.91055 16.6524 0.125488 12 0.125488ZM18.0406 12.1638L12.1065 22.0717L6.0172 12.2589C5.33128 11.1511 4.95938 9.87314 4.95938 8.56299C4.95938 4.68596 8.12297 1.52236 12 1.52236C15.877 1.52236 19.0359 4.68596 19.0359 8.56299C19.0359 9.83428 18.6885 11.0796 18.0406 12.1638Z"/>
<path d="M12 4.34424C9.67378 4.34424 7.78125 6.23677 7.78125 8.56299C7.78125 10.8743 9.64298 12.7817 12 12.7817C14.3861 12.7817 16.2188 10.8489 16.2188 8.56299C16.2188 6.23677 14.3262 4.34424 12 4.34424ZM12 11.3849C10.4411 11.3849 9.17813 10.1177 9.17813 8.56299C9.17813 7.01218 10.4492 5.74111 12 5.74111C13.5508 5.74111 14.8172 7.01218 14.8172 8.56299C14.8172 10.095 13.5836 11.3849 12 11.3849Z"/>
</g>
</svg>
