<svg viewBox="0 0 51 51" xmlns="http://www.w3.org/2000/svg">
<g>
<path d="M36.3332 23.8522H35.4999V22.1856H36.3332C37.7139 22.1856 38.8332 21.0663 38.8332 19.6856V5.36559C40.1325 4.90799 40.8148 3.48372 40.3571 2.18445C40.005 1.18486 39.0597 0.516946 37.9999 0.518925H12.9999C11.6224 0.516321 10.5036 1.6309 10.501 3.0084C10.4989 4.06819 11.167 5.01351 12.1665 5.36559V19.6856C12.1665 21.0663 13.2858 22.1856 14.6665 22.1856H15.4999V23.8522H14.6665C12.3665 23.855 10.5026 25.7189 10.4999 28.0189C10.4999 28.4791 10.873 28.8522 11.3332 28.8522C11.3169 34.4209 14.5832 39.4762 19.6665 41.7497V49.6856C19.6665 50.1458 20.0397 50.5189 20.4999 50.5189H30.4999C30.9601 50.5189 31.3332 50.1458 31.3332 49.6856V41.7497C36.4158 39.4754 39.6819 34.4206 39.6665 28.8522C40.1268 28.8522 40.4999 28.4791 40.4999 28.0189C40.4972 25.7189 38.6332 23.855 36.3332 23.8522ZM12.1665 3.01892C12.1665 2.55872 12.5397 2.18559 12.9999 2.18559H37.9999C38.4601 2.18559 38.8332 2.55872 38.8332 3.01892C38.8332 3.47913 38.4601 3.85226 37.9999 3.85226H12.9999C12.5397 3.85226 12.1665 3.47913 12.1665 3.01892ZM14.6665 20.5189C14.2063 20.5189 13.8332 20.1458 13.8332 19.6856V5.51892H37.1665V19.6856C37.1665 20.1458 36.7934 20.5189 36.3332 20.5189H14.6665ZM33.8332 22.1856V23.8522H17.1665V22.1856H33.8332ZM21.3332 48.8522V42.3956L21.4107 42.4164C21.494 42.4414 21.5774 42.4606 21.6607 42.4839C21.9657 42.5706 22.2737 42.6467 22.5849 42.7122C22.734 42.7439 22.884 42.7697 23.034 42.7956C23.2915 42.8406 23.5507 42.8789 23.8115 42.9081C23.9699 42.9272 24.1265 42.9472 24.2865 42.9606C24.626 42.9889 24.9662 43.005 25.3074 43.0089C25.3707 43.0089 25.4324 43.0181 25.4957 43.0181C25.559 43.0181 25.6215 43.0097 25.6849 43.0089C26.026 43.005 26.366 42.9889 26.7049 42.9606C26.8649 42.9472 27.0232 42.9264 27.1824 42.9081C27.4407 42.8772 27.6974 42.8406 27.9532 42.7964C28.1057 42.7697 28.2582 42.7422 28.4099 42.7131C28.7132 42.6506 29.0124 42.5747 29.309 42.4914C29.4015 42.4656 29.4957 42.4447 29.5882 42.4172C29.6124 42.4097 29.6382 42.4047 29.6624 42.3972L29.6665 48.8522H21.3332ZM30.1832 40.4397C27.9402 41.3442 25.4835 41.581 23.109 41.1214C22.3224 40.97 21.5528 40.7409 20.8115 40.4372C16.0796 38.5413 12.9836 33.9498 12.9999 28.8522H37.9999C38.0157 33.9518 34.9176 38.5445 30.1832 40.4397ZM12.309 27.1856C12.6635 26.1875 13.6074 25.5202 14.6665 25.5189H36.3332C37.3924 25.5202 38.3362 26.1875 38.6907 27.1856H12.309Z"/>
<path d="M22.1665 8.01891H19.5132C19.053 6.71713 17.6246 6.03495 16.3229 6.49526C15.0212 6.95557 14.3389 8.3838 14.7991 9.68557C15.2594 10.9873 16.6878 11.6695 17.9895 11.2092C18.7014 10.9576 19.2614 10.3974 19.5131 9.68557H22.1665C22.6268 9.68557 22.9999 9.31245 22.9999 8.85224C22.9999 8.39203 22.6268 8.01891 22.1665 8.01891ZM17.1665 9.68557C16.7063 9.68557 16.3332 9.31245 16.3332 8.85224C16.3332 8.39203 16.7063 8.01891 17.1665 8.01891C17.6268 8.01891 17.9999 8.39203 17.9999 8.85224C17.9999 9.31245 17.6268 9.68557 17.1665 9.68557Z"/>
</g>
</svg>
