<svg viewBox="0 0 20 20" xmlns="http://www.w3.org/2000/svg">
<path d="M19.9479 8.04206C19.8162 7.63708 19.457 7.35036 19.0337 7.31206L13.2602 6.7879L10.9785 1.44594C10.81 1.05347 10.4267 0.800171 10.0001 0.800171C9.57342 0.800171 9.18996 1.05347 9.02256 1.44594L6.74085 6.7879L0.966442 7.31206C0.54315 7.35112 0.18471 7.63784 0.0522598 8.04206C-0.0794276 8.44704 0.0421887 8.89124 0.362328 9.17201L4.72663 12.9989L3.43981 18.6665C3.34566 19.0832 3.50741 19.5141 3.85319 19.7641C4.03905 19.8991 4.25741 19.9666 4.47653 19.9666C4.66483 19.9666 4.85328 19.9165 5.02159 19.8158L10.0001 16.839L14.9776 19.8158C15.3428 20.034 15.8019 20.014 16.147 19.7641C16.4927 19.5141 16.6545 19.0832 16.5603 18.6665L15.2735 12.9989L19.6378 9.17201C19.9578 8.89124 20.0796 8.44796 19.9479 8.04206Z"/>
</svg>
