<svg viewBox="0 0 24 21" xmlns="http://www.w3.org/2000/svg">
<path d="M23.8125 2.5957L20.2266 19.3652C19.9453 20.5605 19.2949 20.877 18.2754 20.3145L12.8438 16.3066L10.207 18.8379C9.85547 19.1895 9.48633 19.3652 9.09961 19.3652L9.52148 13.8281L19.5938 4.75781C19.8398 4.51172 19.8398 4.37109 19.5938 4.33594C19.3828 4.26563 19.1543 4.31836 18.9082 4.49414L6.46289 12.3516L1.08398 10.6641C0.486328 10.4883 0.205078 10.2246 0.240234 9.87305C0.275391 9.52148 0.644531 9.22266 1.34766 8.97656L22.2832 0.855469C22.8105 0.679688 23.2324 0.75 23.5488 1.06641C23.8652 1.34766 23.9531 1.85742 23.8125 2.5957Z" />
</svg>
