<svg xmlns="http://www.w3.org/2000/svg">
<path d="M23.4141 3.01172C24.5742 4.03125 25.4004 5.64844 25.8926 7.86328C26.3848 10.043 26.4375 12.75 26.0508 15.9844C25.9453 16.793 25.7695 17.5312 25.5234 18.1992C25.3125 18.8672 25.0664 19.4473 24.7852 19.9395C24.5039 20.3965 24.1699 20.8184 23.7832 21.2051C23.4316 21.5918 23.0801 21.9082 22.7285 22.1543C22.4121 22.3652 22.0605 22.5586 21.6738 22.7344C21.2871 22.9102 20.9707 23.0508 20.7246 23.1562C20.4785 23.2266 20.1973 23.2969 19.8809 23.3672C19.5996 23.4375 19.4414 23.4727 19.4062 23.4727C19.1602 23.5781 18.7383 23.6836 18.1406 23.7891C17.543 23.8945 16.5938 24 15.293 24.1055C13.9922 24.2461 12.6914 24.2461 11.3906 24.1055C10.6523 24.9141 10.125 25.4941 9.80859 25.8457C9.70312 25.9512 9.5625 26.0918 9.38672 26.2676C9.21094 26.4785 9.08789 26.6191 9.01758 26.6895C8.94727 26.7598 8.82422 26.8652 8.64844 27.0059C8.50781 27.1816 8.40234 27.2695 8.33203 27.2695C8.26172 27.2695 8.13867 27.3047 7.96289 27.375C7.78711 27.4453 7.66406 27.4277 7.59375 27.3223C7.45313 27.2871 7.33008 27.2168 7.22461 27.1113C7.11914 27.0059 7.04883 26.8828 7.01367 26.7422C6.97852 26.6367 6.94336 26.5137 6.9082 26.373C6.9082 26.2676 6.9082 26.1797 6.9082 26.1094L6.85547 26.0039L6.9082 23.2617H6.85547C6.11719 23.0508 5.43164 22.7695 4.79883 22.418C4.16602 22.0312 3.63867 21.6094 3.2168 21.1523C2.83008 20.6953 2.46094 20.2031 2.10938 19.6758C1.79297 19.1133 1.54688 18.5508 1.37109 17.9883C1.23047 17.4258 1.08984 16.8457 0.949219 16.248C0.84375 15.6504 0.773438 15.0703 0.738281 14.5078C0.738281 13.9453 0.720703 13.4004 0.685547 12.873C0.685547 12.3457 0.703125 11.8711 0.738281 11.4492C0.808594 7.61719 1.6875 4.85742 3.375 3.16992C4.42969 2.2207 5.83594 1.51758 7.59375 1.06055C9.35156 0.603516 10.8633 0.375 12.1289 0.375H13.9746C15.8027 0.410156 17.4551 0.621094 18.9316 1.00781C20.4434 1.35938 21.4805 1.71094 22.043 2.0625C22.6055 2.37891 23.0625 2.69531 23.4141 3.01172ZM24.1523 15.5098C24.5039 12.7676 24.4688 10.4473 24.0469 8.54883C23.6602 6.61523 22.9746 5.22656 21.9902 4.38281C21.7441 4.13672 21.3574 3.87305 20.8301 3.5918C20.3027 3.31055 19.3887 3.0293 18.0879 2.74805C16.8223 2.4668 15.416 2.30859 13.8691 2.27344C13.7285 2.27344 13.5 2.27344 13.1836 2.27344C12.9023 2.27344 12.3574 2.30859 11.5488 2.37891C10.7754 2.41406 10.0195 2.50195 9.28125 2.64258C8.57812 2.74805 7.80469 2.97656 6.96094 3.32812C6.11719 3.64453 5.43164 4.06641 4.9043 4.59375C3.46289 6 2.70703 8.30273 2.63672 11.502C2.67188 12.1348 2.67188 12.8203 2.63672 13.5586C2.60156 14.2617 2.67188 15.0352 2.84766 15.8789C3.02344 16.6875 3.25195 17.4609 3.5332 18.1992C3.84961 18.9023 4.35938 19.5703 5.0625 20.2031C5.76562 20.8008 6.62695 21.2402 7.64648 21.5215C7.61133 24.2988 7.59375 25.8105 7.59375 26.0566C7.59375 26.3027 7.66406 26.4434 7.80469 26.4785C7.94531 26.5488 8.08594 26.4961 8.22656 26.3203L11.8125 22.1543C12.9023 22.2246 14.0098 22.2246 15.1348 22.1543C16.2598 22.0488 17.0859 21.9434 17.6133 21.8379C18.1406 21.7324 18.5098 21.6445 18.7207 21.5742C18.7559 21.5742 18.9141 21.5391 19.1953 21.4688C19.5117 21.3984 19.7754 21.3281 19.9863 21.2578C20.2324 21.1523 20.5488 21.0117 20.9355 20.8359C21.3223 20.6602 21.6562 20.4316 21.9375 20.1504C22.2539 19.834 22.5703 19.4824 22.8867 19.0957C23.2031 18.6738 23.4668 18.1641 23.6777 17.5664C23.8887 16.9336 24.0469 16.248 24.1523 15.5098ZM16.8223 11.2383C16.8223 11.4844 16.6992 11.6074 16.4531 11.6074C16.2422 11.6074 16.1367 11.502 16.1367 11.291C16.0664 10.166 15.4863 9.56836 14.3965 9.49805C14.2559 9.49805 14.1504 9.44531 14.0801 9.33984C14.0449 9.19922 14.0625 9.07617 14.1328 8.9707C14.2031 8.86523 14.3086 8.8125 14.4492 8.8125C15.9609 8.88281 16.752 9.69141 16.8223 11.2383ZM17.877 11.8711C17.9121 10.7109 17.5781 9.74414 16.875 8.9707C16.1719 8.19727 15.1699 7.75781 13.8691 7.65234C13.7285 7.65234 13.6406 7.59961 13.6055 7.49414C13.5703 7.35352 13.5703 7.23047 13.6055 7.125C13.6758 7.01953 13.7812 6.9668 13.9219 6.9668C15.3984 7.07227 16.541 7.58203 17.3496 8.49609C18.1934 9.41016 18.5977 10.5352 18.5625 11.8711C18.5625 12.0117 18.5098 12.1172 18.4043 12.1875C18.2988 12.2227 18.1758 12.2227 18.0352 12.1875C17.9297 12.1172 17.877 12.0117 17.877 11.8711ZM20.3555 12.5566C20.3555 12.6973 20.3027 12.8027 20.1973 12.873C20.0918 12.9082 19.9688 12.9082 19.8281 12.873C19.7227 12.8027 19.6699 12.6973 19.6699 12.5566C19.6699 10.4824 19.0547 8.86523 17.8242 7.70508C16.6289 6.50977 15.1172 5.91211 13.2891 5.91211C13.0781 5.91211 12.9727 5.80664 12.9727 5.5957C12.9727 5.34961 13.0781 5.22656 13.2891 5.22656C15.3281 5.22656 17.0156 5.89453 18.3516 7.23047C19.6875 8.53125 20.3555 10.3066 20.3555 12.5566ZM19.7754 17.7246C19.4238 18.3223 19.002 18.8145 18.5098 19.2012C18.0176 19.5527 17.5254 19.6406 17.0332 19.4648C16.4355 19.2891 15.5742 18.9023 14.4492 18.3047C13.3594 17.707 12.4277 17.1094 11.6543 16.5117C10.8105 15.8438 10.0547 15.0879 9.38672 14.2441C8.82422 13.5059 8.29688 12.6973 7.80469 11.8184C7.45313 11.2207 7.1543 10.6758 6.9082 10.1836C6.69727 9.69141 6.55664 9.33984 6.48633 9.12891L6.43359 8.86523C6.25781 8.37305 6.3457 7.88086 6.69727 7.38867C7.08398 6.89648 7.57617 6.47461 8.17383 6.12305C8.66602 5.87695 9.08789 5.94727 9.43945 6.33398C9.86133 6.86133 10.1777 7.24805 10.3887 7.49414C10.6348 7.8457 10.8984 8.26758 11.1797 8.75977C11.4961 9.35742 11.4258 9.83203 10.9688 10.1836L10.3359 10.6582C10.2305 10.7285 10.1602 10.834 10.125 10.9746C10.0898 11.0801 10.0723 11.1855 10.0723 11.291V11.3965C10.1074 11.502 10.1426 11.6426 10.1777 11.8184C10.248 11.959 10.3887 12.2578 10.5996 12.7148C10.8457 13.1367 11.1094 13.541 11.3906 13.9277C11.707 14.2793 12.1289 14.6484 12.6562 15.0352C13.2188 15.4219 13.834 15.7031 14.502 15.8789C14.8184 15.8789 15.0645 15.7734 15.2402 15.5625L15.7676 14.9297C16.1191 14.4727 16.5762 14.4023 17.1387 14.7188C18.123 15.2812 18.9316 15.8613 19.5645 16.459C19.9512 16.8105 20.0215 17.2324 19.7754 17.7246Z"/>
</svg>
