<svg viewBox="0 0 36 42" xmlns="http://www.w3.org/2000/svg">
<path d="M33.5806 4.06451C33.2701 4.06265 32.9642 3.98864 32.6871 3.84842L32.7047 3.86603L28.7804 7.79032L29.9951 9.00494C30.2595 9.26947 30.2595 9.69827 29.9951 9.96281L28.8387 11.1192V42H0.387085V0H28.8387V5.81632L31.7469 2.90816L31.7645 2.92577C31.6242 2.64871 31.5502 2.34277 31.5484 2.03226C31.5484 0.909859 32.4582 0 33.5806 0C34.703 0 35.6129 0.909859 35.6129 2.03226C35.6129 3.15466 34.703 4.06451 33.5806 4.06451ZM24.2952 9.96281C24.1682 9.83579 24.0968 9.66356 24.0968 9.48387C24.0968 8.73558 23.4902 8.12903 22.7419 8.12903C21.9936 8.12903 21.3871 8.73558 21.3871 9.48387C21.3871 9.85798 21.0838 10.1613 20.7097 10.1613C19.9614 10.1613 19.3548 10.7678 19.3548 11.5161C19.3548 11.8902 19.0515 12.1935 18.6774 12.1935C17.936 12.1935 17.3322 12.7894 17.3226 13.5308C17.3226 13.545 17.3321 13.6107 17.3334 13.6249C17.3619 13.9979 17.0826 14.3235 16.7096 14.352C16.6142 14.3593 16.5184 14.3463 16.4284 14.3139C16.2812 14.2576 16.1253 14.2278 15.9677 14.2258C15.2194 14.2258 14.6129 14.8323 14.6129 15.5806C14.6147 15.7375 14.6442 15.8928 14.7003 16.0393C14.7784 16.254 14.743 16.4937 14.6061 16.6767C14.4704 16.8606 14.2503 16.9628 14.0222 16.9477C14.0052 16.9477 13.9544 16.9382 13.9355 16.9362C13.1882 16.8976 12.5512 17.4721 12.5126 18.2194C12.4741 18.9666 13.0486 19.6037 13.7958 19.6422C13.8521 19.6451 13.9085 19.6445 13.9646 19.6404V19.6397H13.9754L14.0662 19.6282C14.3213 19.6041 14.5684 19.7247 14.7064 19.9405C14.8431 20.1571 14.846 20.4324 14.7138 20.6518C14.5181 20.9667 14.6148 21.3806 14.9297 21.5763C15.0378 21.6435 15.1629 21.6786 15.2902 21.6774C15.4205 21.6772 15.548 21.6389 15.6567 21.567C15.9708 21.3637 16.3902 21.4534 16.5935 21.7674C16.6363 21.8336 16.6673 21.9067 16.685 21.9836C16.8651 22.7099 17.5999 23.1527 18.3261 22.9726C18.9232 22.8245 19.3457 22.2926 19.3547 21.6774C19.353 21.5206 19.3234 21.3653 19.2674 21.2188C19.1395 20.8672 19.3208 20.4786 19.6725 20.3506C19.7596 20.3189 19.8523 20.3055 19.9448 20.3111C19.9617 20.3111 20.0125 20.3205 20.0315 20.3226C20.7729 20.3227 21.3767 19.7267 21.3863 18.9854C21.3863 18.9711 21.3768 18.9054 21.3755 18.8912C21.3469 18.5182 21.626 18.1925 21.999 18.1639C22.0947 18.1565 22.1909 18.1697 22.2812 18.2023C22.4284 18.2585 22.5843 18.2883 22.7418 18.2903C23.4901 18.2903 24.0967 17.6838 24.0967 16.9355C24.0967 16.5614 24.4 16.2581 24.7741 16.2581C25.5133 16.2604 26.1171 15.6681 26.1289 14.929C26.1289 14.9086 26.1188 14.8355 26.1174 14.8158C26.1025 14.5156 26.2874 14.2413 26.5713 14.1425C27.2766 13.9016 27.6529 13.1345 27.412 12.4293C27.2247 11.881 26.7083 11.5135 26.1289 11.5161C25.9492 11.5161 25.777 11.4447 25.65 11.3176L24.2952 9.96281ZM24.7742 6.49374V4.06451H15.2903V12.9733C15.5384 12.9031 15.7952 12.8686 16.0531 12.871C16.3074 11.8926 17.0833 11.136 18.0677 10.9065C18.3023 9.89693 19.0905 9.10875 20.1 8.87419C20.3856 7.64527 21.4802 6.77512 22.7419 6.77419C23.2252 6.77496 23.6993 6.90595 24.1144 7.15355L24.7742 6.49374ZM13.9355 13.5484V4.06451H4.4516V13.5484H13.9355ZM11.3213 17.6129H9.87096V23.0323H4.4516V24.3871H24.7742V18.7185C24.2445 19.3313 23.4662 19.6719 22.6566 19.6452C22.4083 20.599 21.6635 21.3438 20.7097 21.5921C20.7097 21.6205 20.7097 21.649 20.7097 21.6774C20.7072 23.1739 19.4921 24.3851 17.9956 24.3826C17.0184 24.381 16.1178 23.8534 15.6385 23.0018C15.5236 23.0221 15.4071 23.0323 15.2903 23.0323C14.1679 23.0323 13.2581 22.1224 13.2581 21C13.2581 20.9715 13.2581 20.9431 13.2581 20.9146C12.0624 20.6042 11.2271 19.5256 11.2258 18.2903C11.2288 18.0614 11.2609 17.8337 11.3213 17.6129ZM8.51612 21.6774V17.6129H7.16128V21.6774H8.51612ZM5.80644 21.6774V17.6129H4.4516V21.6774H5.80644ZM27.4839 1.35484H1.74192V40.6452H27.4839V15.2067L27.4656 15.2189C27.3644 16.0677 26.8691 16.8193 26.129 17.2471V25.7419H3.09676V16.2581H12.1511C12.4686 15.9766 12.8478 15.7738 13.2581 15.666C13.2581 15.6375 13.2581 15.6091 13.2581 15.5806C13.2608 15.3517 13.2932 15.124 13.3542 14.9032H3.09676V2.70968H26.129V5.41935C26.3087 5.41935 26.4809 5.49082 26.608 5.61784L27.4839 6.49374V1.35484ZM26.129 7.05465L25.0689 8.11481C25.2666 8.44183 25.3918 8.80755 25.436 9.18716L26.4257 10.1775C26.8053 10.2218 27.1709 10.3468 27.4981 10.544L28.5582 9.48387L26.129 7.05465ZM33.5806 1.35484C33.2065 1.35484 32.9032 1.65815 32.9032 2.03226C32.9032 2.40636 33.2065 2.70968 33.5806 2.70968C33.9547 2.70968 34.2581 2.40636 34.2581 2.03226C34.2581 1.65815 33.9547 1.35484 33.5806 1.35484Z"/>
<path d="M26.129 29.8065V39.2903H3.09674V29.8065H13.9354H26.129ZM16.6451 31.1613H15.2903V35.2258H16.6451V31.1613ZM19.3548 31.1613H18V35.2258H19.3548V31.1613ZM22.0645 31.1613H20.7096V35.2258H22.0645V31.1613ZM24.7742 31.1613H23.4193V35.2258H24.7742V31.1613ZM5.40945 31.1613L9.19351 34.9454L10.2679 33.871L7.55822 31.1613H5.40945ZM11.2258 31.1613H9.47397L11.2258 32.9131V31.1613ZM11.2258 34.8289L9.19351 36.8611L4.45158 32.1192V37.9355H24.7742V36.5807H11.2258V34.8289ZM12.5806 35.2258H13.9354V31.1613H12.5806V35.2258Z"/>
<path d="M26.129 28.4516H3.09674V27.0968H26.129V28.4516Z"/>
<path d="M12.5806 10.1613H11.2258V7.45164H12.5806V10.1613Z"/>
<path d="M18 10.1613H16.6451V7.45164H18V10.1613Z"/>
<path d="M32.9032 21H31.5484V19.6452H32.9032V21Z"/>
<path d="M35.6129 21H34.2581V19.6452H35.6129V21Z"/>
<path d="M34.258 19.6451H32.9032V18.2903H34.258V19.6451Z"/>
<path d="M34.258 22.3549H32.9032V21H34.258V22.3549Z"/>
<path d="M31.5484 14.9032H30.1935V13.5484H31.5484V14.9032Z"/>
<path d="M34.258 14.9032H32.9032V13.5484H34.258V14.9032Z"/>
<path d="M32.9032 13.5484H31.5484V12.1936H32.9032V13.5484Z"/>
<path d="M32.9032 16.2581H31.5484V14.9032H32.9032V16.2581Z"/>
</svg>
