<svg viewBox="0 0 65 65" xmlns="http://www.w3.org/2000/svg">
<g>
<path d="M24.4364 24.3967C23.9336 24.3967 23.526 24.8042 23.526 25.3071C23.526 25.81 23.9337 26.2174 24.4364 26.2174C30.2137 26.2174 34.9141 30.9176 34.9141 36.695C34.9141 37.1979 35.3215 37.6053 35.8244 37.6053C36.3273 37.6053 36.7347 37.1979 36.7347 36.695C36.7347 29.9137 31.2176 24.3967 24.4364 24.3967Z"/>
<path d="M41.4666 45.2548C40.6299 45.2548 39.9493 44.5742 39.9493 43.7375C39.9493 43.2346 39.5419 42.8271 39.039 42.8271C38.5361 42.8271 38.1286 43.2346 38.1286 43.7375C38.1286 45.578 39.6261 47.0755 41.4666 47.0755C41.9696 47.0755 42.377 46.6681 42.377 46.1652C42.3771 45.6624 41.9696 45.2548 41.4666 45.2548Z"/>
<path d="M54.2119 33.1167C52.0366 33.1167 50.2669 34.8864 50.2669 37.0617C50.2669 39.237 52.0366 41.0067 54.2119 41.0067C56.3872 41.0067 58.1569 39.237 58.1569 37.0617C58.1569 34.8864 56.3872 33.1167 54.2119 33.1167ZM54.2119 39.1858C53.0406 39.1858 52.0877 38.2327 52.0877 37.0616C52.0877 35.8904 53.0407 34.9374 54.2119 34.9374C55.3831 34.9374 56.336 35.8904 56.336 37.0616C56.3362 38.2328 55.3831 39.1858 54.2119 39.1858Z"/>
<path d="M54.2119 8.23313C56.3872 8.23313 58.1569 6.46345 58.1569 4.28814C58.1569 2.11294 56.3872 0.343262 54.2119 0.343262C52.0366 0.343262 50.2669 2.11294 50.2669 4.28825C50.2669 6.46356 52.0366 8.23313 54.2119 8.23313ZM54.2119 2.16396C55.3831 2.16396 56.336 3.11698 56.336 4.28814C56.336 5.45941 55.383 6.41232 54.2119 6.41232C53.0406 6.41232 52.0877 5.45929 52.0877 4.28814C52.0877 3.11687 53.0407 2.16396 54.2119 2.16396Z"/>
<path d="M47.5358 22.7987C48.0388 22.7987 48.4462 22.3912 48.4462 21.8883C48.4462 21.3854 48.0386 20.978 47.5358 20.978C46.6991 20.978 46.0185 20.2973 46.0185 19.4606C46.0185 18.9577 45.6111 18.5503 45.1082 18.5503C44.6052 18.5503 44.1978 18.9578 44.1978 19.4606C44.1978 21.3012 45.6953 22.7987 47.5358 22.7987Z"/>
<path d="M47.0794 40.9967C47.1247 41.0034 47.1695 41.0066 47.2139 41.0066C47.6577 41.0066 48.0462 40.6815 48.1132 40.2295C48.2851 39.0675 48.3724 37.8785 48.3724 36.6953C48.3724 34.4669 48.0665 32.2603 47.4625 30.1366C47.3251 29.653 46.8219 29.3721 46.3379 29.5099C45.8543 29.6474 45.5737 30.1508 45.7112 30.6346C46.2688 32.5962 46.5516 34.6355 46.5516 36.6953C46.5516 37.7896 46.471 38.8889 46.312 39.9628C46.2387 40.4602 46.5821 40.923 47.0794 40.9967Z"/>
<path d="M49.9635 51.3239C49.1268 51.3239 48.4462 50.6433 48.4462 49.8066C48.4462 49.3037 48.0386 48.8962 47.5358 48.8962C47.033 48.8962 46.6255 49.3038 46.6255 49.8066C46.6255 51.6471 48.123 53.1446 49.9635 53.1446C50.4664 53.1446 50.8738 52.7372 50.8738 52.2343C50.8738 51.7314 50.4664 51.3239 49.9635 51.3239Z"/>
<path d="M39.4658 37.6055C39.9687 37.6055 40.3761 37.198 40.3761 36.6951C40.3761 27.9059 33.2256 20.7554 24.4363 20.7554C17.2117 20.7554 10.8753 25.627 9.02702 32.6022C8.8982 33.0882 9.18783 33.5866 9.67386 33.7153C10.16 33.8436 10.6583 33.5545 10.787 33.0685C12.4238 26.8906 18.0366 22.5761 24.4362 22.5761C32.2214 22.5761 38.5553 28.9096 38.5553 36.6951C38.5554 37.198 38.963 37.6055 39.4658 37.6055Z"/>
<path d="M10.3173 36.695C10.3173 36.1921 9.90967 35.7847 9.40698 35.7847C8.90428 35.7847 8.49663 36.1921 8.49663 36.695C8.49663 40.3321 9.68963 43.757 11.9466 46.5995C14.136 49.3568 17.2141 51.3364 20.6141 52.1733C20.6872 52.1913 20.7604 52.2 20.8324 52.2C21.2416 52.2 21.6135 51.9222 21.7157 51.507C21.8359 51.0188 21.5376 50.5255 21.0493 50.4054C14.7304 48.8499 10.3173 43.2119 10.3173 36.695Z"/>
<path d="M57.2465 56.179H55.7292V52.234C55.7292 48.3854 52.5983 45.2545 48.7497 45.2545C48.2212 45.2545 47.7011 45.3131 47.1939 45.429C46.825 41.9251 43.8529 39.1855 40.2529 39.1855C36.5227 39.1855 33.4668 42.1265 33.2823 45.8116C32.4247 45.4445 31.4983 45.2546 30.5424 45.2546C26.6938 45.2546 23.5629 48.3856 23.5629 52.2342V56.1791H13.9677C6.77716 52.3095 2.3207 44.8648 2.3207 36.6952C2.3207 24.5009 12.2417 14.5798 24.4363 14.5798C29.9844 14.5798 35.2648 16.6308 39.3493 20.3641C39.3447 20.467 39.3425 20.571 39.3425 20.6749C39.3425 24.5235 42.4734 27.6544 46.322 27.6544C50.1706 27.6544 53.3015 24.5235 53.3015 20.6749C53.3015 16.8263 50.1706 13.6954 46.322 13.6954C43.3056 13.6954 40.7302 15.6187 39.7572 18.3034C35.4608 14.7178 30.0759 12.759 24.4363 12.759C11.2378 12.7591 0.5 23.4967 0.5 36.6952C0.5 44.5146 4.27247 51.7207 10.5267 56.1791H1.41035C0.907539 56.1791 0.5 56.5866 0.5 57.0895C0.5 57.5924 0.907652 57.9998 1.41035 57.9998H13.7214C13.7275 58 13.7337 58.0001 13.7398 58.0001C13.7459 58.0001 13.7521 58 13.7581 57.9998H57.2465C57.7494 57.9998 58.1569 57.5924 58.1569 57.0895C58.1569 56.5868 57.7494 56.1791 57.2465 56.179ZM46.322 15.5161C49.1665 15.5161 51.4807 17.8302 51.4807 20.6748C51.4807 23.5194 49.1665 25.8336 46.322 25.8336C43.4774 25.8336 41.1632 23.5194 41.1632 20.6748C41.1633 17.8304 43.4774 15.5161 46.322 15.5161ZM53.9086 56.1791H25.3835V52.2342C25.3835 49.3896 27.6977 47.0753 30.5424 47.0753C31.6688 47.0753 32.7391 47.4319 33.637 48.1065C33.9128 48.3138 34.2822 48.347 34.5906 48.1932C34.8992 48.0389 35.0941 47.7237 35.0941 47.3787V46.165C35.0941 43.3204 37.4083 41.0062 40.2529 41.0062C43.0976 41.0062 45.4118 43.3204 45.4118 46.165V46.6714C45.4118 46.9785 45.5667 47.265 45.8237 47.4331C46.0807 47.6013 46.4052 47.6289 46.6866 47.5057C47.34 47.2202 48.0341 47.0754 48.7498 47.0754C51.5943 47.0754 53.9086 49.3897 53.9086 52.2343H53.9087V56.1791H53.9086Z"/>
</g>
</svg>
