<svg viewBox="0 0 24 24" xmlns="http://www.w3.org/2000/svg">
<path d="M20.2793 3.49023C22.6348 5.8457 23.8125 8.60547 23.8125 11.7695C23.8125 15.0039 22.6523 17.7637 20.332 20.0488C18.0117 22.334 15.2344 23.4766 12 23.4766C9.99609 23.4766 8.13281 23.002 6.41016 22.0527L0.1875 23.6875L1.875 17.623C0.820312 15.8301 0.292969 13.8789 0.292969 11.7695C0.292969 8.53516 1.43555 5.77539 3.7207 3.49023C6.00586 1.20508 8.76562 0.0625 12 0.0625C15.2344 0.0625 17.9941 1.20508 20.2793 3.49023ZM12 21.5254C14.6719 21.5254 16.9746 20.5762 18.9082 18.6777C20.8418 16.7441 21.8086 14.4414 21.8086 11.7695C21.8438 9.16797 20.8594 6.88281 18.8555 4.91406C16.957 3.01562 14.6719 2.06641 12 2.06641C9.32812 2.06641 7.02539 3.01562 5.0918 4.91406C3.19336 6.8125 2.24414 9.09766 2.24414 11.7695C2.24414 13.6328 2.75391 15.3555 3.77344 16.9375L3.98438 17.3066L2.98242 20.8926L6.67383 19.9434L7.04297 20.1543C8.55469 21.0684 10.207 21.5254 12 21.5254ZM17.3262 14.1953C17.6777 14.3711 17.8711 14.4941 17.9062 14.5645C18.0117 14.7754 17.9414 15.25 17.6953 15.9883C17.5898 16.2695 17.3086 16.5684 16.8516 16.8848C16.4297 17.166 16.0605 17.3242 15.7441 17.3594C14.8301 17.5 13.6523 17.2539 12.2109 16.6211C10.4883 15.8828 8.83594 14.4062 7.25391 12.1914C6.44531 11.1016 6.04102 10.0996 6.04102 9.18555C6.04102 8.30664 6.375 7.48047 7.04297 6.70703C7.28906 6.49609 7.55273 6.39062 7.83398 6.39062C8.11523 6.39062 8.30859 6.39062 8.41406 6.39062C8.73047 6.39062 8.94141 6.54883 9.04688 6.86523C9.64453 8.30664 9.94336 9.02734 9.94336 9.02734C10.0488 9.23828 10.0664 9.41406 9.99609 9.55469C9.85547 9.87109 9.67969 10.1523 9.46875 10.3984C9.25781 10.6094 9.13477 10.7324 9.09961 10.7676C9.06445 10.8027 9.08203 10.9258 9.15234 11.1367C9.64453 12.0508 10.1719 12.7363 10.7344 13.1934C11.332 13.6504 12.123 14.125 13.1074 14.6172C13.3887 14.7578 13.5996 14.7402 13.7402 14.5645C14.1973 14.0371 14.5137 13.6504 14.6895 13.4043C14.8301 13.1934 15.041 13.1406 15.3223 13.2461C15.6035 13.3516 16.2715 13.668 17.3262 14.1953Z"/>
</svg>
