<svg viewBox="0 0 51 51" xmlns="http://www.w3.org/2000/svg">
<g>
<path d="M45.7 23.4332V1.76656C45.7 1.30635 45.3269 0.933228 44.8667 0.933228H3.2C2.73979 0.933228 2.36667 1.30635 2.36667 1.76656V50.0999C2.36667 50.5601 2.73979 50.9332 3.2 50.9332H44.8667C45.3269 50.9332 45.7 50.5601 45.7 50.0999V35.0999H44.0333V49.2666H4.03334V2.59989H44.0333V23.4332H45.7Z"/>
<path d="M42.3667 22.5999V5.09993C42.3667 4.63973 41.9935 4.2666 41.5333 4.2666H6.53333C6.07312 4.2666 5.7 4.63973 5.7 5.09993V46.7666C5.7 47.2268 6.07312 47.5999 6.53333 47.5999H41.5333C41.9935 47.5999 42.3667 47.2268 42.3667 46.7666V36.7666H40.7V45.9333H7.36666V5.93327H40.7V22.5999H42.3667Z"/>
<path d="M15.9433 8.67727L10.1103 14.5103L11.2888 15.6888L17.1218 9.85577L15.9433 8.67727Z"/>
<path d="M20.9447 8.67645L10.1113 19.5099L11.2898 20.6884L22.1232 9.85495L20.9447 8.67645Z"/>
<path d="M19.0333 39.2665V41.7665C19.0333 42.2267 18.6602 42.5999 18.2 42.5999C17.7398 42.5999 17.3667 42.2267 17.3667 41.7665V38.4332C17.3667 37.0525 16.2474 35.9332 14.8667 35.9332C13.4859 35.9332 12.3667 37.0525 12.3667 38.4332V39.2665C12.3667 39.7267 11.9935 40.0999 11.5333 40.0999C11.0731 40.0999 10.7 39.7267 10.7 39.2665V35.0999H9.03333V39.2665C9.03333 40.6472 10.1526 41.7665 11.5333 41.7665C12.9141 41.7665 14.0333 40.6472 14.0333 39.2665V38.4332C14.0333 37.973 14.4065 37.5999 14.8667 37.5999C15.3269 37.5999 15.7 37.973 15.7 38.4332V41.7665C15.7 43.1472 16.8193 44.2665 18.2 44.2665C19.5807 44.2665 20.7 43.1472 20.7 41.7665V39.2665H19.0333Z"/>
<path d="M49.0333 26.7667V25.1H42.3667C42.3667 24.8669 42.2691 24.6445 42.0975 24.4867C41.9273 24.3268 41.6966 24.2479 41.4642 24.27L32.0267 25.0558L30.61 22.2275C30.4692 21.9457 30.1817 21.7675 29.8667 21.7667H27.3667C27.2322 21.7694 27.1004 21.8054 26.9833 21.8717L25.595 20.4833L24.9867 18.6583L30.4558 13.1892C30.7811 12.8637 30.7811 12.3362 30.4558 12.0108L27.9558 9.51083C27.6304 9.18552 27.1029 9.18552 26.7775 9.51083L10.9442 25.32C10.62 25.6452 10.62 26.1715 10.9442 26.4967L13.4442 29.0208C13.6001 29.1777 13.8121 29.2661 14.0333 29.2667C14.2544 29.2667 14.4662 29.1787 14.6225 29.0225L20.0917 23.5533L21.9167 24.1617L22.9167 25.1617C22.5907 25.2795 22.3717 25.5868 22.3667 25.9333V32.6C22.3649 33.0325 22.6943 33.3944 23.125 33.4333L31.9908 34.2392L35.1108 37.3592C35.4362 37.6845 35.9637 37.6845 36.2892 37.3592L38.7892 34.8592L41.4558 35.1017C41.4808 35.1017 41.5058 35.1017 41.5308 35.1017C41.991 35.1017 42.3642 34.7285 42.3642 34.2683V33.4333H49.0308V31.7667H42.3667V26.7667H49.0333ZM14.0333 27.2517L12.7067 25.9125L27.3667 11.2783L28.6883 12.6L14.0333 27.2517ZM22.9558 22.8442C22.8641 22.7531 22.7526 22.6844 22.63 22.6433L21.4067 22.2358L22.5367 21.1058L23.6667 19.9767L24.0733 21.1967C24.1144 21.3195 24.1833 21.431 24.275 21.5225L26.5333 23.7783V25.1H25.2117L22.9558 22.8442ZM35.7 35.5883L34.5833 34.4717L36.6308 34.6575L35.7 35.5883ZM40.7 33.3542L24.0333 31.8392V26.7667H27.3667C27.8269 26.7667 28.2 26.3935 28.2 25.9333V23.4333H29.3517L30.7833 26.3058C30.9346 26.6119 31.2583 26.7935 31.5983 26.7633L40.7 26.0058V33.3542Z"/>
<path d="M32.1225 13.6744L30.944 14.8529L37.6108 21.5197L38.7893 20.3412L32.1225 13.6744Z"/>
<path d="M16.2874 29.5083L15.1089 30.6868L21.7757 37.3535L22.9542 36.175L16.2874 29.5083Z"/>
</g>
</svg>
