<svg width="845" height="396" viewBox="0 0 845 396" fill="none" xmlns="http://www.w3.org/2000/svg">
<path d="M228.93 183.926C230.221 185.215 232.312 185.215 233.602 183.926C240.347 177.183 249.356 173.468 258.967 173.468C268.579 173.468 277.587 177.183 284.333 183.926C289.77 189.362 296.463 193.09 303.759 194.943L295.102 209.265C294.464 210.313 294.464 211.629 295.102 212.676L363.674 326.143C364.867 328.119 368.13 328.119 369.323 326.143L374.677 317.287L415.911 385.51C416.509 386.501 417.579 387.104 418.737 387.104C419.895 387.104 420.965 386.496 421.564 385.51L459.795 322.274L470.811 340.501C471.41 341.491 472.48 342.094 473.638 342.094C474.796 342.094 475.866 341.487 476.464 340.501L555.22 210.216C555.859 209.168 555.859 207.852 555.22 206.805L547.858 194.621C554.652 192.663 560.869 189.04 565.99 183.926C572.735 177.183 581.743 173.468 591.355 173.468C600.967 173.468 609.975 177.183 616.721 183.926C618.011 185.215 620.102 185.215 621.392 183.926C622.682 182.636 622.682 180.545 621.392 179.256C613.405 171.267 602.737 166.866 591.36 166.866C579.982 166.866 569.314 171.267 561.327 179.256C556.581 183.996 550.703 187.205 544.292 188.71L476.447 76.485C475.254 74.5087 471.991 74.5087 470.798 76.485L458.505 96.8243L432.937 54.5214C431.744 52.5451 428.481 52.5451 427.288 54.5214L388.661 118.431C387.714 119.989 388.216 122.019 389.779 122.96C390.312 123.282 390.902 123.436 391.483 123.436C392.601 123.436 393.693 122.868 394.314 121.842L430.119 62.6114L454.657 103.207L418.724 162.662C417.778 164.22 418.279 166.249 419.842 167.191C421.401 168.138 423.431 167.636 424.373 166.073L460.288 106.653C460.372 106.613 460.464 106.609 460.543 106.56C461.587 105.931 462.102 104.813 462.084 103.677L473.633 84.5705L537.15 189.648C536.754 189.661 536.362 189.705 535.966 189.705C526.354 189.705 517.346 185.99 510.601 179.251C502.614 171.263 491.945 166.861 480.568 166.861C469.191 166.861 458.522 171.263 450.535 179.251C443.79 185.99 434.782 189.705 425.17 189.705C415.558 189.705 406.55 185.99 399.805 179.251C391.818 171.263 381.149 166.861 369.772 166.861C358.395 166.861 347.727 171.263 339.74 179.251C333.06 185.924 324.158 189.621 314.652 189.692L366.505 103.906L396.56 153.621C397.498 155.18 399.532 155.677 401.09 154.739C402.649 153.797 403.155 151.768 402.209 150.21L369.314 95.8208C368.121 93.8445 364.858 93.8445 363.665 95.8208L307.325 189.027C300.408 187.671 294.063 184.318 288.996 179.256C281.009 171.267 270.34 166.866 258.963 166.866C247.586 166.866 236.917 171.267 228.93 179.256C227.64 180.545 227.64 182.636 228.93 183.926ZM314.361 196.312C325.738 196.312 336.402 191.915 344.393 183.926C351.139 177.183 360.147 173.468 369.759 173.468C379.371 173.468 388.379 177.183 395.124 183.926C403.116 191.915 413.78 196.312 425.157 196.312C436.534 196.312 447.198 191.915 455.189 183.926C461.935 177.183 470.943 173.468 480.555 173.468C490.166 173.468 499.175 177.183 505.92 183.926C513.912 191.915 524.576 196.312 535.953 196.312C537.648 196.312 539.317 196.184 540.972 195.99L548.541 208.508L473.625 332.411L462.608 314.184C462.01 313.194 460.94 312.591 459.782 312.591C458.624 312.591 457.554 313.198 456.955 314.184L418.729 377.429L377.495 309.206C376.302 307.23 373.039 307.23 371.846 309.206L366.492 318.062L301.777 210.973L310.746 196.136C311.939 196.237 313.146 196.312 314.361 196.312Z" fill="#2F97F4" fill-opacity="0.19"/>
<path d="M236.017 300.719V310.265H192.304V387.141H182.757V310.265H0.366211V303.734L125.98 50.4966H136.531L12.4251 300.719H182.757V172.091H192.304V300.719H236.017Z" fill="#2F97F4" fill-opacity="0.19"/>
<path d="M844.634 300.719V310.265H800.921V387.141H791.374V310.265H608.983V303.734L734.597 50.4966H745.148L621.042 300.719H791.374V172.091H800.921V300.719H844.634Z" fill="#2F97F4" fill-opacity="0.19"/>
</svg>
