<svg width="275" height="129" viewBox="0 0 275 129" fill="none" xmlns="http://www.w3.org/2000/svg">
<path d="M197.469 84.6351C199.816 84.9846 202.163 85.4739 204.58 85.637C213.318 86.2895 214.759 85.4739 216.269 76.9225C217.826 68.0915 218.756 59.144 219.964 50.2198C221.312 50.8023 222.102 52.2237 221.893 53.6683C221.405 63.5712 219.616 73.3575 216.595 82.771C216.292 84.4953 215.014 85.8934 213.295 86.3361C208.507 87.5244 203.488 87.4079 198.793 85.94C197.654 85.4506 196.562 84.8448 195.516 84.1924C197.004 83.4701 198.421 82.6312 199.792 81.6759C200.536 81.0468 201.582 79.7885 201.373 79.1594C199.676 73.8934 197.817 68.6973 195.818 63.4547C195.516 62.6391 194.401 62.1498 193.564 61.5207C193.076 62.3129 192.658 63.1518 192.286 64.0139C191.357 66.9731 190.868 70.0721 189.66 72.9614C184.64 85.6137 180.202 86.8021 167.559 85.1011C166.397 84.938 165.352 83.7963 164.259 83.0973C165.235 82.305 166.118 81.1167 167.211 80.8371C169.93 80.2779 171.905 77.9012 171.998 75.1284C172.486 72.2857 172.788 69.443 172.904 66.5537C172.742 63.711 172.44 60.8916 171.975 58.0955H154.452C154.452 60.146 154.452 61.8469 154.452 63.5246C154.661 67.3925 153.778 71.2371 151.896 74.6391C150.223 77.6449 148.898 80.8138 147.178 83.773C146.551 84.8681 145.528 85.6836 144.32 86.0332C138.626 86.9885 132.932 87.8506 127.332 84.8914C126.123 84.239 124.473 84.6118 123.056 84.1691C122.126 83.7031 121.289 83.0973 120.569 82.3516C121.243 81.6293 121.801 80.6507 122.614 80.2546C124.264 79.6021 125.961 79.0429 127.68 78.6235C124.822 71.7964 122.103 65.109 119.291 58.5149C118.617 56.9304 117.873 55.3926 117.06 53.878C115.991 51.9674 116.246 49.5674 117.711 47.9363C121.987 58.1654 126.774 68.1614 128.401 79.3458L121.894 81.2798L122.01 82.072C123.799 83.3303 126.1 83.6099 128.122 82.7943C129.377 82.2118 130.678 81.7458 132.003 81.373C133.235 81.0701 133.723 80.5575 133.583 79.1827C133.025 72.5653 131.422 66.0877 128.819 60.0062C126.913 55.3693 125.519 50.546 124.659 45.6063C130.562 56.8139 135.163 68.4411 134.792 81.4196C132.816 82.0254 130.887 82.5846 128.958 83.2138C128.749 83.2138 128.633 83.5633 128.006 84.2623C129.911 84.8215 131.863 85.2409 133.839 85.4506C136.86 85.4273 139.858 85.2409 142.856 84.9147C144.622 84.7516 146.109 83.5633 146.644 81.8856C148.061 78.3439 149.944 74.942 151.268 71.3303C151.919 69.3032 152.268 67.2061 152.314 65.0857C152.57 61.4974 152.616 57.9557 152.732 54.2975C152.732 53.0625 153.29 52.3169 154.661 52.3402C158.566 52.2936 162.447 52.4334 166.328 52.8062L160.425 54.8101C162.47 55.8353 171.44 55.7188 177.506 54.6237C183.223 53.7382 188.661 51.548 193.402 48.2392L193.82 48.8684L190.125 51.8043C191.775 54.1343 193.402 56.5343 195.168 58.8644C199.095 64.3401 201.535 70.7245 202.279 77.4119C202.86 81.2332 202.628 81.4429 199.095 82.8876C198.514 83.1206 197.957 83.4468 197.376 83.7264L197.469 84.6351ZM187.94 53.2256C184.687 54.3208 181.712 55.4159 178.668 56.2547C174.856 57.3033 174.647 57.2334 175.042 61.311C175.507 66.8566 174.717 72.4488 172.742 77.6449C172.254 79.2293 170.999 80.441 169.395 80.8604C168.001 81.3497 166.653 81.8856 165.328 82.4914L165.468 83.2371C166.351 83.5633 167.257 83.7963 168.187 83.9128C170.79 84.006 173.392 83.9128 175.995 84.006C179.783 84.3555 183.385 82.1885 184.826 78.6468C186.825 74.0332 188.312 69.21 189.916 64.4333C191.31 60.4023 189.985 56.7673 188.01 53.179L187.94 53.2256Z" fill="white"/>
<path d="M72.3006 27.7578L69.5351 28.4336V28.9695L77.0182 30.1345C74.1597 32.0685 68.5823 29.9714 66.8858 27.0122C65.0034 23.7035 66.0724 22.0957 68.559 19.8822C74.9731 14.29 82.0147 9.51329 89.5675 5.59876C94.2619 3.03567 99.3049 4.17741 104.232 4.59683C109.832 5.03954 115.433 5.73856 121.057 6.01817C122.846 6.01817 124.613 5.69196 126.286 5.06284C131.352 3.33858 136.813 3.19877 141.949 4.66673C146.62 6.13468 151.64 5.97157 156.195 4.17741C167.861 -0.436153 180.666 -1.25168 192.821 1.84733C209.553 6.13468 218.756 16.4802 220.94 33.6995C221.591 38.7791 221.638 43.9286 221.94 49.0548C221.94 49.5208 221.893 50.0101 221.847 50.4761L221.173 50.8023C220.499 49.6373 219.383 48.5189 219.244 47.2839C217.966 36.1694 213.852 25.5676 207.276 16.5268C207.159 16.3637 207.113 16.1307 206.788 15.3385C211.273 19.2996 214.735 24.2627 216.92 29.8316C216.316 24.5656 214.247 19.5792 210.947 15.4317C205.254 8.30165 197.445 5.10944 188.847 3.40848C177.227 1.1483 165.235 2.08034 154.104 6.06477C153.801 6.18128 153.499 6.32108 153.221 6.48419C156.079 8.13854 159.425 8.46476 167.722 8.32496C165.444 8.74437 163.19 9.25699 160.89 9.6065C153.639 10.6317 146.737 8.67446 140.02 6.36768C134.42 4.41041 128.285 4.73663 122.939 7.25312C121.522 7.78904 119.988 7.97544 118.477 7.83564C111.366 7.25312 104.348 6.48419 97.2598 5.92497C95.8654 5.83176 94.4711 6.01818 93.1464 6.46089C84.4084 9.02398 76.4604 13.7307 70.0231 20.1618C68.8379 21.7229 68.0245 23.5404 67.6527 25.4977C67.3738 26.4763 67.9316 27.5714 69.4886 27.385C70.4414 27.3151 71.3942 27.3151 72.3471 27.385V27.7578H72.3006Z" fill="white"/>
<path d="M118.059 40.0374C116.2 38.9888 114.434 37.8238 112.644 36.6587L110.901 35.8199C109.763 35.284 108.461 35.0976 107.299 34.6549L105.998 34.2355C105.556 35.8665 105.905 36.1461 107.578 36.8685C108.554 37.2646 109.507 37.7073 110.437 38.1966C112.691 39.5014 114.504 41.0626 114.457 44.0684C114.62 45.9092 114.992 47.7266 115.549 49.4975H116.316C116.781 48.0528 117.153 46.5849 117.432 45.0936C117.571 44.0451 117.13 43.0898 118.547 42.3674C119.361 42.1111 119.454 40.8296 118.059 40.0374Z" fill="white"/>
<path d="M96.3767 33.3966L86.407 31.1598C88.5218 29.6685 95.052 31.0432 96.3767 33.3966Z" fill="white"/>
<path d="M96.7718 15.0589C99.0957 10.4919 98.7936 11.7502 95.8887 8.62786L96.3767 8.20845C97.1436 9.07058 98.4915 9.88611 98.5612 10.8181C98.4683 12.4026 98.1661 13.9405 97.6316 15.4317L96.7718 15.0589Z" fill="white"/>
<path d="M219.662 47.9363C220.429 49.9169 220.662 52.0606 220.359 54.1576C220.266 54.5305 220.476 54.9266 220.847 55.0431C221.219 55.1363 221.614 54.9266 221.731 54.5538C222.079 52.2004 221.847 49.8004 221.01 47.5635C220.917 47.1907 220.522 46.9577 220.15 47.0742C219.778 47.1674 219.546 47.5402 219.662 47.9363Z" fill="white"/>
<path d="M219.221 47.8664C219.476 49.9635 219.569 52.1072 219.523 54.2276C219.523 54.6237 219.848 54.9499 220.243 54.9499C220.638 54.9499 220.964 54.6237 220.964 54.2276C221.01 52.1072 220.894 49.9868 220.662 47.8897C220.662 47.4936 220.336 47.1907 219.941 47.1674C219.546 47.1674 219.221 47.4936 219.221 47.8664Z" fill="white"/>
<path d="M220.871 47.4237V46.8645C220.894 46.7713 220.894 46.6781 220.871 46.5849C220.847 46.4917 220.778 46.4218 220.708 46.3519C220.638 46.282 220.569 46.2354 220.476 46.1888C220.383 46.1655 220.29 46.1655 220.197 46.1888H220.011C219.895 46.2121 219.778 46.282 219.709 46.3752L219.593 46.515C219.523 46.6315 219.5 46.748 219.5 46.8645V47.4237C219.476 47.5169 219.476 47.6101 219.5 47.7033C219.523 47.7965 219.592 47.8664 219.662 47.9363C219.732 48.0062 219.802 48.0528 219.895 48.0761C219.988 48.0994 220.081 48.0994 220.174 48.0761H220.359C220.476 48.0295 220.592 47.9829 220.662 47.8897L220.778 47.7499C220.824 47.68 220.871 47.5402 220.871 47.4237Z" fill="white"/>
<path d="M117.92 51.3616C117.478 49.9635 117.13 48.5189 116.92 47.0742C116.804 46.7014 116.432 46.4917 116.061 46.5849C115.689 46.6781 115.456 47.0742 115.573 47.447C115.782 48.8917 116.13 50.3363 116.572 51.7344C116.665 52.1305 117.083 52.3635 117.478 52.2703C117.873 52.1771 118.106 51.7577 118.013 51.3616H117.92Z" fill="white"/>
<path d="M115.573 46.9577C115.456 47.4703 115.503 48.0062 115.689 48.4956C115.898 49.0315 116.223 49.4742 116.688 49.8237C116.92 49.9635 117.199 49.9635 117.408 49.8237C117.618 49.6839 117.757 49.4509 117.757 49.2179C117.827 48.0761 117.711 46.9344 117.408 45.8393C117.292 45.4665 116.92 45.2567 116.549 45.3499C116.177 45.4431 115.944 45.8393 116.061 46.2121C116.13 46.4684 116.177 46.7247 116.223 46.981C116.223 47.1208 116.223 47.2373 116.223 47.3771V47.4936C116.223 47.4936 116.223 47.6334 116.223 47.68C116.27 48.1926 116.27 48.7286 116.223 49.2412L117.292 48.6354L117.339 48.4956L117.246 48.4024C117.246 48.4024 117.106 48.1926 117.106 48.1693C117.106 48.146 117.106 48.0994 117.106 48.0761C117.106 47.9829 117.106 47.913 117.106 47.8198C117.106 47.7732 117.106 47.7266 117.106 47.68C117.106 47.7965 117.106 47.5402 117.106 47.68C117.106 47.5635 117.106 47.5169 117.106 47.4237C117.106 47.3305 117.106 47.3072 117.106 47.2839V47.3771C117.106 47.3771 117.106 47.3771 117.106 47.2839C117.199 46.9111 116.99 46.515 116.618 46.4218C116.246 46.3286 115.851 46.5383 115.758 46.9111L115.573 46.9577Z" fill="white"/>
<path d="M116.107 47.9596C115.968 48.6587 115.898 49.381 115.944 50.1266C115.944 50.313 116.014 50.4994 116.154 50.6392C116.293 50.779 116.479 50.8489 116.665 50.8489C117.06 50.8489 117.362 50.5227 117.385 50.1266C117.339 49.6606 117.339 49.1713 117.385 48.7053V48.915C117.385 48.7053 117.385 48.4956 117.501 48.3091C117.571 48.146 117.571 47.9363 117.501 47.7732C117.408 47.6101 117.246 47.4936 117.083 47.447C116.711 47.3538 116.316 47.5635 116.2 47.9363L116.107 47.9596Z" fill="white"/>
<path d="M115.828 49.4043C115.689 50.6159 116.014 51.8043 116.734 52.7829C116.827 52.946 116.99 53.0625 117.153 53.1091C117.339 53.1557 117.525 53.1324 117.687 53.0159C118.013 52.8062 118.129 52.3868 117.943 52.0373C117.78 51.8276 117.641 51.5946 117.525 51.3615C117.525 51.3149 117.525 51.2683 117.525 51.2217C117.478 51.1052 117.432 50.9654 117.408 50.8489L117.315 50.4528C117.315 50.4528 117.315 50.313 117.315 50.2431C117.292 49.9868 117.292 49.7305 117.315 49.4509C117.315 49.2645 117.246 49.0781 117.106 48.9616C116.967 48.8218 116.804 48.7519 116.618 48.7519C116.223 48.7519 115.921 49.0781 115.898 49.4742L115.828 49.4043Z" fill="white"/>
<path d="M117.246 50.3829C117.176 49.1247 116.99 47.8897 116.734 46.6781C116.618 46.282 116.223 46.049 115.828 46.1655C115.433 46.282 115.201 46.6781 115.317 47.0742C115.456 47.6567 115.549 48.2159 115.619 48.7985V48.8917C115.619 48.9616 115.619 49.0548 115.619 49.1247V49.5441C115.619 49.847 115.619 50.1266 115.619 50.4295C115.619 50.8256 115.944 51.1285 116.339 51.1518C116.734 51.1518 117.06 50.8256 117.06 50.4295L117.246 50.3829Z" fill="white"/>
<path d="M73.1372 30.9966C76.1583 30.9966 79.1795 31.0898 82.2006 31.2063C85.2217 31.3928 88.2196 31.7656 91.1943 32.3248C93.983 32.7209 96.7485 33.3267 99.4443 34.1423C102.001 35.0743 104.65 35.7267 107.323 36.0762C108.229 36.1461 108.229 34.7248 107.323 34.6549C104.557 34.2355 101.838 33.5364 99.2119 32.5811C96.4929 31.7889 93.7042 31.2296 90.8922 30.8568C88.0105 30.3209 85.1288 29.9714 82.2006 29.785C79.1795 29.6685 76.1583 29.6452 73.1372 29.5753C72.7421 29.5753 72.4168 29.9015 72.4168 30.2976C72.4168 30.6937 72.7421 31.0199 73.1372 31.0199V30.9966Z" fill="white"/>
<path d="M96.3767 33.5364C97.9337 34.049 99.514 34.4685 101.141 34.7947C101.931 34.9345 102.698 35.0743 103.488 35.1675C104.301 35.2374 105.092 35.4005 105.858 35.6568L105.603 34.6782L105.394 35.051C105.231 35.4005 105.394 35.8432 105.742 36.0063C106.044 36.1461 106.416 36.0529 106.602 35.7733L106.811 35.4005C106.997 35.051 106.881 34.6316 106.556 34.4219C104.975 33.9093 103.325 33.583 101.652 33.4432C99.9788 33.117 98.3288 32.6976 96.7253 32.1617C95.8422 31.8821 95.4704 33.2568 96.3302 33.583V33.5364H96.3767Z" fill="white"/>
<path d="M115.503 49.5441L116.293 50.9654C116.386 51.1286 116.549 51.2451 116.711 51.2917C116.874 51.3616 117.083 51.3616 117.246 51.2917C117.408 51.1985 117.525 51.0353 117.571 50.8722C117.618 50.6858 117.594 50.4761 117.501 50.313L116.735 48.8917C116.595 48.5189 116.154 48.3325 115.782 48.4956C115.758 48.4956 115.758 48.4956 115.735 48.5189C115.387 48.7286 115.294 49.1713 115.48 49.4975V49.5441H115.503Z" fill="white"/>
<path d="M67.4435 24.8918C67.7921 24.8918 68.1639 24.8452 68.4893 24.752C68.9076 24.6122 69.2562 24.3326 69.4886 23.9831C69.9069 23.3307 70.1393 22.6084 70.209 21.8394C70.302 21.42 70.209 21.0006 69.9534 20.6511C69.6978 20.3948 69.3259 20.3482 69.0238 20.5113C68.7914 20.6511 68.6287 20.9074 68.6055 21.187V21.3734C68.5358 21.5132 68.466 21.653 68.3731 21.7695V21.8394L68.071 22.1423H68.0013L67.7921 22.2821H67.6759C67.5132 22.352 67.3273 22.3986 67.1646 22.4219H66.2351C66.0491 22.4219 66.1421 22.4219 66.4675 22.6317L66.5604 22.9812C66.5604 22.9812 66.4442 23.2841 66.5604 23.1443L66.6301 23.0045L66.7463 22.8181C66.7463 22.8181 66.909 22.585 66.8161 22.7016L66.8625 22.7948L67.2808 22.3753L67.49 22.2355L67.8618 21.9559L68.071 21.8627H68.1872C68.3266 21.8161 68.4893 21.7695 68.652 21.7229C68.7217 21.6996 68.7914 21.6996 68.8611 21.7229C68.7682 21.7229 68.7682 21.7229 68.8611 21.7229H69.047L68.8611 20.3016C68.3266 20.4181 67.7921 20.5812 67.2808 20.7676C66.6999 21.0006 66.2118 21.3967 65.8632 21.9093C65.4449 22.3287 65.166 22.8414 65.0266 23.4239C65.0034 24.0763 65.3984 24.6588 66.0259 24.8452C66.421 24.9617 66.8161 24.7287 66.9323 24.3326C67.0485 23.9365 66.8161 23.5404 66.421 23.4239C66.5372 23.4239 66.5837 23.5404 66.4907 23.4239C66.4907 23.5171 66.3977 23.3074 66.4907 23.4239C66.4907 23.587 66.4907 23.3307 66.4907 23.4239C66.4907 23.4006 66.4907 23.354 66.4907 23.3307C66.4907 23.3307 66.5604 23.1676 66.4907 23.2375V23.1909C66.4907 23.1909 66.4907 23.1909 66.4907 23.0744L66.6766 22.7948L66.8625 22.5385L66.9555 22.3986L67.1646 22.2122L67.3041 22.119L67.4435 22.0491H67.5365C67.4435 22.0491 67.6294 22.0491 67.6294 22.0491H67.7456C68.1639 21.9093 68.6287 21.8161 69.0703 21.6996C69.4189 21.6064 69.628 21.2569 69.5583 20.9074C69.5118 20.5579 69.2097 20.3016 68.8611 20.3016C67.4203 20.3948 66.1189 21.1171 65.3055 22.3054C64.9569 22.655 64.8407 23.1676 65.0266 23.6336C65.259 24.0763 65.8632 24.1229 66.3048 24.1462C67.0717 24.1928 67.8386 23.9598 68.4661 23.4938C69.233 23.0278 69.8139 22.2588 70.0231 21.3734L69.6977 21.7928L69.3027 21.8161L68.9541 21.7229C68.8611 21.653 68.7682 21.5598 68.7449 21.4433C68.7449 21.3035 68.7449 21.3268 68.7449 21.4433C68.7449 21.5365 68.7449 21.6297 68.7449 21.7229C68.7449 21.7229 68.7449 21.8161 68.7449 21.8627V22.0957C68.7449 22.2588 68.652 22.4452 68.6055 22.6084C68.559 22.7715 68.6055 22.7482 68.6055 22.7948C68.6055 22.888 68.6055 22.8414 68.6055 22.7948C68.6055 22.8414 68.6055 22.888 68.6055 22.9346C68.6055 23.0744 68.4661 23.1676 68.3963 23.3074C68.4893 23.1676 68.3963 23.3074 68.3034 23.3773H68.2104C68.2104 23.3773 67.9315 23.3773 68.1175 23.3773H67.6527C67.2576 23.3773 66.9323 23.7035 66.9323 24.0996C66.9323 24.4957 67.2576 24.7986 67.6527 24.8219L67.4435 24.8918Z" fill="white"/>
<path d="M78.9471 15.6647L80.876 14.9424C81.0619 14.8958 81.2013 14.7793 81.2943 14.6162C81.3872 14.4531 81.4105 14.2434 81.364 14.0569C81.3175 13.8705 81.2013 13.7307 81.0386 13.6375C80.8527 13.5676 80.6668 13.5676 80.4809 13.6375L78.552 14.2434C78.3661 14.29 78.2266 14.4065 78.1337 14.5696C78.0407 14.7327 77.9942 14.9191 78.0407 15.1055C78.0872 15.2919 78.2034 15.4317 78.3661 15.5249C78.5287 15.6181 78.7379 15.6414 78.9238 15.5948V15.6647H78.9471Z" fill="white"/>
<path d="M13.9931 128.728L12.2686 124.579H3.99098L2.29112 128.728H0L7.0458 111.438H9.06593L16.3335 128.728H13.9931ZM8.10514 114.427L4.80396 122.603H11.4556L8.10514 114.427Z" fill="white"/>
<path d="M29.1506 128.728L25.2088 121.96H21.2671V128.728H19.1238V111.438H25.6523C27.2782 111.438 28.6168 111.94 29.6679 112.945C30.7354 113.933 31.2692 115.192 31.2692 116.724C31.2692 117.926 30.9243 118.98 30.2345 119.885C29.5447 120.775 28.625 121.384 27.4753 121.713L31.5895 128.728H29.1506ZM21.2671 113.488V119.91H25.5537C26.5884 119.91 27.4343 119.614 28.0912 119.021C28.7482 118.412 29.0766 117.638 29.0766 116.699C29.0766 115.76 28.7482 114.995 28.0912 114.402C27.4343 113.793 26.5884 113.488 25.5537 113.488H21.2671Z" fill="white"/>
<path d="M42.6399 129C40.0778 129 37.9592 128.16 36.2839 126.481C34.6251 124.801 33.7957 122.668 33.7957 120.083C33.7957 117.498 34.6251 115.365 36.2839 113.686C37.9592 112.006 40.0778 111.166 42.6399 111.166C43.9538 111.166 45.1692 111.421 46.286 111.932C47.4193 112.426 48.3718 113.134 49.1438 114.056C49.9321 114.978 50.4823 116.057 50.7943 117.292H48.6018C48.1419 116.04 47.3864 115.061 46.3353 114.352C45.2842 113.644 44.0524 113.29 42.6399 113.29C40.7019 113.29 39.1088 113.933 37.8606 115.217C36.6288 116.485 36.0129 118.115 36.0129 120.108C36.0129 122.084 36.6288 123.706 37.8606 124.974C39.1088 126.242 40.7019 126.876 42.6399 126.876C44.0852 126.876 45.3416 126.505 46.4092 125.764C47.4767 125.007 48.2322 123.961 48.6757 122.627H50.8929C50.4002 124.587 49.4065 126.143 47.912 127.296C46.4338 128.432 44.6765 129 42.6399 129Z" fill="white"/>
<path d="M64.655 111.438V113.463H59.4076V128.728H57.2397V113.463H51.9922V111.438H64.655Z" fill="white"/>
<path d="M67.5291 128.728V111.438H69.6724V128.728H67.5291Z" fill="white"/>
<path d="M82.0715 129C79.5093 129 77.3907 128.16 75.7155 126.481C74.0566 124.801 73.2272 122.668 73.2272 120.083C73.2272 117.498 74.0566 115.365 75.7155 113.686C77.3907 112.006 79.5093 111.166 82.0715 111.166C83.3854 111.166 84.6007 111.421 85.7175 111.932C86.8508 112.426 87.8034 113.134 88.5753 114.056C89.3636 114.978 89.9138 116.057 90.2259 117.292H88.0333C87.5734 116.04 86.8179 115.061 85.7668 114.352C84.7157 113.644 83.4839 113.29 82.0715 113.29C80.1335 113.29 78.5403 113.933 77.2921 115.217C76.0603 116.485 75.4445 118.115 75.4445 120.108C75.4445 122.084 76.0603 123.706 77.2921 124.974C78.5403 126.242 80.1335 126.876 82.0715 126.876C83.5168 126.876 84.7732 126.505 85.8407 125.764C86.9083 125.007 87.6637 123.961 88.1072 122.627H90.3244C89.8317 124.587 88.8381 126.143 87.3435 127.296C85.8653 128.432 84.108 129 82.0715 129Z" fill="white"/>
<path d="M111.07 111.438H113.213V128.728H111.07V120.873H102.127V128.728H99.9837V111.438H102.127V118.799H111.07V111.438Z" fill="white"/>
<path d="M120.074 126.653H127.958V128.728H117.931V111.438H127.687V113.488H120.074V118.848H127.046V120.849H120.074V126.653Z" fill="white"/>
<path d="M143.595 128.728L141.871 124.579H133.593L131.893 128.728H129.602L136.648 111.438H138.668L145.935 128.728H143.595ZM137.707 114.427L134.406 122.603H141.058L137.707 114.427Z" fill="white"/>
<path d="M158.885 111.438H161.25L154.376 128.728H152.381L145.409 111.438H147.798L153.391 125.468L158.885 111.438Z" fill="white"/>
<path d="M177.328 111.438L170.972 121.837V128.728H168.755V121.837L162.423 111.438H164.788L169.863 119.787L174.963 111.438H177.328Z" fill="white"/>
<path d="M182.482 126.703H190.069V128.728H180.338V111.438H182.482V126.703Z" fill="white"/>
<path d="M192.945 128.728V111.438H195.088V128.728H192.945Z" fill="white"/>
<path d="M209.507 113.488H201.969V119.194H208.867V121.219H201.969V128.728H199.826V111.438H209.507V113.488Z" fill="white"/>
<path d="M223.536 111.438V113.463H218.288V128.728H216.121V113.463H210.873V111.438H223.536Z" fill="white"/>
<path d="M234.183 126.703H241.771V128.728H232.04V111.438H234.183V126.703Z" fill="white"/>
<path d="M253.2 111.438V113.463H247.952V128.728H245.784V113.463H240.537V111.438H253.2Z" fill="white"/>
<path d="M261.814 111.438C264.343 111.438 266.429 112.253 268.071 113.883C269.73 115.513 270.56 117.58 270.56 120.083C270.56 122.586 269.73 124.653 268.071 126.283C266.429 127.913 264.343 128.728 261.814 128.728H256.074V111.438H261.814ZM261.74 126.703C263.678 126.703 265.263 126.077 266.495 124.826C267.727 123.574 268.342 121.993 268.342 120.083C268.342 118.815 268.063 117.679 267.505 116.674C266.946 115.67 266.166 114.888 265.164 114.328C264.163 113.751 263.021 113.463 261.74 113.463H258.217V126.703H261.74Z" fill="white"/>
<path d="M272.586 128.728V126.11H275V128.728H272.586Z" fill="white"/>
</svg>
