<svg width="208" height="114" viewBox="0 0 208 114" fill="none" xmlns="http://www.w3.org/2000/svg">
<path d="M175.185 110.719C178.288 111.176 181.39 111.816 184.585 112.029C196.135 112.883 198.04 111.816 200.037 100.629C202.095 89.0766 203.324 77.3715 204.921 65.697C206.703 66.459 207.747 68.3184 207.471 70.2083C206.826 83.1631 204.46 95.9655 200.467 108.28C200.068 110.536 198.378 112.365 196.105 112.944C189.777 114.498 183.141 114.346 176.936 112.426C175.431 111.786 173.987 110.993 172.605 110.14C174.571 109.195 176.444 108.097 178.257 106.847C179.24 106.024 180.622 104.378 180.346 103.555C178.103 96.6665 175.646 89.8691 173.004 83.0107C172.605 81.9438 171.13 81.3037 170.024 80.4807C169.379 81.5171 168.826 82.6144 168.335 83.7422C167.106 87.6134 166.461 91.6675 164.863 95.4473C158.228 111.999 152.361 113.553 135.649 111.328C134.113 111.115 132.731 109.621 131.287 108.707C132.577 107.67 133.745 106.116 135.189 105.75C138.783 105.019 141.394 101.909 141.517 98.2821C142.162 94.5633 142.561 90.8445 142.715 87.0648C142.5 83.346 142.1 79.6577 141.486 75.9998H118.324C118.324 78.6823 118.324 80.9074 118.324 83.1021C118.6 88.1621 117.433 93.1916 114.945 97.642C112.733 101.574 110.982 105.72 108.709 109.591C107.879 111.024 106.528 112.09 104.93 112.548C97.404 113.797 89.8778 114.925 82.4744 111.054C80.877 110.2 78.696 110.688 76.8221 110.109C75.5933 109.499 74.4874 108.707 73.5351 107.731C74.426 106.787 75.1633 105.506 76.2384 104.988C78.4195 104.135 80.662 103.403 82.9352 102.854C79.1567 93.9232 75.5626 85.1749 71.8456 76.5485C70.9547 74.4758 69.9717 72.464 68.8965 70.4826C67.4835 67.9831 67.8214 64.8435 69.7567 62.7098C75.409 76.0913 81.7372 89.168 83.8875 103.799L75.2861 106.329L75.4397 107.366C77.8051 109.012 80.8463 109.377 83.5189 108.311C85.1777 107.549 86.898 106.939 88.649 106.451C90.2771 106.055 90.9222 105.384 90.7379 103.586C90.0006 94.9291 87.881 86.4551 84.4405 78.4994C81.9215 72.4335 80.0783 66.1237 78.9417 59.6616C86.7444 74.3233 92.8268 89.5338 92.3353 106.512C89.7242 107.305 87.1745 108.036 84.6248 108.859C84.3483 108.859 84.1947 109.316 83.3653 110.231C85.8843 110.963 88.4647 111.511 91.0758 111.786C95.0693 111.755 99.0321 111.511 102.995 111.084C105.329 110.871 107.296 109.317 108.002 107.122C109.876 102.489 112.364 98.0382 114.115 93.3135C114.975 90.6616 115.436 87.9183 115.498 85.1444C115.835 80.4502 115.897 75.817 116.05 71.0313C116.05 69.4158 116.788 68.4404 118.6 68.4708C123.761 68.4099 128.891 68.5928 134.021 69.0805L126.219 71.7019C128.922 73.0431 140.779 72.8907 148.797 71.4581C156.354 70.2997 163.542 67.4344 169.809 63.106L170.362 63.929L165.478 67.7697C167.659 70.8179 169.809 73.9576 172.144 77.0058C177.335 84.169 180.561 92.521 181.544 101.269C182.312 106.268 182.005 106.543 177.335 108.433C176.567 108.737 175.83 109.164 175.062 109.53L175.185 110.719ZM162.59 69.6291C158.289 71.0618 154.357 72.4944 150.333 73.5918C145.295 74.9635 145.019 74.872 145.541 80.2064C146.155 87.461 145.111 94.7767 142.5 101.574C141.855 103.647 140.196 105.232 138.076 105.781C136.233 106.421 134.451 107.122 132.7 107.914L132.885 108.89C134.052 109.317 135.25 109.621 136.479 109.774C139.919 109.896 143.36 109.774 146.8 109.896C151.808 110.353 156.569 107.518 158.474 102.885C161.116 96.8494 163.082 90.5397 165.201 84.2909C167.044 79.0176 165.293 74.2624 162.682 69.5682L162.59 69.6291Z" fill="white"/>
<path d="M9.7314 36.3125L6.0758 37.1964V37.8975L15.9674 39.4216C12.1889 41.9516 4.81633 39.2083 2.57383 35.3371C0.0855711 31.0086 1.49866 28.9054 4.78561 26.0096C13.2641 18.694 22.572 12.4452 32.5558 7.32423C38.761 3.97123 45.4271 5.46484 51.9396 6.01352C59.3429 6.59267 66.7462 7.50712 74.1803 7.8729C76.5457 7.8729 78.8803 7.44616 81.0921 6.62315C87.7889 4.3675 95.0079 4.1846 101.797 6.10496C107.971 8.02531 114.607 7.81194 120.628 5.46484C136.049 -0.57057 152.975 -1.63744 169.041 2.41665C191.159 8.02531 203.324 21.5593 206.211 44.0854C207.072 50.7304 207.133 57.4669 207.532 64.1729C207.532 64.7825 207.471 65.4227 207.409 66.0323L206.519 66.459C205.628 64.9349 204.153 63.4718 203.969 61.8563C202.279 47.3164 196.842 33.4472 188.149 21.6202C187.995 21.4068 187.933 21.102 187.503 20.0656C193.432 25.2476 198.009 31.7402 200.897 39.0254C200.098 32.1365 197.364 25.6133 193.002 20.1876C185.476 10.8601 175.154 6.68411 163.788 4.45894C148.429 1.5022 132.577 2.72147 117.863 7.93387C117.464 8.08628 117.064 8.26917 116.696 8.48254C120.474 10.6467 124.898 11.0735 135.864 10.8906C132.854 11.4393 129.874 12.1099 126.833 12.5671C117.249 13.9083 108.125 11.3478 99.2472 8.33013C91.8438 5.76965 83.734 6.1964 76.6685 9.48845C74.7947 10.1895 72.7672 10.4334 70.7705 10.2505C61.3704 9.48845 52.0932 8.48254 42.7238 7.75098C40.8807 7.62905 39.0375 7.87291 37.2865 8.45206C25.7361 11.8051 15.2301 17.9624 6.72092 26.3754C5.15424 28.4177 4.07906 30.7953 3.58756 33.3557C3.21893 34.636 3.95619 36.0686 6.01438 35.8248C7.27387 35.7333 8.53335 35.7333 9.79284 35.8248V36.3125H9.7314Z" fill="white"/>
<path d="M70.2175 52.3764C67.7599 51.0047 65.4253 49.4806 63.0599 47.9565L60.7559 46.8592C59.2507 46.1581 57.5304 45.9143 55.9945 45.3351L54.2742 44.7864C53.6905 46.9202 54.1513 47.2859 56.3631 48.2309C57.6533 48.7491 58.9128 49.3282 60.1416 49.9683C63.1213 51.6753 65.5174 53.7176 65.456 57.6498C65.671 60.0578 66.1625 62.4354 66.8998 64.752H67.9135C68.5279 62.8622 69.0194 60.9418 69.3881 58.991C69.5724 57.6193 68.9887 56.3695 70.8626 55.4246C71.9377 55.0893 72.0606 53.4128 70.2175 52.3764Z" fill="white"/>
<path d="M41.5564 43.6891L28.3779 40.7628C31.1734 38.812 39.8054 40.6104 41.5564 43.6891Z" fill="white"/>
<path d="M42.0787 19.6999C45.1506 13.7254 44.7513 15.3714 40.9114 11.2869L41.5565 10.7382C42.5702 11.866 44.3519 12.9329 44.4441 14.1522C44.3212 16.2249 43.9218 18.2367 43.2153 20.1876L42.0787 19.6999Z" fill="white"/>
<path d="M204.522 62.7098C205.536 65.3007 205.843 68.105 205.443 70.8484C205.321 71.3361 205.597 71.8543 206.089 72.0067C206.58 72.1287 207.102 71.8543 207.256 71.3666C207.717 68.2879 207.41 65.1483 206.304 62.2221C206.181 61.7343 205.658 61.4295 205.167 61.5819C204.675 61.7039 204.368 62.1916 204.522 62.7098Z" fill="white"/>
<path d="M203.938 62.6183C204.276 65.3617 204.399 68.166 204.338 70.9399C204.338 71.4581 204.768 71.8848 205.29 71.8848C205.812 71.8848 206.242 71.4581 206.242 70.9399C206.304 68.166 206.15 65.3922 205.843 62.6488C205.843 62.1306 205.413 61.7343 204.891 61.7039C204.368 61.7039 203.938 62.1306 203.938 62.6183Z" fill="white"/>
<path d="M206.119 62.0392V61.3076C206.15 61.1857 206.15 61.0637 206.119 60.9418C206.089 60.8199 205.996 60.7284 205.904 60.637C205.812 60.5455 205.72 60.4846 205.597 60.4236C205.474 60.3931 205.351 60.3931 205.228 60.4236H204.983C204.829 60.4541 204.675 60.5455 204.583 60.6675L204.43 60.8504C204.338 61.0028 204.307 61.1552 204.307 61.3076V62.0392C204.276 62.1611 204.276 62.283 204.307 62.4049C204.338 62.5269 204.43 62.6183 204.522 62.7098C204.614 62.8012 204.706 62.8622 204.829 62.8926C204.952 62.9231 205.075 62.9231 205.198 62.8926H205.443C205.597 62.8317 205.751 62.7707 205.843 62.6488L205.996 62.4659C206.058 62.3745 206.119 62.1916 206.119 62.0392Z" fill="white"/>
<path d="M70.0332 67.1906C69.4495 65.3617 68.9887 63.4718 68.7123 61.5819C68.5587 61.0942 68.0672 60.8199 67.5756 60.9418C67.0841 61.0637 66.777 61.5819 66.9305 62.0696C67.207 63.9595 67.6678 65.8494 68.2515 67.6783C68.3744 68.1965 68.9273 68.5013 69.4495 68.3794C69.9717 68.2575 70.2789 67.7088 70.1561 67.1906H70.0332Z" fill="white"/>
<path d="M66.9305 61.4295C66.777 62.1001 66.8384 62.8012 67.0842 63.4413C67.3606 64.1424 67.7907 64.7216 68.4051 65.1788C68.7123 65.3617 69.0809 65.3617 69.3574 65.1788C69.6338 64.9959 69.8181 64.6911 69.8181 64.3863C69.9103 62.8927 69.7567 61.399 69.3574 59.9664C69.2038 59.4787 68.7123 59.2043 68.2208 59.3263C67.7293 59.4482 67.4221 59.9664 67.5756 60.4541C67.6678 60.7894 67.7292 61.1247 67.7907 61.46C67.7907 61.6429 67.7907 61.7953 67.7907 61.9782V62.1306C67.7907 62.1306 67.7907 62.3135 67.7907 62.3745C67.8521 63.0451 67.8521 63.7461 67.7907 64.4167L69.2038 63.6242L69.2652 63.4413L69.1423 63.3194C69.1423 63.3194 68.958 63.0451 68.958 63.0146C68.958 62.9841 68.958 62.9231 68.958 62.8926C68.958 62.7707 68.958 62.6793 68.958 62.5574C68.958 62.4964 68.958 62.4354 68.958 62.3745C68.958 62.5269 68.958 62.1916 68.958 62.3745C68.958 62.2221 68.958 62.1611 68.958 62.0392C68.958 61.9172 68.958 61.8868 68.958 61.8563V61.9782C68.958 61.9782 68.958 61.9782 68.958 61.8563C69.0809 61.3686 68.8044 60.8504 68.3129 60.7284C67.8214 60.6065 67.2992 60.8808 67.1763 61.3686L66.9305 61.4295Z" fill="white"/>
<path d="M67.6371 62.7402C67.4527 63.6547 67.3606 64.5996 67.422 65.5751C67.422 65.8189 67.5142 66.0628 67.6985 66.2457C67.8828 66.4286 68.1286 66.52 68.3743 66.52C68.8966 66.52 69.2959 66.0932 69.3266 65.5751C69.2652 64.9654 69.2652 64.3253 69.3266 63.7157V63.99C69.3266 63.7157 69.3266 63.4413 69.4802 63.1975C69.5724 62.9841 69.5724 62.7098 69.4802 62.4964C69.3573 62.283 69.1423 62.1306 68.9273 62.0697C68.4358 61.9477 67.9135 62.2221 67.7599 62.7098L67.6371 62.7402Z" fill="white"/>
<path d="M67.2685 64.6301C67.0841 66.2152 67.5142 67.7698 68.4665 69.05C68.5894 69.2634 68.8044 69.4158 69.0195 69.4767C69.2652 69.5377 69.511 69.5072 69.726 69.3548C70.1561 69.0805 70.3097 68.5318 70.0639 68.0746C69.8489 67.8002 69.6646 67.4954 69.511 67.1906C69.511 67.1296 69.511 67.0687 69.511 67.0077C69.4495 66.8553 69.3881 66.6724 69.3574 66.52L69.2345 66.0018C69.2345 66.0018 69.2345 65.8189 69.2345 65.7275C69.2038 65.3922 69.2038 65.0569 69.2345 64.6911C69.2345 64.4472 69.1423 64.2034 68.958 64.051C68.7737 63.8681 68.5587 63.7766 68.3129 63.7766C67.7907 63.7766 67.3913 64.2034 67.3606 64.7216L67.2685 64.6301Z" fill="white"/>
<path d="M69.1423 65.9104C69.0501 64.2643 68.8044 62.6488 68.4665 61.0637C68.3129 60.5456 67.7906 60.2407 67.2684 60.3931C66.7462 60.5456 66.439 61.0637 66.5926 61.5819C66.7769 62.344 66.8998 63.0755 66.992 63.8376V63.9595C66.992 64.051 66.992 64.1729 66.992 64.2643V64.813C66.992 65.2093 66.992 65.5751 66.992 65.9713C66.992 66.4895 67.422 66.8858 67.9442 66.9163C68.4665 66.9163 68.8965 66.4895 68.8965 65.9713L69.1423 65.9104Z" fill="white"/>
<path d="M10.8373 40.5495C14.8308 40.5495 18.8242 40.6714 22.8177 40.8238C26.8112 41.0676 30.774 41.5554 34.7061 42.2869C38.3924 42.8051 42.048 43.5976 45.6114 44.6645C48.9905 45.8838 52.4925 46.7373 56.0252 47.1945C57.2233 47.2859 57.2233 45.4266 56.0252 45.3351C52.3696 44.7864 48.7755 43.872 45.3042 42.6222C41.7101 41.5858 38.0238 40.8543 34.3067 40.3666C30.4976 39.6655 26.6884 39.2082 22.8177 38.9644C18.8242 38.812 14.8308 38.7815 10.8373 38.6901C10.315 38.6901 9.88497 39.1168 9.88497 39.635C9.88497 40.1532 10.315 40.5799 10.8373 40.5799V40.5495Z" fill="white"/>
<path d="M41.5564 43.872C43.6146 44.5426 45.7035 45.0912 47.8539 45.518C48.8983 45.7009 49.9121 45.8838 50.9565 46.0057C52.0317 46.0972 53.0761 46.3105 54.0899 46.6458L53.752 45.3656L53.4755 45.8533C53.2605 46.3105 53.4755 46.8897 53.9363 47.1031C54.3356 47.2859 54.8271 47.164 55.0729 46.7982L55.3494 46.3105C55.5951 45.8533 55.4415 45.3046 55.0115 45.0303C52.9226 44.3597 50.7415 43.9329 48.5297 43.75C46.3179 43.3233 44.1368 42.7746 42.0172 42.0735C40.8499 41.7078 40.3584 43.5062 41.495 43.9329V43.872H41.5564Z" fill="white"/>
<path d="M66.8384 64.813L67.8828 66.6724C68.0057 66.8858 68.2207 67.0382 68.4358 67.0992C68.6508 67.1906 68.9273 67.1906 69.1423 67.0992C69.3574 66.9772 69.5109 66.7638 69.5724 66.5505C69.6338 66.3066 69.6031 66.0323 69.4802 65.8189L68.4665 63.9595C68.2822 63.4718 67.6985 63.228 67.207 63.4413C67.1763 63.4413 67.1763 63.4413 67.1456 63.4718C66.6848 63.7462 66.5619 64.3253 66.8076 64.752V64.813H66.8384Z" fill="white"/>
<path d="M3.31105 32.5632C3.77184 32.5632 4.26334 32.5023 4.69341 32.3803C5.24636 32.1974 5.70716 31.8316 6.01435 31.3744C6.5673 30.5209 6.87448 29.576 6.96664 28.5701C7.08952 28.0214 6.96665 27.4727 6.62874 27.0155C6.29082 26.6802 5.79932 26.6192 5.39997 26.8326C5.09278 27.0155 4.87773 27.3508 4.84701 27.7166V27.9604C4.75485 28.1433 4.66269 28.3262 4.53982 28.4786V28.5701L4.14047 28.9664H4.04832L3.77184 29.1492H3.61824C3.40321 29.2407 3.15747 29.3017 2.94243 29.3321H1.71366C1.46791 29.3321 1.59079 29.3321 2.02086 29.6065L2.14372 30.0637C2.14372 30.0637 1.99013 30.46 2.14372 30.2771L2.23588 30.0942L2.38947 29.8503C2.38947 29.8503 2.60452 29.5455 2.48164 29.6979L2.54307 29.8198L3.09603 29.2712L3.37249 29.0883L3.86401 28.7225L4.14047 28.6006H4.29407C4.47838 28.5396 4.69342 28.4786 4.90845 28.4177C5.00061 28.3872 5.09277 28.3872 5.18493 28.4177C5.06205 28.4177 5.06205 28.4177 5.18493 28.4177H5.43068L5.18493 26.5583C4.47839 26.7107 3.77185 26.9241 3.09603 27.1679C2.32805 27.4727 1.68293 27.9909 1.22215 28.6615C0.669201 29.2102 0.300578 29.8808 0.116262 30.6428C0.0855433 31.4963 0.607766 32.2584 1.43718 32.5022C1.95941 32.6547 2.48164 32.3498 2.63524 31.8316C2.78884 31.3134 2.48164 30.7953 1.95941 30.6428C2.11301 30.6428 2.17445 30.7953 2.05157 30.6428C2.05157 30.7648 1.92869 30.4904 2.05157 30.6428C2.05157 30.8562 2.05157 30.5209 2.05157 30.6428C2.05157 30.6124 2.05157 30.5514 2.05157 30.5209C2.05157 30.5209 2.14373 30.3076 2.05157 30.399V30.338C2.05157 30.338 2.05157 30.338 2.05157 30.1856L2.29732 29.8198L2.54307 29.4845L2.66595 29.3017L2.94243 29.0578L3.12674 28.9359L3.31105 28.8444H3.43393C3.31106 28.8444 3.55682 28.8444 3.55682 28.8444H3.71041C4.26336 28.6615 4.87773 28.5396 5.46139 28.3872C5.92218 28.2653 6.19866 27.808 6.10651 27.3508C6.04507 26.8936 5.64572 26.5583 5.18493 26.5583C3.28034 26.6802 1.56007 27.6251 0.484897 29.1797C0.0241087 29.637 -0.129491 30.3076 0.116262 30.9172C0.423454 31.4963 1.22215 31.5573 1.80582 31.5878C2.81955 31.6488 3.83328 31.3439 4.6627 30.7343C5.67643 30.1247 6.44442 29.1188 6.72089 27.9604L6.29081 28.5091L5.76858 28.5396L5.3078 28.4177C5.18492 28.3262 5.06205 28.2043 5.03133 28.0519C5.03133 27.869 5.03133 27.8995 5.03133 28.0519C5.03133 28.1738 5.03133 28.2957 5.03133 28.4177C5.03133 28.4177 5.03133 28.5396 5.03133 28.6006V28.9054C5.03133 29.1188 4.90845 29.3626 4.84701 29.576C4.78557 29.7894 4.84701 29.7589 4.84701 29.8198C4.84701 29.9418 4.84701 29.8808 4.84701 29.8198C4.84701 29.8808 4.84701 29.9418 4.84701 30.0027C4.84701 30.1856 4.6627 30.3075 4.57055 30.4904C4.69342 30.3075 4.57054 30.4904 4.44766 30.5819H4.3248C4.3248 30.5819 3.95616 30.5819 4.20191 30.5819H3.58753C3.0653 30.5819 2.63524 31.0086 2.63524 31.5268C2.63524 32.045 3.0653 32.4413 3.58753 32.4718L3.31105 32.5632Z" fill="white"/>
<path d="M18.5171 20.4924L21.0668 19.5475C21.3125 19.4865 21.4968 19.3341 21.6197 19.1207C21.7426 18.9073 21.7733 18.633 21.7119 18.3891C21.6504 18.1453 21.4968 17.9624 21.2818 17.8405C21.036 17.749 20.7903 17.749 20.5445 17.8405L17.9949 18.633C17.7491 18.694 17.5648 18.8464 17.4419 19.0597C17.319 19.2731 17.2576 19.517 17.319 19.7608C17.3805 20.0047 17.5341 20.1876 17.7491 20.3095C17.9641 20.4314 18.2406 20.4619 18.4864 20.4009V20.4924H18.5171Z" fill="white"/>
</svg>
