<?xml version="1.0" encoding="UTF-8"?>
<!DOCTYPE svg PUBLIC "-//W3C//DTD SVG 1.1//EN" "http://www.w3.org/Graphics/SVG/1.1/DTD/svg11.dtd"><svg xmlns="http://www.w3.org/2000/svg" xmlns:xlink="http://www.w3.org/1999/xlink">
  <symbol id="icon-arrow-more-2" viewBox="0 0 31 8">
    <path d="M30.3536 4.35355C30.5488 4.15829 30.5488 3.84171 30.3536 3.64645L27.1716 0.464466C26.9763 0.269204 26.6597 0.269204 26.4645 0.464466C26.2692 0.659728 26.2692 0.976311 26.4645 1.17157L29.2929 4L26.4645 6.82843C26.2692 7.02369 26.2692 7.34027 26.4645 7.53553C26.6597 7.7308 26.9763 7.7308 27.1716 7.53553L30.3536 4.35355ZM0 4.5H30V3.5H0V4.5Z" />
  </symbol>
  <symbol id="icon-arrow-more-3" viewBox="0 0 18 8">
    <path d="M17.3536 4.35355C17.5488 4.15829 17.5488 3.84171 17.3536 3.64645L14.1716 0.464467C13.9763 0.269205 13.6597 0.269205 13.4645 0.464467C13.2692 0.659729 13.2692 0.976312 13.4645 1.17157L16.2929 4L13.4645 6.82843C13.2692 7.02369 13.2692 7.34027 13.4645 7.53554C13.6597 7.7308 13.9763 7.7308 14.1716 7.53554L17.3536 4.35355ZM-4.37114e-08 4.5L17 4.5L17 3.5L4.37114e-08 3.5L-4.37114e-08 4.5Z" />
  </symbol>
  <symbol id="icon-arrow-more" viewBox="0 0 10 8">
    <path d="M9.35355 4.35355C9.54882 4.15829 9.54882 3.84171 9.35355 3.64645L6.17157 0.464466C5.97631 0.269204 5.65973 0.269204 5.46447 0.464466C5.2692 0.659728 5.2692 0.976311 5.46447 1.17157L8.29289 4L5.46447 6.82843C5.2692 7.02369 5.2692 7.34027 5.46447 7.53553C5.65973 7.7308 5.97631 7.7308 6.17157 7.53553L9.35355 4.35355ZM0 4.5L9 4.5V3.5L0 3.5L0 4.5Z" />
  </symbol>
  <symbol id="icon-arrow" viewBox="0 0 8 5">
    <path d="M3.64645 4.35355C3.84171 4.54882 4.15829 4.54882 4.35355 4.35355L7.53553 1.17157C7.7308 0.976311 7.7308 0.659728 7.53553 0.464466C7.34027 0.269204 7.02369 0.269204 6.82843 0.464466L4 3.29289L1.17157 0.464466C0.976311 0.269204 0.659728 0.269204 0.464466 0.464466C0.269204 0.659728 0.269204 0.976311 0.464466 1.17157L3.64645 4.35355ZM3.5 3V4H4.5V3H3.5Z" />
  </symbol>
  <symbol id="icon-check" viewBox="0 0 27 21">
    <path d="M23.4294 0L27 3.69867L10.2973 21L0 10.334L3.57059 6.63529L10.2973 13.6028L23.4294 0Z" />
  </symbol>
  <symbol id="icon-clock" viewBox="0 0 19 19">
    <path d="M9.5 0C4.26179 0 0 4.26179 0 9.5C0 14.7382 4.26179 19 9.5 19C14.7382 19 19 14.7382 19 9.5C19 4.26179 14.7382 0 9.5 0ZM9.5 17.8125C4.91641 17.8125 1.18751 14.0836 1.18751 9.5C1.18751 4.91641 4.91641 1.18751 9.5 1.18751C14.0836 1.18751 17.8125 4.91641 17.8125 9.5C17.8125 14.0836 14.0836 17.8125 9.5 17.8125Z" />
    <path d="M10.0938 3.56252H8.90625V9.74585L12.6427 13.4823L13.4823 12.6427L10.0938 9.25415V3.56252Z" />
  </symbol>
  <symbol id="icon-close" viewBox="0 0 20 20">

    <path class="st0" d="M12.8,10l5.9-5.9c1-1,1.2-2.5,0.4-3.2s-2.2-0.6-3.2,0.4L10,7.2L4.1,1.2c-1-1-2.5-1.2-3.2-0.4S0.2,3.1,1.2,4.1
	L7.2,10l-5.9,5.9c-1,1-1.2,2.5-0.4,3.2s2.2,0.6,3.2-0.4l5.9-5.9l5.9,5.9c1,1,2.5,1.2,3.2,0.4s0.6-2.2-0.4-3.2L12.8,10z" />
  </symbol>
  <symbol id="icon-email" viewBox="0 0 20 15">
    <path d="M0 0V15H20V0H0ZM10 8.20441L2.54522 1.42612H17.4548L10 8.20441ZM7.11501 7.5L1.41176 12.6857V2.31426L7.11501 7.5ZM8.17017 8.4594L10 10.1232L11.8298 8.4594L17.4548 13.5739H2.54522L8.17017 8.4594ZM12.885 7.5L18.5882 2.31426V12.6857L12.885 7.5Z" />
  </symbol>
  <symbol id="icon-eye" viewBox="0 0 22 14">
    <path d="M21.9185 6.71601C21.7453 6.44099 17.5817 0 11 0C5.35227 0 0.319682 6.40401 0.107929 6.67701C-0.0359762 6.86301 -0.0359762 7.13601 0.107929 7.32299C0.319682 7.59599 5.35227 14 11 14C16.6477 14 21.6802 7.59599 21.8919 7.32299C22.0249 7.15101 22.0368 6.90201 21.9185 6.71601ZM11 13C6.47248 13 2.16771 8.29002 1.07414 7.00002C2.16591 5.70904 6.46608 1.00003 11 1.00003C16.2975 1.00003 20.0366 5.70304 20.9496 6.97302C19.8954 8.22201 15.5659 13 11 13Z" />
    <path d="M11 3C8.97777 3 7.33325 4.79399 7.33325 6.99998C7.33325 9.20596 8.97777 11 11 11C13.0221 11 14.6667 9.20596 14.6667 6.99998C14.6667 4.79399 13.0221 3 11 3ZM11 10C9.48378 10 8.24991 8.65401 8.24991 7.00002C8.24991 5.34604 9.48378 4.00003 11 4.00003C12.5161 4.00003 13.75 5.34604 13.75 7.00002C13.75 8.65401 12.5161 10 11 10Z" />
  </symbol>
  <symbol id="icon-facebook" viewBox="0 0 7 14">
    <path d="M4.375 4.8125V3.0625C4.375 2.5795 4.767 2.1875 5.25 2.1875H6.125V0H4.375C2.92513 0 1.75 1.17513 1.75 2.625V4.8125H0V7H1.75V14H4.375V7H6.125L7 4.8125H4.375Z" />
  </symbol>
  <symbol id="icon-instagram" viewBox="0 0 14 14">
    <path d="M9.625 0H4.375C1.95913 0 0 1.95913 0 4.375V9.625C0 12.0409 1.95913 14 4.375 14H9.625C12.0409 14 14 12.0409 14 9.625V4.375C14 1.95913 12.0409 0 9.625 0ZM12.6875 9.625C12.6875 11.3138 11.3138 12.6875 9.625 12.6875H4.375C2.68625 12.6875 1.3125 11.3138 1.3125 9.625V4.375C1.3125 2.68625 2.68625 1.3125 4.375 1.3125H9.625C11.3138 1.3125 12.6875 2.68625 12.6875 4.375V9.625Z" />
    <path d="M7 3.5C5.06712 3.5 3.5 5.06712 3.5 7C3.5 8.93287 5.06712 10.5 7 10.5C8.93287 10.5 10.5 8.93287 10.5 7C10.5 5.06712 8.93287 3.5 7 3.5ZM7 9.1875C5.79425 9.1875 4.8125 8.20575 4.8125 7C4.8125 5.79338 5.79425 4.8125 7 4.8125C8.20575 4.8125 9.1875 5.79338 9.1875 7C9.1875 8.20575 8.20575 9.1875 7 9.1875Z" />
    <path d="M10.7625 3.70387C11.0201 3.70387 11.2289 3.49507 11.2289 3.2375C11.2289 2.97993 11.0201 2.77113 10.7625 2.77113C10.5049 2.77113 10.2961 2.97993 10.2961 3.2375C10.2961 3.49507 10.5049 3.70387 10.7625 3.70387Z" />
  </symbol>
  <symbol id="icon-load" viewBox="0 0 21 21">
    <path d="M15.8694 19.5972C11.2548 22.2662 5.383 21.0051 2.27704 16.8464L1.62318 20.1067L0.765743 19.934L1.7116 15.2184L6.49024 16.1497L6.32326 17.0088L3.01222 16.3639C5.86521 20.1376 11.219 21.2763 15.4317 18.8389C19.4012 16.5429 21.1276 11.7944 19.537 7.54852L20.356 7.24074C22.0972 11.8893 20.2103 17.0858 15.8694 19.5972Z" />
    <path d="M19.2884 5.78116L14.5098 4.84983L14.6767 3.99073L17.9873 4.63558C15.1341 0.862389 9.78099 -0.27586 5.56823 2.16097C1.5988 4.45702 -0.127668 9.20555 1.46299 13.4514L0.643969 13.7592C-1.0972 9.11069 0.789636 3.91428 5.13052 1.40277C6.77461 0.451752 8.57791 0 10.3592 0C13.579 0 16.7221 1.48167 18.7214 4.16054L19.3767 0.893282L20.2342 1.06593L19.2884 5.78116Z" />
  </symbol>
  <symbol id="icon-menu" viewBox="0 0 20 20">
    <rect class="cls-1" width="20" height="4" rx="2" ry="2" />
    <rect class="cls-1" y="8" width="20" height="4" rx="2" ry="2" />
    <rect class="cls-1" y="16" width="20" height="4" rx="2" ry="2" />
  </symbol>
  <symbol id="icon-mouse" viewBox="0 0 14 19">
    <path d="M7 0C3.14013 0 0 3.04816 0 6.79469V12.2055C0 15.952 3.14013 19 7 19C10.8596 19 14 15.9613 14 12.2263V6.79469C14 3.04816 10.8596 0 7 0ZM12.6834 12.2263C12.6834 15.2675 10.134 17.7417 7 17.7417C3.86624 17.7417 1.31664 15.2581 1.31664 12.2053V6.79469C1.31664 3.74189 3.86624 1.25827 7 1.25827C10.134 1.25827 12.6834 3.74189 12.6834 6.79469V12.2263Z" />
    <path d="M7 5.20088C6.6364 5.20088 6.34168 5.48254 6.34168 5.83003V8.03203C6.34168 8.37952 6.6364 8.66118 7 8.66118C7.3636 8.66118 7.65832 8.37952 7.65832 8.03203V5.83003C7.65832 5.48254 7.3636 5.20088 7 5.20088Z" />
  </symbol>
  <symbol id="icon-phone" viewBox="0 0 21 21">
    <path d="M0 17.9104L0.416809 18.3635C0.647144 18.6139 2.72067 20.8149 4.56582 20.985C4.67408 20.9949 4.787 21 4.90176 21C7.37553 20.9998 11.3342 18.6395 14.9869 14.9869C16.8235 13.1503 18.3661 11.2025 19.4482 9.35413C20.2278 8.02224 21.1274 6.1103 20.985 4.56579C20.815 2.72065 18.614 0.64714 18.3636 0.416807L17.9105 0L12.2825 5.62794L14.1725 7.51789L7.51793 14.1724L5.62802 12.2824L0 17.9104ZM1.79608 17.9297L5.62798 14.0978L7.51789 15.9878L15.9878 7.51793L14.0979 5.62799L17.9306 1.79525C18.6218 2.52412 19.6218 3.76128 19.7068 4.68363C19.7934 5.62396 19.3082 7.05234 18.3403 8.70567C17.3129 10.4608 15.8394 12.319 14.0792 14.0792C10.7602 17.398 6.98628 19.7161 4.90146 19.7163C4.82615 19.7163 4.7529 19.7131 4.68366 19.7067C3.76896 19.6224 2.51802 18.6106 1.79608 17.9297Z" />
  </symbol>
  <symbol id="icon-play-now" viewBox="0 0 59 59">
    <path d="M50.3597 8.64027C44.7878 3.06858 37.3797 0 29.5 0C21.6203 0 14.2122 3.06858 8.64027 8.64027C3.06858 14.2122 0 21.6203 0 29.5C0 37.3797 3.06858 44.7878 8.64027 50.3597C14.2122 55.9314 21.6203 59 29.5 59C34.8945 59 40.1727 57.5298 44.7642 54.7487C45.8528 54.0891 46.2008 52.6719 45.5413 51.5833C44.8817 50.4944 43.4644 50.1467 42.3759 50.8061C38.5049 53.1512 34.0523 54.3906 29.5 54.3906C15.7752 54.3906 4.60938 43.2248 4.60938 29.5C4.60938 15.7752 15.7752 4.60938 29.5 4.60938C43.2248 4.60938 54.3906 15.7752 54.3906 29.5C54.3906 34.4077 52.9312 39.1848 50.1701 43.3148C49.4626 44.3728 49.7469 45.8042 50.805 46.5116C51.8633 47.2192 53.2945 46.9347 54.0018 45.8766C57.2717 40.9859 59 35.3228 59 29.5C59 21.6203 55.9314 14.2122 50.3597 8.64027Z" />
    <path d="M27.0415 17.4491C25.4182 16.5072 23.4782 16.504 21.8522 17.4406C20.2202 18.3803 19.2459 20.0677 19.2459 21.9542V37.0459C19.2459 38.9324 20.2202 40.6198 21.8522 41.5595C22.6628 42.0264 23.551 42.2597 24.4395 42.2597C25.3334 42.2597 26.2275 42.0232 27.0415 41.5509L40.0453 34.0051C41.6679 33.0635 42.6367 31.3794 42.6367 29.5C42.6367 27.6206 41.6679 25.9365 40.0453 24.9949L27.0415 17.4491ZM37.7319 30.0182L24.728 37.564C24.4903 37.7022 24.2838 37.6406 24.1525 37.5651C24.0168 37.487 23.8552 37.3335 23.8552 37.0458V21.9542C23.8552 21.6665 24.0168 21.513 24.1525 21.4349C24.227 21.392 24.3255 21.3539 24.4402 21.3539C24.5279 21.3539 24.625 21.3762 24.728 21.436L37.7319 28.9818C37.9762 29.1234 38.0273 29.3418 38.0273 29.5C38.0273 29.6582 37.9762 29.8766 37.7319 30.0182Z" />
  </symbol>
  <symbol id="icon-play" viewBox="0 0 36 36">
    <path d="M18 0C8.08813 0 0 8.08951 0 18C0 27.9119 8.08951 36 18 36C27.9119 36 36 27.9105 36 18C36 8.08813 27.9105 0 18 0ZM18 34.8906C9.23785 34.8906 1.10938 26.7621 1.10938 18C1.10938 9.23785 9.23785 1.10938 18 1.10938C26.7621 1.10938 34.8906 9.23785 34.8906 18C34.8906 26.7621 26.7621 34.8906 18 34.8906Z" />
    <path d="M13.6055 26.6735L26.6158 18L13.6055 9.32654V26.6735ZM14.5 11L25 18L14.5 25V17.8633V11Z" />
  </symbol>
  <symbol id="icon-pointer" viewBox="0 0 13 15">
    <path d="M10.5071 10.6736C9.84364 11.3371 8.4563 12.7244 7.50161 13.6791C6.94833 14.2324 6.05228 14.2327 5.499 13.6794C4.56099 12.7413 3.20046 11.3808 2.49323 10.6736C0.280252 8.46066 0.280252 4.8727 2.49323 2.65973C4.7062 0.446756 8.29416 0.446756 10.5071 2.65973C12.72 4.8727 12.72 8.46066 10.5071 10.6736Z" stroke-linecap="round" stroke-linejoin="round" />
    <path d="M8.62516 6.66667C8.62516 7.84031 7.6738 8.79167 6.50016 8.79167C5.32652 8.79167 4.37516 7.84031 4.37516 6.66667C4.37516 5.49307 5.32652 4.54167 6.50016 4.54167C7.6738 4.54167 8.62516 5.49307 8.62516 6.66667Z" stroke-linecap="round" stroke-linejoin="round" />
  </symbol>
  <symbol id="icon-youtube" viewBox="0 0 15 10">
    <path d="M14.6909 1.56476C14.5181 0.952891 14.0114 0.470562 13.3689 0.305804C12.1951 0 7.49983 0 7.49983 0C7.49983 0 2.80472 0 1.63092 0.29421C1.00076 0.458793 0.481751 0.952979 0.3089 1.56476C0 2.68232 0 5 0 5C0 5 0 7.32936 0.3089 8.43524C0.481934 9.04702 0.988405 9.52935 1.63101 9.69411C2.81708 10 7.50001 10 7.50001 10C7.50001 10 12.1951 10 13.3689 9.70579C14.0115 9.54112 14.5181 9.05879 14.6911 8.44701C14.9999 7.32936 14.9999 5.01177 14.9999 5.01177C14.9999 5.01177 15.0123 2.68232 14.6909 1.56476ZM6.00495 7.14115V2.85885L9.90932 5L6.00495 7.14115Z" />
  </symbol>
</svg>