<svg width="466" height="81" viewBox="0 0 466 81" fill="none" xmlns="http://www.w3.org/2000/svg">
<path d="M198.124 37.4198L195.904 32.0912H185.247L183.058 37.4198H180.109L189.18 15.2173H191.781L201.137 37.4198H198.124ZM190.544 19.0552L186.293 29.5537H194.857L190.544 19.0552Z" fill="#2F97F4"/>
<path d="M222.08 37.4198L217.005 28.7291H211.93V37.4198H209.17V15.2173H217.576C219.669 15.2173 221.392 15.8622 222.746 17.1521C224.12 18.4208 224.807 20.0384 224.807 22.0049C224.807 23.5485 224.363 24.9018 223.475 26.0648C222.587 27.2066 221.403 27.989 219.923 28.4119L225.22 37.4198H222.08ZM211.93 17.8499V26.0965H217.449C218.781 26.0965 219.87 25.7159 220.716 24.9547C221.561 24.1723 221.984 23.1785 221.984 21.9732C221.984 20.7679 221.561 19.7847 220.716 19.0234C219.87 18.2411 218.781 17.8499 217.449 17.8499H211.93Z" fill="#2F97F4"/>
<path d="M243.887 37.7687C240.589 37.7687 237.861 36.6903 235.704 34.5334C233.568 32.3766 232.501 29.6383 232.501 26.3185C232.501 22.9987 233.568 20.2604 235.704 18.1036C237.861 15.9468 240.589 14.8684 243.887 14.8684C245.579 14.8684 247.144 15.1962 248.581 15.8517C250.04 16.486 251.267 17.3953 252.261 18.5794C253.276 19.7635 253.984 21.1485 254.386 22.7344H251.563C250.971 21.1274 249.998 19.8692 248.645 18.96C247.292 18.0508 245.706 17.5961 243.887 17.5961C241.392 17.5961 239.341 18.4208 237.734 20.0701C236.148 21.6983 235.355 23.7917 235.355 26.3502C235.355 28.8877 236.148 30.9705 237.734 32.5987C239.341 34.2268 241.392 35.0409 243.887 35.0409C245.748 35.0409 247.366 34.5652 248.74 33.6136C250.114 32.6409 251.087 31.2982 251.658 29.5855H254.513C253.878 32.1017 252.599 34.1 250.675 35.5801C248.772 37.0391 246.509 37.7687 243.887 37.7687Z" fill="#2F97F4"/>
<path d="M276.672 15.2173V17.8182H269.916V37.4198H267.124V17.8182H260.369V15.2173H276.672Z" fill="#2F97F4"/>
<path d="M284.812 37.4198V15.2173H287.572V37.4198H284.812Z" fill="#2F97F4"/>
<path d="M307.976 37.7687C304.677 37.7687 301.949 36.6903 299.793 34.5334C297.657 32.3766 296.589 29.6383 296.589 26.3185C296.589 22.9987 297.657 20.2604 299.793 18.1036C301.949 15.9468 304.677 14.8684 307.976 14.8684C309.667 14.8684 311.232 15.1962 312.67 15.8517C314.129 16.486 315.355 17.3953 316.349 18.5794C317.364 19.7635 318.073 21.1485 318.474 22.7344H315.651C315.059 21.1274 314.087 19.8692 312.733 18.96C311.38 18.0508 309.794 17.5961 307.976 17.5961C305.481 17.5961 303.429 18.4208 301.822 20.0701C300.237 21.6983 299.444 23.7917 299.444 26.3502C299.444 28.8877 300.237 30.9705 301.822 32.5987C303.429 34.2268 305.481 35.0409 307.976 35.0409C309.836 35.0409 311.454 34.5652 312.829 33.6136C314.203 32.6409 315.176 31.2982 315.747 29.5855H318.601C317.967 32.1017 316.688 34.1 314.763 35.5801C312.86 37.0391 310.598 37.7687 307.976 37.7687Z" fill="#2F97F4"/>
<path d="M196.887 55.8314H199.647V78.0339H196.887V67.9476H185.374V78.0339H182.614V55.8314H185.374V65.2833H196.887V55.8314Z" fill="#2F97F4"/>
<path d="M212.921 75.3696H223.071V78.0339H210.162V55.8314H222.722V58.464H212.921V65.3468H221.897V67.9159H212.921V75.3696Z" fill="#2F97F4"/>
<path d="M247.644 78.0339L245.423 72.7053H234.766L232.578 78.0339H229.628L238.699 55.8314H241.3L250.657 78.0339H247.644ZM240.063 59.6693L235.813 70.1679H244.377L240.063 59.6693Z" fill="#2F97F4"/>
<path d="M271.769 55.8314H274.814L265.965 78.0339H263.395L254.419 55.8314H257.496L264.696 73.8471L271.769 55.8314Z" fill="#2F97F4"/>
<path d="M299.955 55.8314L291.771 69.1846V78.0339H288.917V69.1846L280.765 55.8314H283.81L290.344 66.552L296.91 55.8314H299.955Z" fill="#2F97F4"/>
<path d="M311.031 75.433H320.8V78.0339H308.271V55.8314H311.031V75.433Z" fill="#2F97F4"/>
<path d="M328.942 78.0339V55.8314H331.702V78.0339H328.942Z" fill="#2F97F4"/>
<path d="M354.706 58.464H345.001V65.7908H353.882V68.3917H345.001V78.0339H342.241V55.8314H354.706V58.464Z" fill="#2F97F4"/>
<path d="M377.208 55.8314V58.4323H370.452V78.0339H367.661V58.4323H360.905V55.8314H377.208Z" fill="#2F97F4"/>
<path d="M399.797 75.433H409.566V78.0339H397.037V55.8314H399.797V75.433Z" fill="#2F97F4"/>
<path d="M428.721 55.8314V58.4323H421.965V78.0339H419.174V58.4323H412.418V55.8314H428.721Z" fill="#2F97F4"/>
<path d="M444.252 55.8314C447.508 55.8314 450.194 56.8781 452.308 58.9715C454.444 61.0648 455.512 63.7186 455.512 66.9326C455.512 70.1467 454.444 72.8004 452.308 74.8938C450.194 76.9872 447.508 78.0339 444.252 78.0339H436.862V55.8314H444.252ZM444.157 75.433C446.652 75.433 448.693 74.6295 450.278 73.0225C451.864 71.4154 452.657 69.3855 452.657 66.9326C452.657 65.3045 452.298 63.8454 451.579 62.5556C450.86 61.2657 449.856 60.2613 448.566 59.5424C447.276 58.8023 445.806 58.4323 444.157 58.4323H439.621V75.433H444.157Z" fill="#2F97F4"/>
<path d="M462.561 78.0339V74.6718H465.669V78.0339H462.561Z" fill="#2F97F4"/>
<path d="M123.653 78.6685C125.842 78.9934 128.032 79.4482 130.287 79.5998C138.44 80.2063 139.785 79.4482 141.194 71.4997C142.647 63.2912 143.514 54.9745 144.642 46.6794C145.899 47.2209 146.636 48.542 146.441 49.8848C145.986 59.0896 144.316 68.186 141.498 76.9359C141.216 78.5386 140.023 79.8381 138.419 80.2496C133.952 81.3541 129.268 81.2459 124.888 79.8814C123.826 79.4266 122.807 78.8635 121.831 78.257C123.219 77.5856 124.542 76.8059 125.821 75.918C126.515 75.3332 127.49 74.1636 127.295 73.5789C125.712 68.6841 123.978 63.8544 122.113 58.9813C121.831 58.2232 120.79 57.7684 120.01 57.1836C119.554 57.92 119.164 58.6997 118.817 59.5011C117.95 62.2517 117.495 65.1322 116.367 67.8178C111.684 79.5782 107.542 80.6827 95.7467 79.1017C94.6626 78.9501 93.6869 77.8888 92.6678 77.2391C93.5784 76.5027 94.4024 75.3982 95.4215 75.1383C97.9584 74.6185 99.8014 72.4093 99.8881 69.832C100.343 67.1897 100.625 64.5474 100.734 61.8618C100.582 59.2195 100.3 56.5989 99.8665 53.9999H83.5176C83.5176 55.9058 83.5176 57.4869 83.5176 59.0462C83.7127 62.6415 82.8888 66.2151 81.1325 69.3772C79.5713 72.1711 78.3354 75.1166 76.7309 77.8672C76.1454 78.8851 75.1914 79.6432 74.0639 79.968C68.7516 80.856 63.4393 81.6574 58.2137 78.9068C57.0862 78.3003 55.5468 78.6469 54.2241 78.2354C53.3568 77.8022 52.5762 77.2391 51.904 76.546C52.5328 75.8746 53.0532 74.965 53.8121 74.5968C55.3516 73.9904 56.9344 73.4706 58.539 73.0807C55.872 66.7349 53.3351 60.519 50.7115 54.3897C50.0827 52.917 49.3888 51.4875 48.6299 50.0798C47.6325 48.3038 47.871 46.073 49.2371 44.5569C53.2267 54.0649 57.6934 63.3562 59.2112 73.7521L53.14 75.5498L53.2484 76.2861C54.918 77.4557 57.0646 77.7156 58.951 76.9575C60.1218 76.4161 61.3361 75.9829 62.572 75.6364C63.7212 75.3548 64.1765 74.8784 64.0464 73.6005C63.526 67.4496 62.0299 61.4286 59.6014 55.7759C57.8234 51.4659 56.5225 46.9827 55.7202 42.3911C61.2276 52.8087 65.5209 63.6161 65.1739 75.6797C63.3309 76.2428 61.5312 76.7626 59.7315 77.3474C59.5364 77.3474 59.428 77.6723 58.8425 78.322C60.6205 78.8418 62.4419 79.2317 64.2849 79.4266C67.1037 79.4049 69.9008 79.2317 72.6979 78.9284C74.3458 78.7768 75.7335 77.6723 76.2322 76.1129C77.5548 72.8208 79.3111 69.6587 80.5471 66.3017C81.1542 64.4175 81.4794 62.4682 81.5228 60.4973C81.7613 57.162 81.8047 53.8699 81.9131 50.4696C81.9131 49.3217 82.4335 48.6287 83.7128 48.6503C87.3555 48.607 90.9765 48.737 94.5975 49.0835L89.0901 50.9461C90.9982 51.8991 99.3677 51.7908 105.027 50.7728C110.361 49.9498 115.435 47.914 119.858 44.8385L120.248 45.4233L116.801 48.1522C118.34 50.318 119.858 52.5488 121.506 54.7146C125.17 59.8043 127.447 65.7386 128.141 71.9545C128.683 75.5064 128.466 75.7014 125.17 77.0442C124.628 77.2608 124.108 77.564 123.566 77.8239L123.653 78.6685ZM114.763 49.4733C111.727 50.4913 108.952 51.5092 106.111 52.2889C102.555 53.2635 102.36 53.1985 102.729 56.9887C103.162 62.1434 102.425 67.3413 100.582 72.1711C100.127 73.6438 98.9558 74.7701 97.4597 75.1599C96.1587 75.6147 94.9011 76.1129 93.6652 76.676L93.7953 77.3691C94.6192 77.6723 95.4648 77.8888 96.3322 77.9971C98.7606 78.0838 101.189 77.9971 103.618 78.0838C107.152 78.4086 110.513 76.3944 111.857 73.1024C113.722 68.8141 115.109 64.3308 116.606 59.8909C117.907 56.1441 116.671 52.7654 114.828 49.43L114.763 49.4733Z" fill="#2F97F4"/>
<path d="M6.86879 25.801L4.28853 26.4291V26.9272L11.2704 28.0101C8.60342 29.8077 3.39954 27.8585 1.8167 25.1079C0.0603862 22.0324 1.0578 20.538 3.37786 18.4805C9.36232 13.2825 15.9322 8.84263 22.9791 5.20406C27.3591 2.82166 32.0642 3.88291 36.661 4.27276C41.8866 4.68427 47.1121 5.33401 52.3594 5.5939C54.029 5.5939 55.6769 5.29069 57.238 4.70592C61.9649 3.10322 67.0603 2.97327 71.8522 4.33773C76.2105 5.7022 80.894 5.55059 85.1438 3.88291C96.0286 -0.405406 107.976 -1.16344 119.316 1.71709C134.928 5.7022 143.514 15.3184 145.552 31.3238C146.159 36.0453 146.203 40.8317 146.485 45.5965C146.485 46.0297 146.441 46.4845 146.398 46.9177L145.769 47.2209C145.14 46.138 144.099 45.0984 143.969 43.9505C142.777 33.6196 138.939 23.7651 132.803 15.3617C132.694 15.2101 132.651 14.9935 132.347 14.2572C136.532 17.9391 139.763 22.5522 141.801 27.7285C141.237 22.8338 139.308 18.199 136.229 14.3438C130.916 7.71641 123.631 4.74924 115.608 3.16819C104.767 1.06735 93.5784 1.93368 83.1924 5.63722C82.9105 5.74551 82.6286 5.87546 82.3684 6.02707C85.0354 7.5648 88.1577 7.86802 95.8985 7.73807C93.7736 8.12791 91.6704 8.60439 89.5238 8.92927C82.7587 9.88222 76.3189 8.06293 70.0526 5.91878C64.827 4.09949 59.1027 4.40271 54.1157 6.74179C52.793 7.23993 51.362 7.41319 49.9526 7.28324C43.3176 6.74179 36.7694 6.02707 30.1562 5.50727C28.8552 5.42064 27.5542 5.59391 26.3183 6.00541C18.1656 8.38781 10.75 12.7628 4.74388 18.7404C3.63805 20.1915 2.87915 21.8808 2.53223 23.7001C2.27203 24.6098 2.79243 25.6277 4.24518 25.4544C5.13417 25.3895 6.02317 25.3895 6.91216 25.4544V25.801H6.86879Z" fill="#2F97F4"/>
<path d="M49.5623 37.2148C47.8277 36.2402 46.1798 35.1573 44.5102 34.0744L42.884 33.2947C41.8215 32.7966 40.6073 32.6233 39.5231 32.2118L38.3089 31.8219C37.8969 33.338 38.2222 33.5979 39.7833 34.2693C40.694 34.6375 41.583 35.049 42.4503 35.5038C44.5536 36.7167 46.2448 38.1678 46.2015 40.9617C46.3532 42.6727 46.7002 44.362 47.2205 46.008H47.9361C48.3697 44.6652 48.7167 43.3008 48.9769 41.9146C49.107 40.94 48.695 40.052 50.0176 39.3806C50.7765 39.1424 50.8633 37.9512 49.5623 37.2148Z" fill="#2F97F4"/>
<path d="M29.3322 31.0422L20.0303 28.9631C22.0034 27.5769 28.0963 28.8548 29.3322 31.0422Z" fill="#2F97F4"/>
<path d="M29.7008 13.9973C31.8691 9.75227 31.5872 10.9218 28.8769 8.01962L29.3322 7.62978C30.0477 8.43113 31.3053 9.18916 31.3704 10.0555C31.2837 11.5282 31.0018 12.9577 30.5031 14.3438L29.7008 13.9973Z" fill="#2F97F4"/>
<path d="M144.36 44.5569C145.075 46.3979 145.292 48.3904 145.01 50.3397C144.923 50.6862 145.119 51.0544 145.465 51.1627C145.812 51.2493 146.181 51.0544 146.289 50.7079C146.615 48.5204 146.398 46.2896 145.617 44.2104C145.531 43.8639 145.162 43.6473 144.815 43.7556C144.468 43.8422 144.251 44.1887 144.36 44.5569Z" fill="#2F97F4"/>
<path d="M143.948 44.492C144.186 46.4412 144.273 48.4337 144.23 50.4046C144.23 50.7728 144.533 51.076 144.902 51.076C145.27 51.076 145.574 50.7728 145.574 50.4046C145.617 48.4337 145.509 46.4629 145.292 44.5136C145.292 44.1454 144.988 43.8639 144.62 43.8422C144.251 43.8422 143.948 44.1454 143.948 44.492Z" fill="#2F97F4"/>
<path d="M145.487 44.0805V43.5607C145.509 43.474 145.509 43.3874 145.487 43.3008C145.465 43.2141 145.4 43.1492 145.335 43.0842C145.27 43.0192 145.205 42.9759 145.119 42.9326C145.032 42.9109 144.945 42.9109 144.858 42.9326H144.685C144.576 42.9542 144.468 43.0192 144.403 43.1058L144.295 43.2358C144.23 43.3441 144.208 43.4524 144.208 43.5607V44.0805C144.186 44.1671 144.186 44.2537 144.208 44.3404C144.23 44.427 144.295 44.492 144.36 44.5569C144.425 44.6219 144.49 44.6652 144.576 44.6869C144.663 44.7085 144.75 44.7085 144.837 44.6869H145.01C145.119 44.6436 145.227 44.6003 145.292 44.5136L145.4 44.3837C145.444 44.3187 145.487 44.1887 145.487 44.0805Z" fill="#2F97F4"/>
<path d="M49.4322 47.7407C49.0202 46.4412 48.695 45.0984 48.4998 43.7556C48.3914 43.4091 48.0445 43.2141 47.6976 43.3008C47.3506 43.3874 47.1338 43.7556 47.2422 44.1021C47.4374 45.4449 47.7626 46.7877 48.1746 48.0872C48.2613 48.4554 48.6516 48.672 49.0202 48.5854C49.3888 48.4987 49.6057 48.1089 49.5189 47.7407H49.4322Z" fill="#2F97F4"/>
<path d="M47.2422 43.6473C47.1338 44.1238 47.1772 44.6219 47.3506 45.0767C47.5458 45.5749 47.8493 45.9864 48.283 46.3112C48.4998 46.4412 48.76 46.4412 48.9552 46.3112C49.1503 46.1813 49.2804 45.9647 49.2804 45.7481C49.3455 44.6869 49.237 43.6256 48.9552 42.6077C48.8468 42.2612 48.4998 42.0663 48.1529 42.1529C47.806 42.2395 47.5892 42.6077 47.6976 42.9542C47.7626 43.1925 47.806 43.4307 47.8493 43.669C47.8493 43.7989 47.8493 43.9072 47.8493 44.0371V44.1454C47.8493 44.1454 47.8493 44.2754 47.8493 44.3187C47.8927 44.7952 47.8927 45.2933 47.8493 45.7698L48.8468 45.2067L48.8901 45.0767L48.8034 44.9901C48.8034 44.9901 48.6733 44.7952 48.6733 44.7735C48.6733 44.7519 48.6733 44.7085 48.6733 44.6869C48.6733 44.6003 48.6733 44.5353 48.6733 44.4487C48.6733 44.4053 48.6733 44.362 48.6733 44.3187C48.6733 44.427 48.6733 44.1888 48.6733 44.3187C48.6733 44.2104 48.6733 44.1671 48.6733 44.0805C48.6733 43.9938 48.6733 43.9722 48.6733 43.9505V44.0371C48.6733 44.0371 48.6733 44.0371 48.6733 43.9505C48.76 43.604 48.5649 43.2358 48.218 43.1492C47.871 43.0625 47.5024 43.2574 47.4157 43.604L47.2422 43.6473Z" fill="#2F97F4"/>
<path d="M47.7409 44.5786C47.6108 45.2283 47.5458 45.8997 47.5891 46.5928C47.5891 46.7661 47.6542 46.9393 47.7843 47.0693C47.9144 47.1992 48.0879 47.2642 48.2613 47.2642C48.6299 47.2642 48.9118 46.961 48.9335 46.5928C48.8901 46.1596 48.8901 45.7048 48.9335 45.2717V45.4666C48.9335 45.2717 48.9335 45.0767 49.0419 44.9035C49.1069 44.7519 49.1069 44.5569 49.0419 44.4053C48.9552 44.2537 48.8034 44.1454 48.6516 44.1021C48.3047 44.0155 47.9361 44.2104 47.8277 44.5569L47.7409 44.5786Z" fill="#2F97F4"/>
<path d="M47.4807 45.9214C47.3506 47.0476 47.6542 48.1522 48.3264 49.0618C48.4131 49.2134 48.5649 49.3217 48.7167 49.365C48.8901 49.4084 49.0636 49.3867 49.2154 49.2784C49.5189 49.0835 49.6273 48.6936 49.4539 48.3688C49.3021 48.1738 49.172 47.9573 49.0636 47.7407C49.0636 47.6974 49.0636 47.654 49.0636 47.6107C49.0202 47.5024 48.9768 47.3725 48.9552 47.2642L48.8684 46.896C48.8684 46.896 48.8684 46.7661 48.8684 46.7011C48.8468 46.4629 48.8468 46.2246 48.8684 45.9647C48.8684 45.7915 48.8034 45.6182 48.6733 45.5099C48.5432 45.3799 48.3914 45.315 48.218 45.315C47.8493 45.315 47.5675 45.6182 47.5458 45.9864L47.4807 45.9214Z" fill="#2F97F4"/>
<path d="M48.8034 46.831C48.7383 45.6615 48.5649 44.5136 48.3264 43.3874C48.218 43.0192 47.8493 42.8026 47.4807 42.9109C47.1121 43.0192 46.8953 43.3874 47.0037 43.7556C47.1338 44.297 47.2205 44.8168 47.2856 45.3583V45.4449C47.2856 45.5099 47.2856 45.5965 47.2856 45.6615V46.0514C47.2856 46.3329 47.2856 46.5928 47.2856 46.8744C47.2856 47.2425 47.5891 47.5241 47.9578 47.5458C48.3264 47.5458 48.6299 47.2425 48.6299 46.8744L48.8034 46.831Z" fill="#2F97F4"/>
<path d="M7.64937 28.8115C10.4681 28.8115 13.2869 28.8981 16.1057 29.0064C18.9244 29.1796 21.7215 29.5262 24.4969 30.046C27.0989 30.4142 29.6791 30.9773 32.1943 31.7353C34.5794 32.6016 37.0513 33.2081 39.5448 33.5329C40.3905 33.5979 40.3905 32.2768 39.5448 32.2118C36.9646 31.8219 34.4277 31.1722 31.9775 30.2842C29.4406 29.5478 26.8387 29.028 24.2151 28.6815C21.5264 28.1834 18.8377 27.8585 16.1057 27.6852C13.2869 27.5769 10.4681 27.5553 7.64937 27.4903C7.28076 27.4903 6.9772 27.7935 6.9772 28.1617C6.9772 28.5299 7.28076 28.8331 7.64937 28.8331V28.8115Z" fill="#2F97F4"/>
<path d="M29.3322 31.1722C30.7849 31.6487 32.2594 32.0385 33.7772 32.3417C34.5144 32.4717 35.2299 32.6016 35.9672 32.6883C36.726 32.7532 37.4633 32.9048 38.1788 33.1431L37.9403 32.2334L37.7451 32.58C37.5934 32.9048 37.7451 33.3164 38.0704 33.468C38.3523 33.5979 38.6992 33.5113 38.8726 33.2514L39.0678 32.9048C39.2413 32.58 39.1328 32.1901 38.8293 31.9952C37.3549 31.5187 35.8154 31.2155 34.2542 31.0856C32.693 30.7823 31.1536 30.3925 29.6574 29.8944C28.8335 29.6345 28.4866 30.9123 29.2888 31.2155V31.1722H29.3322Z" fill="#2F97F4"/>
<path d="M47.1772 46.0514L47.9144 47.3725C48.0011 47.5241 48.1529 47.6324 48.3047 47.6757C48.4565 47.7407 48.6516 47.7407 48.8034 47.6757C48.9552 47.5891 49.0636 47.4375 49.107 47.2859C49.1503 47.1126 49.1286 46.9177 49.0419 46.7661L48.3264 45.4449C48.1963 45.0984 47.7843 44.9251 47.4374 45.0767C47.4157 45.0767 47.4157 45.0767 47.394 45.0984C47.0688 45.2933 46.982 45.7048 47.1555 46.008V46.0514H47.1772Z" fill="#2F97F4"/>
<path d="M2.33707 23.137C2.66231 23.137 3.00924 23.0937 3.3128 23.0071C3.70309 22.8771 4.02834 22.6172 4.24517 22.2923C4.63546 21.6859 4.85228 21.0145 4.91733 20.2998C5.00406 19.91 4.91734 19.5201 4.67883 19.1952C4.44031 18.957 4.09339 18.9137 3.81151 19.0653C3.59468 19.1952 3.44289 19.4335 3.42121 19.6934V19.8666C3.35616 19.9966 3.29111 20.1265 3.20438 20.2348V20.2998L2.92251 20.5814H2.85746L2.66231 20.7113H2.5539C2.40212 20.7763 2.22867 20.8196 2.07689 20.8413H1.20957C1.03611 20.8413 1.12284 20.8413 1.4264 21.0362L1.51312 21.361C1.51312 21.361 1.40471 21.6426 1.51312 21.5127L1.57817 21.3827L1.68658 21.2094C1.68658 21.2094 1.83837 20.9929 1.75164 21.1011L1.795 21.1878L2.1853 20.7979L2.38044 20.668L2.72737 20.4081L2.92251 20.3215H3.03092C3.16102 20.2781 3.3128 20.2348 3.46458 20.1915C3.52963 20.1699 3.59468 20.1699 3.65973 20.1915C3.573 20.1915 3.573 20.1915 3.65973 20.1915H3.83319L3.65973 18.8704C3.16102 18.9786 2.66232 19.1303 2.1853 19.3035C1.64323 19.5201 1.18788 19.8883 0.862639 20.3648C0.472348 20.7546 0.21216 21.2311 0.0820627 21.7726C0.0603799 22.379 0.428985 22.9204 1.01442 23.0937C1.38303 23.202 1.75164 22.9854 1.86006 22.6172C1.96847 22.249 1.75164 21.8808 1.38303 21.7726C1.49145 21.7726 1.53481 21.8808 1.44808 21.7726C1.44808 21.8592 1.36135 21.6643 1.44808 21.7726C1.44808 21.9242 1.44808 21.6859 1.44808 21.7726C1.44808 21.7509 1.44808 21.7076 1.44808 21.6859C1.44808 21.6859 1.51313 21.5343 1.44808 21.5993V21.556C1.44808 21.556 1.44808 21.556 1.44808 21.4477L1.62154 21.1878L1.795 20.9495L1.88174 20.8196L2.07689 20.6463L2.20698 20.5597L2.33707 20.4947H2.42381C2.33707 20.4947 2.51054 20.4947 2.51054 20.4947H2.61896C3.00925 20.3648 3.44289 20.2781 3.85487 20.1698C4.18011 20.0832 4.37526 19.7583 4.31021 19.4335C4.26685 19.1086 3.98497 18.8704 3.65973 18.8704C2.31539 18.957 1.10116 19.6284 0.342259 20.733C0.0170168 21.0578 -0.0914 21.5343 0.0820627 21.9675C0.298891 22.379 0.862645 22.4223 1.27462 22.444C1.99015 22.4873 2.70568 22.2707 3.29112 21.8375C4.00665 21.4044 4.54873 20.6896 4.74387 19.8666L4.44031 20.2565L4.0717 20.2781L3.74645 20.1915C3.65972 20.1265 3.573 20.0399 3.55132 19.9316C3.55132 19.8017 3.55132 19.8233 3.55132 19.9316C3.55132 20.0182 3.55132 20.1049 3.55132 20.1915C3.55132 20.1915 3.55132 20.2781 3.55132 20.3215V20.538C3.55132 20.6896 3.46458 20.8629 3.42121 21.0145C3.37785 21.1661 3.42121 21.1445 3.42121 21.1878C3.42121 21.2744 3.42121 21.2311 3.42121 21.1878C3.42121 21.2311 3.42121 21.2744 3.42121 21.3177C3.42121 21.4477 3.29112 21.5343 3.22607 21.6643C3.3128 21.5343 3.22607 21.6643 3.13934 21.7292H3.05261C3.05261 21.7292 2.79241 21.7292 2.96588 21.7292H2.53222C2.16361 21.7292 1.86006 22.0324 1.86006 22.4006C1.86006 22.7688 2.16361 23.0504 2.53222 23.072L2.33707 23.137Z" fill="#2F97F4"/>
<path d="M13.0701 14.5604L14.8698 13.889C15.0432 13.8457 15.1733 13.7374 15.26 13.5858C15.3468 13.4342 15.3685 13.2392 15.3251 13.066C15.2817 12.8927 15.1733 12.7628 15.0215 12.6761C14.8481 12.6111 14.6746 12.6111 14.5011 12.6761L12.7015 13.2392C12.528 13.2826 12.3979 13.3908 12.3112 13.5424C12.2244 13.6941 12.1811 13.8673 12.2244 14.0406C12.2678 14.2138 12.3762 14.3438 12.528 14.4304C12.6798 14.5171 12.8749 14.5387 13.0484 14.4954V14.5604H13.0701Z" fill="#2F97F4"/>
</svg>
