<svg viewBox="0 0 14 19" xmlns="http://www.w3.org/2000/svg">
<path d="M7 0C3.14013 0 0 3.04816 0 6.79469V12.2055C0 15.952 3.14013 19 7 19C10.8596 19 14 15.9613 14 12.2263V6.79469C14 3.04816 10.8596 0 7 0ZM12.6834 12.2263C12.6834 15.2675 10.134 17.7417 7 17.7417C3.86624 17.7417 1.31664 15.2581 1.31664 12.2053V6.79469C1.31664 3.74189 3.86624 1.25827 7 1.25827C10.134 1.25827 12.6834 3.74189 12.6834 6.79469V12.2263Z"/>
<path d="M7 5.20088C6.6364 5.20088 6.34168 5.48254 6.34168 5.83003V8.03203C6.34168 8.37952 6.6364 8.66118 7 8.66118C7.3636 8.66118 7.65832 8.37952 7.65832 8.03203V5.83003C7.65832 5.48254 7.3636 5.20088 7 5.20088Z"/>
</svg>
