<svg width="49" height="12" viewBox="0 0 49 12" fill="none" xmlns="http://www.w3.org/2000/svg">
<path d="M13.577 6.63471V1.354H15.4872V6.56861C15.4872 7.79388 16.2042 8.63615 17.5707 8.63615C18.9372 8.63615 19.6396 7.79304 19.6396 6.56861V1.354H21.5634V6.62199C21.5634 8.80816 20.2627 10.2961 17.5707 10.2961C14.8769 10.2961 13.577 8.79461 13.577 6.63471Z" fill="white"/>
<path d="M26.1025 8.89979L27.1234 7.47793C27.7473 8.12361 28.7152 8.66253 29.9357 8.66253C30.971 8.66253 31.4746 8.18886 31.4746 7.68807C31.4746 6.13403 26.3808 7.20084 26.3808 3.89532C26.3808 2.43364 27.6542 1.22192 29.7368 1.22192C31.1434 1.22192 32.3102 1.64306 33.1859 2.4472L32.1378 3.81652C31.4226 3.15812 30.4666 2.85562 29.5644 2.85562C28.7553 2.85562 28.3046 3.21066 28.3046 3.73771C28.3046 5.1333 33.3848 4.19867 33.3848 7.47793C33.3848 9.08451 32.2308 10.2962 29.8435 10.2962C28.1459 10.2962 26.9253 9.72934 26.1025 8.89979Z" fill="white"/>
<path d="M37.8043 5.71702C37.8043 3.04786 39.77 1.13623 42.4586 1.13623C45.16 1.13623 47.1257 3.04786 47.1257 5.71702C47.1257 8.38533 45.16 10.297 42.4586 10.297C39.77 10.297 37.8043 8.38533 37.8043 5.71702ZM45.1728 5.71702C45.1728 4.0579 44.1033 2.80975 42.4586 2.80975C40.8138 2.80975 39.7572 4.0579 39.7572 5.71702C39.7572 7.36343 40.8138 8.62429 42.4586 8.62429C44.1033 8.62429 45.1728 7.36343 45.1728 5.71702Z" fill="white"/>
<path d="M7.0476 6.79232C8.0027 6.56862 8.9851 5.73906 8.9851 4.18501C8.9851 2.55216 7.8576 1.354 6.01313 1.354H1.87354V2.99956H3.75726H3.89724H5.73488C6.4911 2.99956 7.06126 3.44697 7.06126 4.18501C7.06126 4.92221 6.49025 5.37046 5.73488 5.37046H3.89724H3.75726H1.87439V10.1377H3.75812V7.01686H5.13827L6.87519 10.1385H9.03802L7.0476 6.79232Z" fill="white"/>
</svg>
