<svg width="92" height="27" viewBox="0 0 92 27" fill="none" xmlns="http://www.w3.org/2000/svg">
<path d="M44.2307 3.08088H40.4896L42.6726 0.866422L41.8181 0L38.1761 3.69363L41.8229 7.39216L42.6775 6.52574L40.4896 4.30637H44.2307V3.08088Z" fill="#A4ABAF"/>
<path d="M56.3568 0L55.5023 0.866422L57.6865 3.08088H53.914V4.30637H57.6865L55.4974 6.52574L56.352 7.39216L60 3.69363L56.3568 0Z" fill="#A4ABAF"/>
<path d="M58.4999 15.1581C58.4516 15.1091 58.3996 15.0662 58.344 15.0331C57.5608 14.5331 56.6675 14.2806 55.7742 14.2806C54.5377 14.2806 53.3023 14.7586 52.3595 15.7145L51.5049 16.5821V4.92157C51.5049 3.57353 50.4171 2.47059 49.0875 2.47059C47.7578 2.47059 46.67 3.57353 46.67 4.92157V10.3137C46.2288 9.76471 45.564 9.40686 44.8109 9.40686C44.2875 9.40686 43.8052 9.58088 43.41 9.86887L38.2039 12.924C37.4847 13.348 37 14.1336 37 15.0355V19.0662C37 23.4485 40.5029 27 44.8254 27C46.919 27 48.8155 26.1618 50.2188 24.8039L50.22 24.815L50.3542 24.6789C50.3566 24.6765 50.3591 24.674 50.3603 24.6728L58.4999 16.4191C58.8444 16.0711 58.8444 15.5061 58.4999 15.1581ZM49.3848 23.9167C48.1458 25.114 46.5261 25.7733 44.8254 25.7733C41.1762 25.7733 38.2087 22.7647 38.2087 19.065V15.0343C38.2087 14.6029 38.4348 14.212 38.8143 13.9877L44.1135 10.864C44.2585 10.7586 44.4978 10.6311 44.8097 10.6311C45.2932 10.6311 45.5954 10.9167 45.7332 11.087L46.8065 12.4203C46.9685 12.6213 47.2369 12.6973 47.4774 12.6103C47.7179 12.5233 47.8787 12.2929 47.8787 12.0331V4.92157C47.8787 4.24632 48.4214 3.69608 49.0875 3.69608C49.7535 3.69608 50.2962 4.24632 50.2962 4.92157V17.1728C50.2962 17.6936 50.6189 18.1311 51.0722 18.3064C51.2668 18.3811 51.4868 18.3333 51.6343 18.1838L53.2141 16.5821C53.8983 15.8885 54.8072 15.5074 55.7742 15.5074C56.3194 15.5074 56.8524 15.6299 57.3383 15.8652L49.3848 23.9167Z" fill="#A4ABAF"/>
<path d="M91.3536 14.3536C91.5488 14.1583 91.5488 13.8417 91.3536 13.6464L88.1716 10.4645C87.9763 10.2692 87.6597 10.2692 87.4645 10.4645C87.2692 10.6597 87.2692 10.9763 87.4645 11.1716L90.2929 14L87.4645 16.8284C87.2692 17.0237 87.2692 17.3403 87.4645 17.5355C87.6597 17.7308 87.9763 17.7308 88.1716 17.5355L91.3536 14.3536ZM75 14.5L91 14.5V13.5L75 13.5V14.5Z" fill="black"/>
<path d="M0.646446 14.3536C0.451185 14.1583 0.451185 13.8417 0.646446 13.6464L3.82843 10.4645C4.02369 10.2692 4.34027 10.2692 4.53553 10.4645C4.7308 10.6597 4.7308 10.9763 4.53553 11.1716L1.70711 14L4.53553 16.8284C4.7308 17.0237 4.7308 17.3403 4.53553 17.5355C4.34027 17.7308 4.02369 17.7308 3.82843 17.5355L0.646446 14.3536ZM17 14.5L1 14.5V13.5L17 13.5V14.5Z" fill="black"/>
</svg>
