<svg viewBox="0 0 52 6" fill="none" xmlns="http://www.w3.org/2000/svg">
<path d="M47.1241 2.219C46.0876 3.175 45.1932 4 43.3299 4C41.4665 4 40.5713 3.175 39.5356 2.219C38.4081 1.179 37.1306 0 34.6589 0C32.1889 0 30.9123 1.179 29.7847 2.219C28.7499 3.175 27.8564 4 25.9939 4C24.1315 4 23.2371 3.175 22.2014 2.219C21.0747 1.179 19.7973 0 17.3264 0C14.8555 0 13.5789 1.179 12.4523 2.22C11.4175 3.175 10.5239 4 8.66233 4C6.80073 4 5.9072 3.175 4.8724 2.219C3.74573 1.179 2.47 0 0 0V2C1.86073 2 2.75427 2.825 3.78907 3.78C4.91573 4.821 6.19233 6 8.66233 6C11.1323 6 12.4089 4.821 13.5365 3.781C14.5704 2.825 15.4639 2 17.3264 2C19.1889 2 20.0833 2.825 21.1189 3.781C22.2456 4.821 23.5231 6 25.9939 6C28.4648 6 29.7414 4.821 30.8681 3.78C31.9029 2.825 32.7964 2 34.6589 2C36.5222 2 37.4175 2.825 38.4531 3.781C39.5798 4.821 40.8581 6 43.3299 6C45.8016 6 47.0791 4.821 48.2066 3.781C49.2423 2.825 50.1367 2 52 2V0C49.5283 0 48.2508 1.179 47.1241 2.219Z" fill="#D4D7D9"/>
</svg>
