<?xml version="1.0" encoding="utf-8"?><svg xmlns="http://www.w3.org/2000/svg" xmlns:xlink="http://www.w3.org/1999/xlink">
    <symbol viewBox="0 0 32 32" id="arrow" xmlns="http://www.w3.org/2000/svg">
        <path d="M8 16h16m0 0-4.083-4M24 16l-4.083 4" />
    </symbol>
    <symbol viewBox="0 0 32 32" id="arrows" xmlns="http://www.w3.org/2000/svg">
        <path d="M9.333 22.666v-16m0 0-4 2.75m4-2.75 4 2.75M22.667 9.334v16m0 0-4-2.75m4 2.75 4-2.75" />
    </symbol>
    <symbol viewBox="0 0 24 24" id="bucket" xmlns="http://www.w3.org/2000/svg">
        <path d="M19 7.111h-3.889V5.556A1.556 1.556 0 0 0 13.556 4h-3.112A1.556 1.556 0 0 0 8.89 5.556V7.11H5v1.556h1.486l1.053 11.666h8.922l1.053-11.666H19V7.11Zm-8.556-1.555h3.112V7.11h-3.112V5.556Zm4.595 13.222H8.961L8.047 8.667h7.906l-.914 10.11Z" />
    </symbol>
    <symbol viewBox="0 0 24 24" id="check" xmlns="http://www.w3.org/2000/svg">
        <path d="M10.132 17.925 4 11.792l1.057-1.056 5.075 5.076L18.944 7 20 8.057l-9.868 9.868Z" />
    </symbol>
    <symbol viewBox="0 0 32 32" id="cross" xmlns="http://www.w3.org/2000/svg">
        <path d="m22.667 10.416-1.083-1.083L16 14.917l-5.584-5.584-1.083 1.083L14.917 16l-5.584 5.584 1.083 1.083L16 17.083l5.584 5.584 1.083-1.083L17.083 16l5.584-5.584Z" />
    </symbol>
    <symbol viewBox="0 0 32 32" id="favorite" xmlns="http://www.w3.org/2000/svg">
        <path d="M8 25.333V6.667h16v18.666l-8-4-8 4Z" />
    </symbol>
    <symbol viewBox="0 0 24 24" id="info" xmlns="http://www.w3.org/2000/svg">
        <path d="M12 7.88a.733.733 0 1 0 0 1.467.733.733 0 0 0 0-1.467ZM12 4a8 8 0 1 0 0 16 8 8 0 0 0 0-16Zm0 14.8a6.8 6.8 0 1 1 6.8-6.8 6.808 6.808 0 0 1-6.8 6.8Zm-.6-2.8h1.2v-5.2h-1.2V16Z" />
    </symbol>
    <symbol viewBox="0 0 32 32" id="instagram" xmlns="http://www.w3.org/2000/svg">
        <path d="M15.995 20.665a4.667 4.667 0 0 1-4.667-4.668 4.667 4.667 0 1 1 9.333 0 4.667 4.667 0 0 1-4.666 4.668Z" />
        <path fill-rule="evenodd" clip-rule="evenodd" d="M15.994 2c-3.8 0-4.277.017-5.772.083-1.489.067-2.505.306-3.394.65-.922.356-1.7.84-2.478 1.617A6.943 6.943 0 0 0 2.733 6.83c-.344.889-.583 1.906-.65 3.4C2.017 11.72 2 12.197 2 15.997c0 3.801.017 4.279.083 5.774.067 1.489.306 2.506.65 3.4.356.923.84 1.7 1.617 2.479a6.941 6.941 0 0 0 2.478 1.617c.889.344 1.905.583 3.4.65 1.494.066 1.966.083 5.772.083s4.278-.017 5.772-.083c1.49-.067 2.506-.306 3.4-.65a6.82 6.82 0 0 0 2.478-1.617 6.943 6.943 0 0 0 1.617-2.479c.344-.889.583-1.906.65-3.4.066-1.495.083-1.968.083-5.774s-.017-4.278-.083-5.773c-.067-1.49-.306-2.506-.65-3.4a6.823 6.823 0 0 0-1.617-2.48 6.942 6.942 0 0 0-2.478-1.616c-.889-.345-1.905-.584-3.4-.65-1.5-.061-1.978-.078-5.778-.078Zm0 6.813a7.19 7.19 0 0 0 0 14.38 7.187 7.187 0 0 0 7.19-7.19 7.187 7.187 0 0 0-7.19-7.19Zm9.15-.29a1.678 1.678 0 1 1-3.355 0 1.678 1.678 0 0 1 3.356 0Z" />
    </symbol>
    <symbol viewBox="0 0 32 32" id="search" xmlns="http://www.w3.org/2000/svg">
        <path d="M25.333 25.333 20 20m2.666-5.334a8 8 0 1 1-16 0 8 8 0 0 1 16 0Z" />
    </symbol>
    <symbol viewBox="0 0 32 32" id="telegram" xmlns="http://www.w3.org/2000/svg">
        <path fill-rule="evenodd" clip-rule="evenodd" d="M2.716 15.058c8.269-3.603 13.782-5.978 16.541-7.125 7.877-3.277 9.514-3.846 10.58-3.864.235-.005.76.054 1.1.33.287.232.366.547.403.767a5 5 0 0 1 .048 1.117c-.427 4.485-2.274 15.369-3.214 20.392-.397 2.126-1.18 2.838-1.938 2.908-1.647.152-2.898-1.088-4.493-2.134-2.497-1.637-3.907-2.655-6.33-4.252-2.8-1.845-.985-2.86.61-4.517.418-.434 7.676-7.035 7.816-7.634.018-.075.034-.354-.132-.502-.166-.147-.41-.097-.587-.056-.25.056-4.238 2.692-11.964 7.907-1.132.778-2.157 1.156-3.076 1.137-1.013-.022-2.96-.573-4.409-1.044-1.776-.577-3.188-.883-3.065-1.863.064-.51.767-1.033 2.11-1.567Z" />
    </symbol>
    <symbol viewBox="0 0 32 32" id="youtube" xmlns="http://www.w3.org/2000/svg">
        <path fill-rule="evenodd" clip-rule="evenodd" d="M28.52 5.485a4.01 4.01 0 0 1 2.82 2.82c.686 2.505.66 7.724.66 7.724s0 5.192-.66 7.697a4.01 4.01 0 0 1-2.82 2.82c-2.504.659-12.52.659-12.52.659s-9.99 0-12.52-.685A4.01 4.01 0 0 1 .658 23.7C0 21.22 0 16.001 0 16.001s0-5.192.659-7.696c.369-1.371 1.476-2.478 2.82-2.847 2.505-.66 12.52-.66 12.52-.66s10.017 0 12.521.686Zm-7.38 10.517L12.81 20.8v-9.595l8.33 4.797Z" />
    </symbol>
</svg>