<svg width="67" height="63" viewBox="0 0 67 63" fill="none" xmlns="http://www.w3.org/2000/svg">
<path fill-rule="evenodd" clip-rule="evenodd" d="M19.8621 54.0002C8.89255 54.0002 0 45.1077 0 34.1382V25.8623C0 19.5903 2.90715 13.9972 7.44747 10.3572V30.3085C7.44747 32.357 8.54461 34.2485 10.3227 35.2655L30.0662 46.5589C31.8672 47.5891 34.0853 47.5614 35.86 46.4866L39.3771 44.3565C24.8194 37.8376 14.4298 23.7406 13.2834 7.11563C14.4874 6.69315 15.7444 6.38336 17.0418 6.19894C17.9085 22.6011 28.6232 36.4246 43.4308 41.9013L52.4595 36.433C37.3278 34.0838 25.6073 21.487 24.6925 6.00024H28.5073C29.4933 20.7154 41.5356 32.4477 56.4785 32.9991C56.8824 32.2079 57.1026 31.3209 57.1026 30.4032V25.4197C46.1151 25.1817 37.1599 16.7366 36.1825 6.00024H40.0092C40.9691 14.6178 48.205 21.3777 57.1026 21.6115V9.16303C62.5805 12.6992 66.2069 18.8573 66.2069 25.8623V34.1382C66.2069 45.1077 57.3143 54.0002 46.3448 54.0002H19.8621Z" fill="#6C885E"/>
<path d="M31.5917 61.2543C32.3892 62.1752 33.8178 62.1752 34.6154 61.2543L40.6299 54.3093C41.7516 53.014 40.8315 51 39.118 51H27.089C25.3755 51 24.4554 53.014 25.5772 54.3093L31.5917 61.2543Z" fill="#6C885E"/>
</svg>
