<svg width="201" height="54" viewBox="0 0 201 54" fill="none" xmlns="http://www.w3.org/2000/svg">
<path fill-rule="evenodd" clip-rule="evenodd" d="M19.8494 0C8.88688 0 0 8.88689 0 19.8494V28.12C0 34.3884 2.90564 39.9781 7.44352 43.6158V23.6767C7.44352 21.6296 8.53996 19.7393 10.3169 18.7229L30.0478 7.43667C31.8477 6.40714 34.0644 6.43483 35.838 7.50901L39.3523 9.63746C24.8037 16.1521 14.4204 30.2401 13.2747 46.8546C14.4779 47.2769 15.7341 47.5865 17.0307 47.7708C17.8969 31.3789 28.605 17.5641 43.4035 12.0911L52.4274 17.5564C37.3056 19.9043 25.5928 32.4928 24.6785 47.9694H28.4908C29.4763 33.2641 41.5106 21.5396 56.4434 20.9881C56.8469 21.7788 57.067 22.6651 57.067 23.5821V28.5626C46.0869 28.8008 37.1378 37.2402 36.1609 47.9694H39.9852C40.9447 39.3577 48.1754 32.6024 57.067 32.3684V44.8081C62.5409 41.2741 66.1647 35.1202 66.1647 28.12V19.8494C66.1647 8.88688 57.2778 0 46.3153 0H19.8494Z" fill="#6C885E"/>
<path d="M81.4264 5.89454H86.1827V21H81.4264V5.89454ZM74.8708 3.80866H92.7384V8.03773H74.8708V3.80866ZM94.7642 21V3.80866H99.4632V18.4901L98.1452 18.215L107.887 3.80866H114.099V21H109.4V6.04353L110.729 6.31859L100.804 21H94.7642ZM142.417 3.80866V21H137.901V5.50487L138.921 5.60802L132.251 21H127.449L120.79 5.66532L121.81 5.55071V21H117.283V3.80866H124.63L130.784 18.5703H128.962L135.082 3.80866H142.417ZM156.292 10.3414C157.698 10.3414 158.875 10.5591 159.822 10.9946C160.769 11.4302 161.476 12.049 161.942 12.8513C162.408 13.6536 162.641 14.5972 162.641 15.6821C162.641 16.7518 162.385 17.6878 161.874 18.4901C161.369 19.2923 160.64 19.9112 159.684 20.3467C158.729 20.7822 157.599 21 156.292 21H145.106L146.436 12.072L145.106 3.80866H161.312V7.41884H148.063L149.863 5.21835L150.963 11.9917L149.782 19.7278L147.96 17.5388H155.673C156.132 17.5388 156.529 17.4624 156.865 17.3096C157.201 17.1491 157.457 16.9199 157.633 16.6219C157.816 16.324 157.908 15.9725 157.908 15.5675C157.908 15.1549 157.816 14.8035 157.633 14.5131C157.457 14.2151 157.197 13.9859 156.854 13.8255C156.517 13.665 156.12 13.5848 155.662 13.5848H148.693V10.3414H156.292ZM179.61 10.6737V14.1349H167.038V10.6737H179.61ZM170.27 12.4043L169.147 19.3152L167.221 17.1491H180.39V21H164.402L165.708 12.4043L164.402 3.80866H180.275V7.65952H167.221L169.147 5.49341L170.27 12.4043ZM192.766 3.80866C194.195 3.80866 195.433 4.05315 196.48 4.54215C197.526 5.03115 198.329 5.72263 198.886 6.61657C199.444 7.51053 199.723 8.54965 199.723 9.73394C199.723 10.9182 199.444 11.9574 198.886 12.8513C198.329 13.7453 197.526 14.4367 196.48 14.9257C195.433 15.4147 194.195 15.6592 192.766 15.6592H185.317V11.8542H192.491C192.995 11.8542 193.431 11.7702 193.798 11.6021C194.164 11.434 194.443 11.1933 194.634 10.88C194.825 10.5591 194.921 10.1771 194.921 9.73394C194.921 9.29842 194.825 8.92404 194.634 8.61077C194.443 8.28987 194.164 8.04537 193.798 7.87727C193.431 7.70154 192.995 7.61367 192.491 7.61367H185.741L187.872 5.41318V21H183.116V3.80866H192.766ZM74.8708 47.4612V39.8053H78.5727L80.0855 39.8512H92.0278L93.2197 39.8053H98.2052V47.4612H93.7584V44H79.3176V47.4612H74.8708ZM78.4466 26.8087H95.2368V42.682H90.4806V28.8029L92.6237 30.9575H80.9795L82.9278 29.3759C83.0348 30.033 83.1036 30.6748 83.1341 31.3013C83.1723 31.9279 83.1914 32.5888 83.1914 33.2841C83.1914 35.0872 83.0348 36.6001 82.7215 37.8226C82.4083 39.0374 81.9384 39.9581 81.3118 40.5847C80.693 41.2035 79.9213 41.513 78.9967 41.513L77.0025 39.8741C77.6138 39.1559 78.0646 38.1779 78.3549 36.9401C78.6453 35.6947 78.7904 34.1513 78.7904 32.3099C78.7904 30.8276 78.6758 28.9939 78.4466 26.8087ZM109.491 44.3782C107.474 44.3782 105.69 44.0038 104.139 43.255C102.596 42.5063 101.4 41.4557 100.552 40.1033C99.7037 38.7433 99.2797 37.1769 99.2797 35.4043C99.2797 33.6317 99.7037 32.0692 100.552 30.7168C101.4 29.3568 102.596 28.3024 104.139 27.5536C105.69 26.8048 107.474 26.4304 109.491 26.4304C111.508 26.4304 113.289 26.8048 114.832 27.5536C116.375 28.3024 117.571 29.3568 118.419 30.7168C119.275 32.0692 119.703 33.6317 119.703 35.4043C119.703 37.1769 119.275 38.7433 118.419 40.1033C117.571 41.4557 116.375 42.5063 114.832 43.255C113.289 44.0038 111.508 44.3782 109.491 44.3782ZM109.491 40.1262C110.592 40.1262 111.547 39.939 112.357 39.5646C113.174 39.1826 113.801 38.6363 114.236 37.9257C114.679 37.2151 114.901 36.3747 114.901 35.4043C114.901 34.434 114.679 33.5935 114.236 32.8829C113.801 32.1724 113.174 31.6299 112.357 31.2555C111.547 30.8735 110.592 30.6824 109.491 30.6824C108.383 30.6824 107.421 30.8735 106.603 31.2555C105.793 31.6299 105.171 32.1724 104.735 32.8829C104.3 33.5935 104.082 34.434 104.082 35.4043C104.082 36.3747 104.3 37.2151 104.735 37.9257C105.171 38.6363 105.793 39.1826 106.603 39.5646C107.421 39.939 108.383 40.1262 109.491 40.1262ZM147.274 26.8087V44H142.759V28.5049L143.779 28.608L137.108 44H132.306L125.648 28.6653L126.668 28.5507V44H122.141V26.8087H129.487L135.642 41.5703H133.819L139.939 26.8087H147.274Z" fill="#6C885E"/>
</svg>
