<svg width="91" height="106" viewBox="0 0 91 106" fill="none" xmlns="http://www.w3.org/2000/svg">
<path d="M56.1928 4.82944C56.0406 14.5042 55.931 22.5229 55.9088 25.6209L55.8859 28.7973L57.4399 29.7018C58.2946 30.1993 59.0299 30.6064 59.074 30.6064C59.118 30.6064 59.1541 30.6479 59.1541 30.6986C59.1541 30.7493 59.1977 30.7908 59.2511 30.7908C59.3045 30.7908 59.9081 31.1228 60.5923 31.5286C61.2766 31.9344 61.8521 32.2664 61.8712 32.2664C61.8903 32.2664 62.5341 32.64 63.3019 33.0965C64.0697 33.553 64.7084 33.9265 64.7212 33.9265C64.734 33.9265 65.5629 34.4038 66.563 34.9871C67.5633 35.5704 68.4181 36.0477 68.463 36.0477C68.5077 36.0477 68.5444 36.0892 68.5444 36.1399C68.5444 36.1906 68.5838 36.2321 68.632 36.2321C68.6802 36.2321 69.2855 36.5641 69.977 36.9699C70.6686 37.3757 71.2477 37.7077 71.2639 37.7077C71.2802 37.7077 71.9206 38.0812 72.6871 38.5378C73.4536 38.9943 74.0951 39.3678 74.1126 39.3678C74.1302 39.3678 75.4979 40.1563 77.1521 41.1201C78.8062 42.0838 80.1734 42.8723 80.1903 42.8723C80.2071 42.8723 80.8354 43.2381 81.5864 43.6852C82.3374 44.1323 83.0141 44.527 83.09 44.5622C83.166 44.5974 83.3731 44.7133 83.5503 44.8196C83.8308 44.988 84.9912 45.6595 87.0248 46.8301L87.5993 47.1608L87.6002 51.8039L87.601 56.447L87.1638 56.1948C86.9233 56.0562 86.6643 55.8925 86.5884 55.8312C86.5124 55.7699 86.3881 55.6936 86.3122 55.6617C86.2362 55.6298 85.9855 55.4886 85.755 55.3479C85.5245 55.2073 84.682 54.6979 83.8827 54.216C83.0834 53.7342 82.2777 53.2458 82.0923 53.1308C81.9069 53.0158 81.6723 52.8804 81.571 52.8301C81.4698 52.7797 81.2212 52.6334 81.0187 52.505C80.8161 52.3765 80.578 52.2476 80.4893 52.2185C80.4007 52.1894 80.3282 52.1289 80.3282 52.0841C80.3282 52.0393 80.2868 52.0026 80.2361 52.0026C80.1751 52.0026 80.1441 58.0895 80.1441 70.0788V88.1549H62.6064H45.0687V84.2815V80.408H58.5097H71.9506V63.7124C71.9506 47.8963 71.9422 47.0135 71.7895 46.956C71.701 46.9227 71.2645 46.675 70.8197 46.4056C70.3748 46.1362 69.9936 45.9158 69.9725 45.9158C69.9514 45.9158 69.3683 45.5838 68.6767 45.178C67.9852 44.7722 67.4045 44.4402 67.3861 44.4402C67.3678 44.4402 67.0375 44.2534 66.6521 44.0252C66.2668 43.7969 65.9357 43.6101 65.9166 43.6101C65.8974 43.6101 65.502 43.3819 65.0378 43.1029C64.5737 42.8239 64.1834 42.5957 64.1706 42.5957C64.1577 42.5957 63.5781 42.2637 62.8826 41.8579C62.1871 41.4521 61.6071 41.1201 61.5937 41.1201C61.5804 41.1201 61.0004 40.7881 60.3049 40.3823C59.6094 39.9765 59.0259 39.6445 59.0084 39.6445C58.9909 39.6445 58.6694 39.4577 58.2942 39.2294C57.9188 39.0012 57.5652 38.8144 57.5083 38.8144C57.4515 38.8144 57.4049 38.7729 57.4049 38.7222C57.4049 38.6715 57.3647 38.63 57.3156 38.63C57.2664 38.63 56.9108 38.4432 56.5254 38.215C56.14 37.9867 55.7867 37.8 55.7402 37.8C55.6907 37.8 55.6558 39.1033 55.6558 40.9568C55.6558 44.6787 55.4804 47.9967 55.1827 49.9092C55.1289 50.2541 55.0701 50.7107 55.0518 50.9237C55.0334 51.1367 54.9754 51.5495 54.9229 51.8412C54.8702 52.1329 54.7839 52.6309 54.7309 52.9479C54.5887 53.7997 54.4593 54.4656 54.3054 55.1383C54.23 55.468 54.1324 55.9038 54.0885 56.1067C53.8912 57.0183 53.5941 58.1922 53.3997 58.8273C53.2834 59.2077 53.0969 59.8303 52.9855 60.2107C52.6816 61.2478 52.3446 62.2657 52.2455 62.4459C52.197 62.5339 52.1575 62.6514 52.1575 62.7069C52.1575 62.8096 51.7862 63.8023 51.5509 64.3286C51.4794 64.4885 51.421 64.6477 51.421 64.6826C51.421 64.7175 51.2967 65.015 51.1448 65.3438C50.9929 65.6725 50.8686 65.9598 50.8686 65.9822C50.8686 66.1253 48.9588 70.0508 48.4718 70.9088C47.6742 72.3139 47.3243 72.8945 47.2586 72.9224C47.2187 72.9393 47.1861 72.9939 47.1861 73.0438C47.1861 73.0937 47.0826 73.2705 46.956 73.4368C46.8294 73.6031 46.7258 73.7871 46.7258 73.8456C46.7258 73.9043 46.6872 73.9522 46.6399 73.9522C46.5927 73.9522 46.5301 74.028 46.5008 74.1205C46.4716 74.213 46.3696 74.3725 46.2743 74.475C46.179 74.5774 46.0354 74.7884 45.9553 74.9436C45.8751 75.0989 45.7561 75.2818 45.691 75.3499C45.6258 75.4182 45.3462 75.7852 45.0697 76.1656C44.7933 76.5461 44.5439 76.8781 44.5155 76.9035C44.4873 76.9288 44.2999 77.1571 44.0993 77.4107C43.8987 77.6643 43.6619 77.939 43.5731 78.021C43.4843 78.103 43.4116 78.1977 43.4116 78.2316C43.4116 78.2654 43.2977 78.41 43.1585 78.5528C43.0192 78.6957 42.5324 79.2178 42.0767 79.713C41.2346 80.6282 39.5586 82.1687 38.8671 82.6631C38.6577 82.8128 38.4449 82.9828 38.3943 83.0408C38.3437 83.0987 38.1572 83.2446 37.98 83.3649C37.8028 83.4853 37.603 83.6369 37.5362 83.702C37.4693 83.7671 37.3838 83.8203 37.3464 83.8203C37.3089 83.8203 37.198 83.8929 37.0998 83.9817C36.863 84.1959 35.5139 85.0193 35.3998 85.0193C35.3506 85.0193 35.3102 85.0608 35.3102 85.1115C35.3102 85.1622 35.2634 85.2037 35.206 85.2037C35.1487 85.2037 34.9519 85.2971 34.7687 85.4111C33.8485 85.9842 31.5551 86.8993 30.1088 87.2703C27.4977 87.9402 27.2763 87.952 16.0694 88.0122C10.5757 88.0418 5.5215 88.089 4.83795 88.1173L3.59512 88.1687L5.48238 86.3072C7.32885 84.4859 13.435 78.5102 14.1961 77.7796C14.4074 77.5767 16.1893 75.8338 18.1557 73.9065C20.1222 71.9792 22.3043 69.8419 23.0047 69.1569C23.7051 68.4719 24.8474 67.3512 25.543 66.6665C26.2386 65.9817 28.0466 64.2179 29.5608 62.7469C32.638 59.7575 33.6531 58.7498 33.6531 58.6851C33.6531 58.6393 31.64 58.677 26.0581 58.8276C24.2353 58.8767 21.6722 58.9404 20.3624 58.9691L17.9809 59.0212L18.199 58.7449C18.3188 58.593 18.445 58.4663 18.4792 58.4635C18.5134 58.4607 18.7429 58.2613 18.9891 58.0203C19.2355 57.7794 19.9071 57.1465 20.4816 56.6139C21.0563 56.0813 21.7188 55.4588 21.9539 55.2305C22.1891 55.0023 22.8768 54.359 23.4822 53.801C24.0875 53.2431 24.791 52.579 25.0456 52.3254C25.3 52.0718 26.0049 51.4086 26.6117 50.8518C27.2186 50.2948 27.8009 49.7553 27.9057 49.6528C28.0104 49.5503 28.6513 48.9477 29.3299 48.3136C30.0085 47.6796 30.7573 46.9741 30.994 46.7458C31.2307 46.5175 31.9149 45.8743 32.5146 45.3163C33.9876 43.9456 34.6052 43.3647 35.1134 42.8723C35.3489 42.6441 36.0365 42.0008 36.6413 41.4429C37.2462 40.8849 37.9768 40.2001 38.265 39.9211C39.3677 38.8537 39.7292 38.5158 39.7292 38.5523C39.7292 38.5731 40.3714 37.9697 41.1562 37.2115C41.9411 36.4531 42.5676 35.8169 42.5484 35.7977C42.5291 35.7785 39.5435 35.8102 35.9137 35.8683C32.2838 35.9264 29.293 35.953 29.2675 35.9273C29.2011 35.8609 29.4016 35.6376 30.8005 34.2194C31.4847 33.5257 33.2454 31.7166 34.7131 30.1991C36.1808 28.6816 37.9203 26.8971 38.5785 26.2334C39.2368 25.5698 40.9768 23.7846 42.4451 22.2664C43.9135 20.7482 45.5481 19.0674 46.0778 18.5312L47.0408 17.5565L46.7222 17.5096C46.547 17.4838 46.1136 17.4901 45.7592 17.5237C45.1411 17.5822 43.9643 17.6263 39.6371 17.7536L37.6578 17.8118L37.934 17.5025C38.0859 17.3323 38.293 17.1161 38.3943 17.0221C39.1914 16.2814 42.5941 13.023 43.9519 11.7002C44.2382 11.4212 45.1524 10.5497 45.9833 9.76349C46.8142 8.97727 47.7884 8.04349 48.1482 7.68842C48.508 7.33335 49.4842 6.39957 50.3174 5.61335C51.1507 4.82713 52.1039 3.9141 52.4357 3.5844C53.5383 2.48867 56.2178 -0.0335998 56.2432 0.000339131C56.257 0.018692 56.2343 2.1918 56.1928 4.82944Z" fill="#E3E1D8"/>
<path d="M6.77123 97.0086V97.6541H5.48238H4.19352V101.758V105.862H3.45703H2.72054V101.758V97.6541H1.43168H0.142822V97.0086V96.363H3.45703H6.77123V97.0086Z" fill="#E3E1D8"/>
<path d="M9.34895 101.113V105.862H8.70452H8.06009V101.113V96.363H8.70452H9.34895V101.113Z" fill="#E3E1D8"/>
<path d="M13.0314 96.4517C13.0314 96.5005 13.1718 96.8428 13.3435 97.2126C13.5151 97.5822 13.8923 98.4242 14.1816 99.0836C14.4709 99.743 14.8921 100.691 15.1178 101.19C15.3434 101.689 15.5695 102.207 15.6203 102.341L15.7126 102.584L15.8398 102.309C16.2118 101.507 16.6218 100.587 16.6218 100.555C16.6218 100.535 16.7254 100.289 16.8519 100.009C17.2766 99.0677 17.5573 98.4404 17.6992 98.1153C17.7766 97.9377 17.9876 97.4709 18.1681 97.0777L18.4962 96.363H19.124H19.7519V101.113V105.862H19.1074H18.463L18.4577 102.657L18.4523 99.4525L18.1977 100.006C18.0577 100.31 17.5534 101.462 17.0769 102.565L16.2108 104.571H15.727C15.2688 104.571 15.2366 104.555 15.116 104.271C14.9756 103.941 14.6489 103.221 14.172 102.191C14.0003 101.821 13.86 101.499 13.86 101.477C13.86 101.442 13.6848 101.046 13.1488 99.8675C13.0677 99.6893 13.0424 100.343 13.0377 102.75L13.0314 105.862H12.3409H11.6505V101.113V96.363H12.3409C12.7216 96.363 13.0314 96.4028 13.0314 96.4517Z" fill="#E3E1D8"/>
<path fill-rule="evenodd" clip-rule="evenodd" d="M26.7025 96.488C27.6781 96.7485 28.1759 97.2034 28.4538 98.0888C28.6325 98.6577 28.6036 99.5009 28.3927 99.8757C28.1792 100.255 27.7292 100.703 27.4067 100.857L27.0983 101.004L27.4475 101.174C27.9069 101.398 28.1955 101.676 28.4369 102.127C28.5969 102.426 28.6346 102.654 28.6351 103.326C28.6357 104.074 28.61 104.199 28.3748 104.593C28.0733 105.097 27.6065 105.489 27.0459 105.708C26.716 105.837 26.2824 105.862 24.3531 105.862H22.0534V101.113V96.363L24.1478 96.3641C25.5975 96.3648 26.3839 96.403 26.7025 96.488ZM23.4343 100.329V98.9914V97.6541H24.7497C25.9308 97.6541 26.1071 97.6753 26.4758 97.8616C27.3553 98.3059 27.4511 99.6458 26.639 100.142C26.3675 100.308 26.1762 100.328 24.8843 100.328L23.4343 100.329ZM23.4343 104.593V103.098V101.604L24.8843 101.636C26.4716 101.671 26.7539 101.748 27.0748 102.238C27.3101 102.596 27.3168 103.599 27.0862 103.942C26.7366 104.462 26.5514 104.514 24.9303 104.555L23.4343 104.593Z" fill="#E3E1D8"/>
<path d="M36.6912 97.0086V97.6541H34.3436H31.996V99.0836V100.513H34.0254H36.0548L36.0278 101.182L36.0007 101.85L33.9984 101.875L31.996 101.9V103.236V104.571H34.3436H36.6912V105.217V105.862H33.6531H30.6151V101.113V96.363H33.6531H36.6912V97.0086Z" fill="#E3E1D8"/>
<path fill-rule="evenodd" clip-rule="evenodd" d="M43.2741 96.5055C43.8772 96.6811 44.4892 97.2016 44.7965 97.8001C44.9923 98.1817 45.0218 98.3591 45.016 99.1233C45.0084 100.121 44.8865 100.491 44.3794 101.053C44.2051 101.246 43.897 101.479 43.6946 101.571L43.3267 101.737L43.9158 102.854C44.8698 104.664 45.437 105.77 45.437 105.822C45.437 105.848 45.0797 105.857 44.643 105.843L43.849 105.816L42.8635 103.879L41.8781 101.943L40.8957 101.916L39.9133 101.89V103.876V105.862H39.2228H38.5324V101.113V96.363H40.6586C42.3036 96.363 42.8956 96.3953 43.2741 96.5055ZM39.9133 100.513V99.0836V97.6541H41.2003C42.7799 97.6541 43.1372 97.7631 43.4316 98.3344C43.6951 98.8459 43.6899 99.444 43.4177 99.9292C43.3003 100.138 43.104 100.355 42.9814 100.411C42.8497 100.472 42.1768 100.513 41.3359 100.513H39.9133Z" fill="#E3E1D8"/>
<path d="M55.304 96.5769C55.9601 96.8682 56.7456 97.7198 56.9823 98.3966C57.079 98.673 57.1766 98.9511 57.1993 99.0145C57.23 99.1004 57.0555 99.1297 56.5123 99.1297H55.7841L55.5493 98.6917C55.4189 98.4486 55.141 98.1305 54.9248 97.9769C54.5774 97.7302 54.4621 97.7002 53.8612 97.7002C53.2457 97.7002 53.1565 97.725 52.8335 97.9851C52.6388 98.1419 52.3761 98.4532 52.2495 98.6768C52.0225 99.078 52.0195 99.1121 52.0229 101.159C52.026 102.904 52.0511 103.287 52.1817 103.571C52.542 104.354 53.5633 104.807 54.4306 104.568C55.0384 104.401 55.2556 104.244 55.5343 103.767C55.7072 103.471 55.786 103.182 55.819 102.72L55.8647 102.081H54.9316H53.9987V101.387V100.693L55.6328 100.719L57.2669 100.744L57.2932 101.751C57.3236 102.916 57.2251 103.491 56.864 104.254C56.2709 105.508 54.8861 106.171 53.3542 105.934C51.9789 105.721 51.066 104.914 50.7172 103.603C50.547 102.963 50.5478 99.4443 50.7183 98.803C51.0683 97.4863 51.9202 96.6129 53.0986 96.3629C53.7213 96.2307 54.7487 96.3304 55.304 96.5769Z" fill="#E3E1D8"/>
<path fill-rule="evenodd" clip-rule="evenodd" d="M63.8953 96.4819C64.7241 96.7431 65.181 97.1368 65.5236 97.8847C65.8181 98.5279 65.8233 99.7207 65.5342 100.35C65.2951 100.871 64.8521 101.345 64.3797 101.586L64.0356 101.761L64.4609 102.59C64.6948 103.045 65.1423 103.895 65.4552 104.479C66.2732 106.003 66.2847 105.862 65.3424 105.861L64.5397 105.86L63.5351 103.878L62.5305 101.896H61.5788H60.6271V103.879V105.862H59.9366H59.2462V101.113V96.363L61.3866 96.3644C62.8467 96.3654 63.644 96.4026 63.8953 96.4819ZM60.6271 100.513V99.0836V97.6541L61.939 97.6543C63.3736 97.6544 63.712 97.7441 64.0566 98.2155C64.4555 98.761 64.3749 99.7037 63.8878 100.192L63.5669 100.513H62.097H60.6271Z" fill="#E3E1D8"/>
<path fill-rule="evenodd" clip-rule="evenodd" d="M72.3799 96.6469C73.2038 97.0407 73.7834 97.8087 74.0267 98.8287C74.1846 99.4902 74.2052 102.597 74.0565 103.298C73.8422 104.31 73.1966 105.225 72.4101 105.632C72.2517 105.714 71.8111 105.841 71.4309 105.914C70.832 106.029 70.6562 106.029 70.1109 105.915C69.3409 105.754 69.0126 105.589 68.4796 105.097C68.0041 104.658 67.6906 104.087 67.5431 103.391C67.4107 102.766 67.4081 99.44 67.5396 98.8709C67.844 97.5522 68.7988 96.5776 69.999 96.3602C70.7544 96.2234 71.7432 96.3424 72.3799 96.6469ZM69.1336 98.6007C69.3436 98.2211 69.5001 98.0682 69.8653 97.886C70.8517 97.3935 71.9814 97.71 72.4774 98.6178C72.604 98.8494 72.6375 99.2514 72.6668 100.89C72.7086 103.23 72.6575 103.518 72.1024 104.074C71.5946 104.582 70.9455 104.738 70.2246 104.523C69.7125 104.371 69.5015 104.197 69.1098 103.603L68.8666 103.234V101.159V99.0836L69.1336 98.6007Z" fill="#E3E1D8"/>
<path d="M77.2152 99.7984C77.2399 102.707 77.267 103.283 77.3916 103.558C77.7692 104.389 78.7726 104.808 79.7237 104.531C80.3923 104.336 80.7383 104.024 80.9675 103.411C81.1454 102.934 81.1568 102.708 81.1568 99.6295V96.3549L81.8242 96.382L82.4916 96.4091L82.5171 99.4986C82.5448 102.855 82.4952 103.448 82.117 104.292C81.6938 105.237 80.9392 105.755 79.7134 105.942C79.0171 106.048 78.009 105.909 77.4757 105.632C76.6611 105.21 76.075 104.343 75.9059 103.309C75.8577 103.014 75.818 101.33 75.8177 99.5678L75.8172 96.363H76.5016H77.1861L77.2152 99.7984Z" fill="#E3E1D8"/>
<path fill-rule="evenodd" clip-rule="evenodd" d="M89.3962 96.5862C89.9946 96.8739 90.4867 97.3226 90.731 97.8033C90.9155 98.1662 90.9664 98.4224 90.993 99.1227C91.0299 100.088 90.9246 100.559 90.5589 101.066C89.884 102.003 89.1353 102.265 87.1362 102.265H85.9439V104.064V105.862H85.2075H84.471V101.107V96.3513L86.7495 96.3802C88.7702 96.4059 89.0697 96.4291 89.3962 96.5862ZM85.9439 100.882V99.258V97.634L87.3188 97.6676C88.5314 97.6973 88.7234 97.7236 88.9472 97.8909C89.4117 98.2384 89.5693 98.5403 89.6086 99.1581C89.6536 99.8658 89.4515 100.361 88.9914 100.671C88.7004 100.867 88.5828 100.882 87.3112 100.882H85.9439Z" fill="#E3E1D8"/>
</svg>
