<svg width="43" height="59" viewBox="0 0 43 59" fill="none" xmlns="http://www.w3.org/2000/svg">
<path d="M39.679 1.70012L35.125 3.97656L29.4672 1.14432C29.1585 0.991653 28.8187 0.912231 28.4743 0.912231C28.1299 0.912231 27.7901 0.991653 27.4814 1.14432L21.8125 3.97656L16.1547 1.14432C15.846 0.991653 15.5062 0.912231 15.1618 0.912231C14.8174 0.912231 14.4776 0.991653 14.1689 1.14432L8.5 3.97656L3.94491 1.69901C3.60656 1.52994 3.2306 1.45017 2.85275 1.46728C2.47489 1.48439 2.10768 1.59782 1.786 1.79679C1.46432 1.99576 1.19884 2.27366 1.01478 2.6041C0.830727 2.93454 0.734203 3.30655 0.734379 3.68479V55.5625C0.733631 55.9417 0.830061 56.3147 1.01447 56.646C1.19887 56.9773 1.4651 57.2558 1.78774 57.4549C2.11039 57.6541 2.47868 57.7672 2.85749 57.7836C3.23629 57.7999 3.61297 57.7189 3.95157 57.5483L8.5 55.2707L14.1578 58.103C14.4665 58.2556 14.8063 58.3351 15.1507 58.3351C15.4951 58.3351 15.8349 58.2556 16.1436 58.103L21.8125 55.2707L27.4703 58.103C27.7789 58.2562 28.1187 58.336 28.4632 58.336C28.8077 58.336 29.1476 58.2562 29.4561 58.103L35.125 55.2707L39.6734 57.5483C40.012 57.7189 40.3887 57.7999 40.7675 57.7836C41.1463 57.7672 41.5146 57.6541 41.8373 57.4549C42.1599 57.2558 42.4261 56.9773 42.6105 56.646C42.7949 56.3147 42.8914 55.9417 42.8906 55.5625V3.68479C42.8907 3.30649 42.7941 2.93445 42.6099 2.60402C42.4257 2.27359 42.1601 1.99574 41.8382 1.79687C41.5164 1.598 41.1491 1.48472 40.7712 1.46779C40.3933 1.45085 40.0173 1.53083 39.679 1.70012ZM25.1406 40.7179H10.7188C10.4245 40.7179 10.1424 40.6011 9.93431 40.393C9.72626 40.185 9.60938 39.9028 9.60938 39.6086C9.60938 39.3144 9.72626 39.0322 9.93431 38.8241C10.1424 38.6161 10.4245 38.4992 10.7188 38.4992H25.1406C25.4349 38.4992 25.717 38.6161 25.9251 38.8241C26.1331 39.0322 26.25 39.3144 26.25 39.6086C26.25 39.9028 26.1331 40.185 25.9251 40.393C25.717 40.6011 25.4349 40.7179 25.1406 40.7179ZM25.1406 30.7336H8.5C8.20578 30.7336 7.9236 30.6167 7.71556 30.4086C7.50751 30.2006 7.39063 29.9184 7.39063 29.6242C7.39063 29.33 7.50751 29.0478 7.71556 28.8398C7.9236 28.6317 8.20578 28.5148 8.5 28.5148H25.1406C25.4349 28.5148 25.717 28.6317 25.9251 28.8398C26.1331 29.0478 26.25 29.33 26.25 29.6242C26.25 29.9184 26.1331 30.2006 25.9251 30.4086C25.717 30.6167 25.4349 30.7336 25.1406 30.7336ZM25.1406 20.7492H8.5C8.20578 20.7492 7.9236 20.6323 7.71556 20.4243C7.50751 20.2162 7.39063 19.934 7.39063 19.6398C7.39063 19.3456 7.50751 19.0634 7.71556 18.8554C7.9236 18.6473 8.20578 18.5304 8.5 18.5304H25.1406C25.4349 18.5304 25.717 18.6473 25.9251 18.8554C26.1331 19.0634 26.25 19.3456 26.25 19.6398C26.25 19.934 26.1331 20.2162 25.9251 20.4243C25.717 20.6323 25.4349 20.7492 25.1406 20.7492ZM35.125 40.7179H31.7969C31.5027 40.7179 31.2205 40.6011 31.0124 40.393C30.8044 40.185 30.6875 39.9028 30.6875 39.6086C30.6875 39.3144 30.8044 39.0322 31.0124 38.8241C31.2205 38.6161 31.5027 38.4992 31.7969 38.4992H35.125C35.4192 38.4992 35.7014 38.6161 35.9095 38.8241C36.1175 39.0322 36.2344 39.3144 36.2344 39.6086C36.2344 39.9028 36.1175 40.185 35.9095 40.393C35.7014 40.6011 35.4192 40.7179 35.125 40.7179ZM35.125 30.7336H31.7969C31.5027 30.7336 31.2205 30.6167 31.0124 30.4086C30.8044 30.2006 30.6875 29.9184 30.6875 29.6242C30.6875 29.33 30.8044 29.0478 31.0124 28.8398C31.2205 28.6317 31.5027 28.5148 31.7969 28.5148H35.125C35.4192 28.5148 35.7014 28.6317 35.9095 28.8398C36.1175 29.0478 36.2344 29.33 36.2344 29.6242C36.2344 29.9184 36.1175 30.2006 35.9095 30.4086C35.7014 30.6167 35.4192 30.7336 35.125 30.7336ZM35.125 20.7492H31.7969C31.5027 20.7492 31.2205 20.6323 31.0124 20.4243C30.8044 20.2162 30.6875 19.934 30.6875 19.6398C30.6875 19.3456 30.8044 19.0634 31.0124 18.8554C31.2205 18.6473 31.5027 18.5304 31.7969 18.5304H35.125C35.4192 18.5304 35.7014 18.6473 35.9095 18.8554C36.1175 19.0634 36.2344 19.3456 36.2344 19.6398C36.2344 19.934 36.1175 20.2162 35.9095 20.4243C35.7014 20.6323 35.4192 20.7492 35.125 20.7492Z" fill="#D7D8F9"/>
</svg>
