<svg width="56" height="56" viewBox="0 0 56 56" fill="none" xmlns="http://www.w3.org/2000/svg">
<path d="M54.5264 1.55155C54.2046 1.35242 53.8372 1.23892 53.4592 1.22183C53.0811 1.20474 52.705 1.28464 52.3665 1.45393L48.3095 3.48408C48.1544 3.56135 47.9835 3.60157 47.8103 3.60157C47.637 3.60157 47.4661 3.56135 47.3111 3.48408L42.1547 0.895912C41.846 0.743241 41.5062 0.663818 41.1618 0.663818C40.8174 0.663818 40.4776 0.743241 40.1689 0.895912L35.0025 3.48076C34.8483 3.55738 34.6784 3.59725 34.5061 3.59725C34.3338 3.59725 34.1639 3.55738 34.0097 3.48076L28.8411 0.895912C28.5326 0.743254 28.193 0.663836 27.8487 0.663836C27.5045 0.663836 27.1649 0.743254 26.8564 0.895912L21.69 3.48076C21.5358 3.55738 21.3659 3.59725 21.1936 3.59725C21.0213 3.59725 20.8514 3.55738 20.6972 3.48076L16.638 1.4506C16.2993 1.28019 15.9227 1.1994 15.5439 1.21592C15.1652 1.23244 14.797 1.34573 14.4745 1.54498C14.152 1.74423 13.8859 2.0228 13.7016 2.3541C13.5173 2.6854 13.421 3.05839 13.4219 3.43749V40.4684H3.4375C2.55483 40.4684 1.7083 40.8191 1.08416 41.4432C0.460016 42.0674 0.109375 42.9139 0.109375 43.7966V44.9059C0.112605 47.8472 1.28244 50.667 3.36223 52.7468C5.44201 54.8266 8.26187 55.9964 11.2031 55.9997H44.4844C47.4256 55.9964 50.2455 54.8266 52.3253 52.7468C54.4051 50.667 55.5749 47.8472 55.5781 44.9059V3.43749C55.5792 3.05934 55.4831 2.68727 55.2989 2.357C55.1147 2.02674 54.8487 1.74937 54.5264 1.55155ZM11.2031 53.7809C8.85014 53.7783 6.59428 52.8424 4.93047 51.1786C3.26666 49.5148 2.33077 47.2589 2.32812 44.9059V43.7966C2.32812 43.5023 2.44501 43.2202 2.65305 43.0121C2.8611 42.8041 3.14328 42.6872 3.4375 42.6872H32.2812C32.5755 42.6872 32.8577 42.8041 33.0657 43.0121C33.2737 43.2202 33.3906 43.5023 33.3906 43.7966V44.9059C33.3905 46.6289 33.7922 48.3281 34.5636 49.8687C35.3351 51.4094 36.4551 52.7489 37.8348 53.7809H11.2031ZM53.3594 44.9059C53.3594 47.2597 52.4243 49.5171 50.7599 51.1815C49.0956 52.8459 46.8382 53.7809 44.4844 53.7809C42.1306 53.7809 39.8732 52.8459 38.2088 51.1815C36.5444 49.5171 35.6094 47.2597 35.6094 44.9059V43.7966C35.6094 42.9139 35.2587 42.0674 34.6346 41.4432C34.0104 40.8191 33.1639 40.4684 32.2812 40.4684H15.6406V3.43749L19.6998 5.46654C20.1621 5.69688 20.6716 5.81677 21.1881 5.81677C21.7045 5.81677 22.214 5.69688 22.6763 5.46654L27.8438 2.8828L33.0123 5.46654C33.4746 5.69688 33.9841 5.81677 34.5006 5.81677C35.017 5.81677 35.5265 5.69688 35.9888 5.46654L41.1562 2.8828L46.3248 5.46654C46.7873 5.69638 47.2966 5.816 47.8131 5.816C48.3295 5.816 48.8388 5.69638 49.3013 5.46654L53.3594 3.43749V44.9059Z" fill="white"/>
<path d="M44.4844 23.8278H41.1562C40.862 23.8278 40.5799 23.9446 40.3718 24.1527C40.1638 24.3607 40.0469 24.6429 40.0469 24.9371C40.0469 25.2314 40.1638 25.5135 40.3718 25.7216C40.5799 25.9296 40.862 26.0465 41.1562 26.0465H44.4844C44.7786 26.0465 45.0608 25.9296 45.2688 25.7216C45.4769 25.5135 45.5938 25.2314 45.5938 24.9371C45.5938 24.6429 45.4769 24.3607 45.2688 24.1527C45.0608 23.9446 44.7786 23.8278 44.4844 23.8278Z" fill="white"/>
<path d="M36.7188 23.8278H24.5156C24.2214 23.8278 23.9392 23.9446 23.7312 24.1527C23.5231 24.3607 23.4062 24.6429 23.4062 24.9371C23.4062 25.2314 23.5231 25.5135 23.7312 25.7216C23.9392 25.9296 24.2214 26.0465 24.5156 26.0465H36.7188C37.013 26.0465 37.2951 25.9296 37.5032 25.7216C37.7112 25.5135 37.8281 25.2314 37.8281 24.9371C37.8281 24.6429 37.7112 24.3607 37.5032 24.1527C37.2951 23.9446 37.013 23.8278 36.7188 23.8278Z" fill="white"/>
<path d="M44.4844 30.7491H41.1562C40.862 30.7491 40.5799 30.866 40.3718 31.0741C40.1638 31.2821 40.0469 31.5643 40.0469 31.8585C40.0469 32.1527 40.1638 32.4349 40.3718 32.643C40.5799 32.851 40.862 32.9679 41.1562 32.9679H44.4844C44.7786 32.9679 45.0608 32.851 45.2688 32.643C45.4769 32.4349 45.5938 32.1527 45.5938 31.8585C45.5938 31.5643 45.4769 31.2821 45.2688 31.0741C45.0608 30.866 44.7786 30.7491 44.4844 30.7491Z" fill="white"/>
<path d="M36.7188 30.7491H24.5156C24.2214 30.7491 23.9392 30.866 23.7312 31.0741C23.5231 31.2821 23.4062 31.5643 23.4062 31.8585C23.4062 32.1527 23.5231 32.4349 23.7312 32.643C23.9392 32.851 24.2214 32.9679 24.5156 32.9679H36.7188C37.013 32.9679 37.2951 32.851 37.5032 32.643C37.7112 32.4349 37.8281 32.1527 37.8281 31.8585C37.8281 31.5643 37.7112 31.2821 37.5032 31.0741C37.2951 30.866 37.013 30.7491 36.7188 30.7491Z" fill="white"/>
<path d="M44.4844 19.1262H41.1562C40.862 19.1262 40.5799 19.0093 40.3718 18.8013C40.1638 18.5932 40.0469 18.3111 40.0469 18.0168C40.0469 17.7226 40.1638 17.4404 40.3718 17.2324C40.5799 17.0244 40.862 16.9075 41.1562 16.9075H44.4844C44.7786 16.9075 45.0608 17.0244 45.2688 17.2324C45.4769 17.4404 45.5938 17.7226 45.5938 18.0168C45.5938 18.3111 45.4769 18.5932 45.2688 18.8013C45.0608 19.0093 44.7786 19.1262 44.4844 19.1262Z" fill="white"/>
<path d="M36.7188 19.1262H24.5156C24.2214 19.1262 23.9392 19.0093 23.7312 18.8013C23.5231 18.5932 23.4062 18.3111 23.4062 18.0168C23.4062 17.7226 23.5231 17.4404 23.7312 17.2324C23.9392 17.0244 24.2214 16.9075 24.5156 16.9075H36.7188C37.013 16.9075 37.2951 17.0244 37.5032 17.2324C37.7112 17.4404 37.8281 17.7226 37.8281 18.0168C37.8281 18.3111 37.7112 18.5932 37.5032 18.8013C37.2951 19.0093 37.013 19.1262 36.7188 19.1262Z" fill="white"/>
</svg>
