<?xml version="1.0" encoding="utf-8"?><svg xmlns="http://www.w3.org/2000/svg" xmlns:xlink="http://www.w3.org/1999/xlink">
    <symbol viewBox="0 0 20 20" id="arrow" xmlns="http://www.w3.org/2000/svg">
        <path d="M6.825 3.136c-.268.042-.538.262-.65.528-.062.148-.067.476-.01.653.035.11.525.616 2.813 2.908L11.749 10l-2.771 2.775C6.69 15.067 6.2 15.573 6.165 15.683c-.058.178-.052.505.011.655.072.173.27.379.443.463.202.098.558.099.756.003.206-.101 6.368-6.27 6.443-6.452.079-.19.072-.549-.014-.727-.105-.217-6.313-6.406-6.471-6.452a1.107 1.107 0 0 0-.508-.037" fill-rule="evenodd" />
    </symbol>
    <symbol viewBox="0 0 36 36" id="bag" xmlns="http://www.w3.org/2000/svg">
        <path d="M28.5 9H24V7.5a3 3 0 0 0-3-3h-6a3 3 0 0 0-3 3V9H7.5A4.5 4.5 0 0 0 3 13.5V27a4.5 4.5 0 0 0 4.5 4.5h21A4.5 4.5 0 0 0 33 27V13.5A4.5 4.5 0 0 0 28.5 9ZM15 7.5h6V9h-6V7.5ZM30 27a1.5 1.5 0 0 1-1.5 1.5h-21A1.5 1.5 0 0 1 6 27v-8.415L13.02 21c.16.022.32.022.48 0h9c.163-.003.324-.028.48-.075l7.02-2.34V27Zm0-11.58L22.26 18h-8.52L6 15.42V13.5A1.5 1.5 0 0 1 7.5 12h21a1.5 1.5 0 0 1 1.5 1.5v1.92Z" />
    </symbol>
    <symbol viewBox="0 0 37 37" id="check-arc" xmlns="http://www.w3.org/2000/svg">
        <path d="M21.059 8.537a2.053 2.053 0 0 0 0 2.914l3.93 3.94a2.048 2.048 0 0 0 2.24.449c.249-.104.475-.257.665-.45l8.35-8.372a2.052 2.052 0 0 0 .614-2.344A2.053 2.053 0 0 0 35.662 3.5a2.041 2.041 0 0 0-2.324.665l-6.897 6.875-2.476-2.503a2.046 2.046 0 0 0-2.24-.45c-.25.105-.476.257-.666.45Zm13.548 7.203a2.045 2.045 0 0 0-1.388.722c-.35.415-.52.953-.474 1.494.01.191.01.383 0 .575 0 3.81-1.51 7.463-4.196 10.157a14.306 14.306 0 0 1-10.13 4.208H6.979l1.31-1.293a2.055 2.055 0 0 0 0-2.894 14.375 14.375 0 0 1-3.776-6.62 14.403 14.403 0 0 1 .136-7.625 14.371 14.371 0 0 1 4.01-6.48 14.312 14.312 0 0 1 6.751-3.51c1.892-.38 3.84-.38 5.73 0a2.082 2.082 0 0 0 2.144-.888A2.095 2.095 0 0 0 21.96.369a18.676 18.676 0 0 0-7.388 0c-4.131.904-7.83 3.2-10.48 6.503A18.604 18.604 0 0 0 0 18.531a18.5 18.5 0 0 0 4.093 11.533l-3.5 3.427a2.054 2.054 0 0 0-.43 2.237A2.052 2.052 0 0 0 2.048 37h16.372c4.885 0 9.57-1.946 13.024-5.41a18.495 18.495 0 0 0 5.395-13.06v-.902a2.057 2.057 0 0 0-1.428-1.803 2.04 2.04 0 0 0-.803-.085Z" />
    </symbol>
    <symbol viewBox="0 0 24 24" id="clock" xmlns="http://www.w3.org/2000/svg">
        <path d="M12 6a1 1 0 0 0-1 1v4.384l-2.43 1.223a1 1 0 0 0 .898 1.786l2.981-1.5A.998.998 0 0 0 13 12V7a1.001 1.001 0 0 0-1-1Zm0-4a10 10 0 1 0 10 10A10.011 10.011 0 0 0 12 2Zm0 18a8 8 0 1 1 8-8 8.01 8.01 0 0 1-8 8Z" />
    </symbol>
    <symbol viewBox="0 0 28 28" id="close" xmlns="http://www.w3.org/2000/svg">
        <path d="M21.55 19.662 15.887 14l5.663-5.662a1.335 1.335 0 0 0-1.888-1.888L14 12.113 8.338 6.45A1.335 1.335 0 1 0 6.45 8.338L12.113 14 6.45 19.662a1.334 1.334 0 1 0 1.888 1.888L14 15.887l5.662 5.663a1.334 1.334 0 1 0 1.888-1.888Z" />
    </symbol>
    <symbol viewBox="0 0 28 28" id="cross" xmlns="http://www.w3.org/2000/svg">
        <path d="M21.55 19.662 15.887 14l5.663-5.662a1.335 1.335 0 0 0-1.888-1.888L14 12.113 8.338 6.45A1.335 1.335 0 1 0 6.45 8.338L12.113 14 6.45 19.662a1.334 1.334 0 1 0 1.888 1.888L14 15.887l5.662 5.663a1.334 1.334 0 1 0 1.888-1.888Z" />
    </symbol>
    <symbol viewBox="0 0 36 36" id="drill" xmlns="http://www.w3.org/2000/svg">
        <path d="M28.5 6h-15A1.5 1.5 0 0 0 12 7.5v3H4.5a1.5 1.5 0 1 0 0 3H12v6a1.5 1.5 0 1 0 3 0V18h6v10.5a1.5 1.5 0 0 0 1.5 1.5h3a4.5 4.5 0 0 0 4.5-4.5v-7.77a4.5 4.5 0 0 0 3-4.23v-3A4.5 4.5 0 0 0 28.5 6ZM27 25.5a1.5 1.5 0 0 1-1.5 1.5H24v-9h3v7.5Zm3-12a1.5 1.5 0 0 1-1.5 1.5H15V9h9v1.5a1.5 1.5 0 1 0 3 0V9h1.5a1.5 1.5 0 0 1 1.5 1.5v3Z" />
    </symbol>
    <symbol viewBox="0 0 49 37" id="education" xmlns="http://www.w3.org/2000/svg">
        <path d="m47.81 13.038-2.334-1.278L24.473.14h-.257a2.48 2.48 0 0 0-.443-.14h-.863a2.74 2.74 0 0 0-.467.14h-.257L1.183 11.76A2.329 2.329 0 0 0 0 13.782a2.317 2.317 0 0 0 1.183 2.022l5.81 3.207v11.017c0 1.849.738 3.622 2.051 4.93A7.015 7.015 0 0 0 13.994 37h18.67a7.016 7.016 0 0 0 4.95-2.042 6.958 6.958 0 0 0 2.051-4.93V19.01l4.668-2.603v6.647c0 .617.245 1.208.683 1.644a2.339 2.339 0 0 0 3.3 0A2.32 2.32 0 0 0 49 23.055V15.06a2.317 2.317 0 0 0-1.19-2.022Zm-12.812 16.99a2.32 2.32 0 0 1-.684 1.643 2.338 2.338 0 0 1-1.65.68h-18.67a2.338 2.338 0 0 1-1.65-.68 2.32 2.32 0 0 1-.683-1.643V21.59l10.525 5.81.35.14h.21c.194.024.39.024.584 0 .193.024.39.024.583 0h.21a1.1 1.1 0 0 0 .35-.14l10.525-5.81v8.437ZM23.33 22.73 7.134 13.759 23.33 4.788l16.195 8.97L23.33 22.73Z" />
    </symbol>
    <symbol viewBox="0 0 17 17" id="eye" xmlns="http://www.w3.org/2000/svg">
        <path d="M15.527 8.217C14.096 4.895 11.404 2.833 8.5 2.833S2.904 4.895 1.473 8.217a.708.708 0 0 0 0 .566c1.431 3.322 4.123 5.384 7.027 5.384s5.596-2.062 7.027-5.384a.708.708 0 0 0 0-.566ZM8.5 12.75c-2.245 0-4.37-1.622-5.596-4.25C4.13 5.872 6.254 4.25 8.5 4.25c2.245 0 4.37 1.622 5.596 4.25-1.226 2.628-3.35 4.25-5.596 4.25Zm0-7.083a2.833 2.833 0 1 0 0 5.666 2.833 2.833 0 0 0 0-5.666Zm0 4.25a1.417 1.417 0 1 1 0-2.834 1.417 1.417 0 0 1 0 2.834Z" />
    </symbol>
    <symbol viewBox="0 0 24 24" id="file" xmlns="http://www.w3.org/2000/svg">
        <path d="M20 8.94a1.307 1.307 0 0 0-.06-.27v-.09a1.07 1.07 0 0 0-.19-.28l-6-6a1.071 1.071 0 0 0-.28-.19h-.09a.88.88 0 0 0-.33-.11H7a3 3 0 0 0-3 3v14a3 3 0 0 0 3 3h10a3 3 0 0 0 3-3V8.94Zm-6-3.53L16.59 8H15a1 1 0 0 1-1-1V5.41ZM18 19a1 1 0 0 1-1 1H7a1 1 0 0 1-1-1V5a1 1 0 0 1 1-1h5v3a3 3 0 0 0 3 3h3v9Z" />
    </symbol>
    <symbol viewBox="0 0 18 18" id="filters" xmlns="http://www.w3.org/2000/svg">
        <path d="M14.25 1.5H3.75A2.25 2.25 0 0 0 1.5 3.75v.878c0 .31.064.616.188.9v.045c.105.24.256.459.442.644l4.62 4.59v4.943a.75.75 0 0 0 .75.75.75.75 0 0 0 .338-.082l3-1.5a.75.75 0 0 0 .412-.668v-3.443l4.59-4.59c.186-.185.337-.404.442-.644v-.046a2.25 2.25 0 0 0 .218-.9V3.75a2.25 2.25 0 0 0-2.25-2.25ZM9.967 9.967a.75.75 0 0 0-.217.533v3.285l-1.5.75V10.5a.75.75 0 0 0-.217-.533L4.058 6h9.885L9.967 9.967ZM15 4.5H3v-.75A.75.75 0 0 1 3.75 3h10.5a.75.75 0 0 1 .75.75v.75Z" />
    </symbol>
    <symbol viewBox="0 0 16 16" id="grid" xmlns="http://www.w3.org/2000/svg">
        <path d="M.504 0h2.685a.51.51 0 0 1 .503.504v2.685a.51.51 0 0 1-.503.503H.504A.51.51 0 0 1 0 3.19V.504A.51.51 0 0 1 .504 0ZM.504 6.154h2.685a.51.51 0 0 1 .503.504v2.685a.51.51 0 0 1-.503.504H.504A.51.51 0 0 1 0 9.343V6.658a.51.51 0 0 1 .504-.504ZM.504 12.308h2.685a.51.51 0 0 1 .503.504v2.685a.51.51 0 0 1-.503.504H.504A.51.51 0 0 1 0 15.497v-2.685a.51.51 0 0 1 .504-.504ZM6.66 0h2.685a.51.51 0 0 1 .504.504v2.685a.51.51 0 0 1-.504.503H6.66a.51.51 0 0 1-.504-.503V.504A.51.51 0 0 1 6.66 0ZM12.812 0h2.686A.51.51 0 0 1 16 .504v2.685a.51.51 0 0 1-.503.503h-2.686a.51.51 0 0 1-.503-.503V.504A.51.51 0 0 1 12.812 0ZM6.66 6.154h2.685a.51.51 0 0 1 .504.504v2.685a.51.51 0 0 1-.504.504H6.66a.51.51 0 0 1-.504-.504V6.658a.51.51 0 0 1 .504-.504ZM6.66 12.308h2.685a.51.51 0 0 1 .504.504v2.685a.51.51 0 0 1-.504.504H6.66a.51.51 0 0 1-.504-.504v-2.685a.51.51 0 0 1 .504-.504ZM12.812 6.154h2.686a.51.51 0 0 1 .503.504v2.685a.51.51 0 0 1-.503.504h-2.686a.51.51 0 0 1-.503-.504V6.658a.51.51 0 0 1 .503-.504ZM12.812 12.308h2.686a.51.51 0 0 1 .503.504v2.685a.51.51 0 0 1-.503.504h-2.686a.51.51 0 0 1-.503-.504v-2.685a.51.51 0 0 1 .503-.504Z" />
    </symbol>
    <symbol viewBox="0 0 16 16" id="list" xmlns="http://www.w3.org/2000/svg">
        <path d="M.503 0H3.19a.51.51 0 0 1 .503.503V3.19a.51.51 0 0 1-.503.503H.503A.51.51 0 0 1 0 3.19V.503A.51.51 0 0 1 .503 0ZM.503 6.154H3.19a.51.51 0 0 1 .503.503v2.685a.51.51 0 0 1-.503.504H.503A.51.51 0 0 1 0 9.342V6.657a.51.51 0 0 1 .503-.503ZM.503 12.308H3.19a.51.51 0 0 1 .503.503v2.685A.51.51 0 0 1 3.19 16H.503A.51.51 0 0 1 0 15.496v-2.685a.51.51 0 0 1 .503-.503ZM6.66 6.154h8.839a.51.51 0 0 1 .503.503v2.685a.51.51 0 0 1-.503.504h-8.84a.51.51 0 0 1-.503-.504V6.657a.51.51 0 0 1 .504-.503ZM6.66 0h8.839a.51.51 0 0 1 .503.503V3.19a.51.51 0 0 1-.503.503h-8.84a.51.51 0 0 1-.503-.503V.503A.51.51 0 0 1 6.66 0ZM6.66 12.308h8.839a.51.51 0 0 1 .503.503v2.685A.51.51 0 0 1 15.5 16h-8.84a.51.51 0 0 1-.503-.504v-2.685a.51.51 0 0 1 .504-.503Z" />
    </symbol>
    <symbol viewBox="0 0 20 20" id="location" xmlns="http://www.w3.org/2000/svg">
        <path d="M10 9a1.667 1.667 0 1 0 0-3.333A1.667 1.667 0 0 0 10 9Zm-.592 5.759a.833.833 0 0 0 1.183 0L14 11.342a5.659 5.659 0 1 0-8 0l3.408 3.417ZM6.025 6.95A4.008 4.008 0 0 1 7.8 3.992a4.008 4.008 0 0 1 4.4 0 4.017 4.017 0 0 1 .625 6.175L10 12.992l-2.825-2.825a3.976 3.976 0 0 1-1.15-3.217Zm9.808 9.717H4.166a.834.834 0 0 0 0 1.667h11.667a.834.834 0 0 0 0-1.667Z" />
    </symbol>
    <symbol viewBox="0 0 20 20" id="mail" xmlns="http://www.w3.org/2000/svg">
        <path d="M15.834 3.333H4.167a2.5 2.5 0 0 0-2.5 2.5v8.333a2.5 2.5 0 0 0 2.5 2.5h11.667a2.5 2.5 0 0 0 2.5-2.5V5.833a2.5 2.5 0 0 0-2.5-2.5ZM15.492 5l-4.9 4.9a.833.833 0 0 1-1.183 0L4.509 5h10.983Zm1.175 9.166a.833.833 0 0 1-.833.834H4.167a.833.833 0 0 1-.833-.834V6.175l4.9 4.9a2.5 2.5 0 0 0 3.533 0l4.9-4.9v7.991Z" />
    </symbol>
    <symbol viewBox="0 0 24 24" id="menu" xmlns="http://www.w3.org/2000/svg">
        <path d="M21 12a.75.75 0 0 1-.75.75H3.75a.75.75 0 1 1 0-1.5h16.5A.75.75 0 0 1 21 12ZM3.75 6.75h16.5a.75.75 0 1 0 0-1.5H3.75a.75.75 0 0 0 0 1.5Zm16.5 10.5H3.75a.75.75 0 1 0 0 1.5h16.5a.75.75 0 1 0 0-1.5Z" />
    </symbol>
    <symbol viewBox="0 0 29 29" id="menu-2" xmlns="http://www.w3.org/2000/svg">
        <path d="M15.708 19.333H3.624a1.208 1.208 0 1 0 0 2.417h12.084a1.208 1.208 0 1 0 0-2.417ZM3.624 9.667h21.75a1.208 1.208 0 1 0 0-2.417H3.624a1.208 1.208 0 0 0 0 2.417Zm21.75 3.625H3.624a1.208 1.208 0 1 0 0 2.416h21.75a1.208 1.208 0 1 0 0-2.416Z" />
    </symbol>
    <symbol viewBox="0 0 20 20" id="nav" xmlns="http://www.w3.org/2000/svg">
        <path d="M6.806 3.135a.935.935 0 0 0-.631.529c-.062.148-.067.476-.01.653.035.11.525.616 2.813 2.908L11.749 10l-2.771 2.775C6.69 15.067 6.2 15.573 6.165 15.683c-.058.178-.052.505.011.655.073.174.271.38.447.465a.98.98 0 0 0 .748.003c.105-.051 1.022-.949 3.284-3.214 3.405-3.409 3.223-3.206 3.223-3.592 0-.386.182-.183-3.223-3.592C8.5 4.25 7.475 3.245 7.383 3.202a.987.987 0 0 0-.577-.067" fill-rule="evenodd" />
    </symbol>
    <symbol viewBox="0 0 20 20" id="phone" xmlns="http://www.w3.org/2000/svg">
        <path d="M16.2 10.834c-.183 0-.375-.059-.558-.1a7.861 7.861 0 0 1-1.092-.325 1.667 1.667 0 0 0-2.067.833l-.183.375a10.15 10.15 0 0 1-2.217-1.667 10.149 10.149 0 0 1-1.666-2.216l.35-.234A1.667 1.667 0 0 0 9.6 5.434a8.608 8.608 0 0 1-.325-1.092 6.182 6.182 0 0 1-.1-.567 2.5 2.5 0 0 0-2.5-2.075h-2.5a2.5 2.5 0 0 0-2.5 2.842A15.833 15.833 0 0 0 15.442 18.26h.316a2.5 2.5 0 0 0 2.285-1.482 2.5 2.5 0 0 0 .215-1.027v-2.5a2.5 2.5 0 0 0-2.058-2.416Zm.416 5a.833.833 0 0 1-.602.801.883.883 0 0 1-.364.032A14.166 14.166 0 0 1 3.392 4.35a.908.908 0 0 1 .208-.683.833.833 0 0 1 .625-.283h2.5a.833.833 0 0 1 .833.658c.034.228.075.453.125.675.096.44.225.871.384 1.292L6.9 6.55a.834.834 0 0 0-.408 1.109 12.075 12.075 0 0 0 5.833 5.833c.203.083.43.083.633 0a.831.831 0 0 0 .475-.433l.517-1.167c.43.154.87.282 1.317.383.222.05.447.092.675.125a.833.833 0 0 1 .658.834l.016 2.6Z" />
    </symbol>
    <symbol viewBox="0 0 18 18" id="play" xmlns="http://www.w3.org/2000/svg">
        <path d="M16.2 9 1.8 18.353V-.353L16.2 9Z" />
    </symbol>
    <symbol viewBox="0 0 37 37" id="price-tag" xmlns="http://www.w3.org/2000/svg">
        <path d="M12.95 18.504h-3.7a1.85 1.85 0 1 0 0 3.699h3.7a1.85 1.85 0 1 0 0-3.7Zm-1.85-3.7h7.4a1.85 1.85 0 0 0 0-3.699h-7.4a1.85 1.85 0 0 0 0 3.7Zm1.85 11.098h-3.7a1.85 1.85 0 0 0 0 3.7h3.7a1.85 1.85 0 0 0 0-3.7Zm22.2-7.398H29.6V1.857a1.85 1.85 0 0 0-2.775-1.61l-5.55 3.182-5.55-3.181a1.85 1.85 0 0 0-1.85 0l-5.55 3.181L2.775.248A1.85 1.85 0 0 0 0 1.857v29.594A5.548 5.548 0 0 0 5.55 37h25.9A5.55 5.55 0 0 0 37 31.451V20.353a1.85 1.85 0 0 0-1.85-1.85ZM5.55 33.3a1.85 1.85 0 0 1-1.85-1.85V5.057l3.7 2.108a1.998 1.998 0 0 0 1.85 0l5.55-3.18 5.55 3.18a1.998 1.998 0 0 0 1.85 0l3.7-2.108V31.45c.005.631.118 1.257.333 1.85H5.55Zm27.75-1.85a1.85 1.85 0 0 1-3.7 0v-9.248h3.7v9.248Zm-11.914-5.234a1.406 1.406 0 0 0-.333-.167 1.11 1.11 0 0 0-.352-.11 1.85 1.85 0 0 0-1.665.499c-.338.354-.53.823-.536 1.313-.003.24.041.48.13.703.1.225.238.43.407.61.18.163.386.295.61.388a1.739 1.739 0 0 0 1.406 0c.224-.093.43-.224.61-.388a1.85 1.85 0 0 0 .537-1.313 1.942 1.942 0 0 0-.537-1.313 2.933 2.933 0 0 0-.277-.222Zm.259-7.177a1.849 1.849 0 0 0-2.997.61 1.85 1.85 0 0 0 1.702 2.553 1.85 1.85 0 0 0 1.85-1.85 1.85 1.85 0 0 0-.148-.703c-.09-.23-.228-.439-.407-.61Z" />
    </symbol>
    <symbol viewBox="0 0 36 38" id="promotion" xmlns="http://www.w3.org/2000/svg">
        <path d="M31.984 20.644a1.875 1.875 0 0 0-2.081 1.631A13.126 13.126 0 0 1 16.872 33.75H6.39l1.2-1.181a1.875 1.875 0 0 0 0-2.644 13.125 13.125 0 0 1 6-22.013 1.878 1.878 0 0 0-.937-3.637 16.875 16.875 0 0 0-8.906 26.888L.54 34.293a1.874 1.874 0 0 0-.393 2.044A1.875 1.875 0 0 0 1.872 37.5h15a16.875 16.875 0 0 0 16.743-14.775 1.875 1.875 0 0 0-1.63-2.081Zm-.112-11.269a3.75 3.75 0 0 0-2.213.731l-3.281-1.5 3.619-1.65a3.75 3.75 0 0 0 1.875.544 3.75 3.75 0 1 0-3.75-3.75l-3.563 1.631a3.75 3.75 0 0 0-2.062-.694 3.75 3.75 0 0 0 0 7.5 3.75 3.75 0 0 0 1.743-.45l3.92 1.876a3.75 3.75 0 1 0 3.712-4.238Z" />
    </symbol>
    <symbol viewBox="0 0 24 24" id="search" xmlns="http://www.w3.org/2000/svg">
        <path d="M10.611 18.82c1.822 0 3.591-.61 5.026-1.732L20.15 21.6 21.6 20.15l-4.512-4.512a8.16 8.16 0 0 0 1.734-5.027c0-4.526-3.683-8.21-8.21-8.21C6.083 2.4 2.4 6.084 2.4 10.61c0 4.527 3.684 8.21 8.211 8.21Zm0-14.367a6.164 6.164 0 0 1 6.158 6.157 6.164 6.164 0 0 1-6.158 6.158 6.164 6.164 0 0 1-6.158-6.158 6.164 6.164 0 0 1 6.158-6.157Z" />
        <path d="M12.06 9.16c.39.39.604.905.604 1.45h2.053a4.082 4.082 0 0 0-1.205-2.902c-1.554-1.552-4.248-1.552-5.801 0l1.45 1.454c.78-.778 2.124-.776 2.9-.003Z" />
    </symbol>
    <symbol viewBox="0 0 36 36" id="shop" xmlns="http://www.w3.org/2000/svg">
        <path d="M33 7.5H3A1.5 1.5 0 0 0 1.5 9v6a4.5 4.5 0 0 0 3 4.23V33A1.5 1.5 0 0 0 6 34.5h24a1.5 1.5 0 0 0 1.5-1.5V19.23a4.5 4.5 0 0 0 3-4.23V9A1.5 1.5 0 0 0 33 7.5Zm-10.5 3h3V15a1.5 1.5 0 1 1-3 0v-4.5Zm-6 0h3V15a1.5 1.5 0 1 1-3 0v-4.5Zm-6 0h3V15a1.5 1.5 0 1 1-3 0v-4.5Zm-4.5 6A1.5 1.5 0 0 1 4.5 15v-4.5h3V15A1.5 1.5 0 0 1 6 16.5Zm15 15h-6v-3a3 3 0 0 1 6 0v3Zm7.5 0H24v-3a6 6 0 1 0-12 0v3H7.5V19.23a4.756 4.756 0 0 0 1.5-.9 4.5 4.5 0 0 0 6 0 4.5 4.5 0 0 0 6 0 4.5 4.5 0 0 0 6 0c.44.39.949.695 1.5.9V31.5Zm3-16.5a1.5 1.5 0 1 1-3 0v-4.5h3V15ZM6.45 4.5H30a1.5 1.5 0 0 0 0-3H6.45a1.5 1.5 0 0 0 0 3Z" />
    </symbol>
    <symbol viewBox="0 0 37 37" id="support" xmlns="http://www.w3.org/2000/svg">
        <path d="M18.526 16.65a1.846 1.846 0 0 0-1.847 1.85v5.549a1.851 1.851 0 0 0 1.847 1.85 1.846 1.846 0 0 0 1.847-1.85v-5.55a1.851 1.851 0 0 0-1.847-1.85Zm0-5.55a1.845 1.845 0 0 0-1.707 1.142 1.852 1.852 0 0 0 1.347 2.522 1.845 1.845 0 0 0 2.207-1.815 1.851 1.851 0 0 0-1.847-1.85Zm0-11.1A18.452 18.452 0 0 0 5.463 5.418 18.512 18.512 0 0 0 .053 18.5a18.311 18.311 0 0 0 4.174 11.71l-3.695 3.7a1.85 1.85 0 0 0-.388 2.016A1.849 1.849 0 0 0 1.9 36.998h16.627c4.9 0 9.599-1.949 13.063-5.418A18.512 18.512 0 0 0 37 18.5c0-4.907-1.946-9.612-5.41-13.082A18.461 18.461 0 0 0 18.525 0Zm0 33.298H6.352l1.718-1.72a1.85 1.85 0 0 0 .554-1.313 1.851 1.851 0 0 0-.554-1.295A14.815 14.815 0 0 1 6.22 10.285a14.78 14.78 0 0 1 7.994-5.945 14.76 14.76 0 0 1 9.946.483 14.787 14.787 0 0 1 7.383 6.69 14.817 14.817 0 0 1-3.645 18.42 14.767 14.767 0 0 1-9.373 3.365Z" />
    </symbol>
    <symbol viewBox="0 0 45 37" id="truck" xmlns="http://www.w3.org/2000/svg">
        <path d="m44.857 17.78-.123-.226a1.255 1.255 0 0 0-.143-.287l-4.91-6.578a6.143 6.143 0 0 0-2.164-1.816 6.112 6.112 0 0 0-2.744-.65h-4.091V6.166a6.182 6.182 0 0 0-1.797-4.36A6.121 6.121 0 0 0 24.544 0H6.137C4.51 0 2.948.65 1.797 1.806A6.182 6.182 0 0 0 0 6.166v22.612c0 .545.216 1.068.6 1.453a2.04 2.04 0 0 0 1.445.602h2.046c0 1.636.646 3.204 1.797 4.36A6.121 6.121 0 0 0 10.228 37c1.627 0 3.188-.65 4.338-1.806a6.182 6.182 0 0 0 1.798-4.36h12.272c0 1.635.647 3.203 1.798 4.36A6.121 6.121 0 0 0 34.773 37c1.627 0 3.188-.65 4.339-1.806a6.182 6.182 0 0 0 1.797-4.36h2.046a2.04 2.04 0 0 0 1.446-.603c.383-.385.599-.908.599-1.453V18.5a2.063 2.063 0 0 0-.143-.72ZM10.227 32.89a2.039 2.039 0 0 1-1.89-1.269 2.065 2.065 0 0 1 .444-2.24 2.043 2.043 0 0 1 2.229-.446 2.063 2.063 0 0 1 .664 3.353 2.04 2.04 0 0 1-1.447.602Zm16.364-6.167H14.768a6.137 6.137 0 0 0-4.54-2.019 6.11 6.11 0 0 0-4.542 2.02H4.091V6.166c0-.545.215-1.068.599-1.454a2.04 2.04 0 0 1 1.446-.602h18.41a2.04 2.04 0 0 1 1.446.602c.383.386.599.909.599 1.454v20.555Zm4.09-14.389h4.092a2.037 2.037 0 0 1 1.636.823l2.455 3.288h-8.182v-4.11Zm4.092 20.556a2.039 2.039 0 0 1-1.89-1.269 2.065 2.065 0 0 1 .443-2.24 2.042 2.042 0 0 1 2.23-.446 2.049 2.049 0 0 1 1.262 1.9 2.06 2.06 0 0 1-.599 1.453 2.04 2.04 0 0 1-1.446.602Zm6.136-6.167h-1.595a6.118 6.118 0 0 0-8.632-.452v-5.714h10.227v6.166Z" />
    </symbol>
</svg>