<?xml version="1.0" encoding="utf-8"?><svg xmlns="http://www.w3.org/2000/svg" xmlns:xlink="http://www.w3.org/1999/xlink">
    <symbol viewBox="0 0 20 20" id="arrow" xmlns="http://www.w3.org/2000/svg">
        <path d="M6.825 3.136c-.268.042-.538.262-.65.528-.062.148-.067.476-.01.653.035.11.525.616 2.813 2.908L11.749 10l-2.771 2.775C6.69 15.067 6.2 15.573 6.165 15.683c-.058.178-.052.505.011.655.072.173.27.379.443.463.202.098.558.099.756.003.206-.101 6.368-6.27 6.443-6.452.079-.19.072-.549-.014-.727-.105-.217-6.313-6.406-6.471-6.452a1.107 1.107 0 0 0-.508-.037" fill-rule="evenodd" />
    </symbol>
    <symbol viewBox="0 0 28 28" id="close" xmlns="http://www.w3.org/2000/svg">
        <path d="M21.55 19.662 15.887 14l5.663-5.662a1.335 1.335 0 0 0-1.888-1.888L14 12.113 8.338 6.45A1.335 1.335 0 1 0 6.45 8.338L12.113 14 6.45 19.662a1.334 1.334 0 1 0 1.888 1.888L14 15.887l5.662 5.663a1.334 1.334 0 1 0 1.888-1.888Z" />
    </symbol>
    <symbol viewBox="0 0 28 28" id="cross" xmlns="http://www.w3.org/2000/svg">
        <path d="M21.55 19.662 15.887 14l5.663-5.662a1.335 1.335 0 0 0-1.888-1.888L14 12.113 8.338 6.45A1.335 1.335 0 1 0 6.45 8.338L12.113 14 6.45 19.662a1.334 1.334 0 1 0 1.888 1.888L14 15.887l5.662 5.663a1.334 1.334 0 1 0 1.888-1.888Z" />
    </symbol>
    <symbol viewBox="0 0 17 17" id="eye" xmlns="http://www.w3.org/2000/svg">
        <path d="M15.527 8.217C14.096 4.895 11.404 2.833 8.5 2.833S2.904 4.895 1.473 8.217a.708.708 0 0 0 0 .566c1.431 3.322 4.123 5.384 7.027 5.384s5.596-2.062 7.027-5.384a.708.708 0 0 0 0-.566ZM8.5 12.75c-2.245 0-4.37-1.622-5.596-4.25C4.13 5.872 6.254 4.25 8.5 4.25c2.245 0 4.37 1.622 5.596 4.25-1.226 2.628-3.35 4.25-5.596 4.25Zm0-7.083a2.833 2.833 0 1 0 0 5.666 2.833 2.833 0 0 0 0-5.666Zm0 4.25a1.417 1.417 0 1 1 0-2.834 1.417 1.417 0 0 1 0 2.834Z" />
    </symbol>
    <symbol viewBox="0 0 24 24" id="file" xmlns="http://www.w3.org/2000/svg">
        <path d="M20 8.94a1.307 1.307 0 0 0-.06-.27v-.09a1.07 1.07 0 0 0-.19-.28l-6-6a1.071 1.071 0 0 0-.28-.19h-.09a.88.88 0 0 0-.33-.11H7a3 3 0 0 0-3 3v14a3 3 0 0 0 3 3h10a3 3 0 0 0 3-3V8.94Zm-6-3.53L16.59 8H15a1 1 0 0 1-1-1V5.41ZM18 19a1 1 0 0 1-1 1H7a1 1 0 0 1-1-1V5a1 1 0 0 1 1-1h5v3a3 3 0 0 0 3 3h3v9Z" />
    </symbol>
    <symbol viewBox="0 0 18 18" id="filters" xmlns="http://www.w3.org/2000/svg">
        <path d="M14.25 1.5H3.75A2.25 2.25 0 0 0 1.5 3.75v.878c0 .31.064.616.188.9v.045c.105.24.256.459.442.644l4.62 4.59v4.943a.75.75 0 0 0 .75.75.75.75 0 0 0 .338-.082l3-1.5a.75.75 0 0 0 .412-.668v-3.443l4.59-4.59c.186-.185.337-.404.442-.644v-.046a2.25 2.25 0 0 0 .218-.9V3.75a2.25 2.25 0 0 0-2.25-2.25ZM9.967 9.967a.75.75 0 0 0-.217.533v3.285l-1.5.75V10.5a.75.75 0 0 0-.217-.533L4.058 6h9.885L9.967 9.967ZM15 4.5H3v-.75A.75.75 0 0 1 3.75 3h10.5a.75.75 0 0 1 .75.75v.75Z" />
    </symbol>
    <symbol viewBox="0 0 16 16" id="grid" xmlns="http://www.w3.org/2000/svg">
        <path d="M.504 0h2.685a.51.51 0 0 1 .503.504v2.685a.51.51 0 0 1-.503.503H.504A.51.51 0 0 1 0 3.19V.504A.51.51 0 0 1 .504 0ZM.504 6.154h2.685a.51.51 0 0 1 .503.504v2.685a.51.51 0 0 1-.503.504H.504A.51.51 0 0 1 0 9.343V6.658a.51.51 0 0 1 .504-.504ZM.504 12.308h2.685a.51.51 0 0 1 .503.504v2.685a.51.51 0 0 1-.503.504H.504A.51.51 0 0 1 0 15.497v-2.685a.51.51 0 0 1 .504-.504ZM6.66 0h2.685a.51.51 0 0 1 .504.504v2.685a.51.51 0 0 1-.504.503H6.66a.51.51 0 0 1-.504-.503V.504A.51.51 0 0 1 6.66 0ZM12.812 0h2.686A.51.51 0 0 1 16 .504v2.685a.51.51 0 0 1-.503.503h-2.686a.51.51 0 0 1-.503-.503V.504A.51.51 0 0 1 12.812 0ZM6.66 6.154h2.685a.51.51 0 0 1 .504.504v2.685a.51.51 0 0 1-.504.504H6.66a.51.51 0 0 1-.504-.504V6.658a.51.51 0 0 1 .504-.504ZM6.66 12.308h2.685a.51.51 0 0 1 .504.504v2.685a.51.51 0 0 1-.504.504H6.66a.51.51 0 0 1-.504-.504v-2.685a.51.51 0 0 1 .504-.504ZM12.812 6.154h2.686a.51.51 0 0 1 .503.504v2.685a.51.51 0 0 1-.503.504h-2.686a.51.51 0 0 1-.503-.504V6.658a.51.51 0 0 1 .503-.504ZM12.812 12.308h2.686a.51.51 0 0 1 .503.504v2.685a.51.51 0 0 1-.503.504h-2.686a.51.51 0 0 1-.503-.504v-2.685a.51.51 0 0 1 .503-.504Z" />
    </symbol>
    <symbol viewBox="0 0 16 16" id="list" xmlns="http://www.w3.org/2000/svg">
        <path d="M.503 0H3.19a.51.51 0 0 1 .503.503V3.19a.51.51 0 0 1-.503.503H.503A.51.51 0 0 1 0 3.19V.503A.51.51 0 0 1 .503 0ZM.503 6.154H3.19a.51.51 0 0 1 .503.503v2.685a.51.51 0 0 1-.503.504H.503A.51.51 0 0 1 0 9.342V6.657a.51.51 0 0 1 .503-.503ZM.503 12.308H3.19a.51.51 0 0 1 .503.503v2.685A.51.51 0 0 1 3.19 16H.503A.51.51 0 0 1 0 15.496v-2.685a.51.51 0 0 1 .503-.503ZM6.66 6.154h8.839a.51.51 0 0 1 .503.503v2.685a.51.51 0 0 1-.503.504h-8.84a.51.51 0 0 1-.503-.504V6.657a.51.51 0 0 1 .504-.503ZM6.66 0h8.839a.51.51 0 0 1 .503.503V3.19a.51.51 0 0 1-.503.503h-8.84a.51.51 0 0 1-.503-.503V.503A.51.51 0 0 1 6.66 0ZM6.66 12.308h8.839a.51.51 0 0 1 .503.503v2.685A.51.51 0 0 1 15.5 16h-8.84a.51.51 0 0 1-.503-.504v-2.685a.51.51 0 0 1 .504-.503Z" />
    </symbol>
    <symbol viewBox="0 0 20 20" id="location" xmlns="http://www.w3.org/2000/svg">
        <path d="M10 9a1.667 1.667 0 1 0 0-3.333A1.667 1.667 0 0 0 10 9Zm-.592 5.759a.833.833 0 0 0 1.183 0L14 11.342a5.659 5.659 0 1 0-8 0l3.408 3.417ZM6.025 6.95A4.008 4.008 0 0 1 7.8 3.992a4.008 4.008 0 0 1 4.4 0 4.017 4.017 0 0 1 .625 6.175L10 12.992l-2.825-2.825a3.976 3.976 0 0 1-1.15-3.217Zm9.808 9.717H4.166a.834.834 0 0 0 0 1.667h11.667a.834.834 0 0 0 0-1.667Z" />
    </symbol>
    <symbol viewBox="0 0 20 20" id="mail" xmlns="http://www.w3.org/2000/svg">
        <path d="M15.834 3.333H4.167a2.5 2.5 0 0 0-2.5 2.5v8.333a2.5 2.5 0 0 0 2.5 2.5h11.667a2.5 2.5 0 0 0 2.5-2.5V5.833a2.5 2.5 0 0 0-2.5-2.5ZM15.492 5l-4.9 4.9a.833.833 0 0 1-1.183 0L4.509 5h10.983Zm1.175 9.166a.833.833 0 0 1-.833.834H4.167a.833.833 0 0 1-.833-.834V6.175l4.9 4.9a2.5 2.5 0 0 0 3.533 0l4.9-4.9v7.991Z" />
    </symbol>
    <symbol viewBox="0 0 24 24" id="menu" xmlns="http://www.w3.org/2000/svg">
        <path d="M21 12a.75.75 0 0 1-.75.75H3.75a.75.75 0 1 1 0-1.5h16.5A.75.75 0 0 1 21 12ZM3.75 6.75h16.5a.75.75 0 1 0 0-1.5H3.75a.75.75 0 0 0 0 1.5Zm16.5 10.5H3.75a.75.75 0 1 0 0 1.5h16.5a.75.75 0 1 0 0-1.5Z" />
    </symbol>
    <symbol viewBox="0 0 29 29" id="menu-2" xmlns="http://www.w3.org/2000/svg">
        <path d="M15.708 19.333H3.624a1.208 1.208 0 1 0 0 2.417h12.084a1.208 1.208 0 1 0 0-2.417ZM3.624 9.667h21.75a1.208 1.208 0 1 0 0-2.417H3.624a1.208 1.208 0 0 0 0 2.417Zm21.75 3.625H3.624a1.208 1.208 0 1 0 0 2.416h21.75a1.208 1.208 0 1 0 0-2.416Z" />
    </symbol>
    <symbol viewBox="0 0 20 20" id="nav" xmlns="http://www.w3.org/2000/svg">
        <path d="M6.806 3.135a.935.935 0 0 0-.631.529c-.062.148-.067.476-.01.653.035.11.525.616 2.813 2.908L11.749 10l-2.771 2.775C6.69 15.067 6.2 15.573 6.165 15.683c-.058.178-.052.505.011.655.073.174.271.38.447.465a.98.98 0 0 0 .748.003c.105-.051 1.022-.949 3.284-3.214 3.405-3.409 3.223-3.206 3.223-3.592 0-.386.182-.183-3.223-3.592C8.5 4.25 7.475 3.245 7.383 3.202a.987.987 0 0 0-.577-.067" fill-rule="evenodd" />
    </symbol>
    <symbol viewBox="0 0 20 20" id="phone" xmlns="http://www.w3.org/2000/svg">
        <path d="M16.2 10.834c-.183 0-.375-.059-.558-.1a7.861 7.861 0 0 1-1.092-.325 1.667 1.667 0 0 0-2.067.833l-.183.375a10.15 10.15 0 0 1-2.217-1.667 10.149 10.149 0 0 1-1.666-2.216l.35-.234A1.667 1.667 0 0 0 9.6 5.434a8.608 8.608 0 0 1-.325-1.092 6.182 6.182 0 0 1-.1-.567 2.5 2.5 0 0 0-2.5-2.075h-2.5a2.5 2.5 0 0 0-2.5 2.842A15.833 15.833 0 0 0 15.442 18.26h.316a2.5 2.5 0 0 0 2.285-1.482 2.5 2.5 0 0 0 .215-1.027v-2.5a2.5 2.5 0 0 0-2.058-2.416Zm.416 5a.833.833 0 0 1-.602.801.883.883 0 0 1-.364.032A14.166 14.166 0 0 1 3.392 4.35a.908.908 0 0 1 .208-.683.833.833 0 0 1 .625-.283h2.5a.833.833 0 0 1 .833.658c.034.228.075.453.125.675.096.44.225.871.384 1.292L6.9 6.55a.834.834 0 0 0-.408 1.109 12.075 12.075 0 0 0 5.833 5.833c.203.083.43.083.633 0a.831.831 0 0 0 .475-.433l.517-1.167c.43.154.87.282 1.317.383.222.05.447.092.675.125a.833.833 0 0 1 .658.834l.016 2.6Z" />
    </symbol>
    <symbol viewBox="0 0 18 18" id="play" xmlns="http://www.w3.org/2000/svg">
        <path d="M16.2 9 1.8 18.353V-.353L16.2 9Z" />
    </symbol>
    <symbol viewBox="0 0 24 24" id="search" xmlns="http://www.w3.org/2000/svg">
        <path d="M10.611 18.82c1.822 0 3.591-.61 5.026-1.732L20.15 21.6 21.6 20.15l-4.512-4.512a8.16 8.16 0 0 0 1.734-5.027c0-4.526-3.683-8.21-8.21-8.21C6.083 2.4 2.4 6.084 2.4 10.61c0 4.527 3.684 8.21 8.211 8.21Zm0-14.367a6.164 6.164 0 0 1 6.158 6.157 6.164 6.164 0 0 1-6.158 6.158 6.164 6.164 0 0 1-6.158-6.158 6.164 6.164 0 0 1 6.158-6.157Z" />
        <path d="M12.06 9.16c.39.39.604.905.604 1.45h2.053a4.082 4.082 0 0 0-1.205-2.902c-1.554-1.552-4.248-1.552-5.801 0l1.45 1.454c.78-.778 2.124-.776 2.9-.003Z" />
    </symbol>
</svg>