<svg width="117" height="30" viewBox="0 0 117 30" fill="none" xmlns="http://www.w3.org/2000/svg">
<g clip-path="url(#clip0_717_11572)">
<path d="M102.941 3.48657L111.893 26.3963H102.941L97.9027 12.4143L95.496 18.9071H99.226L101.922 26.3963H84.0728L92.8647 3.48657H102.941Z" fill="#FF3828"/>
<path d="M75.4082 11.9321H70.4023V3.48658L91.6501 3.48657L88.3367 11.9321H83.7193V26.3963H75.4082V11.9321Z" fill="#FF3828"/>
<path d="M50.4399 26.3963V3.48657H69.3771V18.2963L73.9664 26.3471L64.032 26.3963L59.6883 17.8785V14.7928H61.7183V11.6428H58.7827V26.3963H50.4399Z" fill="#FF3828"/>
<path d="M38.4816 10.9436V11.9321H49.167V18.3606H38.4816V19.3492H49.167V26.3963H30.1387V3.48658L49.167 3.48657V10.9436H38.4816Z" fill="#FF3828"/>
<path d="M14.0052 3.48658L20.2625 19.6293H21.1531L19.8695 16.0937V3.48657H28.8434V26.3471H14.0052L5.10107 3.48657L14.0052 3.48658Z" fill="#FF3828"/>
<path d="M105.322 0L117 29.883H71.9205V29.844L61.8994 29.8935L61.8942 29.883H26.6503V29.8338H11.6203L0 0H105.322ZM19.8696 16.0937L21.153 19.6294L20.2626 19.6293L14.0051 3.48662H5.10121L14.0051 26.3471H28.8435V3.48662H19.8696V16.0937ZM92.8647 3.48662L84.0727 26.3963H101.922L99.2259 18.9071L95.496 18.9071L97.9021 12.4143L102.94 26.3963H111.893L102.94 3.48662H92.8647ZM30.1385 26.3963H49.1669V19.3492H38.4814V18.3607H49.1669V11.9322H38.4814V10.9437H49.1669V3.48662L30.1385 3.48663V26.3963ZM50.4398 26.3963H58.7826V11.6429H61.7181V14.7929H59.6881V17.8786L64.0312 26.3963L73.9656 26.3471L69.3769 18.2964V3.48663H50.4398V26.3963ZM70.4024 11.9321L75.4083 11.9322V26.3963H83.7193V11.9322L88.3368 11.9321L91.6502 3.48662H70.4024V11.9321Z" fill="#FFF8F7"/>
</g>
<defs>
<clipPath id="clip0_717_11572">
<rect width="117" height="29.8935" fill="white"/>
</clipPath>
</defs>
</svg>
