<svg width="99" height="26" viewBox="0 0 99 26" fill="none" xmlns="http://www.w3.org/2000/svg">
<g clip-path="url(#clip0_717_12054)">
<path d="M87.1039 2.9502L94.6789 22.3353H87.1039L82.841 10.5044L80.8045 15.9983H83.9607L86.2416 22.3353H71.1387L78.578 2.9502H87.1039Z" fill="#282931"/>
<path d="M63.807 10.0964H59.5713V2.95021L77.5502 2.9502L74.7465 10.0964H70.8395V22.3353H63.807V10.0964Z" fill="#282931"/>
<path d="M42.6797 22.3353V2.9502H58.7034V15.4815L62.5867 22.2937L54.1806 22.3353L50.5052 15.128V12.517H52.2229V9.85166H49.739V22.3353H42.6797Z" fill="#282931"/>
<path d="M32.5613 9.26V10.0964H41.6029V15.536H32.5613V16.3724H41.6029V22.3353H25.502V2.95021L41.6029 2.9502V9.26H32.5613Z" fill="#282931"/>
<path d="M11.8507 2.95021L17.1453 16.6094H17.8989L16.8128 13.6177V2.9502H24.4061V22.2937H11.8507L4.31641 2.9502L11.8507 2.95021Z" fill="#282931"/>
<path d="M89.1188 0L99 25.2856H60.8558V25.2526L52.3764 25.2945L52.372 25.2856H22.5503V25.244H9.83253L0 0H89.1188ZM16.8128 13.6177L17.8987 16.6095L17.1453 16.6094L11.8505 2.95022H4.31641L11.8505 22.2937H24.4061V2.95022H16.8128V13.6177ZM78.5778 2.95022L71.1384 22.3353H86.2414L83.9604 15.9983L80.8043 15.9984L82.8402 10.5044L87.1032 22.3353H94.6786L87.1032 2.95022H78.5778ZM25.5018 22.3353H41.6027V16.3724H32.5612V15.536H41.6027V10.0965H32.5612V9.26002H41.6027V2.95022L25.5018 2.95022V22.3353ZM42.6798 22.3353H49.7391V9.85169H52.223V12.5171H50.5053V15.128L54.1802 22.3353L62.5863 22.2937L58.7035 15.4816V2.95022H42.6798V22.3353ZM59.5713 10.0964L63.807 10.0965V22.3353H70.8394V10.0965L74.7465 10.0964L77.5502 2.95022H59.5713V10.0964Z" fill="#FFF8F7"/>
</g>
<defs>
<clipPath id="clip0_717_12054">
<rect width="99" height="25.2945" fill="white"/>
</clipPath>
</defs>
</svg>
