<svg width="167" height="44" viewBox="0 0 167 44" fill="none" xmlns="http://www.w3.org/2000/svg">
<path d="M68.3156 29.7966C68.3156 29.457 68.0958 29.2057 67.6465 29.1078V28.888C67.8952 28.888 68.7236 28.9216 68.9567 28.9216C69.1582 28.9216 69.9604 28.888 70.2099 28.888V29.1078C69.793 29.1897 69.574 29.4376 69.574 29.7966V34.108C69.574 35.4733 70.3184 36.245 71.8756 36.245C73.2173 36.245 74.2613 35.6383 74.2613 34.2095V29.7798C74.2613 29.4596 74.0615 29.2057 73.5589 29.1078V28.888C73.7418 28.888 74.4267 28.9216 74.6606 28.9216C74.8604 28.9216 75.5792 28.888 75.7631 28.888V29.1078C75.2781 29.2243 75.0625 29.4428 75.0625 29.7798V33.972C75.0625 35.8535 73.9757 36.9341 71.6304 36.9341C69.447 36.9341 68.3156 35.9346 68.3156 34.167V29.7966Z" fill="white"/>
<path d="M77.6811 36.5963C78.1891 36.501 78.3896 36.2419 78.3896 35.9242V29.9652C78.3896 29.4598 78.1224 29.2325 77.667 29.1072V28.8874C77.9247 28.9068 78.3571 28.9182 78.5779 28.9182C78.7784 28.9182 79.0902 28.9148 79.3003 28.8874L84.4324 34.9647V29.78C84.4324 29.4606 84.231 29.2067 83.7302 29.1072V28.8874C83.914 28.8874 84.5744 28.9218 84.8091 28.9218C85.0132 28.9218 85.7207 28.8874 85.9072 28.8874V29.1072C85.4176 29.2235 85.1814 29.444 85.1814 29.78V36.9341H84.8721C84.6775 36.8891 84.3098 36.6784 83.7494 36.0593L79.1577 30.6727V35.9242C79.1577 36.2435 79.3406 36.4966 79.8416 36.5963V36.8168C79.6578 36.8168 78.9974 36.7817 78.7628 36.7817C78.5604 36.7817 77.8675 36.8168 77.6811 36.8168V36.5963Z" fill="white"/>
<path d="M118.177 34.9893H118.394C118.509 35.4346 118.762 35.8406 119.116 36.0751C119.485 36.337 120.064 36.4623 120.532 36.4623C121.564 36.4623 122.219 35.9472 122.219 35.1321C122.219 34.2881 121.38 33.8498 120.376 33.3443C119.629 32.9678 118.161 32.346 118.161 30.917C118.161 29.5859 119.169 28.7578 120.782 28.7578C121.846 28.7578 122.345 29.0197 123.063 28.9862L123.049 30.6012H122.83C122.543 29.6494 121.684 29.3178 120.745 29.3178C119.694 29.3178 119.301 29.9231 119.301 30.5387C119.301 31.4199 120.157 31.8642 121.127 32.3001C122.219 32.7896 123.403 33.4079 123.403 34.7847C123.403 36.0883 122.39 37.0322 120.54 37.0322C119.439 37.0322 118.778 36.7156 118.2 36.6439L118.177 34.9893Z" fill="white"/>
<path d="M140.232 33.5365L138.143 30.1603C137.786 29.5676 137.513 29.2551 137.115 29.1071V28.8881C137.402 28.8881 138.175 28.9227 138.395 28.9227C138.593 28.9227 139.428 28.8881 139.729 28.8881V29.1071C139.462 29.1546 139.337 29.2895 139.337 29.4925C139.337 29.6715 139.458 29.9018 139.58 30.102C139.699 30.3004 141.12 32.6749 141.12 32.6749L142.605 30.103C142.755 29.8453 142.86 29.5895 142.86 29.4209C142.86 29.2675 142.753 29.1404 142.5 29.1071V28.8881C142.751 28.8881 143.279 28.9227 143.447 28.9227C143.615 28.9227 144.222 28.8881 144.472 28.8881V29.0921C143.901 29.3276 143.544 29.8321 143.198 30.4168L141.299 33.6143M141.428 33.2111V35.9083C141.428 36.1756 141.631 36.5116 142.088 36.5961V36.8169C141.833 36.8169 141.001 36.7815 140.76 36.7815C140.558 36.7815 139.76 36.8169 139.472 36.8169V36.5961C139.931 36.5116 140.151 36.1756 140.151 35.9083V33.3294" fill="white"/>
<path d="M101.404 28.8883H106.304C106.455 28.8883 106.721 28.8707 106.872 28.8046H107.091L107.057 30.408H106.84C106.653 29.9035 106.46 29.4996 105.511 29.4996H103.384V32.2939H105.024C105.263 32.2939 105.553 32.2735 105.678 32.2435C106.046 32.1624 106.209 31.9559 106.283 31.6394H106.502C106.486 31.8809 106.486 32.4323 106.486 32.5955C106.486 32.7596 106.502 33.3399 106.502 33.6028H106.283C106.178 33.287 106.034 33.047 105.678 32.9589C105.553 32.9254 105.258 32.898 105.024 32.898H103.384V36.1758H105.698C106.709 36.1758 107.002 35.7514 107.253 35.1517L107.47 35.2026L107.253 36.8496C106.502 36.7825 106.051 36.7825 105.198 36.7825H102.753C102.517 36.7825 101.653 36.817 101.401 36.817V36.5973C101.843 36.5126 102.1 36.2928 102.1 35.8669V29.8049C102.1 29.4291 101.9 29.1943 101.404 29.1106V28.8883Z" fill="white"/>
<path d="M88.8895 29.8479C88.8895 29.4413 88.6487 29.2174 88.1766 29.1149V28.8971C88.4394 28.8971 89.29 28.9305 89.5377 28.9305C89.7452 28.9305 90.6194 28.8971 90.8856 28.8971V29.1149C90.4161 29.2174 90.1699 29.4199 90.1699 29.8479V35.8678C90.1699 36.2743 90.4117 36.4957 90.8856 36.5961V36.8169C90.6202 36.8169 89.7819 36.7823 89.5377 36.7823C89.3265 36.7823 88.4394 36.8169 88.1758 36.8169V36.5961C88.6584 36.5054 88.8895 36.2929 88.8895 35.8678V29.8479Z" fill="white"/>
<path d="M126.059 29.8474C126.059 29.4408 125.816 29.2169 125.345 29.1144V28.8966C125.608 28.8966 126.459 28.93 126.705 28.93C126.914 28.93 127.788 28.8966 128.054 28.8966V29.1144C127.584 29.2169 127.339 29.4194 127.339 29.8474V35.8673C127.339 36.2738 127.581 36.4952 128.054 36.5957V36.8164C127.79 36.8164 126.953 36.7818 126.705 36.7818C126.497 36.7818 125.608 36.8164 125.345 36.8164V36.5957C125.826 36.505 126.059 36.2924 126.059 35.8673V29.8474Z" fill="white"/>
<path d="M132.871 28.9217C130.185 28.9217 129.755 28.8713 129.206 28.837L129.211 30.4706H129.429C129.63 29.7464 130.03 29.578 130.549 29.578H132.234V35.8678C132.234 36.2927 132.003 36.5054 131.519 36.5961V36.8169C131.784 36.8169 132.679 36.7823 132.886 36.7823C133.132 36.7823 133.973 36.8169 134.235 36.8169V36.5961C133.76 36.4957 133.519 36.2743 133.519 35.8678V29.578H135.191C135.729 29.578 136.113 29.7624 136.314 30.4706H136.53L136.534 28.837C135.988 28.8713 135.558 28.9217 132.871 28.9217Z" fill="white"/>
<path d="M111.438 35.8675C111.438 36.2741 111.694 36.4946 112.168 36.5959V36.8167C111.905 36.8167 111.046 36.7821 110.801 36.7821C110.591 36.7821 109.752 36.8167 109.487 36.8167V36.5959C109.927 36.5114 110.186 36.2926 110.186 35.8675V29.7861C110.186 29.4121 109.984 29.1766 109.489 29.0919V28.8731C109.752 28.8731 110.583 28.9065 110.818 28.9065C111.202 28.9065 112.295 28.8413 112.725 28.8413C114.608 28.8413 115.656 29.6255 115.656 30.9696C115.656 32.0262 114.876 32.7408 113.674 33.0327C113.674 33.0327 113.948 33.1931 114.222 33.5133C114.554 33.9075 115.45 35.2035 115.822 35.6566C116.194 36.111 116.669 36.6181 117.179 36.6411V36.8183C116.935 36.872 116.543 36.9189 116.244 36.9189C115.604 36.9189 115.094 36.6914 114.598 36.0873C114.169 35.5615 113.441 34.4705 113.013 33.9191C112.739 33.5681 112.407 33.2938 111.799 33.1931C111.682 33.1729 111.571 33.1561 111.438 33.1404V35.8675ZM111.438 32.6357C111.688 32.6701 112.057 32.6861 112.421 32.6861C113.895 32.6861 114.359 31.8322 114.359 31.0765C114.359 30.0074 113.651 29.345 112.361 29.345C112.094 29.345 111.706 29.3785 111.438 29.4295V32.6357Z" fill="white"/>
<path d="M92.7732 29.8733C92.6016 29.4905 92.338 29.21 91.8887 29.1105V28.8872C92.168 28.8872 93.1358 28.9226 93.3484 28.9226C93.544 28.9226 94.3898 28.8872 94.6773 28.8872V29.1041C94.4222 29.1535 94.1316 29.2955 94.1316 29.5584C94.1316 29.7462 94.2444 30.0021 94.4608 30.4838L96.4891 35.1318L98.4089 30.4758C98.5604 30.1 98.6699 29.809 98.6699 29.5866C98.6699 29.3407 98.4448 29.1703 98.1258 29.1041V28.8872C98.3809 28.8872 99.0061 28.9226 99.2005 28.9226C99.3783 28.9226 100.112 28.8872 100.393 28.8872V29.1105C99.9135 29.241 99.6217 29.5065 99.3529 30.1354L96.5276 36.8447H95.8883L92.7732 29.8733Z" fill="white"/>
<path d="M100.017 8.71356C99.6905 7.98757 99.1894 7.45836 98.3408 7.26877V6.84624C98.8689 6.84624 100.622 6.90977 101.025 6.90977C101.396 6.90977 103.095 6.84624 103.636 6.84624V7.25818C103.156 7.35268 102.604 7.62258 102.604 8.12082C102.604 8.47263 102.821 8.95889 103.224 9.86988L107.071 18.6787L110.712 9.85489C110.996 9.14049 111.208 8.5945 111.208 8.17197C111.208 7.70269 110.777 7.38444 110.173 7.25818V6.84624C110.655 6.84624 111.826 6.90977 112.198 6.90977C112.536 6.90977 113.927 6.84624 114.456 6.84624V7.245C113.549 7.49292 112.994 8.01774 112.488 9.20921L107.136 21.9272H105.925L100.017 8.71356Z" fill="white"/>
<path d="M48.2119 21.4429C48.9107 21.2823 49.4021 20.9623 49.4021 20.165V8.50534C49.4021 7.73979 48.9449 7.42215 48.2119 7.22996V6.81622C48.5789 6.81622 50.1596 6.87895 50.5441 6.87895C50.9872 6.87895 52.6441 6.81622 53.0085 6.81622V7.22996C52.3105 7.38958 51.793 7.70883 51.793 8.50534V13.3759H60.4176V8.50534C60.4176 7.70883 59.9578 7.38958 59.2292 7.22996V6.81622C59.5934 6.81622 61.2208 6.87895 61.6629 6.87895C62.0448 6.87895 63.6624 6.81622 64.023 6.81622V7.22996C63.3244 7.38958 62.8067 7.70883 62.8067 8.50534V20.165C62.8067 20.9305 63.2927 21.2515 64.023 21.4429V21.8247C63.6624 21.8247 62.0448 21.7931 61.6629 21.7931C61.2208 21.7931 59.5934 21.8247 59.2292 21.8247V21.4429C59.9229 21.2823 60.4176 20.9623 60.4176 20.165V14.6547H51.793V20.165C51.793 20.9623 52.2782 21.2515 53.0085 21.4429V21.8247C52.6441 21.8247 50.9872 21.7931 50.5441 21.7931C50.1596 21.7931 48.5789 21.8247 48.2119 21.8247V21.4429Z" fill="white"/>
<path d="M147.972 21.443C148.867 21.2824 149.36 20.9244 149.36 20.1015V8.5054C149.36 7.70629 148.874 7.38964 148.009 7.23002V6.81628C148.507 6.81628 150.129 6.87901 150.578 6.87901C151.303 6.87901 153.326 6.71939 154.901 6.71939C160.206 6.71939 163.427 9.70326 163.427 14.2404C163.427 18.6505 160.076 21.9185 154.606 21.9185C153.028 21.9185 151.158 21.7932 150.426 21.7932C149.981 21.7932 148.468 21.8565 147.972 21.8565V21.443ZM151.749 20.6746C152.289 20.7735 153.288 20.8353 154.075 20.8353C158.532 20.8353 160.852 18.1337 160.852 14.3657C160.852 10.4592 158.404 7.71068 154.237 7.71068C153.386 7.71068 152.322 7.77501 151.749 7.86871V20.6746Z" fill="white"/>
<path d="M87.9189 20.0591C87.9189 20.8319 88.4049 21.2516 89.2991 21.443V21.8567C88.8008 21.8567 87.178 21.7932 86.7112 21.7932C86.3171 21.7932 84.7248 21.8567 84.2275 21.8567V21.443C85.0577 21.2826 85.5472 20.8662 85.5472 20.0591V8.54617C85.5472 7.83776 85.1672 7.38986 84.2291 7.23004V6.8163C84.7276 6.8163 86.3004 6.87903 86.7418 6.87903C87.4714 6.87903 89.5401 6.75656 90.3562 6.75656C93.9241 6.75656 95.9103 8.24271 95.9103 10.7847C95.9103 12.7886 94.4286 14.1371 92.1543 14.6937C92.1543 14.6937 92.6701 14.9964 93.1892 15.6057C93.819 16.3511 95.5567 18.8561 96.2591 19.7141C96.9613 20.5734 97.8624 21.5329 98.8259 21.5771V21.9151C98.3643 22.0154 97.6252 22.1011 97.0603 22.1011C95.8439 22.1011 94.8779 21.6724 93.9382 20.5256C93.1281 19.5307 91.711 17.4157 90.8991 16.3715C90.3808 15.7062 89.7555 15.1878 88.6074 14.9964C88.3813 14.9574 88.1686 14.9275 87.9189 14.8993V20.0591ZM87.9189 13.9442C88.391 14.0067 89.0888 14.0385 89.7809 14.0385C92.5711 14.0385 93.4477 12.4209 93.4477 10.9918C93.4477 8.96251 92.1059 7.7107 89.6617 7.7107C89.1581 7.7107 88.4243 7.77523 87.9189 7.86873V13.9442Z" fill="white"/>
<path d="M134.945 20.0591C134.945 20.8319 135.432 21.2516 136.328 21.443V21.8567C135.83 21.8567 134.209 21.7932 133.742 21.7932C133.341 21.7932 131.754 21.8567 131.255 21.8567V21.443C132.083 21.2826 132.574 20.8662 132.574 20.0591V8.54617C132.574 7.83776 132.19 7.38986 131.258 7.23004V6.8163C131.758 6.8163 133.325 6.87903 133.77 6.87903C134.501 6.87903 136.569 6.75656 137.38 6.75656C140.954 6.75656 142.934 8.24271 142.934 10.7847C142.934 12.7886 141.456 14.1371 139.18 14.6937C139.18 14.6937 139.698 14.9964 140.213 15.6057C140.849 16.3511 142.587 18.8561 143.286 19.7141C143.991 20.5734 144.893 21.5329 145.851 21.5771V21.9151C145.395 22.0154 144.652 22.1011 144.093 22.1011C142.874 22.1011 141.904 21.6724 140.966 20.5256C140.156 19.5307 138.744 17.4157 137.925 16.3715C137.406 15.7062 136.783 15.1878 135.637 14.9964C135.408 14.9574 135.198 14.9275 134.945 14.8993V20.0591ZM134.945 13.9442C135.423 14.0067 136.116 14.0385 136.809 14.0385C139.6 14.0385 140.474 12.4209 140.474 10.9918C140.474 8.96251 139.132 7.7107 136.692 7.7107C136.184 7.7107 135.453 7.77523 134.945 7.86873V13.9442Z" fill="white"/>
<path d="M66.2928 21.4401C67.2368 21.218 67.7553 20.6022 68.0995 19.7784L72.8761 8.20365C73.0792 7.72479 73.3156 6.74028 73.3156 6.74028H74.6522C74.6522 6.74028 74.8912 7.72738 75.09 8.20725L80.1379 19.8101C80.498 20.6092 80.8876 21.1862 81.8913 21.4401L81.8887 21.8257C81.3422 21.8257 79.6432 21.7939 79.2568 21.7939C78.8724 21.7939 77.2496 21.8257 76.7041 21.8257L76.7059 21.4401C77.4406 21.2585 77.6727 20.8819 77.6727 20.5175C77.6727 20.2081 77.5457 19.8587 77.3916 19.4963L76.3064 17.0035H70.7443L69.7505 19.5103C69.6392 19.7943 69.5069 20.1957 69.5069 20.4664C69.5069 20.8845 69.7241 21.218 70.5578 21.4401L70.556 21.8257C70.0621 21.8257 68.758 21.7939 68.4526 21.7939L66.292 21.8257L66.2928 21.4401ZM75.8029 15.8216L73.4277 10.2482L71.2156 15.8216H75.8029Z" fill="white"/>
<path d="M113.613 21.4401C114.557 21.218 115.077 20.6022 115.419 19.7784L120.197 8.20365C120.401 7.72479 120.64 6.74028 120.64 6.74028H121.976C121.976 6.74028 122.213 7.72738 122.411 8.20725L127.46 19.8101C127.817 20.6092 128.211 21.1862 129.21 21.4401L129.208 21.8257C128.664 21.8257 126.963 21.7939 126.574 21.7939C126.193 21.7939 124.571 21.8257 124.024 21.8257V21.4401C124.764 21.2585 124.992 20.8819 124.992 20.5175C124.992 20.2081 124.867 19.8587 124.716 19.4963L123.626 17.0035H118.064L117.069 19.5103C116.958 19.7943 116.826 20.1957 116.826 20.4664C116.826 20.8845 117.044 21.218 117.877 21.4401V21.8257C117.382 21.8257 116.08 21.7939 115.772 21.7939L113.611 21.8257L113.613 21.4401ZM123.123 15.8216L120.746 10.2482L118.536 15.8216H123.123Z" fill="white"/>
<path d="M4.11328 2.13643H37.4175V14.8067C37.4175 20.6121 35.2718 32.9233 20.8897 42.0859C20.8897 42.0859 5.30604 35.5314 4.11328 14.8067L4.11328 2.13643Z" fill="#A81D28"/>
<path d="M4.04492 2.10289H37.3814V14.782C37.3814 20.5893 35.2332 32.9074 20.838 42.0762C20.838 42.0762 5.23947 35.5175 4.04492 14.782L4.04492 2.10289Z" stroke="#12110C" stroke-width="0.306667"/>
<path d="M29.3208 18.4176C29.3208 18.4176 29.0239 19.3709 27.7034 18.391L23.1694 18.2807C23.1694 18.2807 22.5757 18.4731 22.495 17.8476C22.495 17.8476 22.6037 16.598 22.5485 16.4885C22.5485 16.4885 22.5757 16.1357 21.98 16.1357C21.98 16.1357 21.064 16.2442 21.0368 15.4275C21.0368 15.4275 20.8767 14.5579 22.1439 14.5868C22.1439 14.5868 22.5485 14.7764 22.5757 14.2588C22.5757 14.2588 22.5223 10.7245 22.5485 10.4546C22.5485 10.4546 22.657 10.13 22.0351 10.0744C22.0351 10.0744 21.1455 10.264 21.0368 9.6679C21.0368 9.6679 20.9834 8.7709 21.5781 8.71536C21.5781 8.71536 22.3059 8.7709 22.4406 8.57951C22.4406 8.57951 22.6037 8.68699 22.5757 8.03791L22.6037 6.92116C22.6037 6.92116 22.6816 6.62309 23.1414 6.65226C23.1414 6.65226 23.9785 6.706 24.088 6.62309C24.088 6.62309 24.2747 6.37976 24.3298 6.26928C24.3298 6.26928 24.7624 6.24291 24.8422 6.35219C24.8422 6.35219 25.4902 6.78711 27.9458 6.62309C27.9458 6.62309 28.3243 6.62309 28.403 6.73257C28.403 6.73257 28.8636 7.08517 29.1326 6.706C29.1326 6.706 29.5372 6.62309 30.751 6.65226C30.751 6.65226 32.0751 7.00407 32.9904 6.24291L33.2881 6.29765C33.2881 6.29765 33.6656 6.92116 33.9354 6.73257C33.9354 6.73257 34.7455 6.65226 34.8794 6.81448C34.8794 6.81448 35.1483 7.21943 35.0143 8.28304C35.0143 8.28304 34.8542 8.74353 35.6361 8.74353C35.6361 8.74353 36.5278 8.57951 36.4181 9.42177C36.4181 9.42177 36.6607 10.3735 35.1781 10.2385C35.1781 10.2385 34.9881 10.5102 35.0143 10.7007C35.0143 10.7007 34.9881 13.7975 34.9609 14.1529C34.9609 14.1529 34.9345 14.6426 35.581 14.6142C35.581 14.6142 36.4454 14.5579 36.4742 15.3472C36.4742 15.3472 36.5811 16.38 35.3384 16.1886C35.3384 16.1886 34.9609 16.2442 34.9048 16.4885L34.8542 17.8476C34.8542 17.8476 34.8794 18.5268 34.1254 18.3628C34.0177 18.3628 29.9163 18.4467 29.5644 18.3382C29.5644 18.3382 29.3734 18.3109 29.3208 18.4176Z" fill="white"/>
<path d="M20.6043 22.9603C20.6043 22.9603 20.7936 22.88 20.8469 22.7459C20.8469 22.7459 21.4144 22.6902 21.494 22.6093L23.2763 22.7459C23.2763 22.7459 25.0296 22.88 25.7854 22.334C25.7854 22.334 26.0569 22.334 26.246 22.4169C26.246 22.4169 26.6217 22.4998 26.7294 22.6604L27.7559 22.6331C27.7559 22.6331 28.3496 22.8252 28.2945 23.2062V23.6941C28.2945 23.6941 28.186 24.6732 28.4557 24.7287H29.2403C29.2403 24.7287 29.8885 25.027 29.807 25.407C29.807 25.407 29.8342 25.9486 29.2684 26.0588C29.2684 26.0588 28.6991 26.2211 28.5125 26.1955C28.5125 26.1955 28.3224 26.439 28.2945 26.7379L28.2157 30.2987C28.2157 30.2987 28.1606 30.6789 28.7281 30.625C28.7281 30.625 29.5626 30.543 29.807 31.0069C29.807 31.0069 30.0232 31.7937 29.5916 31.9295L29.2684 32.0909L28.565 32.204C28.565 32.204 28.2701 32.2286 28.2419 32.7446V33.6943C28.2419 33.6943 28.2701 34.349 27.7559 34.349L27.0001 34.4035C27.0001 34.4035 26.8117 34.5642 26.4344 34.4557C26.4344 34.4557 21.8461 34.5394 21.684 34.4841L21.1439 34.5941C21.1439 34.5941 20.5508 35.1375 20.0648 34.7282L19.6873 34.4291C19.6873 34.4291 19.4167 34.4841 19.3108 34.4557C19.2023 34.4291 14.2365 34.5112 14.2365 34.5112C14.2365 34.5112 13.1837 34.6215 13.104 34.2661C13.104 34.2661 12.9693 32.8812 13.0227 32.7154C13.0227 32.7154 13.0227 32.3097 12.7801 32.2833C12.7801 32.2833 11.7274 32.2286 11.7002 32.1183C11.7002 32.1183 11.1327 31.7127 11.2947 31.3058C11.2947 31.3058 11.4848 30.76 12.0505 30.7061C12.0505 30.7061 12.914 30.8437 12.914 30.5986C12.914 30.5986 12.9693 30.4354 12.9693 30.1647C12.9693 30.1647 13.0227 26.9285 12.9955 26.7115C12.9955 26.7115 13.076 26.304 12.7249 26.304C12.7249 26.304 12.3474 26.4116 12.1056 26.2494C12.1056 26.2494 11.4576 26.2768 11.3227 25.7598C11.3227 25.7598 11.2142 25.4343 11.3753 25.16C11.3753 25.16 11.6732 24.5629 12.5367 24.7541C12.5367 24.7541 13.0227 24.8909 13.076 24.5389L13.0506 23.2318C13.0506 23.2318 12.9411 22.88 13.6164 22.6902C13.6164 22.6902 14.4799 22.9337 14.7488 22.4998C14.7488 22.4998 15.0466 21.8999 15.2866 22.3076C15.2866 22.3076 15.8015 22.7981 17.2046 22.7459C17.2046 22.7459 19.6339 22.5537 19.6873 22.6604C19.6873 22.6604 20.2812 22.7459 20.4423 22.9337L20.6043 22.9603Z" fill="white"/>
<path d="M13.2674 18.4178C13.2674 18.4178 12.9697 19.3711 11.6474 18.3904L7.11418 18.2809C7.11418 18.2809 6.52048 18.4733 6.43895 17.8472C6.43895 17.8472 6.54766 16.5982 6.49152 16.4887C6.49152 16.4887 6.52048 16.1341 5.92579 16.1341C5.92579 16.1341 5.00975 16.2452 4.98336 15.4295C4.98336 15.4295 4.82051 14.5571 6.08864 14.5871C6.08864 14.5871 6.49152 14.7766 6.52048 14.26C6.52048 14.26 6.46613 10.7274 6.49152 10.4541C6.49152 10.4541 6.60181 10.1312 5.98093 10.0755C5.98093 10.0755 5.08929 10.2643 4.98336 9.66633C4.98336 9.66633 4.92822 8.77113 5.52113 8.71559C5.52113 8.71559 6.24991 8.77113 6.38559 8.58314C6.38559 8.58314 6.54766 8.68822 6.52048 8.03535L6.54766 6.92239C6.54766 6.92239 6.62898 6.62332 7.08522 6.65069C7.08522 6.65069 7.9243 6.70443 8.0328 6.62332C8.0328 6.62332 8.22125 6.37999 8.27282 6.26952C8.27282 6.26952 8.70724 6.24394 8.78777 6.34982C8.78777 6.34982 9.43404 6.78734 11.8924 6.62332C11.8924 6.62332 12.2681 6.62332 12.3496 6.7328C12.3496 6.7328 12.8076 7.08541 13.0774 6.70443C13.0774 6.70443 13.482 6.62332 14.6974 6.65069C14.6974 6.65069 16.0173 7.0035 16.9361 6.24394L17.2321 6.29968C17.2321 6.29968 17.6096 6.92239 17.8819 6.7328C17.8819 6.7328 18.6903 6.65069 18.8259 6.81471C18.8259 6.81471 19.0965 7.22225 18.959 8.28327C18.959 8.28327 18.7988 8.74456 19.5809 8.74456C19.5809 8.74456 20.4706 8.58314 20.3638 9.422C20.3638 9.422 20.6072 10.3737 19.1229 10.2387C19.1229 10.2387 18.9329 10.5112 18.959 10.701C18.959 10.701 18.9329 13.7977 18.9065 14.1531C18.9065 14.1531 18.8803 14.6392 19.5275 14.6144C19.5275 14.6144 20.391 14.5571 20.4172 15.3484C20.4172 15.3484 20.5249 16.3803 19.2848 16.1889C19.2848 16.1889 18.9065 16.2452 18.8513 16.4887L18.7988 17.8472C18.7988 17.8472 18.8259 18.5271 18.0684 18.3648C17.9607 18.3648 13.8613 18.4452 13.509 18.3385C13.509 18.3385 13.3208 18.3111 13.2674 18.4178Z" fill="white"/>
<path d="M29.3208 18.4176C29.3208 18.4176 29.0239 19.3709 27.7034 18.391L23.1694 18.2807C23.1694 18.2807 22.5757 18.4731 22.495 17.8476C22.495 17.8476 22.6037 16.598 22.5485 16.4885C22.5485 16.4885 22.5757 16.1357 21.98 16.1357C21.98 16.1357 21.064 16.2442 21.0368 15.4275C21.0368 15.4275 20.8767 14.5579 22.1439 14.5868C22.1439 14.5868 22.5485 14.7764 22.5757 14.2588C22.5757 14.2588 22.5223 10.7245 22.5485 10.4546C22.5485 10.4546 22.657 10.13 22.0351 10.0744C22.0351 10.0744 21.1455 10.264 21.0368 9.6679C21.0368 9.6679 20.9834 8.7709 21.5781 8.71536C21.5781 8.71536 22.3059 8.7709 22.4406 8.57951C22.4406 8.57951 22.6037 8.68699 22.5757 8.03791L22.6037 6.92116C22.6037 6.92116 22.6816 6.62309 23.1414 6.65226C23.1414 6.65226 23.9785 6.706 24.088 6.62309C24.088 6.62309 24.2747 6.37976 24.3298 6.26928C24.3298 6.26928 24.7624 6.24291 24.8422 6.35219C24.8422 6.35219 25.4902 6.78711 27.9458 6.62309C27.9458 6.62309 28.3243 6.62309 28.403 6.73257C28.403 6.73257 28.8636 7.08517 29.1326 6.706C29.1326 6.706 29.5372 6.62309 30.751 6.65226C30.751 6.65226 32.0751 7.00407 32.9904 6.24291L33.2881 6.29765C33.2881 6.29765 33.6656 6.92116 33.9354 6.73257C33.9354 6.73257 34.7455 6.65226 34.8794 6.81448C34.8794 6.81448 35.1483 7.21943 35.0143 8.28304C35.0143 8.28304 34.8542 8.74353 35.6361 8.74353C35.6361 8.74353 36.5278 8.57951 36.4181 9.42177C36.4181 9.42177 36.6607 10.3735 35.1781 10.2385C35.1781 10.2385 34.9881 10.5102 35.0143 10.7007C35.0143 10.7007 34.9881 13.7975 34.9609 14.1529C34.9609 14.1529 34.9345 14.6426 35.581 14.6142C35.581 14.6142 36.4454 14.5579 36.4742 15.3472C36.4742 15.3472 36.5811 16.38 35.3384 16.1886C35.3384 16.1886 34.9609 16.2442 34.9048 16.4885L34.8542 17.8476C34.8542 17.8476 34.8794 18.5268 34.1254 18.3628C34.0177 18.3628 29.9163 18.4467 29.5644 18.3382C29.5644 18.3382 29.3734 18.3109 29.3208 18.4176Z" fill="#12110C"/>
<path d="M29.3207 18.4184C29.3207 18.4184 29.0237 19.3719 27.7032 18.392L23.1682 18.2817C23.1682 18.2817 22.5745 18.4739 22.494 17.8478C22.494 17.8478 22.6035 16.598 22.5474 16.4885C22.5474 16.4885 22.5745 16.1357 21.9798 16.1357C21.9798 16.1357 21.063 16.2452 21.0358 15.4283C21.0358 15.4283 20.8756 14.5587 22.1427 14.5869C22.1427 14.5869 22.5474 14.7766 22.5745 14.2598C22.5745 14.2598 22.5212 10.7254 22.5474 10.4547C22.5474 10.4547 22.6569 10.1292 22.035 10.0745C22.035 10.0745 21.1443 10.2643 21.0358 9.66793C21.0358 9.66793 20.9833 8.76993 21.577 8.71539C21.577 8.71539 22.3048 8.76993 22.4398 8.57954C22.4398 8.57954 22.6035 8.68702 22.5745 8.03695L22.6035 6.92039C22.6035 6.92039 22.6805 6.62232 23.1421 6.65149C23.1421 6.65149 23.9783 6.70523 24.0871 6.62232C24.0871 6.62232 24.2737 6.37979 24.3297 6.26931C24.3297 6.26931 24.7615 6.24214 24.842 6.35162C24.842 6.35162 25.4893 6.78634 27.9456 6.62232C27.9456 6.62232 28.3241 6.62232 28.4028 6.7316C28.4028 6.7316 28.8634 7.08441 29.1324 6.70523C29.1324 6.70523 29.5371 6.62232 30.7509 6.65149C30.7509 6.65149 32.0749 7.0033 32.991 6.24214L33.2889 6.29589C33.2889 6.29589 33.6662 6.92039 33.9352 6.7316C33.9352 6.7316 34.7453 6.65149 34.8792 6.81271C34.8792 6.81271 35.149 7.21946 35.0151 8.28127C35.0151 8.28127 34.854 8.74356 35.6368 8.74356C35.6368 8.74356 36.5276 8.57954 36.4179 9.42101C36.4179 9.42101 36.6605 10.3735 35.1779 10.2377C35.1779 10.2377 34.9887 10.5094 35.0151 10.7008C35.0151 10.7008 34.9887 13.7975 34.9615 14.1521C34.9615 14.1521 34.9343 14.6416 35.5816 14.6152C35.5816 14.6152 36.4469 14.5587 36.4748 15.3472C36.4748 15.3472 36.581 16.3801 35.339 16.1887C35.339 16.1887 34.9615 16.2452 34.9056 16.4885L34.854 17.8478C34.854 17.8478 34.8792 18.5279 34.1262 18.3638C34.0185 18.3638 29.9162 18.4468 29.5643 18.3383C29.5643 18.3383 29.3732 18.3117 29.3207 18.4184Z" stroke="#12110C" stroke-width="0.0133333"/>
<path d="M24.2209 7.22047C24.2209 7.22047 24.2742 7.76466 24.2742 7.90231C24.2742 8.03716 24.1947 15.755 24.1947 15.755C24.1947 15.755 24.2742 16.3529 23.7636 16.6528C23.7636 16.6528 23.627 16.7057 23.6016 16.3255L23.6543 8.1748C23.6543 8.1748 23.7085 7.16653 24.2209 7.22047Z" fill="white"/>
<path d="M24.2225 7.21954C24.2225 7.21954 24.275 7.76374 24.275 7.90138C24.275 8.03703 24.1963 15.7558 24.1963 15.7558C24.1963 15.7558 24.275 16.3538 23.7644 16.6526C23.7644 16.6526 23.6278 16.7066 23.6006 16.3264L23.6549 8.17388C23.6549 8.17388 23.7083 7.1656 24.2225 7.21954V7.21954Z" stroke="#12110C" stroke-width="0.016"/>
<path d="M23.3316 16.7331C23.3316 16.7331 23.3851 9.06926 23.3597 8.93341C23.3316 8.79936 23.3851 9.04449 23.3851 9.04449C23.3851 9.04449 23.3044 7.71078 23.6557 7.16578C23.6557 7.16578 23.5462 6.70629 22.9261 7.27606L22.8989 8.38902C22.8989 8.38902 22.8989 9.01532 22.3332 8.98795C22.3332 8.98795 21.6851 8.95978 21.3882 9.25885C21.3882 9.25885 21.2263 9.85758 21.8462 9.7501C21.8462 9.7501 22.8184 9.7501 22.8727 10.1549L22.8184 14.2599C22.8184 14.2599 23.0346 14.9425 22.2798 14.9425C22.2798 14.9425 21.3594 14.8844 21.3882 15.4551C21.3882 15.4551 21.5782 15.9436 22.3604 15.7822C22.3604 15.7822 22.9261 15.8889 22.8989 16.4349V17.4669C22.8989 17.4669 22.8446 17.8771 23.3851 17.9026H27.5948C27.5948 17.9026 27.8094 17.929 27.8094 17.6573C27.8094 17.6573 27.7832 17.4405 27.4599 17.4405L23.9524 17.3858C23.9524 17.3858 23.3851 17.5772 23.3316 16.7331Z" fill="white"/>
<path d="M24.1412 16.7208C24.1412 16.7208 24.0327 17.101 24.4371 17.0215H27.217L27.971 17.1865C27.971 17.1865 28.7531 16.9943 27.971 16.5602C27.971 16.5602 25.489 16.585 25.2736 16.5321C25.2736 16.5321 24.7604 16.397 24.65 16.3698C24.65 16.3698 24.383 16.2614 24.1412 16.7208Z" fill="white"/>
<path d="M24.1402 16.7205C24.1402 16.7205 24.0317 17.1015 24.4361 17.0222H27.2168L27.971 17.187C27.971 17.187 28.7537 16.994 27.971 16.5591C27.971 16.5591 25.4889 16.5837 25.2724 16.5317C25.2724 16.5317 24.7595 16.3959 24.65 16.3685C24.65 16.3685 24.382 16.26 24.1402 16.7205Z" stroke="#12110C" stroke-width="0.016"/>
<path d="M28.7546 17.1018C28.7546 17.1018 28.2422 17.1018 28.2686 17.7826C28.2686 17.7826 28.3227 18.2969 28.8623 18.2969C28.8623 18.2969 29.3465 18.2168 29.2949 17.6734C29.2949 17.6734 28.9972 16.9941 28.7546 17.1018Z" fill="white"/>
<path d="M29.1328 16.8308C29.1328 16.8308 29.3753 16.5601 29.5382 16.5601C29.5382 16.5601 32.2365 16.8034 32.692 16.478C32.692 16.478 33.0992 16.3969 33.2077 16.478C33.2077 16.478 33.6116 16.8034 33.6116 16.994C33.6116 16.994 33.5852 17.2399 33.0992 17.1007C33.0992 17.1007 30.0498 17.1306 29.8877 17.1306C29.8877 17.1306 29.0496 17.3194 29.1328 16.8308Z" fill="white"/>
<path d="M29.1318 16.831C29.1318 16.831 29.3744 16.5593 29.5372 16.5593C29.5372 16.5593 32.2364 16.8028 32.6928 16.4772C32.6928 16.4772 33.0998 16.3961 33.2085 16.4772C33.2085 16.4772 33.6122 16.8028 33.6122 16.995C33.6122 16.995 33.586 17.2412 33.0998 17.1017C33.0998 17.1017 30.0488 17.1317 29.8867 17.1317C29.8867 17.1317 29.0487 17.3205 29.1318 16.831V16.831Z" stroke="#12110C" stroke-width="0.016"/>
<path d="M29.4824 17.7122C29.4824 17.7122 29.4824 17.4924 29.8607 17.4924L33.6371 17.4661C33.6371 17.4661 33.9892 17.6566 33.9892 17.0056C33.9892 17.0056 34.1275 14.0431 34.1398 10.7813C34.1442 9.81018 34.188 8.79151 34.1539 7.84756C34.1539 7.84756 34.0698 7.43922 33.9613 7.35631C33.9613 7.35631 33.9613 6.92239 34.4209 7.08561C34.4209 7.08561 34.8255 7.11298 34.7178 7.74008L34.7458 8.68723C34.7458 8.68723 34.6645 9.09737 35.3913 8.98729C35.3913 8.98729 36.1191 9.09737 36.148 9.36727C36.148 9.36727 36.3634 9.91326 35.5016 9.85772H34.8781C34.8781 9.85772 34.6093 10.0201 34.6899 10.3474L34.6093 14.289C34.6093 14.289 34.555 14.9672 35.203 14.9417C35.203 14.9417 35.8765 14.9135 36.0121 15.1315C36.0121 15.1315 36.4737 15.8105 35.4736 15.756C35.4736 15.756 34.8527 15.7276 34.7178 15.8379C34.7178 15.8379 34.6093 15.9727 34.5286 17.2517C34.5286 17.2517 34.5837 18.0128 34.0162 17.9291C34.0162 17.9291 30.2646 17.9829 29.9143 17.9028C29.9143 17.9028 29.5368 18.0128 29.4824 17.7122" fill="white"/>
<path d="M24.6266 6.97327L24.5451 15.7C24.5451 15.7 24.5189 16.1049 25.1933 16.1868C25.1933 16.1868 25.9753 16.2679 26.1627 16.1868C26.1627 16.1868 26.6787 16.1586 27.9984 16.2142C27.9984 16.2142 28.3241 16.5432 28.3513 16.1323C28.3513 16.1323 28.5649 9.06894 28.46 7.59778C28.46 7.59778 28.4302 6.97327 27.973 6.9459C27.973 6.9459 25.9219 7.11272 25.7329 6.9459L24.9227 6.73074C24.9227 6.73074 24.5986 6.75711 24.6266 6.97327Z" fill="white"/>
<path d="M28.8893 7.41021C28.8893 7.41021 28.8087 11.5142 28.8357 11.6501L28.7823 15.1006L28.6729 16.2975C28.6729 16.2975 28.8357 16.5416 28.9708 16.3794C28.9708 16.3794 29.8343 16.1589 30.3736 16.2446C30.3736 16.2446 32.1026 16.406 32.4519 16.1325C32.4519 16.1325 32.7224 16.2683 32.8014 15.8334C32.8014 15.8334 32.9081 8.2261 32.8583 8.09025C32.8583 8.09025 32.9625 7.00007 32.9081 6.89418C32.9081 6.89418 32.8845 6.64985 32.4247 6.86601C32.4247 6.86601 32.4773 7.08477 29.9156 7.00006C29.9156 7.00006 28.9444 6.9735 28.8893 7.41021Z" fill="white"/>
<path d="M33.1815 7.30265L33.1553 15.8891C33.1553 15.8891 33.3707 16.6528 33.721 16.5727C33.721 16.5727 33.7736 16.4077 33.7998 16.136L33.9093 7.95452C33.9093 7.95452 33.6377 6.65257 33.1815 7.30265Z" fill="white"/>
<path d="M33.1805 7.3018L33.1543 15.89C33.1543 15.89 33.3705 16.654 33.7208 16.5737C33.7208 16.5737 33.7744 16.4087 33.8006 16.137L33.9091 7.95367C33.9091 7.95367 33.6377 6.65173 33.1805 7.3018Z" stroke="#12110C" stroke-width="0.016"/>
<path d="M29.8676 9.87346C29.787 9.6565 30.3264 9.62913 30.3264 9.62913L30.5971 9.68287C30.7864 9.6565 30.9754 9.73841 30.9754 9.73841C31.1639 10.0367 30.8397 10.1989 30.8397 10.1989L30.732 10.5535C30.7041 10.8534 30.732 13.4351 30.732 13.4351C30.7864 13.5691 31.0018 13.8127 31.0018 13.8127C31.0018 14.0586 30.7041 14.0049 30.7041 14.0049L29.9227 14.0322C29.6793 14.0049 29.7598 13.7322 29.7598 13.7322C30.0296 13.5965 30.1111 13.1061 30.1111 13.1061V10.4169L29.8676 9.87346Z" fill="#12110C"/>
<path d="M26.225 12.4012L26.1716 13.2435L26.4124 13.6503C26.5763 13.8672 26.3055 14.0322 26.3055 14.0322L25.442 13.9509C25.2818 13.8672 25.442 13.5963 25.442 13.5963C25.6584 13.4625 25.6854 13.1069 25.6854 13.1069L25.6584 11.5308L25.6854 10.3895C25.6854 10.2526 25.47 10.0101 25.47 10.0101C25.2818 9.98274 25.3351 9.73841 25.3351 9.73841C25.3887 9.60176 25.8457 9.68287 25.8457 9.68287H26.9807C28.0606 10.0367 27.8986 10.825 27.8986 10.825C27.9801 11.6119 27.1436 11.94 27.1436 11.94L27.0876 12.3749L27.8714 13.6229C28.0063 13.7322 27.9801 13.8424 27.9801 13.8424C27.8714 14.1415 27.4388 13.8424 27.4388 13.8424L26.4686 12.3193C26.387 12.2099 26.225 12.4012 26.225 12.4012ZM26.2521 10.2526C26.2783 10.8524 26.2783 11.6675 26.2783 11.6675C26.7925 12.0758 27.0876 11.5034 27.0876 11.5034C27.7611 10.8524 27.0876 10.2526 26.9807 10.0912C26.8712 9.9272 26.3319 10.063 26.3319 10.063L26.2521 10.2526Z" fill="#12110C"/>
<path d="M20.6043 22.9603C20.6043 22.9603 20.7936 22.88 20.8469 22.7459C20.8469 22.7459 21.4144 22.6902 21.494 22.6093L23.2763 22.7459C23.2763 22.7459 25.0296 22.88 25.7854 22.334C25.7854 22.334 26.0569 22.334 26.246 22.4169C26.246 22.4169 26.6217 22.4998 26.7294 22.6604L27.7559 22.6331C27.7559 22.6331 28.3496 22.8252 28.2945 23.2062V23.6941C28.2945 23.6941 28.186 24.6732 28.4557 24.7287H29.2403C29.2403 24.7287 29.8885 25.027 29.807 25.407C29.807 25.407 29.8342 25.9486 29.2684 26.0588C29.2684 26.0588 28.6991 26.2211 28.5125 26.1955C28.5125 26.1955 28.3224 26.439 28.2945 26.7379L28.2157 30.2987C28.2157 30.2987 28.1606 30.6789 28.7281 30.625C28.7281 30.625 29.5626 30.543 29.807 31.0069C29.807 31.0069 30.0232 31.7937 29.5916 31.9295L29.2684 32.0909L28.565 32.204C28.565 32.204 28.2701 32.2286 28.2419 32.7446V33.6943C28.2419 33.6943 28.2701 34.349 27.7559 34.349L27.0001 34.4035C27.0001 34.4035 26.8117 34.5642 26.4344 34.4557C26.4344 34.4557 21.8461 34.5394 21.684 34.4841L21.1439 34.5941C21.1439 34.5941 20.5508 35.1375 20.0648 34.7282L19.6873 34.4291C19.6873 34.4291 19.4167 34.4841 19.3108 34.4557C19.2023 34.4291 14.2365 34.5112 14.2365 34.5112C14.2365 34.5112 13.1837 34.6215 13.104 34.2661C13.104 34.2661 12.9693 32.8812 13.0227 32.7154C13.0227 32.7154 13.0227 32.3097 12.7801 32.2833C12.7801 32.2833 11.7274 32.2286 11.7002 32.1183C11.7002 32.1183 11.1327 31.7127 11.2947 31.3058C11.2947 31.3058 11.4848 30.76 12.0505 30.7061C12.0505 30.7061 12.914 30.8437 12.914 30.5986C12.914 30.5986 12.9693 30.4354 12.9693 30.1647C12.9693 30.1647 13.0227 26.9285 12.9955 26.7115C12.9955 26.7115 13.076 26.304 12.7249 26.304C12.7249 26.304 12.3474 26.4116 12.1056 26.2494C12.1056 26.2494 11.4576 26.2768 11.3227 25.7598C11.3227 25.7598 11.2142 25.4343 11.3753 25.16C11.3753 25.16 11.6732 24.5629 12.5367 24.7541C12.5367 24.7541 13.0227 24.8909 13.076 24.5389L13.0506 23.2318C13.0506 23.2318 12.9411 22.88 13.6164 22.6902C13.6164 22.6902 14.4799 22.9337 14.7488 22.4998C14.7488 22.4998 15.0466 21.8999 15.2866 22.3076C15.2866 22.3076 15.8015 22.7981 17.2046 22.7459C17.2046 22.7459 19.6339 22.5537 19.6873 22.6604C19.6873 22.6604 20.2812 22.7459 20.4423 22.9337L20.6043 22.9603Z" fill="#12110C"/>
<path d="M20.6043 22.9267C20.6043 22.9267 20.7916 22.8474 20.8469 22.7116C20.8469 22.7116 21.4134 22.656 21.494 22.5747L23.2755 22.7116C23.2755 22.7116 25.0296 22.8474 25.7853 22.3014C25.7853 22.3014 26.0569 22.3014 26.2459 22.3843C26.2459 22.3843 26.6226 22.4663 26.7286 22.6269L27.7567 22.6003C27.7567 22.6003 28.3496 22.7927 28.2944 23.1727V23.6615C28.2944 23.6615 28.1867 24.6404 28.4565 24.6944H29.2402C29.2402 24.6944 29.8875 24.9942 29.8078 25.3744C29.8078 25.3744 29.8349 25.916 29.2684 26.0263C29.2684 26.0263 28.7001 26.1885 28.5134 26.1619C28.5134 26.1619 28.3234 26.4063 28.2944 26.7053L28.2147 30.267C28.2147 30.267 28.1605 30.6453 28.7271 30.5924C28.7271 30.5924 29.5626 30.5123 29.8078 30.9734C29.8078 30.9734 30.0242 31.7611 29.5923 31.8978L29.2684 32.0602L28.565 32.1704C28.565 32.1704 28.2691 32.1968 28.2429 32.711V33.6646C28.2429 33.6646 28.2691 34.3163 27.7567 34.3163L27.0009 34.371C27.0009 34.371 26.8117 34.5334 26.4344 34.4249C26.4344 34.4249 21.8461 34.5068 21.684 34.4505L21.1429 34.5606C21.1429 34.5606 20.5507 35.1048 20.0648 34.6946L19.6865 34.3956C19.6865 34.3956 19.4167 34.4505 19.31 34.4249C19.2013 34.3956 14.2364 34.4795 14.2364 34.4795C14.2364 34.4795 13.1829 34.589 13.1024 34.2343C13.1024 34.2343 12.9683 32.8477 13.0217 32.6837C13.0217 32.6837 13.0217 32.2779 12.7783 32.2506C12.7783 32.2506 11.7266 32.1968 11.6986 32.0873C11.6986 32.0873 11.1319 31.6792 11.2937 31.2724C11.2937 31.2724 11.4838 30.7275 12.0505 30.6725C12.0505 30.6725 12.9132 30.8122 12.9132 30.564C12.9132 30.564 12.9683 30.4018 12.9683 30.1319C12.9683 30.1319 13.0217 26.8959 12.9955 26.6788C12.9955 26.6788 13.076 26.2696 12.7239 26.2696C12.7239 26.2696 12.3466 26.3781 12.1038 26.2167C12.1038 26.2167 11.4568 26.2432 11.3219 25.7272C11.3219 25.7272 11.2124 25.4018 11.3753 25.1283C11.3753 25.1283 11.6714 24.5302 12.5357 24.7207C12.5357 24.7207 13.0217 24.8584 13.076 24.5056L13.0488 23.1992C13.0488 23.1992 12.9403 22.8474 13.6156 22.656C13.6156 22.656 14.479 22.9012 14.7488 22.4663C14.7488 22.4663 15.0448 21.8675 15.2866 22.2733C15.2866 22.2733 15.8015 22.7637 17.2036 22.7116C17.2036 22.7116 19.6339 22.5192 19.6865 22.6269C19.6865 22.6269 20.2812 22.7116 20.4422 22.9012L20.6043 22.9267Z" stroke="#12110C" stroke-width="0.0133333"/>
<path d="M21.3053 33.6413C21.3053 33.6413 21.6302 33.4762 21.8466 33.5328C22.0629 33.5867 25.2192 33.5062 25.2192 33.5062C25.2192 33.5062 26.5951 33.6139 26.8123 33.4215L27.1336 33.314C27.1336 33.314 27.2693 33.1518 27.2693 32.9356C27.2693 32.7161 27.2965 31.9821 27.2965 31.9821L27.3788 31.7124C27.3788 31.7124 27.3508 31.4405 27.3788 24.1824C27.3788 24.1824 27.4847 23.6144 27.1336 23.259C27.1336 23.259 27.1336 23.0437 27.2413 23.0694C27.3508 23.0986 27.2965 23.0986 27.2965 23.0986C27.2965 23.0986 27.7817 22.96 27.8614 23.1503C27.8614 23.1503 28.0794 23.8004 27.8894 24.1824C27.8894 24.1824 27.835 24.9717 28.2433 24.9717C28.2433 24.9717 28.4025 25.1359 28.7267 25.053C28.7267 25.053 29.4281 25.1359 29.4281 25.3511C29.4281 25.3511 29.4281 25.8423 28.9421 25.7604L28.2933 25.8132C28.2933 25.8132 27.8614 25.8971 27.9166 26.4115C27.9717 26.9281 27.8894 30.6246 27.8894 30.6246C27.8894 30.6246 27.8894 31.0613 28.5656 31.034C28.5656 31.034 29.4011 31.0058 29.4011 31.2491C29.4011 31.2491 29.6163 31.7925 29.0236 31.8209C29.0236 31.8209 27.8894 31.7925 27.9717 32.118C27.9717 32.118 27.8894 32.8809 27.835 33.015C27.835 33.015 27.9455 33.6413 27.8081 33.7507C27.8081 33.7507 27.7283 34.1025 27.0005 34.0488C27.0005 34.0488 22.3598 34.0222 21.6302 34.0762C21.6302 34.0762 21.1976 34.0222 21.3053 33.6413Z" fill="white"/>
<path d="M20.4711 33.1256C20.4711 33.1256 20.9291 33.2059 20.9291 33.6416C20.9291 34.0755 20.9562 34.3206 20.6849 34.3746C20.4159 34.4291 20.1199 34.349 20.0402 33.996C19.9571 33.6416 20.0918 33.2059 20.4711 33.1256Z" fill="white"/>
<path d="M21.0094 32.9083C21.0094 32.9083 21.4946 32.5801 21.6836 32.6368C21.6836 32.6368 24.1386 32.798 24.8961 32.6648C25.6509 32.5281 25.1921 32.6368 25.1921 32.6368C25.1921 32.6368 25.8403 32.6368 26.0276 32.3905C26.0276 32.3905 26.2176 32.3383 26.3253 32.5281L26.7282 32.9647C26.7282 32.9647 26.7587 33.2338 26.2981 33.2064C26.2981 33.2064 21.8982 33.2064 21.7651 33.2338C21.7651 33.2338 20.9288 33.3678 21.0094 32.9083Z" fill="white"/>
<path d="M21.0084 32.9083C21.0084 32.9083 21.4936 32.5801 21.6826 32.6358C21.6826 32.6358 24.1394 32.7981 24.8959 32.6648C25.6519 32.5274 25.1919 32.6358 25.1919 32.6358C25.1919 32.6358 25.8409 32.6358 26.0284 32.3887C26.0284 32.3887 26.2176 32.3378 26.3261 32.5274L26.729 32.9647C26.729 32.9647 26.7587 33.2348 26.2989 33.2064C26.2989 33.2064 21.899 33.2064 21.7642 33.2348C21.7642 33.2348 20.9279 33.3688 21.0084 32.9083V32.9083Z" stroke="#12110C" stroke-width="0.016"/>
<path d="M14.6147 23.2597C14.6147 23.2597 14.804 23.2597 14.7766 23.5862L14.7217 31.7932C14.7217 31.7932 14.804 32.3382 14.345 32.6902C14.345 32.6902 14.1006 32.9883 14.1006 32.528L14.2109 24.1567C14.2109 24.1567 14.2365 23.5312 14.6147 23.2597Z" fill="white"/>
<path d="M14.6146 23.259C14.6146 23.259 14.8038 23.259 14.7782 23.5852L14.7215 31.7943C14.7215 31.7943 14.8038 32.3392 14.344 32.6913C14.344 32.6913 14.0986 32.9893 14.0986 32.5288L14.2091 24.1568C14.2091 24.1568 14.2353 23.5305 14.6146 23.259Z" stroke="#12110C" stroke-width="0.016"/>
<path d="M14.183 23.3145C14.183 23.3145 13.8589 23.9135 13.8861 24.0503L13.8589 25.8689C13.8589 25.8689 13.8317 27.0376 13.8589 27.1742C13.8861 27.3093 13.8317 30.7343 13.8317 30.7343C13.8317 30.7343 13.8048 31.3849 13.8317 31.6037V33.0707C13.8317 33.0707 13.7776 33.7241 14.2628 33.5583C14.2628 33.5583 19.013 33.4508 19.3107 33.5335C19.3107 33.5335 19.7408 33.6141 19.5813 33.8318C19.5813 33.8318 19.5813 34.0234 19.2818 33.9677C19.2818 33.9677 17.0424 34.1836 15.0193 34.1035C15.0193 34.1035 13.6699 34.1836 13.5875 34.0234C13.5875 34.0234 13.3729 33.9958 13.3729 33.2065C13.3729 33.2065 13.3729 32.4745 13.3204 32.3385C13.3204 32.3385 13.3729 31.9531 12.6987 31.8746C12.6987 31.8746 11.7545 32.0386 11.7273 31.468C11.7273 31.468 11.8614 31.0605 12.78 31.1134C12.78 31.1134 13.4544 31.2227 13.3204 30.6777L13.4001 26.6582C13.4001 26.6582 13.4832 25.9484 13.0226 25.92C13.0226 25.92 12.5926 25.898 12.4551 25.9484C12.4551 25.9484 11.6731 25.9484 11.7273 25.4897C11.7273 25.4897 11.9971 24.9992 12.78 25.1085C12.78 25.1085 13.3729 25.2164 13.4001 24.5388C13.4001 24.5388 13.3729 23.1515 13.6961 23.0986C13.6961 23.0986 14.3723 23.1231 14.183 23.3145Z" fill="white"/>
<path d="M14.9915 32.3097C14.9915 32.3097 15.3698 32.7154 15.9916 32.6917L19.6584 32.7446C19.6584 32.7446 20.0658 32.7736 20.0402 32.9887C20.0402 32.9887 19.9825 33.3144 19.4991 33.2059L15.0728 33.1522L14.586 33.1819C14.586 33.1819 14.2619 33.1256 14.7768 32.5011L14.9915 32.3097Z" fill="white"/>
<path d="M14.9901 32.3085C14.9901 32.3085 15.3686 32.715 15.9912 32.6903L19.659 32.7442C19.659 32.7442 20.0652 32.7724 20.0408 32.9883C20.0408 32.9883 19.9839 33.3148 19.5005 33.2073L15.0716 33.1533L14.5846 33.1815C14.5846 33.1815 14.2615 33.1262 14.7755 32.4999L14.9901 32.3085Z" stroke="#12110C" stroke-width="0.016"/>
<path d="M26.3252 31.954C26.3252 31.954 26.6491 32.5803 26.8112 32.6658C26.8112 32.6658 27.1081 33.016 27.0276 32.3915L27.081 24.5636C27.081 24.5636 26.9994 24.2911 27.081 23.858L26.7578 23.2599C26.7578 23.2599 26.4057 22.9884 26.4057 23.4223L26.3524 31.767L26.3252 31.954Z" fill="white"/>
<path d="M26.3252 31.9548C26.3252 31.9548 26.6501 32.5801 26.813 32.6666C26.813 32.6666 27.1099 33.0176 27.0294 32.3915L27.0827 24.5616C27.0827 24.5616 27.0012 24.2909 27.0827 23.8578L26.7588 23.2591C26.7588 23.2591 26.4057 22.9882 26.4057 23.4221L26.3524 31.7676L26.3252 31.9548Z" stroke="#12110C" stroke-width="0.016"/>
<path d="M20.3348 28.2327C20.3348 28.2327 20.362 28.8828 20.2797 29.5065C20.2359 29.8513 20.389 31.439 20.2525 32.2531C20.2525 32.2531 20.2279 32.5255 19.6586 32.2822C19.6586 32.2822 16.2055 32.3623 16.0978 32.2531C16.0978 32.2531 15.1538 32.2822 15.0723 31.7918C15.0723 31.7918 15.2072 28.0687 15.1266 27.9303C15.1266 27.9303 15.0723 25.8927 15.1266 25.7031C15.1266 25.7031 15.2072 23.828 15.1538 23.6109C15.1538 23.6109 15.181 23.176 15.0994 22.9574C15.0994 22.9574 15.0994 22.6857 15.5592 22.8481C15.5592 22.8481 15.7187 23.148 16.6102 23.0147C16.6102 23.0147 17.259 23.1224 17.8801 23.0403C17.8801 23.0403 19.255 22.9318 19.607 23.0403C19.607 23.0403 20.1474 22.9318 20.3067 23.5316L20.2797 25.2153L20.4408 25.7587L20.6308 25.6236L20.7105 25.2153L20.7377 23.4213C20.7377 23.4213 20.8454 23.0941 21.2789 23.0403C21.2789 23.0403 21.9533 22.9574 22.0628 23.0147C22.1705 23.0669 23.6251 23.148 24.0323 23.0669C24.436 22.9856 24.5157 23.3384 25.7323 22.7149C25.7323 22.7149 26.0562 22.7422 26.0562 22.9574C26.0562 22.9574 25.9459 25.271 26.0562 25.7031C26.0562 25.7031 26.0562 29.9422 25.9721 30.2413L26.0273 31.6002C26.0273 31.6002 26.0808 32.1985 25.1384 32.2531C25.1384 32.2531 25.7323 32.335 22.0059 32.2265C22.0059 32.2265 21.4129 32.1985 20.7657 32.4966C20.7657 32.4966 20.6308 32.47 20.6308 32.1172C20.6308 32.1172 20.7377 30.841 20.6308 29.5884L20.5784 28.203L20.3348 28.2327Z" fill="white"/>
<path d="M17.9055 26.3045C17.9055 26.3045 17.987 28.3148 17.9055 28.5863L17.8801 29.0222C17.8801 29.0222 17.987 29.3193 18.1491 29.4296C18.1491 29.4296 18.2848 29.8087 17.9598 29.7824C17.9598 29.7824 17.2864 29.7276 17.1243 29.7534C17.1243 29.7534 16.7451 29.7534 17.1243 29.2672C17.1243 29.2672 17.2592 29.074 17.2313 28.5863C17.2313 28.5863 17.2313 26.3045 17.2864 26.1696C17.2864 26.1696 17.3398 25.8687 17.1505 25.7868L16.8256 25.815L16.4227 26.1952C16.4227 26.1952 16.3404 26.6045 16.1514 26.1696V25.95L16.3958 25.2982L16.5578 25.2698C16.5578 25.2698 16.7994 25.4332 17.0148 25.4896H18.2848L18.7428 25.2698C18.7428 25.2698 18.931 25.2982 18.8795 25.5425C18.8795 25.5425 18.9582 26.1696 18.6079 26.2491C18.6079 26.2491 18.3917 26.1696 18.2848 25.8687C18.2848 25.8687 17.9337 25.6801 17.9055 26.3045Z" fill="#12110C"/>
<path d="M23.8694 25.5711C23.8694 25.5711 22.8457 25.489 22.8203 26.603C22.8203 26.603 22.709 27.3659 23.8441 27.8556C23.8441 27.8556 24.6814 28.2613 24.6252 28.7773C24.6252 28.7773 24.5175 29.7017 23.6269 29.2402C23.6269 29.2402 23.196 29.0215 23.2248 28.7773C23.2248 28.7773 23.0875 28.4775 22.9262 28.5328C22.9262 28.5328 22.7362 28.5859 22.8203 29.4837C22.8203 29.4837 22.8203 29.8374 23.2248 29.4837L23.4376 29.5393C23.4376 29.5393 24.1672 30.1372 24.7865 29.4018C24.7865 29.4018 25.4625 28.7773 24.9755 28.017C24.9755 28.017 24.6252 27.4754 24.0053 27.2029C24.0053 27.2029 23.4114 26.9286 23.2775 26.4671C23.2775 26.4671 23.4666 25.6504 24.1936 26.0853C24.1936 26.0853 24.4641 26.4118 24.6252 26.4671C24.6252 26.4671 24.8416 26.4671 24.7865 25.9759L24.7355 25.5711C24.7355 25.5711 24.6814 25.2684 24.3021 25.5711C24.3021 25.5711 23.951 25.7052 23.8694 25.5711Z" fill="#12110C"/>
<path d="M20.5774 24.9982C20.7656 25.1367 20.7928 25.4076 20.7928 25.4076C21.3323 26.847 21.7921 28.9417 21.7921 28.9417C21.926 29.2108 22.1696 29.4295 22.1696 29.4295C22.6284 29.5917 22.1696 29.7268 22.1696 29.7268C21.9804 29.8097 21.3613 29.702 21.3613 29.702C21.0354 29.6439 21.1695 29.538 21.1695 29.538C21.3059 29.4021 21.1974 28.8569 21.1974 28.8569C21.1695 28.6418 20.9287 28.2874 20.9287 28.2874C20.8209 28.2324 20.6317 28.477 20.6317 28.477C20.6317 28.477 20.3358 28.5862 20.3068 28.477C20.2796 28.3665 20.0914 28.2636 20.0914 28.2636C19.7672 28.2636 19.6333 29.0739 19.6333 29.0739C19.8216 29.7541 19.6333 29.6439 19.6333 29.6439C19.4723 29.8636 18.9581 29.702 18.9581 29.702C18.7155 29.6439 18.8792 29.4543 18.8792 29.4543C19.1743 29.4021 19.2549 29.0739 19.2549 29.0739C19.3908 28.8843 20.2524 25.352 20.2524 25.352C20.3358 25.1878 20.3881 24.8624 20.5774 24.9982ZM20.1475 26.7914C20.1193 26.9281 19.9293 27.6892 19.9293 27.6892L20.0914 27.9635C20.0914 27.9635 20.524 27.9883 20.6851 27.9883C20.8453 27.9883 20.8743 27.8551 20.8743 27.7164C20.8743 27.5818 20.5774 26.7667 20.5774 26.7667L20.4409 26.6035L20.1475 26.7914Z" fill="#12110C"/>
<path d="M13.2674 18.4178C13.2674 18.4178 12.9697 19.3711 11.6474 18.3904L7.11418 18.2809C7.11418 18.2809 6.52048 18.4733 6.43895 17.8472C6.43895 17.8472 6.54766 16.5982 6.49152 16.4887C6.49152 16.4887 6.52048 16.1341 5.92579 16.1341C5.92579 16.1341 5.00975 16.2452 4.98336 15.4295C4.98336 15.4295 4.82051 14.5571 6.08864 14.5871C6.08864 14.5871 6.49152 14.7766 6.52048 14.26C6.52048 14.26 6.46613 10.7274 6.49152 10.4541C6.49152 10.4541 6.60181 10.1312 5.98093 10.0755C5.98093 10.0755 5.08929 10.2643 4.98336 9.66633C4.98336 9.66633 4.92822 8.77113 5.52113 8.71559C5.52113 8.71559 6.24991 8.77113 6.38559 8.58314C6.38559 8.58314 6.54766 8.68822 6.52048 8.03535L6.54766 6.92239C6.54766 6.92239 6.62898 6.62332 7.08522 6.65069C7.08522 6.65069 7.9243 6.70443 8.0328 6.62332C8.0328 6.62332 8.22125 6.37999 8.27282 6.26952C8.27282 6.26952 8.70724 6.24394 8.78777 6.34982C8.78777 6.34982 9.43404 6.78734 11.8924 6.62332C11.8924 6.62332 12.2681 6.62332 12.3496 6.7328C12.3496 6.7328 12.8076 7.08541 13.0774 6.70443C13.0774 6.70443 13.482 6.62332 14.6974 6.65069C14.6974 6.65069 16.0173 7.0035 16.9361 6.24394L17.2321 6.29968C17.2321 6.29968 17.6096 6.92239 17.8819 6.7328C17.8819 6.7328 18.6903 6.65069 18.8259 6.81471C18.8259 6.81471 19.0965 7.22225 18.959 8.28327C18.959 8.28327 18.7988 8.74456 19.5809 8.74456C19.5809 8.74456 20.4706 8.58314 20.3638 9.422C20.3638 9.422 20.6072 10.3737 19.1229 10.2387C19.1229 10.2387 18.9329 10.5112 18.959 10.701C18.959 10.701 18.9329 13.7977 18.9065 14.1531C18.9065 14.1531 18.8803 14.6392 19.5275 14.6144C19.5275 14.6144 20.391 14.5571 20.4172 15.3484C20.4172 15.3484 20.5249 16.3803 19.2848 16.1889C19.2848 16.1889 18.9065 16.2452 18.8513 16.4887L18.7988 17.8472C18.7988 17.8472 18.8259 18.5271 18.0684 18.3648C17.9607 18.3648 13.8613 18.4452 13.509 18.3385C13.509 18.3385 13.3208 18.3111 13.2674 18.4178Z" fill="#12110C"/>
<path d="M13.2681 18.4187C13.2681 18.4187 12.9704 19.3722 11.6481 18.3913L7.1141 18.282C7.1141 18.282 6.5202 18.4742 6.43887 17.8473C6.43887 17.8473 6.54836 16.5983 6.49223 16.4888C6.49223 16.4888 6.5202 16.1352 5.9255 16.1352C5.9255 16.1352 5.00946 16.2463 4.98328 15.4304C4.98328 15.4304 4.82122 14.5572 6.08935 14.5871C6.08935 14.5871 6.49223 14.7769 6.5202 14.2609C6.5202 14.2609 6.46584 10.7266 6.49223 10.4541C6.49223 10.4541 6.60252 10.1303 5.98085 10.0756C5.98085 10.0756 5.0892 10.2646 4.98328 9.66562C4.98328 9.66562 4.92813 8.77022 5.52183 8.71568C5.52183 8.71568 6.24963 8.77022 6.3863 8.58163C6.3863 8.58163 6.54836 8.68831 6.5202 8.03544L6.54836 6.92148C6.54836 6.92148 6.6289 6.62261 7.08593 6.65078C7.08593 6.65078 7.92421 6.70372 8.03272 6.62261C8.03272 6.62261 8.22195 6.38008 8.27353 6.2696C8.27353 6.2696 8.70695 6.24323 8.78848 6.34991C8.78848 6.34991 9.43395 6.78663 11.8931 6.62261C11.8931 6.62261 12.2688 6.62261 12.3503 6.73189C12.3503 6.73189 12.8083 7.0847 13.0781 6.70372C13.0781 6.70372 13.4835 6.62261 14.6981 6.65078C14.6981 6.65078 16.019 7.00179 16.9368 6.24323L17.2336 6.29877C17.2336 6.29877 17.6111 6.92148 17.8826 6.73189C17.8826 6.73189 18.691 6.65078 18.8284 6.813C18.8284 6.813 19.0972 7.22154 18.9607 8.28156C18.9607 8.28156 18.7995 8.74465 19.5816 8.74465C19.5816 8.74465 20.4731 8.58163 20.3646 9.42129C20.3646 9.42129 20.608 10.3738 19.1244 10.238C19.1244 10.238 18.9336 10.5105 18.9607 10.7011C18.9607 10.7011 18.9336 13.7978 18.9082 14.1524C18.9082 14.1524 18.881 14.6401 19.5283 14.6155C19.5283 14.6155 20.3917 14.5572 20.4189 15.3493C20.4189 15.3493 20.5256 16.3803 19.2855 16.189C19.2855 16.189 18.9082 16.2463 18.853 16.4888L18.7995 17.8473C18.7995 17.8473 18.8284 18.5282 18.0701 18.3657C17.9624 18.3657 13.862 18.4452 13.5097 18.3386C13.5097 18.3386 13.3215 18.312 13.2681 18.4187Z" stroke="#12110C" stroke-width="0.0133333"/>
<path d="M8.16757 7.22225C8.16757 7.22225 8.22192 7.76464 8.22192 7.90049C8.22192 8.03634 8.1396 15.7549 8.1396 15.7549C8.1396 15.7549 8.22192 16.3547 7.70796 16.6519C7.70796 16.6519 7.57387 16.7075 7.5459 16.3273L7.60104 8.17399C7.60104 8.17399 7.6544 7.16751 8.16757 7.22225Z" fill="white"/>
<path d="M8.16856 7.22122C8.16856 7.22122 8.22271 7.76361 8.22271 7.89946C8.22271 8.03531 8.14039 15.7547 8.14039 15.7547C8.14039 15.7547 8.22271 16.3544 7.70796 16.6535C7.70796 16.6535 7.57387 16.7083 7.5459 16.3281L7.59926 8.17376C7.59926 8.17376 7.65361 7.16728 8.16856 7.22122V7.22122Z" stroke="#12110C" stroke-width="0.016"/>
<path d="M7.27655 16.7329C7.27655 16.7329 7.32911 9.06903 7.30372 8.93218C7.27655 8.79813 7.32911 9.04246 7.32911 9.04246C7.32911 9.04246 7.25036 7.71234 7.60048 7.16735C7.60048 7.16735 7.49197 6.70506 6.87109 7.27483L6.8465 8.38979C6.8465 8.38979 6.8465 9.01509 6.27819 8.98772C6.27819 8.98772 5.63013 8.95955 5.33239 9.26042C5.33239 9.26042 5.17112 9.85735 5.79041 9.74987C5.79041 9.74987 6.76338 9.74987 6.81674 10.1546L6.76338 14.2596C6.76338 14.2596 6.9796 14.9389 6.22304 14.9389C6.22304 14.9389 5.30601 14.8868 5.33239 15.4575C5.33239 15.4575 5.52143 15.947 6.30536 15.783C6.30536 15.783 6.87109 15.8922 6.8465 16.433V17.4685C6.8465 17.4685 6.78957 17.8768 7.32911 17.9016H11.5398C11.5398 17.9016 11.7554 17.9288 11.7554 17.6563C11.7554 17.6563 11.728 17.4419 11.4059 17.4419L7.89921 17.3856C7.89921 17.3856 7.32911 17.5762 7.27655 16.7329Z" fill="white"/>
<path d="M8.00504 16.7885C8.00504 16.7885 7.89812 17.1705 8.301 17.0866H11.0807L11.8364 17.249C11.8364 17.249 12.6212 17.0592 11.8364 16.6235C11.8364 16.6235 9.35371 16.6527 9.1373 16.5979C9.1373 16.5979 8.62592 16.4623 8.51741 16.4347C8.51741 16.4347 8.24685 16.3272 8.00504 16.7885Z" fill="white"/>
<path d="M8.00407 16.7879C8.00407 16.7879 7.89715 17.1715 8.30002 17.086H11.0807L11.8374 17.25C11.8374 17.25 12.622 17.0604 11.8374 16.6239C11.8374 16.6239 9.35353 16.6529 9.13731 16.5965C9.13731 16.5965 8.62494 16.4615 8.51644 16.4351C8.51644 16.4351 8.24567 16.3266 8.00407 16.7879Z" stroke="#12110C" stroke-width="0.016"/>
<path d="M12.6208 17.1707C12.6208 17.1707 12.1069 17.1707 12.1338 17.8463C12.1338 17.8463 12.1882 18.3657 12.7267 18.3657C12.7267 18.3657 13.2129 18.2812 13.1604 17.7404C13.1604 17.7404 12.8624 17.0596 12.6208 17.1707Z" fill="white"/>
<path d="M12.9968 16.8959C12.9968 16.8959 13.2386 16.6242 13.4023 16.6242C13.4023 16.6242 16.0998 16.8696 16.5586 16.5439C16.5586 16.5439 16.9649 16.4628 17.071 16.5439C17.071 16.5439 17.4756 16.8696 17.4756 17.0592C17.4756 17.0592 17.4493 17.3061 16.9649 17.1702C16.9649 17.1702 13.9128 17.1958 13.7526 17.1958C13.7526 17.1958 12.9153 17.3854 12.9968 16.8959Z" fill="white"/>
<path d="M12.9958 16.896C12.9958 16.896 13.2384 16.6235 13.4013 16.6235C13.4013 16.6235 16.0996 16.8696 16.5584 16.544C16.5584 16.544 16.9657 16.4621 17.0716 16.544C17.0716 16.544 17.4763 16.8696 17.4763 17.06C17.4763 17.06 17.4501 17.3071 16.9657 17.1703C16.9657 17.1703 13.9137 17.1969 13.7516 17.1969C13.7516 17.1969 12.9143 17.3865 12.9958 16.896V16.896Z" stroke="#12110C" stroke-width="0.016"/>
<path d="M13.4287 17.7122C13.4287 17.7122 13.4287 17.4961 13.8044 17.4961L17.5852 17.4679C17.5852 17.4679 17.9345 17.6557 17.9345 17.0056C17.9345 17.0056 18.073 14.0421 18.0853 10.7803C18.0904 9.81021 18.1325 8.79155 18.0958 7.8476C18.0958 7.8476 18.0153 7.44105 17.9076 7.35714C17.9076 7.35714 17.9076 6.92243 18.3682 7.08724C18.3682 7.08724 18.77 7.11302 18.6631 7.73732L18.6895 8.68906C18.6895 8.68906 18.609 9.09661 19.3376 8.98813C19.3376 8.98813 20.0653 9.09661 20.0915 9.3683C20.0915 9.3683 20.3097 9.9133 19.4471 9.85776H18.827C18.827 9.85776 18.5564 10.0202 18.6369 10.3474L18.5564 14.2872C18.5564 14.2872 18.5003 14.9665 19.1501 14.9417C19.1501 14.9417 19.8245 14.9135 19.9576 15.1305C19.9576 15.1305 20.4182 15.8105 19.4191 15.756C19.4191 15.756 18.798 15.7276 18.6631 15.8361C18.6631 15.8361 18.5564 15.9745 18.4749 17.2501C18.4749 17.2501 18.5282 18.0113 17.9617 17.9292C17.9617 17.9292 14.2107 17.9821 13.8613 17.9018C13.8613 17.9018 13.4821 18.0113 13.4287 17.7122" fill="white"/>
<path d="M8.57011 6.97541L8.49136 15.7003C8.49136 15.7003 8.46419 16.1052 9.13842 16.1871C9.13842 16.1871 9.92235 16.2693 10.1098 16.1871C10.1098 16.1871 10.6212 16.1608 11.9445 16.2155C11.9445 16.2155 12.2686 16.54 12.2948 16.1344C12.2948 16.1344 12.5112 9.06668 12.4033 7.59991C12.4033 7.59991 12.3771 6.9754 11.9165 6.94804C11.9165 6.94804 9.86721 7.11045 9.67797 6.94804L8.86964 6.73008C8.86964 6.73008 8.54393 6.75585 8.57011 6.97541Z" fill="white"/>
<path d="M17.125 7.30167L17.0986 15.8907C17.0986 15.8907 17.315 16.6539 17.6671 16.5725C17.6671 16.5725 17.7205 16.4085 17.7469 16.135L17.8564 7.95355C17.8564 7.95355 17.5856 6.6488 17.125 7.30167Z" fill="white" stroke="#12110C" stroke-width="0.016"/>
<path d="M17.125 7.30167L17.0986 15.8907C17.0986 15.8907 17.315 16.6539 17.6671 16.5725C17.6671 16.5725 17.7205 16.4085 17.7469 16.135L17.8564 7.95355C17.8564 7.95355 17.5856 6.6488 17.125 7.30167Z" stroke="#12110C" stroke-width="0.016"/>
<path d="M12.8363 7.37498C12.8363 7.37498 12.755 11.4782 12.7804 11.6159L12.7294 15.068L12.6201 16.2605C12.6201 16.2605 12.7804 16.5084 12.9161 16.3442C12.9161 16.3442 13.7805 16.128 14.3199 16.2085C14.3199 16.2085 16.0478 16.3726 16.3973 16.0999C16.3973 16.0999 16.6671 16.2349 16.7485 15.8C16.7485 15.8 16.8554 8.19167 16.8018 8.05502C16.8018 8.05502 16.9105 6.96923 16.8554 6.86175C16.8554 6.86175 16.8282 6.61463 16.372 6.83078C16.372 6.83078 16.4243 7.05034 13.8619 6.96923C13.8619 6.96923 12.8899 6.94106 12.8363 7.37498Z" fill="white"/>
<path d="M12.0035 9.88837L11.7593 10.407C11.7593 10.407 11.168 13.0417 10.8449 13.5841C10.8449 13.5841 10.7905 14.1293 10.3317 13.6933C10.3317 13.6933 9.27819 10.3515 9.22464 10.2422L8.87353 9.99765C8.87353 9.99765 8.66069 9.69878 9.03639 9.67221L10.0348 9.69878C10.0348 9.69878 10.3579 9.96948 9.92704 10.2719C9.92704 10.2719 9.9806 10.7061 10.5471 12.3616C10.5471 12.3616 10.7082 12.9869 10.8974 12.5246L11.4378 10.5948L11.2757 10.0242C11.2757 10.0242 11.1129 9.75252 11.3572 9.72615C11.3572 9.72615 11.924 9.67221 12.0035 9.88837Z" fill="#12110C"/>
<path d="M13.5702 10.3244L13.5412 13.2052L13.4625 13.4221C13.4625 13.4221 13.1919 13.7741 13.3802 13.8023C13.3802 13.8023 13.1394 13.9663 15.1063 13.9927C15.1063 13.9927 15.8639 14.1277 15.6739 13.1496C15.6739 13.1496 15.5933 12.7966 15.3218 13.3137C15.3218 13.3137 15.2412 13.7466 14.2718 13.6117C14.2718 13.6117 14.0554 13.4221 14.0554 13.2052V12.0083C14.0554 12.0083 14.0266 11.7082 14.4863 11.7392C14.4863 11.7392 14.9986 12.0638 15.0801 11.9262C15.0801 11.9262 15.2684 11.4931 15.0801 11.2206C15.0801 11.2206 14.8366 11.195 14.8104 11.3035C14.8104 11.3035 14.6483 11.6279 14.1895 11.4375C14.1895 11.4375 13.9741 11.0036 14.1088 10.6498C14.1088 10.6498 14.0554 9.96998 14.5144 10.0253C14.5144 10.0253 15.0538 10.133 15.1063 10.298C15.1063 10.298 15.2412 10.6252 15.3779 10.2443L15.2412 9.78019C15.2412 9.78019 15.1625 9.5896 15.0266 9.64434C15.0266 9.64434 14.1088 9.78019 13.9995 9.66991L13.2707 9.75282C13.2707 9.75282 13.164 10.0253 13.4889 10.1596C13.4889 10.1596 13.5702 10.2151 13.5702 10.3244Z" fill="#12110C"/>
</svg>
