<svg width="56" height="51" viewBox="0 0 56 51" fill="none" xmlns="http://www.w3.org/2000/svg">
<path d="M27.0469 45.8984H5.96875C5.67453 45.8984 5.39235 45.7816 5.1843 45.5735C4.97625 45.3655 4.85938 45.0833 4.85938 44.7891V5.96094C4.85938 5.66671 4.97625 5.38454 5.1843 5.17649C5.39235 4.96844 5.67453 4.85156 5.96875 4.85156H27.0469V0.414062H3.75C2.86733 0.414063 2.0208 0.764703 1.39666 1.38885C0.772515 2.01299 0.421875 2.85951 0.421875 3.74219V47.0078C0.421875 47.8905 0.772515 48.737 1.39666 49.3611C2.0208 49.9853 2.86733 50.3359 3.75 50.3359H27.0469V45.8984Z" fill="#D7D8F9"/>
<path d="M31.4844 38.1328H29.2656V43.6797H49.2344V7.07031H29.2656V12.6172H31.4844C31.7786 12.6172 32.0608 12.7341 32.2688 12.9421C32.4769 13.1502 32.5938 13.4323 32.5938 13.7266C32.5938 14.0208 32.4769 14.303 32.2688 14.511C32.0608 14.7191 31.7786 14.8359 31.4844 14.8359H29.2656V35.9141H31.4844C31.7786 35.9141 32.0608 36.0309 32.2688 36.239C32.4769 36.447 32.5938 36.7292 32.5938 37.0234C32.5938 37.3177 32.4769 37.5998 32.2688 37.8079C32.0608 38.0159 31.7786 38.1328 31.4844 38.1328ZM45.9062 38.1328H35.9219C35.6277 38.1328 35.3455 38.0159 35.1374 37.8079C34.9294 37.5998 34.8125 37.3177 34.8125 37.0234C34.8125 36.7292 34.9294 36.447 35.1374 36.239C35.3455 36.0309 35.6277 35.9141 35.9219 35.9141H45.9062C46.2005 35.9141 46.4826 36.0309 46.6907 36.239C46.8987 36.447 47.0156 36.7292 47.0156 37.0234C47.0156 37.3177 46.8987 37.5998 46.6907 37.8079C46.4826 38.0159 46.2005 38.1328 45.9062 38.1328ZM35.9219 12.6172H45.9062C46.2005 12.6172 46.4826 12.7341 46.6907 12.9421C46.8987 13.1502 47.0156 13.4323 47.0156 13.7266C47.0156 14.0208 46.8987 14.303 46.6907 14.511C46.4826 14.7191 46.2005 14.8359 45.9062 14.8359H35.9219C35.6277 14.8359 35.3455 14.7191 35.1374 14.511C34.9294 14.303 34.8125 14.0208 34.8125 13.7266C34.8125 13.4323 34.9294 13.1502 35.1374 12.9421C35.3455 12.7341 35.6277 12.6172 35.9219 12.6172ZM32.5938 20.3828H45.9062C46.2005 20.3828 46.4826 20.4997 46.6907 20.7077C46.8987 20.9158 47.0156 21.198 47.0156 21.4922C47.0156 21.7864 46.8987 22.0686 46.6907 22.2766C46.4826 22.4847 46.2005 22.6016 45.9062 22.6016H32.5938C32.2995 22.6016 32.0174 22.4847 31.8093 22.2766C31.6013 22.0686 31.4844 21.7864 31.4844 21.4922C31.4844 21.198 31.6013 20.9158 31.8093 20.7077C32.0174 20.4997 32.2995 20.3828 32.5938 20.3828ZM32.5938 28.1484H45.9062C46.2005 28.1484 46.4826 28.2653 46.6907 28.4734C46.8987 28.6814 47.0156 28.9636 47.0156 29.2578C47.0156 29.552 46.8987 29.8342 46.6907 30.0423C46.4826 30.2503 46.2005 30.3672 45.9062 30.3672H32.5938C32.2995 30.3672 32.0174 30.2503 31.8093 30.0423C31.6013 29.8342 31.4844 29.552 31.4844 29.2578C31.4844 28.9636 31.6013 28.6814 31.8093 28.4734C32.0174 28.2653 32.2995 28.1484 32.5938 28.1484Z" fill="#D7D8F9"/>
<path d="M52.5625 0.414062H29.2656V4.85156H50.3438C50.638 4.85156 50.9201 4.96844 51.1282 5.17649C51.3362 5.38454 51.4531 5.66671 51.4531 5.96094V44.7891C51.4531 45.0833 51.3362 45.3655 51.1282 45.5735C50.9201 45.7816 50.638 45.8984 50.3438 45.8984H29.2656V50.3359H52.5625C53.4452 50.3359 54.2917 49.9853 54.9158 49.3611C55.54 48.737 55.8906 47.8905 55.8906 47.0078V3.74219C55.8906 2.85951 55.54 2.01299 54.9158 1.38885C54.2917 0.764703 53.4452 0.414063 52.5625 0.414062Z" fill="#D7D8F9"/>
<path d="M7.07812 43.6797H27.0469V38.1328H24.8281C24.5339 38.1328 24.2517 38.0159 24.0437 37.8079C23.8356 37.5998 23.7188 37.3177 23.7188 37.0234C23.7188 36.7292 23.8356 36.447 24.0437 36.239C24.2517 36.0309 24.5339 35.9141 24.8281 35.9141H27.0469V14.8359H24.8281C24.5339 14.8359 24.2517 14.7191 24.0437 14.511C23.8356 14.303 23.7188 14.0208 23.7188 13.7266C23.7188 13.4323 23.8356 13.1502 24.0437 12.9421C24.2517 12.7341 24.5339 12.6172 24.8281 12.6172H27.0469V7.07031H7.07812V43.6797ZM10.4062 12.6172H20.3906C20.6848 12.6172 20.967 12.7341 21.1751 12.9421C21.3831 13.1502 21.5 13.4323 21.5 13.7266C21.5 14.0208 21.3831 14.303 21.1751 14.511C20.967 14.7191 20.6848 14.8359 20.3906 14.8359H10.4062C10.112 14.8359 9.82985 14.7191 9.6218 14.511C9.41375 14.303 9.29688 14.0208 9.29688 13.7266C9.29688 13.4323 9.41375 13.1502 9.6218 12.9421C9.82985 12.7341 10.112 12.6172 10.4062 12.6172ZM10.4062 20.3828H23.7188C24.013 20.3828 24.2951 20.4997 24.5032 20.7077C24.7112 20.9158 24.8281 21.198 24.8281 21.4922C24.8281 21.7864 24.7112 22.0686 24.5032 22.2766C24.2951 22.4847 24.013 22.6016 23.7188 22.6016H10.4062C10.112 22.6016 9.82985 22.4847 9.6218 22.2766C9.41375 22.0686 9.29688 21.7864 9.29688 21.4922C9.29688 21.198 9.41375 20.9158 9.6218 20.7077C9.82985 20.4997 10.112 20.3828 10.4062 20.3828ZM10.4062 28.1484H23.7188C24.013 28.1484 24.2951 28.2653 24.5032 28.4734C24.7112 28.6814 24.8281 28.9636 24.8281 29.2578C24.8281 29.552 24.7112 29.8342 24.5032 30.0423C24.2951 30.2503 24.013 30.3672 23.7188 30.3672H10.4062C10.112 30.3672 9.82985 30.2503 9.6218 30.0423C9.41375 29.8342 9.29688 29.552 9.29688 29.2578C9.29688 28.9636 9.41375 28.6814 9.6218 28.4734C9.82985 28.2653 10.112 28.1484 10.4062 28.1484ZM10.4062 35.9141H20.3906C20.6848 35.9141 20.967 36.0309 21.1751 36.239C21.3831 36.447 21.5 36.7292 21.5 37.0234C21.5 37.3177 21.3831 37.5998 21.1751 37.8079C20.967 38.0159 20.6848 38.1328 20.3906 38.1328H10.4062C10.112 38.1328 9.82985 38.0159 9.6218 37.8079C9.41375 37.5998 9.29688 37.3177 9.29688 37.0234C9.29688 36.7292 9.41375 36.447 9.6218 36.239C9.82985 36.0309 10.112 35.9141 10.4062 35.9141Z" fill="#D7D8F9"/>
</svg>
