<svg width="47" height="56" viewBox="0 0 47 56" fill="none" xmlns="http://www.w3.org/2000/svg">
<path d="M0.966923 47.6849C3.67935 48.3206 5.17145 49.4766 10.0938 49.4766C16.892 49.4766 17.0584 47.2578 23.4063 47.2578C29.7652 47.2578 29.8894 49.4766 36.7188 49.4766C41.5845 49.4766 43.2397 48.2962 45.85 47.6849C46.1306 47.6124 46.3716 47.4331 46.5216 47.1852C46.6716 46.9373 46.7187 46.6405 46.6528 46.3584C46.5868 46.0762 46.4131 45.8311 46.1688 45.6753C45.9244 45.5196 45.6289 45.4656 45.3453 45.525C43.598 45.9332 42.4453 46.4957 40.7203 46.874L44.0062 33.7234C44.1936 32.9886 44.1229 32.2117 43.8061 31.5227C43.4892 30.8337 42.9454 30.2744 42.2656 29.9383L40.0402 28.8289V18.4141C40.0402 17.8256 39.8065 17.2613 39.3904 16.8452C38.9743 16.4291 38.4099 16.1953 37.8215 16.1953H35.6027V12.8672C35.6027 11.9845 35.2521 11.138 34.6279 10.5138C34.0038 9.8897 33.1573 9.53906 32.2746 9.53906H26.7344V2.88281C26.7344 2.29436 26.5006 1.73002 26.0845 1.31392C25.6684 0.897823 25.1041 0.664063 24.5156 0.664062H22.2825C21.694 0.664063 21.1297 0.897823 20.7136 1.31392C20.2975 1.73002 20.0637 2.29436 20.0637 2.88281V9.53906H14.5246C13.6419 9.53906 12.7954 9.8897 12.1713 10.5138C11.5471 11.138 11.1965 11.9845 11.1965 12.8672V16.1953H8.97772C8.38927 16.1953 7.82492 16.4291 7.40883 16.8452C6.99273 17.2613 6.75897 17.8256 6.75897 18.4141V28.8255L4.53245 29.9349C3.85217 30.2713 3.30813 30.8313 2.99146 31.521C2.67478 32.2107 2.6047 32.9882 2.79295 33.7234L6.08003 46.8706C4.36161 46.4923 3.21674 45.9332 1.47169 45.525C1.32853 45.488 1.17943 45.48 1.03313 45.5014C0.886842 45.5229 0.746317 45.5734 0.619817 45.6499C0.493318 45.7265 0.383397 45.8276 0.296516 45.9472C0.209635 46.0668 0.147546 46.2026 0.113899 46.3466C0.0802523 46.4906 0.0757264 46.6398 0.100587 46.7856C0.125449 46.9314 0.179195 47.0707 0.258668 47.1954C0.33814 47.32 0.441735 47.4276 0.563364 47.5116C0.684993 47.5957 0.822201 47.6546 0.966923 47.6849ZM41.2738 31.9218C41.4996 32.0347 41.6802 32.2212 41.7857 32.4505C41.8911 32.6798 41.9153 32.9383 41.854 33.1832L38.3495 47.2001C37.8514 47.2345 37.3211 47.2578 36.7154 47.2578C30.5318 47.2578 30.473 45.302 24.5123 45.0635V23.5416L41.2738 31.9218ZM22.2825 2.88281H24.5156V9.53906H22.2825V2.88281ZM13.4152 12.8672C13.4152 12.573 13.5321 12.2908 13.7401 12.0827C13.9482 11.8747 14.2304 11.7578 14.5246 11.7578H32.2746C32.5688 11.7578 32.851 11.8747 33.059 12.0827C33.2671 12.2908 33.384 12.573 33.384 12.8672V16.1953H13.4152V12.8672ZM8.97772 18.4141H37.8215V27.714L23.9021 20.7493C23.8933 20.7493 23.8822 20.7493 23.8722 20.7426C23.7277 20.6704 23.5684 20.6328 23.4068 20.6328C23.2453 20.6328 23.0859 20.6704 22.9414 20.7426C22.9314 20.7426 22.9203 20.7426 22.9104 20.7493L8.97772 27.7162V18.4141ZM4.94514 33.1854C4.88364 32.9403 4.90763 32.6816 5.01313 32.4521C5.11863 32.2225 5.29933 32.0358 5.52534 31.9229L22.2969 23.5372V45.059C16.3063 45.2964 16.2563 47.2545 10.0938 47.2545C9.4847 47.2545 8.95109 47.2301 8.44966 47.1957L4.94514 33.1854Z" fill="#051F39"/>
<path d="M45.3419 51.0718C42.4409 51.7497 41.2605 52.8047 36.7187 52.8047C30.3709 52.8047 30.1989 50.5859 23.4062 50.5859C16.6135 50.5859 16.4427 52.8047 10.0993 52.8047C5.55086 52.8047 4.3605 51.7463 1.47834 51.0718C1.33518 51.0349 1.18608 51.0269 1.03979 51.0483C0.893495 51.0698 0.75297 51.1203 0.62647 51.1968C0.499971 51.2734 0.39005 51.3744 0.303169 51.4941C0.216287 51.6137 0.154199 51.7495 0.120552 51.8935C0.086905 52.0375 0.0823793 52.1867 0.10724 52.3325C0.132101 52.4782 0.185848 52.6175 0.26532 52.7422C0.344793 52.8669 0.448388 52.9744 0.570017 53.0585C0.691646 53.1426 0.828854 53.2015 0.973576 53.2318C3.67934 53.8675 5.17145 55.0234 10.0937 55.0234C16.892 55.0234 17.0584 52.8047 23.4062 52.8047C29.7652 52.8047 29.8894 55.0234 36.7187 55.0234C41.5845 55.0234 43.2396 53.8431 45.85 53.2318C46.1305 53.1593 46.3716 52.9799 46.5216 52.732C46.6716 52.4841 46.7187 52.1874 46.6528 51.9052C46.5868 51.6231 46.4131 51.3779 46.1688 51.2222C45.9244 51.0665 45.6289 51.0125 45.3452 51.0718H45.3419Z" fill="#051F39"/>
</svg>
