<?xml version="1.0" encoding="utf-8"?><svg xmlns="http://www.w3.org/2000/svg" xmlns:xlink="http://www.w3.org/1999/xlink">
    <symbol viewBox="0 0 612.675 612.675" id="attach" xmlns="http://www.w3.org/2000/svg">
        <path d="M581.209 223.007 269.839 530.92c-51.592 51.024-135.247 51.024-186.839 0-51.592-51.023-51.592-133.737 0-184.761L363.248 69.04c34.402-34.009 90.15-34.009 124.553 0 34.402 34.008 34.402 89.166 0 123.174l-280.249 277.12c-17.19 17.016-45.075 17.016-62.287 0-17.19-16.993-17.19-44.571 0-61.587L394.37 161.42l-31.144-30.793-249.082 246.348c-34.402 34.009-34.402 89.166 0 123.174 34.402 34.009 90.15 34.009 124.552 0l280.249-277.12c51.592-51.023 51.592-133.737 0-184.761-51.593-51.023-135.247-51.023-186.839 0L36.285 330.784l1.072 1.071c-53.736 68.323-49.012 167.091 14.5 229.88 63.512 62.79 163.35 67.492 232.46 14.325l1.072 1.072 326.942-323.31-31.122-30.815z" />
    </symbol>
    <symbol viewBox="0 0 24 24" id="check" xmlns="http://www.w3.org/2000/svg">
        <path d="M19.707 6.293a1 1 0 0 1 0 1.414l-10 10a1 1 0 0 1-1.414 0l-4-4a1 1 0 1 1 1.414-1.414L9 15.586l9.293-9.293a1 1 0 0 1 1.414 0Z" />
    </symbol>
    <symbol viewBox="0 0 24 24" id="hide" xmlns="http://www.w3.org/2000/svg">
        <path fill-rule="evenodd" clip-rule="evenodd" d="m4.412 3.002 16.97 16.969.001-.002.002.002-1.414 1.414-3.357-3.357c-1.257.586-2.78.972-4.614.972-7.592 0-9.874-6.617-9.896-6.684L2 12l.105-.316c.014-.042.929-2.699 3.515-4.65L3 4.415l1.412-1.412ZM15.087 16.5l-1.797-1.797c-.392.19-.83.296-1.29.296a3.02 3.02 0 0 1-3-3c0-.46.107-.898.296-1.29l-2.26-2.26C5.27 9.667 4.416 11.31 4.116 12c.5 1.154 2.562 5 7.884 5 1.184 0 2.207-.19 3.087-.5Z" />
        <path d="M9.5 5.261C10.261 5.095 11.093 5 12 5c7.592 0 9.874 6.617 9.896 6.684L22 12l-.105.316c-.01.033-.57 1.657-2.044 3.296L18.46 14.22A8.595 8.595 0 0 0 19.883 12c-.499-1.154-2.56-5-7.883-5-.252 0-.498.009-.736.025L9.5 5.261Z" />
    </symbol>
    <symbol viewBox="0 0 24 24" id="show" xmlns="http://www.w3.org/2000/svg">
        <path d="M12 9a3.02 3.02 0 0 0-3 3c0 1.642 1.358 3 3 3 1.641 0 3-1.358 3-3 0-1.641-1.359-3-3-3Z" />
        <path d="M12 5c-7.592 0-9.874 6.617-9.895 6.684L2 12l.104.316C2.126 12.383 4.408 19 12 19c7.592 0 9.874-6.617 9.895-6.684L22 12l-.104-.316C21.874 11.617 19.592 5 12 5Zm0 12c-5.322 0-7.384-3.846-7.883-5 .5-1.158 2.564-5 7.883-5 5.322 0 7.384 3.846 7.883 5-.5 1.158-2.564 5-7.883 5Z" />
    </symbol>
    <symbol viewBox="0 0 17 16" id="star" xmlns="http://www.w3.org/2000/svg">
        <path d="M16.956 6.046a.899.899 0 0 0-.778-.61l-4.907-.438-1.94-4.46A.904.904 0 0 0 8.5 0a.904.904 0 0 0-.832.54L5.73 4.997l-4.907.438a.9.9 0 0 0-.778.61.876.876 0 0 0 .265.943l3.709 3.194-1.094 4.732a.879.879 0 0 0 .351.916.913.913 0 0 0 .993.042L8.5 13.39l4.231 2.484c.31.183.7.167.993-.042a.88.88 0 0 0 .351-.916l-1.093-4.732L16.69 6.99a.878.878 0 0 0 .265-.943Z" />
    </symbol>
    <symbol viewBox="0 0 24 24" id="user" xmlns="http://www.w3.org/2000/svg">
        <path fill-rule="evenodd" clip-rule="evenodd" d="M5.2 19.332A9.972 9.972 0 0 1 2 12C2 6.477 6.477 2 12 2s10 4.477 10 10a9.973 9.973 0 0 1-3.2 7.332 7.016 7.016 0 0 0-3.55-4.533 5 5 0 1 0-6.502 0A7.013 7.013 0 0 0 5.2 19.332Zm1.81 1.336A9.954 9.954 0 0 0 12 22c1.817 0 3.52-.485 4.99-1.332a5 5 0 0 0-9.98 0ZM12 8a3 3 0 1 0 0 6 3 3 0 0 0 0-6Z" />
    </symbol>
</svg>