<svg id="Dots" xmlns="http://www.w3.org/2000/svg" viewBox="0 0 22.84 155.49"><defs><style>.cls-1{fill:#6f4375;}</style></defs><title>Dots-Mobile-Main</title><g id="Dots-2" data-name="Dots"><circle class="cls-1" cx="2.28" cy="103.18" r="2.28"/><circle class="cls-1" cx="2.28" cy="67.44" r="2.28"/><circle class="cls-1" cx="2.28" cy="60.29" r="2.28"/><circle class="cls-1" cx="2.28" cy="74.59" r="2.28"/><circle class="cls-1" cx="2.28" cy="81.74" r="2.28"/><circle class="cls-1" cx="2.28" cy="96.03" r="2.28"/><circle class="cls-1" cx="2.28" cy="88.88" r="2.28"/><circle class="cls-1" cx="2.28" cy="53.15" r="2.28"/><circle class="cls-1" cx="2.28" cy="17.41" r="2.28"/><circle class="cls-1" cx="2.28" cy="24.55" r="2.28"/><path class="cls-1" d="M2.08,12.5a2.08,2.08,0,0,0,.64.1,2.31,2.31,0,1,0-.64-.1Z" transform="translate(0 -0.01)"/><circle class="cls-1" cx="2.28" cy="46" r="2.28"/><circle class="cls-1" cx="2.28" cy="31.7" r="2.28"/><circle class="cls-1" cx="2.28" cy="38.85" r="2.28"/><path class="cls-1" d="M5.34,2.71a2.28,2.28,0,1,0,3.19.45A2.28,2.28,0,0,0,5.34,2.71Z" transform="translate(0 -0.01)"/><circle class="cls-1" cx="20.56" cy="2.28" r="2.28"/><path class="cls-1" d="M13.41,0h-.05a2.28,2.28,0,0,0,0,4.56h0a2.28,2.28,0,0,0,0-4.56Z" transform="translate(0 -0.01)"/><circle class="cls-1" cx="2.28" cy="124.62" r="2.28"/><circle class="cls-1" cx="2.28" cy="110.33" r="2.28"/><circle class="cls-1" cx="2.28" cy="117.47" r="2.28"/><circle class="cls-1" cx="2.28" cy="131.77" r="2.28"/><circle class="cls-1" cx="2.28" cy="153.21" r="2.28"/><circle class="cls-1" cx="2.28" cy="138.92" r="2.28"/><circle class="cls-1" cx="2.28" cy="146.07" r="2.28"/></g></svg>