<svg id="Layer_1" data-name="Layer 1" xmlns="http://www.w3.org/2000/svg" viewBox="0 0 69.21 540"><defs><style>.cls-1{fill:#6e4374;}</style></defs><title>Dots Desktop Main</title><circle class="cls-1" cx="6.91" cy="312.66" r="6.91"/><circle class="cls-1" cx="6.91" cy="204.36" r="6.91"/><circle class="cls-1" cx="6.91" cy="182.7" r="6.91"/><circle class="cls-1" cx="6.91" cy="226.02" r="6.91"/><circle class="cls-1" cx="6.91" cy="247.68" r="6.91"/><circle class="cls-1" cx="6.91" cy="291" r="6.91"/><circle class="cls-1" cx="6.91" cy="269.34" r="6.91"/><circle class="cls-1" cx="6.91" cy="161.04" r="6.91"/><circle class="cls-1" cx="6.91" cy="52.75" r="6.91"/><circle class="cls-1" cx="6.91" cy="74.41" r="6.91"/><path class="cls-1" d="M6.32,37.94a6.78,6.78,0,0,0,1.93.28,6.93,6.93,0,1,0-1.93-.28Z" transform="translate(0 -0.08)"/><circle class="cls-1" cx="6.91" cy="139.38" r="6.91"/><circle class="cls-1" cx="6.91" cy="96.06" r="6.91"/><circle class="cls-1" cx="6.91" cy="117.72" r="6.91"/><path class="cls-1" d="M16.17,8.27a6.91,6.91,0,1,0,9.68,1.35A6.92,6.92,0,0,0,16.17,8.27Z" transform="translate(0 -0.08)"/><path class="cls-1" d="M6.91,492.92A6.92,6.92,0,1,0,0,486,6.91,6.91,0,0,0,6.91,492.92Z" transform="translate(0 -0.08)"/><path class="cls-1" d="M14.61,505.93A6.91,6.91,0,1,0,7.9,514.5a6.43,6.43,0,0,0,1.67-.21A6.9,6.9,0,0,0,14.61,505.93Z" transform="translate(0 -0.08)"/><path class="cls-1" d="M39.48,526.23A6.91,6.91,0,1,0,38.9,540h.29a6.91,6.91,0,0,0,.29-13.82Z" transform="translate(0 -0.08)"/><path class="cls-1" d="M23.67,520.21a6.91,6.91,0,1,0,1,9.72A6.9,6.9,0,0,0,23.67,520.21Z" transform="translate(0 -0.08)"/><circle class="cls-1" cx="62.3" cy="6.91" r="6.91"/><path class="cls-1" d="M40.64.08h-.16a6.91,6.91,0,0,0,0,13.82h.14a6.91,6.91,0,0,0,0-13.82Z" transform="translate(0 -0.08)"/><path class="cls-1" d="M60.85,526.26a6.91,6.91,0,1,0,6.9,6.91A6.91,6.91,0,0,0,60.85,526.26Z" transform="translate(0 -0.08)"/><circle class="cls-1" cx="6.91" cy="377.63" r="6.91"/><circle class="cls-1" cx="6.91" cy="334.32" r="6.91"/><circle class="cls-1" cx="6.91" cy="355.98" r="6.91"/><circle class="cls-1" cx="6.91" cy="399.29" r="6.91"/><circle class="cls-1" cx="6.91" cy="464.27" r="6.91"/><circle class="cls-1" cx="6.91" cy="420.95" r="6.91"/><circle class="cls-1" cx="6.91" cy="442.61" r="6.91"/></svg>