<?xml version="1.0" encoding="UTF-8"?><!DOCTYPE svg PUBLIC "-//W3C//DTD SVG 1.1//EN" "http://www.w3.org/Graphics/SVG/1.1/DTD/svg11.dtd"><svg xmlns="http://www.w3.org/2000/svg" xmlns:xlink="http://www.w3.org/1999/xlink"><symbol id="icon-arrow" viewBox="0 0 12 14">
<path fill-rule="evenodd" d="M0.304,6.707 C0.694,7.097 1.327,7.097 1.717,6.707 L5.008,3.414 L5.008,13.000 C5.008,13.552 5.455,14.000 6.007,14.000 C6.559,14.000 7.006,13.552 7.006,13.000 L7.006,3.414 L10.297,6.707 C10.687,7.097 11.319,7.097 11.710,6.707 C12.100,6.317 12.100,5.683 11.710,5.293 L6.714,0.293 C6.533,0.112 6.283,-0.000 6.007,-0.000 C5.731,-0.000 5.481,0.112 5.300,0.293 L0.304,5.293 C-0.086,5.683 -0.086,6.317 0.304,6.707 Z"/>
</symbol><symbol id="icon-menu" viewBox="0 0 20 20">
<rect class="cls-1" width="20" height="4" rx="2" ry="2"/>
<rect class="cls-1" y="8" width="20" height="4" rx="2" ry="2"/>
<rect class="cls-1" y="16" width="20" height="4" rx="2" ry="2"/>
</symbol></svg>