<svg id="Waves" xmlns="http://www.w3.org/2000/svg" viewBox="0 0 2985.59 800.55"><defs><style>.cls-1{fill:#5d668a;}.cls-2{fill:#fff;}</style></defs><title>Wave Desktop Main</title><path id="Wave_Back" data-name="Wave Back" class="cls-1" d="M1920.19,1079.88V777.81l-95.79,55.31-.79.47a449.56,449.56,0,0,1-225.36,60.56H482.14a449.44,449.44,0,0,0-225.36,60.57l-.8.47L40,1079.88Z" transform="translate(532.6 -539.88)"/><path id="Wave_Front" data-name="Wave Front" class="cls-2" d="M2453,539.88a449.5,449.5,0,0,0-225.78,60.57l-1.61.95v-.1L1744.4,879.12l-.79.47a449.56,449.56,0,0,1-225.36,60.56H402.14a449.44,449.44,0,0,0-225.36,60.57l-.8.47L-305.21,1279v-.09l-1.62.95a449.47,449.47,0,0,1-225.77,60.56H2453Z" transform="translate(532.6 -539.88)"/></svg>