<svg width="100" height="40" viewBox="0 0 100 40" fill="none" xmlns="http://www.w3.org/2000/svg">
<g clip-path="url(#clip0_4_6)">
<rect width="100" height="40" fill="white"/>
<path d="M32.176 25.232C32.224 25.328 32.288 25.696 32.368 26.336C32.464 26.976 32.512 27.52 32.512 27.968C32.512 28.4 32.488 28.744 32.44 29H21.04L20.968 28.16C21.72 27.888 22.4 27.704 23.008 27.608C22.912 21.304 22.832 16.656 22.768 13.664C22.352 13.6 21.648 13.408 20.656 13.088L20.776 12.2H26.56C26.832 12.648 26.968 13.12 26.968 13.616C26.104 13.648 25.48 13.672 25.096 13.688C25.064 16.76 25.032 19.56 25 22.088C24.984 24.6 24.968 26.368 24.952 27.392H30.208L30.784 25.112C31.584 25.112 32.048 25.152 32.176 25.232ZM41.0511 27.44C44.2831 27.44 45.8991 25.168 45.8991 20.624C45.8991 16.064 44.2831 13.784 41.0511 13.784C39.5311 13.784 38.2911 14.008 37.3311 14.456C36.4671 16.168 36.0351 18.144 36.0351 20.384C36.0351 22.608 36.4031 24.344 37.1391 25.592C37.8911 26.824 39.1951 27.44 41.0511 27.44ZM33.6831 20.696C33.6831 17.88 34.2591 15.712 35.4111 14.192C36.5791 12.656 38.4671 11.888 41.0751 11.888C43.6991 11.888 45.5471 12.592 46.6191 14C47.7071 15.392 48.2511 17.504 48.2511 20.336C48.2511 23.168 47.6671 25.368 46.4991 26.936C45.3471 28.504 43.4991 29.288 40.9551 29.288C38.4271 29.288 36.5791 28.56 35.4111 27.104C34.2591 25.648 33.6831 23.512 33.6831 20.696ZM56.2782 29.312C54.1342 29.312 52.4222 28.576 51.1422 27.104C49.8622 25.632 49.2222 23.456 49.2222 20.576C49.2222 17.68 49.7742 15.512 50.8782 14.072C51.9982 12.616 53.7342 11.888 56.0862 11.888C58.4542 11.888 60.4462 12.48 62.0622 13.664C62.0622 14.48 61.9502 15.448 61.7262 16.568C61.3742 16.632 60.9102 16.664 60.3342 16.664L59.8062 14.192C58.8942 13.888 57.7742 13.736 56.4462 13.736C55.5662 13.736 54.3582 13.976 52.8222 14.456C52.7262 14.632 52.6062 14.88 52.4622 15.2C52.3182 15.504 52.1262 16.16 51.8862 17.168C51.6622 18.16 51.5502 19.16 51.5502 20.168C51.5502 25.08 53.1422 27.536 56.3262 27.536C58.0062 27.536 59.3022 27.232 60.2142 26.624C60.2782 24.608 60.3182 23.096 60.3342 22.088L58.0062 21.512L58.0782 20.672H63.5982C63.8702 21.184 64.0062 21.664 64.0062 22.112C63.3822 22.208 62.7102 22.272 61.9902 22.304C62.0862 24.992 62.1342 26.848 62.1342 27.872C61.7342 28.144 60.9342 28.456 59.7342 28.808C58.5502 29.144 57.3982 29.312 56.2782 29.312ZM72.3168 27.44C75.5488 27.44 77.1648 25.168 77.1648 20.624C77.1648 16.064 75.5488 13.784 72.3168 13.784C70.7968 13.784 69.5568 14.008 68.5968 14.456C67.7328 16.168 67.3008 18.144 67.3008 20.384C67.3008 22.608 67.6688 24.344 68.4048 25.592C69.1568 26.824 70.4608 27.44 72.3168 27.44ZM64.9488 20.696C64.9488 17.88 65.5248 15.712 66.6768 14.192C67.8448 12.656 69.7328 11.888 72.3408 11.888C74.9648 11.888 76.8128 12.592 77.8848 14C78.9728 15.392 79.5168 17.504 79.5168 20.336C79.5168 23.168 78.9328 25.368 77.7648 26.936C76.6128 28.504 74.7648 29.288 72.2208 29.288C69.6928 29.288 67.8448 28.56 66.6768 27.104C65.5248 25.648 64.9488 23.512 64.9488 20.696Z" fill="black"/>
</g>
<defs>
<clipPath id="clip0_4_6">
<rect width="100" height="40" fill="white"/>
</clipPath>
</defs>
</svg>
