<svg width="271" height="67" viewBox="0 0 271 67" fill="none" xmlns="http://www.w3.org/2000/svg">
<g clip-path="url(#clip0_750_304093)">
<path d="M141.57 58.0993C141.819 57.8818 142.019 57.6138 142.156 57.3132C142.293 57.0125 142.364 56.6863 142.364 56.3562C142.362 56.0418 142.298 55.7308 142.175 55.4413C142.051 55.1519 141.871 54.8897 141.645 54.6702C141.419 54.4507 141.151 54.2781 140.857 54.1627C140.563 54.0472 140.249 53.9911 139.933 53.9976H134.195V62.9037H140.086C140.436 62.9102 140.783 62.8474 141.109 62.7191C141.434 62.5907 141.73 62.3993 141.98 62.156C142.23 61.9128 142.429 61.6224 142.566 61.3019C142.702 60.9814 142.773 60.6371 142.774 60.289C142.776 59.8525 142.666 59.4227 142.456 59.0397C142.245 58.6568 141.94 58.3332 141.57 58.0993ZM135.378 55.0598H139.927C140.265 55.0813 140.581 55.2299 140.812 55.4752C141.044 55.7206 141.172 56.0443 141.172 56.3807C141.172 56.7171 141.044 57.0408 140.812 57.2862C140.581 57.5315 140.265 57.6801 139.927 57.7016H135.378V55.0598ZM140.086 61.8959H135.378V58.7421H140.086C140.49 58.7657 140.87 58.9421 141.148 59.2353C141.426 59.5284 141.581 59.9161 141.581 60.319C141.581 60.7219 141.426 61.1096 141.148 61.4027C140.87 61.6959 140.49 61.8723 140.086 61.8959Z" fill="#0D0D0D"/>
<path d="M125.41 53.8506C122.448 53.8506 120.039 55.9151 120.039 58.4534C120.039 60.9918 122.448 63.0508 125.41 63.0508C128.372 63.0508 130.781 60.9864 130.781 58.4534C130.781 55.9205 128.372 53.8506 125.41 53.8506ZM125.41 61.896C123.088 61.896 121.194 60.3545 121.194 58.4534C121.194 56.5524 123.088 55.0054 125.41 55.0054C127.731 55.0054 129.62 56.5524 129.62 58.4534C129.62 60.3545 127.731 61.896 125.41 61.896Z" fill="#0D0D0D"/>
<path d="M151.181 57.1569H147.261V53.9976H146.078V62.9037H151.181C151.57 62.9205 151.96 62.8587 152.325 62.722C152.69 62.5852 153.024 62.3762 153.305 62.1078C153.587 61.8393 153.812 61.5168 153.965 61.1598C154.118 60.8027 154.197 60.4185 154.197 60.0303C154.197 59.6421 154.118 59.2578 153.965 58.9008C153.812 58.5438 153.587 58.2213 153.305 57.9528C153.024 57.6843 152.69 57.4754 152.325 57.3386C151.96 57.2018 151.57 57.14 151.181 57.1569ZM151.181 61.8687H147.261V58.1973H151.181C151.67 58.1973 152.139 58.3907 152.485 58.735C152.831 59.0792 153.026 59.5462 153.026 60.033C153.026 60.5199 152.831 60.9868 152.485 61.331C152.139 61.6753 151.67 61.8687 151.181 61.8687Z" fill="#0D0D0D"/>
<path d="M157.417 53.9976H156.234V62.9091H157.417V53.9976Z" fill="#0D0D0D"/>
<path d="M184.789 53.8507C184.026 53.8319 183.27 53.9826 182.574 54.2917C181.878 54.6008 181.26 55.0605 180.765 55.6373V54.0032H179.582V66.6079H180.765V61.2643C181.259 61.842 181.877 62.3023 182.573 62.6115C183.269 62.9207 184.026 63.0708 184.789 63.0509C187.75 63.0509 190.159 60.9865 190.159 58.4535C190.159 55.9206 187.75 53.8507 184.789 53.8507ZM184.789 62.0214C182.527 62.0214 181.06 60.6923 180.765 59.0582V57.729C181.06 56.1439 182.407 54.9292 184.789 54.9292C187.17 54.9292 188.999 56.5634 188.999 58.4535C188.999 60.3437 187.11 61.9942 184.789 61.9942V62.0214Z" fill="#0D0D0D"/>
<path d="M218.673 61.8687H213.456V53.9976H212.273V61.8687H207.067V53.9976H205.879V62.9037H219.856V53.9976H218.673V61.8687Z" fill="#0D0D0D"/>
<path d="M244.416 57.9304H237.616V53.9976H236.434V62.9037H237.616V58.9708H244.416V62.9037H245.598V53.9976H244.416V57.9304Z" fill="#0D0D0D"/>
<path d="M250.765 61.1823V53.9976H249.582V62.9037H250.551L257.559 55.6263V62.9037H258.741V53.9976H257.685L250.765 61.1823Z" fill="#0D0D0D"/>
<path d="M270.437 53.9976H265.252C264.556 54.0047 263.885 54.264 263.366 54.7271C262.848 55.1902 262.516 55.8253 262.433 56.5139C262.351 57.2025 262.523 57.8974 262.918 58.4688C263.313 59.0403 263.903 59.4491 264.579 59.619L262.258 62.8873H263.539L265.778 59.728H269.287V62.8873H270.47V53.9976H270.437ZM265.335 58.7094C264.862 58.6799 264.419 58.4712 264.096 58.1264C263.773 57.7815 263.596 57.3266 263.6 56.8554C263.604 56.3843 263.79 55.9326 264.119 55.5935C264.447 55.2544 264.894 55.0536 265.367 55.0325H269.287V58.7094H265.335Z" fill="#0D0D0D"/>
<path d="M109.445 53.9976V55.0325H113.415V62.9037H114.597V55.0325H118.566V53.9976H109.445Z" fill="#0D0D0D"/>
<path d="M18.5387 58.7911L14.0549 53.9976H13.1406V62.9037H14.3232V55.806L18.5387 60.3108L22.7762 55.7842V62.9037H23.9587V53.9976H23.0225L18.5387 58.7911Z" fill="#0D0D0D"/>
<path d="M5.73073 61.6889L1.69036 53.9976H0.507812L5.20516 62.9037L4.47152 64.6086C3.51892 66.5369 1.18669 65.6381 1.08267 65.5945L0.688489 66.5696C1.23102 66.7811 1.80843 66.8901 2.39113 66.891C3.02194 66.9186 3.64682 66.7595 4.18671 66.4337C4.7266 66.1079 5.15724 65.6301 5.42414 65.0607L10.2474 53.9976H9.08127L5.73073 61.6889Z" fill="#0D0D0D"/>
<path d="M79.0895 55.0054C79.7091 54.9948 80.3244 55.1101 80.8977 55.3442C81.471 55.5784 81.9902 55.9265 82.4236 56.3672L83.2722 55.5991C82.7333 55.0372 82.0837 54.5919 81.364 54.2911C80.6443 53.9902 79.87 53.8403 79.0895 53.8506C76.1276 53.8506 73.7188 55.9151 73.7188 58.4534C73.7188 60.9918 76.1276 63.0508 79.0895 63.0508C79.8687 63.0611 80.6417 62.9116 81.3604 62.6118C82.079 62.3119 82.728 61.868 83.2667 61.3078L82.4455 60.5397C82.0128 60.9795 81.4944 61.3267 80.922 61.56C80.3496 61.7932 79.7353 61.9076 79.1169 61.896C76.7956 61.896 74.9068 60.3545 74.9068 58.4534C74.9068 56.5524 76.7682 55.0054 79.0895 55.0054Z" fill="#0D0D0D"/>
<path d="M166.031 53.8506C163.069 53.8506 160.66 55.9151 160.66 58.4534C160.66 60.9918 163.069 63.0508 166.031 63.0508C166.814 63.0606 167.591 62.9094 168.312 62.6066C169.034 62.3039 169.685 61.8561 170.225 61.2914L169.414 60.507C168.98 60.9632 168.455 61.3243 167.872 61.5672C167.289 61.8101 166.662 61.9295 166.031 61.9178C163.923 61.9178 162.199 60.6432 161.881 58.9927H171.341C171.372 58.8216 171.392 58.6488 171.402 58.4752C171.402 55.9151 168.993 53.8506 166.031 53.8506ZM161.881 57.9305C162.193 56.2964 163.923 55.0054 166.031 55.0054C168.139 55.0054 169.863 56.28 170.181 57.9305H161.881Z" fill="#0D0D0D"/>
<path d="M35.9509 57.9304H29.1513V53.9976H27.9688V62.9037H29.1513V58.9708H35.9509V62.9037H37.1335V53.9976H35.9509V57.9304Z" fill="#0D0D0D"/>
<path d="M46.1689 57.1569H42.2544V53.9976H41.0664V62.9037H46.1689C46.5587 62.9205 46.9479 62.8587 47.3131 62.722C47.6783 62.5852 48.0118 62.3762 48.2937 62.1078C48.5755 61.8393 48.7998 61.5168 48.9531 61.1598C49.1063 60.8027 49.1853 60.4185 49.1853 60.0303C49.1853 59.6421 49.1063 59.2578 48.9531 58.9008C48.7998 58.5438 48.5755 58.2213 48.2937 57.9528C48.0118 57.6843 47.6783 57.4754 47.3131 57.3386C46.9479 57.2018 46.5587 57.14 46.1689 57.1569ZM46.1689 61.8687H42.2544V58.1973H46.1689C46.6582 58.1973 47.1275 58.3907 47.4735 58.735C47.8195 59.0792 48.0138 59.5462 48.0138 60.033C48.0138 60.5199 47.8195 60.9868 47.4735 61.331C47.1275 61.6753 46.6582 61.8687 46.1689 61.8687Z" fill="#0D0D0D"/>
<path d="M52.4052 53.9976H51.2227V62.9091H52.4052V53.9976Z" fill="#0D0D0D"/>
<path d="M197.632 53.8506C194.671 53.8506 192.262 55.9151 192.262 58.4534C192.262 60.9918 194.671 63.0508 197.632 63.0508C198.416 63.0606 199.192 62.9094 199.914 62.6066C200.635 62.3039 201.286 61.8561 201.826 61.2914L201.016 60.507C200.581 60.9632 200.056 61.3243 199.474 61.5672C198.891 61.8101 198.264 61.9295 197.632 61.9178C195.525 61.9178 193.8 60.6432 193.483 58.9927H202.943C202.974 58.8216 202.994 58.6488 203.003 58.4752C203.003 55.9151 200.594 53.8506 197.632 53.8506ZM193.483 57.9305C193.795 56.2964 195.525 55.0054 197.632 55.0054C199.74 55.0054 201.465 56.28 201.782 57.9305H193.483Z" fill="#0D0D0D"/>
<path d="M228.191 53.8506C225.229 53.8506 222.82 55.9151 222.82 58.4534C222.82 60.9918 225.229 63.0508 228.191 63.0508C228.974 63.0606 229.751 62.9094 230.472 62.6066C231.194 62.3039 231.845 61.8561 232.385 61.2914L231.574 60.507C231.14 60.9632 230.615 61.3243 230.032 61.5672C229.45 61.8101 228.823 61.9295 228.191 61.9178C226.083 61.9178 224.359 60.6432 224.041 58.9927H233.502C233.532 58.8216 233.553 58.6488 233.562 58.4752C233.545 55.9151 231.153 53.8506 228.191 53.8506ZM224.041 57.9305C224.353 56.2964 226.083 55.0054 228.191 55.0054C230.299 55.0054 232.023 56.28 232.335 57.9305H224.041Z" fill="#0D0D0D"/>
<path d="M102.73 53.8506C99.7683 53.8506 97.3594 55.9151 97.3594 58.4534C97.3594 60.9918 99.7683 63.0508 102.73 63.0508C103.513 63.0613 104.29 62.9103 105.012 62.6075C105.734 62.3047 106.385 61.8566 106.924 61.2914L106.113 60.507C105.679 60.9632 105.154 61.3243 104.571 61.5672C103.989 61.8101 103.362 61.9295 102.73 61.9178C100.622 61.9178 98.8978 60.6432 98.5802 58.9927H108.041C108.071 58.8216 108.092 58.6488 108.101 58.4752C108.101 55.9151 105.692 53.8506 102.73 53.8506ZM98.5802 57.9305C98.8923 56.2964 100.628 55.0054 102.73 55.0054C104.832 55.0054 106.562 56.28 106.88 57.9305H98.5802Z" fill="#0D0D0D"/>
<path d="M60.6613 53.8506C57.6995 53.8506 55.2852 55.9151 55.2852 58.4534C55.2852 60.9918 57.6995 63.0508 60.6613 63.0508C61.4443 63.0599 62.2208 62.9084 62.9424 62.6057C63.6639 62.303 64.315 61.8556 64.855 61.2914L64.0448 60.507C63.6103 60.9632 63.0851 61.3243 62.5025 61.5672C61.92 61.8101 61.2929 61.9295 60.6613 61.9178C58.5536 61.9178 56.829 60.6432 56.5115 58.9927H65.9719C66.0027 58.8216 66.0228 58.6488 66.0321 58.4752C66.0211 55.9151 63.6232 53.8506 60.6613 53.8506ZM56.5115 57.9305C56.8181 56.2964 58.5536 55.0054 60.6613 55.0054C62.7691 55.0054 64.4937 56.28 64.8057 57.9305H56.5115Z" fill="#0D0D0D"/>
<path d="M93.7831 58.0994C94.0335 57.8827 94.234 57.6148 94.371 57.314C94.5079 57.0132 94.5782 56.6866 94.5769 56.3563C94.5755 56.0424 94.5114 55.7318 94.3884 55.4427C94.2653 55.1536 94.0857 54.8918 93.8601 54.6723C93.6344 54.4529 93.3672 54.2802 93.0739 54.1644C92.7806 54.0486 92.4671 53.9919 92.1516 53.9977H86.4141V62.9038H92.2994C92.6492 62.9103 92.9967 62.8476 93.3219 62.7192C93.647 62.5909 93.9433 62.3995 94.1934 62.1562C94.4435 61.9129 94.6425 61.6225 94.7789 61.302C94.9152 60.9815 94.9861 60.6372 94.9875 60.2892C94.9892 59.8526 94.8796 59.4228 94.6689 59.0398C94.4583 58.6569 94.1535 58.3333 93.7831 58.0994ZM87.5966 55.0599H92.1516C92.489 55.0815 92.8054 55.23 93.0367 55.4754C93.2679 55.7207 93.3967 56.0445 93.3967 56.3808C93.3967 56.7172 93.2679 57.041 93.0367 57.2863C92.8054 57.5317 92.489 57.6802 92.1516 57.7018H87.5966V55.0599ZM92.2994 61.8689H87.5911V58.7149H92.2994C92.7037 58.7386 93.0836 58.915 93.3614 59.2082C93.6392 59.5013 93.7939 59.889 93.7939 60.2919C93.7939 60.6948 93.6392 61.0825 93.3614 61.3756C93.0836 61.6688 92.7037 61.8452 92.2994 61.8689Z" fill="#0D0D0D"/>
<path d="M270.979 24.5884H240.019V30.2644H270.93V39.2631H230.066V0.909668H270.93L270.979 9.90292H240.019V15.6388H270.979V24.5884Z" fill="#0D0D0D"/>
<path d="M102.641 0.909668V30.3243H129.429V39.2631H92.6875V0.909668H102.641Z" fill="#0D0D0D"/>
<path d="M166.613 0.909668H176.61V20.5739C176.649 24.1761 175.571 27.7028 173.522 30.6729C171.535 33.7101 168.76 36.1567 165.491 37.7542C161.748 39.483 157.665 40.3594 153.539 40.3198C149.495 40.3771 145.493 39.5086 141.84 37.7815C138.194 36.0874 135.818 33.7506 133.721 30.7601C131.621 27.8171 130.494 24.2972 130.496 20.6883V0.909668H140.526V19.2557C140.526 22.8508 141.144 24.2453 142.918 26.6529C144.928 29.3765 148.782 31.283 153.539 31.283C157.7 31.283 161.532 29.8123 164.275 26.6529C165.37 25.3783 166.591 23.1885 166.591 19.1958L166.613 0.909668Z" fill="#0D0D0D"/>
<path d="M180.164 20.2416C180.164 16.5811 181.259 12.3215 183.449 9.3909C185.639 6.46033 191.338 0 203.131 0C216.768 0 225.681 6.53659 226.223 15.7205H215.657C214.721 11.8312 209.739 7.95285 203.103 7.95285C195.543 7.95285 190.117 13.2911 190.117 20.2416C190.117 26.6529 195.63 31.283 203.103 31.283C209.739 31.283 214.721 28.6629 215.602 24.6266H226.196C224.931 31.9149 220.343 40.249 203.103 40.249C191.552 40.249 185.633 33.7397 183.443 30.8091C181.254 27.8785 180.164 23.8313 180.164 20.2416Z" fill="#0D0D0D"/>
<path d="M10.7579 15.6551V9.84845H39.3853V0.909668H12.6357C5.65541 0.909668 0 5.81211 0 12.7518C0 19.6915 5.65541 24.5558 12.6357 24.5558H30.4341V30.2971H0.914273V39.2631H29.1968C35.8979 39.2631 41.3289 34.1591 41.3289 27.4918C41.324 25.9184 41.0052 24.3617 40.391 22.9119C39.7768 21.4621 38.8794 20.148 37.7508 19.0459C36.6223 17.9438 35.285 17.0756 33.8166 16.4917C32.3482 15.9078 30.778 15.6197 29.1968 15.6442L10.7579 15.6551Z" fill="#0D0D0D"/>
<path d="M63.8086 39.2739V0.915039L53.85 0.915039V39.2739H63.8086Z" fill="#0D0D0D"/>
<path d="M78.2027 0.909668H39.3867V9.86479H78.2027V0.909668Z" fill="#0056B8"/>
</g>
<defs>
<clipPath id="clip0_750_304093">
<rect width="271" height="67" fill="white"/>
</clipPath>
</defs>
</svg>
