<?xml version="1.0" encoding="utf-8"?><svg xmlns="http://www.w3.org/2000/svg" xmlns:xlink="http://www.w3.org/1999/xlink">
    <symbol viewBox="0 0 10 10" id="arrow" xmlns="http://www.w3.org/2000/svg">
        <path d="M3.008.765a.567.567 0 0 0-.33.26c-.049.091-.052.353-.006.442.017.032.812.84 1.767 1.795L6.175 5 4.439 6.737c-.955.956-1.75 1.764-1.767 1.796-.046.089-.043.351.006.442a.61.61 0 0 0 .239.227c.112.057.31.055.425-.006.062-.033.596-.557 2.158-2.12L7.575 5 5.5 2.924C3.956 1.379 3.405.837 3.345.806a.589.589 0 0 0-.337-.041" fill-rule="evenodd" />
    </symbol>
    <symbol viewBox="0 0 10 10" id="arrow-down" xmlns="http://www.w3.org/2000/svg">
        <path d="M1.1 2.648a.538.538 0 0 0-.302.269.533.533 0 0 0 .006.425c.033.062.557.596 2.12 2.158L5 7.575 7.076 5.5c1.563-1.562 2.087-2.096 2.12-2.158a.533.533 0 0 0 .006-.425.61.61 0 0 0-.227-.239c-.091-.049-.353-.052-.442-.006-.032.017-.84.812-1.796 1.767L5 6.175 3.262 4.439c-.955-.955-1.763-1.749-1.795-1.765a.812.812 0 0 0-.367-.026" fill-rule="evenodd" />
    </symbol>
    <symbol viewBox="0 0 10 10" id="arrow-up" xmlns="http://www.w3.org/2000/svg">
        <path d="M1.5 7 5 3l3.5 4" />
    </symbol>
    <symbol viewBox="0 0 22 22" id="basket" xmlns="http://www.w3.org/2000/svg">
        <path d="M7.828 1.289c-.04.022-.848.811-1.796 1.755L4.308 4.759l-.641.02c-.393.013-.733.043-.877.078-.733.181-1.206.629-1.428 1.352-.084.273-.092.36-.093.996-.001.547.012.752.063.953.177.707.536 1.142 1.106 1.342.121.042.224.08.228.084.005.005.297 1.781.651 3.948.354 2.167.683 4.099.732 4.295.353 1.414 1.11 2.294 2.31 2.686.692.226.612.222 4.568.222 3.325 0 3.639-.005 3.954-.066 1.706-.328 2.499-1.152 2.885-2.996.032-.151.379-1.949.771-3.996.392-2.047.731-3.808.752-3.914.038-.184.045-.193.192-.233.683-.184 1.119-.772 1.239-1.672.054-.411.024-1.273-.057-1.57-.106-.391-.259-.667-.505-.91-.446-.44-.84-.57-1.825-.6l-.641-.019-1.742-1.736c-1.185-1.181-1.775-1.743-1.845-1.76-.157-.039-.426.004-.533.084-.212.158-.304.521-.189.747.025.048.624.669 1.333 1.38l1.289 1.293H5.995l1.289-1.293c.709-.711 1.307-1.328 1.329-1.372a.838.838 0 0 0 .04-.279c0-.236-.097-.404-.292-.508-.141-.075-.418-.089-.533-.026M18.934 6.02c.275.076.388.159.491.365.187.371.194 1.325.014 1.733-.145.327.708.297-8.421.297-6.568 0-8.092-.009-8.202-.048-.263-.093-.374-.433-.373-1.144 0-.965.191-1.189 1.059-1.248.201-.014 3.708-.022 7.791-.019 6.681.005 7.447.012 7.641.064m-.857 3.65c0 .121-1.47 7.731-1.557 8.058-.125.474-.225.721-.391.97-.323.484-.922.754-1.871.843-.551.051-6.162.052-6.663.001-1.378-.141-2.035-.685-2.371-1.96-.099-.377-1.341-7.898-1.312-7.948.009-.015 3.199-.027 7.09-.027 6.659 0 7.075.003 7.075.063m-9.429 2.656a.677.677 0 0 0-.211.215c-.075.134-.077.174-.077 1.933v1.795l.083.121c.141.209.263.275.504.275.24 0 .362-.066.504-.275l.082-.121v-1.795c0-1.761-.001-1.798-.077-1.934a.6.6 0 0 0-.808-.214m4.217 0a.667.667 0 0 0-.211.215c-.076.134-.077.174-.077 1.933v1.795l.082.121c.142.209.264.275.504.275.241 0 .363-.066.505-.275l.082-.121v-1.795c0-1.761-.001-1.798-.078-1.934a.598.598 0 0 0-.807-.214" fill-rule="evenodd" />
    </symbol>
    <symbol viewBox="0 0 22 22" id="copy" xmlns="http://www.w3.org/2000/svg">
        <path d="M10.982 1.27c-1.463.171-2.35.521-3.02 1.192-.292.291-.483.57-.686.999-.331.699-.486 1.468-.519 2.575l-.02.701-.719.02c-1.648.046-2.783.431-3.556 1.205-.579.578-.959 1.427-1.131 2.525-.059.379-.066.706-.066 3.263 0 3.142.006 3.245.242 4.07.469 1.635 1.476 2.486 3.351 2.833.377.069.585.075 3.117.09 2.828.016 3.192.003 3.911-.14 1.115-.222 2.022-.76 2.521-1.495.549-.81.795-1.721.841-3.121l.024-.715.696-.024c1.423-.049 2.331-.292 3.14-.841.895-.607 1.454-1.739 1.607-3.255.051-.505.051-5.299 0-5.804-.128-1.265-.523-2.237-1.175-2.888-.651-.652-1.603-1.037-2.901-1.175-.324-.035-5.375-.047-5.657-.015m5.849 1.235c.84.142 1.408.38 1.806.755.311.293.499.606.664 1.103.254.769.261.871.261 3.887s-.007 3.118-.261 3.887c-.165.497-.353.81-.664 1.103-.549.518-1.379.767-2.746.826l-.59.025-.022-1.5c-.022-1.534-.046-1.888-.175-2.522-.331-1.627-1.227-2.625-2.748-3.061-.773-.222-.899-.234-2.731-.258l-1.687-.022.009-.568c.025-1.616.416-2.624 1.217-3.142.478-.309 1.241-.514 2.148-.575.1-.007 1.305-.009 2.676-.005 2.097.007 2.549.018 2.843.067m-6.265 5.451c1.302.069 2.076.324 2.62.861.436.432.7 1.086.827 2.055.036.273.049 1.026.049 2.97 0 2.914-.008 3.03-.261 3.795-.165.497-.353.81-.664 1.103-.405.382-.978.618-1.844.759-.337.055-.709.063-3.025.063-2.772 0-2.934-.008-3.593-.171-1.337-.332-1.922-1.034-2.171-2.606-.059-.369-.066-.696-.066-3.035 0-2.339.007-2.666.066-3.035.249-1.572.833-2.272 2.171-2.606.29-.072.783-.144 1.137-.165.468-.028 4.178-.018 4.754.012" fill-rule="evenodd" />
    </symbol>
    <symbol viewBox="0 0 10 10" id="cross" xmlns="http://www.w3.org/2000/svg">
        <path d="M1.604.896a.5.5 0 1 0-.708.708l.708-.708Zm6.792 8.208a.5.5 0 1 0 .708-.708l-.708.708Zm-7.5-.708a.5.5 0 1 0 .708.708l-.708-.708Zm8.208-6.792a.5.5 0 1 0-.708-.708l.708.708Zm-8.208 0 3.75 3.75.708-.708-3.75-3.75-.708.708Zm3.75 3.75 3.75 3.75.708-.708-3.75-3.75-.708.708Zm0-.708-3.75 3.75.708.708 3.75-3.75-.708-.708ZM1.604 9.104l7.5-7.5-.708-.708-7.5 7.5.708.708Z" />
    </symbol>
    <symbol viewBox="0 0 18 18" id="dzen" xmlns="http://www.w3.org/2000/svg">
        <path fill-rule="evenodd" clip-rule="evenodd" d="M8.818 0c-.043 3.703-.285 5.775-1.664 7.154C5.774 8.534 3.703 8.775 0 8.818v.537c3.703.043 5.775.285 7.154 1.664C8.512 12.377 8.767 14.406 8.816 18h.541c.049-3.594.304-5.623 1.662-6.981C12.377 9.661 14.406 9.406 18 9.357v-.541c-3.594-.049-5.623-.304-6.981-1.662C9.639 5.774 9.398 3.703 9.355 0h-.537Z" />
    </symbol>
    <symbol viewBox="0 0 14 15" id="eye" xmlns="http://www.w3.org/2000/svg">
        <path d="M6.253 2.533c-1.878.241-3.573 1.334-4.846 3.125-.291.41-.428.712-.527 1.155-.071.322-.071 1.056 0 1.377.099.444.236.745.527 1.155.797 1.122 1.716 1.936 2.815 2.495A5.861 5.861 0 0 0 7 12.507c1.015 0 1.866-.207 2.793-.679 1.074-.547 2.045-1.414 2.817-2.518.415-.593.558-1.056.558-1.808 0-.574-.083-.963-.292-1.377-.2-.395-.679-1.019-1.162-1.514-1.158-1.19-2.542-1.908-4.004-2.079a8.147 8.147 0 0 0-1.457.001m1.074.664c1.169.079 2.243.513 3.248 1.311.316.251.84.778 1.119 1.127.637.796.777 1.133.777 1.867 0 .733-.14 1.07-.777 1.866a8.868 8.868 0 0 1-1.117 1.125C7.771 12.734 4.19 12.08 1.962 8.92a2.26 2.26 0 0 1-.378-.788c-.048-.183-.055-.265-.055-.63 0-.366.007-.447.055-.63.075-.288.18-.507.378-.788.998-1.415 2.309-2.377 3.73-2.735.401-.101.619-.131 1.25-.172.025-.002.199.007.385.02m-.825 1.67a2.703 2.703 0 0 0-1.951 1.545 2.294 2.294 0 0 0-.2.681c-.13.85.146 1.695.752 2.301.287.288.652.516 1.035.647.525.18 1.207.177 1.738-.007a2.68 2.68 0 0 0 1.783-2.801 2.675 2.675 0 0 0-2.183-2.368 3.65 3.65 0 0 0-.974.002m.938.701a2.01 2.01 0 0 1 1.464 1.374c.058.188.064.245.064.56 0 .314-.006.371-.064.56a2.014 2.014 0 0 1-1.476 1.379c-.329.077-.804.042-1.151-.086-.437-.161-.876-.578-1.084-1.029-.135-.293-.163-.433-.163-.824-.001-.294.008-.38.052-.532a1.98 1.98 0 0 1 .571-.918 1.945 1.945 0 0 1 1.787-.484" fill-rule="evenodd" />
    </symbol>
    <symbol viewBox="0 0 22 22" id="heart" xmlns="http://www.w3.org/2000/svg">
        <path d="M6.582 2.259c-1.47.112-2.733.698-3.724 1.728a5.572 5.572 0 0 0-1.315 2.156c-.235.704-.278 1.008-.277 1.96.001.855.033 1.197.184 1.962.355 1.804 1.236 3.584 2.55 5.152a18.833 18.833 0 0 0 1.812 1.805c1.207 1.013 2.655 1.907 3.923 2.424.644.262.787.295 1.283.295.413 0 .465-.008.832-.136 1.403-.487 3.118-1.523 4.491-2.714 2.47-2.141 3.901-4.61 4.325-7.463.078-.523.108-1.762.053-2.175-.25-1.891-1.375-3.504-3.046-4.37-2.115-1.096-4.755-.734-6.461.887l-.21.199-.28-.262c-.724-.675-1.81-1.209-2.802-1.374a7.313 7.313 0 0 0-1.338-.074m1.063 1.245a4.425 4.425 0 0 1 2.694 1.534c.327.382.499.487.731.443.216-.04.308-.109.595-.446a4.422 4.422 0 0 1 3.587-1.578 4.376 4.376 0 0 1 2.947 1.267 4.718 4.718 0 0 1 1.312 2.499c.113.641.038 1.867-.174 2.819-.479 2.154-1.789 4.218-3.764 5.931-1.169 1.014-2.627 1.924-3.876 2.419-.309.123-.386.139-.679.141-.298.002-.364-.011-.696-.14-.987-.383-2.183-1.076-3.186-1.848-2.671-2.055-4.259-4.599-4.627-7.415-.069-.532-.08-1.522-.02-1.875.315-1.86 1.713-3.331 3.524-3.712.402-.084.42-.086.88-.091.239-.003.565.02.752.052" fill-rule="evenodd" />
    </symbol>
    <symbol viewBox="0 0 14 14" id="pinterest" xmlns="http://www.w3.org/2000/svg">
        <path d="M6.032 9.26c-.368 1.927-.817 3.775-2.147 4.74-.41-2.913.603-5.1 1.074-7.423-.803-1.351.096-4.07 1.788-3.4 2.083.824-1.803 5.022.806 5.546 2.723.547 3.835-4.725 2.146-6.44-2.44-2.476-7.103-.056-6.53 3.489.14.866 1.036 1.13.359 2.325C1.966 7.75 1.5 6.519 1.56 4.877 1.656 2.19 3.975.307 6.3.047c2.941-.33 5.701 1.08 6.082 3.846.43 3.123-1.327 6.504-4.472 6.261-.852-.066-1.21-.488-1.878-.894Z" />
    </symbol>
    <symbol viewBox="0 0 12 12" id="plus" xmlns="http://www.w3.org/2000/svg">
        <path fill-rule="evenodd" clip-rule="evenodd" d="M6.5 1a.5.5 0 0 0-1 0v4.5H1a.5.5 0 0 0 0 1h4.5V11a.5.5 0 0 0 1 0V6.5H11a.5.5 0 0 0 0-1H6.5V1Z" />
    </symbol>
    <symbol viewBox="0 0 20 20" id="save-add" xmlns="http://www.w3.org/2000/svg">
        <path d="M8.917 1.189c-1.521.198-2.651 1.393-2.741 2.9l-.019.305-1.187.015c-.965.012-1.227.025-1.403.07-1.156.298-1.993 1.116-2.306 2.254l-.078.284v5.2c0 4.95.003 5.209.062 5.398.207.674.649 1.088 1.271 1.195.276.047.657-.004.975-.13.124-.05 1.006-.525 1.959-1.057l1.733-.967.253-.015c.203-.013.282-.003.402.05.082.037.91.49 1.839 1.008 1.797 1.001 1.986 1.087 2.454 1.123a1.49 1.49 0 0 0 1.476-.858c.201-.414.205-.452.225-2.288l.018-1.673 1.25.698c1.338.748 1.578.853 2.032.888a1.493 1.493 0 0 0 1.476-.859c.219-.447.209-.171.209-5.78 0-5.676.016-5.267-.228-5.865-.366-.896-1.116-1.545-2.115-1.828-.257-.072-.262-.073-3.857-.077-1.98-.002-3.645.001-3.7.009m7.45 1.068c.627.215 1.163.75 1.376 1.376l.074.217.009 5.017c.006 3.487-.002 5.069-.027 5.189-.093.446-.404.629-.845.497-.086-.026-.823-.419-1.637-.874l-1.481-.826-.01-2.935c-.011-2.929-.011-2.935-.086-3.201a3.183 3.183 0 0 0-2.233-2.226c-.249-.07-.322-.073-2.299-.083l-2.041-.011v-.176c0-.283.063-.553.198-.838.274-.582.76-.987 1.38-1.151.227-.059.407-.062 3.822-.056l3.583.007.217.074m-4.984 3.251c.337.114.622.3.876.572.233.25.372.481.479.803l.079.234.009 4.999c.006 3.485-.002 5.052-.027 5.173-.069.332-.29.545-.562.543-.085 0-.229-.027-.32-.059-.092-.032-.931-.485-1.865-1.005-.933-.521-1.788-.985-1.9-1.032-.183-.077-.244-.085-.652-.084-.383.001-.477.012-.634.074-.102.04-.874.458-1.717.928-.843.47-1.663.922-1.822 1.004-.524.269-.871.223-1.058-.14l-.086-.166-.009-5.018c-.007-3.56.001-5.08.027-5.234.046-.272.245-.696.433-.924a2.158 2.158 0 0 1 1.111-.71c.227-.06.405-.063 3.805-.056l3.567.007.266.091M7.259 7.902C7.03 8.023 7 8.135 7 8.865V9.5h-.637c-.593 0-.646.005-.767.073-.136.076-.263.282-.263.427 0 .145.127.351.263.427.121.068.174.073.767.073H7v.635c0 .736.03.844.266.965.168.086.31.085.467-.004.24-.134.267-.233.267-.959V10.5l.642-.001c.602 0 .649-.005.771-.075a.563.563 0 0 0 .192-.19.487.487 0 0 0-.192-.658c-.122-.07-.169-.075-.771-.075L8 9.5v-.635c0-.57-.007-.648-.067-.766a.491.491 0 0 0-.674-.197" fill-rule="evenodd" />
    </symbol>
    <symbol viewBox="0 0 22 22" id="search" xmlns="http://www.w3.org/2000/svg">
        <path d="M9.57 1.286a9.494 9.494 0 0 0-4.809 1.961c-.343.269-1.24 1.166-1.504 1.501a9.483 9.483 0 0 0-1.925 4.455c-.093.597-.093 2.08 0 2.677a9.486 9.486 0 0 0 1.924 4.455c.301.384 1.261 1.322 1.657 1.618a9.363 9.363 0 0 0 4.254 1.792c.532.082 1.71.112 2.255.059a9.416 9.416 0 0 0 3.228-.92 9.226 9.226 0 0 0 4.206-4.174c.675-1.349.981-2.65.981-4.168 0-1.508-.29-2.754-.954-4.109-1.342-2.736-3.918-4.62-6.966-5.096-.457-.071-1.88-.102-2.347-.051m2.118 1.227a7.883 7.883 0 0 1 2.41.75A8.111 8.111 0 0 1 18.42 8.62c.165.678.221 1.167.221 1.922 0 1.308-.249 2.392-.819 3.556a8.015 8.015 0 0 1-3.724 3.722c-1.19.578-2.242.821-3.556.821-.797 0-1.275-.06-2.021-.251-3.179-.817-5.544-3.471-6.012-6.75a9.609 9.609 0 0 1 0-2.197c.468-3.279 2.833-5.933 6.012-6.749a9.779 9.779 0 0 1 1.471-.251c.34-.028 1.299.012 1.696.07m6.347 15.313a.61.61 0 0 0-.229.775c.077.154 1.818 1.91 2.029 2.047.406.263.918-.001.918-.475a.837.837 0 0 0-.039-.251c-.048-.13-1.827-1.926-2.049-2.07a.586.586 0 0 0-.63-.026" fill-rule="evenodd" />
    </symbol>
    <symbol viewBox="0 0 14 14" id="telegram" xmlns="http://www.w3.org/2000/svg">
        <path d="m5.493 8.856-.231 3.257c.331 0 .475-.142.647-.313l1.553-1.485 3.219 2.357c.59.33 1.006.156 1.165-.543l2.113-9.9c.188-.873-.315-1.215-.89-1L.65 5.983c-.847.33-.834.802-.143 1.016l3.175.987 7.375-4.614c.347-.23.663-.103.403.127L5.493 8.856Z" />
    </symbol>
    <symbol viewBox="0 0 22 22" id="user" xmlns="http://www.w3.org/2000/svg">
        <path fill-rule="evenodd" clip-rule="evenodd" d="M7.014 6.417a3.983 3.983 0 1 1 7.967 0 3.983 3.983 0 0 1-7.967 0Zm3.984-5.184a5.183 5.183 0 1 0 0 10.367 5.183 5.183 0 0 0 0-10.367Zm0 11.917c-4.556 0-8.475 3.028-8.475 7.017a.6.6 0 1 0 1.2 0c0-3.107 3.14-5.817 7.275-5.817 4.134 0 7.274 2.71 7.274 5.817a.6.6 0 1 0 1.2 0c0-3.989-3.92-7.017-8.474-7.017Z" />
    </symbol>
    <symbol viewBox="0 0 18 12" id="vk" xmlns="http://www.w3.org/2000/svg">
        <path fill-rule="evenodd" clip-rule="evenodd" d="M16.831 10.91h-1.856c-.703 0-.92-.603-2.181-1.98-1.1-1.146-1.587-1.301-1.857-1.301-.379 0-.487.116-.487.679v1.805c0 .486-.144.777-1.334.777-1.964 0-4.146-1.281-5.678-3.67C1.131 3.728.5 1.107.5.564.5.272.608 0 1.13 0h1.858c.468 0 .648.233.829.776.92 2.854 2.451 5.358 3.082 5.358.234 0 .343-.117.343-.757v-2.95C7.17 1.066 6.502.95 6.502.465c0-.233.18-.466.47-.466h2.92c.396 0 .54.233.54.738v3.979c0 .427.18.582.289.582.234 0 .432-.155.865-.62 1.334-1.612 2.29-4.097 2.29-4.097.125-.29.342-.563.81-.563h1.857c.559 0 .685.311.559.738-.235 1.165-2.506 4.62-2.506 4.62-.198.35-.27.505 0 .893.198.291.847.893 1.28 1.436.793.97 1.406 1.786 1.568 2.349.18.563-.09.854-.613.854Z" />
    </symbol>
</svg>