<?xml version="1.0" encoding="utf-8"?><svg xmlns="http://www.w3.org/2000/svg" xmlns:xlink="http://www.w3.org/1999/xlink">
    <symbol viewBox="0 0 22 23" id="3d" xmlns="http://www.w3.org/2000/svg">
        <path d="M7.205 1.871c-2.296.156-3.919.935-4.804 2.307-.542.84-.852 1.821-.988 3.127-.083.796-.083 7.584 0 8.38.141 1.352.453 2.315 1.038 3.198.374.567 1.073 1.174 1.726 1.502.812.406 1.81.643 3.083.733.681.048 6.773.05 7.474.002 1.976-.135 3.309-.632 4.279-1.595 1.028-1.02 1.525-2.423 1.631-4.602.045-.927.045-5.929 0-6.856-.106-2.179-.603-3.582-1.631-4.602-.97-.963-2.303-1.46-4.279-1.595-.602-.041-6.919-.04-7.529.001m7.462.99c3.464.263 4.811 1.698 4.987 5.314.045.929.045 5.711 0 6.64-.065 1.339-.265 2.255-.668 3.06-.693 1.385-2.048 2.089-4.338 2.254-.678.049-6.626.048-7.311-.001a12.11 12.11 0 0 1-.953-.11c-2.47-.421-3.565-1.573-3.953-4.16-.06-.403-.066-.771-.066-4.363 0-3.592.006-3.96.066-4.363.307-2.045 1.044-3.154 2.501-3.763.612-.255 1.493-.445 2.355-.507.607-.043 6.808-.044 7.38-.001m-4.272 2.694a3.085 3.085 0 0 0-.454.126c-.232.092-3.156 1.711-3.451 1.91-.471.319-.915.934-1.132 1.567-.135.395-.159.847-.142 2.622.015 1.571.02 1.672.096 1.927.199.669.668 1.354 1.156 1.691.336.231 3.339 1.872 3.554 1.942.65.211 1.433.199 2.044-.03.223-.084 3.17-1.708 3.453-1.904.627-.432 1.135-1.278 1.236-2.059.049-.372.048-3.315 0-3.7a2.686 2.686 0 0 0-.356-1.055c-.218-.394-.478-.706-.77-.925-.274-.205-3.191-1.835-3.528-1.971-.468-.189-1.144-.245-1.706-.141m1.266 1.037c.111.039.903.463 1.76.941 1.576.88 1.93 1.115 1.823 1.215-.025.024-.991.59-2.146 1.258l-2.1 1.216-2.14-1.239C7.003 8.91 6.722 8.737 6.752 8.681c.071-.134.467-.379 1.956-1.206 1.08-.6 1.612-.876 1.779-.921.309-.084.88-.065 1.174.038m-3.276 4.267 2.102 1.216v4.36l-.099-.025c-.153-.039-.279-.105-1.849-.978-.883-.491-1.543-.882-1.646-.975-.225-.202-.458-.562-.579-.897l-.098-.268-.013-1.522c-.012-1.423.007-2.127.059-2.127.012 0 .967.547 2.123 1.216m7.4-.986c.013.126.018.955.01 1.842-.013 1.574-.016 1.619-.098 1.843-.11.301-.388.724-.597.907-.27.238-3.395 1.962-3.555 1.962-.018 0-.032-.98-.032-2.177v-2.176l2.098-1.215c1.154-.669 2.11-1.216 2.124-1.216.014 0 .037.103.05.23" fill-rule="evenodd" />
    </symbol>
    <symbol viewBox="0 0 10 10" id="arrow" xmlns="http://www.w3.org/2000/svg">
        <path d="M3.008.765a.567.567 0 0 0-.33.26c-.049.091-.052.353-.006.442.017.032.812.84 1.767 1.795L6.175 5 4.439 6.737c-.955.956-1.75 1.764-1.767 1.796-.046.089-.043.351.006.442a.61.61 0 0 0 .239.227c.112.057.31.055.425-.006.062-.033.596-.557 2.158-2.12L7.575 5 5.5 2.924C3.956 1.379 3.405.837 3.345.806a.589.589 0 0 0-.337-.041" fill-rule="evenodd" />
    </symbol>
    <symbol viewBox="0 0 10 10" id="arrow-down" xmlns="http://www.w3.org/2000/svg">
        <path d="M1.1 2.648a.538.538 0 0 0-.302.269.533.533 0 0 0 .006.425c.033.062.557.596 2.12 2.158L5 7.575 7.076 5.5c1.563-1.562 2.087-2.096 2.12-2.158a.533.533 0 0 0 .006-.425.61.61 0 0 0-.227-.239c-.091-.049-.353-.052-.442-.006-.032.017-.84.812-1.796 1.767L5 6.175 3.262 4.439c-.955-.955-1.763-1.749-1.795-1.765a.812.812 0 0 0-.367-.026" fill-rule="evenodd" />
    </symbol>
    <symbol viewBox="0 0 22 22" id="arrow-down-sm" xmlns="http://www.w3.org/2000/svg">
        <path d="M3.772 6.797c-.437.156-.634.622-.436 1.029.049.101 1.303 1.38 3.868 3.944L11 15.565l3.796-3.795c2.565-2.564 3.819-3.843 3.868-3.944.161-.33.05-.746-.249-.935a.78.78 0 0 0-.634-.108c-.148.039-.454.334-3.472 3.349L11 13.437l-3.309-3.305C4.833 7.277 4.362 6.821 4.235 6.787a.667.667 0 0 0-.463.01" fill-rule="evenodd" />
    </symbol>
    <symbol viewBox="0 0 10 10" id="arrow-up" xmlns="http://www.w3.org/2000/svg">
        <path d="M1.5 7 5 3l3.5 4" />
    </symbol>
    <symbol viewBox="0 0 22 22" id="basket" xmlns="http://www.w3.org/2000/svg">
        <path d="M7.828 1.289c-.04.022-.848.811-1.796 1.755L4.308 4.759l-.641.02c-.393.013-.733.043-.877.078-.733.181-1.206.629-1.428 1.352-.084.273-.092.36-.093.996-.001.547.012.752.063.953.177.707.536 1.142 1.106 1.342.121.042.224.08.228.084.005.005.297 1.781.651 3.948.354 2.167.683 4.099.732 4.295.353 1.414 1.11 2.294 2.31 2.686.692.226.612.222 4.568.222 3.325 0 3.639-.005 3.954-.066 1.706-.328 2.499-1.152 2.885-2.996.032-.151.379-1.949.771-3.996.392-2.047.731-3.808.752-3.914.038-.184.045-.193.192-.233.683-.184 1.119-.772 1.239-1.672.054-.411.024-1.273-.057-1.57-.106-.391-.259-.667-.505-.91-.446-.44-.84-.57-1.825-.6l-.641-.019-1.742-1.736c-1.185-1.181-1.775-1.743-1.845-1.76-.157-.039-.426.004-.533.084-.212.158-.304.521-.189.747.025.048.624.669 1.333 1.38l1.289 1.293H5.995l1.289-1.293c.709-.711 1.307-1.328 1.329-1.372a.838.838 0 0 0 .04-.279c0-.236-.097-.404-.292-.508-.141-.075-.418-.089-.533-.026M18.934 6.02c.275.076.388.159.491.365.187.371.194 1.325.014 1.733-.145.327.708.297-8.421.297-6.568 0-8.092-.009-8.202-.048-.263-.093-.374-.433-.373-1.144 0-.965.191-1.189 1.059-1.248.201-.014 3.708-.022 7.791-.019 6.681.005 7.447.012 7.641.064m-.857 3.65c0 .121-1.47 7.731-1.557 8.058-.125.474-.225.721-.391.97-.323.484-.922.754-1.871.843-.551.051-6.162.052-6.663.001-1.378-.141-2.035-.685-2.371-1.96-.099-.377-1.341-7.898-1.312-7.948.009-.015 3.199-.027 7.09-.027 6.659 0 7.075.003 7.075.063m-9.429 2.656a.677.677 0 0 0-.211.215c-.075.134-.077.174-.077 1.933v1.795l.083.121c.141.209.263.275.504.275.24 0 .362-.066.504-.275l.082-.121v-1.795c0-1.761-.001-1.798-.077-1.934a.6.6 0 0 0-.808-.214m4.217 0a.667.667 0 0 0-.211.215c-.076.134-.077.174-.077 1.933v1.795l.082.121c.142.209.264.275.504.275.241 0 .363-.066.505-.275l.082-.121v-1.795c0-1.761-.001-1.798-.078-1.934a.598.598 0 0 0-.807-.214" fill-rule="evenodd" />
    </symbol>
    <symbol viewBox="0 0 24 24" id="cards" xmlns="http://www.w3.org/2000/svg">
        <path d="M7.7 2.546c-.878.109-1.22.192-1.64.402-.59.294-.95.686-1.205 1.312-.162.395-.24.757-.302 1.38l-.046.474-.203.027c-.797.105-1.477.398-1.886.81-.348.351-.524.661-.677 1.191-.217.748-.223.905-.222 5.608 0 2.763.016 4.471.043 4.72.198 1.829.969 2.66 2.726 2.938.484.076 11.934.076 12.432 0 .884-.136 1.393-.362 1.862-.828.251-.249.356-.39.474-.635.197-.409.328-.936.388-1.558l.049-.501.203-.027c1.328-.176 2.167-.793 2.517-1.852.249-.754.24-.562.257-5.487.016-4.675.006-5.043-.151-5.709-.208-.884-.643-1.481-1.339-1.838-.346-.177-.573-.251-1.1-.359-.312-.063-.818-.069-6.2-.076-3.223-.004-5.914-.001-5.98.008m11.886 1.027c1.275.222 1.678.656 1.864 2.007.074.531.071 8.678-.002 9.24-.16 1.221-.482 1.684-1.348 1.934a4.925 4.925 0 0 1-.427.104l-.146.024-.017-3.811c-.016-3.311-.027-3.864-.084-4.211-.286-1.717-.985-2.43-2.672-2.727-.331-.058-.995-.067-5.804-.081l-5.43-.016v-.123c0-.216.124-.912.203-1.143.288-.834.891-1.162 2.297-1.249.286-.017 2.923-.027 5.86-.022 4.674.009 5.386.018 5.706.074m-3 3.56c.897.156 1.335.419 1.583.95.249.533.311 1.076.311 2.726v1.311l-7.99-.01-7.99-.01.003-1.26c.004-1.676.09-2.342.367-2.851.302-.555.955-.842 2.066-.908.288-.018 2.945-.027 5.904-.022 4.711.009 5.426.018 5.746.074m1.897 8.217c.003 2.851.005 2.799-.068 3.263-.214 1.365-.754 1.764-2.535 1.868-.808.047-9.953.047-10.761 0-1.597-.094-2.199-.451-2.457-1.462-.132-.516-.15-.866-.17-3.369l-.021-2.53H18.48l.003 2.23M4.992 17.389c-.358.222-.28.778.125.891.157.043 1.756.055 1.96.015a.552.552 0 0 0 .377-.373.527.527 0 0 0-.21-.511c-.133-.089-.159-.091-1.14-.09-.868.001-1.019.01-1.112.068m3.892-.018c-.326.167-.353.651-.047.859.094.064.264.071 1.905.082 1.388.008 1.838-.001 1.959-.04a.492.492 0 0 0 .097-.887c-.098-.058-.319-.065-1.964-.064-1.392 0-1.878.012-1.95.05" fill-rule="evenodd" />
    </symbol>
    <symbol viewBox="0 0 16 16" id="check" xmlns="http://www.w3.org/2000/svg">
        <path d="m3.625 7.625 3.182 3 5.568-5.25" />
    </symbol>
    <symbol viewBox="0 0 22 22" id="copy" xmlns="http://www.w3.org/2000/svg">
        <path d="M10.982 1.27c-1.463.171-2.35.521-3.02 1.192-.292.291-.483.57-.686.999-.331.699-.486 1.468-.519 2.575l-.02.701-.719.02c-1.648.046-2.783.431-3.556 1.205-.579.578-.959 1.427-1.131 2.525-.059.379-.066.706-.066 3.263 0 3.142.006 3.245.242 4.07.469 1.635 1.476 2.486 3.351 2.833.377.069.585.075 3.117.09 2.828.016 3.192.003 3.911-.14 1.115-.222 2.022-.76 2.521-1.495.549-.81.795-1.721.841-3.121l.024-.715.696-.024c1.423-.049 2.331-.292 3.14-.841.895-.607 1.454-1.739 1.607-3.255.051-.505.051-5.299 0-5.804-.128-1.265-.523-2.237-1.175-2.888-.651-.652-1.603-1.037-2.901-1.175-.324-.035-5.375-.047-5.657-.015m5.849 1.235c.84.142 1.408.38 1.806.755.311.293.499.606.664 1.103.254.769.261.871.261 3.887s-.007 3.118-.261 3.887c-.165.497-.353.81-.664 1.103-.549.518-1.379.767-2.746.826l-.59.025-.022-1.5c-.022-1.534-.046-1.888-.175-2.522-.331-1.627-1.227-2.625-2.748-3.061-.773-.222-.899-.234-2.731-.258l-1.687-.022.009-.568c.025-1.616.416-2.624 1.217-3.142.478-.309 1.241-.514 2.148-.575.1-.007 1.305-.009 2.676-.005 2.097.007 2.549.018 2.843.067m-6.265 5.451c1.302.069 2.076.324 2.62.861.436.432.7 1.086.827 2.055.036.273.049 1.026.049 2.97 0 2.914-.008 3.03-.261 3.795-.165.497-.353.81-.664 1.103-.405.382-.978.618-1.844.759-.337.055-.709.063-3.025.063-2.772 0-2.934-.008-3.593-.171-1.337-.332-1.922-1.034-2.171-2.606-.059-.369-.066-.696-.066-3.035 0-2.339.007-2.666.066-3.035.249-1.572.833-2.272 2.171-2.606.29-.072.783-.144 1.137-.165.468-.028 4.178-.018 4.754.012" fill-rule="evenodd" />
    </symbol>
    <symbol viewBox="0 0 10 10" id="cross" xmlns="http://www.w3.org/2000/svg">
        <path d="M1.604.896a.5.5 0 1 0-.708.708l.708-.708Zm6.792 8.208a.5.5 0 1 0 .708-.708l-.708.708Zm-7.5-.708a.5.5 0 1 0 .708.708l-.708-.708Zm8.208-6.792a.5.5 0 1 0-.708-.708l.708.708Zm-8.208 0 3.75 3.75.708-.708-3.75-3.75-.708.708Zm3.75 3.75 3.75 3.75.708-.708-3.75-3.75-.708.708Zm0-.708-3.75 3.75.708.708 3.75-3.75-.708-.708ZM1.604 9.104l7.5-7.5-.708-.708-7.5 7.5.708.708Z" />
    </symbol>
    <symbol viewBox="0 0 17 17" id="cross-thin" xmlns="http://www.w3.org/2000/svg">
        <path fill-rule="evenodd" clip-rule="evenodd" d="M14.544 2.537a.35.35 0 1 0-.495-.495L8.086 8.005 2.123 2.042a.35.35 0 1 0-.495.495L7.59 8.5l-5.963 5.963a.35.35 0 0 0 .495.495l5.963-5.963 5.963 5.963a.35.35 0 0 0 .495-.495L8.581 8.5l5.963-5.963Z" />
    </symbol>
    <symbol viewBox="0 0 22 23" id="download" xmlns="http://www.w3.org/2000/svg">
        <path d="M7.205 1.871c-2.3.158-3.919.935-4.804 2.307-.542.84-.852 1.821-.988 3.127-.083.796-.083 7.584 0 8.38.178 1.708.684 2.95 1.556 3.822.649.649 1.481 1.094 2.531 1.352 1.093.268 1.626.297 5.5.297 3.833 0 4.362-.028 5.445-.28 2.164-.505 3.521-1.904 3.981-4.103.212-1.017.252-1.798.253-4.888l.001-2.323-.081-.134c-.045-.073-1.761-1.808-3.814-3.855l-3.732-3.721-2.722-.004c-1.498-.003-2.904.008-3.126.023m5.154 3.097c.017 1.77.031 2.18.081 2.44.223 1.149.717 1.877 1.566 2.309.27.137.654.255 1.101.338.387.072.588.08 2.493.099l2.072.021.011 1.852c.021 3.585-.109 4.673-.697 5.848-.693 1.385-2.048 2.089-4.338 2.254-.664.048-6.623.048-7.296.001-.97-.069-1.847-.26-2.502-.544-1.39-.603-2.118-1.724-2.419-3.728-.06-.403-.066-.771-.066-4.363 0-3.592.006-3.96.066-4.363.393-2.62 1.525-3.782 4.068-4.18.667-.104 1.103-.118 3.511-.114l2.328.004.021 2.126m5.214 4.191c-1.482.012-2.036-.02-2.54-.144-.831-.206-1.223-.545-1.463-1.265-.194-.581-.223-.932-.223-2.658V3.539l2.805 2.804 2.805 2.805-1.384.011m-9.569.996c-.261.16-.247.028-.267 2.485l-.019 2.211-.495-.498c-.272-.274-.539-.522-.594-.551-.264-.14-.603.016-.69.317-.074.26-.035.312 1.079 1.423l1.043 1.041.208-.017.209-.018 1.041-1.043 1.041-1.043v-.204c0-.152-.02-.23-.077-.302-.153-.195-.412-.26-.612-.154-.055.029-.322.277-.594.551l-.495.498-.019-2.211c-.017-2.052-.023-2.219-.084-2.313a.563.563 0 0 0-.429-.243.566.566 0 0 0-.246.071" fill-rule="evenodd" />
    </symbol>
    <symbol viewBox="0 0 18 18" id="dzen" xmlns="http://www.w3.org/2000/svg">
        <path fill-rule="evenodd" clip-rule="evenodd" d="M8.818 0c-.043 3.703-.285 5.775-1.664 7.154C5.774 8.534 3.703 8.775 0 8.818v.537c3.703.043 5.775.285 7.154 1.664C8.512 12.377 8.767 14.406 8.816 18h.541c.049-3.594.304-5.623 1.662-6.981C12.377 9.661 14.406 9.406 18 9.357v-.541c-3.594-.049-5.623-.304-6.981-1.662C9.639 5.774 9.398 3.703 9.355 0h-.537Z" />
    </symbol>
    <symbol viewBox="0 0 14 15" id="eye" xmlns="http://www.w3.org/2000/svg">
        <path d="M6.253 2.533c-1.878.241-3.573 1.334-4.846 3.125-.291.41-.428.712-.527 1.155-.071.322-.071 1.056 0 1.377.099.444.236.745.527 1.155.797 1.122 1.716 1.936 2.815 2.495A5.861 5.861 0 0 0 7 12.507c1.015 0 1.866-.207 2.793-.679 1.074-.547 2.045-1.414 2.817-2.518.415-.593.558-1.056.558-1.808 0-.574-.083-.963-.292-1.377-.2-.395-.679-1.019-1.162-1.514-1.158-1.19-2.542-1.908-4.004-2.079a8.147 8.147 0 0 0-1.457.001m1.074.664c1.169.079 2.243.513 3.248 1.311.316.251.84.778 1.119 1.127.637.796.777 1.133.777 1.867 0 .733-.14 1.07-.777 1.866a8.868 8.868 0 0 1-1.117 1.125C7.771 12.734 4.19 12.08 1.962 8.92a2.26 2.26 0 0 1-.378-.788c-.048-.183-.055-.265-.055-.63 0-.366.007-.447.055-.63.075-.288.18-.507.378-.788.998-1.415 2.309-2.377 3.73-2.735.401-.101.619-.131 1.25-.172.025-.002.199.007.385.02m-.825 1.67a2.703 2.703 0 0 0-1.951 1.545 2.294 2.294 0 0 0-.2.681c-.13.85.146 1.695.752 2.301.287.288.652.516 1.035.647.525.18 1.207.177 1.738-.007a2.68 2.68 0 0 0 1.783-2.801 2.675 2.675 0 0 0-2.183-2.368 3.65 3.65 0 0 0-.974.002m.938.701a2.01 2.01 0 0 1 1.464 1.374c.058.188.064.245.064.56 0 .314-.006.371-.064.56a2.014 2.014 0 0 1-1.476 1.379c-.329.077-.804.042-1.151-.086-.437-.161-.876-.578-1.084-1.029-.135-.293-.163-.433-.163-.824-.001-.294.008-.38.052-.532a1.98 1.98 0 0 1 .571-.918 1.945 1.945 0 0 1 1.787-.484" fill-rule="evenodd" />
    </symbol>
    <symbol viewBox="0 0 16 17" id="filters" xmlns="http://www.w3.org/2000/svg">
        <path d="M4.325 7.407v-1.31h-2.45V4.872h2.45V3.487H5.55v3.92H4.325Zm2.45-1.31h7.35V4.872h-7.35v1.225Zm3.675 7.416v-3.92h1.225v1.384h2.45v1.225h-2.45v1.31H10.45Zm-1.225-1.311v-1.225h-7.35v1.225h7.35Z" />
    </symbol>
    <symbol viewBox="0 0 22 22" id="heart" xmlns="http://www.w3.org/2000/svg">
        <path d="M6.582 2.259c-1.47.112-2.733.698-3.724 1.728a5.572 5.572 0 0 0-1.315 2.156c-.235.704-.278 1.008-.277 1.96.001.855.033 1.197.184 1.962.355 1.804 1.236 3.584 2.55 5.152a18.833 18.833 0 0 0 1.812 1.805c1.207 1.013 2.655 1.907 3.923 2.424.644.262.787.295 1.283.295.413 0 .465-.008.832-.136 1.403-.487 3.118-1.523 4.491-2.714 2.47-2.141 3.901-4.61 4.325-7.463.078-.523.108-1.762.053-2.175-.25-1.891-1.375-3.504-3.046-4.37-2.115-1.096-4.755-.734-6.461.887l-.21.199-.28-.262c-.724-.675-1.81-1.209-2.802-1.374a7.313 7.313 0 0 0-1.338-.074m1.063 1.245a4.425 4.425 0 0 1 2.694 1.534c.327.382.499.487.731.443.216-.04.308-.109.595-.446a4.422 4.422 0 0 1 3.587-1.578 4.376 4.376 0 0 1 2.947 1.267 4.718 4.718 0 0 1 1.312 2.499c.113.641.038 1.867-.174 2.819-.479 2.154-1.789 4.218-3.764 5.931-1.169 1.014-2.627 1.924-3.876 2.419-.309.123-.386.139-.679.141-.298.002-.364-.011-.696-.14-.987-.383-2.183-1.076-3.186-1.848-2.671-2.055-4.259-4.599-4.627-7.415-.069-.532-.08-1.522-.02-1.875.315-1.86 1.713-3.331 3.524-3.712.402-.084.42-.086.88-.091.239-.003.565.02.752.052" fill-rule="evenodd" />
    </symbol>
    <symbol viewBox="0 0 22 22" id="heart-fill" xmlns="http://www.w3.org/2000/svg">
        <path d="M11.569 19.076c-.312.11-.825.11-1.137 0-2.658-.907-8.598-4.693-8.598-11.11 0-2.833 2.282-5.124 5.097-5.124 1.668 0 3.144.806 4.07 2.053a5.069 5.069 0 0 1 4.07-2.053c2.814 0 5.096 2.291 5.096 5.124 0 6.417-5.94 10.203-8.598 11.11Z" />
    </symbol>
    <symbol viewBox="0 0 24 24" id="lovely" xmlns="http://www.w3.org/2000/svg">
        <path d="M6.371 2.641C4.294 2.86 2.484 4.311 1.807 6.3c-.233.685-.267.944-.265 1.98.003 1.026.061 1.497.299 2.424.427 1.66 1.416 3.423 2.704 4.821 1.501 1.628 3.546 3.051 5.435 3.78.398.154.404.155.988.157l.588.003.432.323c.829.619 1.804 1.173 2.552 1.451.317.118.408.134.76.136.482.003.756-.083 1.56-.485a11.237 11.237 0 0 0 3.124-2.3c1.434-1.494 2.25-3.149 2.459-4.988.066-.586.028-1.533-.078-1.933-.26-.982-.92-1.915-1.728-2.447l-.302-.199v-.801c-.001-.881-.063-1.298-.291-1.957-.635-1.831-2.264-3.224-4.179-3.573-.553-.101-1.528-.091-2.054.022-.976.209-1.92.694-2.593 1.333l-.285.271-.136-.143a5.773 5.773 0 0 0-.457-.394 5.39 5.39 0 0 0-3.969-1.14m1.294 1.02a4.489 4.489 0 0 1 2.75 1.586c.276.328.427.394.678.298.113-.043.223-.135.342-.283 1.416-1.775 4.011-2.178 5.915-.918.942.623 1.607 1.585 1.891 2.736.082.332.157 1.363.108 1.491-.019.049-.057.049-.275.002-.397-.087-1.222-.075-1.666.022-.696.154-1.401.505-1.867.931l-.221.202-.2-.18c-.744-.67-1.731-1.037-2.78-1.036-.718.001-1.247.122-1.861.426-.452.223-.717.416-1.101.8-.952.952-1.35 2.119-1.226 3.592.148 1.763.835 3.382 2.018 4.758.126.147.23.276.23.286 0 .031-.401-.132-.866-.353-1.971-.936-3.957-2.594-5.2-4.341-.871-1.223-1.475-2.665-1.711-4.08-.295-1.775-.037-3.143.8-4.24.229-.299.745-.791 1.037-.988.938-.631 2.131-.896 3.205-.711m5.417 5.944c.713.179 1.22.494 1.734 1.078.369.419.673.417 1.005-.006.546-.694 1.53-1.158 2.454-1.156.959.001 1.729.338 2.376 1.037.574.619.834 1.337.832 2.291-.004 1.88-.788 3.611-2.343 5.173a10.52 10.52 0 0 1-2.368 1.795c-.541.304-1.226.582-1.436.583-.494.001-1.932-.758-2.921-1.542-.467-.369-1.311-1.201-1.625-1.601-.97-1.235-1.52-2.592-1.629-4.02-.094-1.242.219-2.122 1.021-2.871a3.074 3.074 0 0 1 1.478-.787c.386-.085 1.029-.073 1.422.026" fill-rule="evenodd" />
    </symbol>
    <symbol viewBox="0 0 14 14" id="pinterest" xmlns="http://www.w3.org/2000/svg">
        <path d="M6.032 9.26c-.368 1.927-.817 3.775-2.147 4.74-.41-2.913.603-5.1 1.074-7.423-.803-1.351.096-4.07 1.788-3.4 2.083.824-1.803 5.022.806 5.546 2.723.547 3.835-4.725 2.146-6.44-2.44-2.476-7.103-.056-6.53 3.489.14.866 1.036 1.13.359 2.325C1.966 7.75 1.5 6.519 1.56 4.877 1.656 2.19 3.975.307 6.3.047c2.941-.33 5.701 1.08 6.082 3.846.43 3.123-1.327 6.504-4.472 6.261-.852-.066-1.21-.488-1.878-.894Z" />
    </symbol>
    <symbol viewBox="0 0 12 12" id="plus" xmlns="http://www.w3.org/2000/svg">
        <path fill-rule="evenodd" clip-rule="evenodd" d="M6.5 1a.5.5 0 0 0-1 0v4.5H1a.5.5 0 0 0 0 1h4.5V11a.5.5 0 0 0 1 0V6.5H11a.5.5 0 0 0 0-1H6.5V1Z" />
    </symbol>
    <symbol viewBox="0 0 20 20" id="save-add" xmlns="http://www.w3.org/2000/svg">
        <path d="M8.917 1.189c-1.521.198-2.651 1.393-2.741 2.9l-.019.305-1.187.015c-.965.012-1.227.025-1.403.07-1.156.298-1.993 1.116-2.306 2.254l-.078.284v5.2c0 4.95.003 5.209.062 5.398.207.674.649 1.088 1.271 1.195.276.047.657-.004.975-.13.124-.05 1.006-.525 1.959-1.057l1.733-.967.253-.015c.203-.013.282-.003.402.05.082.037.91.49 1.839 1.008 1.797 1.001 1.986 1.087 2.454 1.123a1.49 1.49 0 0 0 1.476-.858c.201-.414.205-.452.225-2.288l.018-1.673 1.25.698c1.338.748 1.578.853 2.032.888a1.493 1.493 0 0 0 1.476-.859c.219-.447.209-.171.209-5.78 0-5.676.016-5.267-.228-5.865-.366-.896-1.116-1.545-2.115-1.828-.257-.072-.262-.073-3.857-.077-1.98-.002-3.645.001-3.7.009m7.45 1.068c.627.215 1.163.75 1.376 1.376l.074.217.009 5.017c.006 3.487-.002 5.069-.027 5.189-.093.446-.404.629-.845.497-.086-.026-.823-.419-1.637-.874l-1.481-.826-.01-2.935c-.011-2.929-.011-2.935-.086-3.201a3.183 3.183 0 0 0-2.233-2.226c-.249-.07-.322-.073-2.299-.083l-2.041-.011v-.176c0-.283.063-.553.198-.838.274-.582.76-.987 1.38-1.151.227-.059.407-.062 3.822-.056l3.583.007.217.074m-4.984 3.251c.337.114.622.3.876.572.233.25.372.481.479.803l.079.234.009 4.999c.006 3.485-.002 5.052-.027 5.173-.069.332-.29.545-.562.543-.085 0-.229-.027-.32-.059-.092-.032-.931-.485-1.865-1.005-.933-.521-1.788-.985-1.9-1.032-.183-.077-.244-.085-.652-.084-.383.001-.477.012-.634.074-.102.04-.874.458-1.717.928-.843.47-1.663.922-1.822 1.004-.524.269-.871.223-1.058-.14l-.086-.166-.009-5.018c-.007-3.56.001-5.08.027-5.234.046-.272.245-.696.433-.924a2.158 2.158 0 0 1 1.111-.71c.227-.06.405-.063 3.805-.056l3.567.007.266.091M7.259 7.902C7.03 8.023 7 8.135 7 8.865V9.5h-.637c-.593 0-.646.005-.767.073-.136.076-.263.282-.263.427 0 .145.127.351.263.427.121.068.174.073.767.073H7v.635c0 .736.03.844.266.965.168.086.31.085.467-.004.24-.134.267-.233.267-.959V10.5l.642-.001c.602 0 .649-.005.771-.075a.563.563 0 0 0 .192-.19.487.487 0 0 0-.192-.658c-.122-.07-.169-.075-.771-.075L8 9.5v-.635c0-.57-.007-.648-.067-.766a.491.491 0 0 0-.674-.197" fill-rule="evenodd" />
    </symbol>
    <symbol viewBox="0 0 22 22" id="search" xmlns="http://www.w3.org/2000/svg">
        <path d="M9.57 1.286a9.494 9.494 0 0 0-4.809 1.961c-.343.269-1.24 1.166-1.504 1.501a9.483 9.483 0 0 0-1.925 4.455c-.093.597-.093 2.08 0 2.677a9.486 9.486 0 0 0 1.924 4.455c.301.384 1.261 1.322 1.657 1.618a9.363 9.363 0 0 0 4.254 1.792c.532.082 1.71.112 2.255.059a9.416 9.416 0 0 0 3.228-.92 9.226 9.226 0 0 0 4.206-4.174c.675-1.349.981-2.65.981-4.168 0-1.508-.29-2.754-.954-4.109-1.342-2.736-3.918-4.62-6.966-5.096-.457-.071-1.88-.102-2.347-.051m2.118 1.227a7.883 7.883 0 0 1 2.41.75A8.111 8.111 0 0 1 18.42 8.62c.165.678.221 1.167.221 1.922 0 1.308-.249 2.392-.819 3.556a8.015 8.015 0 0 1-3.724 3.722c-1.19.578-2.242.821-3.556.821-.797 0-1.275-.06-2.021-.251-3.179-.817-5.544-3.471-6.012-6.75a9.609 9.609 0 0 1 0-2.197c.468-3.279 2.833-5.933 6.012-6.749a9.779 9.779 0 0 1 1.471-.251c.34-.028 1.299.012 1.696.07m6.347 15.313a.61.61 0 0 0-.229.775c.077.154 1.818 1.91 2.029 2.047.406.263.918-.001.918-.475a.837.837 0 0 0-.039-.251c-.048-.13-1.827-1.926-2.049-2.07a.586.586 0 0 0-.63-.026" fill-rule="evenodd" />
    </symbol>
    <symbol viewBox="0 0 22 23" id="settings" xmlns="http://www.w3.org/2000/svg">
        <path d="M7.6 2.403c-.252.068-.411.149-1.458.745-.749.426-.917.538-1.138.757-.43.426-.641.948-.64 1.576.001.445.038.582.297 1.125.278.583.333.849.238 1.15-.141.448-.462.619-1.306.697a6.061 6.061 0 0 0-.678.092c-.636.183-1.274.817-1.477 1.465-.055.175-.063.374-.063 1.485 0 1.111.008 1.31.063 1.485.196.628.785 1.226 1.417 1.441.119.04.433.09.738.118.843.075 1.165.246 1.306.695.095.301.04.567-.238 1.15-.259.543-.296.68-.297 1.125-.001.628.21 1.15.64 1.576.221.219.389.331 1.138.757.484.275.966.544 1.072.596.428.214.86.257 1.344.133.581-.149.966-.445 1.308-1.007.369-.606.695-.887 1.077-.927.178-.018.233-.006.44.096.283.139.45.319.751.809.365.594.778.907 1.381 1.049.317.075.757.053 1.051-.051.201-.071 1.997-1.075 2.191-1.224.388-.299.649-.663.794-1.108.08-.247.097-.364.097-.7.001-.459-.051-.65-.321-1.187-.204-.405-.248-.548-.248-.804a.83.83 0 0 1 .289-.665c.223-.197.417-.254 1.061-.314.618-.057.901-.141 1.242-.368a2.46 2.46 0 0 0 .924-1.245c.059-.194.067-.362.067-1.43s-.008-1.236-.067-1.43a2.46 2.46 0 0 0-.924-1.245c-.342-.227-.628-.312-1.244-.369-.632-.059-.83-.115-1.044-.298-.393-.337-.406-.807-.043-1.517.29-.567.375-.979.3-1.462-.087-.558-.356-1.058-.751-1.39-.233-.197-2.038-1.233-2.324-1.334a2.08 2.08 0 0 0-1.05-.051c-.606.142-1.016.455-1.385 1.056-.399.648-.701.886-1.13.889-.195.001-.269-.017-.408-.099-.228-.134-.486-.425-.726-.819a3.24 3.24 0 0 0-.387-.511c-.462-.452-1.276-.674-1.879-.512m.895 1.043c.232.102.345.215.551.55.242.394.519.73.748.906.725.559 1.528.596 2.268.104.324-.216.588-.508.874-.967.248-.399.388-.528.687-.633.24-.084.396-.088.606-.014.215.076 1.874 1.03 2.045 1.176.157.135.323.449.37.701.051.268-.014.546-.232 1.006-.242.508-.315.795-.315 1.231 0 .755.354 1.32 1.039 1.657.321.158.635.229 1.296.291.438.042.626.121.872.367.335.335.386.556.386 1.674 0 1.118-.051 1.339-.386 1.674-.246.246-.434.325-.872.367-.661.062-.975.133-1.296.291-.685.337-1.039.902-1.039 1.657 0 .436.073.723.315 1.231.221.465.283.737.231 1.015-.047.254-.207.553-.371.693-.201.173-1.925 1.145-2.118 1.195-.302.079-.692-.035-.927-.27a3.065 3.065 0 0 1-.323-.452c-.268-.445-.696-.868-1.061-1.047-.665-.325-1.277-.274-1.925.159-.315.211-.504.421-.834.93-.275.423-.35.5-.584.604a.986.986 0 0 1-.654.075c-.229-.061-1.874-1.005-2.091-1.2a1.395 1.395 0 0 1-.28-.37c-.087-.178-.102-.255-.102-.522-.001-.307.004-.324.207-.752.277-.583.339-.82.337-1.3-.001-.335-.015-.418-.105-.641-.187-.465-.457-.766-.88-.982-.343-.173-.62-.244-1.137-.288-.615-.052-.814-.125-1.085-.396-.346-.346-.363-.427-.363-1.671s.017-1.325.363-1.671c.271-.271.47-.344 1.085-.396.517-.044.794-.115 1.137-.288.423-.216.693-.517.88-.982.09-.223.104-.306.105-.641.002-.48-.06-.717-.337-1.3-.203-.428-.208-.445-.207-.752 0-.267.015-.344.102-.522.059-.121.178-.278.28-.37.19-.171 1.84-1.131 2.055-1.195.179-.054.475-.025.685.068m1.845 4.875a3.224 3.224 0 0 0-2.246 1.744 3.263 3.263 0 0 0 0 2.86c1.205 2.41 4.607 2.41 5.812 0 .44-.879.44-1.981 0-2.86-.666-1.333-2.13-2.049-3.566-1.744m1.37 1.045a2.29 2.29 0 0 1 1.424 1.407c.071.207.084.319.084.722 0 .403-.013.515-.084.722a2.307 2.307 0 0 1-1.425 1.411c-.248.086-.345.1-.709.1s-.461-.014-.709-.1a2.307 2.307 0 0 1-1.425-1.411c-.071-.207-.084-.319-.084-.722 0-.553.067-.81.315-1.192.575-.89 1.629-1.268 2.613-.937" fill-rule="evenodd" />
    </symbol>
    <symbol viewBox="0 0 12 12" id="settings-2" xmlns="http://www.w3.org/2000/svg">
        <path d="M6 7.5a1.5 1.5 0 1 0 0-3 1.5 1.5 0 0 0 0 3Z" />
        <path d="M1 6.44v-.88c0-.52.425-.95.95-.95.905 0 1.275-.64.82-1.425a.95.95 0 0 1 .35-1.295l.865-.495a.835.835 0 0 1 1.14.3l.055.095c.45.785 1.19.785 1.645 0l.055-.095a.835.835 0 0 1 1.14-.3l.865.495a.95.95 0 0 1 .35 1.295c-.455.785-.085 1.425.82 1.425.52 0 .95.425.95.95v.88c0 .52-.425.95-.95.95-.905 0-1.275.64-.82 1.425a.948.948 0 0 1-.35 1.295l-.865.495a.835.835 0 0 1-1.14-.3l-.055-.095c-.45-.785-1.19-.785-1.645 0l-.055.095a.835.835 0 0 1-1.14.3l-.865-.495a.95.95 0 0 1-.35-1.295c.455-.785.085-1.425-.82-1.425A.953.953 0 0 1 1 6.44Z" />
    </symbol>
    <symbol viewBox="0 0 14 14" id="telegram" xmlns="http://www.w3.org/2000/svg">
        <path d="m5.493 8.856-.231 3.257c.331 0 .475-.142.647-.313l1.553-1.485 3.219 2.357c.59.33 1.006.156 1.165-.543l2.113-9.9c.188-.873-.315-1.215-.89-1L.65 5.983c-.847.33-.834.802-.143 1.016l3.175.987 7.375-4.614c.347-.23.663-.103.403.127L5.493 8.856Z" />
    </symbol>
    <symbol viewBox="0 0 24 24" id="truck-fast" xmlns="http://www.w3.org/2000/svg">
        <path d="M5.173 1.579c-.855.156-1.72.616-2.364 1.26-.285.285-.682.831-.767 1.056-.098.258.059.54.349.627.246.074.421-.029.655-.386a3.47 3.47 0 0 1 1.477-1.293c.402-.192.693-.272 1.177-.323.206-.022 2.162-.039 4.571-.039 3.334-.001 4.215.009 4.228.049.009.028.004 2.255-.011 4.951l-.028 4.901-.13.264a1.515 1.515 0 0 1-.723.708c-.215.1-.269.107-.994.126-.863.022-.921.041-1.068.336-.064.129-.068.175-.029.305a.578.578 0 0 0 .432.383c.257.048 1.49-.013 1.732-.086.81-.243 1.468-.898 1.745-1.738.068-.205.074-.465.086-3.71l.013-3.49h.648c.752.001 1.045.04 1.327.178.368.18.525.386 1.226 1.61a84 84 0 0 1 .668 1.178c.008.019-.064.034-.16.035-.555.002-.982.154-1.285.457a1.438 1.438 0 0 0-.426.828c-.054.332-.054 3.136 0 3.468.053.327.187.588.421.823.235.234.496.368.823.421.139.023.818.042 1.508.042h1.254l-.019 1.45c-.015 1.169-.031 1.493-.083 1.67-.204.703-.695 1.299-1.309 1.591-.433.206-.641.252-1.194.261l-.451.008-.069-.221a2.462 2.462 0 0 0-.643-1.04c-.505-.506-1.045-.73-1.76-.73-.715 0-1.255.224-1.76.73a2.47 2.47 0 0 0-.643 1.04l-.068.221h-3.058l-.068-.221c-.25-.808-.964-1.496-1.768-1.704-.333-.086-.937-.086-1.27 0-.804.208-1.515.893-1.768 1.704l-.069.221-.451-.008c-.553-.009-.761-.055-1.194-.261a2.425 2.425 0 0 1-1.114-1.114c-.176-.368-.231-.581-.272-1.036-.024-.267-.041-.313-.158-.43-.114-.114-.157-.131-.339-.131-.185 0-.224.016-.35.142l-.141.141.023.429c.066 1.255.788 2.338 1.939 2.906.468.231.796.307 1.464.336l.595.026.092.273a2.622 2.622 0 0 0 1.561 1.597c.205.076.316.088.817.088.501 0 .612-.012.817-.088.365-.137.654-.325.941-.612a2.4 2.4 0 0 0 .62-.985l.092-.273h3.06l.092.273a2.622 2.622 0 0 0 1.561 1.597c.205.076.316.088.817.088.501 0 .612-.012.817-.088.365-.137.654-.325.941-.612.304-.303.491-.601.62-.985l.092-.273.595-.026c.672-.029 1-.105 1.468-.34 1.026-.513 1.694-1.401 1.907-2.531.025-.134.041-1.279.042-2.989l.001-2.772-.849-1.491c-2.079-3.649-2.691-4.705-2.843-4.902a2.447 2.447 0 0 0-.831-.669c-.429-.216-.515-.231-1.52-.256L15.5 4.5l-.02-1.373-.02-1.374-.131-.116-.13-.117-4.87.004c-3.809.002-4.931.015-5.156.055M1.656 7.656c-.12.12-.136.161-.136.344 0 .183.016.224.136.344l.136.136h6.416l.136-.136c.12-.12.136-.161.136-.344 0-.183-.016-.224-.136-.344l-.136-.136H1.792l-.136.136m19.114 3.185.75 1.319v1.32h-1.322c-1.451 0-1.497-.007-1.617-.239-.091-.175-.091-3.307 0-3.482.106-.205.217-.236.859-.236h.58l.75 1.318m-19.114-.185c-.12.12-.136.161-.136.344 0 .183.016.224.136.344l.136.136h4.416l.136-.136c.12-.12.136-.161.136-.344 0-.183-.016-.224-.136-.344l-.136-.136H1.792l-.136.136m0 3c-.12.12-.136.161-.136.344 0 .183.016.224.136.344l.136.136h2.416l.136-.136c.12-.12.136-.161.136-.344 0-.183-.016-.224-.136-.344l-.136-.136H1.792l-.136.136m6.951 4.991c.317.148.569.394.723.707.12.245.13.294.13.665 0 .35-.013.429-.105.621a1.773 1.773 0 0 1-.3.415c-.725.725-1.971.511-2.41-.415a1.636 1.636 0 0 1-.045-1.131c.157-.419.445-.716.864-.892.328-.138.81-.125 1.143.03m8 0c.317.148.569.394.723.707.12.245.13.294.13.665 0 .35-.013.429-.105.621-.536 1.126-2.177 1.126-2.71 0a1.636 1.636 0 0 1-.045-1.131c.157-.419.445-.716.864-.892.328-.138.81-.125 1.143.03" fill-rule="evenodd" />
    </symbol>
    <symbol viewBox="0 0 22 22" id="user" xmlns="http://www.w3.org/2000/svg">
        <path fill-rule="evenodd" clip-rule="evenodd" d="M7.014 6.417a3.983 3.983 0 1 1 7.967 0 3.983 3.983 0 0 1-7.967 0Zm3.984-5.184a5.183 5.183 0 1 0 0 10.367 5.183 5.183 0 0 0 0-10.367Zm0 11.917c-4.556 0-8.475 3.028-8.475 7.017a.6.6 0 1 0 1.2 0c0-3.107 3.14-5.817 7.275-5.817 4.134 0 7.274 2.71 7.274 5.817a.6.6 0 1 0 1.2 0c0-3.989-3.92-7.017-8.474-7.017Z" />
    </symbol>
    <symbol viewBox="0 0 18 12" id="vk" xmlns="http://www.w3.org/2000/svg">
        <path fill-rule="evenodd" clip-rule="evenodd" d="M16.831 10.91h-1.856c-.703 0-.92-.603-2.181-1.98-1.1-1.146-1.587-1.301-1.857-1.301-.379 0-.487.116-.487.679v1.805c0 .486-.144.777-1.334.777-1.964 0-4.146-1.281-5.678-3.67C1.131 3.728.5 1.107.5.564.5.272.608 0 1.13 0h1.858c.468 0 .648.233.829.776.92 2.854 2.451 5.358 3.082 5.358.234 0 .343-.117.343-.757v-2.95C7.17 1.066 6.502.95 6.502.465c0-.233.18-.466.47-.466h2.92c.396 0 .54.233.54.738v3.979c0 .427.18.582.289.582.234 0 .432-.155.865-.62 1.334-1.612 2.29-4.097 2.29-4.097.125-.29.342-.563.81-.563h1.857c.559 0 .685.311.559.738-.235 1.165-2.506 4.62-2.506 4.62-.198.35-.27.505 0 .893.198.291.847.893 1.28 1.436.793.97 1.406 1.786 1.568 2.349.18.563-.09.854-.613.854Z" />
    </symbol>
</svg>