<svg width="157" height="39" viewBox="0 0 157 39" fill="none" xmlns="http://www.w3.org/2000/svg">
<g clip-path="url(#clip0_967_51458)">
<path d="M82.0145 33.819C82.1591 33.6924 82.2749 33.5364 82.3542 33.3614C82.4335 33.1864 82.4745 32.9965 82.4744 32.8044C82.4736 32.6214 82.4363 32.4403 82.3649 32.2718C82.2934 32.1033 82.189 31.9508 82.058 31.823C81.9269 31.6952 81.7717 31.5948 81.6014 31.5275C81.4311 31.4603 81.2492 31.4277 81.0661 31.4314H77.7422V36.6156H81.1549C81.3576 36.6194 81.5589 36.5829 81.7473 36.5081C81.9356 36.4334 82.1073 36.322 82.2522 36.1804C82.3971 36.0388 82.5124 35.8698 82.5914 35.6832C82.6704 35.4966 82.7115 35.2962 82.7123 35.0936C82.7132 34.8395 82.6497 34.5893 82.5277 34.3664C82.4057 34.1435 82.2291 33.9552 82.0145 33.819ZM78.4273 32.0497H81.063C81.2584 32.0623 81.4418 32.1488 81.5757 32.2916C81.7097 32.4344 81.7843 32.6228 81.7843 32.8186C81.7843 33.0144 81.7097 33.2029 81.5757 33.3457C81.4418 33.4885 81.2584 33.575 81.063 33.5875H78.4273V32.0497ZM81.1549 36.029H78.4273V34.1932H81.1549C81.3891 34.2069 81.6092 34.3096 81.7702 34.4803C81.9311 34.6509 82.0208 34.8766 82.0208 35.1111C82.0208 35.3456 81.9311 35.5713 81.7702 35.7419C81.6092 35.9125 81.3891 36.0152 81.1549 36.029Z" fill="#0D0D0D"/>
<path d="M72.6583 31.3457C70.9424 31.3457 69.5469 32.5474 69.5469 34.025C69.5469 35.5025 70.9424 36.7011 72.6583 36.7011C74.3742 36.7011 75.7698 35.4994 75.7698 34.025C75.7698 32.5506 74.3742 31.3457 72.6583 31.3457ZM72.6583 36.0289C71.3135 36.0289 70.2161 35.1316 70.2161 34.025C70.2161 32.9184 71.3135 32.0179 72.6583 32.0179C74.0031 32.0179 75.0974 32.9184 75.0974 34.025C75.0974 35.1316 74.0031 36.0289 72.6583 36.0289Z" fill="#0D0D0D"/>
<path d="M87.581 33.2707H85.3101V31.4316H84.625V36.6158H87.581C87.8069 36.6256 88.0324 36.5896 88.2439 36.51C88.4555 36.4304 88.6488 36.3088 88.812 36.1525C88.9753 35.9962 89.1053 35.8085 89.194 35.6007C89.2828 35.3929 89.3286 35.1692 89.3286 34.9432C89.3286 34.7172 89.2828 34.4936 89.194 34.2858C89.1053 34.0779 88.9753 33.8902 88.812 33.7339C88.6488 33.5777 88.4555 33.456 88.2439 33.3764C88.0324 33.2968 87.8069 33.2608 87.581 33.2707ZM87.581 36.0133H85.3101V33.8763H87.581C87.8645 33.8763 88.1364 33.9888 88.3368 34.1892C88.5373 34.3896 88.6499 34.6614 88.6499 34.9448C88.6499 35.2282 88.5373 35.5 88.3368 35.7004C88.1364 35.9008 87.8645 36.0133 87.581 36.0133Z" fill="#0D0D0D"/>
<path d="M91.1929 31.4316H90.5078V36.619H91.1929V31.4316Z" fill="#0D0D0D"/>
<path d="M107.055 31.3456C106.614 31.3347 106.176 31.4224 105.772 31.6023C105.369 31.7823 105.011 32.0499 104.724 32.3856V31.4344H104.039V38.7715H104.724V35.661C105.01 35.9973 105.368 36.2653 105.772 36.4452C106.175 36.6252 106.614 36.7126 107.055 36.701C108.771 36.701 110.167 35.4993 110.167 34.0249C110.167 32.5505 108.771 31.3456 107.055 31.3456ZM107.055 36.1017C105.745 36.1017 104.895 35.3281 104.724 34.3769V33.6032C104.895 32.6805 105.676 31.9734 107.055 31.9734C108.435 31.9734 109.494 32.9247 109.494 34.0249C109.494 35.1251 108.4 36.0859 107.055 36.0859V36.1017Z" fill="#0D0D0D"/>
<path d="M126.686 36.0133H123.663V31.4316H122.978V36.0133H119.962V31.4316H119.273V36.6158H127.371V31.4316H126.686V36.0133Z" fill="#0D0D0D"/>
<path d="M141.601 33.7209H137.662V31.4316H136.977V36.6158H137.662V34.3265H141.601V36.6158H142.286V31.4316H141.601V33.7209Z" fill="#0D0D0D"/>
<path d="M145.279 35.6138V31.4316H144.594V36.6158H145.155L149.215 32.3797V36.6158H149.9V31.4316H149.288L145.279 35.6138Z" fill="#0D0D0D"/>
<path d="M156.676 31.4316H153.672C153.269 31.4358 152.88 31.5867 152.58 31.8563C152.279 32.1258 152.087 32.4956 152.039 32.8964C151.991 33.2972 152.091 33.7017 152.32 34.0343C152.549 34.3669 152.891 34.6049 153.282 34.7038L151.938 36.6063H152.68L153.977 34.7673H156.01V36.6063H156.695V31.4316H156.676ZM153.72 34.1743C153.446 34.1572 153.189 34.0357 153.002 33.835C152.815 33.6342 152.713 33.3695 152.715 33.0952C152.717 32.8209 152.825 32.558 153.016 32.3606C153.206 32.1632 153.465 32.0464 153.739 32.0341H156.01V34.1743H153.72Z" fill="#0D0D0D"/>
<path d="M63.4062 31.4316V32.0341H65.7057V36.6158H66.3908V32.0341H68.6903V31.4316H63.4062Z" fill="#0D0D0D"/>
<path d="M10.7367 34.2219L8.13905 31.4316H7.60938V36.6158H8.29447V32.4843L10.7367 35.1065L13.1916 32.4716V36.6158H13.8767V31.4316H13.3343L10.7367 34.2219Z" fill="#0D0D0D"/>
<path d="M3.3227 35.9087L0.981967 31.4316H0.296875L3.01821 36.6158L2.5932 37.6082C2.04132 38.7307 0.690174 38.2075 0.629911 38.1821L0.401547 38.7497C0.715855 38.8728 1.05037 38.9363 1.38795 38.9368C1.7534 38.9528 2.11542 38.8602 2.42819 38.6706C2.74097 38.4809 2.99045 38.2028 3.14508 37.8714L5.93936 31.4316H5.26379L3.3227 35.9087Z" fill="#0D0D0D"/>
<path d="M45.8224 32.0182C46.1814 32.012 46.5378 32.0791 46.8699 32.2154C47.2021 32.3517 47.5029 32.5543 47.754 32.8109L48.2456 32.3638C47.9334 32.0367 47.557 31.7775 47.1401 31.6024C46.7232 31.4273 46.2746 31.34 45.8224 31.346C44.1065 31.346 42.7109 32.5477 42.7109 34.0253C42.7109 35.5028 44.1065 36.7014 45.8224 36.7014C46.2738 36.7073 46.7217 36.6203 47.138 36.4458C47.5544 36.2712 47.9303 36.0128 48.2424 35.6867L47.7667 35.2397C47.516 35.4957 47.2156 35.6978 46.884 35.8335C46.5524 35.9693 46.1965 36.0359 45.8383 36.0292C44.4934 36.0292 43.3992 35.1319 43.3992 34.0253C43.3992 32.9187 44.4776 32.0182 45.8224 32.0182Z" fill="#0D0D0D"/>
<path d="M96.1896 31.3457C94.4737 31.3457 93.0781 32.5474 93.0781 34.025C93.0781 35.5025 94.4737 36.7011 96.1896 36.7011C96.6433 36.7068 97.0932 36.6187 97.5113 36.4425C97.9293 36.2663 98.3065 36.0056 98.6191 35.6769L98.1497 35.2203C97.898 35.4859 97.5937 35.6961 97.2562 35.8375C96.9187 35.9789 96.5555 36.0484 96.1896 36.0416C94.9685 36.0416 93.9694 35.2996 93.7854 34.3389H99.2661C99.284 34.2393 99.2957 34.1387 99.301 34.0377C99.301 32.5474 97.9055 31.3457 96.1896 31.3457ZM93.7854 33.7206C93.9662 32.7694 94.9685 32.0179 96.1896 32.0179C97.4107 32.0179 98.4098 32.7598 98.5937 33.7206H93.7854Z" fill="#0D0D0D"/>
<path d="M20.8275 33.7209H16.8882V31.4316H16.2031V36.6158H16.8882V34.3265H20.8275V36.6158H21.5126V31.4316H20.8275V33.7209Z" fill="#0D0D0D"/>
<path d="M26.7451 33.2707H24.4773V31.4316H23.7891V36.6158H26.7451C26.9709 36.6256 27.1964 36.5896 27.408 36.51C27.6196 36.4304 27.8128 36.3088 27.9761 36.1525C28.1394 35.9962 28.2693 35.8085 28.3581 35.6007C28.4469 35.3929 28.4926 35.1692 28.4926 34.9432C28.4926 34.7172 28.4469 34.4936 28.3581 34.2858C28.2693 34.0779 28.1394 33.8902 27.9761 33.7339C27.8128 33.5777 27.6196 33.456 27.408 33.3764C27.1964 33.2968 26.9709 33.2608 26.7451 33.2707ZM26.7451 36.0133H24.4773V33.8763H26.7451C27.0286 33.8763 27.3005 33.9888 27.5009 34.1892C27.7014 34.3896 27.814 34.6614 27.814 34.9448C27.814 35.2282 27.7014 35.5 27.5009 35.7004C27.3005 35.9008 27.0286 36.0133 26.7451 36.0133Z" fill="#0D0D0D"/>
<path d="M30.357 31.4316H29.6719V36.619H30.357V31.4316Z" fill="#0D0D0D"/>
<path d="M114.494 31.3457C112.778 31.3457 111.383 32.5474 111.383 34.025C111.383 35.5025 112.778 36.7011 114.494 36.7011C114.948 36.7068 115.398 36.6187 115.816 36.4425C116.234 36.2663 116.611 36.0056 116.924 35.6769L116.454 35.2203C116.203 35.4859 115.898 35.6961 115.561 35.8375C115.223 35.9789 114.86 36.0484 114.494 36.0416C113.273 36.0416 112.274 35.2996 112.09 34.3389H117.571C117.589 34.2393 117.6 34.1387 117.606 34.0377C117.606 32.5474 116.21 31.3457 114.494 31.3457ZM112.09 33.7206C112.271 32.7694 113.273 32.0179 114.494 32.0179C115.715 32.0179 116.714 32.7598 116.898 33.7206H112.09Z" fill="#0D0D0D"/>
<path d="M132.197 31.3457C130.481 31.3457 129.086 32.5474 129.086 34.025C129.086 35.5025 130.481 36.7011 132.197 36.7011C132.651 36.7068 133.101 36.6187 133.519 36.4425C133.937 36.2663 134.314 36.0056 134.627 35.6769L134.158 35.2203C133.906 35.4859 133.602 35.6961 133.264 35.8375C132.927 35.9789 132.563 36.0484 132.197 36.0416C130.976 36.0416 129.977 35.2996 129.793 34.3389H135.274C135.292 34.2393 135.304 34.1387 135.309 34.0377C135.299 32.5474 133.913 31.3457 132.197 31.3457ZM129.793 33.7206C129.974 32.7694 130.976 32.0179 132.197 32.0179C133.419 32.0179 134.418 32.7598 134.598 33.7206H129.793Z" fill="#0D0D0D"/>
<path d="M59.5177 31.3457C57.8018 31.3457 56.4062 32.5474 56.4062 34.025C56.4062 35.5025 57.8018 36.7011 59.5177 36.7011C59.9714 36.7071 60.4215 36.6193 60.8396 36.443C61.2577 36.2668 61.6349 36.0059 61.9472 35.6769L61.4778 35.2203C61.2261 35.4859 60.9218 35.6961 60.5843 35.8375C60.2468 35.9789 59.8836 36.0484 59.5177 36.0416C58.2966 36.0416 57.2975 35.2996 57.1135 34.3389H62.5943C62.6122 34.2393 62.6238 34.1387 62.6292 34.0377C62.6292 32.5474 61.2336 31.3457 59.5177 31.3457ZM57.1135 33.7206C57.2943 32.7694 58.2998 32.0179 59.5177 32.0179C60.7356 32.0179 61.7379 32.7598 61.9219 33.7206H57.1135Z" fill="#0D0D0D"/>
<path d="M35.1459 31.3457C33.43 31.3457 32.0312 32.5474 32.0312 34.025C32.0312 35.5025 33.43 36.7011 35.1459 36.7011C35.5995 36.7064 36.0493 36.6182 36.4673 36.442C36.8853 36.2658 37.2625 36.0053 37.5754 35.6769L37.106 35.2203C36.8543 35.4859 36.55 35.6961 36.2125 35.8375C35.875 35.9789 35.5117 36.0484 35.1459 36.0416C33.9248 36.0416 32.9257 35.2996 32.7417 34.3389H38.2224C38.2403 34.2393 38.252 34.1387 38.2573 34.0377C38.251 32.5474 36.8618 31.3457 35.1459 31.3457ZM32.7417 33.7206C32.9193 32.7694 33.9248 32.0179 35.1459 32.0179C36.367 32.0179 37.3661 32.7598 37.5469 33.7206H32.7417Z" fill="#0D0D0D"/>
<path d="M54.3316 33.8189C54.4767 33.6928 54.5929 33.5368 54.6722 33.3617C54.7516 33.1867 54.7923 32.9965 54.7915 32.8043C54.7907 32.6216 54.7536 32.4408 54.6823 32.2725C54.611 32.1042 54.507 31.9518 54.3762 31.8241C54.2455 31.6963 54.0907 31.5958 53.9208 31.5284C53.7509 31.461 53.5692 31.428 53.3865 31.4314H50.0625V36.6155H53.4721C53.6747 36.6193 53.8761 36.5828 54.0644 36.5081C54.2528 36.4334 54.4244 36.322 54.5693 36.1803C54.7143 36.0387 54.8295 35.8697 54.9085 35.6831C54.9875 35.4966 55.0286 35.2962 55.0294 35.0936C55.0304 34.8395 54.9669 34.5893 54.8448 34.3664C54.7228 34.1434 54.5463 33.9551 54.3316 33.8189ZM50.7476 32.0497H53.3865C53.5819 32.0622 53.7652 32.1487 53.8992 32.2915C54.0332 32.4343 54.1078 32.6228 54.1078 32.8186C54.1078 33.0144 54.0332 33.2028 53.8992 33.3456C53.7652 33.4885 53.5819 33.5749 53.3865 33.5875H50.7476V32.0497ZM53.4721 36.0131H50.7444V34.1772H53.4721C53.7063 34.191 53.9264 34.2937 54.0873 34.4643C54.2483 34.635 54.3379 34.8606 54.3379 35.0952C54.3379 35.3297 54.2483 35.5554 54.0873 35.726C53.9264 35.8966 53.7063 35.9993 53.4721 36.0131Z" fill="#0D0D0D"/>
<path d="M156.983 14.3125H139.047V17.6164H156.955V22.8544H133.281V0.529297H156.955L156.983 5.76418H139.047V9.10296H156.983V14.3125Z" fill="#0D0D0D"/>
<path d="M59.4615 0.529297V17.6512H74.9807V22.8544H53.6953V0.529297H59.4615Z" fill="#0D0D0D"/>
<path d="M96.5254 0.529297H102.317V11.9756C102.34 14.0725 101.715 16.1253 100.528 17.8542C99.3768 19.6221 97.7692 21.0462 95.8752 21.9761C93.707 22.9824 91.3416 23.4926 88.9513 23.4695C86.6086 23.5029 84.2895 22.9973 82.1734 21.992C80.061 21.0059 78.6845 19.6456 77.4697 17.9049C76.2535 16.1918 75.6006 14.1429 75.6016 12.0422V0.529297H81.4122V11.2083C81.4122 13.301 81.7706 14.1127 82.7982 15.5142C83.9622 17.0995 86.1951 18.2093 88.9513 18.2093C91.3618 18.2093 93.582 17.3532 95.171 15.5142C95.8054 14.7722 96.5127 13.4976 96.5127 11.1734L96.5254 0.529297Z" fill="#0D0D0D"/>
<path d="M104.375 11.7824C104.375 9.65171 105.009 7.1722 106.278 5.46634C107.547 3.76049 110.848 0 117.68 0C125.581 0 130.745 3.80488 131.059 9.15073H124.937C124.395 6.88683 121.509 4.62927 117.665 4.62927C113.284 4.62927 110.141 7.73659 110.141 11.7824C110.141 15.5144 113.335 18.2095 117.665 18.2095C121.509 18.2095 124.395 16.6844 124.906 14.3349H131.043C130.31 18.5773 127.652 23.4285 117.665 23.4285C110.972 23.4285 107.544 19.6395 106.275 17.9337C105.006 16.2278 104.375 13.872 104.375 11.7824Z" fill="#0D0D0D"/>
<path d="M6.23242 9.11247V5.73247H22.8173V0.529297H7.32032C3.27638 0.529297 0 3.38296 0 7.42247C0 11.462 3.27638 14.2934 7.32032 14.2934H17.6316V17.6354H0.529671V22.8544H16.9148C20.7969 22.8544 23.9433 19.8834 23.9433 16.0025C23.9405 15.0866 23.7558 14.1805 23.3999 13.3366C23.0441 12.4926 22.5242 11.7277 21.8704 11.0862C21.2166 10.4447 20.4419 9.93933 19.5912 9.59943C18.7405 9.25953 17.8308 9.09185 16.9148 9.10613L6.23242 9.11247Z" fill="#0D0D0D"/>
<path d="M36.9688 22.861V0.532715L31.1994 0.532715V22.861H36.9688Z" fill="#0D0D0D"/>
<path d="M45.3078 0.529297H22.8203V5.74198H45.3078V0.529297Z" fill="#0056B8"/>
</g>
<defs>
<clipPath id="clip0_967_51458">
<rect width="157" height="39" fill="white"/>
</clipPath>
</defs>
</svg>
