<?xml version="1.0" encoding="utf-8"?><svg xmlns="http://www.w3.org/2000/svg" xmlns:xlink="http://www.w3.org/1999/xlink">
  <symbol viewBox="0 0 14 16" id="arrow-nav" xmlns="http://www.w3.org/2000/svg">
    <path d="M.293 7.293a1 1 0 000 1.414l6.364 6.364a1 1 0 001.414-1.414L2.414 8l5.657-5.657A1 1 0 006.657.93L.293 7.293zM14 7H1v2h13V7z" />
  </symbol>
  <symbol viewBox="0 0 18 20" id="basket" xmlns="http://www.w3.org/2000/svg">
    <path d="M7 9v6m4-6v6M1 5h16m-1 0l-.867 12.142A2 2 0 0113.138 19H4.862a2 2 0 01-1.995-1.858L2 5h14zm-4 0V2a1 1 0 00-1-1H7a1 1 0 00-1 1v3h6z" />
  </symbol>
  <symbol viewBox="0 0 15 11" id="eye" xmlns="http://www.w3.org/2000/svg">
    <path d="M7.5 0C3.358 0 0 5.428 0 5.428S3.358 11 7.5 11c4.142 0 7.5-5.572 7.5-5.572S11.642 0 7.5 0zm0 9.167c-2.07 0-3.75-1.642-3.75-3.667S5.43 1.833 7.5 1.833c2.07 0 3.75 1.642 3.75 3.667S9.57 9.167 7.5 9.167z" />
    <path d="M7.5 7.34c1.036 0 1.875-.82 1.875-1.833 0-1.012-.84-1.833-1.875-1.833-1.036 0-1.875.82-1.875 1.833s.84 1.834 1.875 1.834z" />
  </symbol>
  <symbol viewBox="0 0 9 16" id="facebook" xmlns="http://www.w3.org/2000/svg">
    <path d="M8.661.003L6.502 0C4.077 0 2.51 1.546 2.51 3.938v1.815H.34A.333.333 0 000 6.08v2.63c0 .18.152.326.34.326h2.17v6.638c0 .18.152.326.34.326H5.68c.188 0 .34-.146.34-.326V9.036h2.537c.188 0 .34-.146.34-.326V6.08a.32.32 0 00-.099-.231.347.347 0 00-.24-.096H6.021V4.214c0-.74.183-1.115 1.186-1.115H8.66c.187 0 .339-.147.339-.327V.33a.333.333 0 00-.339-.327z" />
  </symbol>
  <symbol viewBox="0 0 16 20" id="favorite" xmlns="http://www.w3.org/2000/svg">
    <path d="M1 3a2 2 0 012-2h10a2 2 0 012 2v16l-7-3.5L1 19V3z" />
  </symbol>
  <symbol viewBox="0 0 10 16" id="google" xmlns="http://www.w3.org/2000/svg">
    <path d="M7.366 8.708a12.48 12.48 0 01-1.1-.853c.084-.022.169-.035.252-.063a3.61 3.61 0 002.139-1.939c.445-1 .454-2.14.025-3.147A4.34 4.34 0 007.405 1H9a.5.5 0 000-1H5a.476.476 0 00-.081.016 3.836 3.836 0 00-1.441.192 3.61 3.61 0 00-2.14 1.939c-.445 1-.454 2.14-.025 3.147a4.358 4.358 0 003.813 2.691c.119.228.277.433.468.606C3.819 8.836 0 9.687 0 12.5 0 13.808.649 16 5 16c3.224 0 5-1.421 5-4 0-1.4-1.46-2.449-2.634-3.292zM2.239 4.916a2.947 2.947 0 01.01-2.355A2.619 2.619 0 013.8 1.153c.3-.102.614-.154.93-.153a3.342 3.342 0 013.03 2.084c.325.752.321 1.606-.01 2.355A2.619 2.619 0 016.2 6.847a3.254 3.254 0 01-3.961-1.931zM5 15c-2.654 0-4-.841-4-2.5 0-2.605 5.474-3 5.529-3a.489.489 0 00.169-.04l.084.061C7.771 10.229 9 11.113 9 12c0 1.99-1.346 3-4 3z" />
  </symbol>
  <symbol viewBox="0 0 21 21" id="instagram" xmlns="http://www.w3.org/2000/svg">
    <path d="M14.9 0H6.1A6.107 6.107 0 000 6.1v8.8C0 18.264 2.737 21 6.1 21h8.8c3.364 0 6.1-2.736 6.1-6.1V6.1C21 2.737 18.264 0 14.9 0zm4.46 14.9c0 2.459-2.001 4.46-4.46 4.46H6.1c-2.459 0-4.46-2.001-4.46-4.46V6.1c0-2.459 2.001-4.46 4.46-4.46h8.8c2.459 0 4.46 2.001 4.46 4.46v8.8z" />
    <path d="M10.5 4.84a5.667 5.667 0 00-5.66 5.66c0 3.121 2.539 5.66 5.66 5.66s5.66-2.539 5.66-5.66-2.539-5.66-5.66-5.66zm0 9.68a4.024 4.024 0 01-4.02-4.02 4.024 4.024 0 014.02-4.02 4.024 4.024 0 014.02 4.02 4.024 4.024 0 01-4.02 4.02zM16.242 5.578a.82.82 0 100-1.64.82.82 0 000 1.64z" />
  </symbol>
  <symbol viewBox="0 0 16 13" id="like" xmlns="http://www.w3.org/2000/svg">
    <path d="M2.025 1.944c-.325.299-.583.654-.759 1.045a3.001 3.001 0 000 2.466c.176.39.434.746.76 1.045L8 12l5.975-5.5C14.63 5.896 15 5.076 15 4.222c0-.855-.369-1.674-1.025-2.278A3.66 3.66 0 0011.5 1a3.66 3.66 0 00-2.475.944L8 2.887l-1.025-.943c-.325-.3-.71-.537-1.136-.699a3.764 3.764 0 00-2.678 0c-.425.162-.81.4-1.136.699z" />
  </symbol>
  <symbol viewBox="0 0 11 10" id="photo" xmlns="http://www.w3.org/2000/svg">
    <path d="M1 3.5a1 1 0 011-1h.465a1 1 0 00.832-.445l.406-.61A1 1 0 014.535 1h1.93a1 1 0 01.832.445l.406.61a1 1 0 00.832.445H9a1 1 0 011 1V8a1 1 0 01-1 1H2a1 1 0 01-1-1V3.5z" />
    <path d="M7 5.5a1.5 1.5 0 11-3 0 1.5 1.5 0 013 0z" />
  </symbol>
  <symbol viewBox="0 0 20 20" id="plus" xmlns="http://www.w3.org/2000/svg">
    <path d="M10 7v3-3zm0 3v3-3zm0 0h3-3zm0 0H7h3zm9 0a9 9 0 11-18 0 9 9 0 0118 0z" />
  </symbol>
  <symbol viewBox="0 0 16 14" id="replay" xmlns="http://www.w3.org/2000/svg">
    <path d="M1 5.5h7.778c1.65 0 3.233.632 4.4 1.757A5.894 5.894 0 0115 11.5V13M1 5.5L5.667 10M1 5.5L5.667 1" />
  </symbol>
  <symbol viewBox="0 0 18 10" id="vk" xmlns="http://www.w3.org/2000/svg">
    <path fill-rule="evenodd" clip-rule="evenodd" d="M15.492 6.358c.597.573 1.227 1.111 1.762 1.741.237.28.46.569.632.894.243.462.023.97-.399.998l-2.622-.002c-.676.055-1.216-.212-1.67-.666-.363-.363-.699-.75-1.048-1.124a2.473 2.473 0 00-.472-.412c-.358-.228-.668-.159-.873.208-.208.373-.256.786-.276 1.201-.028.606-.215.766-.835.793-1.326.062-2.584-.135-3.752-.792-1.03-.578-1.83-1.395-2.525-2.32C2.06 5.076 1.023 3.097.09 1.062-.12.604.035.358.55.35 1.405.333 2.26.334 3.117.348c.348.005.578.2.712.523a15.534 15.534 0 001.74 3.166c.19.262.382.524.657.709.304.204.536.136.68-.196.09-.211.13-.438.15-.664.068-.777.077-1.553-.042-2.327-.073-.483-.35-.796-.841-.887C5.921.625 5.958.533 6.08.393 6.29.151 6.49 0 6.885 0h2.963c.467.09.57.296.634.757l.003 3.232c-.005.178.09.708.418.826.262.084.435-.122.592-.285.71-.74 1.216-1.613 1.668-2.518.201-.398.374-.81.541-1.224.124-.306.319-.457.67-.45l2.852.003c.085 0 .17 0 .252.014.481.08.613.284.464.745-.234.723-.689 1.325-1.134 1.93-.475.646-.984 1.27-1.456 1.92-.433.594-.399.893.14 1.408z" />
  </symbol>
  <symbol viewBox="0 0 20 18" id="write" xmlns="http://www.w3.org/2000/svg">
    <path d="M6 9h.01M10 9h.01M14 9h.01M19 9c0 4.418-4.03 8-9 8a9.863 9.863 0 01-4.255-.949L1 17l1.395-3.72C1.512 12.042 1 10.574 1 9c0-4.418 4.03-8 9-8s9 3.582 9 8z" />
  </symbol>
</svg>