<?xml version="1.0" encoding="utf-8"?><svg xmlns="http://www.w3.org/2000/svg" xmlns:xlink="http://www.w3.org/1999/xlink">
    <symbol viewBox="0 0 10 10" id="arrow" xmlns="http://www.w3.org/2000/svg">
        <path d="M2.938.878 7.059 5 2.937 9.122" />
    </symbol>
    <symbol viewBox="0 0 16 16" id="attach" xmlns="http://www.w3.org/2000/svg">
        <path d="m8.867 1.909-.294.04a5.21 5.21 0 0 0-2.52 1.1c-.302.243-3.35 3.302-3.552 3.564A4.53 4.53 0 0 0 1.573 8.8a5.869 5.869 0 0 0 0 1.2 4.524 4.524 0 0 0 1.204 2.499c.179.183.289.234.467.214a.483.483 0 0 0 .427-.532c-.017-.14-.077-.241-.26-.434-.401-.424-.752-1.155-.857-1.785a5.28 5.28 0 0 1 0-1.124 3.868 3.868 0 0 1 .647-1.531c.211-.29 3.247-3.331 3.561-3.567.771-.58 1.599-.859 2.545-.859.734 0 1.314.14 1.946.471.39.204.659.402.988.728a4.029 4.029 0 0 1 1.142 2.04 4.17 4.17 0 0 1-.731 3.427c-.11.147-.704.76-1.697 1.75l-1.528 1.524-.254.121c-.307.146-.454.178-.808.177-.311 0-.441-.024-.685-.124-.535-.22-.993-.758-1.107-1.302-.103-.494-.005-1.038.257-1.417.059-.086.52-.57 1.023-1.076.503-.506.934-.958.958-1.005.098-.196.018-.477-.173-.61-.085-.059-.137-.074-.259-.075a.552.552 0 0 0-.232.042c-.044.024-.507.474-1.029.999-1.003 1.01-1.133 1.167-1.327 1.6a2.905 2.905 0 0 0-.207 1.563c.104.63.38 1.158.834 1.594.379.363.755.577 1.249.71.238.065.313.072.706.072.392 0 .47-.008.707-.071.31-.082.739-.288.981-.472.187-.141 3.088-3.045 3.283-3.285.549-.678.931-1.561 1.07-2.477a6.297 6.297 0 0 0 0-1.465c-.171-1.122-.624-2.055-1.385-2.85-.756-.79-1.756-1.315-2.882-1.513-.208-.037-1.12-.071-1.28-.048" fill-rule="evenodd" />
    </symbol>
    <symbol viewBox="0 0 20 20" id="calendar" xmlns="http://www.w3.org/2000/svg">
        <path d="M6.521.567a.565.565 0 0 0-.18.106c-.144.133-.174.258-.174.709 0 .481.054.423-.456.483a4.653 4.653 0 0 0-1.735.563c-1.146.669-1.802 1.819-1.942 3.405-.045.515-.045 7.819 0 8.334.206 2.322 1.515 3.703 3.778 3.983.597.074 7.779.074 8.376 0 2.263-.28 3.572-1.661 3.778-3.983.045-.515.045-7.819 0-8.334-.14-1.586-.796-2.736-1.942-3.405a4.653 4.653 0 0 0-1.735-.563c-.505-.059-.449.005-.461-.529-.01-.407-.02-.476-.08-.557-.124-.165-.234-.225-.415-.225-.188 0-.303.066-.425.246-.068.1-.075.148-.075.555V1.8H7.167v-.445C7.167.948 7.16.9 7.092.8c-.143-.21-.36-.299-.571-.233m-.354 2.659c0 .35.011.446.061.541.19.357.701.356.88-.001.047-.092.059-.203.059-.541V2.8h5.666v.425c0 .485.038.604.234.736.096.064.148.076.293.064.202-.016.322-.091.412-.259.05-.095.061-.19.061-.537v-.423l.142.016c1.609.183 2.555.963 2.892 2.388.073.312.132.784.133 1.065v.192H2.99l.021-.375c.046-.795.235-1.436.577-1.962.184-.281.572-.65.871-.828.387-.23 1.003-.421 1.541-.479.064-.007.128-.015.142-.018.013-.003.025.186.025.421m10.824 7.649c-.012 3.335-.015 3.451-.082 3.742-.174.76-.401 1.21-.824 1.636-.348.35-.633.532-1.091.696-.684.244-.473.234-5.011.234-4.474 0-4.267.009-4.907-.205-1.203-.402-1.877-1.313-2.041-2.761C3.014 14.033 3 12.664 3 10.675V7.433h14.003l-.012 3.442M6.287 9.805a1.13 1.13 0 0 0-.599.388c-.355.512-.182 1.188.379 1.479.122.064.201.078.433.078.232 0 .311-.014.433-.078.693-.36.76-1.294.122-1.717-.144-.096-.487-.204-.586-.185l-.182.035m3.944-.004a.96.96 0 0 0-.802.94c-.002.277.026.376.161.582.126.192.35.358.558.414.193.053.541.02.709-.066.198-.1.371-.284.468-.497.073-.158.081-.215.069-.455-.012-.22-.032-.305-.102-.422a1 1 0 0 0-1.061-.496m-4.009 3.845c-.318.089-.606.38-.692.699-.12.443.109.938.531 1.145.156.077.233.093.439.093.417 0 .74-.206.912-.581.098-.212.097-.593-.001-.807a1.137 1.137 0 0 0-.495-.499 1.16 1.16 0 0 0-.694-.05" fill-rule="evenodd" />
    </symbol>
    <symbol viewBox="0 0 16 16" id="cart" xmlns="http://www.w3.org/2000/svg">
        <path d="M5.056 6.528H2.847l-1.472 8.097h13.25l-1.472-8.097h-2.209m-5.888 0V4.319a2.944 2.944 0 0 1 5.888 0v2.209m-5.888 0h5.888m-5.888 0v2.208m5.888-2.208v2.208" />
    </symbol>
    <symbol viewBox="0 0 16 16" id="clip" xmlns="http://www.w3.org/2000/svg">
        <path d="M8.787 1.654c-1.021.104-1.946.472-2.8 1.114-.246.185-3.51 3.448-3.726 3.725a4.7 4.7 0 0 0-.94 2.221 5.94 5.94 0 0 0 0 1.372 4.69 4.69 0 0 0 1.226 2.551c.245.257.379.328.622.329.44.003.751-.304.75-.739 0-.24-.047-.342-.281-.614-.37-.429-.541-.718-.689-1.16A2.954 2.954 0 0 1 2.78 9.28a3.12 3.12 0 0 1 .601-1.785c.126-.181 2.855-2.944 3.309-3.352.304-.273.571-.452.923-.621a3.902 3.902 0 0 1 4.41.703 3.862 3.862 0 0 1 1.195 2.668 3.898 3.898 0 0 1-.8 2.534c-.221.294-2.998 3.072-3.196 3.197a2.079 2.079 0 0 1-.36.167c-.282.098-.703.103-.969.011-.83-.287-1.28-1.122-1.049-1.949.095-.342.149-.408 1.174-1.442C9.1 8.32 9.102 8.317 9.102 7.983a.583.583 0 0 0-.06-.306.724.724 0 0 0-.682-.423c-.315.001-.327.01-1.328 1.008-.885.881-1.138 1.161-1.308 1.448a3.105 3.105 0 0 0-.04 3.086c.289.514.786.986 1.316 1.251.44.219.847.31 1.387.308a2.825 2.825 0 0 0 1.293-.281c.427-.192.548-.297 2.102-1.845.812-.808 1.567-1.577 1.679-1.709 1.374-1.626 1.65-3.957.697-5.878A5.352 5.352 0 0 0 10.2 1.706a6.784 6.784 0 0 0-1.413-.052" fill-rule="evenodd" />
    </symbol>
    <symbol viewBox="0 0 16 17" id="copy" xmlns="http://www.w3.org/2000/svg">
        <path d="M10.665 9.1v2.8c0 2.333-.933 3.267-3.266 3.267h-2.8c-2.334 0-3.267-.934-3.267-3.267V9.1c0-2.333.933-3.266 3.267-3.266h2.8c2.333 0 3.266.933 3.266 3.266Z" />
        <path d="M14.665 5.1v2.8c0 2.333-.933 3.267-3.266 3.267h-.734V9.1c0-2.333-.933-3.266-3.266-3.266H5.332V5.1c0-2.333.933-3.266 3.267-3.266h2.8c2.333 0 3.266.933 3.266 3.266Z" />
    </symbol>
    <symbol viewBox="0 0 16 16" id="cross" xmlns="http://www.w3.org/2000/svg">
        <path fill-rule="evenodd" clip-rule="evenodd" d="M3.385 2.678a.5.5 0 1 0-.707.707L7.293 8l-4.615 4.615a.5.5 0 1 0 .707.707L8 8.707l4.615 4.615a.5.5 0 1 0 .707-.707L8.707 8l4.615-4.615a.5.5 0 1 0-.707-.707L8 7.293 3.385 2.678Z" />
    </symbol>
    <symbol viewBox="0 0 12 12" id="cross-thin" xmlns="http://www.w3.org/2000/svg">
        <path fill-rule="evenodd" clip-rule="evenodd" d="M9.373 1.92a.5.5 0 1 1 .707.707L6.707 6l3.373 3.373a.5.5 0 1 1-.707.707L6 6.707 2.627 10.08a.5.5 0 1 1-.707-.707L5.293 6 1.92 2.627a.5.5 0 0 1 .707-.707L6 5.293 9.373 1.92Z" />
    </symbol>
    <symbol viewBox="0 0 16 16" id="filters" xmlns="http://www.w3.org/2000/svg">
        <path d="M14.667 11.667H10M3.334 11.667h-2M14.666 4.333h-2M6 4.333H1.335M4.667 9.667h4c.734 0 1.334.333 1.334 1.333v1.334c0 1-.6 1.333-1.334 1.333h-4c-.733 0-1.333-.333-1.333-1.333V11c0-1 .6-1.333 1.333-1.333ZM7.333 2.333h4c.734 0 1.334.333 1.334 1.333V5c0 1-.6 1.333-1.334 1.333h-4C6.6 6.333 6 6 6 5V3.666c0-1 .6-1.333 1.333-1.333Z" />
    </symbol>
    <symbol viewBox="0 0 16 16" id="grid" xmlns="http://www.w3.org/2000/svg">
        <path fill-rule="evenodd" clip-rule="evenodd" d="M4 5.5a1.5 1.5 0 1 0 0-3 1.5 1.5 0 0 0 0 3Zm0 8a1.5 1.5 0 1 0 0-3 1.5 1.5 0 0 0 0 3ZM13.5 4a1.5 1.5 0 1 1-3 0 1.5 1.5 0 0 1 3 0ZM12 13.5a1.5 1.5 0 1 0 0-3 1.5 1.5 0 0 0 0 3Z" />
    </symbol>
    <symbol viewBox="0 0 16 16" id="heart" xmlns="http://www.w3.org/2000/svg">
        <path d="M8 13.928C-4.925 6.878 4.423-1.886 8 4.016c3.577-5.903 12.925 2.862 0 9.912Z" />
    </symbol>
    <symbol viewBox="0 0 16 16" id="info" xmlns="http://www.w3.org/2000/svg">
        <path d="M7.556.855A7.142 7.142 0 0 0 3.2 2.685 7.172 7.172 0 0 0 .878 7.213a9.731 9.731 0 0 0 0 1.574 7.169 7.169 0 0 0 5.109 6.088 7.291 7.291 0 0 0 3.801.061 7.074 7.074 0 0 0 3.31-1.913c.322-.328.407-.426.672-.782a7.183 7.183 0 0 0 1.338-3.374 8.939 8.939 0 0 0 0-1.731c-.159-1.28-.609-2.392-1.397-3.456-.298-.401-.986-1.09-1.393-1.393A7.124 7.124 0 0 0 7.556.855M9.04 1.92a6.212 6.212 0 0 1 2.649 1.141c.348.257.993.902 1.25 1.25.595.803.966 1.67 1.145 2.676.07.393.096 1.206.052 1.629a6.276 6.276 0 0 1-1.322 3.237c-.191.239-.636.69-.895.907a6.43 6.43 0 0 1-2.587 1.263c-.99.213-2.093.18-3.032-.092a6.264 6.264 0 0 1-3.114-2.078c-.654-.813-1.085-1.781-1.283-2.88-.07-.384-.07-1.562 0-1.946.12-.663.281-1.16.562-1.734a6.095 6.095 0 0 1 1.628-2.062c.859-.718 2.043-1.222 3.2-1.362.378-.045 1.366-.017 1.747.051M7.884 4.857a.484.484 0 0 0-.315.23l-.062.1v2.964l.071.108c.106.16.236.23.427.23.13 0 .175-.013.267-.078a.654.654 0 0 0 .166-.184c.054-.104.056-.147.063-1.479.008-1.455.001-1.573-.114-1.723a.508.508 0 0 0-.503-.168m0 5.334c-.232.051-.373.232-.373.478 0 .284.202.487.486.486.228 0 .382-.101.468-.308a.43.43 0 0 0 0-.361.484.484 0 0 0-.581-.295" fill-rule="evenodd" />
    </symbol>
    <symbol viewBox="0 0 16 16" id="login" xmlns="http://www.w3.org/2000/svg">
        <path fill-rule="evenodd" clip-rule="evenodd" d="M8 1.557a.5.5 0 1 0 0 1c1.533 0 2.894.519 3.869 1.445.97.921 1.589 2.276 1.589 4.012 0 1.736-.619 3.09-1.59 4.012-.974.926-2.335 1.445-3.868 1.445a.5.5 0 0 0 0 1c1.759 0 3.376-.598 4.558-1.72 1.185-1.126 1.9-2.75 1.9-4.737s-.715-3.612-1.9-4.737c-1.182-1.123-2.8-1.72-4.558-1.72Zm-.592 4.241a.5.5 0 0 1 .708 0l1.906 1.907a.5.5 0 0 1 0 .707l-1.906 1.906a.5.5 0 1 1-.708-.707L8.461 8.56H2.043a.5.5 0 1 1 0-1h6.418L7.408 6.506a.5.5 0 0 1 0-.708Z" />
    </symbol>
    <symbol viewBox="0 0 20 20" id="logout" xmlns="http://www.w3.org/2000/svg">
        <path fill-rule="evenodd" clip-rule="evenodd" d="M10 1.821a.75.75 0 1 1 0 1.5c-1.888 0-3.558.64-4.75 1.772C4.063 6.22 3.303 7.88 3.303 10.018c0 2.138.76 3.798 1.947 4.925 1.192 1.132 2.862 1.772 4.75 1.772a.75.75 0 1 1 0 1.5c-2.227 0-4.28-.758-5.783-2.185-1.509-1.433-2.414-3.497-2.414-6.012 0-2.516.905-4.58 2.414-6.012C5.719 2.578 7.773 1.82 9.999 1.82Zm4.469 5.34a.75.75 0 0 1 1.06 0l2.384 2.382a.75.75 0 0 1 0 1.06l-2.383 2.384a.75.75 0 0 1-1.061-1.06l1.102-1.103H7.5a.75.75 0 0 1 0-1.5h8.073L14.469 8.22a.75.75 0 0 1 0-1.06Z" />
    </symbol>
    <symbol viewBox="0 0 16 16" id="play" xmlns="http://www.w3.org/2000/svg">
        <path d="m12.8 8-9.6 6.235V1.765L12.8 8Z" />
    </symbol>
    <symbol viewBox="0 0 16 16" id="search" xmlns="http://www.w3.org/2000/svg">
        <path d="M7.2.855c-.652.039-1.38.2-1.994.439A6.835 6.835 0 0 0 .905 6.693a7.798 7.798 0 0 0 0 1.943c.37 2.472 1.982 4.497 4.301 5.403 1.541.602 3.379.603 4.915.002 1.784-.697 3.156-2.054 3.889-3.843.32-.783.475-1.609.475-2.531 0-.923-.155-1.749-.475-2.532a6.858 6.858 0 0 0-5.189-4.2C8.529.885 7.784.822 7.6.831l-.4.024m1.107 1.012a6.077 6.077 0 0 1 2.426.839c.986.62 1.804 1.551 2.247 2.557.349.791.513 1.562.513 2.404 0 2.026-1.025 3.87-2.76 4.96a6.061 6.061 0 0 1-2.426.839 7.985 7.985 0 0 1-1.294 0 6.135 6.135 0 0 1-2.371-.81 6.049 6.049 0 0 1-1.965-1.965 5.966 5.966 0 0 1-.796-2.275 7.24 7.24 0 0 1 0-1.501c.224-1.725 1.204-3.248 2.706-4.206.639-.407 1.616-.749 2.4-.839a9.087 9.087 0 0 1 1.32-.003m4.96 10.972a1.092 1.092 0 0 1-.098.025.527.527 0 0 0-.281.239c-.052.1-.057.35-.01.444.048.093 1.465 1.514 1.562 1.566a.594.594 0 0 0 .232.042.473.473 0 0 0 .421-.234c.08-.13.082-.376.004-.5-.064-.103-1.459-1.496-1.537-1.535a.736.736 0 0 0-.293-.047" fill-rule="evenodd" />
    </symbol>
    <symbol viewBox="0 0 16 16" id="telegram" xmlns="http://www.w3.org/2000/svg">
        <path d="m6.278 10.12-.265 3.723c.38 0 .543-.162.74-.358l1.775-1.696 3.679 2.694c.675.376 1.15.178 1.332-.621l2.415-11.315c.214-.998-.36-1.388-1.018-1.143L.743 6.838c-.969.376-.954.916-.165 1.16l3.629 1.13 8.428-5.275c.397-.262.758-.117.461.146L6.278 10.12Z" />
    </symbol>
    <symbol viewBox="0 0 16 16" id="user" xmlns="http://www.w3.org/2000/svg">
        <path fill-rule="evenodd" clip-rule="evenodd" d="M4.972 5.53a3.03 3.03 0 1 1 6.059 0 3.03 3.03 0 0 1-6.06 0Zm.796 3.354a4.03 4.03 0 1 1 4.467 0c2.482.745 4.33 2.7 4.33 5.116a.5.5 0 1 1-1 0c0-2.356-2.376-4.426-5.53-4.441a4.328 4.328 0 0 1-.068 0c-3.154.014-5.53 2.085-5.53 4.44a.5.5 0 0 1-1 0c0-2.415 1.848-4.37 4.33-5.115Z" />
    </symbol>
    <symbol viewBox="0 0 16 16" id="view-grid" xmlns="http://www.w3.org/2000/svg">
        <path d="M14.667 5.68V2.654c0-.94-.427-1.32-1.487-1.32h-2.693c-1.06 0-1.487.38-1.487 1.32v3.02c0 .946.427 1.32 1.487 1.32h2.693c1.06.006 1.487-.374 1.487-1.314ZM14.667 13.18v-2.693C14.667 9.427 14.24 9 13.18 9h-2.693C9.427 9 9 9.427 9 10.487v2.693c0 1.06.427 1.487 1.487 1.487h2.693c1.06 0 1.487-.427 1.487-1.487ZM6.999 5.68V2.654c0-.94-.427-1.32-1.487-1.32H2.819c-1.06 0-1.487.38-1.487 1.32v3.02c0 .946.427 1.32 1.487 1.32h2.693C6.572 7 6.999 6.62 6.999 5.68ZM6.999 13.18v-2.693C6.999 9.427 6.572 9 5.512 9H2.819c-1.06 0-1.487.427-1.487 1.487v2.693c0 1.06.427 1.487 1.487 1.487h2.693c1.06 0 1.487-.427 1.487-1.487Z" />
    </symbol>
    <symbol viewBox="0 0 16 16" id="view-rows" xmlns="http://www.w3.org/2000/svg">
        <path d="M13.265 9H2.732c-1 0-1.4.427-1.4 1.487v2.693c0 1.06.4 1.487 1.4 1.487h10.533c1 0 1.4-.427 1.4-1.487v-2.693c0-1.06-.4-1.487-1.4-1.487ZM13.265 1.333H2.732c-1 0-1.4.427-1.4 1.487v2.693c0 1.06.4 1.487 1.4 1.487h10.533c1 0 1.4-.426 1.4-1.487V2.82c0-1.06-.4-1.486-1.4-1.486Z" />
    </symbol>
    <symbol viewBox="0 0 16 16" id="vk" xmlns="http://www.w3.org/2000/svg">
        <path fill-rule="evenodd" clip-rule="evenodd" d="M15.63 3.677c.111-.392 0-.677-.53-.677h-1.75c-.444 0-.65.248-.761.52 0 0-.89 2.284-2.151 3.766-.408.43-.593.566-.816.566-.11 0-.271-.136-.271-.528V3.677c0-.467-.13-.677-.5-.677h-2.75a.433.433 0 0 0-.447.424c0 .445.63.546.696 1.796v2.713c0 .594-.103.702-.324.702-.593 0-2.036-2.293-2.893-4.918-.168-.51-.336-.714-.783-.714H.6c-.5 0-.6.247-.6.52C0 4.01.593 6.43 2.763 9.63 4.211 11.815 6.247 13 8.103 13c1.11 0 1.25-.263 1.25-.717V10.63c0-.526.106-.632.458-.632.26 0 .706.137 1.743 1.19 1.186 1.248 1.383 1.809 2.05 1.809h1.75c.5 0 .75-.263.606-.784-.159-.517-.725-1.268-1.477-2.16-.408-.507-1.02-1.052-1.205-1.325-.26-.351-.185-.508 0-.819-.002 0 2.13-3.16 2.353-4.233Z" />
    </symbol>
</svg>