<?xml version="1.0" encoding="utf-8"?><svg xmlns="http://www.w3.org/2000/svg" xmlns:xlink="http://www.w3.org/1999/xlink">
    <symbol viewBox="0 0 10 10" id="arrow" xmlns="http://www.w3.org/2000/svg">
        <path d="M2.938.878 7.059 5 2.937 9.122" />
    </symbol>
    <symbol viewBox="0 0 16 16" id="cart" xmlns="http://www.w3.org/2000/svg">
        <path d="M5.056 6.528H2.847l-1.472 8.097h13.25l-1.472-8.097h-2.209m-5.888 0V4.319a2.944 2.944 0 0 1 5.888 0v2.209m-5.888 0h5.888m-5.888 0v2.208m5.888-2.208v2.208" />
    </symbol>
    <symbol viewBox="0 0 16 17" id="copy" xmlns="http://www.w3.org/2000/svg">
        <path d="M10.665 9.1v2.8c0 2.333-.933 3.267-3.266 3.267h-2.8c-2.334 0-3.267-.934-3.267-3.267V9.1c0-2.333.933-3.266 3.267-3.266h2.8c2.333 0 3.266.933 3.266 3.266Z" />
        <path d="M14.665 5.1v2.8c0 2.333-.933 3.267-3.266 3.267h-.734V9.1c0-2.333-.933-3.266-3.266-3.266H5.332V5.1c0-2.333.933-3.266 3.267-3.266h2.8c2.333 0 3.266.933 3.266 3.266Z" />
    </symbol>
    <symbol viewBox="0 0 16 16" id="cross" xmlns="http://www.w3.org/2000/svg">
        <path fill-rule="evenodd" clip-rule="evenodd" d="M3.385 2.678a.5.5 0 1 0-.707.707L7.293 8l-4.615 4.615a.5.5 0 1 0 .707.707L8 8.707l4.615 4.615a.5.5 0 1 0 .707-.707L8.707 8l4.615-4.615a.5.5 0 1 0-.707-.707L8 7.293 3.385 2.678Z" />
    </symbol>
    <symbol viewBox="0 0 12 12" id="cross-thin" xmlns="http://www.w3.org/2000/svg">
        <path fill-rule="evenodd" clip-rule="evenodd" d="M9.373 1.92a.5.5 0 1 1 .707.707L6.707 6l3.373 3.373a.5.5 0 1 1-.707.707L6 6.707 2.627 10.08a.5.5 0 1 1-.707-.707L5.293 6 1.92 2.627a.5.5 0 0 1 .707-.707L6 5.293 9.373 1.92Z" />
    </symbol>
    <symbol viewBox="0 0 16 16" id="filters" xmlns="http://www.w3.org/2000/svg">
        <path d="M14.667 11.667H10M3.334 11.667h-2M14.666 4.333h-2M6 4.333H1.335M4.667 9.667h4c.734 0 1.334.333 1.334 1.333v1.334c0 1-.6 1.333-1.334 1.333h-4c-.733 0-1.333-.333-1.333-1.333V11c0-1 .6-1.333 1.333-1.333ZM7.333 2.333h4c.734 0 1.334.333 1.334 1.333V5c0 1-.6 1.333-1.334 1.333h-4C6.6 6.333 6 6 6 5V3.666c0-1 .6-1.333 1.333-1.333Z" />
    </symbol>
    <symbol viewBox="0 0 16 16" id="grid" xmlns="http://www.w3.org/2000/svg">
        <path fill-rule="evenodd" clip-rule="evenodd" d="M4 5.5a1.5 1.5 0 1 0 0-3 1.5 1.5 0 0 0 0 3Zm0 8a1.5 1.5 0 1 0 0-3 1.5 1.5 0 0 0 0 3ZM13.5 4a1.5 1.5 0 1 1-3 0 1.5 1.5 0 0 1 3 0ZM12 13.5a1.5 1.5 0 1 0 0-3 1.5 1.5 0 0 0 0 3Z" />
    </symbol>
    <symbol viewBox="0 0 16 16" id="heart" xmlns="http://www.w3.org/2000/svg">
        <path d="M8 13.928C-4.925 6.878 4.423-1.886 8 4.016c3.577-5.903 12.925 2.862 0 9.912Z" />
    </symbol>
    <symbol viewBox="0 0 16 16" id="info" xmlns="http://www.w3.org/2000/svg">
        <path d="M7.556.855A7.142 7.142 0 0 0 3.2 2.685 7.172 7.172 0 0 0 .878 7.213a9.731 9.731 0 0 0 0 1.574 7.169 7.169 0 0 0 5.109 6.088 7.291 7.291 0 0 0 3.801.061 7.074 7.074 0 0 0 3.31-1.913c.322-.328.407-.426.672-.782a7.183 7.183 0 0 0 1.338-3.374 8.939 8.939 0 0 0 0-1.731c-.159-1.28-.609-2.392-1.397-3.456-.298-.401-.986-1.09-1.393-1.393A7.124 7.124 0 0 0 7.556.855M9.04 1.92a6.212 6.212 0 0 1 2.649 1.141c.348.257.993.902 1.25 1.25.595.803.966 1.67 1.145 2.676.07.393.096 1.206.052 1.629a6.276 6.276 0 0 1-1.322 3.237c-.191.239-.636.69-.895.907a6.43 6.43 0 0 1-2.587 1.263c-.99.213-2.093.18-3.032-.092a6.264 6.264 0 0 1-3.114-2.078c-.654-.813-1.085-1.781-1.283-2.88-.07-.384-.07-1.562 0-1.946.12-.663.281-1.16.562-1.734a6.095 6.095 0 0 1 1.628-2.062c.859-.718 2.043-1.222 3.2-1.362.378-.045 1.366-.017 1.747.051M7.884 4.857a.484.484 0 0 0-.315.23l-.062.1v2.964l.071.108c.106.16.236.23.427.23.13 0 .175-.013.267-.078a.654.654 0 0 0 .166-.184c.054-.104.056-.147.063-1.479.008-1.455.001-1.573-.114-1.723a.508.508 0 0 0-.503-.168m0 5.334c-.232.051-.373.232-.373.478 0 .284.202.487.486.486.228 0 .382-.101.468-.308a.43.43 0 0 0 0-.361.484.484 0 0 0-.581-.295" fill-rule="evenodd" />
    </symbol>
    <symbol viewBox="0 0 16 16" id="login" xmlns="http://www.w3.org/2000/svg">
        <path fill-rule="evenodd" clip-rule="evenodd" d="M8 1.557a.5.5 0 1 0 0 1c1.533 0 2.894.519 3.869 1.445.97.921 1.589 2.276 1.589 4.012 0 1.736-.619 3.09-1.59 4.012-.974.926-2.335 1.445-3.868 1.445a.5.5 0 0 0 0 1c1.759 0 3.376-.598 4.558-1.72 1.185-1.126 1.9-2.75 1.9-4.737s-.715-3.612-1.9-4.737c-1.182-1.123-2.8-1.72-4.558-1.72Zm-.592 4.241a.5.5 0 0 1 .708 0l1.906 1.907a.5.5 0 0 1 0 .707l-1.906 1.906a.5.5 0 1 1-.708-.707L8.461 8.56H2.043a.5.5 0 1 1 0-1h6.418L7.408 6.506a.5.5 0 0 1 0-.708Z" />
    </symbol>
    <symbol viewBox="0 0 16 16" id="play" xmlns="http://www.w3.org/2000/svg">
        <path d="m12.8 8-9.6 6.235V1.765L12.8 8Z" />
    </symbol>
    <symbol viewBox="0 0 16 16" id="search" xmlns="http://www.w3.org/2000/svg">
        <path d="M7.665 14a6.333 6.333 0 1 0 0-12.667 6.333 6.333 0 0 0 0 12.667ZM14.665 14.667l-1.333-1.333" />
    </symbol>
    <symbol viewBox="0 0 16 16" id="telegram" xmlns="http://www.w3.org/2000/svg">
        <path d="m6.278 10.12-.265 3.723c.38 0 .543-.162.74-.358l1.775-1.696 3.679 2.694c.675.376 1.15.178 1.332-.621l2.415-11.315c.214-.998-.36-1.388-1.018-1.143L.743 6.838c-.969.376-.954.916-.165 1.16l3.629 1.13 8.428-5.275c.397-.262.758-.117.461.146L6.278 10.12Z" />
    </symbol>
    <symbol viewBox="0 0 16 16" id="user" xmlns="http://www.w3.org/2000/svg">
        <path fill-rule="evenodd" clip-rule="evenodd" d="M4.972 5.53a3.03 3.03 0 1 1 6.059 0 3.03 3.03 0 0 1-6.06 0Zm.796 3.354a4.03 4.03 0 1 1 4.467 0c2.482.745 4.33 2.7 4.33 5.116a.5.5 0 1 1-1 0c0-2.356-2.376-4.426-5.53-4.441a4.328 4.328 0 0 1-.068 0c-3.154.014-5.53 2.085-5.53 4.44a.5.5 0 0 1-1 0c0-2.415 1.848-4.37 4.33-5.115Z" />
    </symbol>
    <symbol viewBox="0 0 16 16" id="view-grid" xmlns="http://www.w3.org/2000/svg">
        <path d="M14.667 5.68V2.654c0-.94-.427-1.32-1.487-1.32h-2.693c-1.06 0-1.487.38-1.487 1.32v3.02c0 .946.427 1.32 1.487 1.32h2.693c1.06.006 1.487-.374 1.487-1.314ZM14.667 13.18v-2.693C14.667 9.427 14.24 9 13.18 9h-2.693C9.427 9 9 9.427 9 10.487v2.693c0 1.06.427 1.487 1.487 1.487h2.693c1.06 0 1.487-.427 1.487-1.487ZM6.999 5.68V2.654c0-.94-.427-1.32-1.487-1.32H2.819c-1.06 0-1.487.38-1.487 1.32v3.02c0 .946.427 1.32 1.487 1.32h2.693C6.572 7 6.999 6.62 6.999 5.68ZM6.999 13.18v-2.693C6.999 9.427 6.572 9 5.512 9H2.819c-1.06 0-1.487.427-1.487 1.487v2.693c0 1.06.427 1.487 1.487 1.487h2.693c1.06 0 1.487-.427 1.487-1.487Z" />
    </symbol>
    <symbol viewBox="0 0 16 16" id="view-rows" xmlns="http://www.w3.org/2000/svg">
        <path d="M13.265 9H2.732c-1 0-1.4.427-1.4 1.487v2.693c0 1.06.4 1.487 1.4 1.487h10.533c1 0 1.4-.427 1.4-1.487v-2.693c0-1.06-.4-1.487-1.4-1.487ZM13.265 1.333H2.732c-1 0-1.4.427-1.4 1.487v2.693c0 1.06.4 1.487 1.4 1.487h10.533c1 0 1.4-.426 1.4-1.487V2.82c0-1.06-.4-1.486-1.4-1.486Z" />
    </symbol>
    <symbol viewBox="0 0 16 16" id="vk" xmlns="http://www.w3.org/2000/svg">
        <path fill-rule="evenodd" clip-rule="evenodd" d="M15.63 3.677c.111-.392 0-.677-.53-.677h-1.75c-.444 0-.65.248-.761.52 0 0-.89 2.284-2.151 3.766-.408.43-.593.566-.816.566-.11 0-.271-.136-.271-.528V3.677c0-.467-.13-.677-.5-.677h-2.75a.433.433 0 0 0-.447.424c0 .445.63.546.696 1.796v2.713c0 .594-.103.702-.324.702-.593 0-2.036-2.293-2.893-4.918-.168-.51-.336-.714-.783-.714H.6c-.5 0-.6.247-.6.52C0 4.01.593 6.43 2.763 9.63 4.211 11.815 6.247 13 8.103 13c1.11 0 1.25-.263 1.25-.717V10.63c0-.526.106-.632.458-.632.26 0 .706.137 1.743 1.19 1.186 1.248 1.383 1.809 2.05 1.809h1.75c.5 0 .75-.263.606-.784-.159-.517-.725-1.268-1.477-2.16-.408-.507-1.02-1.052-1.205-1.325-.26-.351-.185-.508 0-.819-.002 0 2.13-3.16 2.353-4.233Z" />
    </symbol>
</svg>