<svg width="100" height="44" viewBox="0 0 100 44" fill="none" xmlns="http://www.w3.org/2000/svg">
<g clip-path="url(#clip0_479_22170)">
<path d="M54.8304 19.2767H50.0606C49.9539 20.459 49.6672 21.474 49.2005 22.3217C48.7654 23.1388 48.1247 23.8166 47.3474 24.2821C46.5793 24.7378 45.693 24.9657 44.6885 24.9657C43.2571 24.9657 42.0334 24.5961 41.0175 23.8569C40.0017 23.1176 39.2245 22.0298 38.686 20.5934C38.1489 19.1577 37.8803 17.423 37.8803 15.3895C37.8803 13.3559 38.1445 11.6195 38.6729 10.1803C39.21 8.73899 39.9738 7.64521 40.9641 6.899C41.9545 6.15278 43.1379 5.78002 44.5143 5.78072C45.5671 5.78072 46.498 5.99353 47.3071 6.41914C48.1208 6.84731 48.7983 7.51173 49.2579 8.33228C49.7487 9.18279 50.0532 10.2304 50.1714 11.475H54.8526C54.7666 9.39105 54.2748 7.61021 53.3771 6.13248C52.4961 4.67185 51.2314 3.50563 49.7333 2.77241C48.2011 2.00589 46.4614 1.62228 44.5143 1.62158C42.1979 1.62158 40.1766 2.17914 38.4503 3.29427C36.7241 4.40939 35.396 6.01173 34.4661 8.10127C33.5375 10.1894 33.0735 12.6633 33.0742 15.5228C33.0742 18.3705 33.5382 20.8205 34.4661 22.873C35.394 24.9254 36.712 26.4893 38.4201 27.5645C40.1282 28.6432 42.1287 29.1822 44.4216 29.1815C46.3956 29.1815 48.1363 28.8088 49.6437 28.0633C51.1314 27.3369 52.3872 26.1796 53.2613 24.7294C54.1657 23.251 54.6887 21.4334 54.8304 19.2767Z" fill="#00303D"/>
<path d="M62.3504 28.1399C63.8511 28.8357 65.5948 29.184 67.5815 29.1847C69.4615 29.1847 71.0958 28.8427 72.4843 28.1588C73.8728 27.4749 74.9424 26.5012 75.693 25.2376C76.4437 23.9776 76.819 22.4957 76.819 20.7918C76.819 18.6974 76.2369 17.0737 75.0726 15.9208C73.9084 14.7679 72.3097 13.9513 70.2766 13.4711L66.517 12.5649C65.2164 12.2569 64.2798 11.832 63.7071 11.2902C63.4273 11.0315 63.2052 10.7121 63.0564 10.3543C62.9077 9.99662 62.8358 9.60929 62.8459 9.21955C62.8358 8.53791 63.0344 7.87065 63.413 7.31481C63.8088 6.7454 64.35 6.30335 64.975 6.03903C65.6827 5.73341 66.443 5.58225 67.2089 5.59487C68.1663 5.59487 68.9761 5.76742 69.6381 6.11253C70.259 6.42238 70.7829 6.90956 71.1488 7.51746C71.5027 8.12625 71.6958 8.82177 71.7088 9.5335H76.4604C76.4107 8.09016 75.9936 6.68659 75.2519 5.46676C74.5187 4.27114 73.478 3.33137 72.1297 2.64745C70.7815 1.96354 69.1886 1.62158 67.3509 1.62158C65.5179 1.62158 63.9014 1.97159 62.5015 2.6716C61.1016 3.37162 60.0139 4.32644 59.2384 5.53607C58.4647 6.74808 58.06 8.17537 58.0772 9.63116C58.0772 11.0487 58.3283 12.2503 58.8305 13.2359C59.3327 14.2215 60.0981 15.0321 61.1268 15.6677C62.1554 16.3019 63.4734 16.8102 65.0808 17.1924L68.4678 17.9872C69.3406 18.1972 70.0379 18.4531 70.5596 18.7548C71.0813 19.0565 71.4597 19.423 71.6947 19.8542C71.9417 20.3304 72.064 20.866 72.0492 21.4072C72.0492 22.1954 71.8602 22.8733 71.4822 23.4411C71.0924 24.0176 70.5504 24.4637 69.9221 24.7252C69.2008 25.0266 68.4289 25.1744 67.652 25.1599C66.5992 25.1599 65.677 24.9566 64.8854 24.5499C64.1306 24.1777 63.4915 23.5915 63.0413 22.8583C62.5976 22.11 62.3541 21.2514 62.3363 20.3718H57.5625C57.5867 22.2087 58.0154 23.7893 58.8486 25.1137C59.6819 26.4382 60.8491 27.4469 62.3504 28.1399Z" fill="#00303D"/>
<path d="M84.2735 21.2206L87.9394 16.6761L94.5936 28.6464H100.001L90.984 12.896L99.6646 2.1333H94.0437L84.2805 14.6706L84.2735 2.1333H79.6406V28.6485H84.2735V21.2206Z" fill="#00303D"/>
<path d="M4.23883 36.8789H3.45628V40.932H1.36848V36.8789H0.585938V41.6397H4.09481V42.5238H4.82599V40.932H4.23883V36.8789Z" fill="#00303D"/>
<path d="M6.84873 37.96C6.56926 37.958 6.29326 38.0245 6.04302 38.1543C5.79304 38.2851 5.58538 38.4896 5.44579 38.7423C5.28592 39.0461 5.20796 39.3893 5.22019 39.7356V39.871C5.20671 40.2318 5.28821 40.5895 5.45586 40.9053C5.60132 41.1666 5.81652 41.3782 6.07525 41.5143C6.33693 41.6491 6.62536 41.7178 6.91722 41.7149C7.2658 41.7257 7.60964 41.6285 7.90522 41.4356C8.03958 41.3434 8.15433 41.2234 8.24234 41.0831C8.33036 40.9427 8.38975 40.785 8.41684 40.6197H7.69775C7.65393 40.7494 7.56995 40.8602 7.45906 40.9347C7.29295 41.0295 7.10406 41.0722 6.9152 41.0576C6.75582 41.0592 6.59792 41.0255 6.45192 40.9589C6.30551 40.8911 6.1825 40.7783 6.09942 40.6355C5.99936 40.456 5.94753 40.2518 5.94936 40.0443H8.48029V39.6631C8.48029 39.115 8.33997 38.695 8.05931 38.4031C7.77865 38.1112 7.37513 37.9635 6.84873 37.96ZM5.94835 39.4909C5.94739 39.31 5.99709 39.1326 6.09136 38.9806C6.17642 38.8557 6.29428 38.7591 6.43077 38.7024C6.57384 38.6424 6.72676 38.6121 6.88096 38.6131C7.03207 38.6105 7.18234 38.6372 7.3241 38.6919C7.45372 38.7431 7.56372 38.8371 7.63732 38.9596C7.72453 39.1215 7.76738 39.3053 7.7612 39.4909H5.94835Z" fill="#00303D"/>
<path d="M11.5127 39.4822H9.88115V38.0342H9.16406V41.6389H9.88115V40.1216H11.5127V41.6389H12.2298V38.0342H11.5127V39.4822Z" fill="#00303D"/>
<path d="M12.7852 38.6736H13.9273V41.6389H14.6443V38.6736H15.7864V38.0342H12.7852V38.6736Z" fill="#00303D"/>
<path d="M18.173 37.9602C17.9265 37.9556 17.6833 38.019 17.468 38.1439C17.2695 38.2586 17.1074 38.4312 17.0017 38.6406V38.0358H16.3359V43.0003H17.054V41.0683C17.1427 41.2749 17.2971 41.4433 17.4911 41.545C17.7 41.6596 17.9329 41.718 18.1689 41.7151C18.4389 41.7222 18.7056 41.6513 18.9394 41.5103C19.1637 41.3638 19.3395 41.149 19.443 40.895C19.5787 40.5726 19.6458 40.2233 19.6394 39.8712V39.7358C19.6394 39.1415 19.5091 38.6973 19.2486 38.4033C18.9881 38.1093 18.6295 37.9616 18.173 37.9602ZM18.9041 39.8712C18.9041 40.2758 18.8216 40.5751 18.6564 40.769C18.5753 40.8653 18.4746 40.9415 18.3618 40.9922C18.2489 41.0429 18.1266 41.0667 18.0038 41.062C17.843 41.0628 17.6843 41.0243 17.5405 40.9496C17.3954 40.8734 17.2745 40.7553 17.192 40.6094C17.0975 40.4371 17.0511 40.2407 17.0581 40.0424V39.5657C17.0514 39.3806 17.098 39.1978 17.192 39.0407C17.2792 38.9036 17.4013 38.7946 17.5445 38.7257C17.688 38.6549 17.845 38.619 18.0038 38.6207C18.1262 38.6143 18.2484 38.6357 18.3621 38.6834C18.4759 38.7311 18.5783 38.8039 18.6624 38.8968C18.8236 39.0806 18.9041 39.362 18.9041 39.7431V39.8712Z" fill="#00303D"/>
<path d="M22.8144 38.1836C22.9082 37.9721 23.0618 37.7955 23.2545 37.6775C23.4446 37.5688 23.6594 37.5161 23.876 37.525C24.0926 37.5339 24.3029 37.604 24.4842 37.7279C24.6816 37.8857 24.8117 38.1179 24.8468 38.3747H25.6686C25.6531 38.1348 25.5908 37.9007 25.4853 37.6869C25.3867 37.4952 25.2493 37.3282 25.0824 37.1976C24.9103 37.0627 24.7156 36.9623 24.5084 36.9015C24.279 36.8343 24.0416 36.8011 23.8034 36.8028C23.5399 36.8013 23.2782 36.8475 23.0299 36.9393C22.7913 37.0276 22.575 37.1712 22.3974 37.3593C22.2057 37.5692 22.06 37.82 21.9704 38.0943C21.8586 38.4369 21.8054 38.7973 21.8133 39.159V39.2945C21.8133 39.8657 21.9012 40.3291 22.0771 40.6847C22.231 41.0171 22.4811 41.2908 22.7922 41.467C23.1031 41.6353 23.4491 41.7208 23.7993 41.7159C24.0323 41.7178 24.2646 41.6881 24.4902 41.6277C24.6952 41.5728 24.8888 41.4792 25.0613 41.3515C25.23 41.2243 25.3679 41.0578 25.4641 40.8653C25.5729 40.6407 25.6382 40.3959 25.6565 40.145H24.8347C24.8104 40.3857 24.6996 40.6078 24.5245 40.7666C24.3523 40.9189 24.1105 40.9945 23.7973 40.9945C23.6591 40.9928 23.5224 40.964 23.3945 40.9094C23.2503 40.848 23.121 40.754 23.0158 40.6343C22.8882 40.4842 22.7937 40.3068 22.7388 40.1146C22.6644 39.8484 22.6304 39.5717 22.6381 39.2945V39.159C22.624 38.8241 22.6843 38.4902 22.8144 38.1836Z" fill="#00303D"/>
<path d="M26.0586 38.6736H27.1997V41.6389H27.9178V38.6736H29.0599V38.0342H26.0586V38.6736Z" fill="#00303D"/>
<path d="M31.4464 37.9602C31.2 37.9556 30.9568 38.019 30.7414 38.1439C30.5427 38.2583 30.3805 38.431 30.2751 38.6406V38.0358H29.6094V43.0003H30.3275V41.0683C30.4162 41.2749 30.5705 41.4433 30.7646 41.545C30.9734 41.6596 31.2064 41.718 31.4424 41.7151C31.7121 41.7221 31.9784 41.6513 32.2118 41.5103C32.4409 41.3675 32.622 41.1545 32.7305 40.9003C32.8614 40.5767 32.9236 40.2275 32.9128 39.8765V39.741C32.9128 39.1467 32.7822 38.7026 32.521 38.4085C32.2598 38.1145 31.9016 37.9651 31.4464 37.9602ZM32.1776 39.8712C32.1776 40.2758 32.0947 40.5751 31.9288 40.769C31.8479 40.8652 31.7474 40.9414 31.6347 40.9921C31.522 41.0427 31.3999 41.0666 31.2772 41.062C31.1165 41.0629 30.9577 41.0244 30.8139 40.9496C30.6686 40.8735 30.5473 40.7554 30.4644 40.6094C30.3707 40.4368 30.3247 40.2406 30.3315 40.0424V39.5657C30.3249 39.3808 30.3712 39.1981 30.4644 39.0407C30.5519 38.9039 30.6739 38.7949 30.8169 38.7257C30.9608 38.655 31.1182 38.6191 31.2772 38.6207C31.3996 38.6143 31.5219 38.6357 31.6356 38.6834C31.7493 38.7311 31.8517 38.8039 31.9359 38.8968C32.097 39.0806 32.1776 39.362 32.1776 39.7431V39.8712Z" fill="#00303D"/>
<path d="M35.9558 38.1695C35.6866 38.0348 35.3918 37.9648 35.0932 37.9648C34.7946 37.9648 34.4998 38.0348 34.2306 38.1695C33.9752 38.3037 33.763 38.5128 33.6203 38.7712C33.4629 39.0672 33.3852 39.4021 33.3957 39.7404V39.8758C33.384 40.2296 33.4614 40.5804 33.6203 40.8933C33.7606 41.1578 33.973 41.373 34.2306 41.5118C34.4992 41.6485 34.7943 41.7196 35.0932 41.7196C35.3922 41.7196 35.6872 41.6485 35.9558 41.5118C36.2111 41.3719 36.4213 41.1568 36.5601 40.8933C36.7193 40.5805 36.7971 40.2297 36.7857 39.8758V39.7404C36.7958 39.402 36.7179 39.0671 36.5601 38.7712C36.4189 38.5138 36.209 38.3048 35.9558 38.1695ZM36.0565 39.8758C36.0662 40.112 36.0192 40.347 35.9196 40.5594C35.8403 40.7225 35.7152 40.8566 35.561 40.9437C35.4165 41.0243 35.2551 41.0665 35.0912 41.0665C34.9273 41.0665 34.7659 41.0243 34.6214 40.9437C34.4676 40.856 34.3427 40.7221 34.2628 40.5594C34.1633 40.347 34.1162 40.112 34.1259 39.8758V39.7404C34.1172 39.5194 34.1644 39.3 34.2628 39.1041C34.3458 38.948 34.4703 38.8204 34.6214 38.7366C34.7667 38.6585 34.9278 38.6178 35.0912 38.6178C35.2546 38.6178 35.4157 38.6585 35.561 38.7366C35.7125 38.8198 35.8372 38.9476 35.9196 39.1041C36.018 39.3 36.0652 39.5194 36.0565 39.7404V39.8758Z" fill="#00303D"/>
<path d="M38.1936 40.5847V38.0342H37.4766V41.6389H38.1614L39.8252 39.0884V41.6389H40.5423V38.0342H39.8574L38.1936 40.5847Z" fill="#00303D"/>
<path d="M41.0977 38.6736H42.2387V41.6389H42.9558V38.6736H44.0979V38.0342H41.0977V38.6736Z" fill="#00303D"/>
<path d="M46.0284 37.96C45.749 37.958 45.4729 38.0245 45.2227 38.1543C44.9727 38.2851 44.7651 38.4896 44.6255 38.7423C44.4656 39.0461 44.3876 39.3893 44.3999 39.7356V39.871C44.3864 40.2318 44.4679 40.5895 44.6355 40.9053C44.781 41.1666 44.9962 41.3782 45.2549 41.5143C45.5166 41.6491 45.805 41.7178 46.0969 41.7149C46.4455 41.7257 46.7893 41.6285 47.0849 41.4356C47.2193 41.3434 47.334 41.2234 47.422 41.0831C47.51 40.9427 47.5694 40.785 47.5965 40.6197H46.8795C46.8356 40.7494 46.7517 40.8602 46.6408 40.9347C46.4746 41.0295 46.2858 41.0722 46.0969 41.0576C45.9375 41.0592 45.7796 41.0255 45.6336 40.9589C45.4872 40.8911 45.3642 40.7783 45.2811 40.6355C45.1811 40.456 45.1292 40.2518 45.1311 40.0443H47.662V39.6631C47.662 39.115 47.5217 38.695 47.241 38.4031C46.9604 38.1112 46.5562 37.9635 46.0284 37.96ZM45.122 39.4909C45.121 39.31 45.1707 39.1326 45.265 38.9806C45.3501 38.8557 45.4679 38.7591 45.6044 38.7024C45.7475 38.6424 45.9004 38.6121 46.0546 38.6131C46.2057 38.6105 46.356 38.6372 46.4977 38.6919C46.6274 38.7431 46.7374 38.8371 46.811 38.9596C46.8982 39.1215 46.941 39.3053 46.9348 39.4909H45.122Z" fill="#00303D"/>
<path d="M48.599 39.122C48.6049 39.5026 48.5864 39.8832 48.5436 40.2613C48.5284 40.4614 48.4706 40.6555 48.3744 40.8293C48.3417 40.88 48.2974 40.9214 48.2455 40.9498C48.1937 40.9782 48.1359 40.9928 48.0773 40.9921C48.0436 40.9939 48.0098 40.9918 47.9766 40.9858V41.6925C48.0139 41.702 48.052 41.708 48.0904 41.7103H48.2042C48.3678 41.714 48.5296 41.6742 48.6745 41.5948C48.822 41.5031 48.9401 41.3679 49.0139 41.2063C49.1191 40.9689 49.1871 40.7154 49.2153 40.4555C49.2656 40.0573 49.2884 39.6559 49.2838 39.2543V38.6705H50.4833V41.6358H51.2014V38.0342H48.599V39.122Z" fill="#00303D"/>
<path d="M53.6529 39.301H52.8743V38.041H52.1562V41.6457H53.6569C53.9114 41.6552 54.1649 41.6076 54.4002 41.5061C54.5805 41.4234 54.7296 41.2809 54.8242 41.1008C54.9201 40.9062 54.9672 40.6895 54.9611 40.4708C54.9611 40.0865 54.8544 39.7946 54.6419 39.5971C54.4294 39.3997 54.096 39.301 53.6529 39.301ZM54.093 40.8677C53.9923 40.9569 53.8261 41.001 53.5894 41.001H52.8743V39.9395H53.5914C53.8301 39.9395 53.9943 39.9846 54.095 40.0728C54.1895 40.1817 54.2419 40.3234 54.2419 40.4702C54.2419 40.6171 54.1895 40.7588 54.095 40.8677H54.093Z" fill="#00303D"/>
<path d="M57.9268 39.4822H56.2962V38.0342H55.5781V41.6389H56.2962V40.1216H57.9268V41.6389H58.6449V38.0342H57.9268V39.4822Z" fill="#00303D"/>
<path d="M61.8894 38.1695C61.6202 38.0348 61.3254 37.9648 61.0268 37.9648C60.7282 37.9648 60.4334 38.0348 60.1642 38.1695C59.9088 38.3037 59.6966 38.5128 59.5539 38.7712C59.3964 39.0672 59.3188 39.4021 59.3293 39.7404V39.8758C59.3176 40.2296 59.395 40.5804 59.5539 40.8933C59.6942 41.1578 59.9066 41.373 60.1642 41.5118C60.4328 41.6485 60.7279 41.7196 61.0268 41.7196C61.3258 41.7196 61.6208 41.6485 61.8894 41.5118C62.1445 41.3716 62.3546 41.1566 62.4937 40.8933C62.6529 40.5805 62.7307 40.2297 62.7193 39.8758V39.7404C62.7294 39.402 62.6515 39.0671 62.4937 38.7712C62.3522 38.514 62.1424 38.3051 61.8894 38.1695ZM61.9901 39.8758C61.9998 40.112 61.9527 40.347 61.8532 40.5594C61.7739 40.7225 61.6488 40.8566 61.4946 40.9437C61.3501 41.0243 61.1887 41.0665 61.0248 41.0665C60.8609 41.0665 60.6995 41.0243 60.555 40.9437C60.401 40.8562 60.276 40.7223 60.1964 40.5594C60.0968 40.347 60.0498 40.112 60.0595 39.8758V39.7404C60.0508 39.5194 60.098 39.3 60.1964 39.1041C60.2791 38.9478 60.4037 38.8201 60.555 38.7366C60.7003 38.6585 60.8614 38.6178 61.0248 38.6178C61.1882 38.6178 61.3493 38.6585 61.4946 38.7366C61.6461 38.8198 61.7708 38.9476 61.8532 39.1041C61.9516 39.3 61.9988 39.5194 61.9901 39.7404V39.8758Z" fill="#00303D"/>
<path d="M63.4062 41.6389H64.1233V38.6736H65.8194V38.0342H63.4062V41.6389Z" fill="#00303D"/>
<path d="M68.6746 38.1695C68.4054 38.0348 68.1106 37.9648 67.812 37.9648C67.5134 37.9648 67.2186 38.0348 66.9494 38.1695C66.6939 38.3037 66.4818 38.5128 66.339 38.7712C66.1816 39.0672 66.104 39.4021 66.1144 39.7404V39.8758C66.1027 40.2296 66.1802 40.5804 66.339 40.8933C66.4793 41.1578 66.6917 41.373 66.9494 41.5118C67.218 41.6485 67.513 41.7196 67.812 41.7196C68.1109 41.7196 68.4059 41.6485 68.6746 41.5118C68.9297 41.3716 69.1398 41.1566 69.2789 40.8933C69.4381 40.5805 69.5159 40.2297 69.5045 39.8758V39.7404C69.5146 39.402 69.4366 39.0671 69.2789 38.7712C69.1374 38.514 68.9275 38.3051 68.6746 38.1695ZM68.7753 39.8758C68.785 40.112 68.7379 40.347 68.6383 40.5594C68.559 40.7225 68.434 40.8566 68.2798 40.9437C68.1352 41.0243 67.9739 41.0665 67.81 41.0665C67.646 41.0665 67.4847 41.0243 67.3401 40.9437C67.1862 40.8562 67.0612 40.7223 66.9816 40.5594C66.882 40.347 66.8349 40.112 66.8446 39.8758V39.7404C66.8359 39.5194 66.8832 39.3 66.9816 39.1041C67.0643 38.9478 67.1889 38.8201 67.3401 38.7366C67.4854 38.6585 67.6465 38.6178 67.81 38.6178C67.9734 38.6178 68.1345 38.6585 68.2798 38.7366C68.4312 38.8198 68.5559 38.9476 68.6383 39.1041C68.7367 39.3 68.784 39.5194 68.7753 39.7404V39.8758Z" fill="#00303D"/>
<path d="M75.7018 36.8789H74.8145L73.1578 38.8708H72.7005V36.8789H71.918V41.6397H72.7005V39.5103H73.1578L74.8145 41.6397H75.7662L73.7771 39.1438L75.7018 36.8789Z" fill="#00303D"/>
<path d="M78.1847 37.9602C77.9383 37.9556 77.695 38.019 77.4797 38.1439C77.2812 38.2586 77.1191 38.4312 77.0134 38.6406V38.0358H76.3477V43.0003H77.0657V41.0683C77.1544 41.2749 77.3088 41.4433 77.5028 41.545C77.7117 41.6596 77.9447 41.718 78.1806 41.7151C78.4507 41.7222 78.7173 41.6513 78.9511 41.5103C79.1754 41.3638 79.3512 41.149 79.4547 40.895C79.5856 40.5715 79.6478 40.2222 79.637 39.8712V39.7358C79.637 39.1415 79.5067 38.6973 79.2462 38.4033C78.9857 38.1093 78.6318 37.9616 78.1847 37.9602ZM78.9159 39.8712C78.9159 40.2758 78.8333 40.5751 78.6681 40.769C78.587 40.8653 78.4863 40.9415 78.3735 40.9922C78.2606 41.0429 78.1383 41.0667 78.0155 41.062C77.8547 41.0628 77.6961 41.0243 77.5522 40.9496C77.4071 40.8734 77.2862 40.7553 77.2037 40.6094C77.1092 40.4371 77.0628 40.2407 77.0698 40.0424V39.5657C77.0631 39.3806 77.1097 39.1978 77.2037 39.0407C77.2909 38.9036 77.413 38.7946 77.5562 38.7257C77.6997 38.6549 77.8567 38.619 78.0155 38.6207C78.1379 38.6143 78.2602 38.6357 78.3739 38.6834C78.4876 38.7311 78.59 38.8039 78.6741 38.8968C78.8353 39.0806 78.9159 39.362 78.9159 39.7431V39.8712Z" fill="#00303D"/>
<path d="M81.7696 37.96C81.4901 37.9581 81.2141 38.0246 80.9639 38.1543C80.7144 38.2854 80.5071 38.4898 80.3676 38.7423C80.2078 39.0461 80.1298 39.3893 80.142 39.7356V39.871C80.1287 40.2316 80.2098 40.5892 80.3767 40.9053C80.5228 41.1665 80.7383 41.378 80.9971 41.5143C81.2584 41.6491 81.5465 41.7178 81.8381 41.7149C82.1866 41.7257 82.5305 41.6285 82.8261 41.4356C82.9607 41.3436 83.0757 41.2237 83.1639 41.0833C83.2521 40.9429 83.3116 40.7851 83.3387 40.6197H82.6176C82.5738 40.7492 82.4903 40.8599 82.3799 40.9347C82.2134 41.0293 82.0242 41.072 81.835 41.0576C81.6757 41.0589 81.5178 41.0253 81.3718 40.9589C81.2256 40.891 81.103 40.7782 81.0203 40.6355C80.9202 40.456 80.8684 40.2518 80.8702 40.0443H83.4011V39.6631C83.4011 39.115 83.2608 38.695 82.9802 38.4031C82.6995 38.1112 82.296 37.9635 81.7696 37.96ZM80.8752 39.4909C80.8743 39.3099 80.924 39.1326 81.0182 38.9806C81.1031 38.8555 81.221 38.7588 81.3577 38.7024C81.5007 38.6424 81.6536 38.6121 81.8078 38.6131C81.959 38.6105 82.1092 38.6372 82.251 38.6919C82.3805 38.7434 82.4904 38.8373 82.5642 38.9596C82.6514 39.1215 82.6943 39.3053 82.6881 39.4909H80.8752Z" fill="#00303D"/>
<path d="M84.0859 41.6389H84.803V38.6736H86.3681V41.6389H87.0862V38.0342H84.0859V41.6389Z" fill="#00303D"/>
<path d="M89.3985 37.96C89.119 37.9581 88.843 38.0246 88.5928 38.1543C88.3433 38.2854 88.136 38.4898 87.9965 38.7423C87.8367 39.0461 87.7587 39.3893 87.7709 39.7356V39.871C87.7576 40.2316 87.8387 40.5892 88.0056 40.9053C88.1517 41.1665 88.3672 41.378 88.626 41.5143C88.8873 41.6491 89.1754 41.7178 89.467 41.7149C89.8156 41.7257 90.1594 41.6285 90.455 41.4356C90.5896 41.3436 90.7046 41.2237 90.7928 41.0833C90.881 40.9429 90.9405 40.7851 90.9676 40.6197H90.2495C90.2057 40.7492 90.1222 40.8599 90.0118 40.9347C89.8453 41.0293 89.6561 41.072 89.467 41.0576C89.3076 41.0589 89.1497 41.0253 89.0037 40.9589C88.8576 40.891 88.7349 40.7782 88.6522 40.6355C88.5521 40.456 88.5003 40.2518 88.5021 40.0443H91.0331V39.6631C91.0331 39.115 90.8927 38.695 90.6121 38.4031C90.3314 38.1112 89.9269 37.9635 89.3985 37.96ZM88.4991 39.4909C88.4981 39.3099 88.5479 39.1326 88.6421 38.9806C88.727 38.8555 88.8449 38.7588 88.9815 38.7024C89.1246 38.6424 89.2775 38.6121 89.4317 38.6131C89.5828 38.6105 89.7331 38.6372 89.8749 38.6919C90.0043 38.7434 90.1143 38.8373 90.1881 38.9596C90.2753 39.1215 90.3181 39.3053 90.312 39.4909H88.4991Z" fill="#00303D"/>
<path d="M96.216 38.0342H95.4717L94.4545 39.4822H94.1282V38.0342H93.4111V39.4822H93.0848L92.1451 38.0342H91.3233L92.4976 39.7814L91.2578 41.6389H92.1058L93.0848 40.1216H93.4111V41.6389H94.1282V40.1216H94.4545L95.4717 41.6389H96.2814L94.9762 39.7478L96.216 38.0342Z" fill="#00303D"/>
<path d="M99.6066 40.7215V39.2872C99.6188 39.0202 99.5587 38.7549 99.4334 38.5217C99.3183 38.3288 99.1467 38.1796 98.9439 38.0965C98.7081 38.001 98.4566 37.9546 98.2036 37.96C97.953 37.9541 97.7037 38.0006 97.4704 38.0965C97.2812 38.1737 97.1156 38.3029 96.991 38.4703C96.8772 38.6305 96.8113 38.8223 96.8017 39.0215H97.4996C97.5069 38.9607 97.527 38.9023 97.5585 38.8505C97.59 38.7988 97.6322 38.755 97.6819 38.7223C97.8324 38.6401 98.002 38.6038 98.1714 38.6173C98.4192 38.6173 98.6008 38.6684 98.7163 38.7706C98.8318 38.8728 98.8902 39.0576 98.8915 39.325V39.5224H97.8159C97.4197 39.5224 97.1196 39.6095 96.9155 39.7838C96.7114 39.9582 96.6107 40.2249 96.6134 40.584C96.611 40.7855 96.6581 40.9843 96.7503 41.1615C96.8433 41.3351 96.9835 41.4761 97.1532 41.5668C97.3504 41.6688 97.5686 41.7189 97.7887 41.7127C98.0486 41.7214 98.3062 41.6591 98.536 41.5321C98.716 41.4353 98.8646 41.2851 98.963 41.1006C98.963 41.2056 98.963 41.3001 98.9731 41.3725C98.9832 41.445 98.9892 41.5332 99.0023 41.6382H99.6549C99.6371 41.4989 99.626 41.3587 99.6217 41.2182C99.6116 41.0785 99.6066 40.9116 99.6066 40.7215ZM98.8885 40.2795C98.8928 40.433 98.8482 40.5836 98.7616 40.7079C98.6765 40.8268 98.5614 40.9187 98.4292 40.9735C98.2852 41.0337 98.1312 41.0637 97.976 41.0617C97.7531 41.0617 97.591 41.0162 97.4896 40.9252C97.4395 40.8812 97.3997 40.826 97.3732 40.7636C97.3466 40.7012 97.3341 40.6333 97.3365 40.5651C97.3327 40.4953 97.3459 40.4256 97.375 40.3626C97.404 40.2996 97.448 40.2453 97.5027 40.2049C97.6335 40.1171 97.7874 40.0742 97.9428 40.0821H98.8885V40.2795Z" fill="#00303D"/>
<path d="M11.3484 22.7142C11.4816 22.9561 11.6593 23.1682 11.8711 23.3384C12.083 23.5086 12.3249 23.6337 12.5831 23.7065C12.8414 23.7792 13.1108 23.7982 13.3761 23.7623C13.6413 23.7265 13.8972 23.6365 14.1291 23.4975L23.7231 17.6951C24.1933 17.4107 24.5835 17.0025 24.8548 16.5114C25.1261 16.0203 25.269 15.4635 25.2691 14.8968C25.2691 13.9357 25.2691 12.9756 25.2691 12.0166L12.0756 19.9023C11.6328 20.1855 11.3108 20.6346 11.1756 21.1575C11.0404 21.6804 11.1022 22.2374 11.3484 22.7142Z" fill="#00303D"/>
<path d="M11.2199 29.1848C11.3956 29.683 11.7487 30.0914 12.2059 30.3251C12.8363 30.658 13.5957 30.5824 14.207 30.2128L23.0145 24.9018C23.6998 24.4889 24.2687 23.8952 24.6642 23.1805C25.0597 22.4657 25.2677 21.655 25.2674 20.8298V18.7192L11.9732 26.7509C11.2269 27.3357 10.9278 28.3364 11.2199 29.1848Z" fill="#00303D"/>
<path d="M7.39725 11.4341C7.12965 11.4368 6.8652 11.4946 6.61905 11.604C6.3729 11.7135 6.14988 11.8725 5.96277 12.072C5.77565 12.2715 5.62813 12.5075 5.52864 12.7665C5.42915 13.0255 5.37964 13.3024 5.38297 13.5814L5.55217 25.1421C5.56047 25.709 5.71158 26.2636 5.99034 26.7503C6.26911 27.237 6.66573 27.6388 7.14043 27.9152L9.55152 29.3202C9.4978 24.0365 9.44509 18.7513 9.39339 13.4648C9.37189 12.9247 9.15322 12.4137 8.78214 12.0361C8.41107 11.6586 7.91564 11.4433 7.39725 11.4341Z" fill="#00303D"/>
<path d="M2.45262 25.2294L4.21914 26.2606L3.98951 10.2446C3.86463 9.27854 3.17272 8.51832 2.31665 8.36817C1.8151 8.28627 1.30252 8.40803 0.884504 8.70838C0.302378 9.11999 -0.00983513 9.84765 0.000236248 10.5848C0.0485789 14.1205 0.0965858 17.6556 0.144257 21.19C0.155217 22.0153 0.374297 22.823 0.779489 23.5321C1.18468 24.2411 1.76171 24.8265 2.45262 25.2294Z" fill="#00303D"/>
<path d="M18.4509 13.2832C18.5869 13.0428 18.676 12.7767 18.7132 12.5003C18.7504 12.2239 18.735 11.9425 18.6677 11.6723C18.6004 11.4021 18.4827 11.1484 18.3212 10.9258C18.1598 10.7031 17.9578 10.5158 17.7268 10.3747L8.50241 4.80221C7.91793 4.449 7.25469 4.26211 6.57912 4.26027C5.90355 4.25842 5.23938 4.44169 4.65313 4.79171L2.63281 5.99924L15.7508 14.0183C16.2059 14.278 16.7389 14.3465 17.2409 14.2099C17.7428 14.0733 18.1757 13.7418 18.4509 13.2832Z" fill="#00303D"/>
<path d="M23.902 10.1801C24.2281 9.77284 24.3924 9.25104 24.3613 8.72159C24.324 7.98657 23.8839 7.33661 23.2736 6.96595L14.4762 1.63604C13.7927 1.22212 13.0168 1.00279 12.2263 1.00003C11.4358 0.997262 10.6585 1.21116 9.9723 1.62029L8.21484 2.67031L21.5091 10.7082C22.3601 11.0925 23.34 10.8689 23.902 10.1801Z" fill="#00303D"/>
</g>
<defs>
<clipPath id="clip0_479_22170">
<rect width="100" height="44" fill="white"/>
</clipPath>
</defs>
</svg>
