<svg width="70" height="86" viewBox="0 0 70 86" fill="none" xmlns="http://www.w3.org/2000/svg">
<path d="M46.0923 1.56711C56.5522 4.5971 65.0613 12.564 68.2981 22.3546C71.7848 32.8936 69.86 43.8336 63.0206 52.3691L35.0036 86L6.98661 52.3716C2.4165 46.6714 0 39.8786 0 32.7287C0 22.3643 5.3274 12.4999 14.2519 6.34196C23.2427 0.141222 35.0215 -1.64278 46.0923 1.56711Z" fill="#009191"/>
<g clip-path="url(#clip0_361_12997)">
<path d="M33.7395 38.2958C34.2612 39.1451 35.4961 39.4605 36.4582 38.9597L45.8393 34.0449C46.2992 33.8038 46.681 33.4577 46.9462 33.0412C47.2114 32.6247 47.3507 32.1526 47.3503 31.6721C47.3503 30.8587 47.3503 30.0453 47.3503 29.2317L34.4499 35.9146C33.544 36.4183 33.2396 37.4818 33.7395 38.2958Z" fill="white"/>
<path d="M33.6077 43.7802C33.7803 44.2019 34.1253 44.5477 34.5716 44.7466C35.1886 45.028 35.9322 44.964 36.5288 44.6514L45.1404 40.1508C45.8102 39.8006 46.3663 39.2975 46.7529 38.6918C47.1396 38.0861 47.3431 37.3992 47.3431 36.7V34.9111L34.3457 41.717C33.6149 42.2126 33.3227 43.0606 33.6077 43.7802Z" fill="white"/>
<path d="M29.8754 28.738C28.8014 28.7345 27.8935 29.5543 27.9064 30.5576L28.0714 40.3536C28.0795 40.8341 28.2273 41.3043 28.4999 41.717C28.7726 42.1296 29.1605 42.4703 29.6248 42.7047L31.9818 43.8956C31.9303 39.4177 31.879 34.9398 31.8279 30.4618C31.7821 29.5009 30.9035 28.7413 29.8754 28.738Z" fill="white"/>
<path d="M25.0394 40.4294L26.7671 41.3029C26.692 36.7791 26.6169 32.255 26.542 27.7307C26.4188 26.9128 25.7422 26.2693 24.9084 26.1399C24.4165 26.071 23.9141 26.1752 23.5047 26.431C22.9319 26.7782 22.6312 27.3949 22.6409 28.0193L22.7819 37.0074C22.793 37.7066 23.0074 38.3909 23.4036 38.9916C23.7999 39.5922 24.364 40.0881 25.0394 40.4294Z" fill="white"/>
<path d="M40.6775 30.3023C41.234 29.4718 40.9228 28.3468 39.9639 27.8408L30.9502 23.1192C30.3786 22.8197 29.73 22.6612 29.0692 22.6597C28.4085 22.6581 27.7589 22.8136 27.1856 23.1104L25.2109 24.1338L38.0372 30.928C38.971 31.3887 40.1437 31.0988 40.6775 30.3023Z" fill="white"/>
<path d="M46.0068 27.6756C46.3262 27.3308 46.4869 26.8884 46.4558 26.4397C46.42 25.8162 45.9903 25.2659 45.3923 24.9514C42.525 23.4466 39.658 21.9412 36.7911 20.4352C36.1221 20.0839 35.3626 19.8978 34.5888 19.8955C33.8151 19.8933 33.0543 20.0749 32.3827 20.4223L30.6641 21.311L43.6586 28.1224C44.4976 28.4488 45.4575 28.2563 46.0068 27.6756Z" fill="white"/>
</g>
<defs>
<clipPath id="clip0_361_12997">
<rect width="24.7059" height="25.0299" fill="white" transform="translate(22.6406 19.8955)"/>
</clipPath>
</defs>
</svg>
