<svg width="167" height="70" viewBox="0 0 167 70" fill="none" xmlns="http://www.w3.org/2000/svg">
<path d="M0 21.3535H17.9656V47.876C17.9656 50.5441 19.0984 51.8829 21.3734 51.8829C23.6483 51.8829 24.7343 50.5441 24.7343 47.876V21.3535H42.7V47.5389C42.7 53.6336 40.631 58.7827 36.5023 62.9862C32.3737 67.1616 27.3089 69.2494 21.3266 69.2494C15.3443 69.2494 9.01558 66.8152 4.8495 61.947C1.61962 58.1461 0 52.8753 0 46.1253V21.3535Z" fill="#9480EC"/>
<path d="M90.0085 69.2622H72.0429V42.7678C72.0429 40.0716 70.9101 38.7235 68.6352 38.7235C66.3602 38.7235 65.2742 40.0716 65.2742 42.7678V69.2622H47.3086V43.0955C47.3086 36.9822 49.3776 31.8331 53.5062 27.6576C57.6348 23.4541 62.6997 21.3477 68.682 21.3477C74.6643 21.3477 81.0211 23.7818 85.159 28.6406C88.3889 32.4322 90.0085 37.7217 90.0085 44.4998V69.2529V69.2622Z" fill="#9480EC"/>
<path d="M112.587 21.3734V69.2599H94.6211V21.3734H112.587ZM103.646 0C106.08 0 108.177 0.861302 109.937 2.59327C111.735 4.28778 112.624 6.30997 112.624 8.6411C112.624 10.9722 111.772 13.191 110.078 14.7919C108.411 16.3928 106.267 17.1979 103.646 17.1979C101.025 17.1979 98.8621 16.3928 97.1582 14.7919C95.4918 13.191 94.6585 11.1407 94.6585 8.6411C94.6585 6.14145 95.5386 4.28778 97.2986 2.59327C99.0961 0.861302 101.203 0 103.637 0H103.646Z" fill="#9480EC"/>
<path d="M135.206 21.373V69.2595H117.24V21.373H135.206ZM162.73 21.373L153.19 37.691L166.999 69.2595H147.114L135.206 37.691L144.044 21.373H162.73Z" fill="#9480EC"/>
</svg>
