<svg width="123" height="51" viewBox="0 0 123 51" fill="none" xmlns="http://www.w3.org/2000/svg">
<path d="M0 15.7233H13.2289V35.253C13.2289 37.2177 14.0631 38.2035 15.7382 38.2035C17.4134 38.2035 18.213 37.2177 18.213 35.253V15.7233H31.442V35.0048C31.442 39.4926 29.9185 43.2841 26.8784 46.3794C23.8383 49.4539 20.1088 50.9912 15.7037 50.9912C11.2987 50.9912 6.63859 49.1989 3.57091 45.6142C1.1926 42.8153 0 38.9342 0 33.9639V15.7233Z" fill="white"/>
<path d="M66.2785 51H53.0496V31.4909C53.0496 29.5056 52.2155 28.5129 50.5403 28.5129C48.8651 28.5129 48.0655 29.5056 48.0655 31.4909V51H34.8365V31.7322C34.8365 27.2307 36.36 23.4392 39.4001 20.3646C42.4402 17.2693 46.1697 15.7183 50.5748 15.7183C54.9798 15.7183 59.6606 17.5106 62.7076 21.0884C65.0859 23.8804 66.2785 27.7753 66.2785 32.7663V50.9931V51Z" fill="white"/>
<path d="M82.9036 15.7382V50.9993H69.6747V15.7382H82.9036ZM76.3202 0C78.1125 0 79.6567 0.634217 80.9527 1.90954C82.2763 3.15729 82.9312 4.64632 82.9312 6.36284C82.9312 8.07936 82.3039 9.71316 81.0561 10.892C79.829 12.0708 78.2504 12.6636 76.3202 12.6636C74.3899 12.6636 72.7975 12.0708 71.5429 10.892C70.3158 9.71316 69.7023 8.20345 69.7023 6.36284C69.7023 4.52224 70.3503 3.15729 71.6463 1.90954C72.9698 0.634217 74.5209 0 76.3133 0H76.3202Z" fill="white"/>
<path d="M99.5582 15.7382V50.9992H86.3292V15.7382H99.5582ZM119.826 15.7382L112.801 27.7538L122.969 50.9992H108.327L99.5582 27.7538L106.066 15.7382H119.826Z" fill="white"/>
</svg>
