<svg xmlns="http://www.w3.org/2000/svg" viewBox="0 0 1449 1024"><path fill="#9b266a" d="M361.958 482.44l-52.5 193.92c18.446 79.933 50.137 155.137 93.65 222.299h59.123l7.096-24.594c-68.11-100.743-108.312-222.299-108.312-353.314 0-13.244.473-26.015.945-38.311zM772.503 78.989l-17.501-68.11c-192.03 89.393-324.936 283.789-324.936 509.4 0 95.068 23.649 184.934 65.744 263.449l30.269-103.109c-17.501-50.137-26.96-104.528-26.96-160.812 0-192.975 111.151-359.938 273.381-440.817z"/><path fill="#9b266a" d="M647.638 432.779h-70.947c-5.675 28.379-8.987 57.23-8.987 87.502 0 46.825 7.569 91.759 21.758 133.854h73.785c-17.028-41.15-26.015-86.554-26.015-133.854-.473-30.269 3.312-59.596 10.405-87.502zm271.963 216.624l-53.446-206.692c-14.189 22.703-22.231 49.188-22.231 78.043 0 54.866 30.269 103.109 75.676 128.649zm-296.56-337.707l27.433 112.569c24.594-87.502 81.823-161.285 157.976-207.164l-17.974-69.528c-70.474 37.838-128.176 95.068-167.435 164.124zM634.867.001H492.974l-63.381 234.125C477.363 140.003 548.31 59.597 634.867.001z"/><path fill="#9b266a" d="M959.33 804.54l-18.919-73.313c-95.068-23.176-165.542-108.785-165.542-210.949 0-63.381 26.96-120.138 70.001-159.867l-18.919-73.313c-72.84 52.027-120.138 136.691-120.138 233.179 0 147.095 111.151 267.706 253.517 284.261zm-709.941 94.122h73.313c-17.974-31.218-33.581-63.853-46.825-97.907l-26.488 97.907zm500.883-118.717l36.893 111.151c4.257 2.366 8.987 4.73 13.717 7.096h183.516l-6.148-23.649c-88.447-3.312-167.908-38.311-227.977-94.595zM1004.737.001l-9.46 27.433c73.313.473 142.838 17.028 205.274 46.352V.001h-195.814zm-12.771 234.597c-23.176 0-45.407 2.839-67.162 8.041v71.892c21.285-7.096 43.513-10.405 67.162-10.405 99.325 0 183.043 66.689 208.582 157.503V325.411c-52.027-56.285-126.286-90.811-208.582-90.811zM971.628 96.963l-24.594 71.419c14.662-1.891 29.797-2.839 44.934-2.839 78.043 0 149.934 25.067 208.582 67.635v-81.823c-61.487-34.999-132.906-54.866-208.582-54.866-7.096 0-13.717 0-20.337.473z"/><path fill="#9b266a" d="M1000.952 598.793v69.056c77.57-4.73 138.584-69.056 138.584-147.568s-61.487-142.838-138.584-147.568v69.056c39.256 4.73 70.001 37.838 70.001 78.515s-30.745 73.785-70.001 78.515zm0 301.76h199.598v-93.177c-56.285 41.15-124.868 65.744-199.598 67.635v25.54zm0-163.651v69.056c78.515-2.366 149.462-36.893 199.598-90.338V579.402c-25.067 88.447-104.528 153.719-199.598 157.503zM381.35 948.799c0 8.987-5.202 16.08-15.607 21.758-12.298 6.621-29.797 9.932-53.918 9.932h-43.513v42.568h-19.864V917.584h63.381c26.015 0 44.934 3.784 56.757 11.35 8.514 4.73 12.771 11.35 12.771 19.864zm-19.864 0c0-6.148-3.784-11.35-10.878-15.135-8.514-4.73-21.285-7.096-37.838-7.096h-43.513v43.986h43.513c16.556 0 29.324-2.366 37.838-6.621 7.096-3.784 10.878-8.987 10.878-15.135zm208.582 73.783l-82.3-105.473h-21.285l-83.245 105.473h20.81l27.906-35.475h89.393l27.906 35.475h20.81zm-56.284-44.932h-74.258l37.365-48.243 36.893 48.243zm283.788 45.404H589.935v-9.932h17.974l74.731-96.013h21.758l74.731 96.013h17.974v9.932h.473zm-39.731-9.932l-63.853-82.3-64.326 82.3h128.176zm222.299 9.46h-19.864v-90.811l-119.665 90.811h-21.285V917.109h19.864v90.811l119.19-90.811h21.285v105.473h.473zm220.408-53.446c0 15.607-9.46 28.851-28.379 39.256s-42.568 15.607-70.947 15.607c-27.906 0-51.555-5.202-70.947-15.607-18.919-10.405-28.851-23.176-28.851-38.784s9.46-28.851 28.379-39.256c18.919-10.405 42.568-15.607 70.947-15.607s52.027 5.202 70.947 15.135c19.392 10.878 28.851 23.649 28.851 39.256zm-18.919 0c0-13.244-7.569-23.649-23.176-32.163-15.135-8.514-34.526-12.298-57.703-12.298s-42.095 4.257-57.703 12.771c-15.607 8.514-23.176 19.392-23.176 32.636s7.569 24.122 23.176 32.163c15.607 8.514 34.526 12.771 57.703 12.771s42.095-4.257 57.703-12.771c15.607-8.514 23.176-19.864 23.176-33.108z"/></svg>