<svg width="32" height="32" viewBox="0 0 32 32" fill="none" xmlns="http://www.w3.org/2000/svg">
<g clip-path="url(#clip0_1412_36826)">
<path fill-rule="evenodd" clip-rule="evenodd" d="M2.14946 24.0053C3.73198 26.7449 6.09115 28.9537 8.92876 30.3527C11.7664 31.7517 14.955 32.2781 18.0917 31.8653C21.2284 31.4525 24.1723 30.119 26.5513 28.0334C28.9304 25.9479 30.6377 23.2038 31.4575 20.1481C32.2773 17.0925 32.1728 13.8623 31.1572 10.866C30.1417 7.8697 28.2606 5.24173 25.7518 3.31426C23.243 1.3868 20.219 0.246361 17.0622 0.0371157C13.9054 -0.17213 10.7574 0.559207 8.01613 2.13868C4.34422 4.26577 1.66503 7.76145 0.565409 11.86C-0.534207 15.9586 0.0353952 20.3259 2.14946 24.0053Z" fill="white"/>
<path d="M30.9177 10.24C30.6226 9.46429 30.266 8.71344 29.8511 7.99465C27.724 4.32274 24.2283 1.64354 20.1297 0.543923C16.0311 -0.555694 11.6638 0.0139168 7.98441 2.12798L7.82441 2.22932C4.74694 4.06113 2.38024 6.88085 1.10973 10.2293L1.02441 10.432H30.9871L30.9177 10.24Z" fill="#D41800"/>
<path d="M1.04007 10.4426L0.992092 10.5653C0.880092 10.88 0.762734 11.1946 0.666734 11.5146C0.230838 12.9972 0.00993056 14.5346 0.0107444 16.08C0.0205981 17.8989 0.341693 19.7027 0.960093 21.4133L0.997431 21.5093H30.9974L31.0347 21.4133C31.6547 19.7026 31.981 17.8994 32.0001 16.08C32.0081 14.5314 31.7908 12.9899 31.3548 11.504C31.2623 11.1911 31.161 10.88 31.0507 10.5706L30.9974 10.448H1.04007V10.4426Z" fill="#F7F7F7"/>
<path d="M1.08285 21.76C2.34352 25.124 4.72659 27.9497 7.82952 29.76C10.2725 31.2124 13.0583 31.9879 15.9004 32.0066C18.7425 32.0254 21.5382 31.2867 24.0002 29.8667L24.1655 29.7653C27.2471 27.934 29.619 25.1147 30.8962 21.7653L30.9922 21.536H0.992188L1.08285 21.76Z" fill="#D41800"/>
</g>
<defs>
<clipPath id="clip0_1412_36826">
<rect width="32" height="32" fill="white"/>
</clipPath>
</defs>
</svg>
