<svg width="32" height="32" viewBox="0 0 32 32" fill="none" xmlns="http://www.w3.org/2000/svg">
<g clip-path="url(#clip0_1412_36066)">
<path fill-rule="evenodd" clip-rule="evenodd" d="M2.13872 24.0053C3.72124 26.7448 6.0804 28.9537 8.91801 30.3527C11.7556 31.7517 14.9443 32.2781 18.081 31.8653C21.2177 31.4525 24.1616 30.119 26.5406 28.0334C28.9196 25.9479 30.6269 23.2038 31.4467 20.1481C32.2666 17.0925 32.1621 13.8623 31.1465 10.866C30.1309 7.86969 28.2498 5.24171 25.741 3.31425C23.2322 1.38678 20.2083 0.246362 17.0515 0.0371163C13.8947 -0.172129 10.7467 0.559191 8.00539 2.13866C4.33348 4.26575 1.65428 7.76145 0.554665 11.86C-0.544952 15.9586 0.024659 20.3259 2.13872 24.0053Z" fill="white"/>
<path fill-rule="evenodd" clip-rule="evenodd" d="M24.1655 2.24538C21.6989 0.79107 18.8902 0.0180407 16.0268 0.00536849C13.2058 -0.0101902 10.4315 0.726178 7.98949 2.1387L7.82949 2.24004C7.27413 2.57699 6.73981 2.94746 6.22949 3.34938V28.6294C9.04306 30.7975 12.4961 31.9717 16.0482 31.9681C18.8566 31.9772 21.6172 31.2411 24.0482 29.8347L24.2135 29.7334C24.7689 29.3964 25.3032 29.026 25.8135 28.624V3.34404C25.2873 2.94419 24.737 2.57727 24.1655 2.24538Z" fill="#F7F7F7"/>
<path fill-rule="evenodd" clip-rule="evenodd" d="M25.7656 3.34399V28.6293C28.8228 26.2561 30.9186 22.8574 31.6665 19.0601C32.4144 15.2629 31.7639 11.3233 29.835 7.968C28.7937 6.17556 27.4112 4.60461 25.7656 3.34399Z" fill="#EC3402"/>
<path fill-rule="evenodd" clip-rule="evenodd" d="M2.13875 24.0053C3.1774 25.8072 4.56005 27.3874 6.20809 28.656V3.34399C3.15092 5.71722 1.05509 9.11594 0.307203 12.9132C-0.440682 16.7105 0.209832 20.6501 2.13875 24.0053Z" fill="#EC3402"/>
<path fill-rule="evenodd" clip-rule="evenodd" d="M16.3735 24.7414H15.8135C15.8135 24.3094 15.9469 21.2 15.8882 21.0934C15.8573 21.0482 15.8146 21.0124 15.7648 20.9898C15.7149 20.9672 15.6598 20.9588 15.6055 20.9654L14.9069 21.0507L12.4002 21.3547C12.5489 20.9618 12.6457 20.5513 12.6882 20.1334C12.6208 19.9831 12.5115 19.8553 12.3735 19.7654L9.26953 17.1414C9.58293 17.0285 9.87636 16.8665 10.1389 16.6614C10.1718 16.5645 10.1718 16.4596 10.1389 16.3627L9.5682 14.2294C10.2352 14.4096 10.9118 14.552 11.5949 14.656C11.8402 14.6134 11.8882 14.1227 11.9522 13.9094C11.9842 13.792 12.0162 13.6694 12.0429 13.5521C12.2882 13.8401 13.5042 15.3067 13.6429 15.4187C13.9362 15.6267 14.0855 15.3547 14.0589 15.0827C13.8349 13.8507 13.6162 12.6241 13.3922 11.3974C13.7711 11.6523 14.1865 11.8483 14.6242 11.9787C14.6823 11.9665 14.7366 11.9401 14.7821 11.902C14.8277 11.8639 14.8632 11.8151 14.8855 11.7601C15.2002 11.2267 15.7175 10.1334 16.0642 9.47205C16.1975 9.72805 17.2109 11.7814 17.3282 11.8934C17.3736 11.9345 17.4293 11.9627 17.4894 11.9749C17.5494 11.9871 17.6117 11.9829 17.6695 11.9627L18.7362 11.4027C18.6455 11.9361 18.0535 15.0027 18.0802 15.2427C18.1069 15.4827 18.3789 15.5467 18.5655 15.3547L20.0962 13.5627C20.1656 13.931 20.2802 14.2892 20.4375 14.6294C20.657 14.7076 20.8985 14.6961 21.1095 14.5974L22.5655 14.2294C22.3249 15.0213 22.1291 15.8261 21.9789 16.64C22.0269 16.8267 22.5655 16.9867 22.8589 17.1734C22.2882 17.648 19.5895 19.8827 19.4989 20.0267C19.4611 20.0924 19.4378 20.1654 19.4304 20.2408C19.423 20.3162 19.4318 20.3923 19.4562 20.4641C19.5469 20.7681 19.6375 21.072 19.7282 21.376C19.4509 21.3387 16.5282 20.9547 16.3789 20.9867C16.336 20.9973 16.297 21.02 16.2668 21.0522C16.2365 21.0844 16.2162 21.1246 16.2082 21.1681C16.2722 22.3414 16.3255 23.5414 16.3735 24.7414Z" fill="#EC3402"/>
</g>
<defs>
<clipPath id="clip0_1412_36066">
<rect width="32" height="32" fill="white"/>
</clipPath>
</defs>
</svg>
