<svg width="33" height="32" viewBox="0 0 33 32" fill="none" xmlns="http://www.w3.org/2000/svg">
<g clip-path="url(#clip0_1412_36805)">
<path fill-rule="evenodd" clip-rule="evenodd" d="M2.63872 24.0053C4.22123 26.7448 6.5804 28.9537 9.41801 30.3527C12.2556 31.7517 15.4443 32.2781 18.581 31.8653C21.7177 31.4525 24.6616 30.119 27.0406 28.0334C29.4196 25.9479 31.1269 23.2038 31.9468 20.1481C32.7666 17.0925 32.6621 13.8623 31.6465 10.866C30.6309 7.86969 28.7498 5.24171 26.241 3.31425C23.7322 1.38678 20.7083 0.246362 17.5515 0.0371163C14.3947 -0.172129 11.2466 0.559191 8.50538 2.13866C4.83347 4.26575 2.15428 7.76145 1.05467 11.86C-0.0449496 15.9586 0.524653 20.3259 2.63872 24.0053Z" fill="white"/>
<path d="M31.5511 10.5653C31.5138 10.4533 31.4604 10.3466 31.4178 10.24C31.1227 9.46426 30.766 8.71342 30.3511 7.99464C28.224 4.32273 24.7283 1.64354 20.6298 0.543925C16.5312 -0.555692 12.1639 0.0139108 8.48444 2.12797L8.32445 2.22931C5.24698 4.06113 2.88028 6.88085 1.60977 10.2293C1.5671 10.3413 1.51377 10.4426 1.47643 10.5546C1.36443 10.8693 1.24711 11.184 1.15111 11.504C0.715213 12.9866 0.494306 14.524 0.495119 16.0693C0.504973 17.8882 0.826036 19.6921 1.44444 21.4026C1.48177 21.5146 1.5351 21.6213 1.57777 21.728C2.83844 25.0919 5.22151 27.9177 8.32445 29.728C10.7675 31.1804 13.5532 31.9558 16.3953 31.9746C19.2374 31.9933 22.0332 31.2547 24.4951 29.8346L24.6604 29.7333C27.742 27.902 30.1139 25.0827 31.3911 21.7333C31.4338 21.6213 31.4871 21.52 31.5244 21.408C32.1444 19.6973 32.4708 17.8941 32.4898 16.0746C32.4978 14.5261 32.2804 12.9846 31.8444 11.4986C31.7591 11.1858 31.6613 10.8746 31.5511 10.5653ZM10.0844 12.304L7.47643 10.496L4.86846 12.32L5.76979 9.24264L3.25778 7.29598L6.42044 7.21598L7.48711 4.18665L8.55378 7.21598L11.7164 7.29598L9.20443 9.25332L10.0844 12.304ZM13.9831 3.08265L15.0018 3.47731L15.7591 2.58131L15.6151 3.77065L16.6231 4.20797L15.5244 4.48531L15.4551 5.55198L14.8898 4.62931L13.7751 4.85864L14.5378 4.0053L13.9831 3.08265ZM15.5351 15.2053L15.5084 16.2986L14.9164 15.328L13.7965 15.648L14.5325 14.7733L13.9458 13.8453L14.9751 14.208L15.6204 13.3493V14.4853L16.6124 14.848L15.5351 15.2053ZM17.6685 6.79464L17.5191 5.72797L18.2551 6.53863L19.3218 6.06932L18.7564 6.98665L19.4978 7.83997L18.4311 7.64264L17.8978 8.62931L17.7698 7.50931L16.6018 7.32264L17.6685 6.79464ZM19.0871 12.976L18.1858 12.3413L17.2898 13.0133L17.6418 11.9466L16.6604 11.2853H17.8124L18.1538 10.2186L18.4791 11.2853H19.6418L18.7404 11.9146L19.0871 12.976Z" fill="#E10E00"/>
<path d="M8.52715 7.18937L7.47648 4.16003L6.42048 7.18937L3.25781 7.26937L5.76981 9.2267L4.86848 12.304L7.47648 10.4854L10.0791 12.304L9.17781 9.2267L11.6898 7.26937L8.52715 7.18937Z" fill="#F9CF00"/>
<path d="M14.8895 4.656L15.4549 5.584L15.5189 4.496L16.6229 4.21867L15.6095 3.776L15.7589 2.58667L14.9962 3.48267L13.9775 3.088L14.5322 4.032L13.7695 4.88534L14.8895 4.656Z" fill="#F9CF00"/>
<path d="M17.9083 8.63998L18.4363 7.65331L19.519 7.85065L18.7776 6.99198L19.343 6.07465L18.2603 6.54398L17.5243 5.73865L17.6736 6.79465L16.6123 7.33331L17.7803 7.51998L17.9083 8.63998Z" fill="#F9CF00"/>
<path d="M18.4949 11.2693L18.1696 10.224L17.8282 11.296L16.6709 11.2853L17.6522 11.9467L17.3002 13.0187L18.1909 12.3467L19.0922 12.9813L18.7562 11.8987L19.6576 11.2693H18.4949Z" fill="#F9CF00"/>
<path d="M15.615 13.36L14.9697 14.2133L13.9403 13.8507L14.527 14.7787L13.791 15.6587L14.911 15.3333L15.503 16.304L15.5297 15.2053L16.591 14.8587L15.5937 14.4907L15.615 13.36Z" fill="#F9CF00"/>
</g>
<defs>
<clipPath id="clip0_1412_36805">
<rect width="32" height="32" fill="white" transform="translate(0.5)"/>
</clipPath>
</defs>
</svg>
