<svg width="32" height="32" viewBox="0 0 32 32" fill="none" xmlns="http://www.w3.org/2000/svg">
<g clip-path="url(#clip0_1412_36057)">
<path fill-rule="evenodd" clip-rule="evenodd" d="M2.14073 24.0081C3.7231 26.7514 6.08355 28.9638 8.92349 30.3654C11.7634 31.7669 14.9553 32.2947 18.0953 31.882C21.2352 31.4692 24.1822 30.1345 26.5635 28.0466C28.9447 25.9587 30.6532 23.2115 31.4729 20.1524C32.2925 17.0933 32.1865 13.8599 31.1682 10.8611C30.1498 7.86231 28.265 5.23291 25.752 3.30552C23.2391 1.37813 20.211 0.239345 17.0507 0.0332207C13.8905 -0.172903 10.7401 0.562893 7.99806 2.14754C4.33029 4.27699 1.65501 7.77223 0.557353 11.8689C-0.540301 15.9655 0.0290155 20.3301 2.14073 24.0081Z" fill="white"/>
<path d="M1.11875 21.7641C2.37931 25.1111 4.75131 27.9234 7.83766 29.7304C10.2812 31.1809 13.0665 31.9555 15.908 31.9747C18.7496 31.9939 21.5451 31.257 24.008 29.8397L24.1688 29.7368C27.2515 27.9044 29.624 25.0833 30.9005 21.732C30.9391 21.6227 30.9906 21.5198 31.0291 21.4105H0.958008C0.996585 21.552 1.04802 21.6548 1.11875 21.7641Z" fill="#FFDE17"/>
<path d="M0.661596 11.5154C0.230182 12.9985 0.0136598 14.5358 0.0186386 16.0804C0.0245305 17.9066 0.344253 19.7183 0.963807 21.4362H31.0478C31.6699 19.7183 31.996 17.9074 32.0122 16.0804C32.0212 14.5313 31.8046 12.9892 31.3693 11.5025C31.2792 11.2003 31.1828 10.8981 31.0735 10.5959H0.976678C0.867376 10.9046 0.75161 11.2068 0.661596 11.5154Z" fill="#D41800"/>
<path d="M30.9195 10.2423C30.6283 9.46751 30.2757 8.71716 29.8651 7.99842C27.7356 4.33065 24.2404 1.65538 20.1438 0.557729C16.0471 -0.539924 11.6825 0.0293526 8.00452 2.14107L7.84378 2.23751C4.76178 4.06906 2.39115 6.89069 1.11843 10.2423C1.07343 10.3516 1.02198 10.4609 0.983398 10.5703H31.0674C31.016 10.4417 30.9645 10.3516 30.9195 10.2423Z" fill="black"/>
</g>
<defs>
<clipPath id="clip0_1412_36057">
<rect width="32" height="32" fill="white"/>
</clipPath>
</defs>
</svg>
