<svg width="32" height="32" viewBox="0 0 32 32" fill="none" xmlns="http://www.w3.org/2000/svg">
<g clip-path="url(#clip0_1412_36076)">
<path fill-rule="evenodd" clip-rule="evenodd" d="M2.13872 24.0053C3.72123 26.7448 6.08039 28.9537 8.918 30.3527C11.7556 31.7517 14.9443 32.2781 18.081 31.8653C21.2177 31.4525 24.1616 30.119 26.5406 28.0335C28.9196 25.9479 30.6269 23.2038 31.4467 20.1481C32.2665 17.0925 32.1621 13.8623 31.1465 10.866C30.1309 7.86971 28.2498 5.24173 25.741 3.31426C23.2322 1.3868 20.2083 0.246362 17.0515 0.0371157C13.8946 -0.17213 10.7466 0.559207 8.00538 2.13868C4.33347 4.26577 1.65428 7.76146 0.554667 11.86C-0.54495 15.9586 0.024653 20.3259 2.13872 24.0053Z" fill="white"/>
<path d="M7.83427 2.23472C7.62627 2.35739 7.42894 2.48539 7.22627 2.61339C3.81366 4.85947 1.3869 8.32329 0.441346 12.2978C-0.50421 16.2723 0.102727 20.4578 2.13827 24.0001C3.38822 26.1641 5.13153 28.0025 7.22627 29.3654C7.42894 29.4987 7.62627 29.6267 7.83427 29.7494L7.89826 29.7867V2.19739L7.83427 2.23472Z" fill="url(#paint0_linear_1412_36076)"/>
<path d="M24.7192 2.60806C24.5325 2.48539 24.3405 2.36271 24.1485 2.24538L24.0898 2.21338V29.7974L24.1485 29.7601C24.3405 29.6427 24.5325 29.5254 24.7192 29.4027C28.1428 27.1612 30.58 23.6957 31.5318 19.7158C32.4836 15.7359 31.8781 11.5427 29.8392 7.99473C28.583 5.81916 26.8282 3.97297 24.7192 2.60806Z" fill="#D41800"/>
<path d="M16.0318 0.00536849C13.2107 -0.0101902 10.4365 0.726177 7.99445 2.1387L7.89844 2.19736V29.7867C10.3672 31.227 13.1736 31.9871 16.0318 31.9894C18.8402 31.9983 21.6007 31.2622 24.0318 29.856L24.1384 29.792V2.21336C21.6781 0.775706 18.8814 0.0139847 16.0318 0.00536849Z" fill="#F7F7F7"/>
</g>
<defs>
<linearGradient id="paint0_linear_1412_36076" x1="-8.31506" y1="15.9947" x2="7.89826" y2="15.9947" gradientUnits="userSpaceOnUse">
<stop stop-color="#0B4EAB"/>
<stop offset="1" stop-color="#0B4EAB"/>
</linearGradient>
<clipPath id="clip0_1412_36076">
<rect width="32" height="32" fill="white"/>
</clipPath>
</defs>
</svg>
