<svg width="32" height="32" viewBox="0 0 32 32" fill="none" xmlns="http://www.w3.org/2000/svg">
<g clip-path="url(#clip0_1412_36034)">
<path fill-rule="evenodd" clip-rule="evenodd" d="M2.13872 24.0053C3.72124 26.7449 6.0804 28.9537 8.91801 30.3527C11.7556 31.7518 14.9443 32.2781 18.081 31.8653C21.2177 31.4525 24.1616 30.119 26.5406 28.0335C28.9196 25.9479 30.6269 23.2039 31.4467 20.1482C32.2666 17.0925 32.1621 13.8623 31.1465 10.866C30.1309 7.86971 28.2498 5.24173 25.741 3.31426C23.2322 1.3868 20.2083 0.246361 17.0515 0.0371157C13.8947 -0.17213 10.7467 0.559207 8.00539 2.13868C4.33348 4.26577 1.65428 7.76146 0.554665 11.86C-0.544952 15.9586 0.024659 20.3259 2.13872 24.0053Z" fill="white"/>
<path d="M1.17855 10C1.12521 10.1333 1.07189 10.2667 1.01855 10.4053H1.80256L1.17855 10Z" fill="#000D7F"/>
<path d="M30.9922 10.4C30.9548 10.2986 30.9175 10.2027 30.8802 10.1013L30.4375 10.4H30.9708H30.9922Z" fill="#000D7F"/>
<path d="M4.68262 27.3173C6.63384 29.263 9.0555 30.6704 11.7119 31.4026V22.6133L4.68262 27.3173Z" fill="#000D7F"/>
<path d="M20.2192 31.4347C21.5456 31.0681 22.8185 30.5303 24.0059 29.8347L24.1659 29.7601C25.3063 29.0846 26.358 28.2694 27.2965 27.3334L20.2139 22.6294V31.4347H20.2192Z" fill="#000D7F"/>
<path d="M27.3659 4.69336C26.4085 3.73759 25.3332 2.90778 24.1659 2.22402C22.9289 1.49373 21.5998 0.932297 20.2139 0.554688V9.49336L27.3659 4.69336Z" fill="#000D7F"/>
<path d="M1.0293 21.6587L1.14663 21.9627L1.5893 21.6587H1.0293Z" fill="#000D7F"/>
<path d="M11.7172 0.58667C10.4117 0.942741 9.15707 1.46426 7.98388 2.13862L7.82388 2.23465C6.67481 2.91539 5.61585 3.73782 4.67188 4.68263L11.7065 9.37065V0.58667H11.7172Z" fill="#000D7F"/>
<path d="M30.8267 21.9893L30.9547 21.6639H30.3467L30.8267 21.9893Z" fill="#000D7F"/>
<path d="M30.4374 10.4L30.8801 10.1014C30.5936 9.36612 30.2531 8.65306 29.8614 7.96804C29.7068 7.70138 29.5414 7.43472 29.3708 7.18406L24.6454 10.3841H20.5921L28.0214 5.41869C27.801 5.1698 27.5752 4.92803 27.3441 4.69337L20.2188 9.49337V0.592065C19.6515 0.44017 19.0764 0.319076 18.4961 0.22937V12.5973H31.6321C31.4711 11.8559 31.2573 11.1269 30.9921 10.416H30.4588L30.4374 10.4Z" fill="white"/>
<path d="M18.4961 31.7973C19.0766 31.7084 19.6517 31.5874 20.2188 31.4347V22.6293L27.3014 27.3333C28.0614 26.5721 28.7422 25.7359 29.3334 24.8373L24.5654 21.6373H28.4321L30.4054 22.9546C30.5601 22.6293 30.7041 22.2987 30.8374 21.968L30.3574 21.6427H30.9654C31.2499 20.8927 31.4781 20.1225 31.6481 19.3386H18.4961V31.7813V31.7973Z" fill="white"/>
<path d="M13.4136 0.218628C12.8419 0.310136 12.2757 0.433022 11.7176 0.586662V9.37598L4.68291 4.6933C3.93413 5.44392 3.26234 6.26757 2.67758 7.15196L7.57358 10.4106H3.72824L1.62157 9.00261C1.46157 9.33328 1.31757 9.66395 1.17891 10.0053L1.80291 10.4106H1.01891C0.754772 11.1219 0.540906 11.8508 0.378906 12.592H13.4082V0.229305L13.4136 0.218628Z" fill="white"/>
<path d="M0.352539 19.3547C0.51955 20.1388 0.745975 20.9091 1.02987 21.6588H1.58987L1.1472 21.9627C1.42907 22.6663 1.76057 23.3489 2.1392 24.0054C2.30987 24.3041 2.48765 24.5938 2.67253 24.8747L7.47253 21.6747H11.3659L4.00054 26.6294C4.21743 26.8747 4.44142 27.1112 4.67253 27.3387L11.7019 22.6347V31.4241C12.2602 31.5769 12.8264 31.6998 13.3979 31.7921V19.3814H0.352539V19.3547Z" fill="white"/>
<path d="M18.4965 0.213288C16.8138 -0.0662132 15.0965 -0.0662132 13.4138 0.213288V12.576H0.379131C-0.104242 14.8079 -0.104242 17.1174 0.379131 19.3493H13.4351V31.76C15.1164 32.0483 16.8336 32.0573 18.5178 31.7867V19.344H31.6325C32.1158 17.112 32.1158 14.8026 31.6325 12.5706H18.4965V0.213288Z" fill="#D41800"/>
<path d="M7.57301 10.4054L2.67702 7.14673C2.28073 7.73923 1.92438 8.35747 1.61035 8.99738L3.71702 10.4054H7.56235H7.57301Z" fill="#D41800"/>
<path d="M24.6505 10.4L29.3759 7.19996C28.9696 6.57921 28.5205 5.98758 28.0319 5.42932L20.6025 10.3946H24.6559L24.6505 10.4Z" fill="#D41800"/>
<path d="M7.5041 21.6587L2.7041 24.8587C3.10841 25.4662 3.5539 26.0454 4.03743 26.592L11.3654 21.6533H7.4881L7.5041 21.6587Z" fill="#D41800"/>
<path d="M24.5654 21.6639L29.3334 24.8639C29.7303 24.2663 30.0867 23.6426 30.4001 22.9973L28.4268 21.68H24.5708L24.5654 21.6639Z" fill="#D41800"/>
</g>
<defs>
<clipPath id="clip0_1412_36034">
<rect width="32" height="32" fill="white"/>
</clipPath>
</defs>
</svg>
