<svg width="16" height="16" viewBox="0 0 16 16" fill="none" xmlns="http://www.w3.org/2000/svg">
<g clip-path="url(#clip0_1420_5817)">
<path d="M-3 0H19V16H-3V0Z" fill="white"/>
<path d="M-3 1.5H19V4H-3V1.5Z" fill="#0038B8"/>
<path d="M-3 12H19V14.5H-3V12Z" fill="#0038B8"/>
<path fill-rule="evenodd" clip-rule="evenodd" d="M8 4.53589L9 6.26794H11L10 7.99999L11 9.73204H9L8 11.4641L7 9.73204H5L6 7.99999L5 6.26794H7L8 4.53589ZM6.68246 6.81794H5.95263L6.31754 7.44999L6.68246 6.81794ZM6.63509 7.99999L7.31754 6.81794H8.68246L9.36492 7.99999L8.68246 9.18204H7.31754L6.63509 7.99999ZM6.31754 8.54999L5.95263 9.18204H6.68246L6.31754 8.54999ZM7.63509 9.73204L8 10.3641L8.36492 9.73204H7.63509ZM9.31754 9.18204H10.0474L9.68246 8.54999L9.31754 9.18204ZM9.68246 7.44999L10.0474 6.81794H9.31754L9.68246 7.44999ZM8.36492 6.26794H7.63509L8 5.63589L8.36492 6.26794Z" fill="#0038B8"/>
</g>
<defs>
<clipPath id="clip0_1420_5817">
<rect width="16" height="16" rx="8" fill="white"/>
</clipPath>
</defs>
</svg>
