<svg width="32" height="32" viewBox="0 0 32 32" fill="none" xmlns="http://www.w3.org/2000/svg">
<g clip-path="url(#clip0_1412_36817)">
<path fill-rule="evenodd" clip-rule="evenodd" d="M2.15434 24.0053C3.73686 26.7449 6.09603 28.9537 8.93364 30.3527C11.7712 31.7517 14.9599 32.2781 18.0966 31.8653C21.2333 31.4525 24.1772 30.119 26.5562 28.0334C28.9352 25.9479 30.6425 23.2038 31.4624 20.1482C32.2822 17.0925 32.1777 13.8623 31.1621 10.866C30.1465 7.86971 28.2655 5.24173 25.7567 3.31426C23.2478 1.3868 20.2239 0.246362 17.0671 0.0371157C13.9103 -0.17213 10.7623 0.559207 8.02101 2.13868C4.3491 4.26577 1.66991 7.76146 0.570292 11.86C-0.529325 15.9586 0.040278 20.3259 2.15434 24.0053Z" fill="white"/>
<path d="M31.045 10.5654L30.9917 10.4427L30.9117 10.24C30.6166 9.46436 30.2599 8.71351 29.845 7.9947C28.4811 5.61483 26.5243 3.62861 24.165 2.22937V29.7494C27.2463 27.9177 29.6182 25.0985 30.8957 21.7494L30.9917 21.52L31.029 21.424C31.649 19.7133 31.9753 17.9102 31.9944 16.0907C32.0024 14.5421 31.785 13.0006 31.349 11.5147C31.2566 11.1911 31.1552 10.8747 31.045 10.5654Z" fill="#D41800"/>
<path d="M12.9383 0.29315C11.1972 0.627884 9.52433 1.25162 7.98903 2.1385L7.8877 2.20249V29.7865C9.4539 30.7022 11.1631 31.3477 12.9437 31.6958C16.737 32.4488 20.6748 31.7947 24.021 29.8558L24.181 29.7598V2.22915C20.7946 0.235222 16.7966 -0.453246 12.9383 0.29315Z" fill="#F7F7F7"/>
<path d="M7.82887 2.2293C4.7514 4.06112 2.3847 6.88084 1.11419 10.2293L1.02887 10.432C1.02887 10.4746 0.991523 10.512 0.980857 10.5546C0.868857 10.8693 0.751531 11.1786 0.655531 11.504C0.224318 12.9962 0.0105609 14.5427 0.0208632 16.096C0.0307169 17.9149 0.351812 19.7187 0.970212 21.4293L1.00752 21.5253L1.10355 21.7546C2.36384 25.1188 4.74697 27.9447 7.85019 29.7546L7.90885 29.7866V2.20264L7.82887 2.2293Z" fill="#1F9400"/>
</g>
<defs>
<clipPath id="clip0_1412_36817">
<rect width="32" height="32" fill="white"/>
</clipPath>
</defs>
</svg>
