<svg width="16" height="16" viewBox="0 0 16 16" fill="none" xmlns="http://www.w3.org/2000/svg">
<g clip-path="url(#clip0_1420_5811)">
<path d="M0 8C0 3.58172 3.58172 0 8 0C12.4183 0 16 3.58172 16 8C16 12.4183 12.4183 16 8 16C3.58172 16 0 12.4183 0 8Z" fill="#00ABC2"/>
<path d="M8.00559 9.10936C9.33985 9.10936 10.4215 8.07647 10.4215 6.80235C10.4215 5.52822 9.33985 4.49534 8.00559 4.49534C6.67133 4.49534 5.5897 5.52822 5.5897 6.80235C5.5897 8.07647 6.67133 9.10936 8.00559 9.10936Z" fill="#FFEC2D"/>
<path d="M8.00533 4.18071C8.14897 4.17899 8.20284 4.09326 8.20284 3.99039C8.20284 3.85322 8.00533 3.19995 8.00533 3.19995C8.00533 3.19995 7.80782 3.85322 7.80782 3.99039C7.80782 4.09326 7.86169 4.18071 8.00533 4.18071Z" fill="#FFEC2D"/>
<path d="M10.7507 6.80235C10.7525 6.93952 10.8422 6.99096 10.95 6.99096C11.0936 6.99096 11.7777 6.80235 11.7777 6.80235C11.7777 6.80235 11.0936 6.61374 10.95 6.61374C10.8422 6.61374 10.7507 6.66518 10.7507 6.80235Z" fill="#FFEC2D"/>
<path d="M8.00533 9.42399C7.86169 9.4257 7.80782 9.51143 7.80782 9.61431C7.80782 9.75148 8.00533 10.4047 8.00533 10.4047C8.00533 10.4047 8.20284 9.75148 8.20284 9.61431C8.20284 9.51143 8.14897 9.42399 8.00533 9.42399Z" fill="#FFEC2D"/>
<path d="M5.25993 6.80235C5.25813 6.66518 5.16835 6.61374 5.06062 6.61374C4.91698 6.61374 4.23288 6.80235 4.23288 6.80235C4.23288 6.80235 4.91698 6.99096 5.06062 6.99096C5.16835 6.99096 5.25993 6.93952 5.25993 6.80235Z" fill="#FFEC2D"/>
<path d="M9.05563 4.38024C9.18903 4.43115 9.27315 4.37163 9.31437 4.27659C9.36934 4.14986 9.44866 3.47414 9.44866 3.47414C9.44866 3.47414 9.0044 4.0055 8.94943 4.13223C8.9082 4.22728 8.92292 4.32775 9.05563 4.38024Z" fill="#FFEC2D"/>
<path d="M10.5414 7.80558C10.4881 7.93296 10.5504 8.01329 10.65 8.05266C10.7827 8.10515 11.4903 8.1809 11.4903 8.1809C11.4903 8.1809 10.9339 7.75665 10.8011 7.70416C10.7016 7.66479 10.5964 7.67885 10.5414 7.80558Z" fill="#FFEC2D"/>
<path d="M6.95437 9.2244C6.82097 9.17349 6.73685 9.23301 6.69563 9.32806C6.64066 9.45478 6.56134 10.1305 6.56134 10.1305C6.56134 10.1305 7.0056 9.59914 7.06057 9.47241C7.1018 9.37736 7.08708 9.27689 6.95437 9.2244Z" fill="#FFEC2D"/>
<path d="M5.46864 5.79906C5.52195 5.67168 5.45962 5.59135 5.36009 5.55198C5.22738 5.49949 4.51978 5.42374 4.51978 5.42374C4.51978 5.42374 5.07622 5.84799 5.20893 5.90048C5.30846 5.93985 5.41367 5.92579 5.46864 5.79906Z" fill="#FFEC2D"/>
<path d="M9.94607 4.94854C10.0489 5.04432 10.1505 5.02007 10.2267 4.94733C10.3282 4.85034 10.6723 4.25504 10.6723 4.25504C10.6723 4.25504 10.0489 4.58361 9.94734 4.6806C9.87116 4.75334 9.8445 4.85155 9.94607 4.94854Z" fill="#FFEC2D"/>
<path d="M9.94604 8.6561C9.84574 8.7543 9.87113 8.8513 9.94731 8.92404C10.0489 9.02104 10.6723 9.3496 10.6723 9.3496C10.6723 9.3496 10.3282 8.7543 10.2266 8.65731C10.1504 8.58457 10.0476 8.55911 9.94604 8.6561Z" fill="#FFEC2D"/>
<path d="M6.06351 8.6561C5.96067 8.56032 5.8591 8.58457 5.78292 8.65731C5.68135 8.75431 5.33728 9.3496 5.33728 9.3496C5.33728 9.3496 5.96067 9.02104 6.06224 8.92404C6.13842 8.8513 6.16509 8.75309 6.06351 8.6561Z" fill="#FFEC2D"/>
<path d="M6.06354 4.94854C6.16385 4.85034 6.13845 4.75334 6.06227 4.6806C5.9607 4.58361 5.33731 4.25504 5.33731 4.25504C5.33731 4.25504 5.68138 4.85034 5.78295 4.94733C5.85913 5.02008 5.96197 5.04554 6.06354 4.94854Z" fill="#FFEC2D"/>
<path d="M10.5418 5.79907C10.5985 5.92514 10.702 5.93985 10.8016 5.90048C10.9343 5.84799 11.4907 5.42375 11.4907 5.42375C11.4907 5.42375 10.7831 5.49949 10.6504 5.55198C10.5509 5.59135 10.4869 5.67234 10.5418 5.79907Z" fill="#FFEC2D"/>
<path d="M9.05608 9.2244C8.92406 9.27848 8.90865 9.37737 8.94988 9.47241C9.00485 9.59914 9.44911 10.1305 9.44911 10.1305C9.44911 10.1305 9.3698 9.45479 9.31483 9.32806C9.2736 9.23302 9.18879 9.17191 9.05608 9.2244Z" fill="#FFEC2D"/>
<path d="M5.46909 7.80558C5.41247 7.67951 5.30891 7.66479 5.20938 7.70416C5.07667 7.75666 4.52023 8.1809 4.52023 8.1809C4.52023 8.1809 5.22784 8.10516 5.36054 8.05266C5.46008 8.0133 5.52406 7.93231 5.46909 7.80558Z" fill="#FFEC2D"/>
<path d="M6.95486 4.38025C7.08688 4.32617 7.10229 4.22728 7.06107 4.13223C7.0061 4.00551 6.56183 3.47414 6.56183 3.47414C6.56183 3.47414 6.64115 4.14986 6.69612 4.27659C6.73734 4.37163 6.82215 4.43274 6.95486 4.38025Z" fill="#FFEC2D"/>
<path d="M8.54114 4.2311C8.68237 4.25618 8.75271 4.18213 8.77373 4.08123C8.80175 3.9467 8.7415 3.26919 8.7415 3.26919C8.7415 3.26919 8.41433 3.87311 8.3863 4.00764C8.36529 4.10854 8.40025 4.20434 8.54114 4.2311Z" fill="#FFEC2D"/>
<path d="M10.6982 7.31382C10.6719 7.44869 10.7495 7.51586 10.8552 7.53593C10.996 7.56269 11.7055 7.50516 11.7055 7.50516C11.7055 7.50516 11.0731 7.19273 10.9322 7.16597C10.8266 7.1459 10.7262 7.17929 10.6982 7.31382Z" fill="#FFEC2D"/>
<path d="M7.46996 9.37363C7.32873 9.34855 7.25839 9.4226 7.23737 9.5235C7.20935 9.65803 7.2696 10.3355 7.2696 10.3355C7.2696 10.3355 7.59677 9.73163 7.6248 9.59709C7.64581 9.49619 7.61085 9.40039 7.46996 9.37363Z" fill="#FFEC2D"/>
<path d="M5.31296 6.29091C5.33922 6.15604 5.26168 6.08887 5.15602 6.0688C5.01514 6.04204 4.30565 6.09957 4.30565 6.09957C4.30565 6.09957 4.93807 6.412 5.07895 6.43876C5.18462 6.45883 5.28494 6.42544 5.31296 6.29091Z" fill="#FFEC2D"/>
<path d="M9.53101 4.62255C9.65145 4.69733 9.74611 4.65463 9.80597 4.56909C9.88577 4.45504 10.1016 3.80708 10.1016 3.80708C10.1016 3.80708 9.55732 4.24547 9.47752 4.35952C9.41767 4.44506 9.41158 4.54634 9.53101 4.62255Z" fill="#FFEC2D"/>
<path d="M10.2884 8.25887C10.2101 8.37387 10.2548 8.46427 10.3444 8.52143C10.4639 8.59763 11.1424 8.80375 11.1424 8.80375C11.1424 8.80375 10.6833 8.28399 10.5639 8.20778C10.4743 8.15063 10.3682 8.14482 10.2884 8.25887Z" fill="#FFEC2D"/>
<path d="M6.48048 8.98218C6.36005 8.9074 6.26539 8.9501 6.20553 9.03564C6.12573 9.14969 5.90989 9.79765 5.90989 9.79765C5.90989 9.79765 6.45417 9.35926 6.53398 9.24521C6.59383 9.15967 6.59992 9.05838 6.48048 8.98218Z" fill="#FFEC2D"/>
<path d="M5.72306 5.34586C5.80137 5.23086 5.75665 5.14046 5.66707 5.0833C5.54764 5.00709 4.8691 4.80098 4.8691 4.80098C4.8691 4.80098 5.32818 5.32074 5.44761 5.39694C5.53719 5.4541 5.64325 5.45991 5.72306 5.34586Z" fill="#FFEC2D"/>
<path d="M10.2886 5.34586C10.3699 5.45896 10.4745 5.4541 10.564 5.39695C10.6835 5.32074 11.1425 4.80098 11.1425 4.80098C11.1425 4.80098 10.464 5.0071 10.3446 5.0833C10.255 5.14046 10.2088 5.23181 10.2886 5.34586Z" fill="#FFEC2D"/>
<path d="M9.53117 8.98218C9.41274 9.05981 9.41783 9.15967 9.47768 9.24521C9.55748 9.35926 10.1018 9.79765 10.1018 9.79765C10.1018 9.79765 9.88593 9.14969 9.80612 9.03564C9.74627 8.9501 9.65061 8.90597 9.53117 8.98218Z" fill="#FFEC2D"/>
<path d="M5.72321 8.25887C5.64191 8.14577 5.53734 8.15063 5.44776 8.20779C5.32833 8.28399 4.86925 8.80375 4.86925 8.80375C4.86925 8.80375 5.54779 8.59764 5.66722 8.52143C5.7568 8.46427 5.80301 8.37292 5.72321 8.25887Z" fill="#FFEC2D"/>
<path d="M6.48062 4.62255C6.59906 4.54492 6.59397 4.44506 6.53411 4.35952C6.45431 4.24547 5.91002 3.80708 5.91002 3.80708C5.91002 3.80708 6.12587 4.45504 6.20567 4.56909C6.26552 4.65463 6.36119 4.69876 6.48062 4.62255Z" fill="#FFEC2D"/>
<path d="M10.6987 6.29087C10.7284 6.42507 10.827 6.4588 10.9327 6.43873C11.0735 6.41196 11.706 6.09954 11.706 6.09954C11.706 6.09954 10.9965 6.042 10.8556 6.06876C10.7499 6.08883 10.6706 6.15634 10.6987 6.29087Z" fill="#FFEC2D"/>
<path d="M8.54162 9.37359C8.40108 9.40204 8.36577 9.49615 8.38678 9.59705C8.41481 9.73159 8.74198 10.3355 8.74198 10.3355C8.74198 10.3355 8.80224 9.658 8.77421 9.52346C8.75319 9.42256 8.6825 9.34683 8.54162 9.37359Z" fill="#FFEC2D"/>
<path d="M5.31337 7.31378C5.28359 7.17959 5.18503 7.14586 5.07937 7.16593C4.93848 7.19269 4.30606 7.50512 4.30606 7.50512C4.30606 7.50512 5.01555 7.56266 5.15643 7.5359C5.26209 7.51583 5.3414 7.44832 5.31337 7.31378Z" fill="#FFEC2D"/>
<path d="M7.47042 4.23106C7.61095 4.20262 7.64626 4.1085 7.62525 4.0076C7.59722 3.87307 7.27005 3.26915 7.27005 3.26915C7.27005 3.26915 7.2098 3.94666 7.23782 4.08119C7.25884 4.18209 7.32953 4.25782 7.47042 4.23106Z" fill="#FFEC2D"/>
<path d="M7.5747 11.7999C7.51006 11.8033 7.44722 11.8113 7.38556 11.8302C7.30117 11.841 7.22037 11.869 7.13659 11.8822L7.10307 11.8873L7.04682 11.8925C7.05041 11.9073 7.05279 11.9222 7.05279 11.937C7.05279 11.9525 7.051 11.9673 7.04682 11.9799C7.04322 11.9919 7.03184 12.0068 7.02286 12.0159C7.0109 12.0285 6.99834 12.0393 6.98336 12.0462C6.969 12.0531 6.95284 12.0559 6.93668 12.0571C6.92052 12.0576 6.90376 12.0571 6.8882 12.0513C6.87204 12.0462 6.85708 12.0365 6.84331 12.0251C6.82656 12.029 6.80919 12.0319 6.79303 12.0336C6.77628 12.0353 6.76071 12.0353 6.74576 12.0336C6.729 12.029 6.71164 12.0239 6.69548 12.0176C6.67921 12.0112 6.66358 12.0033 6.6488 11.9942C6.58775 12.0285 6.51952 12.0611 6.48241 12.1211C6.46147 12.1485 6.45727 12.1799 6.45249 12.2125C6.44949 12.2525 6.46027 12.2948 6.47822 12.332C6.48481 12.3428 6.4902 12.2925 6.51054 12.2857C6.54466 12.2588 6.58716 12.2394 6.63025 12.2285C6.66675 12.2108 6.66196 12.2297 6.647 12.2571C6.64341 12.2714 6.62307 12.3257 6.65059 12.2982C6.7721 12.2468 6.90676 12.2365 7.03784 12.2268C7.22816 12.208 7.41908 12.2039 7.61 12.2017C7.78956 12.2039 7.96911 12.2062 8.14866 12.2125C8.23426 12.2148 8.32044 12.2331 8.40483 12.2194C8.42518 12.2142 8.4569 12.2131 8.46888 12.2017C8.43056 12.1805 8.38567 12.1799 8.34319 12.1748H8.00084C7.90567 12.1657 7.80633 12.1645 7.71655 12.1302C7.6926 12.1211 7.67046 12.0993 7.64771 12.1228C7.61359 12.1342 7.57709 12.1422 7.54118 12.1445C7.47834 12.1491 7.41549 12.1365 7.35744 12.1142C7.39933 12.0588 7.44961 12.0102 7.4957 11.9587C7.45859 11.953 7.42267 11.9456 7.38556 11.937C7.45081 11.8942 7.51125 11.8456 7.5747 11.7999Z" fill="#FFEC2D"/>
<path d="M10.3709 12.3922C10.2408 12.4667 10.1415 12.3345 10.0328 12.2949C9.95515 12.3351 9.94789 12.4699 9.87533 12.5337C9.78852 12.628 9.68213 12.5073 9.69005 12.4143C9.58624 12.4978 9.53373 12.6873 9.36583 12.662C9.28629 12.6 9.2272 12.4699 9.16642 12.618C9.11686 12.6904 8.98489 12.7934 8.91655 12.6841C8.8954 12.5876 8.84473 12.474 8.78973 12.6274C8.75199 12.7358 8.63083 12.8156 8.5136 12.7681C8.44943 12.718 8.56504 12.5328 8.48336 12.5459C8.36126 12.623 8.29029 12.8144 8.11991 12.7991C8.05374 12.7282 8.16006 12.608 8.08748 12.5293C8.00183 12.6343 7.9068 12.788 7.75863 12.7991C7.68702 12.7437 7.76145 12.5847 7.71572 12.5612C7.56369 12.6483 7.40327 12.8035 7.21207 12.7549C7.28658 12.4827 7.59793 12.3872 7.85977 12.366C8.31025 12.3131 8.78419 12.4103 9.21763 12.2551C9.28765 12.2144 9.45733 12.1567 9.39691 12.0623C9.34341 11.9877 9.53612 12.0169 9.55465 11.9298C9.54318 11.8196 9.64312 11.8348 9.74074 11.8251C10.1784 11.8071 10.6108 11.8951 11.0471 11.9101C11.0801 12.1131 10.8442 12.2557 10.6543 12.193C10.5636 12.207 10.4276 11.9938 10.4543 12.1489C10.436 12.2303 10.4488 12.3378 10.3709 12.3922ZM6.64698 11.9764C6.7483 12.065 6.81935 11.9597 6.91406 11.9213C7.23173 11.817 7.50889 11.6346 7.78213 11.4524C7.94768 11.3216 8.09122 11.152 8.31356 11.1095C8.74727 10.9843 9.20831 10.9995 9.64369 10.8839C9.97524 10.4505 10.5383 10.2958 11.01 10.0467C11.116 10.0153 11.1569 9.93201 11.1907 9.84011C11.3708 9.56869 11.6161 9.32818 11.9061 9.16388C12.0434 9.09227 12.2071 9.05103 12.3625 9.08378C12.3514 9.2605 12.2452 9.41713 12.117 9.53935C12.2219 9.53716 12.3121 9.47387 12.4181 9.47744C12.4544 9.65881 12.2493 9.75373 12.1402 9.86665C12.201 9.88015 12.4338 9.89697 12.3069 9.95511C12.1452 10.0623 11.9606 10.1358 11.8113 10.2603C11.949 10.2839 11.9647 10.3119 11.8247 10.3594C11.7489 10.4085 11.6031 10.4256 11.589 10.5212C11.693 10.5823 11.5411 10.6429 11.4825 10.6628C11.3704 10.6877 11.2527 10.7342 11.4016 10.8155C11.3452 10.8967 11.2244 10.9141 11.1258 10.906C11.1557 10.9981 11.1991 11.1011 11.0739 11.1418C10.7934 11.3443 10.4641 11.4916 10.1115 11.5253C10.552 11.5576 11.0058 11.4795 11.3822 11.2507C11.4319 11.1946 11.6925 11.1343 11.5468 11.0871C11.4782 11.0599 11.331 11.0296 11.3211 10.9796C11.525 10.8595 11.7819 10.9022 12.0012 10.8308C12.0069 10.763 11.8344 10.7819 11.7701 10.7665C11.6167 10.7545 11.6257 10.7171 11.7736 10.7032C11.9607 10.6559 12.1727 10.6466 12.3301 10.5301C12.2019 10.4734 12.0407 10.5233 11.9039 10.477C12.1358 10.3801 12.4092 10.3704 12.6172 10.2249C12.712 10.1242 12.4959 10.1557 12.4329 10.1581C12.3045 10.1795 12.2452 10.1208 12.391 10.0699C12.6401 9.8945 12.9554 9.7806 13.1304 9.52637C13.1718 9.46946 13.2279 9.298 13.0957 9.35968C12.9219 9.41487 12.769 9.60145 12.5709 9.54374C12.9612 9.25493 13.3325 8.92614 13.5992 8.52646C13.613 8.41119 13.4235 8.39872 13.3742 8.48922C13.1235 8.7199 12.8966 8.9922 12.5756 9.13683C12.883 8.85349 13.1371 8.51799 13.3589 8.17027C13.4064 8.06684 13.5342 7.94247 13.4649 7.82764C13.3531 7.73928 13.2133 7.82016 13.1552 7.92589C12.9603 8.16885 12.8123 8.45242 12.5617 8.65031C12.7811 8.25044 13.0082 7.82477 13.0138 7.36356C13.0131 7.26861 12.9931 7.12876 12.8581 7.14649C12.7511 7.16482 12.7765 7.31782 12.7324 7.3952C12.6352 7.71029 12.5896 8.05153 12.3903 8.32743C12.4351 8.07139 12.5136 7.80447 12.4534 7.54591C12.4252 7.43036 12.2298 7.48007 12.255 7.59443C12.0215 8.72368 11.2281 9.71129 10.1903 10.2826C9.71514 10.5393 9.18439 10.7048 8.64442 10.7799C8.49916 10.8102 8.34205 10.7924 8.20322 10.8397C7.86681 11.086 7.66313 11.4982 7.23719 11.6273C7.04629 11.7179 6.79735 11.7363 6.66086 11.9057C6.64904 11.9273 6.64651 11.9524 6.64698 11.9764Z" fill="#FFEC2D"/>
<path d="M7.92182 10.8308C7.85898 10.9398 7.82199 11.065 7.74119 11.1626C7.49806 10.9513 7.14559 10.9583 6.83719 10.9442C6.58264 10.9312 6.30582 10.9088 6.10887 10.7354C5.90168 10.5734 5.73256 10.363 5.50104 10.2315C5.28973 10.1766 5.07671 10.1079 4.90681 9.96963C4.54375 9.68703 4.33583 9.26772 3.98107 8.97631C3.91343 8.91273 3.83367 8.86347 3.7579 8.80953C3.6859 8.82628 3.71849 8.97466 3.63038 8.89903C3.58244 8.86645 3.46254 8.86328 3.45173 8.90878C3.56019 9.04527 3.66877 9.20111 3.6838 9.37567C3.60982 9.38291 3.4783 9.36076 3.44164 9.38706C3.53987 9.52766 3.66579 9.65236 3.80886 9.75164C3.74023 9.76216 3.60501 9.75644 3.57871 9.78284C3.72072 9.89336 3.873 10.0063 4.05896 10.0347C4.09703 10.0826 4.0033 10.1751 4.08212 10.2161C4.12782 10.2339 4.27863 10.2637 4.17475 10.3134C4.10347 10.3592 4.12992 10.4661 4.22108 10.4637C4.27872 10.4918 4.40812 10.4987 4.41825 10.5474C4.36716 10.597 4.2082 10.6559 4.3435 10.7024C4.46989 10.7693 4.61403 10.8128 4.75836 10.8176C4.68592 10.8758 4.59669 10.9088 4.52214 10.9635C4.85521 11.15 5.22442 11.2727 5.58928 11.3908C5.73454 11.4372 5.88148 11.4804 6.03206 11.5076C5.59452 11.4834 5.17162 11.3598 4.77312 11.1905C4.56658 11.1039 4.35863 11.0204 4.14696 10.9459C4.23977 10.8997 4.34712 10.8885 4.44338 10.8486C4.24358 10.8103 4.02529 10.7978 3.84965 10.6929C3.87659 10.647 3.97863 10.6449 4.03506 10.6215C4.14119 10.5972 4.20704 10.5678 4.05738 10.559C3.90646 10.5199 3.73337 10.5374 3.60038 10.4505C3.60894 10.3984 3.74813 10.4165 3.80482 10.394C3.87621 10.3823 3.95557 10.3725 4.01262 10.3266C3.7793 10.2343 3.47414 10.2997 3.29139 10.103C3.24924 10.028 3.42226 10.0884 3.47153 10.0759C3.59673 10.0759 3.73129 10.1139 3.85052 10.0657C3.51055 9.92315 3.1464 9.78972 2.88712 9.52608C2.85834 9.48369 2.77208 9.36791 2.84167 9.35359C3.04348 9.37909 3.18954 9.5894 3.4054 9.55667C3.43408 9.51975 3.28 9.45926 3.24154 9.4065C2.92682 9.14861 2.62136 8.86873 2.40078 8.53092C2.38561 8.4181 2.5713 8.40121 2.6202 8.48833C2.86089 8.7097 3.07831 8.96802 3.37809 9.11915C3.48446 9.16841 3.31701 9.06085 3.29471 9.02185C3.01771 8.71469 2.75402 8.39029 2.56042 8.02854C2.52577 7.96335 2.46835 7.84531 2.57202 7.81061C2.67568 7.76102 2.77853 7.82858 2.83108 7.91361C3.03473 8.15888 3.18459 8.4504 3.43828 8.65475C3.22215 8.25423 2.99139 7.83263 2.9858 7.37174C2.99088 7.28241 2.9969 7.14726 3.12377 7.15093C3.2303 7.1355 3.21348 7.26574 3.24838 7.32785C3.35335 7.66643 3.39912 8.03291 3.60968 8.33185C3.56318 8.08068 3.49471 7.82201 3.54019 7.56667C3.55068 7.48283 3.64952 7.45745 3.71404 7.50814C3.7662 7.63004 3.77706 7.78059 3.82459 7.91092C4.095 8.79428 4.70216 9.57121 5.49338 10.0926C6.14501 10.5194 6.91835 10.7741 7.70763 10.8186C7.77892 10.8245 7.85043 10.8266 7.92182 10.8308Z" fill="#FFEC2D"/>
<path d="M6.91988 12.002C6.94335 12.002 6.96238 11.9838 6.96238 11.9614C6.96238 11.939 6.94335 11.9208 6.91988 11.9208C6.89641 11.9208 6.87738 11.939 6.87738 11.9614C6.87738 11.9838 6.89641 12.002 6.91988 12.002Z" fill="#FFEC2D"/>
<path d="M6.91631 11.9714C6.92588 11.9714 6.93364 11.964 6.93364 11.9549C6.93364 11.9457 6.92588 11.9383 6.91631 11.9383C6.90674 11.9383 6.89898 11.9457 6.89898 11.9549C6.89898 11.964 6.90674 11.9714 6.91631 11.9714Z" fill="#FFEC2D"/>
</g>
<defs>
<clipPath id="clip0_1420_5811">
<rect width="16" height="16" fill="white"/>
</clipPath>
</defs>
</svg>
