<svg width="16" height="16" viewBox="0 0 16 16" fill="none" xmlns="http://www.w3.org/2000/svg">
<g clip-path="url(#clip0_1420_5764)">
<path fill-rule="evenodd" clip-rule="evenodd" d="M1.06936 12.0026C1.86062 13.3724 3.0402 14.4768 4.45901 15.1763C5.87781 15.8758 7.47215 16.139 9.04049 15.9326C10.6088 15.7262 12.0808 15.0594 13.2703 14.0167C14.4598 12.9739 15.3135 11.6018 15.7234 10.074C16.1333 8.54616 16.081 6.93109 15.5732 5.43293C15.0655 3.93478 14.1249 2.6208 12.8705 1.65707C11.6161 0.693338 10.1041 0.12312 8.52573 0.0184968C6.94732 -0.0861261 5.37333 0.279543 4.00269 1.06928C2.16674 2.13282 0.827142 3.88067 0.277334 5.92996C-0.272475 7.97924 0.0123265 10.1629 1.06936 12.0026Z" fill="white"/>
<path d="M1.06905 12.0027C2.1326 13.8386 3.88044 15.1782 5.92973 15.728C7.97901 16.2778 10.1627 15.993 12.0024 14.936L12.0851 14.8853C13.6777 13.9391 14.8905 12.467 15.5144 10.7227H0.477051C0.636138 11.166 0.834248 11.5944 1.06905 12.0027Z" fill="#E10E00"/>
<path d="M0.00244346 8.03991C0.00459375 8.94892 0.162432 9.85085 0.46911 10.7066H15.5198C15.8279 9.85091 15.9893 8.94934 15.9971 8.03991C16.0028 7.10566 15.8439 6.17772 15.5278 5.29858H0.479779C0.163286 6.17787 0.00177671 7.1054 0.00244346 8.03991Z" fill="url(#paint0_linear_1420_5764)"/>
<path d="M0.47701 10.7198H15.5143V10.7012H0.47168L0.47701 10.7198Z" fill="#E10E00"/>
<path d="M0.47701 10.7198H15.5143V10.7012H0.47168L0.47701 10.7198Z" fill="url(#paint1_linear_1420_5764)"/>
<path fill-rule="evenodd" clip-rule="evenodd" d="M12.0853 1.12522C10.8635 0.39852 9.47011 0.0105245 8.04855 0.00115054C6.62699 -0.00822342 5.22861 0.361359 3.99731 1.07189L3.91732 1.12255C2.31861 2.07117 1.10248 3.5496 0.47998 5.30123H15.5306C14.9092 3.54729 13.6892 2.0686 12.0853 1.12522Z" fill="#F1F1F1"/>
</g>
<defs>
<linearGradient id="paint0_linear_1420_5764" x1="-3.72022" y1="5.50925" x2="19.9331" y2="10.5359" gradientUnits="userSpaceOnUse">
<stop stop-color="#0B4EAB"/>
<stop offset="1" stop-color="#0B4EAB"/>
</linearGradient>
<linearGradient id="paint1_linear_1420_5764" x1="-4.27232" y1="8.10357" x2="19.3812" y2="13.1298" gradientUnits="userSpaceOnUse">
<stop stop-color="#0B4EAB"/>
<stop offset="1" stop-color="#0B4EAB"/>
</linearGradient>
<clipPath id="clip0_1420_5764">
<rect width="16" height="16" fill="white"/>
</clipPath>
</defs>
</svg>
