<svg width="33" height="32" viewBox="0 0 33 32" fill="none" xmlns="http://www.w3.org/2000/svg">
<g clip-path="url(#clip0_1412_36085)">
<path d="M16.5 32C25.3366 32 32.5 24.8366 32.5 16C32.5 7.16344 25.3366 0 16.5 0C7.66344 0 0.5 7.16344 0.5 16C0.5 24.8366 7.66344 32 16.5 32Z" fill="#FFDA44"/>
<path d="M13.0225 13.9131H32.3653C31.3426 6.06262 24.6299 0 16.5007 0C15.3061 0 14.1424 0.132063 13.0225 0.380313V13.9131H13.0225Z" fill="#0052B4"/>
<path d="M8.84812 13.913V1.94543C4.45474 4.34256 1.30968 8.7395 0.635742 13.9131H8.84812V13.913Z" fill="#0052B4"/>
<path d="M8.84805 18.0869H0.635742C1.30968 23.2605 4.45474 27.6574 8.84812 30.0545L8.84805 18.0869Z" fill="#0052B4"/>
<path d="M13.0225 18.087V31.6197C14.1424 31.8679 15.3061 32 16.5007 32C24.6299 32 31.3426 25.9374 32.3653 18.0869H13.0225V18.087Z" fill="#0052B4"/>
</g>
<defs>
<clipPath id="clip0_1412_36085">
<rect width="32" height="32" fill="white" transform="translate(0.5)"/>
</clipPath>
</defs>
</svg>
