<svg width="33" height="32" viewBox="0 0 33 32" fill="none" xmlns="http://www.w3.org/2000/svg">
<g clip-path="url(#clip0_1412_36095)">
<mask id="mask0_1412_36095" style="mask-type:luminance" maskUnits="userSpaceOnUse" x="0" y="0" width="33" height="32">
<path d="M16.5 32C25.3366 32 32.5 24.8366 32.5 16C32.5 7.16344 25.3366 0 16.5 0C7.66344 0 0.5 7.16344 0.5 16C0.5 24.8366 7.66344 32 16.5 32Z" fill="white"/>
</mask>
<g mask="url(#mask0_1412_36095)">
<path d="M0.5 0H32.5V32H0.5V0Z" fill="#E30A17"/>
<path d="M20.3085 16L27.5458 13.648L23.0765 19.8026V12.1973L27.5458 18.352L20.3085 16ZM20.8045 20.2666C18.4471 24.0053 13.5085 25.1253 9.7698 22.768C6.03113 20.4106 4.91113 15.472 7.26847 11.7333C9.6258 7.99463 14.5645 6.87463 18.3031 9.23197C19.3111 9.86663 20.1698 10.7253 20.8045 11.7333C18.4365 9.1093 14.3885 8.90663 11.7645 11.28C9.14047 13.6533 8.9378 17.696 11.3111 20.32C13.6685 22.928 17.6951 23.1466 20.3191 20.8C20.4898 20.608 20.6498 20.448 20.8045 20.2666Z" fill="white"/>
</g>
</g>
<defs>
<clipPath id="clip0_1412_36095">
<rect width="32" height="32" fill="white" transform="translate(0.5)"/>
</clipPath>
</defs>
</svg>
