<svg width="32" height="32" viewBox="0 0 32 32" fill="none" xmlns="http://www.w3.org/2000/svg">
<g clip-path="url(#clip0_1412_35976)">
<path fill-rule="evenodd" clip-rule="evenodd" d="M2.13872 24.0055C3.72123 26.745 6.08039 28.9538 8.918 30.3529C11.7556 31.7519 14.9443 32.2782 18.081 31.8654C21.2177 31.4526 24.1616 30.1192 26.5406 28.0336C28.9196 25.948 30.6269 23.204 31.4467 20.1483C32.2665 17.0926 32.1621 13.8625 31.1465 10.8661C30.1309 7.86983 28.2498 5.24185 25.741 3.31439C23.2322 1.38692 20.2083 0.246484 17.0515 0.0372378C13.8946 -0.172008 10.7466 0.559329 8.00538 2.1388C4.33347 4.26589 1.65428 7.76158 0.554667 11.8602C-0.54495 15.9587 0.024653 20.326 2.13872 24.0055Z" fill="white"/>
<path d="M2.13827 24.0053C2.28227 24.2506 2.43159 24.4907 2.58092 24.7254H29.4023C29.9158 23.9321 30.3584 23.095 30.7249 22.224H1.25293C1.51081 22.8356 1.80649 23.4305 2.13827 24.0053Z" fill="#F1F2F2"/>
<path d="M19.5625 4.74132H27.3865C26.5897 3.93952 25.7101 3.22441 24.7625 2.60799C24.5758 2.48532 24.3838 2.36269 24.1918 2.24536H19.5892V4.74132H19.5625Z" fill="#F1F2F2"/>
<path d="M19.5674 9.73873H30.73C30.4777 9.1404 30.1892 8.55798 29.866 7.99472C29.7167 7.73872 29.562 7.46143 29.3967 7.23743H19.5674V9.73873Z" fill="#F1F2F2"/>
<path d="M19.5674 14.736H31.9514C31.8866 13.8931 31.7546 13.0567 31.5567 12.2347H19.5674V14.736Z" fill="#F1F2F2"/>
<path d="M0.0478516 17.2321C0.109511 18.0729 0.237916 18.9075 0.431852 19.728H31.5465C31.7431 18.9076 31.8751 18.0731 31.9412 17.2321H0.0478516Z" fill="#F1F2F2"/>
<path d="M7.22603 29.3708C7.40736 29.4881 7.58869 29.6054 7.75936 29.7174H24.2394L24.7407 29.4027C25.7062 28.7726 26.6003 28.0394 27.4074 27.2161H4.59668C5.39437 28.0254 6.27577 28.7476 7.22603 29.3708Z" fill="#F1F2F2"/>
<path d="M4.59705 27.2214H27.3864C28.1352 26.4587 28.8053 25.6226 29.3864 24.7255H2.58105C3.16672 25.6236 3.8422 26.4599 4.59705 27.2214Z" fill="#E10E00"/>
<path d="M19.5625 7.23736H29.3918C28.8013 6.33829 28.1205 5.50191 27.3598 4.74133H19.5625V7.23736Z" fill="#E10E00"/>
<path d="M19.5625 2.24541H24.1865C22.7554 1.40391 21.2029 0.788629 19.5838 0.421387V2.24541H19.5625Z" fill="#E10E00"/>
<path d="M19.5625 9.73865V12.2347H31.5518C31.3458 11.3812 31.0693 10.5463 30.7252 9.73865H19.5625Z" fill="#E10E00"/>
<path d="M19.5625 14.7361V17.2321H31.9412C32.0062 16.4014 32.0062 15.5668 31.9412 14.7361H19.5625Z" fill="#E10E00"/>
<path d="M1.25298 22.2241H30.7196C31.0624 21.4159 31.3389 20.5811 31.5463 19.728H0.431641C0.635936 20.5813 0.91066 21.4162 1.25298 22.2241Z" fill="#E10E00"/>
<path d="M7.83405 29.7601C10.3177 31.2247 13.148 31.998 16.0314 32C18.8399 32.0097 21.6006 31.2735 24.0314 29.8667L24.1861 29.7601L24.2554 29.7174H7.77539L7.83405 29.7601Z" fill="#E10E00"/>
<path d="M19.5626 14.7361V0.426743C18.4028 0.158347 17.217 0.0188191 16.0266 0.0107275C13.929 -0.000544801 11.8499 0.403664 9.90927 1.20005L10.0853 1.76542H10.7626L10.2293 2.17075L10.4426 2.83208L9.90927 2.4214L9.37593 2.83208L9.58393 2.17075L9.05059 1.76542H9.7226L9.89327 1.23208C9.25558 1.49574 8.63561 1.80036 8.03726 2.14406L7.87727 2.24009C7.66927 2.36276 7.47193 2.49074 7.26926 2.61874C5.23018 3.95391 3.52575 5.74049 2.28793 7.84009L2.42126 8.25611H3.09859L2.56526 8.66138L2.77859 9.32277L2.24525 8.9121L1.71192 9.32277L1.91993 8.66138H1.88793C1.20371 9.9873 0.706538 11.4016 0.410602 12.864L0.522597 13.2214H1.19992L0.666591 13.6267L0.874599 14.2827L0.341266 13.8721L0.255931 13.9361C0.109372 15.0355 0.077204 16.1473 0.159935 17.2534H19.6746V14.7574L19.5626 14.7361ZM2.71993 15.8934L2.18659 15.4881L1.65326 15.8934L1.86127 15.2321L1.32794 14.8267H1.99992L2.20793 14.1708L2.41592 14.8267H3.09327L2.55993 15.2321L2.71993 15.8934ZM2.5066 11.9681L2.71993 12.6241L2.18659 12.2187L1.65326 12.6241L1.86127 11.9681L1.32794 11.5627H1.99992L2.20793 10.9014L2.41592 11.5627H3.09327L2.5066 11.9681ZM4.63993 14.2774L4.1066 13.8667L3.57326 14.2774L3.78659 13.6214L3.25326 13.2161H3.93059L4.1386 12.5601L4.34659 13.2161H5.02393L4.4906 13.6214L4.63993 14.2774ZM4.43192 10.3521L4.63993 11.0081L4.1066 10.6027L3.57326 11.0081L3.78659 10.3521L3.25326 9.95207H3.93059L4.1386 9.29608L4.34659 9.95207H5.02393L4.43192 10.3521ZM4.43192 7.08807L4.63993 7.7494L4.1066 7.33872L3.57326 7.7494L3.78659 7.08807L3.25326 6.68273H3.93059L4.1386 6.0214L4.34659 6.68273H5.02393L4.43192 7.08807ZM6.58659 15.8934L6.05326 15.4881L5.51993 15.8934L5.72794 15.2321L5.1946 14.8267H5.87193L6.07992 14.1708L6.28793 14.8267H6.96526L6.43192 15.2321L6.58659 15.8934ZM6.37859 11.9681L6.58659 12.6241L6.05326 12.2187L5.51993 12.6241L5.72794 11.9681L5.1946 11.5627H5.87193L6.07992 10.9014L6.28793 11.5627H6.96526L6.37859 11.9681ZM6.37859 8.68273L6.58659 9.34406L6.05326 8.93338L5.51993 9.34406L5.72794 8.68273L5.1946 8.27739H5.87193L6.07992 7.62141L6.28793 8.27739H6.96526L6.37859 8.68273ZM6.37859 5.48273L6.58659 6.13872L6.05326 5.73338L5.51993 6.13872L5.72794 5.48273L5.1946 5.07739H5.87193L6.07992 4.4214L6.28793 5.07739H6.96526L6.37859 5.48273ZM8.51192 14.3041L7.97859 13.8934L7.44525 14.3041L7.6586 13.6481L7.12527 13.2428H7.80259L8.0106 12.5868L8.21859 13.2428H8.89592L8.36259 13.6481L8.51192 14.3041ZM8.30393 10.3788L8.51192 11.0348L7.97859 10.6294L7.44525 11.0348L7.6586 10.3788L7.12527 9.97876H7.80259L8.0106 9.32277L8.21859 9.97876H8.89592L8.30393 10.3788ZM8.30393 7.11476L8.51192 7.77609L7.97859 7.36542L7.44525 7.77609L7.6586 7.11476L7.12527 6.70943H7.80259L8.0106 6.0481L8.21859 6.70943H8.89592L8.30393 7.11476ZM8.30393 3.85077L8.51192 4.50676L7.97859 4.10142L7.44525 4.50676L7.6586 3.85077L7.12527 3.44543H7.80259L8.0106 2.7841L8.21859 3.44543H8.89592L8.30393 3.85077ZM10.4373 15.9201L9.90393 15.5148L9.37059 15.9201L9.57859 15.2588L9.04525 14.8534H9.71726L9.92527 14.1974L10.1333 14.8534H10.8106L10.2773 15.2588L10.4373 15.9201ZM10.2239 11.9947L10.4373 12.6508L9.90393 12.2454L9.37059 12.6508L9.57859 11.9947L9.04525 11.5894H9.71726L9.92527 10.928L10.1333 11.5894H10.8106L10.2239 11.9947ZM10.2239 8.70943L10.4373 9.37075L9.90393 8.96008L9.37059 9.37075L9.57859 8.70943L9.04525 8.30409H9.71726L9.92527 7.6481L10.1333 8.30409H10.8106L10.2239 8.70943ZM10.2239 5.50943L10.4373 6.16542L9.90393 5.76008L9.37059 6.16542L9.57859 5.50943L9.04525 5.10409H9.71726L9.92527 4.4481L10.1333 5.10409H10.8106L10.2239 5.50943ZM12.3573 14.3307L11.8239 13.9201L11.2906 14.3307L11.4986 13.6747L10.9653 13.2694H11.6426L11.8506 12.6134L12.0533 13.2694H12.7306L12.1973 13.6747L12.3573 14.3307ZM12.1439 10.4054L12.3573 11.0614L11.8239 10.6561L11.2906 11.0614L11.4986 10.4054L10.9653 10.0054H11.6426L11.8506 9.3494L12.0533 10.0054H12.7306L12.1439 10.4054ZM12.1439 7.14139L12.3573 7.80272L11.8239 7.39211L11.2906 7.80272L11.4986 7.14139L10.9653 6.73605H11.6426L11.8506 6.07473L12.0533 6.73605H12.7306L12.1439 7.14139ZM12.1439 3.87739L12.3573 4.53338L11.8239 4.12805L11.2906 4.53338L11.4986 3.87739L10.9653 3.47206H11.6426L11.8506 2.81073L12.0533 3.47206H12.7306L12.1439 3.87739ZM14.3359 15.9467L13.8026 15.5414L13.2693 15.9467L13.4773 15.2854L12.9439 14.8801H13.6213L13.8239 14.2241L14.0319 14.8801H14.7093L14.1759 15.2854L14.3359 15.9467ZM14.1279 12.0214L14.3359 12.6774L13.8026 12.2721L13.2693 12.6774L13.4773 12.0214L12.9439 11.6161H13.6213L13.8239 10.9547L14.0319 11.6161H14.7093L14.1279 12.0214ZM14.1279 8.73605L14.3359 9.39738L13.8026 8.98677L13.2693 9.39738L13.4773 8.73605L12.9439 8.33072H13.6213L13.8239 7.67473L14.0319 8.33072H14.7093L14.1279 8.73605ZM14.1279 5.53605L14.3359 6.19211L13.8026 5.78677L13.2693 6.19211L13.4773 5.53605L12.9439 5.13071H13.6213L13.8239 4.47473L14.0319 5.13071H14.7093L14.1279 5.53605ZM14.1279 2.26138L14.3359 2.92277L13.8026 2.51209L13.2693 2.92277L13.4773 2.26138L12.9439 1.85611H13.6213L13.8239 1.20005L14.0319 1.85611H14.7093L14.1279 2.26138ZM16.2613 14.3521L15.7279 13.9414L15.1946 14.3521L15.4026 13.6961L14.8693 13.2907H15.5466L15.7546 12.6348L15.9626 13.2907H16.6346L16.1013 13.6961L16.2613 14.3521ZM16.0533 10.4267L16.2613 11.0827L15.7279 10.6774L15.1946 11.0827L15.4026 10.4267L14.8693 10.0267H15.5466L15.7546 9.37075L15.9626 10.0267H16.6346L16.0533 10.4267ZM16.0533 7.16275L16.2613 7.82407L15.7279 7.4134L15.1946 7.82407L15.4026 7.16275L14.8693 6.75741H15.5466L15.7546 6.09608L15.9626 6.75741H16.6346L16.0533 7.16275ZM16.0533 3.89875L16.2613 4.55474L15.7279 4.1494L15.1946 4.55474L15.4026 3.89875L14.8693 3.49341H15.5466L15.7546 2.83208L15.9626 3.49341H16.6346L16.0533 3.89875ZM18.1866 15.9681L17.6533 15.5627L17.1199 15.9681L17.3333 15.3068L16.7999 14.9014H17.4719L17.6799 14.2454L17.8879 14.9014H18.5653L18.0319 15.3068L18.1866 15.9681ZM17.9786 12.0428L18.1866 12.6987L17.6533 12.2934L17.1199 12.6987L17.3333 12.0428L16.7999 11.6374H17.4719L17.6799 10.9761L17.8879 11.6374H18.5653L17.9786 12.0428ZM17.9786 8.75741L18.1866 9.41874L17.6533 9.00806L17.1199 9.41874L17.3333 8.75741L16.7999 8.35207H17.4719L17.6799 7.69608L17.8879 8.35207H18.5653L17.9786 8.75741ZM17.9786 5.55741L18.1866 6.2134L17.6533 5.80806L17.1199 6.2134L17.3333 5.55741L16.7999 5.15207H17.4719L17.6799 4.49608L17.8879 5.15207H18.5653L17.9786 5.55741ZM17.9786 2.28273L18.1866 2.94406L17.6533 2.53338L17.1199 2.94406L17.3333 2.28273L16.7999 1.87739H17.4719L17.6799 1.2214L17.8879 1.87739H18.5653L17.9786 2.28273Z" fill="#000D7F"/>
<path d="M13.7648 1.104L13.5568 1.76534L12.8848 1.76L13.4288 2.16534L13.2208 2.82667L13.7648 2.41067L14.3088 2.82667L14.1008 2.16534L14.6501 1.76L13.9728 1.76534L13.7648 1.104Z" fill="#F1F2F2"/>
<path d="M17.6056 1.104L17.3976 1.76534L16.7256 1.76L17.2749 2.16534L17.0616 2.82667L17.6056 2.41067L18.1549 2.82667L17.9469 2.16534L18.4909 1.76L17.8189 1.76534L17.6056 1.104Z" fill="#F1F2F2"/>
<path d="M9.0021 1.76007L9.53543 2.16541L9.32744 2.82673L9.86077 2.41606L10.3941 2.82673L10.1808 2.16541L10.7141 1.76007H10.0368L9.86077 1.1947L9.79676 1.22673L9.62611 1.76007H8.9541H9.0021Z" fill="#F1F2F2"/>
<path d="M13.7648 4.37341L13.5568 5.02941H12.8848L13.4288 5.43475L13.2208 6.09075L13.7648 5.68541L14.3088 6.09075L14.1008 5.43475L14.6501 5.02941H13.9728L13.7648 4.37341Z" fill="#F1F2F2"/>
<path d="M9.88826 4.37341L9.67493 5.02941H9.00293L9.55226 5.43475L9.34426 6.09075L9.88826 5.68541L10.4323 6.09075L10.2189 5.43475L10.7683 5.02941H10.0909L9.88826 4.37341Z" fill="#F1F2F2"/>
<path d="M17.6056 4.37341L17.3976 5.02941H16.7256L17.2749 5.43475L17.0616 6.09075L17.6056 5.68541L18.1549 6.09075L17.9469 5.43475L18.4909 5.02941H17.8189L17.6056 4.37341Z" fill="#F1F2F2"/>
<path d="M6.04256 4.37341L5.83456 5.02941H5.15723L5.70656 5.43475L5.49856 6.09075L6.04256 5.68541L6.59189 6.09075L6.37856 5.43475L6.92789 5.02941H6.25056L6.04256 4.37341Z" fill="#F1F2F2"/>
<path d="M1.62598 9.32277L2.15931 8.91209L2.69264 9.32277L2.4793 8.66138L3.01263 8.2561H2.3353L2.20197 7.84009C2.0473 8.10142 1.89798 8.37342 1.75931 8.63475H1.79131L1.62598 9.32277Z" fill="#F1F2F2"/>
<path d="M17.6056 7.6001L17.3976 8.2561H16.7256L17.2749 8.66143L17.0616 9.31743L17.6056 8.9121L18.1549 9.31743L17.9469 8.66143L18.4909 8.2561H17.8189L17.6056 7.6001Z" fill="#F1F2F2"/>
<path d="M9.88826 7.6001L9.67493 8.2561H9.00293L9.55226 8.66143L9.34426 9.31743L9.88826 8.9121L10.4323 9.31743L10.2189 8.66143L10.7683 8.2561H10.0909L9.88826 7.6001Z" fill="#F1F2F2"/>
<path d="M13.7648 7.6001L13.5568 8.2561H12.8848L13.4288 8.66143L13.2208 9.31743L13.7648 8.9121L14.3088 9.31743L14.1008 8.66143L14.6501 8.2561H13.9728L13.7648 7.6001Z" fill="#F1F2F2"/>
<path d="M6.04256 7.6001L5.83456 8.2561H5.15723L5.70656 8.66143L5.49856 9.31743L6.04256 8.9121L6.59189 9.31743L6.37856 8.66143L6.92789 8.2561H6.25056L6.04256 7.6001Z" fill="#F1F2F2"/>
<path d="M17.6056 10.88L17.3976 11.5413H16.7256L17.2749 11.9467L17.0616 12.6027L17.6056 12.1973L18.1549 12.6027L17.9469 11.9467L18.4909 11.5413H17.8189L17.6056 10.88Z" fill="#F1F2F2"/>
<path d="M13.7648 10.88L13.5568 11.5413H12.8848L13.4288 11.9467L13.2208 12.6027L13.7648 12.1973L14.3088 12.6027L14.1008 11.9467L14.6501 11.5413H13.9728L13.7648 10.88Z" fill="#F1F2F2"/>
<path d="M2.17004 10.88L1.96204 11.5413H1.29004L1.83937 11.9467L1.62604 12.6027L2.17004 12.1973L2.71937 12.6027L2.50604 11.9467L3.05537 11.5413H2.37804L2.17004 10.88Z" fill="#F1F2F2"/>
<path d="M9.88826 10.88L9.67493 11.5413H9.00293L9.55226 11.9467L9.34426 12.6027L9.88826 12.1973L10.4323 12.6027L10.2189 11.9467L10.7683 11.5413H10.0909L9.88826 10.88Z" fill="#F1F2F2"/>
<path d="M6.04256 10.88L5.83456 11.5413H5.15723L5.70656 11.9467L5.49856 12.6027L6.04256 12.1973L6.59189 12.6027L6.37856 11.9467L6.92789 11.5413H6.25056L6.04256 10.88Z" fill="#F1F2F2"/>
<path d="M13.9728 14.8107L13.7648 14.1494L13.5568 14.8107L12.8848 14.8054L13.4288 15.2107L13.2208 15.8721L13.7648 15.4614L14.3088 15.8721L14.1008 15.2107L14.6501 14.8054L13.9728 14.8107Z" fill="#F1F2F2"/>
<path d="M2.37804 14.8107L2.17004 14.1494L1.96204 14.8107L1.29004 14.8054L1.83937 15.2107L1.62604 15.8721L2.17004 15.4614L2.71937 15.8721L2.50604 15.2107L3.05537 14.8054L2.37804 14.8107Z" fill="#F1F2F2"/>
<path d="M10.0909 14.8107L9.88826 14.1494L9.67493 14.8107L9.00293 14.8054L9.55226 15.2107L9.34426 15.8721L9.88826 15.4614L10.4323 15.8721L10.2189 15.2107L10.7683 14.8054L10.0909 14.8107Z" fill="#F1F2F2"/>
<path d="M17.8189 14.8107L17.6056 14.1494L17.3976 14.8107L16.7256 14.8054L17.2749 15.2107L17.0616 15.8721L17.6056 15.4614L18.1549 15.8721L17.9469 15.2107L18.4909 14.8054L17.8189 14.8107Z" fill="#F1F2F2"/>
<path d="M6.25056 14.8107L6.04256 14.1494L5.83456 14.8107L5.15723 14.8054L5.70656 15.2107L5.49856 15.8721L6.04256 15.4614L6.59189 15.8721L6.37856 15.2107L6.92789 14.8054L6.25056 14.8107Z" fill="#F1F2F2"/>
<path d="M11.9894 13.1947L11.7867 12.5387L11.5787 13.1947H10.9014L11.4507 13.6L11.2427 14.256L11.7867 13.8454L12.3307 14.256L12.1227 13.6L12.6667 13.1947H11.9894Z" fill="#F1F2F2"/>
<path d="M4.28279 13.1947L4.07479 12.5387L3.86679 13.1947H3.18945L3.73879 13.6L3.52545 14.256L4.07479 13.8454L4.61879 14.256L4.41079 13.6L4.96012 13.1947H4.28279Z" fill="#F1F2F2"/>
<path d="M8.15486 13.1947L7.94152 12.5387L7.73352 13.1947H7.06152L7.61086 13.6L7.39752 14.256L7.94152 13.8454L8.49086 14.256L8.28286 13.6L8.82686 13.1947H8.15486Z" fill="#F1F2F2"/>
<path d="M15.8775 13.1947L15.6695 12.5387L15.4562 13.1947H14.7842L15.3335 13.6L15.1202 14.256L15.6695 13.8454L16.2135 14.256L16.0055 13.6L16.5495 13.1947H15.8775Z" fill="#F1F2F2"/>
<path d="M0.778141 14.2561L0.57015 13.6L1.10348 13.1947H0.426156L0.314144 12.8374C0.243033 13.193 0.18259 13.5485 0.132812 13.9041L0.218148 13.8401L0.778141 14.2561Z" fill="#F1F2F2"/>
<path d="M11.7867 9.27478L11.5787 9.93078H10.9014L11.4507 10.3308L11.2427 10.9921L11.7867 10.5868L12.3307 10.9921L12.1227 10.3308L12.6667 9.93078H11.9894L11.7867 9.27478Z" fill="#F1F2F2"/>
<path d="M4.07479 9.27478L3.86679 9.93078H3.18945L3.73879 10.3308L3.52545 10.9921L4.07479 10.5868L4.61879 10.9921L4.41079 10.3308L4.96012 9.93078H4.28279L4.07479 9.27478Z" fill="#F1F2F2"/>
<path d="M7.94152 9.27478L7.73352 9.93078H7.06152L7.61086 10.3308L7.39752 10.9921L7.94152 10.5868L8.49086 10.9921L8.28286 10.3308L8.82686 9.93078H8.15486L7.94152 9.27478Z" fill="#F1F2F2"/>
<path d="M15.6695 9.27478L15.4562 9.93078H14.7842L15.3335 10.3308L15.1202 10.9921L15.6695 10.5868L16.2135 10.9921L16.0055 10.3308L16.5495 9.93078H15.8775L15.6695 9.27478Z" fill="#F1F2F2"/>
<path d="M11.7867 6.00537L11.5787 6.66137H10.9014L11.4507 7.0667L11.2427 7.7227L11.7867 7.31737L12.3307 7.7227L12.1227 7.0667L12.6667 6.66137H11.9894L11.7867 6.00537Z" fill="#F1F2F2"/>
<path d="M4.07479 6.00537L3.86679 6.66137H3.18945L3.73879 7.0667L3.52545 7.7227L4.07479 7.31737L4.61879 7.7227L4.41079 7.0667L4.96012 6.66137H4.28279L4.07479 6.00537Z" fill="#F1F2F2"/>
<path d="M7.94152 6.00537L7.73352 6.66137H7.06152L7.61086 7.0667L7.39752 7.7227L7.94152 7.31737L8.49086 7.7227L8.28286 7.0667L8.82686 6.66137H8.15486L7.94152 6.00537Z" fill="#F1F2F2"/>
<path d="M15.6695 6.00537L15.4562 6.66137H14.7842L15.3335 7.0667L15.1202 7.7227L15.6695 7.31737L16.2135 7.7227L16.0055 7.0667L16.5495 6.66137H15.8775L15.6695 6.00537Z" fill="#F1F2F2"/>
<path d="M11.7867 2.74146L11.5787 3.40279L10.9014 3.39746L11.4507 3.80279L11.2427 4.45879L11.7867 4.05346L12.3307 4.45879L12.1227 3.80279L12.6667 3.39746L11.9894 3.40279L11.7867 2.74146Z" fill="#F1F2F2"/>
<path d="M7.94152 2.74146L7.73352 3.40279L7.06152 3.39746L7.61086 3.80279L7.39752 4.45879L7.94152 4.05346L8.49086 4.45879L8.28286 3.80279L8.82686 3.39746L8.15486 3.40279L7.94152 2.74146Z" fill="#F1F2F2"/>
<path d="M15.6695 2.74146L15.4562 3.40279L14.7842 3.39746L15.3335 3.80279L15.1202 4.45879L15.6695 4.05346L16.2135 4.45879L16.0055 3.80279L16.5495 3.39746L15.8775 3.40279L15.6695 2.74146Z" fill="#F1F2F2"/>
</g>
<defs>
<clipPath id="clip0_1412_35976">
<rect width="32" height="32" fill="white"/>
</clipPath>
</defs>
</svg>
