<?xml version="1.0" encoding="utf-8"?><svg xmlns="http://www.w3.org/2000/svg" xmlns:xlink="http://www.w3.org/1999/xlink">
    <symbol viewBox="0 0 6 8" id="arrow" xmlns="http://www.w3.org/2000/svg">
        <path d="M5.25 4.433a.5.5 0 0 0 0-.866L.75.969a.5.5 0 0 0-.75.433v5.196a.5.5 0 0 0 .75.433l4.5-2.598Z" />
    </symbol>
    <symbol viewBox="0 0 12 12" id="arrow-2" xmlns="http://www.w3.org/2000/svg">
        <path d="m4.591 10.348-.53-.53L7.879 6 4.061 2.18l.53-.53L8.94 6 4.59 10.348Z" />
    </symbol>
    <symbol viewBox="0 0 32 32" id="auto" xmlns="http://www.w3.org/2000/svg">
        <path d="M19.76 21.368V7.728c0-.955-.772-1.728-1.727-1.728H3.728C2.773 6 2 6.773 2 7.728v14.306c0 .955.773 1.728 1.728 1.728h3.138m5.472-.001a2.735 2.735 0 1 1-5.471 0 2.735 2.735 0 0 1 5.47 0Zm0 0h8.04m7.475 0h.734c.78 0 1.413-.632 1.413-1.413v-3.142a2.81 2.81 0 0 0-.822-1.985l-4.03-4.03a2.81 2.81 0 0 0-1.985-.823h-3.4m8.09 11.393a2.735 2.735 0 1 1-5.471 0 2.735 2.735 0 0 1 5.47 0Zm-5.289-10.22v2.683a1.3 1.3 0 0 0 1.3 1.3h5.576" />
        <path d="M14.449 10.434a2.14 2.14 0 0 1-1.91 3.106h-.981m1.834-4.104a2.124 2.124 0 0 0-.854-.176h-2.86v4.28H6.866m2.812 2.02v3.523m3.93-2.876H6.867M4.95 20.643 17.121 7.561" />
    </symbol>
    <symbol viewBox="0 0 24 24" id="bucket" xmlns="http://www.w3.org/2000/svg">
        <path d="M21 5h-5V3a2 2 0 0 0-2-2h-4a2 2 0 0 0-2 2v2H3v2h1.91l1.355 15h11.47L19.09 7H21V5ZM10 3h4v2h-4V3Zm5.908 17H8.092L6.918 7h10.164l-1.174 13Z" />
    </symbol>
    <symbol viewBox="0 0 24 24" id="cart" xmlns="http://www.w3.org/2000/svg">
        <path d="M7 19a1.25 1.25 0 1 0 0 2.5A1.25 1.25 0 0 0 7 19Zm11 0a1.25 1.25 0 1 0 0 2.5 1.25 1.25 0 0 0 0-2.5Zm0-1.002v-1.5l-10.129-.01-.428-1.721L20 12.363 20 5H5.014l-.498-2H1v1.5h2.343l3.355 13.488 11.302.01Z" />
    </symbol>
    <symbol viewBox="0 0 36 36" id="cart-2" xmlns="http://www.w3.org/2000/svg">
        <path d="M10.5 28.5a1.875 1.875 0 1 0 0 3.75 1.875 1.875 0 0 0 0-3.75Zm16.5 0a1.875 1.875 0 1 0 0 3.75 1.875 1.875 0 0 0 0-3.75Zm0-1.503v-2.25l-15.193-.014-.643-2.583 18.837-3.605L30 7.5H7.52l-.746-3H1.5v2.25h3.515l5.032 20.232L27 26.997ZM8.08 9.75h19.67v6.934l-17.13 3.28-2.416-9.716-.124-.498Z" />
    </symbol>
    <symbol viewBox="0 0 32 32" id="certificate" xmlns="http://www.w3.org/2000/svg">
        <path d="M15.73 24.894H6V5h15.65v11.833M8.841 8.536h9.968M8.84 11.26h9.968M8.84 13.985h9.968M8.84 16.71h4.984" />
        <path d="M17.699 26.08a.813.813 0 0 0 1.298.504.812.812 0 0 1 1.122.123.812.812 0 0 0 1.376-.212.812.812 0 0 1 1.033-.454.812.812 0 0 0 1.086-.871.811.811 0 0 1 .666-.91.813.813 0 0 0 .504-1.298.814.814 0 0 1 .123-1.122.812.812 0 0 0-.212-1.376.812.812 0 0 1-.454-1.032.812.812 0 0 0-.872-1.087.811.811 0 0 1-.91-.666.813.813 0 0 0-1.298-.503.814.814 0 0 1-1.121-.123.812.812 0 0 0-1.377.212.812.812 0 0 1-1.032.454.812.812 0 0 0-1.086.871.811.811 0 0 1-.667.91.813.813 0 0 0-.503 1.298.814.814 0 0 1-.123 1.122.812.812 0 0 0 .212 1.376.812.812 0 0 1 .454 1.032.812.812 0 0 0 .871 1.087.811.811 0 0 1 .91.666Z" />
    </symbol>
    <symbol viewBox="0 0 10 8" id="check" xmlns="http://www.w3.org/2000/svg">
        <path fill-rule="evenodd" clip-rule="evenodd" d="M3.315 7.858.133 4.441a.506.506 0 0 1 0-.684l.643-.683a.437.437 0 0 1 .642 0l2.219 2.392L8.58.141a.437.437 0 0 1 .643 0l.643.684a.504.504 0 0 1 0 .682l-5.91 6.351a.437.437 0 0 1-.642 0Z" />
    </symbol>
    <symbol viewBox="0 0 32 32" id="clock" xmlns="http://www.w3.org/2000/svg">
        <circle cx="15.997" cy="16" r="12.005" />
        <path d="M20.607 17.535 16 16V7.997" />
    </symbol>
    <symbol viewBox="0 0 32 32" id="close" xmlns="http://www.w3.org/2000/svg">
        <path d="M24 8 8 24M8 8l16 16" />
    </symbol>
    <symbol viewBox="0 0 36 36" id="compare" xmlns="http://www.w3.org/2000/svg">
        <path d="M4.5 4.5v27h27v-27h-27Zm24.75 24.75H6.75V6.75h22.5v22.5ZM12.75 18H10.5v7.5h2.25V18Zm6.375-7.5h-2.25v15h2.25v-15ZM25.5 15h-2.25v10.5h2.25V15Z" />
    </symbol>
    <symbol viewBox="0 0 24 24" id="compare-fill" xmlns="http://www.w3.org/2000/svg">
        <path fill-rule="evenodd" clip-rule="evenodd" d="M19.5 19.5h-15v-15h15v15ZM7 12h1.5v5H7v-5Zm4.25-5h1.5v10h-1.5V7Zm4.25 3H17v7h-1.5v-7Z" />
        <path fill-rule="evenodd" clip-rule="evenodd" d="M3 21V3h18v18H3Zm1.5-1.5h15v-15h-15v15Z" />
    </symbol>
    <symbol viewBox="0 0 32 32" id="copy" xmlns="http://www.w3.org/2000/svg">
        <path d="M22.37 4H6v20.809M21.225 28H9.537V7.191h16.37V23.32L21.225 28Z" />
    </symbol>
    <symbol viewBox="0 0 24 25" id="cross" xmlns="http://www.w3.org/2000/svg">
        <path d="m17 7.583-10 10m0-10 10 10" />
    </symbol>
    <symbol viewBox="0 0 33 32" id="currency" xmlns="http://www.w3.org/2000/svg">
        <path d="M22.87 4H6.5v20.809M21.725 28H10.037V7.191h16.37V23.32L21.725 28Z" />
        <path d="M14.156 16.97h5.394a2.115 2.115 0 1 0 0-4.23h-2.827v4.232m0 2.635v2.844m-2.567-2.844h6.45" />
    </symbol>
    <symbol viewBox="0 0 24 24" id="download" xmlns="http://www.w3.org/2000/svg">
        <path d="M11 5.414V16h2V5.414l3.293 3.293 1.414-1.414L12 1.586 6.293 7.293l1.414 1.414L11 5.414ZM3 19v2h18v-2H3Z" />
    </symbol>
    <symbol viewBox="0 0 42 42" id="factory" xmlns="http://www.w3.org/2000/svg">
        <path d="M35.023 36.75H7.391a.85.85 0 0 1-.829-.829V6.08a.85.85 0 0 1 .83-.829h5.415a.85.85 0 0 1 .83.829v10.776l6.244-3.04a.886.886 0 0 1 .829.056c.22.166.387.442.387.718v2.266l6.244-3.04a.886.886 0 0 1 .83.056c.276.166.386.442.386.718v2.266l6.245-3.04a.886.886 0 0 1 .829.056c.221.166.387.442.387.718v21.387c-.166.442-.553.774-.995.774ZM8.22 35.092h25.974V15.916l-6.245 3.04a.886.886 0 0 1-.829-.056c-.22-.166-.386-.442-.386-.718v-2.266l-6.245 3.04a.886.886 0 0 1-.83-.056c-.22-.166-.386-.442-.386-.718v-2.266l-6.134 3.04a.886.886 0 0 1-.83-.056c-.22-.166-.386-.442-.386-.718V6.908H8.165v28.184h.055Z" />
        <path d="M15.574 26.969h-.387a.436.436 0 0 1-.442-.442c0-.277.166-.443.442-.443h.387c.221 0 .442.166.442.443a.436.436 0 0 1-.442.442ZM18.332 26.969h-.387a.436.436 0 0 1-.442-.442c0-.277.166-.442.442-.442h.387c.221 0 .442.165.442.442a.436.436 0 0 1-.442.442ZM21.155 26.969h-.387a.436.436 0 0 1-.442-.442c0-.277.166-.442.442-.442h.387c.22 0 .442.165.442.442a.436.436 0 0 1-.442.442ZM23.923 26.969h-.386a.436.436 0 0 1-.443-.442c0-.277.166-.442.442-.442h.387c.221 0 .442.165.442.442a.436.436 0 0 1-.442.442ZM10.876 12.324a.436.436 0 0 1-.443-.442V8.013c0-.22.166-.442.443-.442.276 0 .442.166.442.442v3.869c-.056.276-.221.442-.442.442ZM10.876 15.474a.436.436 0 0 1-.443-.442v-1.326c0-.221.166-.443.443-.443.276 0 .442.166.442.443v1.326c-.056.276-.221.442-.442.442Z" />
    </symbol>
    <symbol viewBox="0 0 32 32" id="fast-cart" xmlns="http://www.w3.org/2000/svg">
        <path d="M4 6.044h3.384a2.16 2.16 0 0 1 2.092 1.591l3.186 11.671a2.16 2.16 0 0 0 2.436 1.572l11.096-1.866A2.16 2.16 0 0 0 28 16.892v-3.766c0-.894-.727-1.62-1.62-1.62H14.86m-3.071 18.468a2.82 2.82 0 0 0 2.822-2.82 2.82 2.82 0 0 0-2.82-2.822h-.002a2.82 2.82 0 0 0 0 5.642Zm12.869 0a2.82 2.82 0 0 0 2.822-2.82 2.82 2.82 0 0 0-2.82-2.822h-.002a2.82 2.82 0 0 0 0 5.642ZM25.868 3.869c1 1.06 1.613 2.49 1.613 4.063m-11.852 0c0-4.237 4.321-7.091 8.204-5.472m-1.846 5.064 5.255-4.948m-5.094 5.356a.594.594 0 1 1-1.187 0 .594.594 0 0 1 1.188 0Z" />
    </symbol>
    <symbol viewBox="0 0 24 24" id="google" xmlns="http://www.w3.org/2000/svg">
        <path d="M12 10.182v3.872h5.382a4.611 4.611 0 0 1-2.01 3.01l3.246 2.518c1.891-1.746 2.982-4.31 2.982-7.355 0-.709-.064-1.39-.182-2.045H12Z" />
        <path d="m6.397 13.903-.732.56-2.59 2.019C4.72 19.745 8.091 22 12 22c2.7 0 4.964-.89 6.618-2.418l-3.245-2.518c-.891.6-2.027.963-3.373.963-2.6 0-4.809-1.754-5.6-4.118l-.004-.006Z" />
        <path d="M3.073 7.518A9.877 9.877 0 0 0 2 12c0 1.618.39 3.136 1.073 4.482C3.073 16.49 6.4 13.9 6.4 13.9c-.2-.6-.318-1.236-.318-1.9 0-.664.118-1.3.318-1.9L3.073 7.518ZM12.002 5.982c1.472 0 2.781.509 3.827 1.49l2.863-2.863C16.956 2.991 14.702 2 12.002 2 8.091 2 4.72 4.245 3.073 7.518L6.401 10.1c.791-2.364 3-4.118 5.6-4.118Z" />
    </symbol>
    <symbol viewBox="0 0 24 24" id="grid" xmlns="http://www.w3.org/2000/svg">
        <path d="M3 11h8V3H3v8Zm2-6h4v4H5V5Zm8-2v8h8V3h-8Zm6 6h-4V5h4v4ZM3 21h8v-8H3v8Zm2-6h4v4H5v-4Zm8 6h8v-8h-8v8Zm2-6h4v4h-4v-4Z" />
    </symbol>
    <symbol viewBox="0 0 36 36" id="heart" xmlns="http://www.w3.org/2000/svg">
        <path d="M25.003 6.75c4.242 0 5.747 3.48 5.747 6.458 0 5.181-7.041 12.83-12.75 17.04-5.709-4.21-12.75-11.858-12.75-17.04 0-2.979 1.505-6.458 5.747-6.458a6.648 6.648 0 0 1 5.208 3.137L18 12.264l1.795-2.377a6.646 6.646 0 0 1 5.208-3.137Zm0-2.25A8.838 8.838 0 0 0 18 8.531 8.838 8.838 0 0 0 10.997 4.5C5.935 4.5 3 8.399 3 13.208 3 20.333 12.688 29.438 18 33c5.313-3.562 15-12.667 15-19.792 0-4.81-2.935-8.708-7.997-8.708Z" />
    </symbol>
    <symbol viewBox="0 0 16 16" id="help" xmlns="http://www.w3.org/2000/svg">
        <path d="M6.063 6a2 2 0 0 1 3.886.667c0 1.333-2 2-2 2m.054 2.667h.006M14.67 8A6.667 6.667 0 1 1 1.336 8a6.667 6.667 0 0 1 13.333 0Z" />
    </symbol>
    <symbol viewBox="0 0 15 14" id="info" xmlns="http://www.w3.org/2000/svg">
        <path d="M7.5 3.996a.67.67 0 1 0 0 1.342.67.67 0 0 0 0-1.342Zm0-2.829a5.833 5.833 0 1 0 0 11.667 5.833 5.833 0 0 0 0-11.667Zm0 10.5a4.667 4.667 0 1 1 0-9.333 4.667 4.667 0 0 1 0 9.333Zm-.554-1.75h1.108V6.125H6.946v3.792Z" />
    </symbol>
    <symbol viewBox="0 0 42 42" id="knitwear" xmlns="http://www.w3.org/2000/svg">
        <path d="m37.702 9.803-7.495-4.195-.09-.052h-.045l-.103-.045-5.478-1.566a.683.683 0 0 0-.2 0h-.09a.644.644 0 0 0-.239.11 4.795 4.795 0 0 1-5.877 0 .645.645 0 0 0-.284-.11h-.09a.697.697 0 0 0-.2 0h-.032l-5.472 1.547a.548.548 0 0 0-.142.058L4.267 9.803a.644.644 0 0 0-.251.87l3.345 6.084a.644.644 0 0 0 .644.329l3.093-.252c-.502 3.932-.747 16.84-.78 18.432a.644.644 0 0 0 .51.645l6.992 1.547a.644.644 0 0 0 .729-.374l2.436-5.614 2.436 5.6a.644.644 0 0 0 .593.388h.135l6.993-1.521a.645.645 0 0 0 .509-.645c0-1.592-.277-14.5-.78-18.432l3.126.239a.644.644 0 0 0 .644-.33l3.345-6.083a.643.643 0 0 0-.284-.883Zm-13.875-4.15c.084.921.07 2.34-.645 3.222a2.616 2.616 0 0 1-2.197.902 2.616 2.616 0 0 1-2.198-.883c-.715-.902-.728-2.32-.644-3.222a6.077 6.077 0 0 0 5.684-.02ZM8.289 15.77l-2.836-5.156L12 6.948c2.481 3.641.187 7.586-.477 8.572l-3.235.251Zm16.111 20.3-2.822-6.476a.645.645 0 0 0-1.186 0l-2.816 6.477-5.956-1.29c.097-4.974.407-16.446.858-18.36a11.84 11.84 0 0 0 1.572-3.364 7.94 7.94 0 0 0-.799-6.574l3.628-1.005c-.11 1.128-.096 2.945.91 4.208a3.622 3.622 0 0 0 2.551 1.347v6.11h-1.456a.645.645 0 1 0 0 1.289h2.1a.645.645 0 0 0 .645-.645v-6.754a3.621 3.621 0 0 0 2.578-1.34c1.005-1.29 1.018-3.081.909-4.209l3.635 1.038a7.92 7.92 0 0 0-.812 6.56 11.486 11.486 0 0 0 1.546 3.32c.458 1.791.767 13.392.864 18.406l-5.948 1.263Zm9.28-20.3-3.221-.245c-.645-.986-2.926-4.962-.484-8.571l6.542 3.66-2.836 5.156Z" />
        <path d="M23.042 12.252a.56.56 0 1 0 0 1.121.56.56 0 0 0 0-1.12ZM23.042 15.197a.561.561 0 1 0 .001 1.123.561.561 0 0 0 0-1.123Z" />
    </symbol>
    <symbol viewBox="0 0 20 20" id="location" xmlns="http://www.w3.org/2000/svg">
        <path d="m9.207 15.68 5.558-9.921c.408-.728-.183-1.437-.972-1.167L3.026 8.272c-.907.31-1.06 1.515-.222 1.732l4.341 1.124.318 4.457c.062.866 1.275.932 1.744.096Z" />
    </symbol>
    <symbol viewBox="0 0 24 24" id="lock" xmlns="http://www.w3.org/2000/svg">
        <path d="M17 9V6A5 5 0 0 0 7 6v3H3v14h18V9h-4Zm-4 8a1 1 0 0 1-2 0v-2a1 1 0 0 1 2 0v2Zm2-8H9V6a3 3 0 1 1 6 0v3Z" />
    </symbol>
    <symbol viewBox="0 0 24 24" id="medal" xmlns="http://www.w3.org/2000/svg">
        <path d="M11.34 11.061 4.997 2 1.414 6.083l5.47 7.814a5.984 5.984 0 0 1 4.456-2.836ZM18.997 2l-6.337 9.054a5.981 5.981 0 0 1 4.45 2.845l5.47-7.816L18.998 2Zm-4.72 5 3.5-5H6.218l3.5 5h4.559Zm-2.28 5a5 5 0 1 0 0 10 5 5 0 0 0 0-10Z" />
    </symbol>
    <symbol viewBox="0 0 32 32" id="menu" xmlns="http://www.w3.org/2000/svg">
        <path d="M7.328 16h17.34M7.328 21.335h17.34M7.328 10.665h17.34" />
    </symbol>
    <symbol viewBox="0 0 24 24" id="ok" xmlns="http://www.w3.org/2000/svg">
        <path d="M12.105 0a6.224 6.224 0 0 0-6.23 6.22c0 3.434 2.79 6.219 6.23 6.219 3.44 0 6.23-2.785 6.23-6.22 0-3.434-2.79-6.219-6.23-6.219Zm0 8.79a2.573 2.573 0 0 1-2.576-2.57c0-1.42 1.153-2.572 2.576-2.572A2.573 2.573 0 0 1 14.68 6.22a2.573 2.573 0 0 1-2.575 2.571ZM14.303 17.387c2.494-.507 3.989-1.686 4.068-1.75a1.69 1.69 0 0 0 .262-2.376 1.696 1.696 0 0 0-2.381-.262c-.016.013-1.61 1.233-4.233 1.235-2.622-.002-4.25-1.222-4.265-1.235a1.696 1.696 0 0 0-2.382.262 1.69 1.69 0 0 0 .262 2.377c.08.064 1.637 1.274 4.2 1.77l-3.573 3.727A1.689 1.689 0 0 0 7.481 24a1.69 1.69 0 0 0 1.219-.517l3.32-3.53 3.654 3.553c.662.66 1.735.659 2.396-.002.66-.661.66-1.732-.002-2.392l-3.765-3.724Z" />
    </symbol>
    <symbol viewBox="0 0 15 14" id="out" xmlns="http://www.w3.org/2000/svg">
        <path d="M11.583 11.083H3.417V2.917H5.75V1.75h-3.5v10.5h10.5v-3.5h-1.167v2.333ZM7.5 1.75v1.167h3.259L5.92 7.754l.825.825 4.837-4.837V7h1.167V1.75H7.5Z" />
    </symbol>
    <symbol viewBox="0 0 24 24" id="pencil" xmlns="http://www.w3.org/2000/svg">
        <path d="m20.586 4.585-1.172-1.171a3.002 3.002 0 0 0-4.242 0L3 15.585V21h5.414L20.586 8.828a3.002 3.002 0 0 0 0-4.243ZM7.586 19H5v-2.586l9-9L16.586 10l-9 9ZM19.172 7.413 18 8.585 15.414 6l1.172-1.172a1.003 1.003 0 0 1 1.414 0L19.172 6a1.003 1.003 0 0 1 0 1.413Z" />
    </symbol>
    <symbol viewBox="0 0 24 28" id="percent" xmlns="http://www.w3.org/2000/svg">
        <path d="M7.176 19.67 17.26 8.322M17.721 19.285a.694.694 0 0 1-.01.896.522.522 0 0 1-.796-.004.694.694 0 0 1-.003-.896.522.522 0 0 1 .796-.01l.013.014M6.725 8.715a.694.694 0 0 1 .01-.896.522.522 0 0 1 .796.004c.22.247.221.647.003.896a.522.522 0 0 1-.796.01l-.013-.014" />
    </symbol>
    <symbol viewBox="0 0 36 36" id="phone" xmlns="http://www.w3.org/2000/svg">
        <path d="M12.059 23.94a25.405 25.405 0 0 1-6.87-12.525 4.439 4.439 0 0 1 3.062-5.078l2.422-.775 2.728 5.214-2.5 2.5-1.158 1.157.745 1.457a21.932 21.932 0 0 0 9.62 9.621l1.459.745 1.157-1.157 2.5-2.5 5.212 2.727-.774 2.423a4.439 4.439 0 0 1-5.077 3.06 25.407 25.407 0 0 1-12.526-6.869Zm-1.591 1.592A27.614 27.614 0 0 0 24.1 33.007a6.678 6.678 0 0 0 7.704-4.573l1.35-4.225-8.354-4.37-3.668 3.669a19.68 19.68 0 0 1-8.641-8.641l3.668-3.669-4.37-8.355-4.225 1.351a6.677 6.677 0 0 0-4.573 7.704 27.613 27.613 0 0 0 7.476 13.634Z" />
    </symbol>
    <symbol viewBox="0 0 24 24" id="picture" xmlns="http://www.w3.org/2000/svg">
        <path d="M3 3v18h18V3H3Zm16 16H5v-1.398l3.502-3.107.938.837 1.327 1.181 1.33-1.177 3.13-2.772L19 15.887V19Zm0-5.779-3.775-3.325-4.454 3.943-2.267-2.02L5 14.929V5h14v8.221ZM8.5 10a1.5 1.5 0 1 0 0-3 1.5 1.5 0 0 0 0 3Z" />
    </symbol>
    <symbol viewBox="0 0 22 26" id="play" xmlns="http://www.w3.org/2000/svg">
        <path d="M21 14.732c1.333-.77 1.333-2.694 0-3.464L3 .876c-1.333-.77-3 .192-3 1.732v20.784c0 1.54 1.667 2.502 3 1.732l18-10.392Z" />
    </symbol>
    <symbol viewBox="0 0 25 24" id="qr-code" xmlns="http://www.w3.org/2000/svg">
        <path d="M8.5 6h-2v2h2V6Z" />
        <path d="M3.5 5.5A2.5 2.5 0 0 1 6 3h3a2.5 2.5 0 0 1 2.5 2.5v3A2.5 2.5 0 0 1 9 11H6a2.5 2.5 0 0 1-2.5-2.5v-3ZM6 5a.5.5 0 0 0-.5.5v3A.5.5 0 0 0 6 9h3a.5.5 0 0 0 .5-.5v-3A.5.5 0 0 0 9 5H6ZM6.5 16h2v2h-2v-2Z" />
        <path d="M3.5 15.5A2.5 2.5 0 0 1 6 13h3a2.5 2.5 0 0 1 2.5 2.5v3A2.5 2.5 0 0 1 9 21H6a2.5 2.5 0 0 1-2.5-2.5v-3ZM6 15a.5.5 0 0 0-.5.5v3a.5.5 0 0 0 .5.5h3a.5.5 0 0 0 .5-.5v-3A.5.5 0 0 0 9 15H6ZM18.5 6h-2v2h2V6Z" />
        <path d="M16 3a2.5 2.5 0 0 0-2.5 2.5v3A2.5 2.5 0 0 0 16 11h3a2.5 2.5 0 0 0 2.5-2.5v-3A2.5 2.5 0 0 0 19 3h-3Zm-.5 2.5A.5.5 0 0 1 16 5h3a.5.5 0 0 1 .5.5v3a.5.5 0 0 1-.5.5h-3a.5.5 0 0 1-.5-.5v-3ZM13.5 13h2.75v2.75H13.5V13ZM18.75 15.75h-2.5v2.5H13.5V21h2.75v-2.75h2.5V21h2.75v-2.75h-2.75v-2.5ZM18.75 15.75V13h2.75v2.75h-2.75Z" />
    </symbol>
    <symbol viewBox="0 0 32 32" id="search" xmlns="http://www.w3.org/2000/svg">
        <path d="m29.375 27.96-7.825-7.824a10.67 10.67 0 1 0-1.413 1.413l7.824 7.825 1.414-1.414ZM4.668 13.333A8.667 8.667 0 1 1 13.335 22a8.677 8.677 0 0 1-8.667-8.667Z" />
    </symbol>
    <symbol viewBox="0 0 24 24" id="settings" xmlns="http://www.w3.org/2000/svg">
        <path d="M3 8h12m0 0a3 3 0 1 0 6 0 3 3 0 0 0-6 0Zm-6 8h12M9 16a3 3 0 1 1-6 0 3 3 0 0 1 6 0Z" />
    </symbol>
    <symbol viewBox="0 0 32 32" id="shirt" xmlns="http://www.w3.org/2000/svg">
        <path d="M19.382 5h4.839L30 8.048l-2.894 5.417-2.823-1.312v14.683H7.717V12.154l-2.823 1.313L2 8.049l5.78-3.048h3.686A4.654 4.654 0 0 0 16 8.571c1.608 0 3.03-.814 3.867-2.052" />
        <path d="m12.99 13.599 1.024-1.118h3.974l1.024 1.118-3.01 3.767L12.99 13.6Z" />
    </symbol>
    <symbol viewBox="0 0 42 42" id="sock" xmlns="http://www.w3.org/2000/svg">
        <path d="M13.689 18.892c1.697 1.293 3.593 2.486 3.617 4.808.021 1.98-2.058 4.231-3.115 5.796" />
        <path d="M18.958 8.17c-1.523 2.266-2.565 4.802-3.692 7.278-1.197 2.625-2.574 5.311-3.35 8.1-.616 2.217 1.67 4.693 2.654 6.527 1.298 2.418 2.707 4.762 4.37 6.953 1.872 2.47 4.854 3.102 7.545 1.36 2.655-1.72 3.076-4.421 2.25-7.255-.484-1.652-1.105-3.26-1.753-4.852-.556-1.358-.965-2.265-.597-3.734.589-2.347 1.875-4.497 3.08-6.572.479-.825.814-1.737 1.065-2.658-4.093-1.109-7.804-3.263-11.572-5.147Z" />
        <path d="M16.368 13.063c1.78 1.194 3.63 2.521 5.628 3.32 1.987.796 4.108 1.314 6.176 1.848M18.493 36.463c1.144-1.39 2.59-3.381 4.317-4.048 1.736-.672 4.223-.286 6.055-.21M18.822 7.727c.813-1.822 1.642-5.537-.958-5.06-3.788.698-.333 4.011.958 5.06Z" />
    </symbol>
    <symbol viewBox="0 0 29 27" id="star" xmlns="http://www.w3.org/2000/svg">
        <path d="M14.034 1.596a.5.5 0 0 1 .932 0l2.87 7.428a1.5 1.5 0 0 0 1.317.957l7.951.433a.5.5 0 0 1 .288.887l-6.178 5.024a1.5 1.5 0 0 0-.503 1.55l2.045 7.695a.5.5 0 0 1-.754.549l-6.688-4.324a1.5 1.5 0 0 0-1.628 0l-6.688 4.323a.5.5 0 0 1-.754-.548l2.045-7.696a1.5 1.5 0 0 0-.503-1.549l-6.178-5.024a.5.5 0 0 1 .288-.887l7.951-.433a1.5 1.5 0 0 0 1.318-.957l2.869-7.428Z" />
    </symbol>
    <symbol viewBox="0 0 12 13" id="star-sm" xmlns="http://www.w3.org/2000/svg">
        <path d="M5.067 1.415c.33-.853 1.536-.853 1.866 0l.851 2.205a1 1 0 0 0 .879.639l2.36.128c.913.05 1.286 1.198.577 1.774L9.766 7.653a1 1 0 0 0-.336 1.032l.607 2.285c.235.883-.741 1.593-1.51 1.096l-1.984-1.283a1 1 0 0 0-1.086 0l-1.985 1.283c-.768.497-1.744-.213-1.51-1.096l.608-2.285a1 1 0 0 0-.336-1.032L.401 6.16c-.71-.576-.337-1.724.576-1.774l2.36-.128a1 1 0 0 0 .879-.639l.851-2.205Z" />
    </symbol>
    <symbol viewBox="0 0 32 32" id="sun" xmlns="http://www.w3.org/2000/svg">
        <path d="M17 4h-2v4h2V4Zm-5.95 5.636L8.222 6.808 6.808 8.222l2.828 2.828 1.414-1.414ZM8 15H4v2h4v-2Zm-1.192 8.778 1.414 1.413 2.828-2.828-1.413-1.413-2.829 2.828ZM15 28h2v-4h-2v4Zm5.95-5.636 2.828 2.828 1.413-1.413-2.828-2.828-1.413 1.413ZM24 15v2h4v-2h-4Zm1.192-6.778-1.413-1.414-2.83 2.828 1.414 1.414 2.829-2.828ZM16 10.667a5.333 5.333 0 1 0 0 10.666 5.333 5.333 0 0 0 0-10.666Z" />
    </symbol>
    <symbol viewBox="0 0 24 24" id="telegram" xmlns="http://www.w3.org/2000/svg">
        <path fill-rule="evenodd" clip-rule="evenodd" d="M1.375 11.135c5.369-2.339 8.949-3.88 10.74-4.626 5.114-2.127 6.177-2.497 6.87-2.509.152-.003.493.035.713.214.186.151.238.356.262.499.025.143.055.47.031.725-.277 2.912-1.476 9.979-2.086 13.24-.259 1.38-.767 1.843-1.259 1.888-1.07.099-1.882-.706-2.917-1.385-1.621-1.063-2.537-1.724-4.11-2.761-1.818-1.198-.64-1.857.396-2.933.272-.282 4.984-4.568 5.075-4.957.011-.048.022-.23-.086-.325-.107-.096-.266-.063-.381-.037-.163.037-2.752 1.748-7.768 5.134-.735.505-1.4.75-1.997.738-.658-.014-1.923-.372-2.863-.677-1.153-.375-2.07-.574-1.99-1.21.041-.332.498-.671 1.37-1.018Z" />
    </symbol>
    <symbol viewBox="0 0 42 42" id="tights" xmlns="http://www.w3.org/2000/svg">
        <path d="M35.485 35.959c-4.691-.16-6.299-8.721-6.316-8.813l-3.296-16.829c.487-1.824.382-3.498-.907-4.897-3.478-3.793-14.214-2.902-19.24-2.05a.572.572 0 0 0-.476.563v10.949c0 .299.23.545.522.574 3.55.32 7.893.306 11.357-.488-.19 1.41-.252 3.827.11 6.396.55 3.887-1.178 5.764-1.385 5.971-1.636 1.24-1.383 3.4.753 6.42.994 1.375.685 4.343 3.864 5.42.419.143.81.2 1.165.2 1.867 0 3.37-2.037 2.457-2.555l-.998-.574c-1.715-1.32-1.193-5.512-1.2-5.57-.167-1.268.172-3.766.712-6.59 1.137 1.979 1.347 4.36.878 6.66-.281 1.383-.132 2.486.454 3.272 1.348 1.82 2.063-.12 5.322 3.4 2.42 2.625 6.532 1.806 6.78-.833.012-.161-.231-.626-.556-.626Zm-23.253-21.52a42.41 42.41 0 0 1-5.834-.085V4.427a60.061 60.061 0 0 1 6.569-.62C11.319 7.4 11.8 12.023 12.232 14.44Zm3.117-.315c-.48.087-1.48.193-1.963.235-.38-2.095-1.005-7.102.872-10.575.5-.008 1.393.006 2.232.05-.861 1.839-2.001 5.402-1.14 10.29Zm6.368 8.52c-.696 3.459-2.373 13.012.775 14.584l.522.298c-.327.425-1.01.953-2.176.557-2.49-.843-2.158-3.372-3.29-4.99-1.745-2.462-2.067-4.053-.976-4.856.017-.018.035-.03.052-.046.098-.092 2.417-2.314 1.751-6.988-.565-4.072-.468-8.841 2.6-11.598a.58.58 0 0 0 .041-.815.572.572 0 0 0-.81-.04c-1.843 1.653-2.595 4.07-2.824 4.972-.201.052-.506.126-.902.207-.884-4.995.448-8.475 1.258-10.013 2.681.252 5.115.901 6.384 2.279 2.084 2.282.148 3.758-2.405 16.45Zm8.388 13.998c-3.317-3.592-4.374-2.1-5.254-3.319-.367-.51-.453-1.32-.24-2.348.723-3.55-.17-6.6-1.695-8.463.718-3.49 1.654-7.222 2.286-9.657l2.836 14.503c.069.373 1.642 8.727 6.654 9.663-.659 1.07-3.01 1.329-4.587-.379Z" />
    </symbol>
    <symbol viewBox="0 0 36 36" id="user" xmlns="http://www.w3.org/2000/svg">
        <path d="M18 15.645a5.875 5.875 0 1 0-5.875-5.874A5.881 5.881 0 0 0 18 15.645Zm0-9.5a3.625 3.625 0 1 1 0 7.25 3.625 3.625 0 0 1 0-7.25Zm11.56 16.952a16.24 16.24 0 0 0-8.345-4.457L18 23.114l-3.216-4.474a16.24 16.24 0 0 0-8.345 4.457l-.439.44V31.5h24v-7.964l-.44-.44Zm-1.81 6.153H8.25v-4.769c.033-.03.14-.134.174-.164a13.728 13.728 0 0 1 5.492-3.137l1.806 2.474 1.587 2.18.691.945.705-.964 1.568-2.153 1.811-2.482c2.05.604 3.93 1.679 5.492 3.138.034.03.14.133.174.164v4.768Z" />
    </symbol>
    <symbol viewBox="0 0 32 32" id="user-lock" xmlns="http://www.w3.org/2000/svg">
        <path d="M21.781 5.59A11.793 11.793 0 0 0 15.85 4C9.305 4 4 9.306 4 15.85 4 22.393 9.306 27.7 15.85 27.7s11.849-5.306 11.849-11.85a11.83 11.83 0 0 0-.711-4.054m-4.96 14.28a6.18 6.18 0 0 0-12.36 0M20.024 12.54a4.175 4.175 0 1 1-8.351 0 4.175 4.175 0 0 1 8.35 0Z" />
        <path d="M27.38 5.88a1.774 1.774 0 0 0-3.548.052v1.75m3.455-.005c.393 0 .713.318.713.713v2.695a.713.713 0 0 1-.713.712h-3.37a.713.713 0 0 1-.712-.712V8.39c0-.393.319-.713.713-.713h3.37Z" />
    </symbol>
    <symbol viewBox="0 0 25 24" id="vk" xmlns="http://www.w3.org/2000/svg">
        <path d="M13.08 19.485C4.875 19.485.195 13.86 0 4.5h4.11c.135 6.87 3.165 9.78 5.565 10.38V4.5h3.87v5.925c2.37-.255 4.86-2.955 5.7-5.925h3.87c-.645 3.66-3.345 6.36-5.265 7.47 1.92.9 4.995 3.255 6.165 7.515h-4.26c-.915-2.85-3.195-5.055-6.21-5.355v5.355h-.465Z" />
    </symbol>
    <symbol viewBox="0 0 24 24" id="whatsapp" xmlns="http://www.w3.org/2000/svg">
        <path fill-rule="evenodd" clip-rule="evenodd" d="m7.654 18.572.334.198a8.027 8.027 0 0 0 9.696-1.176 7.96 7.96 0 0 0 1.339-9.646 7.998 7.998 0 0 0-3.865-3.407 8.03 8.03 0 0 0-5.147-.35A8.007 8.007 0 0 0 5.72 7.044a7.965 7.965 0 0 0-1.655 4.872 7.873 7.873 0 0 0 1.17 4.137l.21.344-.804 2.976 3.014-.8Zm7.427-5.61c.245.055.474.166.67.323.384.225 1.011.502 1.113.97.043.228.013.464-.085.676a2.364 2.364 0 0 1-1.786 1.324 3.764 3.764 0 0 1-1.973-.31 8.197 8.197 0 0 1-1.697-.806 9.628 9.628 0 0 1-2.72-2.514 10.657 10.657 0 0 1-.627-.952 5.171 5.171 0 0 1-.6-1.381 2.55 2.55 0 0 1-.078-.62 2.485 2.485 0 0 1 .865-1.973 1.132 1.132 0 0 1 1.215-.186c.386.325.67.754.82 1.235.194.343.284.734.26 1.127-.106.356-.3.68-.565.941a.383.383 0 0 0-.051.53 6.4 6.4 0 0 0 3.2 2.734.352.352 0 0 0 .452-.102c.238-.287.475-.862.843-1.014.244-.058.499-.058.744-.003Z" />
        <path fill-rule="evenodd" clip-rule="evenodd" d="m2 22.005 1.436-5.332A9.849 9.849 0 0 1 2.4 9.846a9.872 9.872 0 0 1 3.702-5.835 9.927 9.927 0 0 1 12.951.836 9.853 9.853 0 0 1 1.006 12.899 9.908 9.908 0 0 1-5.804 3.767 9.933 9.933 0 0 1-6.861-.945L2 22.005Zm5.988-3.235-.334-.198-3.014.8.803-2.975-.209-.344a7.873 7.873 0 0 1-1.17-4.137 7.965 7.965 0 0 1 1.655-4.872 8.007 8.007 0 0 1 4.292-2.853 8.03 8.03 0 0 1 5.147.35 7.998 7.998 0 0 1 3.865 3.407 7.96 7.96 0 0 1-1.339 9.646 8.027 8.027 0 0 1-9.697 1.176Z" />
    </symbol>
</svg>