<svg width="72" height="52" viewBox="0 0 72 52" fill="none" xmlns="http://www.w3.org/2000/svg">
<rect width="72" height="52" rx="26" fill="black"/>
<g clip-path="url(#clip0_475_90313)">
<path d="M36.45 32.717C35.6805 32.159 35.334 31.334 35.334 30.0845C35.334 28.514 35.814 26.579 36.6105 25.7465C37.1685 25.187 37.965 24.9215 39.0555 24.9215C40.5975 24.9215 42.4845 25.3265 43.281 26.1455C43.8135 26.678 44.0535 27.422 44.0535 28.46C44.0535 29.951 43.6275 32.0525 42.696 32.93C42.165 33.41 41.448 33.6215 40.4385 33.6215C39.0585 33.6215 37.3245 33.3005 36.45 32.717ZM43.23 36.017L43.0425 37.454L47.0535 37.949L48.954 22.4195L44.9445 21.926L44.757 23.432H44.2935C43.6935 22.3685 42.0855 20.93 39.0555 20.93C34.83 20.93 31.7205 24.044 31.161 28.2995C31.1092 28.715 31.0826 29.1333 31.0815 29.552C31.0815 33.6215 33.846 36.9755 38.151 37.454C38.391 37.4765 38.6295 37.484 38.8695 37.481C40.677 37.481 42.033 36.71 42.7245 36.0185H43.2285L43.23 36.017ZM25.113 14L22.5 34.9295L26.766 35.45L29.337 14.519L25.113 14Z" fill="white"/>
</g>
<rect width="72" height="52" rx="26" stroke="white"/>
<defs>
<clipPath id="clip0_475_90313">
<rect width="27" height="24" fill="white" transform="translate(22.5 14)"/>
</clipPath>
</defs>
</svg>
