<svg width="56" height="52" viewBox="0 0 56 52" fill="none" xmlns="http://www.w3.org/2000/svg">
<rect width="56" height="48" rx="24" fill="#0C989A"/>
<path fill-rule="evenodd" clip-rule="evenodd" d="M23.6343 18.6037C23.4799 18.5651 23.2792 18.21 23.1595 18.0826L22.3142 17.2064C22.2563 17.1562 22.2254 17.1253 22.1752 17.0713C21.6773 16.5656 21.0481 16.1564 20.4536 15.7704C20.3031 15.6739 19.2493 15.0679 19.1296 15.0679C18.9521 15.0679 18.0642 16.4343 18.0025 16.5386C17.6705 17.0983 17.3617 17.6773 17.1185 18.2833C16.4816 19.8775 16.0917 22.0237 16.3156 23.9538C16.4083 24.7567 16.5665 25.5634 16.8097 26.3316C17.0259 27.0225 17.3115 27.7019 17.6705 28.3427C18.1144 29.1378 18.624 29.8404 19.1991 30.5313C19.2493 30.5892 19.2918 30.6278 19.3497 30.6819C19.4076 30.7398 19.423 30.7591 19.477 30.8247L19.5465 30.9058C19.809 31.2068 20.2143 31.5311 20.527 31.7974C20.6273 31.8824 20.747 31.9673 20.8551 32.0406C21.8819 32.7393 22.8855 33.2874 24.2326 33.2874C25.217 33.2874 26.0778 32.9207 26.5989 32.2105C27.0852 31.5465 27.0196 30.6741 26.4753 30.0797C26.0585 29.6242 25.2324 29.5007 24.6843 29.7863L24.3098 30.0488C24.306 30.0527 24.2983 30.0604 24.2944 30.0643C23.9123 30.431 23.7154 31.0061 23.8389 31.5427C23.6459 31.4153 23.2792 31.0524 23.1325 30.8594C22.4184 29.9407 21.9977 28.9564 21.9977 27.7328C21.9977 26.6481 22.4454 25.6869 23.1981 25.189C23.9393 24.6988 24.7769 24.4633 25.6918 24.7296C25.9195 24.7953 26.2013 24.9497 26.3441 24.9805C26.3055 24.8146 26.209 24.6563 26.1627 24.4672C25.8693 23.3246 26.3055 22.0971 27.2319 21.3984C27.394 21.2749 27.78 21.0162 27.9769 21.0047C28.1197 20.9969 28.5868 21.2903 28.7103 21.3752C29.3665 21.8307 29.9069 22.6877 29.9069 23.5948C29.9069 23.9924 29.8645 24.3591 29.7371 24.7258C29.6985 24.8416 29.6599 24.8802 29.6329 24.9844C29.7796 24.9497 30.0459 24.803 30.2621 24.7374C30.6944 24.61 31.2425 24.6061 31.698 24.6988C32.0995 24.7798 32.4276 24.9419 32.7441 25.1658C33.987 26.0459 34.1685 27.5745 33.8211 28.9603C33.601 29.8404 33.1494 30.5776 32.5279 31.1991C32.4083 31.3188 32.2809 31.4462 32.1419 31.5388C32.1497 31.1258 32.3118 30.7127 31.7173 30.0913C31.7135 30.0874 31.7057 30.0797 31.7019 30.0758C30.926 29.2961 29.6252 29.5817 29.1813 30.5699C29.023 30.9251 29.0037 31.3072 29.1156 31.6932C29.4129 32.7045 30.6597 33.2913 31.7173 33.2913C33.2189 33.2913 34.6047 32.5463 35.7009 31.5928L36.4729 30.8556C36.4768 30.8517 36.4845 30.844 36.4884 30.8401C36.4922 30.8363 36.5 30.8286 36.5038 30.8247L36.7123 30.6124C36.9516 30.3653 37.1562 30.0913 37.3646 29.8134C38.0787 28.8638 38.5381 27.9721 38.982 26.8681C39.8196 24.803 39.893 22.4097 39.4606 20.2288C39.1518 18.6693 38.4261 17.0481 37.4727 15.782C37.3993 15.6855 36.9439 15.0679 36.886 15.0679C36.6505 15.0679 35.5658 15.7357 35.2725 15.9325C34.871 16.1989 34.4618 16.4729 34.1144 16.7972C33.8519 17.0404 33.5509 17.2681 33.3154 17.5383L32.609 18.3412C32.5395 18.43 32.4662 18.569 32.3542 18.5998C32.3542 18.1212 32.1304 17.1832 31.9721 16.7161C31.5784 15.5504 31.3082 14.9289 30.6828 13.8674C30.4512 13.4737 30.1733 13.1108 29.8954 12.7518C29.8375 12.6785 29.7911 12.6167 29.7332 12.5511C29.4051 12.1767 28.4401 11.1113 27.9731 10.8643C27.699 11.0495 27.394 11.3352 27.1663 11.5668L26.6066 12.1265C26.5294 12.2076 26.5062 12.2539 26.4252 12.3388C26.3518 12.416 26.3325 12.4585 26.2592 12.5357C25.5682 13.2614 24.7615 14.6973 24.3986 15.6006C24.1014 16.3533 23.8698 17.1253 23.7115 17.932C23.6807 18.1405 23.6343 18.3644 23.6343 18.6037Z" fill="white"/>
<path fill-rule="evenodd" clip-rule="evenodd" d="M42.9418 21.4755C42.9418 21.792 42.9148 21.9966 42.9109 22.2938C42.9071 22.8574 42.7256 24.0772 42.6214 24.5404C42.5674 24.7759 42.5211 25.0152 42.4632 25.2275C42.2817 25.8721 42.1003 26.5438 41.8263 27.1575C41.4904 27.9064 41.3283 28.1959 40.9886 28.8598C40.6373 29.5546 40.0815 30.2726 39.6028 30.8864C39.2439 31.3457 38.5413 32.1177 38.1592 32.4343L36.7425 33.5884C35.986 34.1443 35.1676 34.5882 34.33 35.0128C33.9478 35.2058 33.5348 35.3525 33.1141 35.5185C32.701 35.6806 32.2687 35.7925 31.8287 35.9238C31.4427 36.0357 30.8135 36.1862 30.4043 36.221C30.5703 36.5337 30.7208 36.6688 30.8829 37.0702C31.1145 37.6415 31.1454 38.3672 30.991 38.9809C30.9215 39.2589 30.7749 39.4943 30.7363 39.6642C31.4697 39.6024 32.8361 39.1778 33.5039 38.9578C35.3413 38.3517 37.0436 37.3481 38.5413 36.1399L39.0161 35.7385C39.4137 35.4374 40.4212 34.3952 40.7377 33.986C41.6062 32.8589 42.1312 32.2606 42.8415 30.8323C43.0383 30.4425 43.2275 30.0603 43.3896 29.6589C44.0226 28.1148 44.4704 26.509 44.6055 24.7682C44.6441 24.247 44.6904 23.641 44.6943 23.1045C44.6943 22.9192 44.6673 22.869 44.6634 22.7146C44.6595 22.5641 44.6673 22.4096 44.6673 22.2591C44.6557 21.3404 44.3971 20.1283 44.2041 19.2174C44.0149 18.3218 43.6752 17.4495 43.3317 16.6157C43.2468 16.4111 43.1541 16.222 43.0576 16.0135C42.4747 14.732 41.668 13.5238 40.757 12.4507C40.4559 12.0917 40.1394 11.7365 39.7997 11.4162C39.4291 11.0649 39.0624 10.7059 38.661 10.3778C37.9237 9.78335 37.144 9.23136 36.3218 8.75657C36.2291 8.70253 36.1404 8.66779 36.0439 8.60989C35.6887 8.39373 34.8627 8.00772 34.4497 8L34.662 8.11966C34.7392 8.15826 34.8009 8.18914 34.8858 8.2316L36.978 9.55561L38.6263 10.9877C38.827 11.2386 39.0817 11.4702 39.294 11.7095C39.8962 12.3889 40.4019 13.1339 40.8728 13.9098C41.9575 15.7008 42.7179 18.0169 42.8839 20.1476C42.9148 20.58 42.9418 21.0316 42.9418 21.4755Z" fill="white"/>
<path fill-rule="evenodd" clip-rule="evenodd" d="M11.3047 23.1971C11.3047 24.5867 11.4823 26.0381 11.8374 27.3776C11.9841 27.9334 12.1462 28.4738 12.3546 29.0065L13.1575 30.8323C13.8794 32.276 14.5047 33.0248 15.4697 34.233C15.543 34.3218 15.6202 34.3759 15.6897 34.4647C15.7785 34.5766 15.8171 34.6191 15.9213 34.7194C16.3189 35.117 16.7204 35.5185 17.145 35.8813L17.4075 36.1013C17.4962 36.1708 17.558 36.2287 17.6584 36.3059C17.7626 36.3831 17.8321 36.4372 17.9324 36.5182C18.3069 36.8232 18.9206 37.2516 19.3529 37.4832C20.0902 37.8808 20.7657 38.2861 21.5532 38.6065C21.6767 38.6567 21.7693 38.6914 21.9006 38.7455C22.6572 39.0504 24.4289 39.5986 25.2666 39.668C25.1816 39.2975 24.9037 39.0774 24.9037 38.1858C24.9037 37.5682 25.0504 37.1049 25.3361 36.6224C25.4248 36.4719 25.5252 36.36 25.5985 36.221C24.7069 36.1476 23.1165 35.615 22.302 35.2869C22.1013 35.2058 21.9044 35.1286 21.7114 35.0321C21.2328 34.7928 20.7464 34.5766 20.3102 34.2871L19.7891 33.959C19.3529 33.6888 18.9476 33.3723 18.55 33.0519C17.9054 32.5269 17.3727 31.9865 16.8092 31.3766C15.6511 30.1337 14.4854 28.1959 13.9566 26.5824C13.8871 26.3778 13.8176 26.1771 13.7404 25.9532C13.5937 25.517 13.474 25.0384 13.3814 24.5867C12.6982 21.186 13.1305 17.8123 14.6243 14.8246C14.7826 14.5119 14.9216 14.2417 15.103 13.9445L15.6395 13.0914C15.9561 12.6128 16.3189 12.1843 16.674 11.7404C16.8478 11.5242 17.0639 11.339 17.2376 11.1267C17.2415 11.1228 17.2453 11.1151 17.2492 11.1112C17.2531 11.1074 17.2569 11.0996 17.2646 11.0958L18.0367 10.3585C18.3184 10.1423 18.6234 9.84897 18.9824 9.58263C19.6463 9.08468 20.345 8.61375 21.09 8.24318C21.2251 8.17756 21.4258 8.10422 21.5416 8C21.283 8.02316 20.6576 8.31653 20.4029 8.43233C20.2176 8.51725 20.0516 8.60603 19.8779 8.69481L19.3452 8.98046C18.5307 9.46297 17.7394 9.99566 17.0292 10.621L16.62 10.9993C16.5544 11.0649 16.4965 11.1344 16.4231 11.1923C16.3305 11.2695 16.2996 11.2888 16.2108 11.3737C15.4079 12.1843 14.69 13.0721 14.0569 14.0217L13.4625 14.9983C13.3582 15.1836 13.2772 15.3419 13.1768 15.5271C13.1537 15.5657 13.1344 15.6082 13.1151 15.6468C12.5862 16.6041 12.1114 17.9011 11.8528 18.9472C11.7447 19.3795 11.6367 19.808 11.5633 20.2596C11.4243 21.1551 11.3047 22.151 11.3047 23.1971Z" fill="white"/>
<path fill-rule="evenodd" clip-rule="evenodd" d="M26.1699 38.1859C26.1699 38.4098 26.2548 38.7186 26.3205 38.8808C26.5559 39.4791 27.2353 40.0002 27.8336 40.0002C28.4898 40.0002 28.8604 39.9075 29.3506 39.4057C29.478 39.2745 29.6092 39.0545 29.6826 38.8615C29.9489 38.1782 29.7637 37.3174 29.2387 36.8697C29.231 36.8619 29.2117 36.8465 29.2039 36.8426C29.1731 36.8195 29.1615 36.8079 29.1383 36.7886C29.092 36.7539 29.065 36.7307 29.0187 36.696C28.5477 36.3447 27.8066 36.2714 27.2469 36.5416C27.1388 36.5956 27.0423 36.6419 26.9535 36.7037C26.776 36.8311 26.6293 36.9816 26.5057 37.163C26.3205 37.4448 26.1699 37.8231 26.1699 38.1859Z" fill="white"/>
<path d="M28 52L33.1962 47.5H22.8038L28 52Z" fill="#0C989A"/>
</svg>
