<svg width="96" height="92" viewBox="0 0 96 92" fill="none" xmlns="http://www.w3.org/2000/svg">
<g filter="url(#filter0_d_451_25987)">
<rect x="20" y="16" width="56" height="48" rx="24" fill="#0C989A" shape-rendering="crispEdges"/>
<path fill-rule="evenodd" clip-rule="evenodd" d="M43.6343 34.6037C43.4799 34.5651 43.2792 34.21 43.1595 34.0826L42.3142 33.2064C42.2563 33.1562 42.2254 33.1253 42.1752 33.0713C41.6773 32.5656 41.0481 32.1564 40.4536 31.7704C40.3031 31.6739 39.2493 31.0679 39.1296 31.0679C38.9521 31.0679 38.0642 32.4343 38.0025 32.5386C37.6705 33.0983 37.3617 33.6773 37.1185 34.2833C36.4816 35.8775 36.0917 38.0237 36.3156 39.9538C36.4083 40.7567 36.5665 41.5634 36.8097 42.3316C37.0259 43.0225 37.3115 43.7019 37.6705 44.3427C38.1144 45.1378 38.624 45.8404 39.1991 46.5313C39.2493 46.5892 39.2918 46.6278 39.3497 46.6819C39.4076 46.7398 39.423 46.7591 39.477 46.8247L39.5465 46.9058C39.809 47.2068 40.2143 47.5311 40.527 47.7974C40.6273 47.8824 40.747 47.9673 40.8551 48.0406C41.8819 48.7393 42.8855 49.2874 44.2326 49.2874C45.217 49.2874 46.0778 48.9207 46.5989 48.2105C47.0852 47.5465 47.0196 46.6741 46.4753 46.0797C46.0585 45.6242 45.2324 45.5007 44.6843 45.7863L44.3098 46.0488C44.306 46.0527 44.2983 46.0604 44.2944 46.0643C43.9123 46.431 43.7154 47.0061 43.8389 47.5427C43.6459 47.4153 43.2792 47.0524 43.1325 46.8594C42.4184 45.9407 41.9977 44.9564 41.9977 43.7328C41.9977 42.6481 42.4454 41.6869 43.1981 41.189C43.9393 40.6988 44.7769 40.4633 45.6918 40.7296C45.9195 40.7953 46.2013 40.9497 46.3441 40.9805C46.3055 40.8146 46.209 40.6563 46.1627 40.4672C45.8693 39.3246 46.3055 38.0971 47.2319 37.3984C47.394 37.2749 47.78 37.0162 47.9769 37.0047C48.1197 36.9969 48.5868 37.2903 48.7103 37.3752C49.3665 37.8307 49.9069 38.6877 49.9069 39.5948C49.9069 39.9924 49.8645 40.3591 49.7371 40.7258C49.6985 40.8416 49.6599 40.8802 49.6329 40.9844C49.7796 40.9497 50.0459 40.803 50.2621 40.7374C50.6944 40.61 51.2425 40.6061 51.698 40.6988C52.0995 40.7798 52.4276 40.9419 52.7441 41.1658C53.987 42.0459 54.1685 43.5745 53.8211 44.9603C53.601 45.8404 53.1494 46.5776 52.5279 47.1991C52.4083 47.3188 52.2809 47.4462 52.1419 47.5388C52.1497 47.1258 52.3118 46.7127 51.7173 46.0913C51.7135 46.0874 51.7057 46.0797 51.7019 46.0758C50.926 45.2961 49.6252 45.5817 49.1813 46.5699C49.023 46.9251 49.0037 47.3072 49.1156 47.6932C49.4129 48.7045 50.6597 49.2913 51.7173 49.2913C53.2189 49.2913 54.6047 48.5463 55.7009 47.5928L56.4729 46.8556C56.4768 46.8517 56.4845 46.844 56.4884 46.8401C56.4922 46.8363 56.5 46.8286 56.5038 46.8247L56.7123 46.6124C56.9516 46.3653 57.1562 46.0913 57.3646 45.8134C58.0787 44.8638 58.5381 43.9721 58.982 42.8681C59.8196 40.803 59.893 38.4097 59.4606 36.2288C59.1518 34.6693 58.4261 33.0481 57.4727 31.782C57.3993 31.6855 56.9439 31.0679 56.886 31.0679C56.6505 31.0679 55.5658 31.7357 55.2725 31.9325C54.871 32.1989 54.4618 32.4729 54.1144 32.7972C53.8519 33.0404 53.5509 33.2681 53.3154 33.5383L52.609 34.3412C52.5395 34.43 52.4662 34.569 52.3542 34.5998C52.3542 34.1212 52.1304 33.1832 51.9721 32.7161C51.5784 31.5504 51.3082 30.9289 50.6828 29.8674C50.4512 29.4737 50.1733 29.1108 49.8954 28.7518C49.8375 28.6785 49.7911 28.6167 49.7332 28.5511C49.4051 28.1767 48.4401 27.1113 47.9731 26.8643C47.699 27.0495 47.394 27.3352 47.1663 27.5668L46.6066 28.1265C46.5294 28.2076 46.5062 28.2539 46.4252 28.3388C46.3518 28.416 46.3325 28.4585 46.2592 28.5357C45.5682 29.2614 44.7615 30.6973 44.3986 31.6006C44.1014 32.3533 43.8698 33.1253 43.7115 33.932C43.6807 34.1405 43.6343 34.3644 43.6343 34.6037Z" fill="white"/>
<path fill-rule="evenodd" clip-rule="evenodd" d="M62.9418 37.4755C62.9418 37.792 62.9148 37.9966 62.9109 38.2938C62.9071 38.8574 62.7256 40.0772 62.6214 40.5404C62.5674 40.7759 62.5211 41.0152 62.4632 41.2275C62.2817 41.8721 62.1003 42.5438 61.8263 43.1575C61.4904 43.9064 61.3283 44.1959 60.9886 44.8598C60.6373 45.5546 60.0815 46.2726 59.6028 46.8864C59.2439 47.3457 58.5413 48.1177 58.1592 48.4343L56.7425 49.5884C55.986 50.1443 55.1676 50.5882 54.33 51.0128C53.9478 51.2058 53.5348 51.3525 53.1141 51.5185C52.701 51.6806 52.2687 51.7925 51.8287 51.9238C51.4427 52.0357 50.8135 52.1862 50.4043 52.221C50.5703 52.5337 50.7208 52.6688 50.8829 53.0702C51.1145 53.6415 51.1454 54.3672 50.991 54.9809C50.9215 55.2589 50.7749 55.4943 50.7363 55.6642C51.4697 55.6024 52.8361 55.1778 53.5039 54.9578C55.3413 54.3517 57.0436 53.3481 58.5413 52.1399L59.0161 51.7385C59.4137 51.4374 60.4212 50.3952 60.7377 49.986C61.6062 48.8589 62.1312 48.2606 62.8415 46.8323C63.0383 46.4425 63.2275 46.0603 63.3896 45.6589C64.0226 44.1148 64.4704 42.509 64.6055 40.7682C64.6441 40.247 64.6904 39.641 64.6943 39.1045C64.6943 38.9192 64.6673 38.869 64.6634 38.7146C64.6595 38.5641 64.6673 38.4096 64.6673 38.2591C64.6557 37.3404 64.3971 36.1283 64.2041 35.2174C64.0149 34.3218 63.6752 33.4495 63.3317 32.6157C63.2468 32.4111 63.1541 32.222 63.0576 32.0135C62.4747 30.732 61.668 29.5238 60.757 28.4507C60.4559 28.0917 60.1394 27.7365 59.7997 27.4162C59.4291 27.0649 59.0624 26.7059 58.661 26.3778C57.9237 25.7834 57.144 25.2314 56.3218 24.7566C56.2291 24.7025 56.1404 24.6678 56.0439 24.6099C55.6887 24.3937 54.8627 24.0077 54.4497 24L54.662 24.1197C54.7392 24.1583 54.8009 24.1891 54.8858 24.2316L56.978 25.5556L58.6263 26.9877C58.827 27.2386 59.0817 27.4702 59.294 27.7095C59.8962 28.3889 60.4019 29.1339 60.8728 29.9098C61.9575 31.7008 62.7179 34.0169 62.8839 36.1476C62.9148 36.58 62.9418 37.0316 62.9418 37.4755Z" fill="white"/>
<path fill-rule="evenodd" clip-rule="evenodd" d="M31.3047 39.1971C31.3047 40.5867 31.4823 42.0381 31.8374 43.3776C31.9841 43.9334 32.1462 44.4738 32.3546 45.0065L33.1575 46.8323C33.8794 48.276 34.5047 49.0248 35.4697 50.233C35.543 50.3218 35.6202 50.3759 35.6897 50.4647C35.7785 50.5766 35.8171 50.6191 35.9213 50.7194C36.3189 51.117 36.7204 51.5185 37.145 51.8813L37.4075 52.1013C37.4962 52.1708 37.558 52.2287 37.6584 52.3059C37.7626 52.3831 37.8321 52.4372 37.9324 52.5182C38.3069 52.8232 38.9206 53.2516 39.3529 53.4832C40.0902 53.8808 40.7657 54.2861 41.5532 54.6065C41.6767 54.6567 41.7693 54.6914 41.9006 54.7455C42.6572 55.0504 44.4289 55.5986 45.2666 55.668C45.1816 55.2975 44.9037 55.0774 44.9037 54.1858C44.9037 53.5682 45.0504 53.1049 45.3361 52.6224C45.4248 52.4719 45.5252 52.36 45.5985 52.221C44.7069 52.1476 43.1165 51.615 42.302 51.2869C42.1013 51.2058 41.9044 51.1286 41.7114 51.0321C41.2328 50.7928 40.7464 50.5766 40.3102 50.2871L39.7891 49.959C39.3529 49.6888 38.9476 49.3723 38.55 49.0519C37.9054 48.5269 37.3727 47.9865 36.8092 47.3766C35.6511 46.1337 34.4854 44.1959 33.9566 42.5824C33.8871 42.3778 33.8176 42.1771 33.7404 41.9532C33.5937 41.517 33.474 41.0384 33.3814 40.5867C32.6982 37.186 33.1305 33.8123 34.6243 30.8246C34.7826 30.5119 34.9216 30.2417 35.103 29.9445L35.6395 29.0914C35.9561 28.6128 36.3189 28.1843 36.674 27.7404C36.8478 27.5242 37.0639 27.339 37.2376 27.1267C37.2415 27.1228 37.2453 27.1151 37.2492 27.1112C37.2531 27.1074 37.2569 27.0996 37.2646 27.0958L38.0367 26.3585C38.3184 26.1423 38.6234 25.849 38.9824 25.5826C39.6463 25.0847 40.345 24.6138 41.09 24.2432C41.2251 24.1776 41.4258 24.1042 41.5416 24C41.283 24.0232 40.6576 24.3165 40.4029 24.4323C40.2176 24.5172 40.0516 24.606 39.8779 24.6948L39.3452 24.9805C38.5307 25.463 37.7394 25.9957 37.0292 26.621L36.62 26.9993C36.5544 27.0649 36.4965 27.1344 36.4231 27.1923C36.3305 27.2695 36.2996 27.2888 36.2108 27.3737C35.4079 28.1843 34.69 29.0721 34.0569 30.0217L33.4625 30.9983C33.3582 31.1836 33.2772 31.3419 33.1768 31.5271C33.1537 31.5657 33.1344 31.6082 33.1151 31.6468C32.5862 32.6041 32.1114 33.9011 31.8528 34.9472C31.7447 35.3795 31.6367 35.808 31.5633 36.2596C31.4243 37.1551 31.3047 38.151 31.3047 39.1971Z" fill="white"/>
<path fill-rule="evenodd" clip-rule="evenodd" d="M46.1699 54.1859C46.1699 54.4098 46.2548 54.7186 46.3205 54.8808C46.5559 55.4791 47.2353 56.0002 47.8336 56.0002C48.4898 56.0002 48.8604 55.9075 49.3506 55.4057C49.478 55.2745 49.6092 55.0545 49.6826 54.8615C49.9489 54.1782 49.7637 53.3174 49.2387 52.8697C49.231 52.8619 49.2117 52.8465 49.2039 52.8426C49.1731 52.8195 49.1615 52.8079 49.1383 52.7886C49.092 52.7539 49.065 52.7307 49.0187 52.696C48.5477 52.3447 47.8066 52.2714 47.2469 52.5416C47.1388 52.5956 47.0423 52.6419 46.9535 52.7037C46.776 52.8311 46.6293 52.9816 46.5057 53.163C46.3205 53.4448 46.1699 53.8231 46.1699 54.1859Z" fill="white"/>
<path d="M48 68L53.1962 63.5H42.8038L48 68Z" fill="#0C989A"/>
</g>
<defs>
<filter id="filter0_d_451_25987" x="0" y="0" width="96" height="92" filterUnits="userSpaceOnUse" color-interpolation-filters="sRGB">
<feFlood flood-opacity="0" result="BackgroundImageFix"/>
<feColorMatrix in="SourceAlpha" type="matrix" values="0 0 0 0 0 0 0 0 0 0 0 0 0 0 0 0 0 0 127 0" result="hardAlpha"/>
<feOffset dy="4"/>
<feGaussianBlur stdDeviation="10"/>
<feComposite in2="hardAlpha" operator="out"/>
<feColorMatrix type="matrix" values="0 0 0 0 0 0 0 0 0 0 0 0 0 0 0 0 0 0 0.1 0"/>
<feBlend mode="normal" in2="BackgroundImageFix" result="effect1_dropShadow_451_25987"/>
<feBlend mode="normal" in="SourceGraphic" in2="effect1_dropShadow_451_25987" result="shape"/>
</filter>
</defs>
</svg>
