<svg width="104" height="113" viewBox="0 0 104 113" fill="none" xmlns="http://www.w3.org/2000/svg">
<g clip-path="url(#clip0_583_20232)">
<path fill-rule="evenodd" clip-rule="evenodd" d="M41.2793 27.83C40.8793 27.73 40.3593 26.81 40.0493 26.48L37.8593 24.21C37.7093 24.08 37.6293 24 37.4993 23.86C36.2093 22.55 34.5793 21.49 33.0393 20.49C32.6493 20.24 29.9193 18.67 29.6093 18.67C29.1493 18.67 26.8493 22.21 26.6893 22.48C25.8293 23.93 25.0293 25.43 24.3993 27C22.7493 31.13 21.7393 36.69 22.3193 41.69C22.5593 43.77 22.9693 45.86 23.5993 47.85C24.1593 49.64 24.8993 51.4 25.8293 53.06C26.9793 55.12 28.2993 56.94 29.7893 58.73C29.9193 58.88 30.0293 58.98 30.1793 59.12C30.3293 59.27 30.3693 59.32 30.5093 59.49L30.6893 59.7C31.3693 60.48 32.4193 61.32 33.2293 62.01C33.4893 62.23 33.7993 62.45 34.0793 62.64C36.7393 64.45 39.3393 65.87 42.8293 65.87C45.3793 65.87 47.6093 64.92 48.9593 63.08C50.2193 61.36 50.0493 59.1 48.6393 57.56C47.5593 56.38 45.4193 56.06 43.9993 56.8L43.0293 57.48C43.0193 57.49 42.9993 57.51 42.9893 57.52C41.9993 58.47 41.4893 59.96 41.8093 61.35C41.3093 61.02 40.3593 60.08 39.9793 59.58C38.1293 57.2 37.0393 54.65 37.0393 51.48C37.0393 48.67 38.1993 46.18 40.1493 44.89C42.0693 43.62 44.2393 43.01 46.6093 43.7C47.1993 43.87 47.9293 44.27 48.2993 44.35C48.1993 43.92 47.9493 43.51 47.8293 43.02C47.0693 40.06 48.1993 36.88 50.5993 35.07C51.0193 34.75 52.0193 34.08 52.5293 34.05C52.8993 34.03 54.1093 34.79 54.4293 35.01C56.1293 36.19 57.5293 38.41 57.5293 40.76C57.5293 41.79 57.4193 42.74 57.0893 43.69C56.9893 43.99 56.8893 44.09 56.8193 44.36C57.1993 44.27 57.8893 43.89 58.4493 43.72C59.5693 43.39 60.9893 43.38 62.1693 43.62C63.2093 43.83 64.0593 44.25 64.8793 44.83C68.0993 47.11 68.5693 51.07 67.6693 54.66C67.0993 56.94 65.9293 58.85 64.3193 60.46C64.0093 60.77 63.6793 61.1 63.3193 61.34C63.3393 60.27 63.7593 59.2 62.2193 57.59C62.2093 57.58 62.1893 57.56 62.1793 57.55C60.1693 55.53 56.7993 56.27 55.6493 58.83C55.2393 59.75 55.1893 60.74 55.4793 61.74C56.2493 64.36 59.4793 65.88 62.2193 65.88C66.1093 65.88 69.6993 63.95 72.5393 61.48L74.5393 59.57C74.5493 59.56 74.5693 59.54 74.5793 59.53C74.5893 59.52 74.6093 59.5 74.6193 59.49L75.1593 58.94C75.7793 58.3 76.3093 57.59 76.8493 56.87C78.6993 54.41 79.8893 52.1 81.0393 49.24C83.2093 43.89 83.3993 37.69 82.2793 32.04C81.4793 28 79.5993 23.8 77.1293 20.52C76.9393 20.27 75.7593 18.67 75.6093 18.67C74.9993 18.67 72.1893 20.4 71.4293 20.91C70.3893 21.6 69.3293 22.31 68.4293 23.15C67.7493 23.78 66.9693 24.37 66.3593 25.07L64.5293 27.15C64.3493 27.38 64.1593 27.74 63.8693 27.82C63.8693 26.58 63.2893 24.15 62.8793 22.94C61.8593 19.92 61.1593 18.31 59.5393 15.56C58.9393 14.54 58.2193 13.6 57.4993 12.67C57.3493 12.48 57.2293 12.32 57.0793 12.15C56.2293 11.18 53.7293 8.42003 52.5193 7.78003C51.8093 8.26003 51.0193 9.00003 50.4293 9.60003L48.9793 11.05C48.7793 11.26 48.7193 11.38 48.5093 11.6C48.3193 11.8 48.2693 11.91 48.0793 12.11C46.2893 13.99 44.1993 17.71 43.2593 20.05C42.4893 22 41.8893 24 41.4793 26.09C41.3993 26.63 41.2793 27.21 41.2793 27.83Z" fill="white"/>
<path fill-rule="evenodd" clip-rule="evenodd" d="M91.3003 35.2701C91.3003 36.0901 91.2303 36.6201 91.2203 37.3901C91.2103 38.8501 90.7403 42.0101 90.4703 43.2101C90.3303 43.8201 90.2103 44.4401 90.0603 44.9901C89.5903 46.6601 89.1203 48.4001 88.4103 49.9901C87.5403 51.9301 87.1203 52.6801 86.2403 54.4001C85.3303 56.2001 83.8903 58.0601 82.6503 59.6501C81.7203 60.8401 79.9003 62.8401 78.9103 63.6601L75.2403 66.6501C73.2803 68.0901 71.1603 69.2401 68.9903 70.3401C68.0003 70.8401 66.9303 71.2201 65.8403 71.6501C64.7703 72.0701 63.6503 72.3601 62.5103 72.7001C61.5103 72.9901 59.8803 73.3801 58.8203 73.4701C59.2503 74.2801 59.6403 74.6301 60.0603 75.6701C60.6603 77.1501 60.7403 79.0301 60.3403 80.6201C60.1603 81.3401 59.7803 81.9501 59.6803 82.3901C61.5803 82.2301 65.1203 81.1301 66.8503 80.5601C71.6103 78.9901 76.0203 76.3901 79.9003 73.2601L81.1303 72.2201C82.1603 71.4401 84.7703 68.7401 85.5903 67.6801C87.8403 64.7601 89.2003 63.2101 91.0403 59.5101C91.5503 58.5001 92.0403 57.5101 92.4603 56.4701C94.1003 52.4701 95.2603 48.3101 95.6103 43.8001C95.7103 42.4501 95.8303 40.8801 95.8403 39.4901C95.8403 39.0101 95.7703 38.8801 95.7603 38.4801C95.7503 38.0901 95.7703 37.6901 95.7703 37.3001C95.7403 34.9201 95.0703 31.7801 94.5703 29.4201C94.0803 27.1001 93.2003 24.8401 92.3103 22.6801C92.0903 22.1501 91.8503 21.6601 91.6003 21.1201C90.0903 17.8001 88.0003 14.6701 85.6403 11.8901C84.8603 10.9601 84.0403 10.0401 83.1603 9.21011C82.2003 8.30011 81.2503 7.37011 80.2103 6.52011C78.3003 4.98011 76.2803 3.55011 74.1503 2.32011C73.9103 2.18011 73.6803 2.09011 73.4303 1.94011C72.5103 1.38011 70.3703 0.380107 69.3003 0.360107L69.8503 0.670108C70.0503 0.770108 70.2103 0.850108 70.4303 0.960108L75.8503 4.39011L80.1203 8.10011C80.6403 8.75011 81.3003 9.35011 81.8503 9.97011C83.4103 11.7301 84.7203 13.6601 85.9403 15.6701C88.7503 20.3101 90.7203 26.3101 91.1503 31.8301C91.2303 32.9501 91.3003 34.1201 91.3003 35.2701Z" fill="white"/>
<path fill-rule="evenodd" clip-rule="evenodd" d="M9.33984 39.7301C9.33984 43.3301 9.79984 47.0901 10.7198 50.5601C11.0998 52.0001 11.5198 53.4001 12.0598 54.7801L14.1398 59.5101C16.0098 63.2501 17.6298 65.1901 20.1298 68.3201C20.3198 68.5501 20.5198 68.6901 20.6998 68.9201C20.9298 69.2101 21.0298 69.3201 21.2998 69.5801C22.3298 70.6101 23.3698 71.6501 24.4698 72.5901L25.1498 73.1601C25.3798 73.3401 25.5398 73.4901 25.7998 73.6901C26.0698 73.8901 26.2498 74.0301 26.5098 74.2401C27.4798 75.0301 29.0698 76.1401 30.1898 76.7401C32.0998 77.7701 33.8498 78.8201 35.8898 79.6501C36.2098 79.7801 36.4498 79.8701 36.7898 80.0101C38.7498 80.8001 43.3398 82.2201 45.5098 82.4001C45.2898 81.4401 44.5698 80.8701 44.5698 78.5601C44.5698 76.9601 44.9498 75.7601 45.6898 74.5101C45.9198 74.1201 46.1798 73.8301 46.3698 73.4701C44.0598 73.2801 39.9398 71.9001 37.8298 71.0501C37.3098 70.8401 36.7998 70.6401 36.2998 70.3901C35.0598 69.7701 33.7998 69.2101 32.6698 68.4601L31.3198 67.6101C30.1898 66.9101 29.1398 66.0901 28.1098 65.2601C26.4398 63.9001 25.0598 62.5001 23.5998 60.9201C20.5998 57.7001 17.5798 52.6801 16.2098 48.5001C16.0298 47.9701 15.8498 47.4501 15.6498 46.8701C15.2698 45.7401 14.9598 44.5001 14.7198 43.3301C12.9498 34.5201 14.0698 25.7801 17.9398 18.0401C18.3498 17.2301 18.7098 16.5301 19.1798 15.7601L20.5698 13.5501C21.3898 12.3101 22.3298 11.2001 23.2498 10.0501C23.6998 9.49011 24.2598 9.01011 24.7098 8.46011C24.7198 8.45011 24.7298 8.43011 24.7398 8.42011C24.7498 8.41011 24.7598 8.39011 24.7798 8.38011L26.7798 6.47011C27.5098 5.91011 28.2998 5.15011 29.2298 4.46011C30.9498 3.17011 32.7598 1.95011 34.6898 0.990108C35.0398 0.820108 35.5598 0.630107 35.8598 0.360107C35.1898 0.420107 33.5698 1.18011 32.9098 1.48011C32.4298 1.70011 31.9998 1.93011 31.5498 2.16011L30.1698 2.90011C28.0598 4.15011 26.0098 5.53011 24.1698 7.15011L23.1098 8.13011C22.9398 8.30011 22.7898 8.48011 22.5998 8.63011C22.3598 8.83011 22.2798 8.88011 22.0498 9.10011C19.9698 11.2001 18.1098 13.5001 16.4698 15.9601L14.9298 18.4901C14.6598 18.9701 14.4498 19.3801 14.1898 19.8601C14.1298 19.9601 14.0798 20.0701 14.0298 20.1701C12.6598 22.6501 11.4298 26.0101 10.7598 28.7201C10.4798 29.8401 10.1998 30.9501 10.0098 32.1201C9.64984 34.4401 9.33984 37.0201 9.33984 39.7301Z" fill="white"/>
<path fill-rule="evenodd" clip-rule="evenodd" d="M47.8496 78.5601C47.8496 79.1401 48.0696 79.9401 48.2396 80.3601C48.8496 81.9101 50.6096 83.2601 52.1596 83.2601C53.8596 83.2601 54.8196 83.0201 56.0896 81.7201C56.4196 81.3801 56.7596 80.8101 56.9496 80.3101C57.6396 78.5401 57.1596 76.3101 55.7996 75.1501C55.7796 75.1301 55.7296 75.0901 55.7096 75.0801C55.6296 75.0201 55.5996 74.9901 55.5396 74.9401C55.4196 74.8501 55.3496 74.7901 55.2296 74.7001C54.0096 73.7901 52.0896 73.6001 50.6396 74.3001C50.3596 74.4401 50.1096 74.5601 49.8796 74.7201C49.4196 75.0501 49.0396 75.4401 48.7196 75.9101C48.2396 76.6401 47.8496 77.6201 47.8496 78.5601Z" fill="white"/>
<path d="M6.49922 99.4302C6.49922 100.51 5.63922 101.38 4.56922 101.42C4.54922 101.42 4.52922 101.42 4.50922 101.42H1.79922C1.73922 101.42 1.67922 101.41 1.61922 101.39C1.36922 101.31 1.19922 101.08 1.19922 100.81V95.5602C1.19922 95.2902 1.37922 95.0602 1.61922 94.9802C1.63922 94.9702 1.65922 94.9702 1.67922 94.9702C1.71922 94.9602 1.75922 94.9602 1.79922 94.9602H5.53922C5.86922 94.9602 6.13922 95.2302 6.13922 95.5602C6.13922 95.8902 5.86922 96.1602 5.53922 96.1602H2.40922V97.4302H4.21922H4.51922C5.60922 97.4402 6.49922 98.3302 6.49922 99.4302ZM5.29922 99.4302C5.29922 99.0002 4.94922 98.6502 4.51922 98.6502H4.21922H2.40922V100.21H4.51922C4.94922 100.21 5.29922 99.8602 5.29922 99.4302Z" fill="white"/>
<path d="M15.0685 98.2003C15.0685 100.09 13.5385 101.62 11.6485 101.62C9.75852 101.62 8.22852 100.09 8.22852 98.2003C8.22852 96.3103 9.75852 94.7803 11.6485 94.7803C13.5385 94.7803 15.0685 96.3103 15.0685 98.2003ZM13.8585 98.2003C13.8585 96.9803 12.8685 95.9903 11.6485 95.9903C10.4285 95.9903 9.43852 96.9803 9.43852 98.2003C9.43852 99.4203 10.4285 100.41 11.6485 100.41C12.8685 100.41 13.8585 99.4203 13.8585 98.2003Z" fill="white"/>
<path d="M22.1398 97.2502C22.1398 98.4902 21.1498 99.5002 19.9098 99.5402C19.8898 99.5402 19.8698 99.5402 19.8498 99.5402H18.2898V100.82C18.2898 101.15 18.0198 101.42 17.6898 101.42C17.3598 101.42 17.0898 101.15 17.0898 100.82V95.5702C17.0898 95.3202 17.2398 95.1102 17.4598 95.0102C17.5298 94.9802 17.6098 94.9602 17.6998 94.9602H19.8698C19.8898 94.9602 19.9098 94.9602 19.9298 94.9602C21.1398 95.0002 22.1398 96.0102 22.1398 97.2502ZM20.9298 97.2502C20.9298 96.6502 20.4398 96.1702 19.8498 96.1702H18.2898V98.3402H19.8498C20.4398 98.3302 20.9298 97.8502 20.9298 97.2502Z" fill="white"/>
<path d="M29.7391 95.5602V100.81C29.7391 101.14 29.4691 101.41 29.1391 101.41C28.8091 101.41 28.5391 101.14 28.5391 100.81V97.2002L25.1491 101.2C25.2391 101.09 25.2391 101.09 25.1491 101.2L25.1391 101.21C25.0891 101.27 25.0191 101.32 24.9491 101.35C24.8691 101.39 24.7791 101.41 24.6991 101.41C24.6791 101.41 24.6691 101.41 24.6491 101.41C24.5991 101.41 24.5391 101.39 24.4891 101.37C24.4691 101.36 24.4391 101.35 24.4191 101.34C24.3891 101.32 24.3591 101.3 24.3291 101.28C24.3191 101.27 24.3091 101.26 24.2991 101.25C24.2491 101.2 24.2091 101.14 24.1791 101.08C24.1391 101 24.1191 100.92 24.1191 100.83C24.1191 100.83 24.1191 100.83 24.1191 100.82V95.5702C24.1191 95.2402 24.3891 94.9702 24.7191 94.9702C25.0491 94.9702 25.3191 95.2402 25.3191 95.5702V99.1802L28.7091 95.1902C28.7191 95.1802 28.7191 95.1802 28.7291 95.1702C28.7791 95.1102 28.8491 95.0602 28.9191 95.0302C28.9791 95.0002 29.0491 94.9802 29.1191 94.9802C29.1291 94.9802 29.1491 94.9802 29.1591 94.9802C29.2891 94.9802 29.4191 95.0202 29.5191 95.1002C29.5291 95.1102 29.5391 95.1102 29.5491 95.1202C29.6091 95.1702 29.6691 95.2402 29.6991 95.3202C29.7191 95.3802 29.7391 95.4702 29.7391 95.5602Z" fill="white"/>
<path d="M32.9583 98.2001C32.9583 99.3701 33.9083 100.33 35.0783 100.33C35.6183 100.33 36.1383 100.13 36.5283 99.7501C36.6483 99.6401 36.7983 99.5901 36.9383 99.5901C37.4783 99.5901 37.7483 100.26 37.3483 100.63C36.7283 101.21 35.9183 101.53 35.0683 101.53C33.2283 101.53 31.7383 100.04 31.7383 98.2001C31.7383 96.3601 33.2283 94.8701 35.0683 94.8701C35.9383 94.8701 36.7583 95.2001 37.3783 95.8001C37.6183 96.0301 37.6283 96.4101 37.3983 96.6501C37.1683 96.8901 36.7883 96.9001 36.5483 96.6701C36.1483 96.2901 35.6283 96.0801 35.0783 96.0801C33.9183 96.0801 32.9583 97.0301 32.9583 98.2001Z" fill="white"/>
<path d="M46.0002 98.2003C46.0002 100.09 44.4702 101.62 42.5802 101.62C40.6902 101.62 39.1602 100.09 39.1602 98.2003C39.1602 96.3103 40.6902 94.7803 42.5802 94.7803C44.4702 94.7803 46.0002 96.3103 46.0002 98.2003ZM44.8002 98.2003C44.8002 96.9803 43.8102 95.9903 42.5902 95.9903C41.3702 95.9903 40.3802 96.9803 40.3802 98.2003C40.3802 99.4203 41.3702 100.41 42.5902 100.41C43.8002 100.41 44.8002 99.4203 44.8002 98.2003Z" fill="white"/>
<path d="M51.7198 96.1602H49.2098V100.82C49.2098 101.15 48.9398 101.42 48.6098 101.42C48.2798 101.42 48.0098 101.15 48.0098 100.82V95.5702C48.0098 95.5702 48.0098 95.5702 48.0098 95.5602C48.0098 95.2302 48.2798 94.9602 48.6098 94.9602H51.7198C52.0498 94.9602 52.3198 95.2302 52.3198 95.5602C52.3298 95.8902 52.0598 96.1602 51.7198 96.1602Z" fill="white"/>
<path d="M53.9499 101.28C53.8299 101.39 53.6799 101.44 53.4799 101.42C53.2899 101.4 53.1399 101.33 53.0399 101.2C52.9299 101.08 52.8899 100.92 52.8999 100.73C52.9099 100.54 52.9899 100.4 53.1199 100.29L53.2899 100.14C53.3799 100.07 53.4499 99.9802 53.5199 99.8902C53.5899 99.8002 53.6499 99.7002 53.6999 99.6002C53.7499 99.5102 53.7899 99.3802 53.8299 99.2302C53.8699 99.0802 53.8999 98.9502 53.9299 98.8402C53.9599 98.7302 53.9799 98.5702 53.9999 98.3702C54.0199 98.1702 54.0299 98.0102 54.0399 97.8802C54.0499 97.7502 54.0599 97.5702 54.0699 97.3202C54.0799 97.0802 54.0799 96.8802 54.0799 96.7402C54.0799 96.6002 54.0799 96.3902 54.0899 96.1102C54.0899 95.8702 54.0899 95.6802 54.0899 95.5502H54.0999C54.0999 95.3702 54.1699 95.2202 54.2999 95.1002C54.4099 95.0002 54.5399 94.9502 54.6899 94.9502H57.9399C58.0999 94.9502 58.2399 95.0102 58.3599 95.1302C58.4799 95.2502 58.5399 95.3902 58.5399 95.5602L58.5499 100.76C58.5499 100.92 58.4999 101.06 58.3799 101.18C58.2599 101.3 58.1199 101.36 57.9499 101.36C57.7799 101.36 57.6399 101.3 57.5299 101.19C57.4099 101.08 57.3499 100.93 57.3499 100.77L57.3399 96.1602H55.2699C55.2699 96.5702 55.2599 96.9102 55.2499 97.1802C55.2399 97.4502 55.2199 97.7602 55.1999 98.1102C55.1699 98.4602 55.1399 98.7602 55.0899 99.0102C55.0399 99.2602 54.9699 99.5202 54.8999 99.7902C54.8199 100.06 54.7199 100.3 54.5899 100.51C54.4599 100.72 54.3199 100.92 54.1499 101.08L53.9499 101.28Z" fill="white"/>
<path d="M61.9795 96.1702V97.5902H64.3595C64.6895 97.5902 64.9595 97.8602 64.9595 98.1902C64.9595 98.5202 64.6895 98.7902 64.3595 98.7902H61.9795V100.21H64.8795C65.2095 100.21 65.4795 100.48 65.4795 100.81C65.4795 101.14 65.2095 101.41 64.8795 101.41H61.3795C61.2795 101.41 61.1795 101.38 61.0895 101.34C61.0595 101.32 61.0195 101.3 60.9895 101.28C60.9595 101.25 60.9295 101.23 60.9095 101.2C60.8195 101.1 60.7695 100.96 60.7695 100.82V95.5702C60.7695 95.4202 60.8195 95.2902 60.9095 95.1902C60.9295 95.1602 60.9595 95.1302 60.9895 95.1102C61.0195 95.0802 61.0495 95.0602 61.0895 95.0402C61.1795 94.9902 61.2695 94.9702 61.3795 94.9702H64.8795C65.2095 94.9702 65.4795 95.2402 65.4795 95.5702C65.4795 95.9002 65.2095 96.1702 64.8795 96.1702H61.9795Z" fill="white"/>
<path d="M72.8 99.4302C72.8 100.51 71.94 101.38 70.87 101.42C70.85 101.42 70.83 101.42 70.81 101.42H68.1C68.04 101.42 67.98 101.41 67.92 101.39C67.67 101.31 67.5 101.08 67.5 100.81V95.5602C67.5 95.2902 67.68 95.0602 67.92 94.9802C67.94 94.9702 67.96 94.9702 67.98 94.9702C68.02 94.9602 68.06 94.9602 68.1 94.9602H71.84C72.17 94.9602 72.44 95.2302 72.44 95.5602C72.44 95.8902 72.17 96.1602 71.84 96.1602H68.7V97.4302H70.51H70.81C71.91 97.4402 72.8 98.3302 72.8 99.4302ZM71.59 99.4302C71.59 99.0002 71.24 98.6502 70.81 98.6502H70.51H68.7V100.21H70.81C71.24 100.21 71.59 99.8602 71.59 99.4302Z" fill="white"/>
<path d="M75.7295 98.2001C75.7295 99.3701 76.6795 100.33 77.8595 100.33C78.3995 100.33 78.9195 100.13 79.3095 99.7501C79.4295 99.6401 79.5695 99.5901 79.7195 99.5901C80.2595 99.5901 80.5295 100.26 80.1295 100.63C79.5095 101.21 78.6995 101.53 77.8495 101.53C76.0095 101.53 74.5195 100.04 74.5195 98.2001C74.5195 96.3601 76.0095 94.8701 77.8495 94.8701C78.7195 94.8701 79.5395 95.2001 80.1595 95.8001C80.3995 96.0301 80.4095 96.4101 80.1795 96.6501C79.9495 96.8901 79.5695 96.9001 79.3295 96.6701C78.9295 96.2901 78.4095 96.0801 77.8595 96.0801C76.6795 96.0801 75.7295 97.0301 75.7295 98.2001Z" fill="white"/>
<path d="M87.3996 101.28C87.2896 101.37 87.1496 101.42 87.0196 101.42C86.8496 101.42 86.6696 101.34 86.5496 101.2L84.4796 98.6803L83.5496 99.6503V100.82C83.5496 101.15 83.2796 101.42 82.9496 101.42C82.6196 101.42 82.3496 101.15 82.3496 100.82V95.5703C82.3496 95.2403 82.6196 94.9703 82.9496 94.9703C83.2796 94.9703 83.5496 95.2403 83.5496 95.5703V97.9203L86.2196 95.1503C86.4496 94.9103 86.8296 94.9003 87.0696 95.1303C87.3096 95.3603 87.3196 95.7403 87.0896 95.9803L85.3296 97.8003L87.4896 100.43C87.6996 100.69 87.6596 101.07 87.3996 101.28Z" fill="white"/>
<path d="M95.1591 95.5602V100.81C95.1591 101.14 94.8891 101.41 94.5591 101.41C94.2291 101.41 93.9591 101.14 93.9591 100.81V97.2002L90.5691 101.2C90.6591 101.09 90.6591 101.09 90.5691 101.2L90.5591 101.21C90.5091 101.27 90.4391 101.32 90.3691 101.35C90.2891 101.39 90.1991 101.41 90.1191 101.41C90.0991 101.41 90.0891 101.41 90.0691 101.41C90.0191 101.41 89.9591 101.39 89.9091 101.37C89.8891 101.36 89.8591 101.35 89.8391 101.34C89.8091 101.32 89.7791 101.3 89.7491 101.28C89.7391 101.27 89.7291 101.26 89.7191 101.25C89.6691 101.2 89.6291 101.14 89.5991 101.08C89.5591 101 89.5391 100.92 89.5391 100.83C89.5391 100.83 89.5391 100.83 89.5391 100.82V95.5702C89.5391 95.2402 89.8091 94.9702 90.1391 94.9702C90.4691 94.9702 90.7391 95.2402 90.7391 95.5702V99.1802L94.1291 95.1902C94.1291 95.1802 94.1391 95.1802 94.1491 95.1702C94.1991 95.1102 94.2691 95.0602 94.3391 95.0302C94.3991 95.0002 94.4691 94.9802 94.5391 94.9802C94.5491 94.9802 94.5691 94.9802 94.5791 94.9802C94.7091 94.9802 94.8391 95.0202 94.9391 95.1002C94.9491 95.1102 94.9591 95.1102 94.9691 95.1202C95.0291 95.1702 95.0891 95.2402 95.1191 95.3202C95.1491 95.3802 95.1591 95.4702 95.1591 95.5602Z" fill="white"/>
<path d="M103.069 95.5602V100.81C103.069 101.14 102.799 101.41 102.469 101.41C102.139 101.41 101.869 101.14 101.869 100.81V97.2002L98.4792 101.2C98.5692 101.09 98.5692 101.09 98.4792 101.2L98.4692 101.21C98.4192 101.27 98.3492 101.32 98.2792 101.35C98.1992 101.39 98.1092 101.41 98.0292 101.41C98.0092 101.41 97.9992 101.41 97.9792 101.41C97.9292 101.41 97.8692 101.39 97.8192 101.37C97.7992 101.36 97.7692 101.35 97.7492 101.34C97.7192 101.32 97.6892 101.3 97.6592 101.28C97.6492 101.27 97.6392 101.26 97.6292 101.25C97.5792 101.2 97.5392 101.14 97.5092 101.08C97.4692 101 97.4492 100.92 97.4492 100.83C97.4492 100.83 97.4492 100.83 97.4492 100.82V95.5702C97.4492 95.2402 97.7192 94.9702 98.0492 94.9702C98.3792 94.9702 98.6492 95.2402 98.6492 95.5702V99.1802L102.039 95.1902C102.039 95.1802 102.049 95.1802 102.059 95.1702C102.109 95.1102 102.179 95.0602 102.249 95.0302C102.309 95.0002 102.379 94.9802 102.449 94.9802C102.459 94.9802 102.479 94.9802 102.489 94.9802C102.619 94.9802 102.749 95.0202 102.849 95.1002C102.859 95.1102 102.869 95.1102 102.879 95.1202C102.939 95.1702 102.999 95.2402 103.029 95.3202C103.059 95.3802 103.069 95.4702 103.069 95.5602ZM99.1592 93.7302C99.4192 93.7302 99.6292 93.9402 99.6292 94.2002C99.6292 94.3302 99.8692 94.5202 100.239 94.5202C100.609 94.5202 100.849 94.3302 100.849 94.2002C100.849 93.9402 101.059 93.7302 101.319 93.7302C101.579 93.7302 101.789 93.9402 101.789 94.2002C101.789 94.9102 101.109 95.4602 100.239 95.4602C99.3692 95.4602 98.6892 94.9102 98.6892 94.2002C98.6892 93.9402 98.8992 93.7302 99.1592 93.7302Z" fill="white"/>
<path d="M28.0687 106.34C28.0687 106.67 27.7987 106.94 27.4688 106.94H25.8687V111.59C25.8687 111.92 25.5987 112.19 25.2687 112.19C24.9387 112.19 24.6687 111.92 24.6687 111.59V106.94H23.0687C22.7387 106.94 22.4688 106.67 22.4688 106.34C22.4688 106.01 22.7387 105.74 23.0687 105.74H27.4787C27.7987 105.74 28.0687 106.01 28.0687 106.34Z" fill="white"/>
<path d="M34.8684 108.05C34.8684 109.29 33.8784 110.3 32.6384 110.34C32.6184 110.34 32.5984 110.34 32.5784 110.34H31.0184V111.62C31.0184 111.95 30.7484 112.22 30.4184 112.22C30.0884 112.22 29.8184 111.95 29.8184 111.62V106.37C29.8184 106.12 29.9684 105.91 30.1884 105.81C30.2584 105.78 30.3384 105.76 30.4284 105.76H32.5984C32.6184 105.76 32.6384 105.76 32.6584 105.76C33.8784 105.8 34.8684 106.81 34.8684 108.05ZM33.6584 108.05C33.6584 107.45 33.1684 106.97 32.5784 106.97H31.0184V109.14H32.5784C33.1784 109.13 33.6584 108.65 33.6584 108.05Z" fill="white"/>
<path d="M42.4794 106.36V111.61C42.4794 111.94 42.2094 112.21 41.8794 112.21C41.5494 112.21 41.2794 111.94 41.2794 111.61V108L37.8894 112C37.9794 111.89 37.9794 111.89 37.8894 112L37.8794 112.01C37.8294 112.07 37.7594 112.12 37.6894 112.15C37.6094 112.19 37.5194 112.21 37.4394 112.21C37.4194 112.21 37.4094 112.21 37.3894 112.21C37.3394 112.21 37.2794 112.19 37.2294 112.17C37.2094 112.16 37.1794 112.15 37.1594 112.14C37.1294 112.12 37.0994 112.1 37.0694 112.08C37.0594 112.07 37.0494 112.06 37.0394 112.05C36.9894 112 36.9494 111.94 36.9194 111.88C36.8794 111.8 36.8594 111.72 36.8594 111.63C36.8594 111.63 36.8594 111.63 36.8594 111.62V106.37C36.8594 106.04 37.1294 105.77 37.4594 105.77C37.7894 105.77 38.0594 106.04 38.0594 106.37V109.98L41.4494 105.99C41.4594 105.98 41.4594 105.98 41.4694 105.97C41.5194 105.91 41.5894 105.86 41.6594 105.83C41.7194 105.8 41.7894 105.78 41.8594 105.78C41.8694 105.78 41.8894 105.78 41.8994 105.78C42.0294 105.78 42.1594 105.82 42.2594 105.9C42.2694 105.91 42.2794 105.91 42.2894 105.92C42.3494 105.97 42.4094 106.04 42.4394 106.12C42.4594 106.18 42.4794 106.27 42.4794 106.36Z" fill="white"/>
<path d="M49.7785 112.08C49.6685 112.17 49.5285 112.22 49.3985 112.22C49.2285 112.22 49.0485 112.14 48.9285 112L46.8585 109.48L45.9285 110.45V111.62C45.9285 111.95 45.6585 112.22 45.3285 112.22C44.9985 112.22 44.7285 111.95 44.7285 111.62V106.37C44.7285 106.04 44.9985 105.77 45.3285 105.77C45.6585 105.77 45.9285 106.04 45.9285 106.37V108.72L48.5985 105.95C48.8285 105.71 49.2085 105.7 49.4485 105.93C49.6885 106.16 49.6985 106.54 49.4685 106.78L47.7085 108.6L49.8685 111.23C50.0785 111.49 50.0385 111.87 49.7785 112.08Z" fill="white"/>
<path d="M58.0998 109C58.0998 110.89 56.5698 112.42 54.6798 112.42C52.7898 112.42 51.2598 110.89 51.2598 109C51.2598 107.11 52.7898 105.58 54.6798 105.58C56.5698 105.58 58.0998 107.11 58.0998 109ZM56.8898 109C56.8898 107.78 55.8998 106.79 54.6798 106.79C53.4598 106.79 52.4698 107.78 52.4698 109C52.4698 110.22 53.4598 111.21 54.6798 111.21C55.8998 111.21 56.8898 110.22 56.8898 109Z" fill="white"/>
<path d="M64.7895 106.34C64.7895 106.67 64.5195 106.94 64.1895 106.94H62.5894V111.59C62.5894 111.92 62.3194 112.19 61.9894 112.19C61.6594 112.19 61.3895 111.92 61.3895 111.59V106.94H59.7895C59.4595 106.94 59.1895 106.67 59.1895 106.34C59.1895 106.01 59.4595 105.74 59.7895 105.74H64.1994C64.5194 105.74 64.7895 106.01 64.7895 106.34Z" fill="white"/>
<path d="M71.3587 112.15C71.0587 112.3 70.6987 112.18 70.5487 111.89L70.1287 111.06H66.7187L66.2987 111.89C66.1887 112.1 65.9787 112.22 65.7587 112.22C65.3087 112.22 65.0187 111.75 65.2187 111.34L67.8887 106.09C67.8987 106.08 67.8987 106.07 67.9087 106.06C67.9087 106.06 67.9187 106.05 67.9187 106.04C67.9387 106 67.9687 105.96 67.9987 105.93C68.0087 105.92 68.0087 105.92 68.0187 105.91C68.0287 105.9 68.0387 105.89 68.0487 105.88C68.0587 105.87 68.0687 105.87 68.0787 105.86C68.0887 105.86 68.0887 105.85 68.0987 105.85C68.1387 105.82 68.1787 105.8 68.2287 105.79C68.2387 105.79 68.2387 105.79 68.2487 105.78C68.2587 105.78 68.2787 105.77 68.2887 105.77C68.2987 105.77 68.3087 105.77 68.3287 105.76C68.3387 105.76 68.3487 105.76 68.3587 105.76C68.3787 105.76 68.4087 105.76 68.4287 105.76C68.4287 105.76 68.4287 105.76 68.4387 105.76H68.4487C68.4687 105.76 68.4887 105.76 68.5087 105.76C68.5187 105.76 68.5187 105.76 68.5287 105.76C68.5487 105.76 68.5687 105.77 68.5887 105.77H68.5987C68.6187 105.78 68.6387 105.78 68.6587 105.79C68.6687 105.79 68.6787 105.8 68.6787 105.8C68.6887 105.8 68.6987 105.81 68.7087 105.81C68.7087 105.81 68.7187 105.82 68.7287 105.82C68.7387 105.82 68.7387 105.83 68.7487 105.83C68.7687 105.84 68.7887 105.85 68.7987 105.87C68.8787 105.93 68.9387 106.01 68.9787 106.1V106.09L71.6487 111.34C71.7787 111.64 71.6587 112 71.3587 112.15ZM69.5087 109.84L68.4187 107.69L67.3287 109.84H69.5087Z" fill="white"/>
<path d="M76.7793 109.1L74.1193 111.99C73.9993 112.14 73.8393 112.21 73.6493 112.21C73.5093 112.21 73.3793 112.16 73.2693 112.07C73.1393 111.96 73.0693 111.83 73.0493 111.66C73.0293 111.49 73.0793 111.35 73.1793 111.22L75.3393 108.91L73.5793 106.76C73.4593 106.64 73.4093 106.5 73.4093 106.33C73.4093 106.16 73.4693 106.02 73.5893 105.91C73.7093 105.79 73.8493 105.74 74.0193 105.74C74.1893 105.74 74.3293 105.8 74.4393 105.92L76.7693 108.78L76.7593 106.34C76.7593 106.18 76.8193 106.04 76.9393 105.92C77.0593 105.8 77.1993 105.74 77.3693 105.74C77.5393 105.74 77.6793 105.8 77.7993 105.92C77.9193 106.04 77.9793 106.18 77.9793 106.34V108.78L80.3093 105.92C80.4293 105.8 80.5693 105.74 80.7293 105.74C80.8993 105.74 81.0393 105.79 81.1593 105.91C81.2793 106.03 81.3393 106.17 81.3393 106.33C81.3393 106.5 81.2893 106.64 81.1693 106.76L79.4093 108.91L81.5693 111.22C81.6693 111.35 81.7093 111.49 81.6993 111.66C81.6893 111.83 81.6093 111.96 81.4793 112.07C81.3693 112.16 81.2393 112.21 81.0993 112.21C80.9093 112.21 80.7493 112.13 80.6293 111.99L77.9693 109.1V111.62C77.9693 111.78 77.9093 111.93 77.7893 112.04C77.6693 112.15 77.5293 112.22 77.3593 112.22C77.1893 112.22 77.0493 112.16 76.9293 112.04C76.8093 111.92 76.7493 111.78 76.7493 111.62L76.7793 109.1Z" fill="white"/>
</g>
<defs>
<clipPath id="clip0_583_20232">
<rect width="103" height="113" fill="white" transform="translate(0.5)"/>
</clipPath>
</defs>
</svg>
