<svg width="219" height="80" viewBox="0 0 219 80" fill="none" xmlns="http://www.w3.org/2000/svg">
<g clip-path="url(#clip0_668_17646)">
<path d="M39.7339 32.8438C35.7877 34.2798 34.1387 38.8325 35.9241 42.4325C30.609 39.3078 25.5204 43.9185 25.5204 49.8245C25.5204 52.6398 26.7038 55.6925 29.6011 58.1825C29.2919 55.3278 31.1203 53.5645 33.4162 53.5645C38.6889 53.5645 39.2247 62.4332 31.1832 62.4332C16.6452 62.4332 3.50056 36.5172 18.4948 19.1345C22.8649 20.7865 26.6297 23.7505 29.276 27.6218C30.0196 20.1045 33.8043 13.2165 39.7339 8.58783C45.6636 13.2165 49.4482 20.1045 50.1912 27.6205C52.8375 23.7492 56.6023 20.7858 60.9724 19.1332C75.9256 36.4672 62.8763 62.4318 48.284 62.4318C40.1895 62.4318 40.8385 53.5632 46.051 53.5632C48.3423 53.5632 50.176 55.3212 49.8661 58.1812C52.7633 55.6912 53.9468 52.6378 53.9468 49.8232C53.9468 43.9325 48.8807 39.2932 43.5431 42.4312C45.3318 38.8265 43.6735 34.2772 39.7339 32.8438ZM43.9616 74.3538C43.9616 72.0032 42.069 70.0978 39.7339 70.0978C37.3989 70.0978 35.5062 72.0032 35.5062 74.3538C35.5062 76.7045 37.3989 78.6098 39.7339 78.6098C42.069 78.6098 43.9616 76.7045 43.9616 74.3538ZM4.12438 34.1492C4.12438 19.7145 12.5553 7.26516 24.7145 1.54583L24.6562 1.38916C10.1878 7.36316 0 21.6865 0 38.4058C0 58.2392 14.332 74.6978 33.1388 77.8512C31.754 75.2272 32.0421 71.9598 33.9493 69.6252C17.0366 66.8312 4.12438 52.0112 4.12438 34.1492ZM45.5185 69.6252C47.4244 71.9585 47.7145 75.2258 46.3291 77.8512C65.1358 74.6978 79.4678 58.2392 79.4678 38.4058C79.4678 21.6865 69.2801 7.36316 54.8116 1.38916L54.7533 1.54583C66.9126 7.26449 75.3435 19.7145 75.3435 34.1492C75.3435 52.0112 62.4313 66.8312 45.5185 69.6252Z" fill="#0C989A"/>
<path d="M165.824 65.0108C162.601 65.0108 161.189 62.1642 161.189 58.9442C161.189 55.7102 162.612 52.8775 165.824 52.8775C169.063 52.8775 170.46 55.7102 170.46 58.9442C170.46 62.1788 169.062 65.0108 165.824 65.0108ZM163.467 58.9468C163.467 60.8302 163.954 62.7608 165.824 62.7608C166.961 62.7608 168.198 61.9948 168.198 58.9368C168.198 57.0562 167.692 55.1115 165.824 55.1115C163.956 55.1108 163.467 57.0575 163.467 58.9468ZM155.261 56.9108C157.984 56.9608 159.34 58.9495 159.34 60.9435C159.34 62.9742 157.933 65.0108 155.129 65.0108C152.693 65.0108 150.941 63.3968 150.941 60.9442C150.941 60.0335 151.166 59.2502 151.619 58.5942L155.228 53.1108H157.844L155.261 56.9108ZM153.204 60.9435C153.204 62.5395 154.586 62.8475 155.129 62.8475C155.662 62.8475 157.071 62.5342 157.071 60.9482C157.071 59.8022 156.207 59.0575 155.128 59.0575C154.596 59.0568 153.204 59.3535 153.204 60.9435ZM145.556 52.8562C147.653 52.8562 149.749 54.2115 149.749 56.9268C149.749 57.8275 149.517 58.6162 149.053 59.2942H149.069L145.461 64.7775H142.845L145.411 60.9775C143.03 60.9335 141.355 59.3248 141.355 56.9275C141.355 54.2148 143.456 52.8562 145.556 52.8562ZM145.565 55.0402C144.596 55.0402 143.623 55.6755 143.623 56.9275C143.623 58.1962 144.591 58.8335 145.557 58.8335C146.52 58.8335 147.481 58.2002 147.481 56.9275C147.481 55.6628 146.526 55.0402 145.565 55.0402ZM136.603 53.1108H138.888V64.7775H136.603V55.4108L133.888 56.9268V54.6102L136.603 53.1108ZM218.338 44.1108H215.706L211.567 38.6275V44.1108H209.282V32.4442H211.567V37.5942L215.54 32.4442H218.172L213.884 38.1275L218.338 44.1108ZM202.926 44.3442C200.579 44.3442 198.688 43.1095 198.688 40.5108H200.972C200.972 41.5662 201.623 42.0942 202.926 42.0942C203.782 42.0942 204.63 41.7895 204.63 40.9275C204.63 38.8808 198.903 39.7362 198.903 35.6108C198.903 33.3955 200.756 32.2002 202.67 32.2002C204.684 32.2002 206.568 33.4068 206.568 35.9775H204.299C204.299 34.9555 203.754 34.4442 202.66 34.4442C201.626 34.4442 201.164 35.0262 201.164 35.6122C201.164 37.8568 206.899 36.9142 206.899 40.9275C206.899 43.1888 205.064 44.3442 202.926 44.3442ZM195.449 35.5182C195.449 36.0255 195.31 36.5395 195.012 37.0108C196.374 37.7208 197.017 39.0575 197.017 40.3815C197.017 42.2588 195.725 44.1102 193.357 44.1102H187.198V32.4435H192.016C194.118 32.4442 195.449 33.9495 195.449 35.5182ZM193.161 35.6882C193.161 35.1322 192.794 34.5942 192.016 34.5942H189.483V36.5608H192.81C193.041 36.3288 193.161 36.0055 193.161 35.6882ZM193.058 41.9608C194.161 41.9608 194.73 41.2308 194.73 40.2775C194.73 39.3055 194.165 38.5942 193.075 38.5942H189.482V41.9608H193.058ZM180.095 41.9108H184.681V44.1108H177.811V32.4442H184.599V34.6442H180.095V37.1442H184.185V39.2942H180.095V41.9108ZM171.338 41.9108H175.643V44.1108H169.053V32.4442H171.338V41.9108ZM160.758 39.8775V37.8442H166.255V44.1108H164.103V42.6442C163.275 43.7775 162.038 44.3442 160.394 44.3442C157.033 44.3442 154.633 41.6615 154.633 38.2775C154.633 34.4875 157.572 32.1875 160.632 32.1875C162.474 32.1875 165.546 33.3382 166.255 36.3608H163.871C163.367 35.1215 162.006 34.4435 160.619 34.4435C158.782 34.4435 156.9 35.6315 156.9 38.2775C156.9 40.9988 158.825 42.2395 160.674 42.2395C162.187 42.2395 163.651 41.4082 163.969 39.8775H160.758ZM146.675 44.3535C143.602 44.3535 140.627 42.0262 140.627 38.2775C140.627 33.6235 144.717 32.2002 146.598 32.2002C149.676 32.2002 152.662 34.5382 152.662 38.2775C152.662 42.9308 148.544 44.3535 146.675 44.3535ZM142.887 38.2788C142.887 41.3568 145.545 42.1015 146.636 42.1015C147.706 42.1015 150.386 41.3535 150.386 38.2788C150.386 35.1902 147.728 34.4368 146.636 34.4368C145.563 34.4368 142.887 35.1962 142.887 38.2788ZM134.882 44.3442C132.535 44.3442 130.644 43.1095 130.644 40.5108H132.929C132.929 41.5662 133.58 42.0942 134.882 42.0942C135.738 42.0942 136.587 41.7895 136.587 40.9275C136.587 38.8735 130.859 39.7382 130.859 35.6108C130.859 33.3955 132.712 32.2002 134.626 32.2002C136.64 32.2002 138.524 33.4068 138.524 35.9775H136.256C136.256 34.9555 135.71 34.4442 134.617 34.4442C133.582 34.4442 133.121 35.0262 133.121 35.6122C133.121 37.8568 138.855 36.9142 138.855 40.9275C138.856 43.1888 137.02 44.3442 134.882 44.3442ZM125.975 32.4442H128.259V44.1108H125.975V32.4442ZM121.62 44.1108L118.342 40.0608H116.935V44.1108H114.65V32.4442H119.038C121.931 32.4442 122.898 35.0415 122.898 36.2635C122.898 37.6548 122.122 39.0115 120.726 39.6775L124.302 44.1108H121.62ZM116.935 34.5942V38.0442H119.038C119.919 38.0442 120.61 37.2535 120.61 36.3108C120.61 35.3642 119.914 34.5942 119.038 34.5942H116.935ZM106.163 44.3535C103.09 44.3535 100.114 42.0262 100.114 38.2775C100.114 33.6235 104.204 32.2002 106.085 32.2002C109.163 32.2002 112.15 34.5382 112.15 38.2775C112.15 42.9308 108.031 44.3535 106.163 44.3535ZM102.375 38.2788C102.375 41.3568 105.033 42.1015 106.124 42.1015C107.194 42.1015 109.874 41.3535 109.874 38.2788C109.874 35.1902 107.215 34.4368 106.124 34.4368C105.051 34.4368 102.375 35.1962 102.375 38.2788ZM96.7429 35.5182C96.7429 36.0255 96.6039 36.5395 96.3065 37.0108C97.6681 37.7208 98.3111 39.0575 98.3111 40.3815C98.3111 42.2588 97.0191 44.1102 94.6509 44.1102H88.4922V32.4435H93.3099C95.4125 32.4442 96.7429 33.9495 96.7429 35.5182ZM94.4549 35.6882C94.4549 35.1322 94.088 34.5942 93.3099 34.5942H90.7769V36.5608H94.1039C94.3351 36.3288 94.4549 36.0055 94.4549 35.6882ZM94.3529 41.9608C95.4562 41.9608 96.0251 41.2308 96.0251 40.2775C96.0251 39.3055 95.4595 38.5942 94.3695 38.5942H90.7769V41.9608H94.3529ZM126.673 60.8908C125.498 60.8908 124.573 59.9602 124.573 58.7768C124.573 57.6588 125.475 56.7082 126.673 56.7082C127.808 56.7082 128.728 57.6342 128.728 58.7768C128.728 59.9848 127.784 60.8908 126.673 60.8908ZM178.824 60.8908C177.648 60.8908 176.724 59.9602 176.724 58.7768C176.724 57.6588 177.625 56.7082 178.824 56.7082C179.959 56.7082 180.879 57.6342 180.879 58.7768C180.879 59.9848 179.935 60.8908 178.824 60.8908Z" fill="#0C989A"/>
</g>
<defs>
<clipPath id="clip0_668_17646">
<rect width="218.537" height="80" fill="white"/>
</clipPath>
</defs>
</svg>
