<svg width="103" height="113" viewBox="0 0 103 113" fill="none" xmlns="http://www.w3.org/2000/svg">
<g clip-path="url(#clip0_58_1305)">
<path fill-rule="evenodd" clip-rule="evenodd" d="M40.7812 27.83C40.3812 27.73 39.8612 26.81 39.5512 26.48L37.3612 24.21C37.2112 24.08 37.1312 24 37.0012 23.86C35.7112 22.55 34.0812 21.49 32.5412 20.49C32.1512 20.24 29.4212 18.67 29.1112 18.67C28.6512 18.67 26.3512 22.21 26.1912 22.48C25.3312 23.93 24.5312 25.43 23.9012 27C22.2512 31.13 21.2412 36.69 21.8212 41.69C22.0612 43.77 22.4712 45.86 23.1012 47.85C23.6612 49.64 24.4012 51.4 25.3312 53.06C26.4812 55.12 27.8012 56.94 29.2912 58.73C29.4212 58.88 29.5312 58.98 29.6812 59.12C29.8312 59.27 29.8712 59.32 30.0112 59.49L30.1912 59.7C30.8712 60.48 31.9212 61.32 32.7312 62.01C32.9912 62.23 33.3012 62.45 33.5812 62.64C36.2412 64.45 38.8412 65.87 42.3312 65.87C44.8812 65.87 47.1112 64.92 48.4612 63.08C49.7212 61.36 49.5512 59.1 48.1412 57.56C47.0612 56.38 44.9212 56.06 43.5012 56.8L42.5312 57.48C42.5212 57.49 42.5012 57.51 42.4912 57.52C41.5012 58.47 40.9912 59.96 41.3112 61.35C40.8112 61.02 39.8612 60.08 39.4812 59.58C37.6312 57.2 36.5412 54.65 36.5412 51.48C36.5412 48.67 37.7012 46.18 39.6512 44.89C41.5712 43.62 43.7412 43.01 46.1112 43.7C46.7012 43.87 47.4312 44.27 47.8012 44.35C47.7012 43.92 47.4512 43.51 47.3312 43.02C46.5712 40.06 47.7012 36.88 50.1012 35.07C50.5212 34.75 51.5212 34.08 52.0312 34.05C52.4012 34.03 53.6112 34.79 53.9312 35.01C55.6312 36.19 57.0312 38.41 57.0312 40.76C57.0312 41.79 56.9212 42.74 56.5912 43.69C56.4912 43.99 56.3912 44.09 56.3212 44.36C56.7012 44.27 57.3912 43.89 57.9512 43.72C59.0712 43.39 60.4912 43.38 61.6712 43.62C62.7112 43.83 63.5612 44.25 64.3812 44.83C67.6012 47.11 68.0712 51.07 67.1712 54.66C66.6012 56.94 65.4312 58.85 63.8212 60.46C63.5112 60.77 63.1812 61.1 62.8212 61.34C62.8412 60.27 63.2612 59.2 61.7212 57.59C61.7112 57.58 61.6912 57.56 61.6812 57.55C59.6712 55.53 56.3012 56.27 55.1512 58.83C54.7412 59.75 54.6912 60.74 54.9812 61.74C55.7512 64.36 58.9812 65.88 61.7212 65.88C65.6112 65.88 69.2012 63.95 72.0412 61.48L74.0412 59.57C74.0512 59.56 74.0712 59.54 74.0812 59.53C74.0912 59.52 74.1112 59.5 74.1212 59.49L74.6612 58.94C75.2812 58.3 75.8112 57.59 76.3512 56.87C78.2012 54.41 79.3912 52.1 80.5412 49.24C82.7112 43.89 82.9012 37.69 81.7812 32.04C80.9812 28 79.1012 23.8 76.6312 20.52C76.4412 20.27 75.2612 18.67 75.1112 18.67C74.5012 18.67 71.6912 20.4 70.9312 20.91C69.8912 21.6 68.8312 22.31 67.9312 23.15C67.2512 23.78 66.4712 24.37 65.8612 25.07L64.0312 27.15C63.8512 27.38 63.6612 27.74 63.3712 27.82C63.3712 26.58 62.7912 24.15 62.3812 22.94C61.3612 19.92 60.6612 18.31 59.0412 15.56C58.4412 14.54 57.7212 13.6 57.0012 12.67C56.8512 12.48 56.7312 12.32 56.5812 12.15C55.7312 11.18 53.2312 8.42003 52.0212 7.78003C51.3112 8.26003 50.5212 9.00003 49.9312 9.60003L48.4812 11.05C48.2812 11.26 48.2212 11.38 48.0112 11.6C47.8212 11.8 47.7712 11.91 47.5812 12.11C45.7912 13.99 43.7012 17.71 42.7612 20.05C41.9912 22 41.3912 24 40.9812 26.09C40.9012 26.63 40.7812 27.21 40.7812 27.83Z" fill="#0C989A"/>
<path fill-rule="evenodd" clip-rule="evenodd" d="M90.8003 35.2701C90.8003 36.0901 90.7303 36.6201 90.7203 37.3901C90.7103 38.8501 90.2403 42.0101 89.9703 43.2101C89.8303 43.8201 89.7103 44.4401 89.5603 44.9901C89.0903 46.6601 88.6203 48.4001 87.9103 49.9901C87.0403 51.9301 86.6203 52.6801 85.7403 54.4001C84.8303 56.2001 83.3903 58.0601 82.1503 59.6501C81.2203 60.8401 79.4003 62.8401 78.4103 63.6601L74.7403 66.6501C72.7803 68.0901 70.6603 69.2401 68.4903 70.3401C67.5003 70.8401 66.4303 71.2201 65.3403 71.6501C64.2703 72.0701 63.1503 72.3601 62.0103 72.7001C61.0103 72.9901 59.3803 73.3801 58.3203 73.4701C58.7503 74.2801 59.1403 74.6301 59.5603 75.6701C60.1603 77.1501 60.2403 79.0301 59.8403 80.6201C59.6603 81.3401 59.2803 81.9501 59.1803 82.3901C61.0803 82.2301 64.6203 81.1301 66.3503 80.5601C71.1103 78.9901 75.5203 76.3901 79.4003 73.2601L80.6303 72.2201C81.6603 71.4401 84.2703 68.7401 85.0903 67.6801C87.3403 64.7601 88.7003 63.2101 90.5403 59.5101C91.0503 58.5001 91.5403 57.5101 91.9603 56.4701C93.6003 52.4701 94.7603 48.3101 95.1103 43.8001C95.2103 42.4501 95.3303 40.8801 95.3403 39.4901C95.3403 39.0101 95.2703 38.8801 95.2603 38.4801C95.2503 38.0901 95.2703 37.6901 95.2703 37.3001C95.2403 34.9201 94.5703 31.7801 94.0703 29.4201C93.5803 27.1001 92.7003 24.8401 91.8103 22.6801C91.5903 22.1501 91.3503 21.6601 91.1003 21.1201C89.5903 17.8001 87.5003 14.6701 85.1403 11.8901C84.3603 10.9601 83.5403 10.0401 82.6603 9.21011C81.7003 8.30011 80.7503 7.37011 79.7103 6.52011C77.8003 4.98011 75.7803 3.55011 73.6503 2.32011C73.4103 2.18011 73.1803 2.09011 72.9303 1.94011C72.0103 1.38011 69.8703 0.380107 68.8003 0.360107L69.3503 0.670108C69.5503 0.770108 69.7103 0.850108 69.9303 0.960108L75.3503 4.39011L79.6203 8.10011C80.1403 8.75011 80.8003 9.35011 81.3503 9.97011C82.9103 11.7301 84.2203 13.6601 85.4403 15.6701C88.2503 20.3101 90.2203 26.3101 90.6503 31.8301C90.7303 32.9501 90.8003 34.1201 90.8003 35.2701Z" fill="#0C989A"/>
<path fill-rule="evenodd" clip-rule="evenodd" d="M8.83984 39.7301C8.83984 43.3301 9.29984 47.0901 10.2198 50.5601C10.5998 52.0001 11.0198 53.4001 11.5598 54.7801L13.6398 59.5101C15.5098 63.2501 17.1298 65.1901 19.6298 68.3201C19.8198 68.5501 20.0198 68.6901 20.1998 68.9201C20.4298 69.2101 20.5298 69.3201 20.7998 69.5801C21.8298 70.6101 22.8698 71.6501 23.9698 72.5901L24.6498 73.1601C24.8798 73.3401 25.0398 73.4901 25.2998 73.6901C25.5698 73.8901 25.7498 74.0301 26.0098 74.2401C26.9798 75.0301 28.5698 76.1401 29.6898 76.7401C31.5998 77.7701 33.3498 78.8201 35.3898 79.6501C35.7098 79.7801 35.9498 79.8701 36.2898 80.0101C38.2498 80.8001 42.8398 82.2201 45.0098 82.4001C44.7898 81.4401 44.0698 80.8701 44.0698 78.5601C44.0698 76.9601 44.4498 75.7601 45.1898 74.5101C45.4198 74.1201 45.6798 73.8301 45.8698 73.4701C43.5598 73.2801 39.4398 71.9001 37.3298 71.0501C36.8098 70.8401 36.2998 70.6401 35.7998 70.3901C34.5598 69.7701 33.2998 69.2101 32.1698 68.4601L30.8198 67.6101C29.6898 66.9101 28.6398 66.0901 27.6098 65.2601C25.9398 63.9001 24.5598 62.5001 23.0998 60.9201C20.0998 57.7001 17.0798 52.6801 15.7098 48.5001C15.5298 47.9701 15.3498 47.4501 15.1498 46.8701C14.7698 45.7401 14.4598 44.5001 14.2198 43.3301C12.4498 34.5201 13.5698 25.7801 17.4398 18.0401C17.8498 17.2301 18.2098 16.5301 18.6798 15.7601L20.0698 13.5501C20.8898 12.3101 21.8298 11.2001 22.7498 10.0501C23.1998 9.49011 23.7598 9.01011 24.2098 8.46011C24.2198 8.45011 24.2298 8.43011 24.2398 8.42011C24.2498 8.41011 24.2598 8.39011 24.2798 8.38011L26.2798 6.47011C27.0098 5.91011 27.7998 5.15011 28.7298 4.46011C30.4498 3.17011 32.2598 1.95011 34.1898 0.990108C34.5398 0.820108 35.0598 0.630107 35.3598 0.360107C34.6898 0.420107 33.0698 1.18011 32.4098 1.48011C31.9298 1.70011 31.4998 1.93011 31.0498 2.16011L29.6698 2.90011C27.5598 4.15011 25.5098 5.53011 23.6698 7.15011L22.6098 8.13011C22.4398 8.30011 22.2898 8.48011 22.0998 8.63011C21.8598 8.83011 21.7798 8.88011 21.5498 9.10011C19.4698 11.2001 17.6098 13.5001 15.9698 15.9601L14.4298 18.4901C14.1598 18.9701 13.9498 19.3801 13.6898 19.8601C13.6298 19.9601 13.5798 20.0701 13.5298 20.1701C12.1598 22.6501 10.9298 26.0101 10.2598 28.7201C9.97984 29.8401 9.69984 30.9501 9.50984 32.1201C9.14984 34.4401 8.83984 37.0201 8.83984 39.7301Z" fill="#0C989A"/>
<path fill-rule="evenodd" clip-rule="evenodd" d="M47.3516 78.5601C47.3516 79.1401 47.5716 79.9401 47.7416 80.3601C48.3516 81.9101 50.1116 83.2601 51.6616 83.2601C53.3616 83.2601 54.3216 83.0201 55.5916 81.7201C55.9216 81.3801 56.2616 80.8101 56.4516 80.3101C57.1416 78.5401 56.6616 76.3101 55.3016 75.1501C55.2816 75.1301 55.2316 75.0901 55.2116 75.0801C55.1316 75.0201 55.1016 74.9901 55.0416 74.9401C54.9216 74.8501 54.8516 74.7901 54.7316 74.7001C53.5116 73.7901 51.5916 73.6001 50.1416 74.3001C49.8616 74.4401 49.6116 74.5601 49.3816 74.7201C48.9216 75.0501 48.5416 75.4401 48.2216 75.9101C47.7416 76.6401 47.3516 77.6201 47.3516 78.5601Z" fill="#0C989A"/>
<path d="M5.99922 99.4302C5.99922 100.51 5.13922 101.38 4.06922 101.42C4.04922 101.42 4.02922 101.42 4.00922 101.42H1.29922C1.23922 101.42 1.17922 101.41 1.11922 101.39C0.869219 101.31 0.699219 101.08 0.699219 100.81V95.5602C0.699219 95.2902 0.879219 95.0602 1.11922 94.9802C1.13922 94.9702 1.15922 94.9702 1.17922 94.9702C1.21922 94.9602 1.25922 94.9602 1.29922 94.9602H5.03922C5.36922 94.9602 5.63922 95.2302 5.63922 95.5602C5.63922 95.8902 5.36922 96.1602 5.03922 96.1602H1.90922V97.4302H3.71922H4.01922C5.10922 97.4402 5.99922 98.3302 5.99922 99.4302ZM4.79922 99.4302C4.79922 99.0002 4.44922 98.6502 4.01922 98.6502H3.71922H1.90922V100.21H4.01922C4.44922 100.21 4.79922 99.8602 4.79922 99.4302Z" fill="#0C989A"/>
<path d="M14.5705 98.2003C14.5705 100.09 13.0405 101.62 11.1505 101.62C9.26047 101.62 7.73047 100.09 7.73047 98.2003C7.73047 96.3103 9.26047 94.7803 11.1505 94.7803C13.0405 94.7803 14.5705 96.3103 14.5705 98.2003ZM13.3605 98.2003C13.3605 96.9803 12.3705 95.9903 11.1505 95.9903C9.93047 95.9903 8.94047 96.9803 8.94047 98.2003C8.94047 99.4203 9.93047 100.41 11.1505 100.41C12.3705 100.41 13.3605 99.4203 13.3605 98.2003Z" fill="#0C989A"/>
<path d="M21.6398 97.2502C21.6398 98.4902 20.6498 99.5002 19.4098 99.5402C19.3898 99.5402 19.3698 99.5402 19.3498 99.5402H17.7898V100.82C17.7898 101.15 17.5198 101.42 17.1898 101.42C16.8598 101.42 16.5898 101.15 16.5898 100.82V95.5702C16.5898 95.3202 16.7398 95.1102 16.9598 95.0102C17.0298 94.9802 17.1098 94.9602 17.1998 94.9602H19.3698C19.3898 94.9602 19.4098 94.9602 19.4298 94.9602C20.6398 95.0002 21.6398 96.0102 21.6398 97.2502ZM20.4298 97.2502C20.4298 96.6502 19.9398 96.1702 19.3498 96.1702H17.7898V98.3402H19.3498C19.9398 98.3302 20.4298 97.8502 20.4298 97.2502Z" fill="#0C989A"/>
<path d="M29.2411 95.5602V100.81C29.2411 101.14 28.9711 101.41 28.6411 101.41C28.3111 101.41 28.0411 101.14 28.0411 100.81V97.2002L24.6511 101.2C24.7411 101.09 24.7411 101.09 24.6511 101.2L24.6411 101.21C24.5911 101.27 24.5211 101.32 24.4511 101.35C24.3711 101.39 24.2811 101.41 24.2011 101.41C24.1811 101.41 24.1711 101.41 24.1511 101.41C24.1011 101.41 24.0411 101.39 23.9911 101.37C23.9711 101.36 23.9411 101.35 23.9211 101.34C23.8911 101.32 23.8611 101.3 23.8311 101.28C23.8211 101.27 23.8111 101.26 23.8011 101.25C23.7511 101.2 23.7111 101.14 23.6811 101.08C23.6411 101 23.6211 100.92 23.6211 100.83C23.6211 100.83 23.6211 100.83 23.6211 100.82V95.5702C23.6211 95.2402 23.8911 94.9702 24.2211 94.9702C24.5511 94.9702 24.8211 95.2402 24.8211 95.5702V99.1802L28.2111 95.1902C28.2211 95.1802 28.2211 95.1802 28.2311 95.1702C28.2811 95.1102 28.3511 95.0602 28.4211 95.0302C28.4811 95.0002 28.5511 94.9802 28.6211 94.9802C28.6311 94.9802 28.6511 94.9802 28.6611 94.9802C28.7911 94.9802 28.9211 95.0202 29.0211 95.1002C29.0311 95.1102 29.0411 95.1102 29.0511 95.1202C29.1111 95.1702 29.1711 95.2402 29.2011 95.3202C29.2211 95.3802 29.2411 95.4702 29.2411 95.5602Z" fill="#0C989A"/>
<path d="M32.4583 98.2001C32.4583 99.3701 33.4083 100.33 34.5783 100.33C35.1183 100.33 35.6383 100.13 36.0283 99.7501C36.1483 99.6401 36.2983 99.5901 36.4383 99.5901C36.9783 99.5901 37.2483 100.26 36.8483 100.63C36.2283 101.21 35.4183 101.53 34.5683 101.53C32.7283 101.53 31.2383 100.04 31.2383 98.2001C31.2383 96.3601 32.7283 94.8701 34.5683 94.8701C35.4383 94.8701 36.2583 95.2001 36.8783 95.8001C37.1183 96.0301 37.1283 96.4101 36.8983 96.6501C36.6683 96.8901 36.2883 96.9001 36.0483 96.6701C35.6483 96.2901 35.1283 96.0801 34.5783 96.0801C33.4183 96.0801 32.4583 97.0301 32.4583 98.2001Z" fill="#0C989A"/>
<path d="M45.5002 98.2003C45.5002 100.09 43.9702 101.62 42.0802 101.62C40.1902 101.62 38.6602 100.09 38.6602 98.2003C38.6602 96.3103 40.1902 94.7803 42.0802 94.7803C43.9702 94.7803 45.5002 96.3103 45.5002 98.2003ZM44.3002 98.2003C44.3002 96.9803 43.3102 95.9903 42.0902 95.9903C40.8702 95.9903 39.8802 96.9803 39.8802 98.2003C39.8802 99.4203 40.8702 100.41 42.0902 100.41C43.3002 100.41 44.3002 99.4203 44.3002 98.2003Z" fill="#0C989A"/>
<path d="M51.2178 96.1602H48.7078V100.82C48.7078 101.15 48.4378 101.42 48.1078 101.42C47.7778 101.42 47.5078 101.15 47.5078 100.82V95.5702C47.5078 95.5702 47.5078 95.5702 47.5078 95.5602C47.5078 95.2302 47.7778 94.9602 48.1078 94.9602H51.2178C51.5478 94.9602 51.8178 95.2302 51.8178 95.5602C51.8278 95.8902 51.5578 96.1602 51.2178 96.1602Z" fill="#0C989A"/>
<path d="M53.4499 101.28C53.3299 101.39 53.1799 101.44 52.9799 101.42C52.7899 101.4 52.6399 101.33 52.5399 101.2C52.4299 101.08 52.3899 100.92 52.3999 100.73C52.4099 100.54 52.4899 100.4 52.6199 100.29L52.7899 100.14C52.8799 100.07 52.9499 99.9802 53.0199 99.8902C53.0899 99.8002 53.1499 99.7002 53.1999 99.6002C53.2499 99.5102 53.2899 99.3802 53.3299 99.2302C53.3699 99.0802 53.3999 98.9502 53.4299 98.8402C53.4599 98.7302 53.4799 98.5702 53.4999 98.3702C53.5199 98.1702 53.5299 98.0102 53.5399 97.8802C53.5499 97.7502 53.5599 97.5702 53.5699 97.3202C53.5799 97.0802 53.5799 96.8802 53.5799 96.7402C53.5799 96.6002 53.5799 96.3902 53.5899 96.1102C53.5899 95.8702 53.5899 95.6802 53.5899 95.5502H53.5999C53.5999 95.3702 53.6699 95.2202 53.7999 95.1002C53.9099 95.0002 54.0399 94.9502 54.1899 94.9502H57.4399C57.5999 94.9502 57.7399 95.0102 57.8599 95.1302C57.9799 95.2502 58.0399 95.3902 58.0399 95.5602L58.0499 100.76C58.0499 100.92 57.9999 101.06 57.8799 101.18C57.7599 101.3 57.6199 101.36 57.4499 101.36C57.2799 101.36 57.1399 101.3 57.0299 101.19C56.9099 101.08 56.8499 100.93 56.8499 100.77L56.8399 96.1602H54.7699C54.7699 96.5702 54.7599 96.9102 54.7499 97.1802C54.7399 97.4502 54.7199 97.7602 54.6999 98.1102C54.6699 98.4602 54.6399 98.7602 54.5899 99.0102C54.5399 99.2602 54.4699 99.5202 54.3999 99.7902C54.3199 100.06 54.2199 100.3 54.0899 100.51C53.9599 100.72 53.8199 100.92 53.6499 101.08L53.4499 101.28Z" fill="#0C989A"/>
<path d="M61.4795 96.1702V97.5902H63.8595C64.1895 97.5902 64.4595 97.8602 64.4595 98.1902C64.4595 98.5202 64.1895 98.7902 63.8595 98.7902H61.4795V100.21H64.3795C64.7095 100.21 64.9795 100.48 64.9795 100.81C64.9795 101.14 64.7095 101.41 64.3795 101.41H60.8795C60.7795 101.41 60.6795 101.38 60.5895 101.34C60.5595 101.32 60.5195 101.3 60.4895 101.28C60.4595 101.25 60.4295 101.23 60.4095 101.2C60.3195 101.1 60.2695 100.96 60.2695 100.82V95.5702C60.2695 95.4202 60.3195 95.2902 60.4095 95.1902C60.4295 95.1602 60.4595 95.1302 60.4895 95.1102C60.5195 95.0802 60.5495 95.0602 60.5895 95.0402C60.6795 94.9902 60.7695 94.9702 60.8795 94.9702H64.3795C64.7095 94.9702 64.9795 95.2402 64.9795 95.5702C64.9795 95.9002 64.7095 96.1702 64.3795 96.1702H61.4795Z" fill="#0C989A"/>
<path d="M72.3 99.4302C72.3 100.51 71.44 101.38 70.37 101.42C70.35 101.42 70.33 101.42 70.31 101.42H67.6C67.54 101.42 67.48 101.41 67.42 101.39C67.17 101.31 67 101.08 67 100.81V95.5602C67 95.2902 67.18 95.0602 67.42 94.9802C67.44 94.9702 67.46 94.9702 67.48 94.9702C67.52 94.9602 67.56 94.9602 67.6 94.9602H71.34C71.67 94.9602 71.94 95.2302 71.94 95.5602C71.94 95.8902 71.67 96.1602 71.34 96.1602H68.2V97.4302H70.01H70.31C71.41 97.4402 72.3 98.3302 72.3 99.4302ZM71.09 99.4302C71.09 99.0002 70.74 98.6502 70.31 98.6502H70.01H68.2V100.21H70.31C70.74 100.21 71.09 99.8602 71.09 99.4302Z" fill="#0C989A"/>
<path d="M75.2295 98.2001C75.2295 99.3701 76.1795 100.33 77.3595 100.33C77.8995 100.33 78.4195 100.13 78.8095 99.7501C78.9295 99.6401 79.0695 99.5901 79.2195 99.5901C79.7595 99.5901 80.0295 100.26 79.6295 100.63C79.0095 101.21 78.1995 101.53 77.3495 101.53C75.5095 101.53 74.0195 100.04 74.0195 98.2001C74.0195 96.3601 75.5095 94.8701 77.3495 94.8701C78.2195 94.8701 79.0395 95.2001 79.6595 95.8001C79.8995 96.0301 79.9095 96.4101 79.6795 96.6501C79.4495 96.8901 79.0695 96.9001 78.8295 96.6701C78.4295 96.2901 77.9095 96.0801 77.3595 96.0801C76.1795 96.0801 75.2295 97.0301 75.2295 98.2001Z" fill="#0C989A"/>
<path d="M86.8977 101.28C86.7877 101.37 86.6477 101.42 86.5177 101.42C86.3477 101.42 86.1677 101.34 86.0477 101.2L83.9777 98.6803L83.0477 99.6503V100.82C83.0477 101.15 82.7777 101.42 82.4477 101.42C82.1177 101.42 81.8477 101.15 81.8477 100.82V95.5703C81.8477 95.2403 82.1177 94.9703 82.4477 94.9703C82.7777 94.9703 83.0477 95.2403 83.0477 95.5703V97.9203L85.7177 95.1503C85.9477 94.9103 86.3277 94.9003 86.5677 95.1303C86.8077 95.3603 86.8177 95.7403 86.5877 95.9803L84.8277 97.8003L86.9877 100.43C87.1977 100.69 87.1577 101.07 86.8977 101.28Z" fill="#0C989A"/>
<path d="M94.6592 95.5602V100.81C94.6592 101.14 94.3892 101.41 94.0592 101.41C93.7292 101.41 93.4592 101.14 93.4592 100.81V97.2002L90.0692 101.2C90.1592 101.09 90.1592 101.09 90.0692 101.2L90.0592 101.21C90.0092 101.27 89.9392 101.32 89.8692 101.35C89.7892 101.39 89.6992 101.41 89.6192 101.41C89.5992 101.41 89.5892 101.41 89.5692 101.41C89.5192 101.41 89.4592 101.39 89.4092 101.37C89.3892 101.36 89.3592 101.35 89.3392 101.34C89.3092 101.32 89.2792 101.3 89.2492 101.28C89.2392 101.27 89.2292 101.26 89.2192 101.25C89.1692 101.2 89.1292 101.14 89.0992 101.08C89.0592 101 89.0392 100.92 89.0392 100.83C89.0392 100.83 89.0392 100.83 89.0392 100.82V95.5702C89.0392 95.2402 89.3092 94.9702 89.6392 94.9702C89.9692 94.9702 90.2392 95.2402 90.2392 95.5702V99.1802L93.6292 95.1902C93.6292 95.1802 93.6392 95.1802 93.6492 95.1702C93.6992 95.1102 93.7692 95.0602 93.8392 95.0302C93.8992 95.0002 93.9692 94.9802 94.0392 94.9802C94.0492 94.9802 94.0692 94.9802 94.0792 94.9802C94.2092 94.9802 94.3392 95.0202 94.4392 95.1002C94.4492 95.1102 94.4592 95.1102 94.4692 95.1202C94.5292 95.1702 94.5892 95.2402 94.6192 95.3202C94.6492 95.3802 94.6592 95.4702 94.6592 95.5602Z" fill="#0C989A"/>
<path d="M102.569 95.5602V100.81C102.569 101.14 102.299 101.41 101.969 101.41C101.639 101.41 101.369 101.14 101.369 100.81V97.2002L97.9792 101.2C98.0692 101.09 98.0692 101.09 97.9792 101.2L97.9692 101.21C97.9192 101.27 97.8492 101.32 97.7792 101.35C97.6992 101.39 97.6092 101.41 97.5292 101.41C97.5092 101.41 97.4992 101.41 97.4792 101.41C97.4292 101.41 97.3692 101.39 97.3192 101.37C97.2992 101.36 97.2692 101.35 97.2492 101.34C97.2192 101.32 97.1892 101.3 97.1592 101.28C97.1492 101.27 97.1392 101.26 97.1292 101.25C97.0792 101.2 97.0392 101.14 97.0092 101.08C96.9692 101 96.9492 100.92 96.9492 100.83C96.9492 100.83 96.9492 100.83 96.9492 100.82V95.5702C96.9492 95.2402 97.2192 94.9702 97.5492 94.9702C97.8792 94.9702 98.1492 95.2402 98.1492 95.5702V99.1802L101.539 95.1902C101.539 95.1802 101.549 95.1802 101.559 95.1702C101.609 95.1102 101.679 95.0602 101.749 95.0302C101.809 95.0002 101.879 94.9802 101.949 94.9802C101.959 94.9802 101.979 94.9802 101.989 94.9802C102.119 94.9802 102.249 95.0202 102.349 95.1002C102.359 95.1102 102.369 95.1102 102.379 95.1202C102.439 95.1702 102.499 95.2402 102.529 95.3202C102.559 95.3802 102.569 95.4702 102.569 95.5602ZM98.6592 93.7302C98.9192 93.7302 99.1292 93.9402 99.1292 94.2002C99.1292 94.3302 99.3692 94.5202 99.7392 94.5202C100.109 94.5202 100.349 94.3302 100.349 94.2002C100.349 93.9402 100.559 93.7302 100.819 93.7302C101.079 93.7302 101.289 93.9402 101.289 94.2002C101.289 94.9102 100.609 95.4602 99.7392 95.4602C98.8692 95.4602 98.1892 94.9102 98.1892 94.2002C98.1892 93.9402 98.3992 93.7302 98.6592 93.7302Z" fill="#0C989A"/>
<path d="M27.5687 106.34C27.5687 106.67 27.2987 106.94 26.9688 106.94H25.3687V111.59C25.3687 111.92 25.0987 112.19 24.7687 112.19C24.4387 112.19 24.1687 111.92 24.1687 111.59V106.94H22.5687C22.2387 106.94 21.9688 106.67 21.9688 106.34C21.9688 106.01 22.2387 105.74 22.5687 105.74H26.9787C27.2987 105.74 27.5687 106.01 27.5687 106.34Z" fill="#0C989A"/>
<path d="M34.3703 108.05C34.3703 109.29 33.3803 110.3 32.1403 110.34C32.1203 110.34 32.1003 110.34 32.0803 110.34H30.5203V111.62C30.5203 111.95 30.2503 112.22 29.9203 112.22C29.5903 112.22 29.3203 111.95 29.3203 111.62V106.37C29.3203 106.12 29.4703 105.91 29.6903 105.81C29.7603 105.78 29.8403 105.76 29.9303 105.76H32.1003C32.1203 105.76 32.1403 105.76 32.1603 105.76C33.3803 105.8 34.3703 106.81 34.3703 108.05ZM33.1603 108.05C33.1603 107.45 32.6703 106.97 32.0803 106.97H30.5203V109.14H32.0803C32.6803 109.13 33.1603 108.65 33.1603 108.05Z" fill="#0C989A"/>
<path d="M41.9793 106.36V111.61C41.9793 111.94 41.7093 112.21 41.3793 112.21C41.0493 112.21 40.7793 111.94 40.7793 111.61V108L37.3893 112C37.4793 111.89 37.4793 111.89 37.3893 112L37.3793 112.01C37.3293 112.07 37.2593 112.12 37.1893 112.15C37.1093 112.19 37.0193 112.21 36.9393 112.21C36.9193 112.21 36.9093 112.21 36.8893 112.21C36.8393 112.21 36.7793 112.19 36.7293 112.17C36.7093 112.16 36.6793 112.15 36.6593 112.14C36.6293 112.12 36.5993 112.1 36.5693 112.08C36.5593 112.07 36.5493 112.06 36.5393 112.05C36.4893 112 36.4493 111.94 36.4193 111.88C36.3793 111.8 36.3593 111.72 36.3593 111.63C36.3593 111.63 36.3593 111.63 36.3593 111.62V106.37C36.3593 106.04 36.6293 105.77 36.9593 105.77C37.2893 105.77 37.5593 106.04 37.5593 106.37V109.98L40.9493 105.99C40.9593 105.98 40.9593 105.98 40.9693 105.97C41.0193 105.91 41.0893 105.86 41.1593 105.83C41.2193 105.8 41.2893 105.78 41.3593 105.78C41.3693 105.78 41.3893 105.78 41.3993 105.78C41.5293 105.78 41.6593 105.82 41.7593 105.9C41.7693 105.91 41.7793 105.91 41.7893 105.92C41.8493 105.97 41.9093 106.04 41.9393 106.12C41.9593 106.18 41.9793 106.27 41.9793 106.36Z" fill="#0C989A"/>
<path d="M49.2805 112.08C49.1705 112.17 49.0305 112.22 48.9005 112.22C48.7305 112.22 48.5505 112.14 48.4305 112L46.3605 109.48L45.4305 110.45V111.62C45.4305 111.95 45.1605 112.22 44.8305 112.22C44.5005 112.22 44.2305 111.95 44.2305 111.62V106.37C44.2305 106.04 44.5005 105.77 44.8305 105.77C45.1605 105.77 45.4305 106.04 45.4305 106.37V108.72L48.1005 105.95C48.3305 105.71 48.7105 105.7 48.9505 105.93C49.1905 106.16 49.2005 106.54 48.9705 106.78L47.2105 108.6L49.3705 111.23C49.5805 111.49 49.5405 111.87 49.2805 112.08Z" fill="#0C989A"/>
<path d="M57.5978 109C57.5978 110.89 56.0678 112.42 54.1778 112.42C52.2878 112.42 50.7578 110.89 50.7578 109C50.7578 107.11 52.2878 105.58 54.1778 105.58C56.0678 105.58 57.5978 107.11 57.5978 109ZM56.3878 109C56.3878 107.78 55.3978 106.79 54.1778 106.79C52.9578 106.79 51.9678 107.78 51.9678 109C51.9678 110.22 52.9578 111.21 54.1778 111.21C55.3978 111.21 56.3878 110.22 56.3878 109Z" fill="#0C989A"/>
<path d="M64.2875 106.34C64.2875 106.67 64.0175 106.94 63.6875 106.94H62.0875V111.59C62.0875 111.92 61.8175 112.19 61.4875 112.19C61.1575 112.19 60.8875 111.92 60.8875 111.59V106.94H59.2875C58.9575 106.94 58.6875 106.67 58.6875 106.34C58.6875 106.01 58.9575 105.74 59.2875 105.74H63.6975C64.0175 105.74 64.2875 106.01 64.2875 106.34Z" fill="#0C989A"/>
<path d="M70.8606 112.15C70.5606 112.3 70.2006 112.18 70.0506 111.89L69.6306 111.06H66.2206L65.8006 111.89C65.6906 112.1 65.4806 112.22 65.2606 112.22C64.8106 112.22 64.5206 111.75 64.7206 111.34L67.3906 106.09C67.4006 106.08 67.4006 106.07 67.4106 106.06C67.4106 106.06 67.4206 106.05 67.4206 106.04C67.4406 106 67.4706 105.96 67.5006 105.93C67.5106 105.92 67.5106 105.92 67.5206 105.91C67.5306 105.9 67.5406 105.89 67.5506 105.88C67.5606 105.87 67.5706 105.87 67.5806 105.86C67.5906 105.86 67.5906 105.85 67.6006 105.85C67.6406 105.82 67.6806 105.8 67.7306 105.79C67.7406 105.79 67.7406 105.79 67.7506 105.78C67.7606 105.78 67.7806 105.77 67.7906 105.77C67.8006 105.77 67.8106 105.77 67.8306 105.76C67.8406 105.76 67.8506 105.76 67.8606 105.76C67.8806 105.76 67.9106 105.76 67.9306 105.76C67.9306 105.76 67.9306 105.76 67.9406 105.76H67.9506C67.9706 105.76 67.9906 105.76 68.0106 105.76C68.0206 105.76 68.0206 105.76 68.0306 105.76C68.0506 105.76 68.0706 105.77 68.0906 105.77H68.1006C68.1206 105.78 68.1406 105.78 68.1606 105.79C68.1706 105.79 68.1806 105.8 68.1806 105.8C68.1906 105.8 68.2006 105.81 68.2106 105.81C68.2106 105.81 68.2206 105.82 68.2306 105.82C68.2406 105.82 68.2406 105.83 68.2506 105.83C68.2706 105.84 68.2906 105.85 68.3006 105.87C68.3806 105.93 68.4406 106.01 68.4806 106.1V106.09L71.1506 111.34C71.2806 111.64 71.1606 112 70.8606 112.15ZM69.0106 109.84L67.9206 107.69L66.8306 109.84H69.0106Z" fill="#0C989A"/>
<path d="M76.2773 109.1L73.6173 111.99C73.4973 112.14 73.3373 112.21 73.1473 112.21C73.0073 112.21 72.8773 112.16 72.7673 112.07C72.6373 111.96 72.5673 111.83 72.5473 111.66C72.5273 111.49 72.5773 111.35 72.6773 111.22L74.8373 108.91L73.0773 106.76C72.9573 106.64 72.9073 106.5 72.9073 106.33C72.9073 106.16 72.9673 106.02 73.0873 105.91C73.2073 105.79 73.3473 105.74 73.5173 105.74C73.6873 105.74 73.8273 105.8 73.9373 105.92L76.2673 108.78L76.2573 106.34C76.2573 106.18 76.3173 106.04 76.4373 105.92C76.5573 105.8 76.6973 105.74 76.8673 105.74C77.0373 105.74 77.1773 105.8 77.2973 105.92C77.4173 106.04 77.4773 106.18 77.4773 106.34V108.78L79.8073 105.92C79.9273 105.8 80.0673 105.74 80.2273 105.74C80.3973 105.74 80.5373 105.79 80.6573 105.91C80.7773 106.03 80.8373 106.17 80.8373 106.33C80.8373 106.5 80.7873 106.64 80.6673 106.76L78.9073 108.91L81.0673 111.22C81.1673 111.35 81.2073 111.49 81.1973 111.66C81.1873 111.83 81.1073 111.96 80.9773 112.07C80.8673 112.16 80.7373 112.21 80.5973 112.21C80.4073 112.21 80.2473 112.13 80.1273 111.99L77.4673 109.1V111.62C77.4673 111.78 77.4073 111.93 77.2873 112.04C77.1673 112.15 77.0273 112.22 76.8573 112.22C76.6873 112.22 76.5473 112.16 76.4273 112.04C76.3073 111.92 76.2473 111.78 76.2473 111.62L76.2773 109.1Z" fill="#0C989A"/>
</g>
<defs>
<clipPath id="clip0_58_1305">
<rect width="103" height="113" fill="white"/>
</clipPath>
</defs>
</svg>
