<svg width="72" height="52" viewBox="0 0 72 52" fill="none" xmlns="http://www.w3.org/2000/svg">
<rect width="72" height="52" rx="26" fill="#0069FF"/>
<g clip-path="url(#clip0_475_90321)">
<path fill-rule="evenodd" clip-rule="evenodd" d="M15.1797 20.0325C13.9472 19.9027 12.7048 20.1578 11.6232 20.7627C10.5416 21.3676 9.67389 22.2927 9.13938 23.4108C8.60487 24.5289 8.42977 25.7851 8.63815 27.0067C8.84653 28.2283 9.42817 29.3554 10.3031 30.2331C11.1781 31.1107 12.3034 31.6959 13.5243 31.908C14.7453 32.1202 16.002 31.949 17.1218 31.4179C18.2415 30.8869 19.1692 30.022 19.7775 28.9423C20.3858 27.8626 20.6447 26.621 20.5187 25.3881C20.38 24.0177 19.7734 22.737 18.8009 21.7615C17.8285 20.786 16.5496 20.1754 15.1797 20.0325ZM14.9853 29.1725C14.3224 29.2614 13.6484 29.1404 13.0579 28.8264C12.4673 28.5125 11.99 28.0214 11.693 27.4222C11.396 26.8229 11.2942 26.1457 11.402 25.4857C11.5098 24.8256 11.8217 24.2159 12.2938 23.7423C12.766 23.2686 13.3747 22.9549 14.0344 22.845C14.6941 22.7352 15.3717 22.8349 15.9718 23.13C16.5719 23.4251 17.0645 23.9009 17.3803 24.4904C17.6961 25.0799 17.8192 25.7536 17.7324 26.4167C17.6413 27.1142 17.3227 27.7622 16.8261 28.2604C16.3295 28.7586 15.6825 29.0792 14.9853 29.1725ZM23.7271 20.2698C23.519 20.2703 23.3137 20.3172 23.126 20.407C22.9384 20.4969 22.7731 20.6274 22.6423 20.7892C22.5114 20.9509 22.4183 21.1398 22.3696 21.3421C22.321 21.5444 22.318 21.755 22.361 21.9585C22.4926 22.618 23.1086 23.0686 23.7796 23.0686H27.6738L21.6136 31.0884C21.5688 31.1476 21.5413 31.2181 21.5344 31.292C21.5274 31.366 21.5411 31.4404 21.574 31.5069C21.607 31.5735 21.6578 31.6296 21.7208 31.6689C21.7838 31.7081 21.8565 31.7291 21.9308 31.7294H31.4367C32.1073 31.7294 32.7237 31.2789 32.8553 30.6193C32.8983 30.4158 32.8954 30.2052 32.8468 30.003C32.7982 29.8007 32.7051 29.6118 32.5743 29.4501C32.4435 29.2883 32.2783 29.1577 32.0907 29.0678C31.9031 28.978 31.6979 28.931 31.4898 28.9304H26.7451L32.8006 20.9169C32.8459 20.8571 32.8736 20.7859 32.8806 20.7112C32.8877 20.6366 32.8738 20.5614 32.8405 20.4942C32.8072 20.427 32.7559 20.3705 32.6922 20.3308C32.6286 20.2912 32.5552 20.2701 32.4802 20.2698H23.7271ZM61.7122 20.3021C61.3975 20.3769 61.1177 20.5569 60.9192 20.8123C60.7206 21.0678 60.6152 21.3833 60.6203 21.7067V26.3666L53.0696 20.3578C53.0104 20.3108 52.9391 20.2815 52.864 20.2732C52.7888 20.2649 52.7129 20.278 52.6448 20.311C52.5768 20.344 52.5195 20.3955 52.4794 20.4596C52.4394 20.5237 52.4182 20.5978 52.4184 20.6734V30.295C52.4133 30.6185 52.5187 30.934 52.7172 31.1894C52.9158 31.4448 53.1955 31.6248 53.5103 31.6996C53.7146 31.7446 53.9265 31.7431 54.1302 31.6953C54.3339 31.6474 54.5243 31.5545 54.6873 31.4233C54.8503 31.292 54.9817 31.1259 55.0719 30.9371C55.1622 30.7483 55.2089 30.5416 55.2086 30.3324V25.6322L62.7594 31.641C62.8186 31.688 62.8898 31.7173 62.965 31.7256C63.0401 31.7339 63.116 31.7208 63.184 31.6878C63.252 31.6549 63.3093 31.6034 63.3494 31.5393C63.3894 31.4752 63.4106 31.4011 63.4104 31.3256V21.6689C63.4106 21.4597 63.3639 21.2531 63.2736 21.0644C63.1834 20.8756 63.0519 20.7095 62.8889 20.5784C62.726 20.4472 62.5356 20.3543 62.332 20.3065C62.1283 20.2587 61.9165 20.2572 61.7122 20.3021ZM42.0522 22.8007C45.2459 22.8007 47.6323 24.4885 47.6323 25.9982C47.6323 27.5079 45.2459 29.1957 42.0522 29.1957C38.8584 29.1957 36.4721 27.5079 36.4721 25.9982C36.4721 24.4885 38.8584 22.8007 42.0522 22.8007ZM42.0522 20.0021C37.4293 20.0021 33.6819 22.6866 33.6819 25.9982C33.6819 29.3098 37.4293 31.9943 42.0522 31.9943C46.675 31.9943 50.4223 29.3098 50.4223 25.9982C50.4223 22.6866 46.6749 20.0021 42.0522 20.0021Z" fill="white"/>
</g>
<rect width="72" height="52" rx="26" stroke="white"/>
<defs>
<clipPath id="clip0_475_90321">
<rect width="54.821" height="12" fill="white" transform="translate(8.58984 20)"/>
</clipPath>
</defs>
</svg>
