<svg width="32" height="32" viewBox="0 0 32 32" fill="none" xmlns="http://www.w3.org/2000/svg">
<g clip-path="url(#clip0_213_2292)">
<path d="M17 4H15V8H17V4ZM11.0501 9.63613L8.222 6.808L6.808 8.222L9.63613 11.0501L11.0501 9.63613ZM8 15H4V17H8V15ZM6.808 23.778L8.222 25.1913L11.0501 22.3632L9.6368 20.9499L6.808 23.778ZM15 28H17V24H15V28ZM20.9499 22.3639L23.778 25.192L25.1913 23.7787L22.3632 20.9505L20.9499 22.3639ZM24 15V17H28V15H24ZM25.192 8.222L23.7787 6.808L20.9499 9.63613L22.3632 11.0495L25.192 8.222ZM16 10.6667C14.9452 10.6667 13.914 10.9795 13.037 11.5655C12.1599 12.1515 11.4763 12.9845 11.0726 13.9591C10.669 14.9336 10.5634 16.0059 10.7691 17.0405C10.9749 18.0751 11.4829 19.0253 12.2288 19.7712C12.9746 20.5171 13.9249 21.0251 14.9595 21.2308C15.9941 21.4367 17.0664 21.3311 18.0409 20.9273C19.0155 20.5237 19.8485 19.8401 20.4345 18.9631C21.0205 18.086 21.3333 17.0548 21.3333 16C21.3333 14.5855 20.7715 13.229 19.7712 12.2288C18.7711 11.2286 17.4145 10.6667 16 10.6667Z" fill="#0C989A"/>
</g>
<path d="M3 16H29" stroke="#0C989A" stroke-width="2"/>
<g clip-path="url(#clip1_213_2292)">
<path d="M29.3346 14.9897H22.972L27.272 10.6883L26.064 9.47899L20.552 14.9897H17.012V11.4497L22.5226 5.93899L21.3133 4.72833L17.012 9.02966V2.66699H14.9906V9.02966L10.6893 4.72833L9.47997 5.93899L14.9906 11.4497V14.9897H11.4506L5.93997 9.47899L4.7293 10.6883L9.03063 14.9897H2.66797V17.011H9.03063L4.7293 21.3123L5.93997 22.5217L11.4506 17.011H14.9906V20.551L9.47997 26.0617L10.6893 27.2723L14.9906 22.971V29.3337H17.012V22.971L21.3133 27.2723L22.5226 26.0617L17.012 20.551V17.011H20.552L26.064 22.5217L27.272 21.3123L22.972 17.011H29.3346V14.9897Z" fill="#0C989A"/>
</g>
<defs>
<clipPath id="clip0_213_2292">
<rect width="32" height="14" fill="white"/>
</clipPath>
<clipPath id="clip1_213_2292">
<rect width="32" height="14" fill="white" transform="translate(0 18)"/>
</clipPath>
</defs>
</svg>
