<svg width="72" height="52" viewBox="0 0 72 52" fill="none" xmlns="http://www.w3.org/2000/svg">
<rect width="72" height="52" rx="26" fill="#BE11A5"/>
<path d="M19.1671 36L13.7422 16.0013H17.3008L21.4689 31.3614L25.936 16L29.2532 16.0013L33.736 31.443L37.9229 16.0051L41.4813 16L36.0541 35.9964L31.9294 35.9922L27.596 21.0575L23.2585 35.9961L19.1671 36Z" fill="white"/>
<path d="M58.2574 30.2792C58.2574 31.917 57.6734 33.278 56.481 34.3622C55.2886 35.4464 53.8857 36 52.156 36H43.4824V16H51.5246C53.1846 16 54.5868 16.5537 55.7325 17.5917C56.9019 18.6528 57.4629 19.9677 57.4629 21.5363C57.4629 23.2895 56.7611 24.6275 55.4057 25.6194C57.1821 26.5421 58.2574 28.203 58.2574 30.2792ZM46.8253 19.0912V24.3507H51.5475C53.0208 24.3507 54.1428 23.1972 54.1428 21.7209C54.1428 20.2445 53.0208 19.0912 51.5475 19.0912H46.8253ZM52.179 32.9089C53.7219 32.9089 54.938 31.6863 54.938 30.1177C54.938 28.549 53.7219 27.3264 52.179 27.3264H46.8253V32.932H52.179V32.9089Z" fill="white"/>
<rect width="72" height="52" rx="26" stroke="white"/>
</svg>
