<svg width="72" height="52" viewBox="0 0 72 52" fill="none" xmlns="http://www.w3.org/2000/svg">
<g clip-path="url(#clip0_475_90297)">
<rect width="72" height="52" rx="26" fill="#FED42B"/>
<path d="M33.4464 55.452C49.7432 55.452 62.8984 42.2967 62.8984 25.9999C62.8984 9.7031 49.7432 -3.45215 33.4464 -3.45215C17.1496 -3.45215 3.99433 9.7031 3.99433 25.9999C3.79798 42.2967 17.1496 55.452 33.4464 55.452Z" fill="#FED42B"/>
<path d="M18.9178 12.6484L-7 46.6164L-0.127854 54.4703L19.1142 28.9452L17.1507 42.8858L27.9498 46.6164L41.105 25.6073C40.516 29.5342 39.5342 38.5662 48.1735 41.315C61.7215 45.4383 73.5023 21.0913 79 8.72143L71.1461 4.59814C65.0594 17.3607 55.6347 31.4977 51.9041 30.5159C48.1735 29.5342 51.5114 17.557 53.6712 9.89951V9.70317L41.6941 5.57988L27.3607 28.9452L29.3242 16.1826L18.9178 12.6484Z" fill="black"/>
</g>
<defs>
<clipPath id="clip0_475_90297">
<rect width="72" height="52" rx="26" fill="white"/>
</clipPath>
</defs>
</svg>
