<svg xmlns="http://www.w3.org/2000/svg" width="1167" height="353" viewBox="0 0 1167 353"><defs><linearGradient id="wy6va" x1="1165" x2="5" y1="3" y2="353" gradientUnits="userSpaceOnUse"><stop offset="0" stop-color="#7dd2cc"/><stop offset="1" stop-color="#0a549f"/></linearGradient><linearGradient id="wy6vc" x1="976" x2="987" y1="49" y2="38" gradientUnits="userSpaceOnUse"><stop offset="0" stop-color="#ffc796"/><stop offset="1" stop-color="#ff6b95"/></linearGradient><linearGradient id="wy6vd" x1="732" x2="743" y1="109" y2="98" gradientUnits="userSpaceOnUse"><stop offset="0" stop-color="#ffc796"/><stop offset="1" stop-color="#ff6b95"/></linearGradient><linearGradient id="wy6ve" x1="488" x2="499" y1="169" y2="158" gradientUnits="userSpaceOnUse"><stop offset="0" stop-color="#ffc796"/><stop offset="1" stop-color="#ff6b95"/></linearGradient><linearGradient id="wy6vf" x1="244" x2="255" y1="228" y2="217" gradientUnits="userSpaceOnUse"><stop offset="0" stop-color="#ffc796"/><stop offset="1" stop-color="#ff6b95"/></linearGradient><linearGradient id="wy6vg" x1="308" x2="313" y1="235" y2="230" gradientUnits="userSpaceOnUse"><stop offset="0" stop-color="#ffc796"/><stop offset="1" stop-color="#ff6b95"/></linearGradient><linearGradient id="wy6vh" x1="369" x2="374" y1="215" y2="210" gradientUnits="userSpaceOnUse"><stop offset="0" stop-color="#ffc796"/><stop offset="1" stop-color="#ff6b95"/></linearGradient><linearGradient id="wy6vi" x1="430" x2="435" y1="215" y2="210" gradientUnits="userSpaceOnUse"><stop offset="0" stop-color="#ffc796"/><stop offset="1" stop-color="#ff6b95"/></linearGradient><linearGradient id="wy6vj" x1="552" x2="557" y1="205" y2="200" gradientUnits="userSpaceOnUse"><stop offset="0" stop-color="#ffc796"/><stop offset="1" stop-color="#ff6b95"/></linearGradient><linearGradient id="wy6vk" x1="613" x2="618" y1="166" y2="161" gradientUnits="userSpaceOnUse"><stop offset="0" stop-color="#ffc796"/><stop offset="1" stop-color="#ff6b95"/></linearGradient><linearGradient id="wy6vl" x1="674" x2="679" y1="165" y2="160" gradientUnits="userSpaceOnUse"><stop offset="0" stop-color="#ffc796"/><stop offset="1" stop-color="#ff6b95"/></linearGradient><linearGradient id="wy6vm" x1="796" x2="801" y1="145" y2="140" gradientUnits="userSpaceOnUse"><stop offset="0" stop-color="#ffc796"/><stop offset="1" stop-color="#ff6b95"/></linearGradient><linearGradient id="wy6vn" x1="857" x2="862" y1="116" y2="111" gradientUnits="userSpaceOnUse"><stop offset="0" stop-color="#ffc796"/><stop offset="1" stop-color="#ff6b95"/></linearGradient><linearGradient id="wy6vo" x1="918" x2="923" y1="135" y2="130" gradientUnits="userSpaceOnUse"><stop offset="0" stop-color="#ffc796"/><stop offset="1" stop-color="#ff6b95"/></linearGradient><linearGradient id="wy6vp" x1="1040" x2="1045" y1="55" y2="50" gradientUnits="userSpaceOnUse"><stop offset="0" stop-color="#ffc796"/><stop offset="1" stop-color="#ff6b95"/></linearGradient><linearGradient id="wy6vq" x1="1101" x2="1106" y1="45" y2="40" gradientUnits="userSpaceOnUse"><stop offset="0" stop-color="#ffc796"/><stop offset="1" stop-color="#ff6b95"/></linearGradient><linearGradient id="wy6vr" x1="1162" x2="1167" y1="5" y2="0" gradientUnits="userSpaceOnUse"><stop offset="0" stop-color="#ffc796"/><stop offset="1" stop-color="#ff6b95"/></linearGradient><linearGradient id="wy6vs" x1="186" x2="191" y1="265" y2="260" gradientUnits="userSpaceOnUse"><stop offset="0" stop-color="#ffc796"/><stop offset="1" stop-color="#ff6b95"/></linearGradient><linearGradient id="wy6vt" x1="125" x2="130" y1="285" y2="280" gradientUnits="userSpaceOnUse"><stop offset="0" stop-color="#ffc796"/><stop offset="1" stop-color="#ff6b95"/></linearGradient><linearGradient id="wy6vu" x1="64" x2="69" y1="265" y2="260" gradientUnits="userSpaceOnUse"><stop offset="0" stop-color="#ffc796"/><stop offset="1" stop-color="#ff6b95"/></linearGradient><linearGradient id="wy6vv" x1="0" x2="11" y1="338" y2="327" gradientUnits="userSpaceOnUse"><stop offset="0" stop-color="#ffc796"/><stop offset="1" stop-color="#ff6b95"/></linearGradient><clipPath id="wy6vb"><path d="M5 333.092l61.017-70 60.839 20 61.331-20 60.849-40 61.101 10 60.706-20h61.036l61.271-50 60.784 40 61.152-40h60.966l61.009-60 60.989 40 61.05-30 60.961 20 61.13-90 60.803 10 61.102-10L1165 3.002v340c0 5.522-4.477 10-10 10H14a9 9 0 0 1-9-9z"/></clipPath></defs><g><g><g><path fill="url(#wy6va)" d="M5 333.092l61.017-70 60.839 20 61.331-20 60.849-40 61.101 10 60.706-20h61.036l61.271-50 60.784 40 61.152-40h60.966l61.009-60 60.989 40 61.05-30 60.961 20 61.13-90 60.803 10 61.102-10L1165 3.002v340c0 5.522-4.477 10-10 10H14a9 9 0 0 1-9-9z"/></g><g clip-path="url(#wy6vb)" opacity=".1"><path fill="#fff" d="M554 43h1v320h-1z"/></g><g clip-path="url(#wy6vb)" opacity=".1"><path fill="#fff" d="M615 43h1v320h-1z"/></g><g clip-path="url(#wy6vb)" opacity=".1"><path fill="#fff" d="M676 43h1v320h-1z"/></g><g clip-path="url(#wy6vb)" opacity=".1"><path fill="#fff" d="M737 43h1v320h-1z"/></g><g clip-path="url(#wy6vb)" opacity=".1"><path fill="#fff" d="M798 43h1v320h-1z"/></g><g clip-path="url(#wy6vb)" opacity=".1"><path fill="#fff" d="M859 43h1v320h-1z"/></g><g clip-path="url(#wy6vb)" opacity=".1"><path fill="#fff" d="M920 43h1v320h-1z"/></g><g clip-path="url(#wy6vb)" opacity=".1"><path fill="#fff" d="M981 43h1v320h-1z"/></g><g clip-path="url(#wy6vb)" opacity=".1"><path fill="#fff" d="M1042 43h1v320h-1z"/></g><g clip-path="url(#wy6vb)" opacity=".1"><path fill="#fff" d="M1103 43h1v320h-1z"/></g><g clip-path="url(#wy6vb)" opacity=".1"><path fill="#fff" d="M493 153h1v300h-1z"/></g><g clip-path="url(#wy6vb)" opacity=".1"><path fill="#fff" d="M432 193h1v160h-1z"/></g><g clip-path="url(#wy6vb)" opacity=".1"><path fill="#fff" d="M371 193h1v160h-1z"/></g><g clip-path="url(#wy6vb)" opacity=".1"><path fill="#fff" d="M310 193h1v160h-1z"/></g><g clip-path="url(#wy6vb)" opacity=".1"><path fill="#fff" d="M249 193h1v160h-1z"/></g><g clip-path="url(#wy6vb)" opacity=".1"><path fill="#fff" d="M188 193h1v160h-1z"/></g><g clip-path="url(#wy6vb)" opacity=".1"><path fill="#fff" d="M127 193h1v160h-1z"/></g><g clip-path="url(#wy6vb)" opacity=".1"><path fill="#fff" d="M66 193h1v160h-1z"/></g></g><g><g><path fill="url(#wy6vc)" d="M981.5 49a5.5 5.5 0 1 0 0-11 5.5 5.5 0 0 0 0 11z"/></g><g><path fill="url(#wy6vd)" d="M737.5 109a5.5 5.5 0 1 0 0-11 5.5 5.5 0 0 0 0 11z"/></g><g><path fill="url(#wy6ve)" d="M493.5 169a5.5 5.5 0 1 0 0-11 5.5 5.5 0 0 0 0 11z"/></g><g><path fill="url(#wy6vf)" d="M249.5 228a5.5 5.5 0 1 0 0-11 5.5 5.5 0 0 0 0 11z"/></g><g><path fill="url(#wy6vg)" d="M310.5 235a2.5 2.5 0 1 0 0-5 2.5 2.5 0 0 0 0 5z"/></g><g><path fill="url(#wy6vh)" d="M371.5 215a2.5 2.5 0 1 0 0-5 2.5 2.5 0 0 0 0 5z"/></g><g><path fill="url(#wy6vi)" d="M432.5 215a2.5 2.5 0 1 0 0-5 2.5 2.5 0 0 0 0 5z"/></g><g><path fill="url(#wy6vj)" d="M554.5 205a2.5 2.5 0 1 0 0-5 2.5 2.5 0 0 0 0 5z"/></g><g><path fill="url(#wy6vk)" d="M615.5 166a2.5 2.5 0 1 0 0-5 2.5 2.5 0 0 0 0 5z"/></g><g><path fill="url(#wy6vl)" d="M676.5 165a2.5 2.5 0 1 0 0-5 2.5 2.5 0 0 0 0 5z"/></g><g><path fill="url(#wy6vm)" d="M798.5 145a2.5 2.5 0 1 0 0-5 2.5 2.5 0 0 0 0 5z"/></g><g><path fill="url(#wy6vn)" d="M859.5 116a2.5 2.5 0 1 0 0-5 2.5 2.5 0 0 0 0 5z"/></g><g><path fill="url(#wy6vo)" d="M920.5 135a2.5 2.5 0 1 0 0-5 2.5 2.5 0 0 0 0 5z"/></g><g><path fill="url(#wy6vp)" d="M1042.5 55a2.5 2.5 0 1 0 0-5 2.5 2.5 0 0 0 0 5z"/></g><g><path fill="url(#wy6vq)" d="M1103.5 45a2.5 2.5 0 1 0 0-5 2.5 2.5 0 0 0 0 5z"/></g><g><path fill="url(#wy6vr)" d="M1164.5 5a2.5 2.5 0 1 0 0-5 2.5 2.5 0 0 0 0 5z"/></g><g><path fill="url(#wy6vs)" d="M188.5 265a2.5 2.5 0 1 0 0-5 2.5 2.5 0 0 0 0 5z"/></g><g><path fill="url(#wy6vt)" d="M127.5 285a2.5 2.5 0 1 0 0-5 2.5 2.5 0 0 0 0 5z"/></g><g><path fill="url(#wy6vu)" d="M66.5 265a2.5 2.5 0 1 0 0-5 2.5 2.5 0 0 0 0 5z"/></g><g><path fill="url(#wy6vv)" d="M5.5 338a5.5 5.5 0 1 0 0-11 5.5 5.5 0 0 0 0 11z"/></g></g></g></svg>