<?xml version="1.0" encoding="UTF-8"?><!DOCTYPE svg PUBLIC "-//W3C//DTD SVG 1.1//EN" "http://www.w3.org/Graphics/SVG/1.1/DTD/svg11.dtd"><svg xmlns="http://www.w3.org/2000/svg" xmlns:xlink="http://www.w3.org/1999/xlink"><symbol id="icon-analytics" viewBox="-14 0 460 460"><path d="m63.679688 311.007812h81.207031c3.316406 0 6-2.6875 6-6 0-3.316406-2.683594-6-6-6h-81.207031c-3.3125 0-6 2.683594-6 6 0 3.3125 2.6875 6 6 6zm0 0"/><path d="m281.515625 258.007812h-22.511719v-116.140624c.070313-1.539063-.496094-3.042969-1.566406-4.152344s-2.554688-1.726563-4.09375-1.707032h-29.089844c-3.335937-.085937-6.121094 2.523438-6.25 5.859376v116.140624h-15v-84c.050782-1.570312-.535156-3.089843-1.625-4.21875-1.085937-1.128906-2.582031-1.773437-4.152344-1.78125h-29.089843c-3.339844-.011718-6.070313 2.660157-6.132813 6v84h-15v-45.363281c.007813-1.542969-.617187-3.023437-1.734375-4.089843-1.113281-1.066407-2.617187-1.625-4.160156-1.546876h-29.089844c-1.550781-.085937-3.074219.46875-4.207031 1.535157-1.136719 1.0625-1.789062 2.542969-1.808594 4.101562v45.363281h-36v-188.0625c0-3.3125-2.6875-6-6-6s-6 2.6875-6 6v194.210938c-.070312 1.539062.5 3.042969 1.574219 4.148438 1.074219 1.109374 2.558594 1.722656 4.101563 1.703124h217.835937c3.3125 0 6-2.6875 6-6 0-3.316406-2.6875-6-6-6zm-51.511719-110h17v110h-17zm-56 32h17v78h-17zm-56 39h17v39h-17zm0 0"/><path d="m85.566406 172.390625c.207032 0 .417969-.011719.625-.035156 1.074219-.109375 26.65625-2.890625 58.207032-17.464844 26.367187-12.179687 61.476562-35.039063 85.960937-76.1875l6.65625 33.273437c.648437 3.25 3.808594 5.355469 7.058594 4.707032 3.25-.648438 5.355469-3.8125 4.707031-7.0625l-9.699219-48.507813c-.570312-1.84375-1.894531-3.359375-3.644531-4.171875-1.75-.816406-3.761719-.851562-5.539062-.097656l-46.414063 9.535156c-2.121094.410156-3.855469 1.929688-4.542969 3.976563s-.226562 4.304687 1.214844 5.914062c1.4375 1.609375 3.632812 2.320313 5.742188 1.863281l35.128906-7.214843c-18.398438 31.878906-45.683594 56.371093-81.269532 72.898437-29.800781 13.84375-54.5625 16.578125-54.808593 16.601563-3.175781.328125-5.535157 3.085937-5.371094 6.277343.164063 3.1875 2.796875 5.6875 5.988281 5.691407zm0 0"/><path d="m281.515625 340.007812h-217.835937c-3.3125 0-6 2.683594-6 6 0 3.3125 2.6875 6 6 6h217.835937c3.3125 0 6-2.6875 6-6 0-3.316406-2.6875-6-6-6zm0 0"/><path d="m336.410156.0078125h-330.523437c-1.542969-.0742187-3.046875.4960935-4.160157 1.5664065-1.113281 1.070312-1.7343745 2.554687-1.72265575 4.097656v392.609375c.07812495 34.144531 27.80859375 61.769531 61.95312475 61.726562h319.324219c27.960938.054688 50.667969-22.566406 50.722656-50.527343v-133.921875c0-3.316406-2.570312-5.550782-5.882812-5.550782h-84.117188v-264.335937c.078125-1.511719-.484375-2.988281-1.546875-4.066406-1.066406-1.078125-2.535156-1.6601565-4.046875-1.5976565zm-274.433594 447.9999995c-27.535156.058594-49.90625-22.210937-49.972656-49.742187v-386.257813h318v397.492188c.113282 14.976562 6.945313 29.113281 18.613282 38.507812zm358.027344-166v127.457032c-.019531 10.246094-4.109375 20.066406-11.371094 27.296875-7.261718 7.230469-17.101562 11.273437-27.351562 11.246093h-.015625l-.199219.164063c-21.371094-.074219-39.0625-17.34375-39.0625-38.6875v-127.476563zm0 0"/></symbol><symbol id="icon-arrow-right" viewBox="-241 150.3 476.2 261.2">
<polygon points="104.6,150.3 83.4,171.5 177.8,265.9 -241,265.9 -241,295.9 177.8,295.9 83.4,390.3 104.6,411.5 235.2,280.9 "/>
</symbol><symbol id="icon-arrow" viewBox="0 0 6 10">
<path fill-rule="evenodd" d="M6.013,4.997 C6.013,5.062 5.983,5.127 5.923,5.182 L0.838,9.864 C0.687,10.001 0.398,10.032 0.192,9.930 C-0.014,9.828 -0.060,9.633 0.092,9.493 L4.978,4.997 L0.092,0.501 C-0.060,0.363 -0.014,0.168 0.192,0.065 C0.398,-0.037 0.687,-0.007 0.838,0.132 L5.923,4.813 C5.983,4.868 6.013,4.933 6.013,4.997 Z"/>
</symbol><symbol id="icon-chat" viewBox="-223 78 512 405.9">
<path d="M283.1,78H-81.2c-3.5-0.1-6.4,2.7-6.5,6.2v61.5h-129.4c-3.4,0-5.9,3-5.9,6.5v325.6c-0.1,2.3,1.2,4.5,3.2,5.6
	c0.8,0.5,1.8,0.7,2.8,0.7c1.3,0.1,2.5-0.3,3.6-1l84.6-60.5h276c3.6-0.1,6.4-3,6.5-6.6v-62.1h41.1l84.7,60.9c1.1,0.8,2.3,1.2,3.6,1.3
	c0.9,0,1.8-0.2,2.7-0.6c2-1.1,3.3-3.2,3.2-5.5V84.2c0.2-3.2-2.3-6-5.5-6.1C283.3,78,283.2,78,283.1,78L283.1,78z M141.2,410h-272
	c-1.2-0.1-2.4,0.3-3.4,1l-76.3,54.6V158.2h122.8v189.7c0,3.4,3.1,5.9,6.5,5.9h222.4V410z M276.5,397.6l-76.3-54.9
	c-1-0.8-2.2-1.3-3.4-1.3h-272V90.5h351.7V397.6z"/>
<path d="M134.3,162.3h37.6c3.4,0,6.2-2.8,6.2-6.2c0-3.4-2.8-6.2-6.2-6.2h-37.6c-3.4,0-6.2,2.8-6.2,6.2
	C128.1,159.5,130.9,162.3,134.3,162.3z"/>
<path d="M134.3,277.8h107.2c3.4,0,6.2-2.8,6.2-6.2c0-3.4-2.8-6.2-6.2-6.2H134.3c-3.4,0-6.2,2.8-6.2,6.2
	C128.1,275,130.9,277.8,134.3,277.8z"/>
<path d="M134.3,216.4h107.2c3.4,0,6.2-2.8,6.2-6.2s-2.8-6.2-6.2-6.2H134.3c-3.4,0-6.2,2.8-6.2,6.2S130.9,216.4,134.3,216.4z"/>
<path d="M-45,231.7l46.4,35.1c2.8,2.1,6.7,1.5,8.7-1.3c2-2.7,1.5-6.6-1.2-8.7l-39.9-30.1L9,196.5c2.7-2.1,3.3-6,1.2-8.8
	c-2.1-2.7-5.9-3.2-8.7-1.2L-45,221.7c-2.8,2.1-3.3,6-1.2,8.7C-45.8,230.9-45.4,231.3-45,231.7L-45,231.7z"/>
<path d="M55.8,265.6c2.1,2.8,6,3.3,8.7,1.2l46.4-35.1c2.8-2.1,3.3-6,1.2-8.7c-0.3-0.5-0.8-0.9-1.2-1.2l-46.4-35.1
	c-2.7-2.1-6.7-1.6-8.8,1.2c-2.1,2.7-1.6,6.7,1.2,8.8c0,0,0,0,0.1,0.1l39.9,30.1l-39.9,30.1C54.3,258.9,53.8,262.8,55.8,265.6z"/>
<path d="M24.1,285.5c0.3,0,0.6,0.1,0.9,0.1c3.1,0,5.7-2.3,6.2-5.3l15.9-104.7c0.5-3.4-1.8-6.6-5.2-7.1c-3.4-0.5-6.6,1.8-7.1,5.2
	L18.9,278.4C18.4,281.8,20.7,285,24.1,285.5L24.1,285.5z"/>
</symbol><symbol id="icon-close" viewBox="0 0 612 612">
<g>
	<g id="cross">
		<g>
			<polygon points="612,36.004 576.521,0.603 306,270.608 35.478,0.603 0,36.004 270.522,306.011 0,575.997 35.478,611.397 
				306,341.411 576.521,611.397 612,575.997 341.459,306.011 			"/>
		</g>
	</g>
</g>
<g>
</g>
<g>
</g>
<g>
</g>
<g>
</g>
<g>
</g>
<g>
</g>
<g>
</g>
<g>
</g>
<g>
</g>
<g>
</g>
<g>
</g>
<g>
</g>
<g>
</g>
<g>
</g>
<g>
</g>
</symbol><symbol id="icon-code" viewBox="-199.9 25 465.8 512">
<path d="M265.9,98.2c0-3.5-3.2-6-6.7-6h-99.9c0.5-2.1-0.2-4.3-1.7-5.9l-30.4-30.8c-2.3-2.3-6-2.5-8.5-0.5L97.3,72.8
	c-10.4-6.3-21.6-11-33.4-14.1l-2.7-27.9c-0.3-3.2-3-5.7-6.3-5.8H11.4c-3.3,0-6,2.5-6.3,5.8L2.4,58.6c-11.8,3-23,7.7-33.4,14.1
	L-52.4,55c-2.5-2.1-6.2-1.9-8.5,0.4l-30.8,30.9c-1.5,1.6-2.1,3.8-1.7,5.9h-99.9c-3.5,0-6.7,2.6-6.7,6v361c0.2,3.6,3.1,6.4,6.7,6.5
	h157.9l-16.5,58.8h-28.7c-3.5,0-6.3,2.8-6.3,6.3s2.8,6.3,6.3,6.3h227c3.5,0,6.3-2.8,6.3-6.3s-2.8-6.3-6.3-6.3h-28.7l-16.5-58.8
	h157.9c3.6,0,6.5-2.9,6.7-6.5v-68.7v-12.6L265.9,98.2z M-56,68.4l20.5,17c2.1,1.8,5.2,1.9,7.5,0.4c11.4-7.6,24.2-12.9,37.6-15.8
	c2.7-0.6,4.7-2.9,4.9-5.7l2.6-26.7h32.2l2.6,26.7c0.3,2.7,2.3,5,5,5.6c13.4,3,26.2,8.3,37.6,15.9c2.3,1.5,5.3,1.3,7.4-0.4l20.5-17
	l22.3,22.6l-17,20.5c-1.8,2.1-1.9,5.2-0.4,7.5c7.6,11.4,13,24.1,15.9,37.5c0.7,2.7,3,4.7,5.7,4.9l26.8,2.6v32.1l-26.5,2.6
	c-2.7,0.3-5,2.2-5.6,4.9c-3,13.4-8.4,26.1-15.9,37.6c-1.5,2.3-1.3,5.3,0.4,7.4l17,20.5l-22.7,22.6l-20.5-17
	c-2.1-1.8-5.2-1.9-7.5-0.4c-11.4,7.6-24.2,12.9-37.6,15.8c-2.7,0.5-4.7,2.7-4.9,5.4l-2.6,26.4H17.1l-2.6-26.4
	c-0.3-2.7-2.3-4.9-5-5.5c-13.4-2.9-26.2-8.3-37.6-15.8c-2.3-1.5-5.3-1.3-7.4,0.5l-20.5,17l-22.7-22.6l17-20.5
	c1.8-2.1,1.9-5.2,0.4-7.5c-7.6-11.4-13-24.1-15.9-37.5c-0.7-2.7-3-4.7-5.7-4.9l-26.8-2.6V164l26.8-2.6c2.7-0.3,5-2.2,5.6-4.9
	c3-13.4,8.4-26.1,15.9-37.6c1.5-2.3,1.3-5.3-0.4-7.4l-17-20.5L-56,68.4z M-187.3,104.7h103.5l9.5,11.4c-6.3,10.4-11,21.6-14.1,33.3
	l-28.1,2.7c-3.3,0.3-5.8,3-5.9,6.2v43.5c0.1,3.3,2.6,6,5.9,6.3l28,2.7c3,11.8,7.8,23,14.1,33.3L-92,265.5c-2.1,2.5-1.9,6.2,0.4,8.5
	l30.8,30.7c2.3,2.3,6,2.5,8.5,0.4l21.4-17.8c10.4,6.3,21.6,11,33.4,14.1L5.1,329c0.3,3.2,3.1,5.6,6.3,5.5H55
	c3.2,0.1,5.9-2.3,6.3-5.5l2.7-27.7c11.8-3,23-7.7,33.4-14l21.4,17.7c2.5,2.1,6.2,1.9,8.5-0.4L158,274c2.3-2.3,2.5-6,0.4-8.5
	l-17.7-21.4c6.3-10.4,11-21.6,14.1-33.3l27.7-2.7c3.3-0.3,5.8-3,5.9-6.3v-43.5c-0.1-3.3-2.6-6-5.9-6.3l-28-2.7
	c-3-11.7-7.8-22.9-14.1-33.2l9.5-11.4h103.5v272.8h-440.7V104.7z M104.7,524.4H-38.7l16.5-58.8H88.2L104.7,524.4z M253.3,453.1
	h-440.7v-63h440.7V453.1z"/>
<path d="M33,273.6c51.7-0.1,93.5-42,93.4-93.7s-42-93.5-93.7-93.4c-51.6,0.1-93.4,41.9-93.4,93.6C-60.6,231.7-18.7,273.6,33,273.6
	L33,273.6z M33,99.1c44.7,0.1,80.9,36.4,80.9,81.1c-0.1,44.7-36.4,80.9-81.1,80.9c-44.7-0.1-80.9-36.3-80.9-81
	C-48,135.3-11.7,99.1,33,99.1L33,99.1z"/>
<path d="M-32.5,184.8L6.1,214c2.8,2.1,6.7,1.6,8.8-1.2c2.1-2.8,1.6-6.7-1.2-8.8c0,0,0,0-0.1-0.1l-32-24.2l32-24.2
	c2.8-2.1,3.4-6,1.3-8.8c-2.1-2.8-6-3.4-8.8-1.3c0,0,0,0-0.1,0.1l-38.6,29.2c-2.8,2.1-3.3,6-1.2,8.8
	C-33.3,184.1-32.9,184.5-32.5,184.8L-32.5,184.8z"/>
<path d="M52.3,155.6l32,24.2l-32,24.2c-2.8,2.1-3.4,6-1.3,8.8s6,3.4,8.8,1.3c0,0,0.1-0.1,0.1-0.1l38.6-29.2c2.8-2.1,3.3-6,1.2-8.8
	c-0.3-0.5-0.8-0.9-1.2-1.2l-38.6-29.2c-2.8-2.1-6.7-1.5-8.8,1.2C49,149.6,49.6,153.5,52.3,155.6L52.3,155.6z"/>
<path d="M25.5,229.8c3.4,0.5,6.6-1.8,7.2-5.3l13.2-87.1c0.5-3.4-1.8-6.6-5.3-7.2c-3.4-0.5-6.6,1.8-7.2,5.3l-13.2,87.1
	C19.7,226.1,22,229.3,25.5,229.8C25.5,229.8,25.5,229.8,25.5,229.8L25.5,229.8z"/>
</symbol><symbol id="icon-customer" viewBox="-243.3 45 383.4 471">
<path d="M-236.2,516H133c3.9-0.1,7.1-3.3,7.1-7.2v-65.2c0-27.2-13.8-52.6-36.6-67.5l-18-88.7c4.8-3.8,7.7-9.6,7.7-15.8V200
	c-0.1-11.2-9.1-20.4-20.4-20.5H61.2V158C61.2,96.1,8,45.4-57.1,45c-65.1,0-118.3,50.7-118.3,113v21.5h-15.4
	c-11.3,0.1-20.4,9.2-20.6,20.5v71.6c0.1,11.1,9.1,20.1,20.2,20.2l-15.8,84.3c-22.7,14.9-36.4,40.3-36.4,67.5v65.2
	C-243.3,512.7-240.1,515.9-236.2,516z M-154.5,166.3c0-55.7,45.1-100.8,100.8-100.8S47.2,110.6,47.2,166.3v7.8
	c-25-17.6-32-44.2-32.1-44.4c-0.7-2.8-3-4.8-5.8-5.2c-2.8-0.4-5.6,1-7.1,3.4c-15.8,27.3-40.6,45.2-73.5,53.1
	c-25,6-49.7,4.9-67.4,2.7c-1.2-2.4-3.6-4-6.3-4.1h-9.5V166.3z M-137.5,284.9v-87c8.4,1,16.9,1.5,25.4,1.4
	c37.1,0,86.9-9.5,118.8-52.9c5.9,12.7,14.4,23.9,24.9,33.1h-0.5c-3.9,0.2-6.9,3.4-6.9,7.3v98c0,3.9,3,6.5,6.9,6.5H33
	c-18.2,31.9-51.2,51.4-86.9,51.4c-36.1,0-69.2-20.1-87.3-52C-139,289.6-137.6,287.3-137.5,284.9z M-102.5,345.8
	c32.3,15.7,70.2,14.9,101.8-2.2V366l-52.2,32.4l-49.6-32.3V345.8z M126.1,443.6V502H-46.6v-91.4L8,377.2h51.2
	C96,377.2,126.1,406.8,126.1,443.6z M59.2,363.2h-46v-28.5c15.3-11.2,27.6-26.2,35.6-43.4H72l15.6,76.6
	C78.4,364.7,68.9,363.1,59.2,363.2z M79.2,200v71.6c0,3.4-3,5.7-6.4,5.7H38.2v-83.9h34.5C76.3,193.6,79.1,196.5,79.2,200z
	 M-197.4,271.7V200c0.2-3.6,3-6.4,6.6-6.5h39.3v83.9h-39.3C-194.2,277.4-197.4,275.1-197.4,271.7z M-176.7,291.4h20
	c8.8,18.9,22.7,35,40.2,46.4v25.5h-46c-9.7-0.1-19.4,1.5-28.5,4.8L-176.7,291.4z M-229.3,443.6c0-36.8,30.1-66.4,66.9-66.4h50.8
	l51,33.3V502h-168.7V443.6z"/>
<path d="M-100,264.4c14,0,25.4-11.4,25.4-25.4c0-3.9-3.1-7-7-7c-3.9,0-7,3.1-7,7c-0.1,6.3-5.2,11.3-11.4,11.3
	c-6.3,0-11.3-5-11.4-11.3c0-3.9-3.1-7-7-7s-7,3.1-7,7C-125.4,253-114,264.4-100,264.4z"/>
<path d="M-7.9,264.4c14,0,25.4-11.4,25.4-25.4c0-3.9-3.1-7-7-7c-3.9,0-7,3.1-7,7c0.1,4.1-2.1,8-5.7,10c-3.6,2.1-8,2.1-11.5,0
	c-3.6-2.1-5.7-5.9-5.7-10c0-3.9-3.1-7-7-7c-3.9,0-7,3.1-7,7C-33.3,253-21.9,264.4-7.9,264.4z"/>
</symbol><symbol id="icon-design" viewBox="-223 32.5 512 497.1">
<path d="M241.8,102.6l-357.1-2V39c0-3.5-2.4-6.5-5.9-6.5h-37.4c-34.1-0.1-62.3,26.7-64,60.8h-0.4v281.6h0.5
	c-0.1,2.1-0.5,3.1-0.5,4.4v0.1c0,35.3,29,63.7,64.4,63.7h322.8V523c0.1,3.6,3,6.5,6.6,6.5h68.6c27.3-0.1,49.4-22.1,49.5-49.4V149.9
	C288.9,123.9,267.9,102.8,241.8,102.6L241.8,102.6z M-210.2,96.7c0.1-28.4,23.2-51.4,51.6-51.5h30.5v269.9h-30.4
	c-17.1,0-33.4,6.7-45.5,18.8c-2.2,2.2-4.1,4.6-6.2,7V96.7z M-71.5,412.2h14.4c3.5,0,6.4-2.9,6.4-6.4c0-3.5-2.9-6.4-6.4-6.4h-14.4
	v-30.9h21c3.5,0,6.4-2.9,6.4-6.4c0-3.5-2.9-6.4-6.4-6.4h-21v-30.9h14.4c3.5,0,6.4-2.9,6.4-6.4s-2.9-6.4-6.4-6.4h-14.4V281h21
	c3.5,0,6.4-2.9,6.4-6.4c0-3.5-2.9-6.4-6.4-6.4h-21v-39.5h68.3v201.6h-68.3V412.2z M46.9,299.1h52.3v131.2H46.9V299.1z M50.9,286.3
	l22.3-49l22.3,49H50.9z M153.3,315.1h48.5l-3.7,66.1h-41L153.3,315.1z M203.5,302.3h-4.6l5.2-36.5c0.5-3.5-1.9-6.8-5.4-7.3
	c-3.5-0.5-6.8,1.9-7.3,5.4l-5.5,38.4h-3.6v-36.3c0-3.5-2.9-6.4-6.4-6.4s-6.4,2.9-6.4,6.4v36.3h-0.8l-5.5-38.3
	c-0.6-3.5-3.9-5.8-7.4-5.2c-3.3,0.6-5.6,3.6-5.3,7l5.2,36.6h-4.2l-16.9-73.6h86.8L203.5,302.3z M159.3,430.3l0.2-5.8
	c0-0.1,0-0.2,0-0.3l-1.7-30.2h39.5l-1.7,30.3c0,0.1,0,0.2,0,0.3l0.2,5.7L159.3,430.3L159.3,430.3z M275.8,480.3
	c0,20.1-16.3,36.4-36.4,36.4c0,0,0,0,0,0H177v-73.6h62.3c20.3,0.1,36.7,16.5,36.9,36.8v0.5H276L275.8,480.3z M276.2,446.9
	c-1.1-0.6-1.3-1.4-1.9-2c-9.3-9.3-21.8-14.5-34.9-14.6h-30.9l-0.2-5.9l6.6-114.6l21-86.4c0.5-1.9,0-3.8-1.2-5.3
	c-1.2-1.5-3.1-2.3-5-2.3h-103c-3.4-0.1-6.3,2.6-6.4,6c0,0.5,0,1.1,0.2,1.6l19.7,86.4l6.6,114.5l-0.2,5.9h-34.6V292.9
	c0-0.9-0.2-1.8-0.6-2.7l-32.3-70.8c-1.5-3.2-5.3-4.6-8.5-3.2c-1.4,0.6-2.5,1.8-3.2,3.2l-32.5,70.8c-0.5,0.8-0.7,1.7-0.8,2.7v137.4
	H9.5V222.1c0.2-3.2-2.2-5.9-5.4-6.1c-0.2,0-0.3,0-0.5,0h-81.9c-3.2-0.1-6,2.5-6.1,5.7c0,0.1,0,0.3,0,0.4v208.3h-74.3
	c-28.3,0-51.6-22.6-51.6-50.9v-0.1c0.2-28.4,23.3-51.3,51.7-51.4h37.4c3.5,0,5.9-2.8,5.9-6.3V113.4l357.1,2
	c19,0.1,34.3,15.5,34.4,34.5L276.2,446.9z"/>
</symbol><symbol id="icon-facebook" viewBox="0 0 90 90">
<g>
	<path d="M90,15.001C90,7.119,82.884,0,75,0H15C7.116,0,0,7.119,0,15.001v59.998
		C0,82.881,7.116,90,15.001,90H45V56H34V41h11v-5.844C45,25.077,52.568,16,61.875,16H74v15H61.875C60.548,31,59,32.611,59,35.024V41
		h15v15H59v34h16c7.884,0,15-7.119,15-15.001V15.001z"/>
</g>
<g>
</g>
<g>
</g>
<g>
</g>
<g>
</g>
<g>
</g>
<g>
</g>
<g>
</g>
<g>
</g>
<g>
</g>
<g>
</g>
<g>
</g>
<g>
</g>
<g>
</g>
<g>
</g>
<g>
</g>
</symbol><symbol id="icon-hand-pointer" viewBox="-279 104.5 304.4 352.5">
<g>
	<g>
		<polygon points="-183.3,144.7 -232.8,144.7 -203.9,115.8 -215.2,104.5 -263.4,152.7 -215.1,201 -203.8,189.7 -232.8,160.7 
			-183.3,160.7 		"/>
	</g>
</g>
<g>
	<g>
		<polygon points="-22.7,104.5 -34.1,115.8 -5.1,144.7 -55.1,144.7 -55.1,160.7 -5.1,160.7 -34.1,189.7 -22.8,201 25.5,152.7 		"/>
	</g>
</g>
<g>
	<g>
		<path d="M5.6,302.4c-0.6-0.6-1.3-1.2-2.1-1.6c-10.4-6.5-22.2-9.8-34-9.8c-16.4,0-32.7,6.2-45.2,18.7L-87,321V168.7
			c0-17.6-14.4-32-32-32s-32,14.4-32,32v70.4c-5.8-7.2-14.6-11.8-24.6-11.8c-6.9,0-13.3,2.3-18.5,6l-68.9,39.9
			c-9.5,5.5-15.9,15.8-15.9,27.6v52.6c0,57.2,46.4,103.6,103.6,103.6c27.7,0,52.8-10.9,71.4-28.7l0,0.1l1.8-1.8c0,0,0.1-0.1,0.1-0.1
			L5.6,318.9C10.2,314.3,10.2,306.9,5.6,302.4z M-115,416.7c-16.4,15.6-37.8,24.2-60.4,24.2c-48.3,0-87.6-39.3-87.6-87.6v-52.6
			c0-5.6,3-10.7,8-13.7l70.1-40.8c1.9-1.4,5.1-3,9.2-3c6.4,0,10.4,3.7,12.2,6l14.2,17.4c2.1,2.6,5.7,3.6,8.9,2.5
			c3.2-1.1,5.3-4.1,5.3-7.5v-92.8c0-8.8,7.2-16,16-16s16,7.2,16,16v160c0,6.8,4.3,12.5,10.3,14.8c2.6,1,5.5,0.4,7.4-1.6l20.9-20.9
			c9.1-9.1,21.1-14,33.9-14c7.2,0,14.3,1.6,20.7,4.7L-115,416.7z"/>
	</g>
</g>
</symbol><symbol id="icon-instagram" viewBox="0 0 512 512">
<path d="m301 256c0 24.851562-20.148438 45-45 45s-45-20.148438-45-45 20.148438-45 45-45 45 20.148438 45 45zm0 0"/>
<path d="m332 120h-152c-33.085938 0-60 26.914062-60 60v152c0 33.085938 26.914062 60 60 60h152c33.085938 0 60-26.914062 60-60v-152c0-33.085938-26.914062-60-60-60zm-76 211c-41.355469 0-75-33.644531-75-75s33.644531-75 75-75 75 33.644531 75 75-33.644531 75-75 75zm86-146c-8.285156 0-15-6.714844-15-15s6.714844-15 15-15 15 6.714844 15 15-6.714844 15-15 15zm0 0"/><path d="m377 0h-242c-74.4375 0-135 60.5625-135 135v242c0 74.4375 60.5625 135 135 135h242c74.4375 0 135-60.5625 135-135v-242c0-74.4375-60.5625-135-135-135zm45 332c0 49.625-40.375 90-90 90h-152c-49.625 0-90-40.375-90-90v-152c0-49.625 40.375-90 90-90h152c49.625 0 90 40.375 90 90zm0 0"/></symbol><symbol id="icon-mail" viewBox="-173 65.1 612.1 429.7">
<g>
	<path d="M439.1,106.1v-2.4c0-8.8-4-19.3-11.2-26.5l-0.8-0.8c0,0-0.8,0-0.8-0.8c-1.6-1.6-3.2-2.4-4.8-4c-0.8,0-0.8-0.8-1.6-0.8
		c-1.6-0.8-4-1.6-5.7-2.4c-0.8,0-0.8-0.8-1.6-0.8c-2.4-0.8-4.8-1.6-7.2-1.6c-0.8,0-0.8,0-1.6,0c-2.4,0-5.7-0.8-8.8-0.8h-524.3
		c-3.2,0-6.4,0-9.7,0.8c-0.8,0-1.6,0-2.4,0.8c-2.4,0.8-4.8,0.8-6.4,1.6c-0.8,0-0.8,0.8-1.6,0.8c-1.6,0.8-4,1.6-5.7,2.4l-0.8,0.8
		c-1.6,0.8-3.2,2.4-4.8,3.2c-0.8,0.8-1.6,1.6-2.4,2.4c-5.6,6.4-8.8,13.7-9.7,21.7c0,0.8,0,0.8,0,1.6v357.4c0,0.8,0,0.8,0,1.6
		c1.6,11.2,7.2,20.9,15.2,26.5c7.2,4.8,16.1,8,26.5,8h527.7c0,0,0,0,0.8,0l0,0c2.4,0,5.7,0,8-0.8c0.8,0,0.8,0,1.6,0
		c2.4-0.8,4.8-0.8,6.4-1.6h0.8c17.7-6.4,24.9-21.7,24.9-36.1v-2.4V453v-0.8V108.4c0-0.8,0-0.8,0-1.6
		C439.1,106.9,439.1,106.9,439.1,106.1z M387.7,94.8l-253,246.5l-57.9-56.2l0,0L-121.5,94.8L387.7,94.8L387.7,94.8z M-143.2,449
		V114.9L43.9,294.8L-143.2,449z M126.7,465.8h-243.4L65.6,316.4l58.6,57c2.4,2.4,4.8,3.2,7.2,4h0.8c0.8,0,0.8,0,1.6,0l0,0
		c0.8,0,1.6,0,1.6,0h0.8c2.4-0.8,5.7-1.6,7.2-4l55.4-53.8L382,465.8L126.7,465.8L126.7,465.8z M409.3,449.8L221.4,298l187.9-183.1
		V449.8z"/>
</g>
</symbol><symbol id="icon-phone" viewBox="0 0 473.806 473.806">
<g>
	<g>
		<path d="M374.456,293.506c-9.7-10.1-21.4-15.5-33.8-15.5c-12.3,0-24.1,5.3-34.2,15.4l-31.6,31.5c-2.6-1.4-5.2-2.7-7.7-4
			c-3.6-1.8-7-3.5-9.9-5.3c-29.6-18.8-56.5-43.3-82.3-75c-12.5-15.8-20.9-29.1-27-42.6c8.2-7.5,15.8-15.3,23.2-22.8
			c2.8-2.8,5.6-5.7,8.4-8.5c21-21,21-48.2,0-69.2l-27.3-27.3c-3.1-3.1-6.3-6.3-9.3-9.5c-6-6.2-12.3-12.6-18.8-18.6
			c-9.7-9.6-21.3-14.7-33.5-14.7s-24,5.1-34,14.7c-0.1,0.1-0.1,0.1-0.2,0.2l-34,34.3c-12.8,12.8-20.1,28.4-21.7,46.5
			c-2.4,29.2,6.2,56.4,12.8,74.2c16.2,43.7,40.4,84.2,76.5,127.6c43.8,52.3,96.5,93.6,156.7,122.7c23,10.9,53.7,23.8,88,26
			c2.1,0.1,4.3,0.2,6.3,0.2c23.1,0,42.5-8.3,57.7-24.8c0.1-0.2,0.3-0.3,0.4-0.5c5.2-6.3,11.2-12,17.5-18.1c4.3-4.1,8.7-8.4,13-12.9
			c9.9-10.3,15.1-22.3,15.1-34.6c0-12.4-5.3-24.3-15.4-34.3L374.456,293.506z M410.256,398.806
			C410.156,398.806,410.156,398.906,410.256,398.806c-3.9,4.2-7.9,8-12.2,12.2c-6.5,6.2-13.1,12.7-19.3,20
			c-10.1,10.8-22,15.9-37.6,15.9c-1.5,0-3.1,0-4.6-0.1c-29.7-1.9-57.3-13.5-78-23.4c-56.6-27.4-106.3-66.3-147.6-115.6
			c-34.1-41.1-56.9-79.1-72-119.9c-9.3-24.9-12.7-44.3-11.2-62.6c1-11.7,5.5-21.4,13.8-29.7l34.1-34.1c4.9-4.6,10.1-7.1,15.2-7.1
			c6.3,0,11.4,3.8,14.6,7c0.1,0.1,0.2,0.2,0.3,0.3c6.1,5.7,11.9,11.6,18,17.9c3.1,3.2,6.3,6.4,9.5,9.7l27.3,27.3
			c10.6,10.6,10.6,20.4,0,31c-2.9,2.9-5.7,5.8-8.6,8.6c-8.4,8.6-16.4,16.6-25.1,24.4c-0.2,0.2-0.4,0.3-0.5,0.5
			c-8.6,8.6-7,17-5.2,22.7c0.1,0.3,0.2,0.6,0.3,0.9c7.1,17.2,17.1,33.4,32.3,52.7l0.1,0.1c27.6,34,56.7,60.5,88.8,80.8
			c4.1,2.6,8.3,4.7,12.3,6.7c3.6,1.8,7,3.5,9.9,5.3c0.4,0.2,0.8,0.5,1.2,0.7c3.4,1.7,6.6,2.5,9.9,2.5c8.3,0,13.5-5.2,15.2-6.9
			l34.2-34.2c3.4-3.4,8.8-7.5,15.1-7.5c6.2,0,11.3,3.9,14.4,7.3c0.1,0.1,0.1,0.1,0.2,0.2l55.1,55.1
			C420.456,377.706,420.456,388.206,410.256,398.806z"/>
		<path d="M256.056,112.706c26.2,4.4,50,16.8,69,35.8s31.3,42.8,35.8,69c1.1,6.6,6.8,11.2,13.3,11.2c0.8,0,1.5-0.1,2.3-0.2
			c7.4-1.2,12.3-8.2,11.1-15.6c-5.4-31.7-20.4-60.6-43.3-83.5s-51.8-37.9-83.5-43.3c-7.4-1.2-14.3,3.7-15.6,11
			S248.656,111.506,256.056,112.706z"/>
		<path d="M473.256,209.006c-8.9-52.2-33.5-99.7-71.3-137.5s-85.3-62.4-137.5-71.3c-7.3-1.3-14.2,3.7-15.5,11
			c-1.2,7.4,3.7,14.3,11.1,15.6c46.6,7.9,89.1,30,122.9,63.7c33.8,33.8,55.8,76.3,63.7,122.9c1.1,6.6,6.8,11.2,13.3,11.2
			c0.8,0,1.5-0.1,2.3-0.2C469.556,223.306,474.556,216.306,473.256,209.006z"/>
	</g>
</g>
<g>
</g>
<g>
</g>
<g>
</g>
<g>
</g>
<g>
</g>
<g>
</g>
<g>
</g>
<g>
</g>
<g>
</g>
<g>
</g>
<g>
</g>
<g>
</g>
<g>
</g>
<g>
</g>
<g>
</g>
</symbol><symbol id="icon-pointer" viewBox="-185.7 37.3 389.1 487.7">
<g>
	<g>
		<path d="M1.9,37.4c-96.9,3.4-177.4,79-186.7,175.5c-1.9,19.3-0.8,38,2.6,55.9l0,0c0,0,0.3,2.1,1.3,6.1c3,13.4,7.5,26.4,13.1,38.6
			C-148.3,359.7-103.2,437-2,521.1c6.2,5.2,15.3,5.2,21.6,0c101.2-84,146.3-161.3,165.9-207.7c5.7-12.2,10.1-25.1,13.1-38.6
			c0.9-3.9,1.3-6.1,1.3-6.1l0,0c2.3-12,3.5-24.3,3.5-36.9C203.4,122,112.5,33.5,1.9,37.4z M8.8,328.6c-52.2,0-94.5-42.3-94.5-94.5
			s42.3-94.5,94.5-94.5s94.5,42.3,94.5,94.5S61,328.6,8.8,328.6z"/>
	</g>
</g>
</symbol><symbol id="icon-refresh" viewBox="-244 45.9 471 397.6">
<path d="M174.7,188c-1.5-2.2-4-3.6-6.7-3.6c-2.7,0-5.2,1.4-6.7,3.6l-51,77.7c-1.6,2.5-1.7,5.8-0.3,8.4c1.4,2.6,4.1,4.3,7,4.4h40.8
	c-6.6,41.7-27.8,79.7-59.8,107.2c-31,26.6-70,41.8-106.9,41.8c-24.1,0-49.2-6.6-72.8-18.8c-24.5-12.8-45.7-31-62.1-53.3
	c-2.6-3.6-7.6-4.3-11.1-1.7c-3.6,2.6-4.3,7.6-1.7,11.1c17.8,24.2,40.9,44.1,67.6,58c25.8,13.5,53.5,20.6,80.2,20.6
	c40.7,0,83.4-16.4,117.3-45.5c35.6-30.5,58.9-73,65.6-119.4h45c3-0.1,5.6-1.8,7-4.4c1.4-2.6,1.2-5.8-0.3-8.3L174.7,188z
	 M131.9,262.6l36.2-55.2l36.2,55.2H131.9z"/>
<path d="M-127.1,215.2c-1.4-2.6-4.1-4.3-7-4.4h-40.8c6.6-41.7,27.8-79.7,59.8-107.2c31-26.6,70-41.8,106.9-41.8
	c24.1,0,49.2,6.6,72.8,18.8c24.5,12.8,45.7,31,62.1,53.3c2.6,3.6,7.6,4.3,11.1,1.7c3.6-2.6,4.3-7.6,1.7-11.1
	c-17.8-24.2-40.9-44.1-67.6-58C46.2,53,18.4,45.9-8.2,45.9c-40.7,0-83.4,16.4-117.3,45.5c-35.6,30.5-58.9,73-65.6,119.4h-45
	c-3,0.1-5.6,1.8-7,4.4c-1.4,2.6-1.2,5.8,0.3,8.3l51,77.8c1.5,2.3,4,3.6,6.7,3.6c2.7,0,5.2-1.3,6.7-3.6l51-77.8
	C-125.8,221-125.7,217.8-127.1,215.2z M-185.1,281.9l-36.2-55.2h72.4L-185.1,281.9z"/>
<path d="M-116.9,244.7c0,59.9,48.5,108.4,108.4,108.4S99.9,304.6,99.9,244.7S51.4,136.3-8.5,136.3
	C-68.3,136.3-116.8,184.8-116.9,244.7z M83.9,244.7c0,51.1-41.4,92.4-92.4,92.4s-92.4-41.4-92.4-92.4s41.4-92.4,92.4-92.4
	C42.5,152.3,83.9,193.7,83.9,244.7z"/>
<path d="M-22.5,194.4v58.6c0,4.4,4,7.6,8.4,7.6h44.7c4.4,0,8-3.6,8-8c0-4.4-3.6-8-8-8H-6.5v-50.2c0-4.4-3.6-8-8-8
	S-22.5,190-22.5,194.4z"/>
</symbol><symbol id="icon-search" viewBox="-223 25 512 512">
<path d="M-50.2,175.4c-2.5-3.1-7.1-3.5-10.2-1l-58.9,48.8c-3.1,2.5-3.5,7.1-1,10.2c0.3,0.3,0.6,0.7,1,1l58.9,48.8
	c3.1,2.5,7.6,2.1,10.2-1c2.5-3.1,2.1-7.6-1-10.2l-52.2-43.3l52.2-43.3C-48.1,183.1-47.7,178.5-50.2,175.4L-50.2,175.4z"/>
<path d="M82,223.3l-58.9-48.8c-3.1-2.5-7.6-2.1-10.2,1s-2.1,7.6,1,10.2l52.2,43.3l-52.2,43.3c-3.1,2.5-3.5,7.1-1,10.2
	c2.5,3.1,7.1,3.5,10.2,1L82,234.4c3.1-2.5,3.5-7.1,1-10.2C82.7,223.9,82.3,223.6,82,223.3L82,223.3z"/>
<path d="M-6.6,149.3c-3.9-0.6-7.6,2.1-8.2,6.1l-22,145.6c-0.6,3.9,2.1,7.6,6.1,8.2c3.9,0.6,7.6-2.1,8.2-6.1l22-145.6
	C0,153.6-2.7,149.9-6.6,149.3C-6.6,149.3-6.6,149.3-6.6,149.3z"/>
<path d="M-18.8,75.2c-84.9,0-154,69-154,153.9S-103.7,383-18.8,383s154-69,154-153.9S66.1,75.2-18.8,75.2L-18.8,75.2z M-18.8,368.6
	c-77,0-139.4-62.5-139.4-139.5S-95.6,89.6-18.6,89.7c77,0,139.4,62.5,139.4,139.5C120.7,306.1,58.2,368.5-18.8,368.6L-18.8,368.6z"/>
<path d="M176.4,365.6c-2.8-2.8-7.4-2.8-10.2,0l-4.2,4.2l-17.8-17.8c26.8-35.4,41.4-78.6,41.3-122.9C185.5,116.6,93.8,25-18.8,25
	S-223,116.6-223,229.1s91.6,204.1,204.2,204.1c44.4,0,87.6-14.5,123-41.3l17.8,17.8l-4.5,4.5c-2.8,2.8-2.8,7.4,0,10.2l0,0
	l100.5,100.5c16.2,16.2,42.5,16.2,58.7,0c0.5-0.5,1.1-1.1,1.6-1.6c14.7-16.5,14-41.5-1.5-57.2L176.4,365.6z M-208.5,229.1
	c0-104.6,85.1-189.7,189.8-189.7S171,124.5,171,229.1S85.9,418.8-18.8,418.8S-208.5,333.7-208.5,229.1L-208.5,229.1z M115.5,382.8
	c6.9-6,13.4-12.5,19.5-19.5l16.7,16.7l-19.5,19.5L115.5,382.8z M267.7,513.5c-0.3,0.4-0.7,0.7-1,1.1c-10.6,10.6-27.8,10.6-38.4,0
	l-95.4-95.3l38.4-38.4l95.4,95.4C276.8,486.5,277.3,502.8,267.7,513.5L267.7,513.5z"/>
</symbol><symbol id="icon-software" viewBox="-247 49 456 464">
<path d="M201.1,49h-440.2c-2.1-0.1-4.1,0.7-5.6,2.1c-1.5,1.4-2.3,3.4-2.3,5.5v356.1c-0.1,4.5,3.5,8.1,7.9,8.3h150.7l-14.2,43h-36.8
	c-4.4,0-7.6,3.7-7.6,8.1v33.3c-0.1,2,0.7,4,2.1,5.5s3.4,2.2,5.5,2.2h240.8c2,0.1,4-0.7,5.5-2.2c1.4-1.4,2.2-3.4,2.1-5.5v-33.3
	c0-4.4-3.2-8.1-7.6-8.1H64.6l-14.2-43h150.7c4.5-0.1,8-3.8,7.9-8.3V56.6c0-2.1-0.8-4.1-2.3-5.5C205.2,49.7,203.2,48.9,201.1,49z
	 M93,480v17h-224v-17H93z M-85.7,464l14.2-43H33.6l14.2,43H-85.7z M193,405h-424v-52h424V405z M193,337h-424V65h424V337z"/>
<path d="M-128.9,232.3l18.1,1.8c2.1,7.4,5,14.4,8.8,21.1l-11.5,13.9c-2.6,3.2-2.4,7.8,0.5,10.8l22.6,22.6c2.9,2.9,7.6,3.1,10.8,0.5
	l13.9-11.6c6.6,3.8,13.7,6.8,21.1,8.9l1.8,18.3c0.4,4.1,3.8,7.3,8,7.4h32.1c4.2-0.1,7.6-3.3,8-7.4l1.8-18.2
	c7.4-2.1,14.5-5.1,21.1-8.9L41.9,303c3.2,2.6,7.8,2.4,10.8-0.5l22.6-22.6c2.9-2.9,3.1-7.6,0.5-10.8l-11.5-13.9
	c3.8-6.6,6.8-13.7,8.9-21.1l17.8-1.8c4.1-0.4,7.1-3.9,7-8v-32c0.1-4.1-3-7.6-7.1-8l-18.1-1.8c-2.1-7.4-5-14.4-8.9-21.1l11.5-13.9
	c2.6-3.2,2.4-7.8-0.5-10.7l-22.4-22.6c-2.9-2.9-7.6-3.2-10.8-0.5L28,125.3c-6.6-3.8-13.7-6.8-21.1-8.9L5.2,98.3
	c-0.4-4.1-3.8-7.3-8-7.3h-32.1c-4.1,0-7.6,3.2-8,7.3l-1.8,18.1c-7.4,2.1-14.5,5.1-21.1,8.9l-13.9-11.5c-3.2-2.6-7.8-2.4-10.8,0.5
	l-22.6,22.6c-2.9,2.9-3.1,7.6-0.5,10.8l11.6,13.9c-3.8,6.6-6.8,13.7-8.9,21l-18,1.8c-4.1,0.4-7.1,3.9-7.1,8v32
	C-136.1,228.5-133,231.9-128.9,232.3z M-120,199.6l16.4-1.6c3.4-0.3,6.2-2.9,7-6.2c2.1-9.5,5.9-18.4,11.2-26.6
	c1.9-2.9,1.7-6.8-0.6-9.5l-10.5-12.7l12.3-12.3l12.7,10.5c2.7,2.2,6.6,2.5,9.5,0.5c8.1-5.3,17-9.1,26.5-11.1
	c3.4-0.7,5.9-3.6,6.3-7.1l1.6-16.6h17.6l1.6,16.6c0.3,3.5,2.9,6.3,6.3,7.1c9.5,2.1,18.5,5.9,26.6,11.2c2.9,1.9,6.7,1.7,9.4-0.6
	l12.7-10.5L58.6,143l-10.6,12.7c-2.3,2.7-2.5,6.6-0.5,9.5c5.3,8,9.1,17,11.2,26.5c0.7,3.4,3.5,5.9,6.9,6.3l16.4,1.6v17.5l-16.1,1.6
	c-3.4,0.3-6.2,2.9-6.9,6.2c-2.1,9.4-5.9,18.4-11.2,26.5c-1.9,2.9-1.7,6.8,0.6,9.5l10.5,12.7L46.5,286l-12.7-10.5
	c-2.7-2.2-6.6-2.5-9.5-0.5c-8.1,5.3-17,9.1-26.5,11.1c-3.4,0.8-6,3.7-6.3,7.2l-1.6,16.7h-17.6l-1.6-16.7c-0.3-3.5-2.9-6.4-6.3-7.1
	c-9.5-2.1-18.5-5.9-26.6-11.2c-2.9-1.9-6.7-1.7-9.4,0.6L-84.3,286l-12.3-12.3L-86,261c2.3-2.7,2.5-6.6,0.5-9.5
	c-5.3-8-9.1-17-11.2-26.5c-0.7-3.4-3.5-5.9-6.9-6.3l-16.4-1.6L-120,199.6z"/>
<path d="M-19,269.8c33.9,0,61.4-27.5,61.3-61.4c0-33.9-27.5-61.4-61.4-61.4c-33.9,0-61.4,27.5-61.4,61.4
	C-80.4,242.3-52.9,269.7-19,269.8z M-19,163c25.1,0,45.4,20.4,45.3,45.5c0,25.1-20.4,45.4-45.4,45.3c-25.1,0-45.4-20.3-45.4-45.4
	C-64.4,183.3-44.1,163-19,163z"/>
</symbol><symbol id="icon-telephone" viewBox="0 0 486.1 486.1">
<g>
	<path d="M414.8,71.25C368.9,25.35,307.9,0.05,243,0.05s-125.9,25.3-171.8,71.2S0,178.15,0,243.05s25.3,125.9,71.2,171.8
		s106.9,71.2,171.8,71.2c37.7,0,72.1-7,99.4-20.1c25.9-12.5,44.7-30.4,53-50.3c9.9-23.9,4.3-48.8-15.3-68.4l-0.7-0.7
		c0.3-0.4,0.7-0.7,1-1c14-14.7,14-34-0.2-48.2l-34.6-34.6c-6.8-7-15-10.8-23.7-10.8s-17,3.7-24,10.7l-18,18
		c-0.9-0.5-1.7-0.9-2.6-1.3c-2.2-1.1-4.2-2.1-5.9-3.2c-18.3-11.6-34.9-26.8-50.8-46.3c-7-8.8-11.8-16.3-15.4-23.7
		c4.5-4.2,8.7-8.5,12.8-12.7c1.7-1.8,3.5-3.5,5.3-5.3c14.7-14.7,14.7-33.7,0-48.4l-17.1-17.1c-2-2-3.9-3.9-5.8-5.9
		c-3.8-3.9-7.7-7.9-11.9-11.8c-6.8-6.7-14.9-10.2-23.5-10.2s-16.8,3.5-23.8,10.2c-0.1,0.1-0.1,0.1-0.2,0.2l-21.5,21.5
		c-8.6,8.6-13.6,19.2-14.6,31.4c-1.5,19,4,36.6,8.3,48.1c10.3,27.8,25.7,53.6,48.6,81.2c27.8,33.2,61.3,59.5,99.6,78
		c14.7,7,34.4,15.2,56.6,16.7c1.4,0.1,2.8,0.1,4.2,0.1c15.5,0,28.6-5.6,38.8-16.7c0.1-0.1,0.3-0.3,0.4-0.4c0.3-0.4,0.7-0.8,1.1-1.2
		l0.6,0.6c12.8,12.8,16.3,27.4,10.1,42.3c-11.5,27.3-56.2,55.3-130.2,55.3c-120.8,0-219-98.2-219-219s98.2-219,219-219
		s219,98.2,219,219c0,19.9-2.7,39.5-7.9,58.4c-1.8,6.4,2,13,8.4,14.8s13-2,14.8-8.4c5.8-21,8.8-42.8,8.8-64.8
		C486,178.15,460.7,117.15,414.8,71.25z M343.2,349.15c-5.7,6.1-12.1,8.8-21,8.8c-0.9,0-1.8,0-2.7-0.1c-18-1.2-35-8.3-47.7-14.4
		c-35.1-17-65.9-41.1-91.5-71.7c-21.1-25.4-35.2-48.9-44.6-74.1c-5.6-15.2-7.7-26.8-6.9-37.8c0.6-6.5,3-11.8,7.7-16.4l21.5-21.4
		c1.7-1.6,4.3-3.5,7.1-3.5s5.2,1.8,6.7,3.4c0.1,0.1,0.2,0.2,0.3,0.3c3.8,3.5,7.4,7.2,11.2,11.1c2,2,4,4.1,6,6.1l17.1,17.1
		c5.3,5.3,5.3,9.2,0,14.5c-1.8,1.8-3.6,3.6-5.4,5.4c-5.3,5.3-10.2,10.4-15.6,15.2c-0.2,0.1-0.3,0.3-0.5,0.5
		c-7.5,7.5-4.9,15.3-4.1,17.9c0.1,0.3,0.2,0.5,0.3,0.8c4.6,11.1,11,21.5,20.8,33.9l0.1,0.1c17.6,21.7,36.1,38.5,56.6,51.5
		c2.7,1.7,5.4,3.1,8,4.4c2.2,1.1,4.2,2.1,5.9,3.2c0.3,0.2,0.7,0.4,1.1,0.6c2.6,1.3,5.2,1.9,7.8,1.9c4.4,0,8.5-1.8,12-5.4l21.5-21.5
		c1.7-1.7,4.2-3.7,7-3.7c2.6,0,5,1.9,6.5,3.5c0.1,0.1,0.1,0.1,0.2,0.2l34.6,34.6c4.9,4.9,4.9,9.4-0.2,14.7l-0.1,0.1
		c-2.3,2.5-4.8,4.9-7.5,7.5C351.4,340.35,347.2,344.45,343.2,349.15z"/>
</g>
<g>
</g>
<g>
</g>
<g>
</g>
<g>
</g>
<g>
</g>
<g>
</g>
<g>
</g>
<g>
</g>
<g>
</g>
<g>
</g>
<g>
</g>
<g>
</g>
<g>
</g>
<g>
</g>
<g>
</g>
</symbol><symbol id="icon-time" viewBox="-244 46 470 470">
<path d="M217.7,243h-95.1c-13.2-45.1-48.5-80.3-93.6-93.4V54.5c0-4.4-3.5-8.5-7.9-8.5h-63c-4.2,0.1-7.6,3.3-8,7.5l-4.2,43.6
	c-18.6,4.6-36.3,12.1-52.6,22.1l-33.5-27.7c-3.2-2.6-7.8-2.4-10.8,0.5l-46.9,46.9c-2.9,2.9-3.1,7.6-0.5,10.8l27.8,33.5
	c-10,16.3-17.4,34-22.2,52.4l-43.8,4.2c-4.1,0.4-7.3,3.8-7.4,8v66.4c0.1,4.2,3.3,7.6,7.4,8l43.7,4.2c4.6,18.5,12.1,36.2,22.2,52.5
	l-27.7,33.5c-2.6,3.2-2.4,7.9,0.5,10.8l47,46.8c2.9,2.9,7.6,3.1,10.8,0.5l33.5-27.8c16.3,10,34,17.4,52.5,22.1l4.2,43.8
	c0.4,4.1,3.8,7.4,8,7.5h66.5c4.2-0.1,7.6-3.3,8-7.5l4.2-43.6c18.6-4.6,36.3-12.1,52.6-22.1l33.5,27.7c3.2,2.6,7.8,2.4,10.8-0.5
	l46.9-46.9c2.9-2.9,3.1-7.6,0.5-10.8l-27.8-33.5c10-16.3,17.4-34,22.2-52.4l43.3-4.2c4.1-0.4,7.3-3.8,7.4-8V251
	C225.8,246.5,222.2,243,217.7,243z M112,281C112,347.6,57.7,401.7-9,401.7c-66.7,0-120.9-54.2-120.9-120.7S-75.6,160.3-9,160.3
	C57.7,160.3,112,214.4,112,281z M210,306.9l-41.7,4.1c-3.5,0.3-6.3,2.8-7.1,6.2c-4.6,20.6-12.9,40.2-24.5,57.9
	c-1.9,2.9-1.7,6.8,0.5,9.5l26.8,32.4l-36.6,36.6L95,426.7c-2.7-2.3-6.6-2.5-9.5-0.5c-17.6,11.7-37.2,19.9-57.9,24.3
	c-3.4,0.8-6,3.8-6.3,7.3L17.3,500h-52l-4.1-42.2c-0.3-3.5-2.9-6.4-6.3-7.2c-19.8-4.2-39.3-12.5-57.9-24.4c-2.9-1.9-6.7-1.7-9.4,0.5
	l-32.4,26.8l-36.6-36.6l26.8-32.4c2.3-2.7,2.5-6.6,0.5-9.5c-11.7-17.6-20-37.2-24.4-57.8c-0.8-3.4-3.7-5.9-7.2-6.3l-42.3-4.1v-51.9
	l42.3-4.1c3.5-0.3,6.3-2.8,7.1-6.2c4.6-20.6,12.9-40.2,24.5-57.9c1.9-2.9,1.7-6.8-0.5-9.5l-26.8-32.4l36.6-36.6l32.4,26.8
	c2.7,2.3,6.6,2.5,9.5,0.5c17.6-11.7,37.2-19.9,57.9-24.3c3.4-0.8,6-3.8,6.3-7.3l4.1-42.2H13v84.1c-7.3-1.2-14.6-1.8-22-1.8
	c-75.5,0-136.9,61.3-136.9,136.7S-84.5,417.7-9,417.7C66.5,417.7,128,356.4,128,281c0-7.4-0.6-14.7-1.8-22H210V306.9z"/>
<path d="M-23,230.6v58.7c0,4.4,4,7.6,8.5,7.6h44.8c4.4,0,8-3.6,8-8s-3.6-8-8-8H-7v-50.4c0-4.4-3.6-8-8-8S-23,226.2-23,230.6z"/>
</symbol><symbol id="icon-twitter" viewBox="0 0 486.392 486.392">
<g>
	<g>
		<g>
			<path d="M395.193,0H91.198C40.826,0,0,40.826,0,91.198v303.995c0,50.372,40.826,91.198,91.198,91.198
				h303.995c50.372,0,91.198-40.827,91.198-91.198V91.198C486.392,40.826,445.565,0,395.193,0z M364.186,188.598l0.182,7.752
				c0,79.16-60.221,170.359-170.359,170.359c-33.804,0-65.268-9.91-91.776-26.904c4.682,0.547,9.454,0.851,14.288,0.851
				c28.059,0,53.868-9.576,74.357-25.627c-26.204-0.486-48.305-17.814-55.935-41.586c3.678,0.669,7.387,1.034,11.278,1.034
				c5.472,0,10.761-0.699,15.777-2.067c-27.39-5.533-48.031-29.7-48.031-58.701v-0.76c8.086,4.499,17.297,7.174,27.116,7.509
				c-16.051-10.731-26.63-29.062-26.63-49.825c0-10.974,2.949-21.249,8.086-30.095c29.518,36.236,73.658,60.069,123.422,62.562
				c-1.034-4.378-1.55-8.968-1.55-13.649c0-33.044,26.812-59.857,59.887-59.857c17.206,0,32.771,7.265,43.714,18.908
				c13.619-2.706,26.448-7.691,38.03-14.531c-4.469,13.984-13.953,25.718-26.326,33.135c12.069-1.429,23.651-4.682,34.382-9.424
				C386.073,169.659,375.889,180.208,364.186,188.598z"/>
		</g>
	</g>
	<g>
	</g>
	<g>
	</g>
	<g>
	</g>
	<g>
	</g>
	<g>
	</g>
	<g>
	</g>
	<g>
	</g>
	<g>
	</g>
	<g>
	</g>
	<g>
	</g>
	<g>
	</g>
	<g>
	</g>
	<g>
	</g>
	<g>
	</g>
	<g>
	</g>
</g>
<g>
</g>
<g>
</g>
<g>
</g>
<g>
</g>
<g>
</g>
<g>
</g>
<g>
</g>
<g>
</g>
<g>
</g>
<g>
</g>
<g>
</g>
<g>
</g>
<g>
</g>
<g>
</g>
<g>
</g>
</symbol></svg>