<?xml version="1.0" encoding="UTF-8"?><!DOCTYPE svg PUBLIC "-//W3C//DTD SVG 1.1//EN" "http://www.w3.org/Graphics/SVG/1.1/DTD/svg11.dtd"><svg xmlns="http://www.w3.org/2000/svg" xmlns:xlink="http://www.w3.org/1999/xlink"><symbol id="icon-arrow" viewBox="0 0 12 7"><g><g><path d="M11.877.135a.4.4 0 0 0-.6 0l-5.271 5.76L.724.135a.4.4 0 0 0-.6 0 .493.493 0 0 0 0 .654l5.572 6.076a.397.397 0 0 0 .6 0l5.57-6.076a.482.482 0 0 0 .011-.654z"/></g></g></symbol><symbol id="icon-cms" viewBox="-464 276 30 10">

<g>
	<g>
		<path d="M-437.9,286c-1.8,0-3.2-0.6-4.1-1.5l1.1-1.6c0.8,0.8,1.9,1.3,3.1,1.3c1.1,0,1.7-0.5,1.7-1.1
			c0-1.7-5.5-0.5-5.5-4.2c0-1.6,1.4-2.9,3.7-2.9c1.5,0,2.8,0.5,3.8,1.3l-1.1,1.5c-0.8-0.7-1.8-1.1-2.8-1.1c-0.9,0-1.4,0.4-1.4,1
			c0,1.5,5.5,0.5,5.5,4.1C-434,284.6-435.3,286-437.9,286L-437.9,286z M-443.2,285.8h-2.1V279l-2.7,6.7h-0.9l-2.7-6.7v6.7h-2v-9.6
			h2.9l2.3,5.8l2.3-5.8h2.9L-443.2,285.8z M-458.9,286c-2.9,0-5.1-2-5.1-5c0-3,2.2-5,5.1-5c2.1,0,3.4,1.2,4,2.4l-1.8,0.9
			c-0.4-0.8-1.3-1.4-2.3-1.4c-1.7,0-3,1.3-3,3.2s1.3,3.2,3,3.2c1,0,1.9-0.6,2.3-1.4l1.8,0.9C-455.5,284.8-456.8,286-458.9,286
			L-458.9,286z"/>
	</g>
</g>
</symbol><symbol id="icon-code" viewBox="-463.9 268 29.9 26.1">

<g>
	<g>
		<path d="M-454.6,290c-0.1,0-0.1,0-0.2,0.1c-1.1,0.1-2.2,0.1-3.3,0.2c-0.2,0-0.3-0.1-0.4-0.2c-0.1,0-0.1-0.1-0.2-0.2
			c-1.7-2.8-3.3-5.6-5.2-8.3c-0.1-0.1-0.1-0.2-0.1-0.3c0-0.1,0-0.2,0.1-0.3c1.8-2.7,3.5-5.5,5.2-8.3c0-0.1,0.1-0.1,0.2-0.2
			c0.1-0.1,0.2-0.3,0.4-0.2c1.1,0.1,2.2,0.1,3.3,0.2l0,0c0.3-0.1,0.8,0.3,0.6,0.7c-1.3,2.8-2.3,5.6-3.8,8.3c0,0,0,0,0,0
			c1.4,2.6,2.5,5.3,3.9,7.9C-453.9,289.6-454.2,290-454.6,290L-454.6,290z M-434,281.2c0,0.1,0,0.2-0.1,0.3
			c-1.8,2.7-3.5,5.5-5.2,8.3c0,0.1-0.1,0.1-0.2,0.2c-0.1,0.2-0.2,0.3-0.4,0.2c-1.1-0.1-2.2-0.1-3.3-0.2c-0.1,0-0.1,0-0.2-0.1
			c-0.3,0-0.7-0.3-0.5-0.7c1.4-2.6,2.5-5.3,3.9-7.9l0,0c-1.5-2.6-2.6-5.5-3.8-8.3c-0.2-0.4,0.2-0.8,0.6-0.7l0,0
			c1.1-0.1,2.2-0.1,3.3-0.2c0.2,0,0.4,0.1,0.4,0.2c0.1,0,0.1,0.1,0.2,0.2c1.7,2.8,3.3,5.6,5.2,8.3C-434,281-434,281.1-434,281.2z
			 M-444.2,268.8c-1.6,8.3-3.3,16.7-5.5,24.9c-0.1,0.3-0.3,0.4-0.5,0.3c0,0,0,0-0.1,0c-1.2,0-2.3,0.1-3.5,0.1c-0.7,0-0.4-0.6-0.2-1
			c0.2-0.4,0.3-0.8,0.4-1.2c0.3-0.9,0.5-1.9,0.8-2.9c0.8-3.4,1.6-6.9,2.3-10.3c0.7-3.4,1.5-6.9,2.4-10.2c0-0.3,0.2-0.5,0.5-0.5
			l2.8,0.1c0,0,0,0,0.1,0C-444.5,268.1-444.1,268.4-444.2,268.8z"/>
	</g>
</g>
</symbol><symbol id="icon-email" viewBox="-238.3 94.2 414.7 379.1">
<g>
	<g transform="rotate(-45 208 190)">
		<path d="M121.4-22.7h-270.5c-7.8,0-14.7,4.1-19.2,10.4L-35,95.7c12.5,10.1,29.8,10.1,42.3,0l133.3-108
			C136.2-18.6,129.2-22.7,121.4-22.7z"/>
	</g>
	<g transform="rotate(-45 208 190)">
		<path d="M17.8,111.4c-9.3,7.5-20.5,11.3-31.6,11.3c-11.2,0-22.3-3.8-31.6-11.3L-173.4,7.8v139.3h-27.7c-7.4,0-13.3,6.6-13.3,14.7
			c0,8.1,6,14.7,13.3,14.7h27.7v19.2c0,14.8,10.9,26.8,24.3,26.8h270.5c13.4,0,24.3-12,24.3-26.8V7.8L17.8,111.4z"/>
	</g>
	<g transform="rotate(-45 208 190)">
		<path d="M-191.1,96.1c-2.4-3.1-6-5-10-5h-37.8c-7.4,0-13.3,6.6-13.3,14.7c0,8.1,6,14.7,13.3,14.7h37.8c4,0,7.5-1.9,10-5
			c2.1-2.6,3.3-6,3.3-9.7C-187.8,102.1-189,98.7-191.1,96.1z"/>
	</g>
	<g transform="rotate(-45 208 190)">
		<path d="M-218,42.7c-2.4-3.1-6-5-10-5h-37.8c-7.4,0-13.3,6.6-13.3,14.7c0,8.1,6,14.7,13.3,14.7h37.8c4,0,7.5-1.9,10-5
			c2.1-2.6,3.3-6,3.3-9.7C-214.6,48.7-215.9,45.3-218,42.7z"/>
	</g>
</g>
</symbol><symbol id="icon-grid" viewBox="-465 267 28 28">

<g>
	<g>
		<path d="M-445,267h8v8h-8V267z M-455,267h8v8h-8V267z M-465,267h8v8h-8V267z M-445,277h8v8h-8V277z M-455,277h8v8h-8
			V277z M-465,277h8v8h-8V277z M-445,287h8v8h-8V287z M-455,287h8v8h-8V287z M-465,287h8v8h-8V287z"/>
	</g>
</g>
</symbol><symbol id="icon-growth" viewBox="-465 266 28.5 29.8">

<g>
	<g>
		<path d="M-436.5,272.3l-3.6-3.2l-3.6-3.2l-3.6,3.2l-3.6,3.2h4c-1.3,8.2-8.9,14.6-17.5,13.2c-0.4-0.1-0.5,0.5-0.2,0.6
			c10.7,3.7,23.1-2.4,24.9-13.8H-436.5z"/>
	</g>
	<g>
		<path d="M-444.5,282.9c-1.1,1-2.4,1.9-3.7,2.7v10.2h3.7V282.9z"/>
	</g>
	<g>
		<path d="M-453.8,295.8h3.7v-9.3c-1.2,0.5-2.4,0.9-3.7,1.2V295.8z"/>
	</g>
	<g>
		<path d="M-442.7,295.8h3.7v-22.5h-0.1c-0.6,2.8-1.8,5.4-3.6,7.7V295.8z"/>
	</g>
	<g>
		<path d="M-461.2,287.9c-1.3-0.2-2.5-0.5-3.7-0.9v8.8h3.7V287.9z"/>
	</g>
	<g>
		<path d="M-459.4,295.8h3.7V288c-0.9,0.1-1.7,0.2-2.6,0.2c-0.4,0-0.8,0-1.1,0V295.8z"/>
	</g>
</g>
</symbol><symbol id="icon-manager" viewBox="-465.9 266 26.7 29.9">

<g>
	<g>
		<path d="M-442.4,290.3c0-0.4-0.3-0.7-0.7-0.7c0,0,0,0,0,0h-4.6c-0.4,0-0.7,0.3-0.7,0.7c0,0,0,0,0,0v2.1
			c0,0.4,0.3,0.7,0.7,0.7h4.6c0.4,0,0.7-0.3,0.7-0.7c0,0,0,0,0,0V290.3z M-439.2,290.4v4.8c0,0.4-0.3,0.7-0.7,0.7h-25.3
			c-0.4,0-0.7-0.3-0.7-0.7v-4.8c0-2,1.2-3.7,3-4.5l6-2.4c0.4-0.1,0.7,0,0.9,0.4c0,0,0,0,0,0l1.5,4.2l0.3-0.9l-0.5-1.2
			c-0.1-0.4,0-0.8,0.4-0.9c0.1,0,0.2-0.1,0.3-0.1h2.9c0.4,0,0.7,0.3,0.7,0.7c0,0.1,0,0.2-0.1,0.3l-0.5,1.2l0.3,0.9l1.5-4.2
			c0.1-0.4,0.5-0.5,0.9-0.4c0,0,0,0,0,0l6,2.4C-440.4,286.7-439.2,288.5-439.2,290.4z M-446.6,275.6c-0.1-0.1-0.1-0.2-0.2-0.2
			c-0.4,0-0.6-0.4-0.6-0.7c0,0,0-0.4,0-1c-1.2-0.1-4.2-0.4-5.7-1.1c-0.7-0.3-1.4-0.7-2-1.2c-0.2,0.4-0.4,0.8-0.7,1.2
			c-0.6,0.7-1.4,1.1-1.9,1.3c0,0.5,0,0.8,0,0.8c0,0.4-0.2,0.7-0.6,0.7c-0.1,0-0.2,0.1-0.2,0.2c-0.1,0.2-0.1,0.7,0,1.2
			c0.3,1.1,0.8,1.3,1.1,1.3c0,0,0,0,0,0c0.1,0,0.1,0,0.2,0c0.3,0,0.5,0.2,0.6,0.4c0.3,0.6,1.1,2.2,1.8,2.9c0.2,0.2,0.5,0.3,0.8,0.5
			c0.9,0.4,2,0.4,2.9,0c0.3-0.1,0.6-0.3,0.8-0.5c0.7-0.6,1.5-2.3,1.8-2.9c0.1-0.3,0.4-0.5,0.7-0.4l0,0c0.3,0,0.8-0.2,1.1-1.2
			C-446.5,276.3-446.5,275.8-446.6,275.6z M-445.3,277.2c-0.5,1.8-1.6,2.2-2.1,2.3c-0.4,0.7-1.1,2.2-1.9,2.9
			c-0.3,0.3-0.7,0.5-1.2,0.7c-0.6,0.2-1.3,0.4-2,0.4c-0.7,0-1.3-0.1-2-0.4c-0.5-0.2-0.9-0.4-1.2-0.7c-0.8-0.7-1.6-2.2-1.9-2.9
			c-0.6-0.1-1.7-0.5-2.1-2.3c-0.3-1-0.2-1.7,0.2-2.3c0.2-0.3,0.4-0.4,0.6-0.5c0-0.2,0-0.4,0-0.7c-0.3-0.5-0.8-1.5-0.2-3.1
			c0.6-1.7,2-2,2.6-2c0.2-0.4,0.6-1,1.4-1.5c0.8-0.6,1.9-0.9,3.1-0.9c1.4,0,2.9,0.5,4.1,1.4c2.1,1.5,1.9,4.9,1.9,5.6
			c0.1,0.5,0.1,1,0.1,1.3c0.2,0.1,0.4,0.3,0.6,0.5C-445.1,275.4-445.1,276.2-445.3,277.2z"/>
	</g>
</g>
</symbol><symbol id="icon-order" viewBox="-472 274 15 14">

<g>
	<g>
		<path d="M-470.3,283c-0.1-0.9,0.3-2,0.9-2.5c0.8-0.7,0.9-1.3,0.8-2.1c0-0.1,0.2-0.2,0.3-0.1c0.8,0.5,1.1,1.8,0.8,2.7
			c0,0.1,0.1,0.2,0.2,0.2c0.3-0.1,0.7-0.2,0.9-0.6c0-0.1,0.1-0.1,0.2-0.1c0.4,0.1,0.8,0.5,1,1c0.5-0.6,0.9-1.3,1.3-2
			c-0.3-0.6-0.7-1.1-1.4-1.6c-2.1-1.6-1.6-3-1.3-3.6c0.1-0.1,0-0.3-0.2-0.2c-0.7,0.1-2.1,0.5-2.5,2.7c0,0,0,0,0,0
			c-0.4-0.4-1-0.4-1.5-0.4c-0.2,0-0.2,0.2-0.1,0.3c1.9,0.9-0.5,2.6-1,4.1c-0.3,0.9-0.1,1.5,0.2,2
			C-471.2,282.7-471.1,282.8-470.3,283z"/>
	</g>
	<g>
		<path d="M-457,275.8c0-0.2-0.1-0.3-0.2-0.4l-1.5-0.4c-0.2,0-0.3,0-0.4,0.2c0,0,0,0,0,0c-0.1,0.8-0.3,1.5-0.5,2.1
			c-0.1,0.4-0.3,0.7-0.4,0.9c-0.3-0.1-0.6-0.2-0.8-0.2c-0.7,0-1.4,0.3-2,1.1c-0.4,0.5-1.9,4.4-3.8,5.2c-0.9,0.4-1.8,0.5-2.5,0.5
			c-0.9,0-1.7-0.2-2.5-0.5c-0.3-0.1-0.5,0.2-0.4,0.5c0.7,1,2.1,2.4,4.8,2.9c0.4,0.1,0.7,0.1,1.1,0.1c3.2,0,6.2-2.3,7.5-4.5
			c0.8-1.3,1.1-2.9,0.2-4.1c0.2-0.3,0.4-0.6,0.5-0.9C-457.4,277.4-457.1,276.3-457,275.8L-457,275.8z"/>
	</g>
</g>
</symbol><symbol id="icon-phone" viewBox="-470 266 18.8 30">

<g>
	<g>
		<path d="M-453.1,288.5h-15v-18.8h15V288.5z M-460.6,294.1c-1,0-1.9-0.8-1.9-1.9s0.8-1.9,1.9-1.9s1.9,0.8,1.9,1.9
			S-459.6,294.1-460.6,294.1z M-464.4,267.4h7.5v0.9h-7.5V267.4z M-454.1,266h-13.1c-1.6,0-2.8,1.3-2.8,2.8v24.4
			c0,1.6,1.3,2.8,2.8,2.8h13.1c1.6,0,2.8-1.3,2.8-2.8v-24.4C-451.3,267.3-452.5,266-454.1,266L-454.1,266z"/>
	</g>
</g>
</symbol><symbol id="icon-search" viewBox="-464 266 30 30">

<g>
	<g>
		<path d="M-435,290.4l-3.1-3.1c-0.2-0.2-0.4-0.3-0.7-0.3c-0.3,0-0.6,0.2-0.8,0.4c-0.8,1.1-1.8,2.2-3,3
			c-0.2,0.2-0.4,0.5-0.4,0.7c0,0.3,0.1,0.6,0.3,0.8l3.1,3.1c0.6,0.6,1.5,1,2.3,1c1.8,0,3.3-1.5,3.3-3.3
			C-434,291.8-434.4,291-435,290.4z"/>
	</g>
	<g>
		<path d="M-450.9,269.9c5,0,9.1,4.1,9.1,9.1c0,5-4.1,9.1-9.1,9.1c-5,0-9.1-4.1-9.1-9.1
			C-460.1,274-456,269.9-450.9,269.9z M-450.9,292.1c7.2,0,13.1-5.9,13.1-13.1c0-7.2-5.9-13.1-13.1-13.1c-7.2,0-13.1,5.9-13.1,13.1
			C-464,286.3-458.1,292.1-450.9,292.1z"/>
	</g>
</g>
</symbol><symbol id="icon-settings" viewBox="-464 266 30 29.7">
<g>
	<g>
		<path d="M-455.1,271.7c1.7,0,3.2,1.4,3.2,3.2c0,1.8-1.5,3.1-3.2,3.1c-1.7,0-3.1-1.4-3.1-3.1
			C-458.2,273.1-456.8,271.7-455.1,271.7z M-462,276.8c0.2,0.5,0.4,1.1,0.7,1.6l-0.8,1c-0.3,0.3-0.2,0.8,0.1,1.1l1.4,1.4
			c0.3,0.3,0.8,0.3,1.1,0.1l1-0.8c0.5,0.3,1,0.5,1.6,0.7l0.1,1.3c0,0.4,0.4,0.7,0.8,0.7h1.9c0.4,0,0.8-0.3,0.8-0.7l0.1-1.2
			c0.6-0.2,1.2-0.4,1.7-0.7l1,0.8c0.3,0.3,0.8,0.2,1.1-0.1l1.4-1.4c0.3-0.3,0.3-0.8,0.1-1.1l-0.7-0.9c0.3-0.5,0.5-1.1,0.7-1.7
			l1.1-0.1c0.4,0,0.7-0.4,0.7-0.8v-1.9c0-0.4-0.3-0.8-0.7-0.8l-1.1-0.1c-0.2-0.6-0.4-1.2-0.7-1.7l0.7-0.9c0.3-0.3,0.2-0.8-0.1-1.1
			l-1.4-1.4c-0.3-0.3-0.8-0.3-1.1-0.1l-0.9,0.7c-0.6-0.3-1.1-0.6-1.8-0.7l-0.1-1.1c0-0.4-0.4-0.7-0.8-0.7h-1.9
			c-0.4,0-0.8,0.3-0.8,0.7l-0.1,1.1c-0.6,0.2-1.2,0.4-1.8,0.8l-0.9-0.7c-0.3-0.3-0.8-0.2-1.1,0.1l-1.4,1.4c-0.3,0.3-0.3,0.8-0.1,1.1
			l0.7,0.9c-0.3,0.5-0.5,1.1-0.7,1.7l-1.2,0.1c-0.4,0-0.7,0.4-0.7,0.8v1.9c0,0.4,0.3,0.8,0.7,0.8L-462,276.8z"/>
	</g>
	<g>
		<path d="M-441.1,285c-1.4,0.1-2.7-0.9-2.8-2.4c-0.1-1.4,0.9-2.7,2.4-2.8c0,0,0,0,0,0c1.4-0.1,2.7,0.9,2.8,2.4
			C-438.6,283.6-439.7,284.8-441.1,285C-441.1,285-441.1,285-441.1,285z M-436.1,277.3l-1-0.9c-0.3-0.3-0.8-0.3-1.1,0l-0.6,0.5
			c-0.5-0.2-1-0.4-1.5-0.5l-0.2-0.8c-0.1-0.4-0.4-0.7-0.9-0.6l-1.3,0.1c-0.4,0-0.7,0.4-0.7,0.8l0,0.8c-0.5,0.2-1,0.4-1.4,0.7
			l-0.7-0.4c-0.3-0.2-0.8-0.2-1.1,0.2l-0.9,1c-0.3,0.3-0.3,0.8,0,1.1l0.6,0.6c-0.2,0.5-0.3,0.9-0.4,1.4l-0.8,0.2
			c-0.4,0.1-0.7,0.4-0.6,0.9l0.1,1.3c0,0.4,0.4,0.7,0.8,0.7l0.9,0c0.2,0.4,0.4,0.8,0.6,1.2l-0.5,0.8c-0.2,0.3-0.2,0.8,0.1,1.1l1,0.9
			c0.3,0.3,0.8,0.3,1.1,0l0.7-0.6c0.4,0.2,0.9,0.4,1.4,0.4l0.2,0.9c0.1,0.4,0.5,0.7,0.9,0.6l1.3-0.1c0.4,0,0.7-0.4,0.7-0.8l0-0.9
			c0.5-0.2,0.9-0.4,1.4-0.7l0.7,0.5c0.3,0.2,0.8,0.2,1.1-0.1l0.9-1c0.3-0.3,0.3-0.8,0-1.1l-0.6-0.6c0.2-0.5,0.4-0.9,0.5-1.4l0.8-0.2
			c0.4-0.1,0.7-0.4,0.6-0.9l-0.1-1.3c0-0.4-0.4-0.7-0.8-0.7l-0.8,0c-0.2-0.5-0.4-0.9-0.7-1.3l0.4-0.7
			C-435.7,278-435.8,277.6-436.1,277.3z"/>
	</g>
	<g>
		<path d="M-452.2,287.6c1.2,0,2.1,1,2,2.2c0,1.1-1,2-2.1,2c-1.2,0-2.1-1-2-2.2C-454.2,288.5-453.3,287.6-452.2,287.6z
			 M-457.4,288.5c-0.4,0-0.7,0.4-0.7,0.8l0,0.8c0,0.4,0.3,0.8,0.7,0.8l0.6,0.1c0.1,0.4,0.2,0.7,0.4,1l-0.4,0.5
			c-0.3,0.3-0.2,0.8,0,1.1l0.6,0.6c0.3,0.3,0.7,0.3,1.1,0.1l0.5-0.4c0.3,0.2,0.7,0.4,1.1,0.5l0.1,0.6c0,0.4,0.4,0.7,0.8,0.7l0.8,0
			c0.4,0,0.8-0.3,0.8-0.7l0.1-0.6c0.4-0.1,0.8-0.3,1.2-0.5l0.5,0.4c0.3,0.3,0.8,0.2,1.1,0l0.6-0.6c0.3-0.3,0.3-0.7,0.1-1.1l-0.3-0.4
			c0.2-0.4,0.4-0.7,0.5-1.1l0.5-0.1c0.4,0,0.7-0.4,0.7-0.8l0-0.8c0-0.4-0.3-0.8-0.7-0.8l-0.5-0.1c-0.1-0.4-0.2-0.8-0.4-1.1l0.3-0.4
			c0.3-0.3,0.2-0.8,0-1.1l-0.6-0.6c-0.3-0.3-0.7-0.3-1.1-0.1l-0.4,0.3c-0.4-0.2-0.8-0.4-1.2-0.5l-0.1-0.5c0-0.4-0.4-0.7-0.8-0.7
			l-0.8,0c-0.4,0-0.8,0.3-0.8,0.7l-0.1,0.5c-0.4,0.1-0.8,0.3-1.2,0.5l-0.4-0.3c-0.3-0.3-0.8-0.2-1.1,0l-0.6,0.6
			c-0.3,0.3-0.3,0.7-0.1,1.1l0.3,0.4c-0.2,0.4-0.4,0.7-0.5,1.1L-457.4,288.5z"/>
	</g>
</g>
</symbol></svg>