<svg xmlns="http://www.w3.org/2000/svg" width="155" height="45" viewBox="0 0 155 45"><defs><linearGradient id="blx3a" x1="108.29" x2="108.29" y1="44.71" y2="0" gradientUnits="userSpaceOnUse"><stop offset="0" stop-color="#0a549f"/><stop offset="1" stop-color="#7dd2cc"/></linearGradient><linearGradient id="blx3b" x1="106.28" x2="106.28" y1="10" y2="35.89" gradientUnits="userSpaceOnUse"><stop offset="0" stop-color="#7dd2cc"/><stop offset="1" stop-color="#3b7da4"/></linearGradient></defs><g><g><path fill="url(#blx3a)" d="M33.534 0a5.59 5.59 0 0 0-5.589 5.59v16.32a5.59 5.59 0 1 1-11.178 0h-5.589c-.02 6.173 4.968 11.194 11.141 11.215 6.174.02 11.195-4.968 11.215-11.141V5.589h5.59v16.767c0 9.26-7.508 16.768-16.768 16.768-9.26 0-16.767-7.508-16.767-16.768V5.59A5.59 5.59 0 0 0 0 0v22.356c0 12.348 10.009 22.357 22.356 22.357 12.348 0 22.357-10.01 22.357-22.357V0z"/></g><g><path fill="url(#blx3b)" d="M145.105 26.5c-.63-.32-1.105-.71-1.425-1.17V20.2c.32-.46.79-.85 1.41-1.17.62-.32 1.24-.48 1.86-.48 1.1 0 1.985.39 2.655 1.17.67.78 1.005 1.79 1.005 3.03 0 1.26-.335 2.28-1.005 3.06-.67.78-1.555 1.17-2.655 1.17-.6 0-1.215-.16-1.845-.48zm7.68 1.83c1.19-1.36 1.785-3.22 1.785-5.58s-.595-4.215-1.785-5.565c-1.19-1.35-2.735-2.025-4.635-2.025-1.84 0-3.33.73-4.47 2.19v-1.83h-3.81v20.01h3.81v-7.38c1.16 1.48 2.65 2.22 4.47 2.22 1.9 0 3.445-.68 4.635-2.04zM136.03 22V10h-4.35v11.88c0 1.44-.405 2.585-1.215 3.435-.81.85-1.965 1.275-3.465 1.275-1.5 0-2.66-.425-3.48-1.275-.82-.85-1.23-1.995-1.23-3.435V10h-4.32v12.03c0 2.54.765 4.565 2.295 6.075 1.53 1.51 3.775 2.265 6.735 2.265 2.96 0 5.2-.75 6.72-2.25 1.54-1.5 2.31-3.54 2.31-6.12zm-32.16 13.89c1.36-.04 2.49-.315 3.39-.825.9-.51 1.6-1.405 2.1-2.685l6.81-16.86h-4.11l-3.78 10.08-3.78-10.08h-4.08l5.88 14.7-.54 1.23c-.32.7-.99 1.05-2.01 1.05-.44 0-.84-.08-1.2-.24l-.57 3.42c.56.14 1.19.21 1.89.21zm-13.98-8.67c-.52-.38-.78-.9-.78-1.56 0-.68.26-1.215.78-1.605.52-.39 1.17-.585 1.95-.585 1.42 0 2.44.42 3.06 1.26v1.8c-.62.84-1.64 1.26-3.06 1.26-.78 0-1.43-.19-1.95-.57zm8.82-6.57c0-1.94-.59-3.34-1.77-4.2-1.18-.86-2.7-1.29-4.56-1.29-2.5 0-4.61.76-6.33 2.28l1.44 2.55c1.24-1.14 2.65-1.71 4.23-1.71.96 0 1.73.22 2.31.66.58.44.87 1.03.87 1.77v1.95c-1-1.18-2.53-1.77-4.59-1.77-1.34 0-2.515.39-3.525 1.17-1.01.78-1.515 1.95-1.515 3.51 0 1.5.515 2.675 1.545 3.525 1.03.85 2.195 1.275 3.495 1.275 2.02 0 3.55-.62 4.59-1.86v1.5h3.81zM85.48 10h-4.8L77.2 24.46 73.42 10h-3.33l-3.81 14.46L62.77 10H58l5.73 20.01h4.53l3.48-13.74 3.51 13.74h4.53z"/></g></g></svg>