<svg 
 xmlns="http://www.w3.org/2000/svg"
 xmlns:xlink="http://www.w3.org/1999/xlink" viewBox="0 0 1298 88>">
<path fill-rule="evenodd"  fill="rgb(188, 188, 188)"
 d="M104.000,30.922 C103.666,30.924 103.332,30.928 103.000,30.933 L103.000,0.010 C103.332,0.006 103.666,0.002 104.000,0.000 L104.000,30.922 ZM99.000,31.048 C98.666,31.063 98.333,31.079 98.000,31.097 L98.000,0.175 C98.333,0.158 98.666,0.140 99.000,0.125 L99.000,31.048 ZM94.000,31.369 C93.666,31.397 93.333,31.426 93.000,31.456 L93.000,0.534 C93.332,0.503 93.666,0.475 94.000,0.447 L94.000,31.369 ZM89.000,31.883 C88.666,31.924 88.333,31.966 88.000,32.009 L88.000,1.088 C88.333,1.044 88.666,1.001 89.000,0.960 L89.000,31.883 ZM84.000,1.671 L84.000,32.593 C83.666,32.646 83.333,32.702 83.000,32.758 L83.000,1.835 C83.333,1.779 83.666,1.725 84.000,1.671 ZM79.000,33.495 C78.666,33.561 78.332,33.628 78.000,33.697 L78.000,2.775 C78.332,2.706 78.666,2.639 79.000,2.572 L79.000,33.495 ZM74.000,34.586 C73.666,34.665 73.333,34.746 73.000,34.827 L73.000,3.906 C73.333,3.824 73.666,3.743 74.000,3.664 L74.000,34.586 ZM69.000,35.865 C68.666,35.956 68.333,36.049 68.000,36.143 L68.000,5.221 C68.333,5.127 68.666,5.034 69.000,4.943 L69.000,35.865 ZM64.000,37.323 C63.666,37.426 63.333,37.531 63.000,37.636 L63.000,6.714 C63.333,6.608 63.666,6.504 64.000,6.401 L64.000,37.323 ZM59.000,38.953 C58.666,39.068 58.333,39.183 58.000,39.299 L58.000,8.377 C58.333,8.260 58.666,8.146 59.000,8.031 L59.000,38.953 ZM54.000,40.745 C53.666,40.870 53.333,40.996 53.000,41.122 L53.000,10.200 C53.333,10.073 53.666,9.948 54.000,9.823 L54.000,40.745 ZM49.000,42.688 C48.666,42.822 48.333,42.957 48.000,43.093 L48.000,12.170 C48.333,12.035 48.666,11.900 49.000,11.766 L49.000,42.688 ZM44.000,44.766 C43.666,44.909 43.333,45.052 43.000,45.197 L43.000,14.274 C43.333,14.130 43.666,13.987 44.000,13.844 L44.000,44.766 ZM39.000,46.965 C38.666,47.115 38.333,47.266 38.000,47.417 L38.000,16.495 C38.333,16.344 38.666,16.193 39.000,16.043 L39.000,46.965 ZM34.000,49.266 C33.666,49.422 33.333,49.579 33.000,49.737 L33.000,18.815 C33.333,18.657 33.666,18.500 34.000,18.344 L34.000,49.266 ZM29.000,51.650 C28.666,51.811 28.333,51.973 28.000,52.135 L28.000,21.213 C28.333,21.051 28.666,20.889 29.000,20.728 L29.000,51.650 ZM24.000,54.096 C23.666,54.261 23.333,54.426 23.000,54.591 L23.000,23.669 C23.333,23.504 23.666,23.339 24.000,23.174 L24.000,54.096 ZM19.000,56.583 C18.666,56.749 18.333,56.916 18.000,57.083 L18.000,26.161 C18.333,25.994 18.666,25.827 19.000,25.661 L19.000,56.583 ZM14.000,59.087 C13.667,59.254 13.333,59.421 13.000,59.588 L13.000,28.667 C13.333,28.500 13.667,28.333 14.000,28.165 L14.000,59.087 ZM3.000,33.628 C3.333,33.465 3.667,33.302 4.000,33.138 L4.000,64.060 C3.667,64.223 3.333,64.386 3.000,64.549 L3.000,33.628 ZM9.000,61.587 C8.667,61.753 8.333,61.919 8.000,62.084 L8.000,31.163 C8.333,30.997 8.667,30.831 9.000,30.665 L9.000,61.587 ZM124.000,32.306 C123.666,32.258 123.333,32.214 123.000,32.169 L123.000,1.246 C123.333,1.291 123.666,1.337 124.000,1.384 L124.000,32.306 ZM119.000,31.682 C118.666,31.647 118.333,31.614 118.000,31.581 L118.000,0.659 C118.333,0.692 118.665,0.724 119.000,0.760 L119.000,31.682 ZM108.000,0.036 C108.332,0.044 108.666,0.055 109.000,0.066 L109.000,30.988 C108.666,30.978 108.332,30.967 108.000,30.959 L108.000,0.036 ZM114.000,31.243 C113.666,31.219 113.332,31.197 113.000,31.176 L113.000,0.254 C113.333,0.275 113.666,0.296 114.000,0.320 L114.000,31.243 ZM184.000,52.423 C183.665,52.254 183.333,52.088 183.000,51.922 L183.000,20.999 C183.333,21.166 183.665,21.332 184.000,21.501 L184.000,52.423 ZM179.000,49.958 C178.666,49.798 178.332,49.637 178.000,49.479 L178.000,18.557 C178.332,18.715 178.666,18.876 179.000,19.036 L179.000,49.958 ZM174.000,47.619 C173.665,47.467 173.333,47.319 173.000,47.169 L173.000,16.247 C173.333,16.396 173.665,16.545 174.000,16.697 L174.000,47.619 ZM169.000,45.416 C168.667,45.274 168.332,45.129 168.000,44.989 L168.000,14.067 C168.332,14.207 168.666,14.351 169.000,14.494 L169.000,45.416 ZM164.000,43.347 C163.666,43.213 163.333,43.083 163.000,42.952 L163.000,12.030 C163.333,12.161 163.665,12.291 164.000,12.424 L164.000,43.347 ZM159.000,41.422 C158.666,41.299 158.333,41.176 158.000,41.055 L158.000,10.133 C158.333,10.254 158.666,10.376 159.000,10.500 L159.000,41.422 ZM154.000,39.644 C153.666,39.530 153.332,39.415 153.000,39.304 L153.000,8.382 C153.332,8.493 153.666,8.608 154.000,8.722 L154.000,39.644 ZM149.000,38.015 C148.666,37.912 148.332,37.809 148.000,37.708 L148.000,6.786 C148.333,6.887 148.666,6.989 149.000,7.093 L149.000,38.015 ZM144.000,36.542 C143.665,36.449 143.333,36.359 143.000,36.269 L143.000,5.346 C143.333,5.437 143.665,5.526 144.000,5.619 L144.000,36.542 ZM139.000,35.231 C138.665,35.148 138.333,35.070 138.000,34.990 L138.000,4.068 C138.333,4.147 138.666,4.227 139.000,4.309 L139.000,35.231 ZM128.000,2.013 C128.333,2.070 128.666,2.127 129.000,2.187 L129.000,33.109 C128.665,33.049 128.333,32.992 128.000,32.935 L128.000,2.013 ZM134.000,34.085 C133.666,34.014 133.333,33.946 133.000,33.877 L133.000,2.955 C133.333,3.023 133.666,3.092 134.000,3.163 L134.000,34.085 ZM189.000,24.130 L189.000,55.052 C188.666,54.863 188.334,54.677 188.000,54.485 L188.000,23.563 C188.334,23.754 188.666,23.941 189.000,24.130 ZM264.000,84.401 C263.667,84.340 263.334,84.276 263.000,84.212 L263.000,53.290 C263.334,53.354 263.667,53.418 264.000,53.480 L264.000,84.401 ZM259.000,83.394 C258.667,83.322 258.334,83.248 258.000,83.173 L258.000,52.251 C258.334,52.326 258.667,52.400 259.000,52.472 L259.000,83.394 ZM254.000,82.233 C253.667,82.151 253.334,82.067 253.000,81.982 L253.000,51.060 C253.334,51.145 253.667,51.229 254.000,51.311 L254.000,82.233 ZM249.000,80.922 C248.667,80.830 248.334,80.737 248.000,80.643 L248.000,49.721 C248.334,49.815 248.667,49.908 249.000,50.000 L249.000,80.922 ZM244.000,79.467 C243.667,79.365 243.334,79.265 243.000,79.161 L243.000,48.239 C243.334,48.343 243.667,48.443 244.000,48.545 L244.000,79.467 ZM239.000,77.872 C238.667,77.761 238.334,77.650 238.000,77.537 L238.000,46.615 C238.334,46.728 238.667,46.839 239.000,46.950 L239.000,77.872 ZM234.000,76.141 C233.668,76.021 233.333,75.898 233.000,75.776 L233.000,44.854 C233.333,44.976 233.668,45.099 234.000,45.219 L234.000,76.141 ZM229.000,74.275 C228.667,74.146 228.334,74.017 228.000,73.886 L228.000,42.964 C228.334,43.095 228.667,43.224 229.000,43.353 L229.000,74.275 ZM224.000,72.281 C223.667,72.144 223.334,72.008 223.000,71.869 L223.000,40.947 C223.334,41.086 223.667,41.222 224.000,41.359 L224.000,72.281 ZM219.000,70.165 C218.668,70.020 218.333,69.872 218.000,69.725 L218.000,38.803 C218.333,38.950 218.668,39.098 219.000,39.243 L219.000,70.165 ZM214.000,67.925 C213.667,67.772 213.334,67.621 213.000,67.466 L213.000,36.544 C213.334,36.699 213.667,36.850 214.000,37.003 L214.000,67.925 ZM209.000,65.572 C208.668,65.412 208.333,65.248 208.000,65.086 L208.000,34.164 C208.333,34.326 208.668,34.490 209.000,34.650 L209.000,65.572 ZM204.000,63.102 C203.667,62.934 203.334,62.767 203.000,62.597 L203.000,31.675 C203.334,31.845 203.667,32.012 204.000,32.180 L204.000,63.102 ZM193.000,26.369 C193.334,26.553 193.667,26.736 194.000,26.919 L194.000,57.841 C193.667,57.659 193.334,57.475 193.000,57.291 L193.000,26.369 ZM199.000,60.525 C198.667,60.350 198.334,60.173 198.000,59.996 L198.000,29.074 C198.334,29.251 198.667,29.428 199.000,29.603 L199.000,60.525 ZM289.000,86.996 C288.667,86.989 288.334,86.981 288.000,86.973 L288.000,56.051 C288.334,56.059 288.667,56.067 289.000,56.074 L289.000,86.996 ZM284.000,86.815 C283.667,86.798 283.334,86.778 283.000,86.758 L283.000,55.836 C283.334,55.856 283.667,55.876 284.000,55.893 L284.000,86.815 ZM279.000,86.461 C278.667,86.432 278.334,86.403 278.000,86.372 L278.000,55.450 C278.334,55.481 278.667,55.510 279.000,55.539 L279.000,86.461 ZM268.000,54.172 C268.334,54.225 268.667,54.278 269.000,54.329 L269.000,85.251 C268.667,85.200 268.334,85.147 268.000,85.094 L268.000,54.172 ZM274.000,85.939 C273.667,85.898 273.334,85.857 273.000,85.815 L273.000,54.893 C273.334,54.936 273.667,54.977 274.000,55.017 L274.000,85.939 ZM314.000,85.216 C313.667,85.270 313.334,85.323 313.000,85.375 L313.000,54.453 C313.334,54.401 313.667,54.348 314.000,54.295 L314.000,85.216 ZM309.000,85.935 C308.667,85.977 308.334,86.017 308.000,86.056 L308.000,55.134 C308.334,55.095 308.667,55.055 309.000,55.013 L309.000,85.935 ZM304.000,86.471 C303.667,86.500 303.334,86.530 303.000,86.557 L303.000,55.635 C303.334,55.608 303.667,55.578 304.000,55.549 L304.000,86.471 ZM293.000,56.092 C293.334,56.088 293.667,56.083 294.000,56.077 L294.000,86.999 C293.667,87.005 293.334,87.010 293.000,87.014 L293.000,56.092 ZM299.000,86.827 C298.667,86.844 298.334,86.859 298.000,86.874 L298.000,55.953 C298.334,55.937 298.667,55.922 299.000,55.905 L299.000,86.827 ZM474.000,30.923 C473.666,30.925 473.332,30.928 473.000,30.932 L473.000,0.010 C473.332,0.005 473.666,0.002 474.000,0.000 L474.000,30.923 ZM469.000,31.048 C468.666,31.063 468.332,31.079 468.000,31.097 L468.000,0.174 C468.332,0.157 468.666,0.141 469.000,0.126 L469.000,31.048 ZM464.000,31.368 C463.666,31.396 463.333,31.426 463.000,31.457 L463.000,0.534 C463.333,0.504 463.666,0.474 464.000,0.446 L464.000,31.368 ZM459.000,31.884 C458.666,31.925 458.332,31.966 458.000,32.010 L458.000,1.087 C458.332,1.044 458.666,1.002 459.000,0.961 L459.000,31.884 ZM454.000,1.670 L454.000,32.593 C453.666,32.646 453.332,32.700 453.000,32.757 L453.000,1.834 C453.332,1.778 453.666,1.724 454.000,1.670 ZM449.000,33.494 C448.666,33.561 448.332,33.628 448.000,33.697 L448.000,2.774 C448.332,2.705 448.666,2.638 449.000,2.572 L449.000,33.494 ZM444.000,34.586 C443.666,34.665 443.333,34.745 443.000,34.827 L443.000,3.905 C443.333,3.823 443.666,3.743 444.000,3.664 L444.000,34.586 ZM439.000,35.864 C438.666,35.956 438.333,36.048 438.000,36.142 L438.000,5.219 C438.333,5.126 438.666,5.033 439.000,4.942 L439.000,35.864 ZM434.000,37.323 C433.666,37.426 433.333,37.529 433.000,37.634 L433.000,6.712 C433.333,6.607 433.666,6.503 434.000,6.400 L434.000,37.323 ZM429.000,38.953 C428.666,39.067 428.333,39.182 428.000,39.298 L428.000,8.376 C428.333,8.260 428.666,8.145 429.000,8.031 L429.000,38.953 ZM424.000,40.745 C423.666,40.870 423.333,40.996 423.000,41.122 L423.000,10.200 C423.333,10.073 423.666,9.948 424.000,9.823 L424.000,40.745 ZM419.000,42.687 C418.666,42.822 418.333,42.957 418.000,43.093 L418.000,12.170 C418.333,12.035 418.666,11.899 419.000,11.765 L419.000,42.687 ZM414.000,44.765 C413.666,44.908 413.333,45.052 413.000,45.196 L413.000,14.274 C413.333,14.130 413.666,13.986 414.000,13.843 L414.000,44.765 ZM409.000,46.964 C408.666,47.115 408.333,47.265 408.000,47.417 L408.000,16.495 C408.333,16.343 408.666,16.192 409.000,16.042 L409.000,46.964 ZM404.000,49.266 C403.666,49.422 403.333,49.579 403.000,49.737 L403.000,18.814 C403.333,18.657 403.666,18.500 404.000,18.343 L404.000,49.266 ZM399.000,51.649 C398.666,51.811 398.333,51.972 398.000,52.134 L398.000,21.212 C398.333,21.050 398.666,20.888 399.000,20.727 L399.000,51.649 ZM394.000,54.096 C393.666,54.261 393.333,54.425 393.000,54.591 L393.000,23.668 C393.333,23.503 393.666,23.338 394.000,23.174 L394.000,54.096 ZM389.000,56.582 C388.666,56.749 388.333,56.916 388.000,57.083 L388.000,26.160 C388.333,25.994 388.666,25.827 389.000,25.660 L389.000,56.582 ZM384.000,59.087 C383.667,59.254 383.333,59.421 383.000,59.588 L383.000,28.666 C383.333,28.499 383.667,28.332 384.000,28.165 L384.000,59.087 ZM379.000,61.587 C378.667,61.753 378.333,61.919 378.000,62.084 L378.000,31.162 C378.333,30.996 378.667,30.831 379.000,30.665 L379.000,61.587 ZM374.000,64.060 C373.667,64.223 373.333,64.386 373.000,64.549 L373.000,33.627 C373.333,33.464 373.667,33.301 374.000,33.138 L374.000,64.060 ZM369.000,66.483 C368.667,66.643 368.333,66.802 368.000,66.961 L368.000,36.039 C368.333,35.880 368.667,35.721 369.000,35.561 L369.000,66.483 ZM364.000,68.838 C363.667,68.992 363.333,69.146 363.000,69.299 L363.000,38.377 C363.333,38.224 363.667,38.070 364.000,37.916 L364.000,68.838 ZM359.000,71.104 C358.667,71.252 358.334,71.399 358.000,71.545 L358.000,40.623 C358.334,40.477 358.667,40.330 359.000,40.182 L359.000,71.104 ZM354.000,73.263 C353.667,73.403 353.334,73.543 353.000,73.681 L353.000,42.759 C353.334,42.621 353.667,42.481 354.000,42.341 L354.000,73.263 ZM349.000,75.300 C348.667,75.432 348.334,75.562 348.000,75.692 L348.000,44.770 C348.334,44.640 348.667,44.510 349.000,44.378 L349.000,75.300 ZM344.000,77.201 C343.667,77.323 343.334,77.444 343.000,77.564 L343.000,46.642 C343.334,46.522 343.667,46.401 344.000,46.279 L344.000,77.201 ZM339.000,78.955 C338.667,79.066 338.334,79.177 338.000,79.286 L338.000,48.364 C338.334,48.255 338.667,48.144 339.000,48.033 L339.000,78.955 ZM334.000,80.550 C333.667,80.650 333.334,80.750 333.000,80.849 L333.000,49.927 C333.334,49.828 333.667,49.728 334.000,49.628 L334.000,80.550 ZM329.000,81.979 C328.667,82.068 328.334,82.156 328.000,82.244 L328.000,51.322 C328.334,51.234 328.667,51.146 329.000,51.057 L329.000,81.979 ZM318.000,53.589 C318.334,53.525 318.667,53.459 319.000,53.394 L319.000,84.315 C318.667,84.381 318.334,84.447 318.000,84.511 L318.000,53.589 ZM324.000,83.235 C323.667,83.313 323.334,83.390 323.000,83.466 L323.000,52.544 C323.334,52.468 323.667,52.391 324.000,52.313 L324.000,83.235 ZM494.000,32.306 C493.666,32.258 493.333,32.213 493.000,32.168 L493.000,1.246 C493.333,1.291 493.666,1.336 494.000,1.383 L494.000,32.306 ZM489.000,31.684 C488.666,31.648 488.332,31.612 488.000,31.579 L488.000,0.657 C488.332,0.690 488.666,0.726 489.000,0.761 L489.000,31.684 ZM478.000,0.037 C478.333,0.045 478.666,0.054 479.000,0.064 L479.000,30.987 C478.666,30.976 478.333,30.967 478.000,30.959 L478.000,0.037 ZM484.000,31.243 C483.666,31.220 483.332,31.198 483.000,31.177 L483.000,0.254 C483.332,0.275 483.666,0.297 484.000,0.320 L484.000,31.243 ZM554.000,52.423 C553.665,52.254 553.333,52.088 553.000,51.921 L553.000,20.999 C553.333,21.166 553.665,21.332 554.000,21.501 L554.000,52.423 ZM549.000,49.958 C548.666,49.798 548.332,49.638 548.000,49.479 L548.000,18.557 C548.332,18.715 548.666,18.875 549.000,19.036 L549.000,49.958 ZM544.000,47.620 C543.666,47.469 543.332,47.317 543.000,47.168 L543.000,16.245 C543.332,16.395 543.666,16.546 544.000,16.698 L544.000,47.620 ZM539.000,45.414 C538.665,45.271 538.333,45.132 538.000,44.991 L538.000,14.069 C538.333,14.209 538.665,14.349 539.000,14.492 L539.000,45.414 ZM534.000,43.347 C533.666,43.214 533.333,43.083 533.000,42.952 L533.000,12.029 C533.333,12.160 533.666,12.292 534.000,12.425 L534.000,43.347 ZM529.000,41.423 C528.666,41.299 528.332,41.176 528.000,41.054 L528.000,10.132 C528.332,10.253 528.666,10.377 529.000,10.500 L529.000,41.423 ZM524.000,39.644 C523.666,39.530 523.332,39.416 523.000,39.304 L523.000,8.382 C523.332,8.493 523.666,8.608 524.000,8.721 L524.000,39.644 ZM519.000,38.016 C518.666,37.912 518.332,37.808 518.000,37.707 L518.000,6.785 C518.332,6.886 518.666,6.990 519.000,7.094 L519.000,38.016 ZM514.000,36.544 C513.666,36.451 513.332,36.357 513.000,36.267 L513.000,5.344 C513.332,5.435 513.666,5.529 514.000,5.621 L514.000,36.544 ZM509.000,35.232 C508.666,35.150 508.332,35.068 508.000,34.988 L508.000,4.066 C508.332,4.145 508.666,4.228 509.000,4.310 L509.000,35.232 ZM498.000,2.013 C498.333,2.070 498.666,2.127 499.000,2.187 L499.000,33.109 C498.666,33.050 498.333,32.992 498.000,32.935 L498.000,2.013 ZM504.000,34.086 C503.666,34.015 503.332,33.945 503.000,33.876 L503.000,2.954 C503.332,3.022 503.666,3.093 504.000,3.164 L504.000,34.086 ZM559.000,24.130 L559.000,55.053 C558.666,54.863 558.334,54.677 558.000,54.485 L558.000,23.563 C558.334,23.754 558.666,23.941 559.000,24.130 ZM634.000,84.401 C633.667,84.340 633.334,84.276 633.000,84.212 L633.000,53.290 C633.334,53.354 633.667,53.418 634.000,53.480 L634.000,84.401 ZM629.000,83.394 C628.667,83.322 628.334,83.248 628.000,83.173 L628.000,52.251 C628.334,52.326 628.667,52.400 629.000,52.472 L629.000,83.394 ZM624.000,82.233 C623.667,82.151 623.334,82.067 623.000,81.982 L623.000,51.060 C623.334,51.145 623.667,51.229 624.000,51.311 L624.000,82.233 ZM619.000,80.922 C618.667,80.830 618.334,80.737 618.000,80.643 L618.000,49.721 C618.334,49.816 618.667,49.908 619.000,50.000 L619.000,80.922 ZM614.000,79.467 C613.667,79.365 613.334,79.265 613.000,79.161 L613.000,48.239 C613.334,48.343 613.667,48.443 614.000,48.545 L614.000,79.467 ZM609.000,77.872 C608.667,77.761 608.334,77.650 608.000,77.537 L608.000,46.615 C608.334,46.728 608.667,46.839 609.000,46.950 L609.000,77.872 ZM604.000,76.141 C603.668,76.021 603.333,75.898 603.000,75.776 L603.000,44.854 C603.333,44.976 603.668,45.099 604.000,45.219 L604.000,76.141 ZM599.000,74.275 C598.667,74.146 598.334,74.017 598.000,73.886 L598.000,42.964 C598.334,43.095 598.667,43.224 599.000,43.353 L599.000,74.275 ZM594.000,72.281 C593.667,72.144 593.334,72.008 593.000,71.869 L593.000,40.947 C593.334,41.086 593.667,41.222 594.000,41.359 L594.000,72.281 ZM589.000,70.165 C588.667,70.020 588.333,69.872 588.000,69.725 L588.000,38.803 C588.333,38.950 588.667,39.098 589.000,39.243 L589.000,70.165 ZM584.000,67.925 C583.667,67.772 583.334,67.621 583.000,67.466 L583.000,36.544 C583.334,36.699 583.667,36.850 584.000,37.003 L584.000,67.925 ZM579.000,65.572 C578.668,65.412 578.333,65.248 578.000,65.086 L578.000,34.163 C578.333,34.326 578.668,34.490 579.000,34.650 L579.000,65.572 ZM574.000,63.102 C573.667,62.934 573.334,62.767 573.000,62.597 L573.000,31.675 C573.334,31.845 573.667,32.012 574.000,32.180 L574.000,63.102 ZM563.000,26.369 C563.334,26.553 563.667,26.736 564.000,26.918 L564.000,57.841 C563.667,57.659 563.334,57.475 563.000,57.291 L563.000,26.369 ZM569.000,60.525 C568.667,60.350 568.334,60.173 568.000,59.996 L568.000,29.074 C568.334,29.251 568.667,29.428 569.000,29.603 L569.000,60.525 ZM659.000,86.996 C658.667,86.989 658.334,86.981 658.000,86.973 L658.000,56.051 C658.334,56.059 658.667,56.067 659.000,56.074 L659.000,86.996 ZM654.000,86.815 C653.667,86.798 653.334,86.778 653.000,86.758 L653.000,55.836 C653.334,55.856 653.667,55.876 654.000,55.893 L654.000,86.815 ZM649.000,86.461 C648.667,86.432 648.334,86.403 648.000,86.372 L648.000,55.450 C648.334,55.481 648.667,55.510 649.000,55.539 L649.000,86.461 ZM638.000,54.172 C638.334,54.225 638.667,54.278 639.000,54.329 L639.000,85.251 C638.667,85.200 638.334,85.147 638.000,85.094 L638.000,54.172 ZM644.000,85.939 C643.667,85.898 643.334,85.857 643.000,85.815 L643.000,54.893 C643.334,54.936 643.667,54.977 644.000,55.017 L644.000,85.939 ZM684.000,85.216 C683.667,85.270 683.334,85.323 683.000,85.375 L683.000,54.453 C683.334,54.401 683.667,54.348 684.000,54.295 L684.000,85.216 ZM679.000,85.935 C678.667,85.977 678.334,86.017 678.000,86.056 L678.000,55.134 C678.334,55.095 678.667,55.055 679.000,55.013 L679.000,85.935 ZM674.000,86.471 C673.667,86.500 673.334,86.530 673.000,86.557 L673.000,55.635 C673.334,55.608 673.667,55.578 674.000,55.549 L674.000,86.471 ZM663.000,56.092 C663.334,56.088 663.667,56.083 664.000,56.077 L664.000,86.999 C663.667,87.005 663.334,87.010 663.000,87.014 L663.000,56.092 ZM669.000,86.827 C668.668,86.844 668.334,86.859 668.000,86.874 L668.000,55.953 C668.334,55.937 668.668,55.922 669.000,55.905 L669.000,86.827 ZM844.000,30.923 C843.666,30.925 843.332,30.928 843.000,30.932 L843.000,0.010 C843.332,0.005 843.666,0.002 844.000,0.000 L844.000,30.923 ZM839.000,31.048 C838.666,31.063 838.332,31.079 838.000,31.097 L838.000,0.174 C838.332,0.157 838.666,0.141 839.000,0.126 L839.000,31.048 ZM834.000,31.368 C833.666,31.396 833.333,31.426 833.000,31.457 L833.000,0.534 C833.333,0.504 833.666,0.474 834.000,0.446 L834.000,31.368 ZM829.000,31.884 C828.666,31.925 828.332,31.966 828.000,32.010 L828.000,1.087 C828.332,1.044 828.666,1.002 829.000,0.961 L829.000,31.884 ZM824.000,1.670 L824.000,32.593 C823.666,32.646 823.332,32.700 823.000,32.757 L823.000,1.834 C823.332,1.778 823.666,1.724 824.000,1.670 ZM819.000,33.494 C818.666,33.561 818.333,33.628 818.000,33.697 L818.000,2.774 C818.333,2.705 818.666,2.638 819.000,2.572 L819.000,33.494 ZM814.000,34.586 C813.666,34.665 813.333,34.745 813.000,34.827 L813.000,3.905 C813.333,3.823 813.666,3.743 814.000,3.664 L814.000,34.586 ZM809.000,35.864 C808.666,35.956 808.333,36.048 808.000,36.142 L808.000,5.219 C808.333,5.126 808.666,5.033 809.000,4.942 L809.000,35.864 ZM804.000,37.323 C803.666,37.426 803.332,37.529 803.000,37.635 L803.000,6.712 C803.332,6.607 803.666,6.503 804.000,6.400 L804.000,37.323 ZM799.000,38.953 C798.666,39.067 798.333,39.182 798.000,39.298 L798.000,8.376 C798.333,8.260 798.666,8.145 799.000,8.031 L799.000,38.953 ZM794.000,40.745 C793.666,40.870 793.333,40.996 793.000,41.122 L793.000,10.200 C793.333,10.073 793.666,9.948 794.000,9.823 L794.000,40.745 ZM789.000,42.687 C788.666,42.822 788.333,42.957 788.000,43.093 L788.000,12.170 C788.333,12.035 788.666,11.899 789.000,11.765 L789.000,42.687 ZM784.000,44.765 C783.666,44.908 783.333,45.052 783.000,45.196 L783.000,14.274 C783.333,14.130 783.666,13.986 784.000,13.843 L784.000,44.765 ZM779.000,46.964 C778.666,47.115 778.333,47.265 778.000,47.417 L778.000,16.495 C778.333,16.343 778.666,16.192 779.000,16.042 L779.000,46.964 ZM774.000,49.266 C773.666,49.422 773.333,49.579 773.000,49.736 L773.000,18.814 C773.333,18.657 773.666,18.500 774.000,18.343 L774.000,49.266 ZM769.000,51.649 C768.666,51.811 768.333,51.972 768.000,52.134 L768.000,21.212 C768.333,21.050 768.666,20.888 769.000,20.727 L769.000,51.649 ZM764.000,54.096 C763.666,54.261 763.333,54.425 763.000,54.591 L763.000,23.668 C763.333,23.503 763.666,23.338 764.000,23.174 L764.000,54.096 ZM759.000,56.582 C758.666,56.749 758.333,56.916 758.000,57.083 L758.000,26.160 C758.333,25.994 758.666,25.827 759.000,25.660 L759.000,56.582 ZM754.000,59.087 C753.667,59.254 753.333,59.421 753.000,59.588 L753.000,28.666 C753.333,28.499 753.667,28.332 754.000,28.165 L754.000,59.087 ZM749.000,61.587 C748.667,61.753 748.333,61.918 748.000,62.084 L748.000,31.162 C748.333,30.996 748.667,30.831 749.000,30.665 L749.000,61.587 ZM744.000,64.060 C743.667,64.223 743.333,64.386 743.000,64.549 L743.000,33.627 C743.333,33.464 743.667,33.301 744.000,33.138 L744.000,64.060 ZM739.000,66.484 C738.667,66.643 738.333,66.802 738.000,66.961 L738.000,36.039 C738.333,35.880 738.667,35.721 739.000,35.561 L739.000,66.484 ZM734.000,68.838 C733.667,68.992 733.333,69.146 733.000,69.299 L733.000,38.377 C733.333,38.224 733.667,38.070 734.000,37.916 L734.000,68.838 ZM729.000,71.104 C728.667,71.252 728.333,71.399 728.000,71.545 L728.000,40.623 C728.333,40.477 728.667,40.330 729.000,40.182 L729.000,71.104 ZM724.000,73.263 C723.667,73.403 723.334,73.543 723.000,73.681 L723.000,42.759 C723.334,42.621 723.667,42.481 724.000,42.341 L724.000,73.263 ZM719.000,75.300 C718.667,75.432 718.334,75.562 718.000,75.692 L718.000,44.770 C718.334,44.640 718.667,44.509 719.000,44.378 L719.000,75.300 ZM714.000,77.201 C713.667,77.323 713.334,77.444 713.000,77.564 L713.000,46.642 C713.334,46.522 713.667,46.401 714.000,46.279 L714.000,77.201 ZM709.000,78.955 C708.667,79.066 708.334,79.176 708.000,79.286 L708.000,48.364 C708.334,48.254 708.667,48.144 709.000,48.033 L709.000,78.955 ZM704.000,80.550 C703.667,80.650 703.334,80.750 703.000,80.849 L703.000,49.927 C703.334,49.828 703.667,49.728 704.000,49.628 L704.000,80.550 ZM699.000,81.979 C698.667,82.068 698.334,82.156 698.000,82.244 L698.000,51.322 C698.334,51.234 698.667,51.146 699.000,51.057 L699.000,81.979 ZM688.000,53.589 C688.334,53.525 688.667,53.459 689.000,53.394 L689.000,84.316 C688.667,84.381 688.334,84.447 688.000,84.511 L688.000,53.589 ZM694.000,83.235 C693.667,83.313 693.334,83.390 693.000,83.466 L693.000,52.544 C693.334,52.468 693.667,52.391 694.000,52.313 L694.000,83.235 ZM864.000,32.306 C863.665,32.258 863.333,32.213 863.000,32.168 L863.000,1.246 C863.333,1.291 863.665,1.336 864.000,1.383 L864.000,32.306 ZM859.000,31.684 C858.666,31.648 858.332,31.612 858.000,31.579 L858.000,0.657 C858.332,0.690 858.666,0.726 859.000,0.761 L859.000,31.684 ZM848.000,0.037 C848.333,0.045 848.666,0.054 849.000,0.064 L849.000,30.987 C848.666,30.976 848.333,30.967 848.000,30.959 L848.000,0.037 ZM854.000,31.243 C853.666,31.220 853.332,31.198 853.000,31.177 L853.000,0.254 C853.332,0.275 853.666,0.297 854.000,0.320 L854.000,31.243 ZM924.000,52.423 C923.665,52.254 923.333,52.088 923.000,51.921 L923.000,20.999 C923.333,21.166 923.665,21.332 924.000,21.501 L924.000,52.423 ZM919.000,49.958 C918.666,49.798 918.332,49.638 918.000,49.480 L918.000,18.557 C918.332,18.715 918.666,18.875 919.000,19.036 L919.000,49.958 ZM914.000,47.620 C913.666,47.469 913.332,47.317 913.000,47.168 L913.000,16.245 C913.332,16.395 913.666,16.546 914.000,16.698 L914.000,47.620 ZM909.000,45.414 C908.665,45.271 908.333,45.132 908.000,44.991 L908.000,14.069 C908.333,14.209 908.665,14.349 909.000,14.492 L909.000,45.414 ZM904.000,43.348 C903.666,43.214 903.333,43.083 903.000,42.952 L903.000,12.029 C903.333,12.160 903.666,12.292 904.000,12.425 L904.000,43.348 ZM899.000,41.423 C898.666,41.299 898.332,41.176 898.000,41.054 L898.000,10.132 C898.332,10.253 898.666,10.377 899.000,10.500 L899.000,41.423 ZM894.000,39.644 C893.666,39.530 893.332,39.416 893.000,39.304 L893.000,8.382 C893.332,8.493 893.666,8.608 894.000,8.722 L894.000,39.644 ZM889.000,38.016 C888.666,37.912 888.332,37.808 888.000,37.707 L888.000,6.785 C888.332,6.886 888.666,6.990 889.000,7.094 L889.000,38.016 ZM884.000,36.544 C883.666,36.451 883.332,36.357 883.000,36.267 L883.000,5.344 C883.332,5.435 883.666,5.529 884.000,5.621 L884.000,36.544 ZM879.000,35.232 C878.666,35.150 878.332,35.068 878.000,34.988 L878.000,4.066 C878.332,4.145 878.666,4.228 879.000,4.310 L879.000,35.232 ZM868.000,2.013 C868.333,2.070 868.666,2.127 869.000,2.187 L869.000,33.109 C868.666,33.050 868.333,32.992 868.000,32.935 L868.000,2.013 ZM874.000,34.086 C873.666,34.015 873.332,33.945 873.000,33.876 L873.000,2.954 C873.332,3.022 873.666,3.093 874.000,3.164 L874.000,34.086 ZM929.000,24.130 L929.000,55.053 C928.666,54.863 928.334,54.677 928.000,54.485 L928.000,23.563 C928.334,23.754 928.666,23.941 929.000,24.130 ZM1004.000,84.401 C1003.667,84.340 1003.334,84.276 1003.000,84.212 L1003.000,53.290 C1003.334,53.354 1003.667,53.418 1004.000,53.480 L1004.000,84.401 ZM999.000,83.394 C998.667,83.322 998.334,83.248 998.000,83.173 L998.000,52.251 C998.334,52.326 998.667,52.400 999.000,52.472 L999.000,83.394 ZM994.000,82.233 C993.667,82.151 993.334,82.067 993.000,81.982 L993.000,51.060 C993.334,51.145 993.667,51.229 994.000,51.311 L994.000,82.233 ZM989.000,80.922 C988.667,80.830 988.334,80.738 988.000,80.643 L988.000,49.721 C988.334,49.816 988.667,49.908 989.000,50.000 L989.000,80.922 ZM984.000,79.467 C983.667,79.365 983.334,79.265 983.000,79.161 L983.000,48.239 C983.334,48.343 983.667,48.443 984.000,48.545 L984.000,79.467 ZM979.000,77.872 C978.667,77.761 978.334,77.650 978.000,77.537 L978.000,46.615 C978.334,46.728 978.667,46.839 979.000,46.950 L979.000,77.872 ZM974.000,76.141 C973.668,76.021 973.333,75.898 973.000,75.777 L973.000,44.855 C973.333,44.976 973.668,45.099 974.000,45.219 L974.000,76.141 ZM969.000,74.275 C968.667,74.146 968.334,74.017 968.000,73.886 L968.000,42.964 C968.334,43.095 968.667,43.224 969.000,43.353 L969.000,74.275 ZM964.000,72.281 C963.667,72.144 963.334,72.008 963.000,71.869 L963.000,40.947 C963.334,41.086 963.667,41.222 964.000,41.359 L964.000,72.281 ZM959.000,70.165 C958.667,70.020 958.333,69.872 958.000,69.725 L958.000,38.803 C958.333,38.950 958.667,39.098 959.000,39.243 L959.000,70.165 ZM954.000,67.925 C953.666,67.772 953.334,67.621 953.000,67.466 L953.000,36.544 C953.334,36.699 953.666,36.850 954.000,37.003 L954.000,67.925 ZM949.000,65.572 C948.668,65.412 948.333,65.248 948.000,65.086 L948.000,34.164 C948.333,34.326 948.668,34.490 949.000,34.650 L949.000,65.572 ZM944.000,63.102 C943.667,62.934 943.334,62.767 943.000,62.597 L943.000,31.675 C943.334,31.845 943.667,32.012 944.000,32.180 L944.000,63.102 ZM933.000,26.369 C933.334,26.553 933.667,26.737 934.000,26.919 L934.000,57.841 C933.667,57.659 933.334,57.475 933.000,57.291 L933.000,26.369 ZM939.000,60.525 C938.667,60.350 938.334,60.173 938.000,59.996 L938.000,29.074 C938.334,29.251 938.667,29.428 939.000,29.603 L939.000,60.525 ZM1029.000,86.996 C1028.667,86.989 1028.334,86.981 1028.000,86.973 L1028.000,56.051 C1028.334,56.059 1028.667,56.067 1029.000,56.074 L1029.000,86.996 ZM1024.000,86.815 C1023.667,86.798 1023.334,86.778 1023.000,86.758 L1023.000,55.836 C1023.334,55.856 1023.667,55.876 1024.000,55.893 L1024.000,86.815 ZM1019.000,86.461 C1018.667,86.432 1018.334,86.403 1018.000,86.372 L1018.000,55.450 C1018.334,55.481 1018.667,55.510 1019.000,55.539 L1019.000,86.461 ZM1008.000,54.172 C1008.334,54.225 1008.667,54.278 1009.000,54.329 L1009.000,85.251 C1008.667,85.200 1008.334,85.147 1008.000,85.094 L1008.000,54.172 ZM1014.000,85.939 C1013.667,85.898 1013.334,85.857 1013.000,85.815 L1013.000,54.893 C1013.334,54.936 1013.667,54.977 1014.000,55.017 L1014.000,85.939 ZM1054.000,85.216 C1053.667,85.270 1053.334,85.323 1053.000,85.375 L1053.000,54.453 C1053.334,54.401 1053.667,54.348 1054.000,54.295 L1054.000,85.216 ZM1049.000,85.935 C1048.667,85.977 1048.334,86.017 1048.000,86.056 L1048.000,55.134 C1048.334,55.095 1048.667,55.055 1049.000,55.013 L1049.000,85.935 ZM1044.000,86.471 C1043.667,86.500 1043.334,86.530 1043.000,86.557 L1043.000,55.635 C1043.334,55.608 1043.667,55.578 1044.000,55.549 L1044.000,86.471 ZM1033.000,56.092 C1033.334,56.088 1033.667,56.083 1034.000,56.077 L1034.000,86.999 C1033.667,87.005 1033.334,87.010 1033.000,87.014 L1033.000,56.092 ZM1039.000,86.827 C1038.667,86.844 1038.334,86.859 1038.000,86.874 L1038.000,55.953 C1038.334,55.937 1038.667,55.922 1039.000,55.905 L1039.000,86.827 ZM1214.000,30.923 C1213.666,30.925 1213.332,30.928 1213.000,30.932 L1213.000,0.010 C1213.332,0.005 1213.666,0.002 1214.000,0.000 L1214.000,30.923 ZM1209.000,31.048 C1208.666,31.063 1208.332,31.079 1208.000,31.097 L1208.000,0.174 C1208.332,0.157 1208.666,0.141 1209.000,0.126 L1209.000,31.048 ZM1204.000,31.368 C1203.666,31.396 1203.333,31.426 1203.000,31.457 L1203.000,0.534 C1203.333,0.504 1203.666,0.474 1204.000,0.446 L1204.000,31.368 ZM1199.000,31.884 C1198.666,31.925 1198.333,31.966 1198.000,32.010 L1198.000,1.087 C1198.333,1.044 1198.666,1.002 1199.000,0.961 L1199.000,31.884 ZM1194.000,1.670 L1194.000,32.593 C1193.666,32.646 1193.332,32.700 1193.000,32.757 L1193.000,1.834 C1193.332,1.778 1193.666,1.724 1194.000,1.670 ZM1189.000,33.494 C1188.666,33.561 1188.332,33.628 1188.000,33.697 L1188.000,2.774 C1188.332,2.705 1188.666,2.638 1189.000,2.572 L1189.000,33.494 ZM1184.000,34.586 C1183.666,34.665 1183.333,34.745 1183.000,34.827 L1183.000,3.904 C1183.333,3.823 1183.666,3.743 1184.000,3.664 L1184.000,34.586 ZM1179.000,35.864 C1178.666,35.956 1178.333,36.048 1178.000,36.142 L1178.000,5.219 C1178.333,5.126 1178.666,5.033 1179.000,4.942 L1179.000,35.864 ZM1174.000,37.323 C1173.666,37.426 1173.333,37.529 1173.000,37.634 L1173.000,6.712 C1173.333,6.607 1173.666,6.503 1174.000,6.400 L1174.000,37.323 ZM1169.000,38.953 C1168.666,39.067 1168.333,39.182 1168.000,39.298 L1168.000,8.376 C1168.333,8.260 1168.666,8.145 1169.000,8.031 L1169.000,38.953 ZM1164.000,40.745 C1163.666,40.870 1163.333,40.996 1163.000,41.122 L1163.000,10.200 C1163.333,10.073 1163.666,9.948 1164.000,9.823 L1164.000,40.745 ZM1159.000,42.687 C1158.666,42.822 1158.333,42.957 1158.000,43.093 L1158.000,12.170 C1158.333,12.035 1158.666,11.899 1159.000,11.765 L1159.000,42.687 ZM1154.000,44.765 C1153.666,44.908 1153.333,45.052 1153.000,45.196 L1153.000,14.274 C1153.333,14.130 1153.666,13.986 1154.000,13.843 L1154.000,44.765 ZM1149.000,46.964 C1148.666,47.115 1148.333,47.265 1148.000,47.417 L1148.000,16.495 C1148.333,16.343 1148.666,16.192 1149.000,16.042 L1149.000,46.964 ZM1144.000,49.266 C1143.666,49.422 1143.333,49.579 1143.000,49.736 L1143.000,18.814 C1143.333,18.657 1143.666,18.500 1144.000,18.343 L1144.000,49.266 ZM1139.000,51.649 C1138.666,51.811 1138.333,51.972 1138.000,52.134 L1138.000,21.212 C1138.333,21.050 1138.666,20.888 1139.000,20.727 L1139.000,51.649 ZM1134.000,54.096 C1133.666,54.261 1133.333,54.425 1133.000,54.591 L1133.000,23.668 C1133.333,23.503 1133.666,23.338 1134.000,23.174 L1134.000,54.096 ZM1129.000,56.582 C1128.666,56.749 1128.333,56.916 1128.000,57.083 L1128.000,26.160 C1128.333,25.994 1128.666,25.827 1129.000,25.660 L1129.000,56.582 ZM1124.000,59.087 C1123.667,59.254 1123.333,59.421 1123.000,59.588 L1123.000,28.666 C1123.333,28.499 1123.667,28.332 1124.000,28.165 L1124.000,59.087 ZM1119.000,61.587 C1118.667,61.753 1118.333,61.918 1118.000,62.084 L1118.000,31.162 C1118.333,30.996 1118.667,30.830 1119.000,30.665 L1119.000,61.587 ZM1114.000,64.060 C1113.667,64.223 1113.333,64.386 1113.000,64.549 L1113.000,33.627 C1113.333,33.464 1113.667,33.301 1114.000,33.138 L1114.000,64.060 ZM1109.000,66.484 C1108.667,66.643 1108.333,66.802 1108.000,66.961 L1108.000,36.039 C1108.333,35.880 1108.667,35.721 1109.000,35.561 L1109.000,66.484 ZM1104.000,68.838 C1103.667,68.992 1103.333,69.146 1103.000,69.299 L1103.000,38.377 C1103.333,38.224 1103.667,38.070 1104.000,37.916 L1104.000,68.838 ZM1099.000,71.104 C1098.667,71.252 1098.333,71.399 1098.000,71.545 L1098.000,40.623 C1098.333,40.477 1098.667,40.330 1099.000,40.182 L1099.000,71.104 ZM1094.000,73.263 C1093.667,73.403 1093.334,73.543 1093.000,73.681 L1093.000,42.759 C1093.334,42.621 1093.667,42.481 1094.000,42.341 L1094.000,73.263 ZM1089.000,75.300 C1088.667,75.432 1088.334,75.562 1088.000,75.692 L1088.000,44.770 C1088.334,44.640 1088.667,44.509 1089.000,44.378 L1089.000,75.300 ZM1084.000,77.201 C1083.667,77.323 1083.334,77.444 1083.000,77.564 L1083.000,46.642 C1083.334,46.522 1083.667,46.401 1084.000,46.279 L1084.000,77.201 ZM1079.000,78.955 C1078.667,79.066 1078.334,79.177 1078.000,79.286 L1078.000,48.364 C1078.334,48.255 1078.667,48.144 1079.000,48.033 L1079.000,78.955 ZM1074.000,80.550 C1073.667,80.650 1073.334,80.750 1073.000,80.849 L1073.000,49.927 C1073.334,49.828 1073.667,49.728 1074.000,49.628 L1074.000,80.550 ZM1069.000,81.979 C1068.667,82.068 1068.334,82.156 1068.000,82.244 L1068.000,51.322 C1068.334,51.234 1068.667,51.146 1069.000,51.057 L1069.000,81.979 ZM1058.000,53.589 C1058.334,53.525 1058.667,53.459 1059.000,53.394 L1059.000,84.316 C1058.667,84.381 1058.334,84.447 1058.000,84.511 L1058.000,53.589 ZM1064.000,83.235 C1063.667,83.313 1063.334,83.390 1063.000,83.466 L1063.000,52.544 C1063.334,52.468 1063.667,52.391 1064.000,52.313 L1064.000,83.235 ZM1234.000,32.306 C1233.665,32.258 1233.333,32.213 1233.000,32.168 L1233.000,1.246 C1233.333,1.291 1233.665,1.336 1234.000,1.383 L1234.000,32.306 ZM1229.000,31.684 C1228.666,31.648 1228.332,31.612 1228.000,31.579 L1228.000,0.657 C1228.332,0.690 1228.666,0.726 1229.000,0.761 L1229.000,31.684 ZM1218.000,0.037 C1218.333,0.045 1218.666,0.054 1219.000,0.064 L1219.000,30.987 C1218.666,30.976 1218.333,30.967 1218.000,30.959 L1218.000,0.037 ZM1224.000,31.243 C1223.666,31.220 1223.332,31.198 1223.000,31.177 L1223.000,0.254 C1223.332,0.275 1223.666,0.297 1224.000,0.320 L1224.000,31.243 ZM1294.000,52.423 C1293.665,52.254 1293.333,52.088 1293.000,51.921 L1293.000,20.999 C1293.333,21.166 1293.665,21.332 1294.000,21.501 L1294.000,52.423 ZM1289.000,49.958 C1288.666,49.798 1288.332,49.638 1288.000,49.479 L1288.000,18.557 C1288.332,18.715 1288.666,18.875 1289.000,19.036 L1289.000,49.958 ZM1284.000,47.620 C1283.666,47.469 1283.332,47.317 1283.000,47.168 L1283.000,16.245 C1283.332,16.395 1283.666,16.546 1284.000,16.698 L1284.000,47.620 ZM1279.000,45.414 C1278.665,45.271 1278.333,45.132 1278.000,44.991 L1278.000,14.069 C1278.333,14.209 1278.665,14.349 1279.000,14.492 L1279.000,45.414 ZM1274.000,43.347 C1273.666,43.214 1273.333,43.083 1273.000,42.952 L1273.000,12.029 C1273.333,12.160 1273.666,12.292 1274.000,12.425 L1274.000,43.347 ZM1269.000,41.423 C1268.666,41.299 1268.332,41.176 1268.000,41.054 L1268.000,10.132 C1268.332,10.253 1268.666,10.377 1269.000,10.500 L1269.000,41.423 ZM1264.000,39.644 C1263.666,39.530 1263.332,39.416 1263.000,39.304 L1263.000,8.382 C1263.332,8.493 1263.666,8.608 1264.000,8.721 L1264.000,39.644 ZM1259.000,38.016 C1258.666,37.912 1258.332,37.808 1258.000,37.707 L1258.000,6.785 C1258.332,6.886 1258.666,6.990 1259.000,7.094 L1259.000,38.016 ZM1254.000,36.544 C1253.666,36.451 1253.332,36.357 1253.000,36.267 C1253.000,25.896 1253.000,15.382 1253.000,5.344 C1253.332,5.435 1253.666,5.529 1254.000,5.621 L1254.000,36.544 ZM1249.000,35.232 C1248.666,35.150 1248.332,35.068 1248.000,34.988 L1248.000,4.066 C1248.332,4.145 1248.666,4.228 1249.000,4.310 L1249.000,35.232 ZM1238.000,2.013 C1238.333,2.070 1238.666,2.127 1239.000,2.187 L1239.000,33.109 C1238.666,33.050 1238.333,32.992 1238.000,32.935 L1238.000,2.013 ZM1244.000,34.086 C1243.666,34.015 1243.332,33.945 1243.000,33.876 L1243.000,2.954 C1243.332,3.022 1243.666,3.093 1244.000,3.164 L1244.000,34.086 Z"/>
</svg> 
