<svg width="96" height="96" viewBox="0 0 96 96" fill="none" xmlns="http://www.w3.org/2000/svg">
<path d="M40.6577 42.4904C42.0317 39.8369 44.8021 38.025 47.9971 38.025C53.1541 38.025 57.006 42.6794 56.139 47.6999M77.421 50.8455L77.4302 50.7825C80.2142 32.7675 66.2236 16.5 47.9956 16.5C33.0556 16.5 20.6852 27.4993 18.5402 41.8423M23.6807 59.5245L21.4232 63.774M26.8546 70.0574L27.936 65.367M33.5581 69.9089L33.7277 74.7195M40.164 72.8414L41.5726 77.4434M47.304 73.9634L49.8556 78.0449M54.4905 73.1999L58.0126 76.4819M61.2361 70.6035L65.4857 72.861M71.7676 67.4295L67.0787 66.3479M71.6206 60.6405H76.4312M82.5496 50.8455H56.5441C55.5556 50.8455 54.6421 51.2924 53.9581 52.0049C52.4551 53.5709 50.3401 54.5458 47.9971 54.5458C45.6541 54.5458 43.5406 53.5709 42.0361 52.0049C41.3521 51.2924 40.4386 50.8455 39.4501 50.8455H13.5" stroke="#6C885E" stroke-width="3" stroke-miterlimit="10" stroke-linecap="round" stroke-linejoin="round"/>
</svg>
