<svg width="97" height="96" viewBox="0 0 97 96" fill="none" xmlns="http://www.w3.org/2000/svg">
<path d="M41.3135 64.1744V55.0499M41.3135 55.0499V49.1759M41.3135 55.0499H37.985M41.3135 55.0499H57.017M41.3135 49.1759V32.5499H52.1255C56.717 32.5499 60.4385 36.2714 60.4385 40.8629C60.4385 45.4544 56.717 49.1759 52.1255 49.1759H41.3135ZM41.3135 49.1759H37.985M77.813 47.3069C77.813 63.6858 64.5353 76.9634 48.1565 76.9634C31.7777 76.9634 18.5 63.6858 18.5 47.3069C18.5 30.9281 31.7777 17.6505 48.1565 17.6505C64.5353 17.6505 77.813 30.9281 77.813 47.3069Z" stroke="#6C885E" stroke-width="3" stroke-miterlimit="10" stroke-linecap="round" stroke-linejoin="round"/>
</svg>
