<svg width="97" height="96" viewBox="0 0 97 96" fill="none" xmlns="http://www.w3.org/2000/svg">
<path d="M20.1726 48.3195C21.0531 46.4655 22.0341 44.6593 23.1111 42.9058C28.9236 33.4438 37.3986 25.7955 47.4936 21M24.8616 76.2629C24.7866 75.1619 24.7475 74.0579 24.7475 72.9509C24.7475 46.7864 45.9575 25.5764 72.122 25.5764C73.1255 25.5764 74.1216 25.6079 75.1101 25.6694M34.9985 76.2629C34.9025 75.1634 34.8546 74.0579 34.8546 72.9509C34.8546 52.3679 51.5405 35.6819 72.1235 35.6819C73.2395 35.6819 74.3435 35.7313 75.4355 35.8273M45.1581 76.2629C45.0261 75.1649 44.96 74.0594 44.96 72.9509C44.96 57.9494 57.122 45.7875 72.1235 45.7875C73.244 45.7875 74.3495 45.8548 75.4355 45.9868M55.382 76.2629C55.1705 75.1724 55.0641 74.0639 55.0641 72.9509C55.0641 63.5294 62.7005 55.8928 72.122 55.8928C73.2545 55.8928 74.363 56.0024 75.434 56.2139M66.0229 76.2629C65.7994 75.8849 65.621 75.4828 65.4905 75.0628C65.2775 74.3788 65.1695 73.6679 65.1695 72.9509C65.1695 69.1109 68.282 65.9984 72.122 65.9984C73.3205 65.9984 74.45 66.3015 75.434 66.837M70.949 76.2629H24.6591C22.1811 76.2629 20.1726 74.2544 20.1726 71.7764V25.4865C20.1726 23.0085 22.1811 21 24.6591 21H70.949C73.427 21 75.4355 23.0085 75.4355 25.4865V71.7764C75.434 74.2544 73.4255 76.2629 70.949 76.2629Z" stroke="#6C885E" stroke-width="3" stroke-miterlimit="10" stroke-linecap="round" stroke-linejoin="round"/>
</svg>
