<svg width="49" height="43" viewBox="0 0 49 43" fill="none" xmlns="http://www.w3.org/2000/svg">
<path d="M48.8906 11.5V3.73438C48.8906 2.8517 48.54 2.00518 47.9158 1.38103C47.2917 0.75689 46.4452 0.40625 45.5625 0.40625H3.40625C2.52358 0.40625 1.67705 0.75689 1.05291 1.38103C0.428765 2.00518 0.078125 2.8517 0.078125 3.73438V11.5H48.8906ZM20.0469 5.95312H22.2656C22.5598 5.95312 22.842 6.07 23.0501 6.27805C23.2581 6.4861 23.375 6.76828 23.375 7.0625C23.375 7.35672 23.2581 7.6389 23.0501 7.84695C22.842 8.055 22.5598 8.17188 22.2656 8.17188H20.0469C19.7527 8.17188 19.4705 8.055 19.2624 7.84695C19.0544 7.6389 18.9375 7.35672 18.9375 7.0625C18.9375 6.76828 19.0544 6.4861 19.2624 6.27805C19.4705 6.07 19.7527 5.95312 20.0469 5.95312ZM13.3906 5.95312H15.6094C15.9036 5.95312 16.1858 6.07 16.3938 6.27805C16.6019 6.4861 16.7188 6.76828 16.7188 7.0625C16.7188 7.35672 16.6019 7.6389 16.3938 7.84695C16.1858 8.055 15.9036 8.17188 15.6094 8.17188H13.3906C13.0964 8.17188 12.8142 8.055 12.6062 7.84695C12.3981 7.6389 12.2812 7.35672 12.2812 7.0625C12.2812 6.76828 12.3981 6.4861 12.6062 6.27805C12.8142 6.07 13.0964 5.95312 13.3906 5.95312ZM6.73438 5.95312H8.95312C9.24735 5.95312 9.52952 6.07 9.73757 6.27805C9.94562 6.4861 10.0625 6.76828 10.0625 7.0625C10.0625 7.35672 9.94562 7.6389 9.73757 7.84695C9.52952 8.055 9.24735 8.17188 8.95312 8.17188H6.73438C6.44015 8.17188 6.15798 8.055 5.94993 7.84695C5.74188 7.6389 5.625 7.35672 5.625 7.0625C5.625 6.76828 5.74188 6.4861 5.94993 6.27805C6.15798 6.07 6.44015 5.95312 6.73438 5.95312Z" fill="#D7D8F9"/>
<path d="M0.078125 13.7188V39.2344C0.078125 40.117 0.428765 40.9636 1.05291 41.5877C1.67705 42.2119 2.52358 42.5625 3.40625 42.5625H45.5625C46.4452 42.5625 47.2917 42.2119 47.9158 41.5877C48.54 40.9636 48.8906 40.117 48.8906 39.2344V13.7188H0.078125ZM17.8281 35.9062H7.84375C7.54953 35.9062 7.26735 35.7894 7.0593 35.5813C6.85125 35.3733 6.73438 35.0911 6.73438 34.7969C6.73438 34.5027 6.85125 34.2205 7.0593 34.0124C7.26735 33.8044 7.54953 33.6875 7.84375 33.6875H17.8281C18.1223 33.6875 18.4045 33.8044 18.6126 34.0124C18.8206 34.2205 18.9375 34.5027 18.9375 34.7969C18.9375 35.0911 18.8206 35.3733 18.6126 35.5813C18.4045 35.7894 18.1223 35.9062 17.8281 35.9062ZM41.125 19.2656H31.1406C30.8464 19.2656 30.5642 19.1487 30.3562 18.9407C30.1481 18.7326 30.0312 18.4505 30.0312 18.1562C30.0312 17.862 30.1481 17.5799 30.3562 17.3718C30.5642 17.1638 30.8464 17.0469 31.1406 17.0469H41.125C41.4192 17.0469 41.7014 17.1638 41.9094 17.3718C42.1175 17.5799 42.2344 17.862 42.2344 18.1562C42.2344 18.4505 42.1175 18.7326 41.9094 18.9407C41.7014 19.1487 41.4192 19.2656 41.125 19.2656Z" fill="#D7D8F9"/>
</svg>
