<svg width="55" height="55" viewBox="0 0 55 55" fill="none" xmlns="http://www.w3.org/2000/svg">
<path d="M48.9219 24.8437C48.9291 19.2363 47.0076 13.797 43.4798 9.43835C39.952 5.07967 35.0326 2.06682 29.5468 0.905229C24.061 -0.256359 18.3426 0.503994 13.351 3.05873C8.35935 5.61346 4.39814 9.80714 2.13193 14.9362C-0.134293 20.0653 -0.567646 25.8177 0.904569 31.2284C2.37678 36.6391 5.665 41.3789 10.2176 44.6527C14.7701 47.9264 20.3101 49.5349 25.908 49.2083C31.5059 48.8817 36.8212 46.6398 40.9621 42.8589L42.9157 44.8125L41.9406 45.7865C41.6315 46.0956 41.3863 46.4625 41.219 46.8663C41.0517 47.2701 40.9656 47.703 40.9656 48.1401C40.9656 48.5772 41.0517 49.01 41.219 49.4138C41.3863 49.8176 41.6315 50.1846 41.9406 50.4936L45.4595 54.0125C46.0836 54.6365 46.93 54.987 47.8125 54.987C48.695 54.987 49.5414 54.6365 50.1655 54.0125L53.6844 50.4947C53.9935 50.1857 54.2387 49.8188 54.406 49.4149C54.5733 49.0111 54.6594 48.5783 54.6594 48.1412C54.6594 47.7041 54.5733 47.2713 54.406 46.8674C54.2387 46.4636 53.9935 46.0967 53.6844 45.7876L50.1655 42.2687C49.5414 41.6448 48.695 41.2943 47.8125 41.2943C46.93 41.2943 46.0836 41.6448 45.4595 42.2687L44.4844 43.2438L42.5308 41.2902C46.6457 36.802 48.9265 30.9329 48.9219 24.8437V24.8437ZM48.5968 43.8385L52.1158 47.3563C52.3237 47.5643 52.4406 47.8465 52.4406 48.1406C52.4406 48.4348 52.3237 48.7169 52.1158 48.925L48.5968 52.4428C48.3888 52.6508 48.1067 52.7676 47.8125 52.7676C47.5183 52.7676 47.2362 52.6508 47.0282 52.4428L43.5092 48.9238C43.3013 48.7158 43.1844 48.4337 43.1844 48.1395C43.1844 47.8454 43.3013 47.5632 43.5092 47.3552L47.0282 43.8374C47.2364 43.6295 47.5186 43.5129 47.8127 43.5131C48.1069 43.5133 48.3889 43.6303 48.5968 43.8385ZM2.32814 24.8437C2.32814 20.4555 3.62941 16.1657 6.06741 12.517C8.5054 8.86832 11.9706 6.02449 16.0248 4.34517C20.0791 2.66585 24.5402 2.22647 28.8442 3.08258C33.1482 3.93868 37.1016 6.05184 40.2046 9.15482C43.3075 12.2578 45.4207 16.2112 46.2768 20.5152C47.1329 24.8191 46.6935 29.2803 45.0142 33.3345C43.3349 37.3888 40.4911 40.854 36.8423 43.292C33.1936 45.73 28.9039 47.0313 24.5156 47.0313C18.6332 47.0245 12.9937 44.6847 8.83417 40.5252C4.67467 36.3657 2.33489 30.7262 2.32814 24.8437V24.8437Z" fill="white"/>
<path d="M35.6094 13.75H13.4219C12.5392 13.75 11.6927 14.1006 11.0685 14.7248C10.4444 15.3489 10.0938 16.1955 10.0938 17.0781V32.6094C10.0938 33.492 10.4444 34.3386 11.0685 34.9627C11.6927 35.5869 12.5392 35.9375 13.4219 35.9375H35.6094C36.492 35.9375 37.3386 35.5869 37.9627 34.9627C38.5869 34.3386 38.9375 33.492 38.9375 32.6094V17.0781C38.9375 16.1955 38.5869 15.3489 37.9627 14.7248C37.3386 14.1006 36.492 13.75 35.6094 13.75V13.75ZM27.8438 15.9688H31.1719V20.4062H27.8438V15.9688ZM12.3125 32.6094V17.0781C12.3125 16.7839 12.4294 16.5017 12.6374 16.2937C12.8455 16.0856 13.1277 15.9688 13.4219 15.9688H20.0781V33.7188H13.4219C13.1277 33.7188 12.8455 33.6019 12.6374 33.3938C12.4294 33.1858 12.3125 32.9036 12.3125 32.6094ZM36.7188 32.6094C36.7188 32.9036 36.6019 33.1858 36.3938 33.3938C36.1858 33.6019 35.9036 33.7188 35.6094 33.7188H22.2969V15.9688H25.625V20.4062C25.625 20.9947 25.8588 21.559 26.2749 21.9751C26.691 22.3912 27.2553 22.625 27.8438 22.625H31.1719C31.7603 22.625 32.3247 22.3912 32.7408 21.9751C33.1569 21.559 33.3906 20.9947 33.3906 20.4062V15.9688H35.6094C35.9036 15.9688 36.1858 16.0856 36.3938 16.2937C36.6019 16.5017 36.7188 16.7839 36.7188 17.0781V32.6094Z" fill="white"/>
</svg>
