<?xml version="1.0" encoding="utf-8"?>
<!-- Generator: Adobe Illustrator 19.0.1, SVG Export Plug-In . SVG Version: 6.00 Build 0)  -->
<svg version="1.1" id="Capa_1" xmlns="http://www.w3.org/2000/svg" xmlns:xlink="http://www.w3.org/1999/xlink" x="0px" y="0px"
	 viewBox="-337 197.5 284.9 166.2" style="enable-background:new -337 197.5 284.9 166.2;" xml:space="preserve">
<g>
	<path fill="#b8b8b8" d="M-54.9,214.6l-14.3-14.3c-1.9-1.9-4.1-2.9-6.6-2.9c-2.5,0-4.7,0.9-6.6,2.9l-112.2,112.2l-112.2-112.2
		c-1.9-1.9-4.1-2.9-6.6-2.9c-2.5,0-4.7,0.9-6.6,2.9l-14.3,14.3c-1.9,1.9-2.9,4.1-2.9,6.6c0,2.5,1,4.7,2.9,6.6l133,133
		c1.9,1.9,4.1,2.9,6.6,2.9s4.7-1,6.6-2.9l133.1-133c1.9-1.9,2.8-4.1,2.8-6.6C-52.1,218.7-53,216.5-54.9,214.6z"/>
</g>
</svg>
