<?xml version="1.0" encoding="UTF-8"?><!DOCTYPE svg PUBLIC "-//W3C//DTD SVG 1.1//EN" "http://www.w3.org/Graphics/SVG/1.1/DTD/svg11.dtd"><svg xmlns="http://www.w3.org/2000/svg" xmlns:xlink="http://www.w3.org/1999/xlink"><symbol id="icon-arrow" viewBox="-174.8 58.2 280.4 444.8">
<g>
	<path d="M95,254.9L-91.1,69c-6.9-7.2-15.4-10.8-25.7-10.8s-18.8,3.6-25.7,10.8l-21.7,21.4c-7,7-10.6,15.6-10.6,25.7
		c0,9.9,3.5,18.6,10.6,26l138.8,138.5l-138.8,138.8c-7,7-10.6,15.6-10.6,25.7c0,9.9,3.5,18.6,10.6,26l21.7,21.4
		c7,7,15.6,10.6,25.7,10.6c10.1,0,18.7-3.5,25.7-10.6L95,306.6c7-7.4,10.6-16.1,10.6-26C105.6,270.5,102.1,261.9,95,254.9z"/>
</g>
</symbol><symbol id="icon-check" viewBox="-466 271 26 20">
<path d="M-465.7,282c-0.2-0.2-0.3-0.5-0.3-0.7c0-0.2,0.1-0.5,0.3-0.7l1.4-1.4c0.4-0.4,1-0.4,1.4,0l0.1,0.1l5.5,5.9
	c0.2,0.2,0.5,0.2,0.7,0l13.4-13.9h0.1l0,0c0.4-0.4,1-0.4,1.4,0l1.4,1.4c0.4,0.4,0.4,1,0,1.4l0,0l-16,16.6c-0.2,0.2-0.4,0.3-0.7,0.3
	s-0.5-0.1-0.7-0.3l-7.8-8.4C-465.5,282.3-465.7,282-465.7,282z"/>
</symbol><symbol id="icon-clock" viewBox="-717 75.1 416 512">
<g>
	<g>
		<path style="fill:#FFEBB7;" d="M-341,363.1c0,92.6-75.4,168-168,168s-168-75.4-168-168s75.4-168,168-168S-341,270.5-341,363.1z"/>
	</g>
	<g>
		<path style="fill:#FFFFFF;" d="M-381,363.1c0,70.6-57.4,128-128,128s-128-57.4-128-128s57.4-128,128-128S-381,292.5-381,363.1z"/>
	</g>
	<g>
		<g>
			<path style="fill:#5D647F;" d="M-419.2,188.5c2.9,0,5.7-1.6,7.1-4.3l16.4-31.3c2.1-3.9,0.5-8.7-3.4-10.8
				c-3.9-2.1-8.8-0.5-10.8,3.4l-16.4,31.3c-2.1,3.9-0.5,8.7,3.4,10.8C-421.7,188.2-420.4,188.5-419.2,188.5z"/>
		</g>
	</g>
	<g>
		<path style="fill:#B4B6BC;" d="M-468.3,114.8c19-36.2,63.9-50.2,100.1-31.2c17.5,9.2,30.4,24.7,36.3,43.6s4.1,39-5.1,56.5
			c-1.4,2.7-4.2,4.3-7.1,4.3c-1.3,0-2.5-0.3-3.7-0.9L-465,125.6c-1.9-1-3.3-2.7-3.9-4.7S-469.3,116.7-468.3,114.8z"/>
	</g>
	<g>
		<path style="fill:#868491;" d="M-368.3,83.6L-368.3,83.6c17.6,9.2,30.5,24.7,36.4,43.6s4.1,39-5.1,56.5c-1.4,2.7-4.2,4.3-7.1,4.3
			c-1.3,0-2.5-0.3-3.7-0.9l-58.6-30.7L-368.3,83.6z"/>
	</g>
	<g>
		<g>
			<path style="fill:#5D647F;" d="M-599.1,188.5c-2.9,0-5.7-1.6-7.1-4.3l-16.4-31.3c-2.1-3.9-0.5-8.7,3.4-10.8
				c3.9-2.1,8.8-0.5,10.8,3.4l16.4,31.3c2.1,3.9,0.5,8.7-3.4,10.8C-596.6,188.2-597.9,188.5-599.1,188.5z"/>
		</g>
	</g>
	<g>
		<g>
			<path style="fill:#5D647F;" d="M-637,587.1c-1.4,0-2.8-0.4-4.1-1.1c-3.8-2.3-5.1-7.2-2.8-11l23.7-40c2.3-3.8,7.2-5.1,11-2.8
				c3.8,2.3,5.1,7.2,2.8,11l-23.7,40C-631.6,585.7-634.3,587.1-637,587.1z"/>
		</g>
	</g>
	<g>
		<g>
			<path style="fill:#5D647F;" d="M-381,587.1c-2.7,0-5.4-1.4-6.9-3.9l-24-40.5c-2.3-3.8-1-8.7,2.8-11c3.8-2.3,8.7-1,11,2.8l24,40.5
				c2.3,3.8,1,8.7-2.8,11C-378.2,586.7-379.6,587.1-381,587.1z"/>
		</g>
	</g>
	<g>
		<path style="fill:#60DC4D;" d="M-509,155.1c-114.7,0-208,93.3-208,208s93.3,208,208,208s208-93.3,208-208S-394.3,155.1-509,155.1z
			 M-349,363.1c0,88.2-71.8,160-160,160s-160-71.8-160-160s71.8-160,160-160S-349,274.9-349,363.1z"/>
	</g>
	<g>
		<path style="fill:#00C37A;" d="M-509.2,523.1c-88.2-0.1-159.8-71.9-159.8-160s71.7-159.9,159.8-160v-48
			c-114.6,0.1-207.8,93.4-207.8,208s93.2,207.9,207.8,208V523.1z"/>
	</g>
	<g>
		<g>
			<path style="fill:#868491;" d="M-613,371.1h-32c-4.4,0-8-3.6-8-8s3.6-8,8-8h32c4.4,0,8,3.6,8,8S-608.6,371.1-613,371.1z"/>
		</g>
	</g>
	<g>
		<g>
			<path style="fill:#868491;" d="M-373,371.1h-32c-4.4,0-8-3.6-8-8s3.6-8,8-8h32c4.4,0,8,3.6,8,8S-368.6,371.1-373,371.1z"/>
		</g>
	</g>
	<g>
		<g>
			<path style="fill:#868491;" d="M-509,507.1c-4.4,0-8-3.6-8-8v-32c0-4.4,3.6-8,8-8c4.4,0,8,3.6,8,8v32
				C-501,503.5-504.6,507.1-509,507.1z"/>
		</g>
	</g>
	<g>
		<g>
			<path style="fill:#868491;" d="M-509,267.1c-4.4,0-8-3.6-8-8v-32c0-4.4,3.6-8,8-8c4.4,0,8,3.6,8,8v32
				C-501,263.5-504.6,267.1-509,267.1z"/>
		</g>
	</g>
	<g>
		<path style="fill:#B4B6BC;" d="M-549.9,114.8c-19-36.2-63.9-50.2-100.1-31.2c-17.5,9.2-30.4,24.7-36.3,43.6s-4.1,39,5.1,56.5
			c1.4,2.7,4.2,4.3,7.1,4.3c1.3,0,2.5-0.3,3.7-0.9l117.1-61.4c1.9-1,3.3-2.7,3.9-4.7C-548.8,118.9-549,116.7-549.9,114.8z"/>
	</g>
	<g>
		<g>
			<path style="fill:#5D647F;" d="M-533,371.1h-40c-4.4,0-8-3.6-8-8s3.6-8,8-8h40c4.4,0,8,3.6,8,8S-528.6,371.1-533,371.1z"/>
		</g>
	</g>
	<g>
		<g>
			<path style="fill:#5D647F;" d="M-509,355.1c-4.4,0-8-3.6-8-8v-56c0-4.4,3.6-8,8-8c4.4,0,8,3.6,8,8v56
				C-501,351.5-504.6,355.1-509,355.1z"/>
		</g>
	</g>
	<g>
		<g>
			<path style="fill:#FF4F19;" d="M-429,451.1c-2,0-4.1-0.8-5.7-2.3l-80-80c-3.1-3.1-3.1-8.2,0-11.3c3.1-3.1,8.2-3.1,11.3,0l80,80
				c3.1,3.1,3.1,8.2,0,11.3C-424.9,450.3-427,451.1-429,451.1z"/>
		</g>
	</g>
	<g>
		<path style="fill:#868491;" d="M-650,83.6L-650,83.6c-17.6,9.2-30.5,24.7-36.4,43.6c-5.9,18.9-4.1,39,5.1,56.5
			c1.4,2.7,4.2,4.3,7.1,4.3c1.3,0,2.5-0.3,3.7-0.9l58.6-30.7L-650,83.6z"/>
	</g>
	<g>
		<circle style="fill:#5C546A;" cx="-509" cy="363.1" r="24"/>
	</g>
</g>
</symbol><symbol id="icon-close" viewBox="0 0 21.9 21.9">
  <path d="M14.1,11.3c-0.2-0.2-0.2-0.5,0-0.7l7.5-7.5c0.2-0.2,0.3-0.5,0.3-0.7s-0.1-0.5-0.3-0.7l-1.4-1.4C20,0.1,19.7,0,19.5,0  c-0.3,0-0.5,0.1-0.7,0.3l-7.5,7.5c-0.2,0.2-0.5,0.2-0.7,0L3.1,0.3C2.9,0.1,2.6,0,2.4,0S1.9,0.1,1.7,0.3L0.3,1.7C0.1,1.9,0,2.2,0,2.4  s0.1,0.5,0.3,0.7l7.5,7.5c0.2,0.2,0.2,0.5,0,0.7l-7.5,7.5C0.1,19,0,19.3,0,19.5s0.1,0.5,0.3,0.7l1.4,1.4c0.2,0.2,0.5,0.3,0.7,0.3  s0.5-0.1,0.7-0.3l7.5-7.5c0.2-0.2,0.5-0.2,0.7,0l7.5,7.5c0.2,0.2,0.5,0.3,0.7,0.3s0.5-0.1,0.7-0.3l1.4-1.4c0.2-0.2,0.3-0.5,0.3-0.7  s-0.1-0.5-0.3-0.7L14.1,11.3z"/>
</symbol><symbol id="icon-mail" viewBox="-472 276 14 10">
<style type="text/css">
	.st0{fill:#030104;}
</style>
<g>
	<g>
		<path class="st0" d="M-465,283l-1.7-1.5l-5,4.2c0.2,0.2,0.4,0.3,0.7,0.3h12c0.3,0,0.5-0.1,0.7-0.3l-4.9-4.2L-465,283z"/>
		<path class="st0" d="M-458.3,276.3c-0.2-0.2-0.4-0.3-0.7-0.3h-12c-0.3,0-0.5,0.1-0.7,0.3l6.7,5.7L-458.3,276.3z"/>
		<polygon class="st0" points="-472,276.9 -472,285.2 -467.2,281.1 		"/>
		<polygon class="st0" points="-462.8,281.1 -458,285.2 -458,276.9 		"/>
	</g>
</g>
</symbol><symbol id="icon-mounting" viewBox="-446 50 512 512">
<path style="fill:#C3E678;" d="M-190,562c-141.2,0-256-114.8-256-256S-331.2,50-190,50S66,164.8,66,306S-48.8,562-190,562z"/>
<path style="fill:#A5D76E;" d="M-70.5,476.7c-141.2,0-256-114.8-256-256c0-59.1,20.3-113.4,54.1-156.8
	C-373.2,98.3-446,193.7-446,306c0,141.2,114.8,256,256,256c82.1,0,155-39,201.9-99.2C-14,471.6-41.7,476.7-70.5,476.7z"/>
<path style="fill:#FFFFFF;" d="M-243,438.4c-4.5,0-9-1.7-12.5-5.2l-105.9-105.9c-6.9-6.9-6.9-18.1,0-25s18.1-6.9,25,0l93.4,93.4
	L-61.3,214c6.9-6.9,18.1-6.9,25,0s6.9,18.1,0,25l-194.2,194.2C-233.9,436.7-238.4,438.4-243,438.4z"/>
</symbol><symbol id="icon-paint-bucket" viewBox="-730 75 390 512">
<path style="fill:#E9DFDA;" d="M-370,512v60h-330v-60l165-12L-370,512z"/>
<path style="fill:#C6BCB7;" d="M-370,512v60h-165v-72L-370,512z"/>
<path style="fill:#E9DFDA;" d="M-370,272v60l-165,16l-165-16v-60H-370z"/>
<path style="fill:#C6BCB7;" d="M-370,272v60l-165,16v-76H-370z"/>
<path style="fill:#F3EEE9;" d="M-730,557h390v30h-390V557z"/>
<path style="fill:#E9DFDA;" d="M-535,557h195v30h-195V557z"/>
<path style="fill:#F3EEE9;" d="M-700,332h330v180h-330V332z"/>
<path style="fill:#E9DFDA;" d="M-535,332h165v180h-165V332z"/>
<path style="fill:#596C76;" d="M-670,272h-30v-92c0-41.4,33.6-75,75-75h30v30h-30c-24.8,0-45,20.2-45,45V272z"/>
<path style="fill:#465A61;" d="M-370,272h-30v-92c0-24.8-20.2-45-45-45h-30v-30h30c41.4,0,75,33.6,75,75V272z"/>
<path style="fill:#F3EEE9;" d="M-640,257l14,17l-14,13h-90v-30H-640z"/>
<path style="fill:#E9DFDA;" d="M-340,257v30h-90l-17-13l17-17H-340z"/>
<path style="fill:#B9DD39;" d="M-595,452c-24.8,0-45-20.2-45-45V257h210v90c0,24.8-20.2,45-45,45s-45-20.2-45-45c0-8.3-6.7-15-15-15
	s-15,6.7-15,15v60C-550,431.8-570.2,452-595,452z"/>
<path style="fill:#90CC1C;" d="M-535,332c8.3,0,15,6.7,15,15c0,24.8,20.2,45,45,45s45-20.2,45-45v-90h-105V332z"/>
<path style="fill:#FFDA2D;" d="M-610,75v90h150V75H-610z"/>
<path style="fill:#FDBF00;" d="M-535,75h75v90h-75V75z"/>
</symbol><symbol id="icon-paint-roller" viewBox="-700 75 450 512">
<path style="fill:#596C76;" d="M-700,135h45v30h-45V135z"/>
<path style="fill:#596C76;" d="M-250,135v150h-180v75h-30V255h180v-90h-45v-30H-250z"/>
<path style="fill:#465A61;" d="M-250,135v150h-180v75h-15V255h165v-90h-45v-30H-250z"/>
<path style="fill:#FFDA2D;" d="M-348.8,345l-46.8,46.8c-2.8,2.8-4.4,6.6-4.4,10.6V420l-45,6.9c-59.9-9.1-41.3-6.3-45-6.9
	c0-8.3-6.7-15-15-15h-15v-60H-348.8z"/>
<path style="fill:#FDBF00;" d="M-348.8,345l-46.8,46.8c-2.8,2.8-4.4,6.6-4.4,10.6V420l-45,6.9V345H-348.8z"/>
<path style="fill:#F3EEE9;" d="M-340,135h-165c-24.9,0-45,20.2-45,45v45h240v-60C-310,148.4-323.4,135-340,135z"/>
<path style="fill:#E9DFDA;" d="M-310,165v60h-135v-90h105C-323.4,135-310,148.4-310,165z"/>
<path style="fill:#B9DD39;" d="M-670,75v195c0,24.8,20.2,45,45,45s45-20.2,45-45c0-8.3,6.7-15,15-15c24.8,0,45-20.2,45-45v-30
	c0-8.3,6.7-15,15-15h195V75H-670z"/>
<path style="fill:#90CC1C;" d="M-445,75h135v90h-135V75z"/>
<path style="fill:#596C76;" d="M-490,420h90v167h-90V420z"/>
<path style="fill:#465A61;" d="M-445,420h45v167h-45V420z"/>
</symbol><symbol id="icon-phone" viewBox="0 0 578.106 578.106">
<g>
	<g>
		<path d="M577.83,456.128c1.225,9.385-1.635,17.545-8.568,24.48l-81.396,80.781
			c-3.672,4.08-8.465,7.551-14.381,10.404c-5.916,2.857-11.729,4.693-17.439,5.508c-0.408,0-1.635,0.105-3.676,0.309
			c-2.037,0.203-4.689,0.307-7.953,0.307c-7.754,0-20.301-1.326-37.641-3.979s-38.555-9.182-63.645-19.584
			c-25.096-10.404-53.553-26.012-85.376-46.818c-31.823-20.805-65.688-49.367-101.592-85.68
			c-28.56-28.152-52.224-55.08-70.992-80.783c-18.768-25.705-33.864-49.471-45.288-71.299
			c-11.425-21.828-19.993-41.616-25.705-59.364S4.59,177.362,2.55,164.51s-2.856-22.95-2.448-30.294
			c0.408-7.344,0.612-11.424,0.612-12.24c0.816-5.712,2.652-11.526,5.508-17.442s6.324-10.71,10.404-14.382L98.022,8.756
			c5.712-5.712,12.24-8.568,19.584-8.568c5.304,0,9.996,1.53,14.076,4.59s7.548,6.834,10.404,11.322l65.484,124.236
			c3.672,6.528,4.692,13.668,3.06,21.42c-1.632,7.752-5.1,14.28-10.404,19.584l-29.988,29.988c-0.816,0.816-1.53,2.142-2.142,3.978
			s-0.918,3.366-0.918,4.59c1.632,8.568,5.304,18.36,11.016,29.376c4.896,9.792,12.444,21.726,22.644,35.802
			s24.684,30.293,43.452,48.653c18.36,18.77,34.68,33.354,48.96,43.76c14.277,10.4,26.215,18.053,35.803,22.949
			c9.588,4.896,16.932,7.854,22.031,8.871l7.648,1.531c0.816,0,2.145-0.307,3.979-0.918c1.836-0.613,3.162-1.326,3.979-2.143
			l34.883-35.496c7.348-6.527,15.912-9.791,25.705-9.791c6.938,0,12.443,1.223,16.523,3.672h0.611l118.115,69.768
			C571.098,441.238,576.197,447.968,577.83,456.128z"/>
	</g>
</g>
<g>
</g>
<g>
</g>
<g>
</g>
<g>
</g>
<g>
</g>
<g>
</g>
<g>
</g>
<g>
</g>
<g>
</g>
<g>
</g>
<g>
</g>
<g>
</g>
<g>
</g>
<g>
</g>
<g>
</g>
</symbol><symbol id="icon-share-arrow" viewBox="0 0 64 64"><g transform="matrix(-6.12323e-17 -1 -1 6.12323e-17 64 64)"><g>
    <path d="m63.386,16.193l.002-.002c0.002-0.003 0.004-0.006 0.006-0.01 0.172-0.195 0.298-0.43 0.399-0.678 0.032-0.076 0.053-0.148 0.076-0.225 0.058-0.191 0.094-0.389 0.106-0.596 0.006-0.076 0.018-0.148 0.016-0.226 0-0.04 0.01-0.076 0.008-0.115-0.014-0.239-0.062-0.47-0.136-0.687-0.006-0.023-0.022-0.041-0.03-0.064-0.088-0.239-0.214-0.451-0.363-0.645-0.021-0.027-0.028-0.063-0.05-0.09l-10.311-12.146c-0.789-0.93-2.084-0.948-2.894-0.037-0.808,0.91-0.823,2.402-0.032,3.334l5.558,6.549c-8.121-1.076-16.104,0.633-16.481,0.717-24.646,4.467-42.087,27.227-38.88,50.736 0.159,1.164 1.028,1.992 2.019,1.992 0.106,0 0.212-0.009 0.32-0.027 1.116-0.203 1.878-1.409 1.704-2.696-2.857-20.94 13.056-41.282 35.537-45.358 0.103-0.024 8.351-1.794 16.117-0.574l-8.577,5.093c-1.005,0.598-1.398,2.02-0.881,3.177 0.516,1.159 1.748,1.608 2.756,1.017l13.52-8.028c0.183-0.111 0.347-0.25 0.491-0.411z" data-original="#1D1D1B" class="active-path"/>
  </g></g> </symbol><symbol id="icon-shield" viewBox="-791 75 390 512">
<path style="fill:#70DA40;" d="M-416,136h-35.1c-50.7,0-98.4-20.8-134.4-56.5c-2.7-3-6.6-4.5-10.5-4.5s-7.8,1.5-10.5,4.5
	c-36,35.7-83.7,56.5-134.4,56.5H-776c-8.4,0-15,6.6-15,15v180c0,134.7,98.1,197.5,162.9,238.3c8.4,5.4,16.5,10.2,23.7,15.3
	c2.7,1.5,5.4,2.4,8.4,2.4s5.7-0.9,8.4-2.4c6.9-4.8,14.7-9.6,23.1-15C-499.4,528.8-401,466-401,331V151C-401,142.6-407.6,136-416,136
	z"/>
<path style="fill:#49A520;" d="M-401,151v180c0,135-98.4,197.8-163.5,238.6c-8.4,5.4-16.2,10.2-23.1,15c-2.7,1.5-5.4,2.4-8.4,2.4V75
	c3.9,0,7.8,1.5,10.5,4.5c36,35.7,83.7,56.5,134.4,56.5h35.1C-407.6,136-401,142.6-401,151z"/>
<path style="fill:#DEECF1;" d="M-596,196c-74.4,0-135,60.6-135,135s60.6,135,135,135s135-60.6,135-135S-521.6,196-596,196z"/>
<path style="fill:#C6E2E7;" d="M-461,331c0,74.4-60.6,135-135,135V196C-521.6,196-461,256.6-461,331z"/>
<path style="fill:#70DA40;" d="M-525.5,311.5l-75,75c-2.7,3-6.6,4.5-10.5,4.5s-7.8-1.5-10.5-4.5l-45-45c-6-5.7-6-15.3,0-21
	c5.7-6,15.3-6,21,0l34.5,34.2l15-15l49.5-49.2c5.7-6,15.3-6,21,0C-519.5,296.2-519.5,305.8-525.5,311.5z"/>
<path style="fill:#49A520;" d="M-525.5,311.5L-596,382v-42.3l49.5-49.2c5.7-6,15.3-6,21,0C-519.5,296.2-519.5,305.8-525.5,311.5z"/>
</symbol><symbol id="icon-success" viewBox="0 0 507.2 507.2">
<circle style="fill:#32BA7C;" cx="253.6" cy="253.6" r="253.6"/>
<path style="fill:#0AA06E;" d="M188.8,368l130.4,130.4c108-28.8,188-127.2,188-244.8c0-2.4,0-4.8,0-7.2L404.8,152L188.8,368z"/>
<g>
	<path style="fill:#FFFFFF;" d="M260,310.4c11.2,11.2,11.2,30.4,0,41.6l-23.2,23.2c-11.2,11.2-30.4,11.2-41.6,0L93.6,272.8
		c-11.2-11.2-11.2-30.4,0-41.6l23.2-23.2c11.2-11.2,30.4-11.2,41.6,0L260,310.4z"/>
	<path style="fill:#FFFFFF;" d="M348.8,133.6c11.2-11.2,30.4-11.2,41.6,0l23.2,23.2c11.2,11.2,11.2,30.4,0,41.6l-176,175.2
		c-11.2,11.2-30.4,11.2-41.6,0l-23.2-23.2c-11.2-11.2-11.2-30.4,0-41.6L348.8,133.6z"/>
</g>
<g>
</g>
<g>
</g>
<g>
</g>
<g>
</g>
<g>
</g>
<g>
</g>
<g>
</g>
<g>
</g>
<g>
</g>
<g>
</g>
<g>
</g>
<g>
</g>
<g>
</g>
<g>
</g>
<g>
</g>
</symbol><symbol id="icon-water" viewBox="-795 75 260 512">
<path style="fill:#58C4FE;" d="M-665,75l-26.2,52.5L-665,180c29,0,52.5-23.5,52.5-52.5S-636,75-665,75z"/>
<path style="fill:#8ADEFD;" d="M-717.5,127.5c0,29,23.5,52.5,52.5,52.5V75C-694,75-717.5,98.5-717.5,127.5z"/>
<path style="fill:#26ABFF;" d="M-554.5,388.5L-665,209.8L-755,457l90,130c71.7,0,130-58.3,130-130
	C-535,432.7-541.8,409.1-554.5,388.5L-554.5,388.5z"/>
<path style="fill:#58C4FE;" d="M-775.5,388.5C-788.2,409-795,432.7-795,457c0,71.7,58.3,130,130,130V209.8L-775.5,388.5z"/>
</symbol></svg>