<?xml version="1.0" encoding="utf-8"?>
<!-- Generator: Adobe Illustrator 19.0.1, SVG Export Plug-In . SVG Version: 6.00 Build 0)  -->
<svg version="1.1" id="Слой_1" xmlns="http://www.w3.org/2000/svg" xmlns:xlink="http://www.w3.org/1999/xlink" x="0px" y="0px"
	 viewBox="-334 247 290 68" style="enable-background:new -334 247 290 68;" xml:space="preserve">
<style type="text/css">
	.st0{clip-path:url(#SVGID_2_);}
	.st1{fill:#B2D237;}
	.st2{opacity:0.12;}
	.st3{opacity:0.12;fill:#373C49;enable-background:new    ;}
	.st4{opacity:0.8;fill:#2D3643;enable-background:new    ;}
	.st5{fill:#6FBE45;}
	.st6{opacity:0.15;}
	.st7{opacity:0.15;fill:#373C49;enable-background:new    ;}
	.st8{opacity:0.8;fill:#373C49;enable-background:new    ;}
	.st9{fill:#36A349;}
	.st10{fill:#fff;}
	.st11{fill:#fff;}
</style>
<g>
	<defs>
		<rect id="SVGID_1_" x="-334" y="247" width="289.6" height="68"/>
	</defs>
	<clipPath id="SVGID_2_">
		<use xlink:href="#SVGID_1_"  style="overflow:visible;"/>
	</clipPath>
	<g class="st0">
		<path class="st1" d="M-271.2,276l-8.4,22.4c-1,2.6-4.7,15.5-21.8,15.3l-18.2-0.1l8.2-21.6c2-5.6,5.2-16.3,20.1-16.2L-271.2,276z"
			/>
		<g class="st2">
			<path class="st3" d="M-304.9,288.5c-0.2,0-0.3-0.1-0.4-0.2c-0.1-0.1,0-0.3,0.1-0.4l0.1-0.1c0.5-0.9,0.7-1.2,2.2-1.9
				c0.4-0.2,0.8-0.3,1.1-0.3c0.5,0,0.9,0.2,0.9,0.6c0,0.2,0,0.6-0.9,1C-302.6,287.8-304.2,288.5-304.9,288.5z M-304.8,288.1
				c0.5,0,1.7-0.6,2.9-1.2c0.4-0.2,0.6-0.5,0.6-0.7c0-0.2-0.2-0.3-0.6-0.3c-0.2,0-0.5,0-0.9,0.2c-1.3,0.7-1.5,0.9-1.9,1.7
				L-304.8,288.1z"/>
			<path class="st3" d="M-308,290.2c-0.3,0-0.5-0.1-0.5-0.2c-0.1-0.2,0-0.4,0.2-0.7c0.9-1.3,2.8-3.1,2.9-3.1c1.4-1,3.6-2.2,4.8-2.2
				c0.8,0,1.7,0.3,1.8,0.9c0.1,0.2,0,0.6-0.5,1c-0.1,0.1-0.3,0.3-0.5,0.4c-1.1,1-2.8,2.6-4.5,2.9c-0.4,0.1-0.9,0.3-1.4,0.4
				C-306.5,289.9-307.4,290.2-308,290.2z M-300.6,284.4c-1.1,0-3.2,1-4.4,2.1c0,0-2,1.7-2.8,3c-0.1,0.2-0.2,0.3-0.1,0.3
				c0,0,0.1,0.1,0.2,0.1c0.5,0,1.4-0.3,2.3-0.6c0.5-0.2,0.9-0.3,1.4-0.4c1.6-0.4,3.2-1.8,4.4-2.8c0.2-0.1,0.3-0.3,0.5-0.4
				c0.3-0.2,0.4-0.5,0.3-0.7C-299.2,284.7-299.9,284.4-300.6,284.4z"/>
			<path class="st3" d="M-310.6,292.8c-0.3,0-0.6-0.1-0.7-0.3c-0.2-0.3-0.1-0.7,0.2-1.3v-0.1c1.4-2.6,2-3.8,5-5.8
				c3.7-2.3,5.5-3,7.8-3.1c0.9,0,1.5,0.3,1.6,0.9c0.3,1.2-1,3.1-3.3,4.8c-3.5,2.6-4.2,2.8-5.9,3.2c-0.2,0-0.4,0.1-0.6,0.1
				c-0.5,0.1-1,0.4-1.7,0.6C-308.9,292.4-310,292.8-310.6,292.8z M-298.1,282.7L-298.1,282.7c-2.4,0.1-4.2,0.9-7.8,3
				c-2.9,1.9-3.5,2.8-4.8,5.6v0.1c-0.3,0.6-0.3,0.9-0.2,0.9c0.1,0.1,0.2,0.1,0.4,0.1c0.6,0,1.6-0.4,2.6-0.8c0.7-0.2,1.2-0.5,1.8-0.6
				c0.2-0.1,0.4-0.1,0.6-0.1c1.6-0.4,2.2-0.6,5.6-3.1c2.6-2,3.3-3.6,3.1-4.4C-297,282.8-297.4,282.7-298.1,282.7z"/>
			<path class="st3" d="M-314.6,296.4c-0.2,0-0.4-0.1-0.5-0.2c-0.2-0.3-0.1-0.8,0.2-1.5c1.2-3.3,4.2-6.7,6.4-8.7
				c2.1-1.8,4.6-3.6,8.7-4.9c2-0.6,4.2-1.2,5.6-1.2c0.8,0,1.3,0.2,1.5,0.6c0.3,0.5,0.1,1.1-0.6,2.2c-2.7,4.3-7.7,9.4-13.2,10.9
				c-2.2,0.6-4.1,1.4-5.4,2.1C-313.3,296-314.1,296.4-314.6,296.4z M-294.4,280.2c-1.3,0-3.5,0.6-5.4,1.2c-4,1.2-6.4,3-8.5,4.8
				c-2.3,2-5.1,5.3-6.3,8.5c-0.3,0.7-0.3,1.1-0.2,1.2c0,0,0.1,0.1,0.2,0.1c0.4,0,1.3-0.4,2.4-0.9c1.4-0.7,3.3-1.5,5.5-2.1
				c5.5-1.5,10.4-6.6,13-10.6c0.6-0.9,0.8-1.4,0.6-1.8C-293.3,280.3-293.7,280.2-294.4,280.2z"/>
			<path class="st3" d="M-323.6,304.5L-323.6,304.5c-0.2-0.1-0.2-0.2-0.1-0.3c3-2.9,6.4-5.2,10.2-6.7c2-0.9,3.7-1.4,5.1-2
				c2.8-1,4.8-1.8,7-3.1c3.4-2.1,7.5-5.7,9.1-8.9c0.5-0.9,0.9-1.7,1.1-2.4c0.8-1.7,1.2-2.6,2.5-3.8c0.7-0.6,1.6-1.6,2.6-2.7
				c0.9-1,2-2.1,2.8-2.9c0.1-0.1,0.2-0.1,0.3,0c0.1,0.1,0.1,0.2,0,0.3c-0.9,0.9-1.9,1.9-2.8,2.9c-1,1.1-2.1,2.1-2.7,2.7
				c-1.1,1-1.6,2-2.4,3.6c-0.3,0.7-0.7,1.4-1.1,2.4c-1.8,3.5-6.1,7.1-9.3,9.1c-2.2,1.4-4.3,2.2-7.1,3.1c-1.4,0.6-3.1,1.1-5.1,2
				C-317.2,299.3-320.6,301.5-323.6,304.5C-323.5,304.5-323.6,304.5-323.6,304.5z"/>
			<path class="st3" d="M-323,302.2L-323,302.2c-0.2-0.1-0.2-0.2-0.1-0.3c0.4-0.4,0.8-0.8,1.1-1c1.4-1.3,2.3-2.1,3.5-3.4
				c1.2-1.3,2.4-3.2,3.3-5.1c0.8-1.4,1.5-2.7,2.3-3.8c2-2.6,4.7-5.7,8.5-7.7c2-1,3.8-1.3,5.5-1.6c1.7-0.3,3.3-0.6,5.1-1.5
				c2.4-1.2,4.7-3.3,7-5.3c0.3-0.3,0.6-0.6,0.9-0.8c0.1-0.1,0.2-0.1,0.3,0c0.1,0.1,0.1,0.2,0,0.3c-0.3,0.3-0.6,0.6-0.9,0.8
				c-2.2,1.9-4.6,4.2-7.1,5.4c-1.9,0.9-3.6,1.2-5.3,1.5c-1.7,0.3-3.4,0.6-5.3,1.5c-3.7,1.9-6.4,5-8.3,7.5c-0.8,0.9-1.5,2.3-2.3,3.7
				c-1,1.9-2.2,3.9-3.4,5.2c-1.2,1.3-2.1,2.1-3.5,3.4c-0.4,0.3-0.7,0.7-1.1,1C-322.9,302.1-322.9,302.2-323,302.2z"/>
			<path class="st3" d="M-324.5,308.3L-324.5,308.3c-0.2-0.1-0.2-0.2-0.1-0.3c2.6-2.7,6.3-6.3,9.4-7.8c1.6-0.8,4.1-1.7,6.8-2.6
				c4.6-1.7,9.9-3.6,11.9-5.4c3.6-3.2,6.9-10,8.1-12.8c1.3-2.9,4.6-5.4,7.7-7.5c0.1-0.1,0.2-0.1,0.3,0c0.1,0.1,0,0.2-0.1,0.3
				c-3,2-6.2,4.4-7.5,7.3c-1.6,3.5-4.7,9.7-8.3,13c-2.1,1.9-7.5,3.8-12.1,5.5c-2.6,0.9-5.2,1.9-6.7,2.6
				C-318.2,302-321.9,305.5-324.5,308.3C-324.4,308.3-324.4,308.3-324.5,308.3z"/>
			<path class="st3" d="M-325.3,311.4L-325.3,311.4c-0.2-0.1-0.2-0.2-0.1-0.3c4.1-4.1,8-7.8,10.8-9.3c1.4-0.8,3.7-1.5,6.3-2.5
				c4.4-1.5,9.5-3.2,12-5.5c3.9-3.6,6.5-8.6,9.1-13.9c1.2-2.5,4-5.2,8.6-8.1c0.1-0.1,0.2-0.1,0.3,0c0.1,0.1,0,0.2-0.1,0.3
				c-4.4,2.9-7.3,5.5-8.4,7.9c-2.6,5.3-5.2,10.4-9.2,14.1c-2.6,2.4-7.7,4.1-12.2,5.6c-2.5,0.9-4.8,1.6-6.2,2.4
				c-2.7,1.4-6.6,5.2-10.7,9.2C-325.2,311.4-325.2,311.4-325.3,311.4z"/>
			<path class="st3" d="M-322.3,299.1L-322.3,299.1c-0.2-0.1-0.2-0.2-0.1-0.3l0.3-0.3c2.6-2.5,3.4-3.1,5.1-6.1
				c0.2-0.4,0.5-0.8,0.7-1.1c2.1-3.7,3.5-6.1,7.5-9.5c4.4-3.7,9.6-4.2,11.8-4.4c1.7-0.2,6.7-4.2,8.5-5.6c0.1-0.1,0.2-0.1,0.3,0
				c0.1,0.1,0,0.2-0.1,0.3c-3.2,2.6-7.2,5.6-8.9,5.8c-2.2,0.2-7.2,0.7-11.5,4.3c-4,3.2-5.3,5.7-7.4,9.4c-0.2,0.4-0.4,0.8-0.7,1.1
				c-1.8,3.1-2.6,3.9-5.2,6.3h-0.1C-322.1,299.1-322.2,299.1-322.3,299.1z"/>
			<path class="st3" d="M-326.1,314.5L-326.1,314.5c-0.2-0.1-0.2-0.2-0.1-0.3c1.1-1.1,2.3-2.3,3.4-3.3c3-3,6-6,8.9-7.6
				c2-1,4.4-1.8,7.1-2.6c3.7-1.1,7.6-2.3,9.9-4.4c0.4-0.3,0.7-0.7,1-0.9c3.4-3.2,5.7-5.3,7.7-10.1c1.7-4.1,7.5-9.7,12.3-13.3
				c0.1-0.1,0.2-0.1,0.3,0c0.1,0.1,0,0.2-0.1,0.3c-4.7,3.5-10.5,9.2-12.1,13.1c-2,4.8-4.4,7-7.8,10.2c-0.3,0.3-0.7,0.7-1,0.9
				c-2.5,2.3-6.3,3.5-10.1,4.6c-2.6,0.8-5,1.5-6.9,2.6c-2.8,1.5-5.8,4.4-8.8,7.5c-1.1,1.1-2.3,2.3-3.4,3.3
				C-325.9,314.4-326,314.5-326.1,314.5z"/>
			<path class="st3" d="M-305,314.8C-305.1,314.8-305.1,314.8-305,314.8c-0.2-0.2-0.1-0.3,0-0.4c1.6-1.2,7.8-5.4,9.1-4.9
				c0.1,0,0.3,0.2,0.3,0.5c-0.2,1.3-1.2,3.2-2.6,4.6c-0.1,0.1-0.2,0.1-0.3,0.1c-0.1-0.1-0.1-0.2,0-0.3c1.2-1.3,2.2-3.2,2.5-4.4
				c0-0.1,0-0.2-0.1-0.2c-0.8-0.3-5.8,2.7-8.6,4.8C-304.9,314.8-304.9,314.8-305,314.8z"/>
			<path class="st3" d="M-300.3,314.8c-0.2-0.1-0.2-0.2-0.1-0.3c0.5-0.7,0.6-1,0.5-1.1s-0.3-0.1-0.4,0c-0.7,0.2-1.2,0.5-2.6,1.3
				c-0.1,0.1-0.2,0.1-0.3,0c-0.1-0.1,0-0.2,0.1-0.3c1.3-0.9,1.9-1.2,2.7-1.4c0.6-0.1,0.8,0,0.9,0.2c0.2,0.3,0,0.9-0.6,1.5
				C-300.1,314.8-300.2,314.9-300.3,314.8z"/>
			<path class="st3" d="M-306.6,314.8C-306.7,314.8-306.7,314.8-306.6,314.8c-0.2-0.2-0.1-0.3,0-0.4l0.5-0.4
				c3.3-2.6,6.1-4.7,8.7-5.6c0.7-0.2,1.4-0.5,2.1-0.7c2.9-0.9,5.9-1.7,7.8-4.4c0.9-1.4,2.5-4.1,4.1-7c2.3-4.2,4.8-8.9,6.9-11.4
				c1.6-2,4.1-4.7,6.3-7.2c0.1-0.1,0.2-0.1,0.3-0.1c0.1,0.1,0.1,0.2,0,0.3c-2.2,2.5-4.7,5.1-6.3,7.2c-2,2.5-4.5,7.2-6.8,11.3
				c-1.6,2.8-3,5.6-4.1,7c-2,2.8-5.1,3.7-8,4.6c-0.8,0.2-1.4,0.4-2.1,0.7c-2.6,0.9-5.3,3-8.5,5.5l-0.5,0.4
				C-306.5,314.8-306.5,314.8-306.6,314.8z"/>
			<path class="st3" d="M-309.4,314.7C-309.5,314.7-309.5,314.7-309.4,314.7c-0.2-0.2-0.1-0.3,0-0.4c4.9-3.8,8-5.9,9.7-6.5
				c0.9-0.4,2-0.7,3.1-0.9c1.8-0.4,3.6-0.8,5.1-1.9c2.6-1.8,5.6-6.7,7.3-10.5c1.7-3.9,7.7-13.4,11.8-16.9c0.9-0.8,1.8-1.6,2.7-2.4
				c0.1-0.1,0.2-0.1,0.3,0c0.1,0.1,0.1,0.2,0,0.3c-0.9,0.9-1.8,1.6-2.7,2.5c-4.1,3.5-9.9,13-11.6,16.7c-1.7,3.9-4.8,8.9-7.5,10.7
				c-1.6,1.1-3.5,1.5-5.3,2c-1.1,0.3-2.1,0.5-3,0.9c-1.6,0.7-4.8,2.8-9.6,6.4C-309.2,314.7-309.3,314.7-309.4,314.7z"/>
			<path class="st3" d="M-323.3,314.7L-323.3,314.7c-0.2-0.1-0.2-0.2-0.1-0.3c3-3.1,8.4-8.5,11.3-9.6c0.9-0.4,2.1-0.8,3.2-1.2
				c3.1-1.1,7-2.6,10.9-4.8c5.1-2.9,7.2-6.1,9.3-9.4l0.3-0.5c0.5-0.8,0.9-1.6,1.5-2.5c1.6-2.6,3.3-5.4,5.5-7.6c1.6-1.7,4.9-4.5,8-7
				c0.1-0.1,0.2-0.1,0.3,0c0.1,0.1,0,0.2-0.1,0.3c-3,2.4-6.3,5.2-7.9,6.9c-2.2,2.2-3.8,4.9-5.4,7.5c-0.5,0.9-1,1.6-1.5,2.5l-0.3,0.5
				c-2,3-4.2,6.5-9.5,9.6c-4,2.3-7.8,3.7-11,4.8c-1.1,0.5-2.3,0.9-3.2,1.2c-2.8,1.1-8.7,7.1-11.1,9.6
				C-323.2,314.6-323.2,314.7-323.3,314.7z"/>
			<path class="st3" d="M-312.8,314.8C-312.9,314.8-312.9,314.8-312.8,314.8c-0.2-0.2-0.1-0.3,0-0.4l0.2-0.2c4.3-3,9.6-6.8,11.5-7.5
				c1.1-0.4,2.6-0.7,4-1c1.8-0.4,3.6-0.9,4.4-1.2c1.2-0.7,5.4-5.6,6.4-8.2c1-2.5,2.6-6,4.9-9.3c2.2-3.1,6.2-8.7,8.2-10.7
				c0.8-0.8,2.2-2,4.2-3.8c0.1-0.1,0.2-0.1,0.3,0c0.1,0.1,0.1,0.2,0,0.3c-2,1.7-3.4,2.9-4.2,3.7c-2,2-6.1,7.6-8.1,10.6
				c-2.2,3.2-3.9,6.7-4.8,9.2c-1,2.6-5.2,7.6-6.7,8.4c-0.9,0.5-2.6,0.9-4.5,1.3c-1.4,0.3-2.8,0.7-4,1c-1.8,0.6-7.1,4.4-11.3,7.4
				l-0.2,0.2C-312.7,314.8-312.7,314.8-312.8,314.8z"/>
			<path class="st3" d="M-320.3,314.7L-320.3,314.7c-0.2-0.1-0.2-0.2-0.1-0.3c4.3-4.3,8.6-7.3,12.7-8.9l1-0.4
				c3.9-1.5,7.5-2.9,10.8-5.1c3.2-2.2,6.2-5.9,9-11.2c0.3-0.6,0.6-1.1,0.9-1.6c1.8-3.4,2.6-4.8,5-7.3c1.7-1.7,5.9-5.5,9.2-8
				c0.1-0.1,0.2-0.1,0.3,0c0.1,0.1,0,0.2-0.1,0.3c-3.3,2.6-7.5,6.3-9.2,8c-2.5,2.4-3.1,3.7-4.9,7.2c-0.3,0.5-0.6,1-0.9,1.6
				c-2.8,5.3-5.9,9.1-9.2,11.3c-3.3,2.3-7,3.7-10.9,5.2l-1,0.4C-310.4,307.1-314.8,309.5-320.3,314.7
				C-320.2,314.7-320.2,314.7-320.3,314.7z"/>
			<path class="st3" d="M-316.5,314.7L-316.5,314.7c-0.2-0.1-0.2-0.2-0.1-0.3c1.8-1.7,5.4-4.7,8.9-6.5c4.4-2.2,6.5-2.9,10.5-4.4
				c3.7-1.3,5.8-3.5,8.3-7.3c1.5-2.2,2.8-4.8,4.2-7.3c0.8-1.4,1.5-2.8,2.2-4.1c1.9-3.2,6.7-8.3,12.5-13.1c0.1-0.1,0.2-0.1,0.3,0
				c0.1,0.1,0,0.2-0.1,0.3c-6.4,5.3-10.9,10.3-12.3,13c-0.8,1.2-1.4,2.6-2.2,4.1c-1.4,2.5-2.7,5.1-4.3,7.3c-2.2,3.2-4.3,6-8.6,7.5
				c-4,1.3-6.1,2.1-10.4,4.4c-2.6,1.2-5.7,3.6-8.7,6.4C-316.3,314.7-316.4,314.7-316.5,314.7z"/>
			<path class="st3" d="M-296.4,314.9C-296.5,314.9-296.5,314.9-296.4,314.9c-0.2-0.1-0.2-0.2-0.1-0.3c0.5-0.7,0.9-1.3,1.2-2
				c0.6-1,1-2,2.1-2.9c1-0.9,2.2-1.5,3.2-2c1.4-0.7,2.7-1.3,3.7-2.7c0.7-0.9,1.6-2.6,2.7-4.7c1.9-3.5,4.4-7.8,6.5-10.7
				c1.1-1.4,2.1-2.8,3.1-4.3c0.9-1.2,1.7-2.5,2.6-3.6c0.1-0.1,0.2-0.1,0.3-0.1c0.1,0,0.1,0.2,0,0.3c-0.9,1.1-1.7,2.3-2.6,3.6
				c-0.9,1.4-2,2.8-3.1,4.3c-2.3,2.8-4.6,7.2-6.5,10.7c-1.1,2.1-2.1,3.8-2.7,4.7c-1,1.5-2.5,2.2-3.9,2.9c-1,0.6-2.2,1-3.1,1.9
				c-0.9,0.9-1.4,1.8-2,2.8c-0.4,0.7-0.7,1.3-1.2,2.1C-296.3,314.8-296.4,314.9-296.4,314.9z"/>
			<path class="st3" d="M-294.9,314.9C-295,314.9-295,314.9-294.9,314.9c-0.2,0-0.2-0.2-0.1-0.3c0.2-0.4,0.4-0.8,0.6-1
				c0.7-1.3,1.1-2.2,3-3.2c1-0.6,2.1-0.9,2.9-1.3c1.7-0.7,3-1.1,4.1-2.8c0.5-0.8,1.1-2.1,1.9-3.6c2.1-4.1,5.1-10.3,8-13.2
				c0.7-0.7,1.3-1.3,1.9-2.1c0.1-0.1,0.2-0.1,0.3-0.1c0.1,0.1,0.1,0.2,0,0.3c-0.7,0.8-1.3,1.4-2,2.2c-2.8,2.8-6,9-7.9,13.1
				c-0.8,1.6-1.4,2.8-1.9,3.6c-1.1,1.8-2.6,2.4-4.4,3c-0.9,0.3-1.8,0.7-2.8,1.2c-1.7,0.9-2.1,1.7-2.7,2.9c-0.2,0.3-0.4,0.7-0.6,1
				C-294.7,314.8-294.8,314.9-294.9,314.9z"/>
			<path class="st3" d="M-292.7,314.9c-0.2,0-0.2-0.2-0.1-0.3c1.1-2.1,2.2-2.9,4.4-4c3-1.4,5-3,6.1-4.8c0.3-0.6,0.8-1.5,1.3-2.7
				c1.4-3,3.5-7.8,5.7-10.4c0.7-0.8,1.3-1.6,2-2.4c0.1-0.1,0.2-0.1,0.3-0.1c0.1,0.1,0.1,0.2,0,0.3c-0.7,0.8-1.3,1.5-2,2.4
				c-2.2,2.6-4.3,7.3-5.6,10.3c-0.6,1.2-0.9,2.2-1.3,2.7c-1,1.9-3.1,3.6-6.2,5c-2.1,0.9-3,1.8-4.1,3.8
				C-292.5,314.9-292.6,314.9-292.7,314.9z"/>
			<path class="st3" d="M-290.7,314.9c-0.2-0.1-0.2-0.2-0.1-0.3c0.9-1,1.9-1.6,3.1-2.3c2.4-1.1,5.1-2.6,6.6-5.4
				c0.6-1.1,1.2-2.6,1.9-4.3c1-2.6,2.3-5.6,3.7-7.4c0.4-0.5,0.8-0.9,1.1-1.3c0.1-0.1,0.2-0.1,0.3-0.1c0.1,0.1,0.1,0.2,0,0.3
				c-0.4,0.5-0.9,0.9-1.1,1.3c-1.4,1.7-2.6,4.6-3.6,7.3c-0.7,1.6-1.2,3.2-1.9,4.4c-1.6,2.9-4.4,4.5-6.8,5.7
				c-1.4,0.7-2.3,1.2-2.9,2.1C-290.5,314.9-290.6,314.9-290.7,314.9z"/>
			<path class="st3" d="M-287.8,314.9C-287.9,314.9-287.9,314.9-287.8,314.9c-0.2-0.2-0.1-0.3,0-0.4c0.4-0.3,0.9-0.7,1.6-1l0.7-0.4
				c3.7-2.3,5.2-3.2,6.1-6c0.5-1.6,2.2-5.2,3.9-8.2c0.1-0.1,0.2-0.2,0.3-0.1c0.1,0,0.1,0.1,0.1,0.2c-1.6,2.9-3.3,6.5-3.9,8.1
				c-0.9,2.9-2.6,4-6.3,6.2l-0.7,0.4C-286.8,314.1-287.4,314.5-287.8,314.9C-287.8,314.9-287.8,314.9-287.8,314.9z"/>
			<path class="st3" d="M-284.5,315L-284.5,315c-0.2-0.1-0.2-0.2-0.1-0.3c0.8-0.7,1.5-1.2,2.1-1.5c1.5-0.7,3.7-2.8,4.3-4.4
				c0-0.1,0.1-0.3,0.2-0.5c0-0.1,0.1-0.2,0.3-0.2c0.1,0,0.2,0.1,0.1,0.2c-0.1,0.2-0.1,0.4-0.2,0.5c-0.7,1.8-2.9,4.1-4.5,4.8
				C-283,313.9-283.7,314.3-284.5,315C-284.3,315-284.4,315-284.5,315z"/>
			<path class="st3" d="M-281.8,315L-281.8,315c-0.2-0.1-0.2-0.2-0.1-0.3c1.2-1.2,2.2-1.8,2.8-2.2c0.1-0.1,0.2,0,0.3,0.1
				c0,0.1,0,0.2-0.1,0.3c-0.7,0.4-1.5,0.9-2.7,2.1C-281.6,315-281.7,315-281.8,315z"/>
			<path class="st3" d="M-321.2,295.4L-321.2,295.4c-0.2-0.1-0.2-0.2-0.1-0.3c2.3-2.6,3.5-4.6,4.9-6.8c0.4-0.6,0.8-1.1,1.1-1.8
				c2.6-4.1,6.6-8.5,9.7-9.3c1-0.3,2.3-0.4,3.5-0.6c2.4-0.3,4.8-0.5,6.8-1.7c1.6-1,3.5-2.3,4.9-3.3c0.1-0.1,0.2-0.1,0.3,0
				c0.1,0.1,0,0.2-0.1,0.3c-1.4,1-3.3,2.3-4.9,3.3c-2.1,1.3-4.5,1.6-7,1.8c-1.2,0.1-2.5,0.3-3.5,0.5c-2.9,0.8-6.8,5.1-9.4,9.1
				c-0.4,0.6-0.8,1.2-1.1,1.8c-1.3,2.2-2.6,4.4-4.9,6.9C-321.1,295.4-321.1,295.4-321.2,295.4z"/>
			<path class="st3" d="M-320.2,291C-320.2,291-320.3,291-320.2,291c-0.2-0.1-0.2-0.2-0.1-0.3c1.8-2.3,3.3-4.4,4.5-6.4
				c0.5-0.8,1-1.5,1.4-2.1l0.1-0.2c2.4-3.3,4.2-6,7.5-6.3l0.8-0.1c3.1-0.4,7.3-0.9,9.6-2.2c0.7-0.4,1.5-0.9,2.5-1.7
				c0.1-0.1,0.2-0.1,0.3,0c0.1,0.1,0,0.2-0.1,0.3c-1,0.8-1.8,1.3-2.6,1.8c-2.3,1.4-6.6,1.9-9.7,2.3l-0.8,0.1c-3,0.4-4.7,2.7-7.1,6.1
				l-0.1,0.2c-0.5,0.7-0.9,1.3-1.4,2.1C-316.8,286.4-318.3,288.7-320.2,291C-320,291-320.1,291-320.2,291z"/>
			<path class="st3" d="M-319.2,286.8c-0.2-0.1-0.2-0.2-0.1-0.3c1.5-2.1,2.9-4.3,4.3-6.1c0.8-1.1,1.4-2.2,2-2.9
				c2.3-3.2,5.7-3.6,8.8-3.6c1.5,0,3.8-0.7,6.1-1.9c0.1-0.1,0.2,0,0.3,0.1c0,0.1,0,0.2-0.1,0.3c-2.4,1.1-4.7,1.9-6.3,1.9
				c-3,0.1-6.2,0.4-8.3,3.4c-0.6,0.8-1.2,1.8-2,2.9c-1.2,1.8-2.7,4.2-4.3,6.2C-319,286.7-319.1,286.8-319.2,286.8z"/>
			<path class="st3" d="M-317.4,280.3C-317.4,280.3-317.4,280.3-317.4,280.3c-0.2-0.1-0.2-0.2-0.1-0.3c1-1.3,2-2.7,2.6-4.1
				c1.6-3.1,4-3.4,7.3-3.6c1,0,2.3-0.3,3.7-0.7c0.1,0,0.2,0,0.2,0.1c0,0.1-0.1,0.2-0.2,0.2c-1.4,0.4-2.7,0.7-3.9,0.7
				c-3.7,0.1-5.5,0.7-6.8,3.3c-0.8,1.4-1.6,2.8-2.7,4.2C-317.3,280.3-317.4,280.3-317.4,280.3z"/>
			<path class="st3" d="M-316.6,277.2C-316.7,277.2-316.7,277.2-316.6,277.2c-0.2-0.1-0.2-0.2-0.1-0.3c0.5-0.7,0.9-1.4,1.3-2.3
				c0.8-1.4,1.8-2.4,3-3c0.1-0.1,0.2,0,0.3,0.1c0,0.1,0,0.2-0.1,0.3c-1.2,0.6-2.1,1.5-2.8,2.7c-0.5,0.9-0.9,1.7-1.4,2.4
				C-316.5,277.2-316.5,277.2-316.6,277.2z"/>
		</g>
		<path class="st4" d="M-271,276.1l-7.8,15.9c-0.9,1.9-4.3,11-20.1,10.9l-16.7-0.1l7.6-15.3c1.8-4,4.7-11.5,18.4-11.4L-271,276.1z"
			/>
		<path class="st5" d="M-275.2,263.7l-8.4,22.4c-1,2.6-4.6,15.5-21.8,15.3l-18.2-0.1l8.2-21.6c2-5.6,5.2-16.3,20.1-16.2
			L-275.2,263.7z"/>
		<g class="st6">
			<path class="st7" d="M-308.4,276.2c-0.2,0-0.3-0.1-0.4-0.2c-0.1-0.1,0-0.3,0.1-0.4l0.1-0.1c0.5-0.9,0.7-1.2,2.2-1.9
				c0.4-0.2,0.8-0.3,1.1-0.3c0.5,0,0.9,0.2,0.9,0.6c0,0.2,0,0.6-0.9,1C-306.1,275.5-307.7,276.2-308.4,276.2z M-308.3,275.8
				c0.5,0,1.7-0.6,2.9-1.2c0.4-0.2,0.6-0.5,0.6-0.7c0-0.2-0.2-0.3-0.6-0.3c-0.2,0-0.5,0-0.9,0.2c-1.3,0.7-1.5,0.9-1.9,1.7
				L-308.3,275.8z"/>
			<path class="st7" d="M-311.5,277.9c-0.3,0-0.5-0.1-0.5-0.2c-0.1-0.2,0-0.4,0.2-0.7c0.9-1.3,2.8-3.1,2.9-3.1
				c1.4-1,3.6-2.2,4.8-2.2c0.8,0,1.7,0.3,1.8,0.9c0.1,0.2,0,0.6-0.5,1c-0.1,0.1-0.3,0.3-0.5,0.4c-1.1,1-2.8,2.6-4.5,2.9
				c-0.4,0.1-0.9,0.3-1.4,0.4C-310,277.6-310.9,277.9-311.5,277.9z M-304.1,272.1c-1.1,0-3.2,1-4.4,2.1c0,0-2,1.7-2.8,3
				c-0.1,0.2-0.2,0.3-0.1,0.3c0,0,0.1,0.1,0.2,0.1c0.5,0,1.4-0.3,2.3-0.6c0.5-0.2,0.9-0.3,1.4-0.4c1.6-0.4,3.2-1.8,4.4-2.8
				c0.2-0.1,0.3-0.3,0.5-0.4c0.3-0.2,0.4-0.5,0.3-0.7C-302.7,272.4-303.4,272.1-304.1,272.1z"/>
			<path class="st7" d="M-314.1,280.5c-0.3,0-0.6-0.1-0.7-0.3c-0.2-0.3-0.1-0.7,0.2-1.3v-0.1c1.4-2.6,2-3.8,5-5.8
				c3.7-2.3,5.5-3,7.8-3.1c0.9,0,1.5,0.3,1.6,0.9c0.3,1.2-1,3.1-3.3,4.8c-3.5,2.6-4.2,2.8-5.9,3.2c-0.2,0-0.4,0.1-0.6,0.1
				c-0.5,0.1-1,0.4-1.7,0.6C-312.4,280.1-313.5,280.5-314.1,280.5z M-301.6,270.4L-301.6,270.4c-2.4,0.1-4.2,0.9-7.8,3
				c-2.9,1.9-3.5,2.8-4.8,5.6v0.1c-0.3,0.6-0.3,0.9-0.2,0.9c0.1,0.1,0.2,0.1,0.4,0.1c0.6,0,1.6-0.4,2.6-0.8c0.7-0.2,1.2-0.5,1.8-0.6
				c0.2-0.1,0.4-0.1,0.6-0.1c1.6-0.4,2.2-0.6,5.6-3.1c2.6-2,3.3-3.6,3.1-4.4C-300.5,270.5-300.9,270.4-301.6,270.4z"/>
			<path class="st7" d="M-318.1,284.1c-0.2,0-0.4-0.1-0.5-0.2c-0.2-0.3-0.1-0.8,0.2-1.5c1.2-3.3,4.2-6.7,6.4-8.7
				c2.1-1.8,4.6-3.6,8.7-4.9c2-0.6,4.2-1.2,5.6-1.2c0.8,0,1.3,0.2,1.5,0.6c0.3,0.5,0.1,1.1-0.6,2.2c-2.7,4.3-7.7,9.4-13.2,10.9
				c-2.2,0.6-4.1,1.4-5.4,2.1C-316.8,283.7-317.6,284.1-318.1,284.1z M-297.9,267.9c-1.3,0-3.5,0.6-5.4,1.2c-4,1.2-6.4,3-8.5,4.8
				c-2.3,2-5.1,5.3-6.3,8.5c-0.3,0.7-0.3,1.1-0.2,1.2c0,0,0.1,0.1,0.2,0.1c0.4,0,1.3-0.4,2.4-0.9c1.4-0.7,3.3-1.5,5.5-2.1
				c5.5-1.5,10.4-6.6,13-10.6c0.6-0.9,0.8-1.4,0.6-1.8C-296.8,268-297.2,267.9-297.9,267.9z"/>
			<path class="st7" d="M-327.1,292.2L-327.1,292.2c-0.2-0.1-0.2-0.2-0.1-0.3c2.9-2.9,6.4-5.2,10.2-6.7c2-0.9,3.7-1.4,5.1-2
				c2.8-1,4.8-1.8,7-3.1c3.4-2.1,7.5-5.7,9.1-8.9c0.5-0.9,0.9-1.7,1.1-2.4c0.8-1.7,1.2-2.6,2.5-3.8c0.7-0.6,1.6-1.6,2.6-2.7
				c0.9-1,2-2.1,2.8-2.9c0.1-0.1,0.2-0.1,0.3,0s0.1,0.2,0,0.3c-0.9,0.9-1.9,1.9-2.8,2.9c-1,1.1-2.1,2.1-2.7,2.7
				c-1.1,1-1.6,2-2.4,3.6c-0.3,0.7-0.7,1.4-1.1,2.4c-1.8,3.5-6.1,7.1-9.3,9.1c-2.2,1.4-4.3,2.2-7.1,3.1c-1.4,0.6-3.1,1.1-5.1,2
				C-320.7,287-324.1,289.2-327.1,292.2C-327,292.2-327.1,292.2-327.1,292.2z"/>
			<path class="st7" d="M-326.5,289.9L-326.5,289.9c-0.2-0.1-0.2-0.2-0.1-0.3c0.4-0.5,0.8-0.8,1.1-1c1.4-1.3,2.3-2.1,3.5-3.4
				c1.2-1.3,2.3-3.2,3.3-5.1c0.8-1.4,1.5-2.7,2.3-3.8c2-2.6,4.7-5.7,8.5-7.7c2-1,3.8-1.3,5.5-1.6c1.7-0.3,3.3-0.6,5.1-1.5
				c2.4-1.2,4.7-3.3,7-5.3c0.3-0.3,0.6-0.6,0.9-0.8c0.1-0.1,0.2-0.1,0.3,0c0.1,0.1,0.1,0.2,0,0.3c-0.3,0.3-0.6,0.6-0.9,0.8
				c-2.2,1.9-4.6,4.2-7.1,5.4c-1.9,0.9-3.6,1.2-5.3,1.5c-1.7,0.3-3.4,0.6-5.3,1.5c-3.7,1.9-6.4,5-8.3,7.5c-0.8,0.9-1.5,2.3-2.3,3.7
				c-1,1.9-2.2,3.9-3.4,5.2s-2.1,2.1-3.5,3.4c-0.4,0.3-0.7,0.7-1.1,1C-326.4,289.8-326.4,289.9-326.5,289.9z"/>
			<path class="st7" d="M-328,296L-328,296c-0.2-0.1-0.2-0.2-0.1-0.3c2.6-2.7,6.3-6.3,9.4-7.8c1.6-0.8,4.1-1.7,6.8-2.6
				c4.6-1.7,9.9-3.6,11.9-5.4c3.6-3.2,6.9-10,8.1-12.8c1.3-2.9,4.6-5.4,7.7-7.5c0.1-0.1,0.2-0.1,0.3,0c0.1,0.1,0,0.2-0.1,0.3
				c-3,2-6.2,4.4-7.5,7.3c-1.6,3.5-4.7,9.7-8.3,13c-2.1,1.9-7.5,3.8-12.1,5.5c-2.6,0.9-5.2,1.9-6.7,2.6
				C-321.7,289.7-325.4,293.2-328,296C-327.9,296-327.9,296-328,296z"/>
			<path class="st7" d="M-328.8,299.1L-328.8,299.1c-0.2-0.1-0.2-0.2-0.1-0.3c4.1-4.1,8-7.8,10.8-9.3c1.4-0.8,3.7-1.5,6.3-2.5
				c4.4-1.5,9.5-3.2,12-5.5c3.9-3.6,6.5-8.6,9.1-13.9c1.2-2.5,4-5.2,8.6-8.1c0.1-0.1,0.2-0.1,0.3,0c0.1,0.1,0,0.2-0.1,0.3
				c-4.4,2.9-7.3,5.5-8.4,7.9c-2.6,5.3-5.2,10.4-9.2,14.1c-2.6,2.4-7.7,4.1-12.2,5.6c-2.5,0.9-4.8,1.6-6.2,2.4
				c-2.7,1.4-6.6,5.2-10.7,9.2C-328.7,299.1-328.8,299.1-328.8,299.1z"/>
			<path class="st7" d="M-325.8,286.8L-325.8,286.8c-0.2-0.1-0.2-0.2-0.1-0.3l0.3-0.3c2.6-2.5,3.4-3.1,5.1-6.1
				c0.2-0.4,0.5-0.8,0.7-1.1c2.1-3.7,3.5-6.1,7.5-9.5c4.4-3.7,9.6-4.2,11.8-4.4c1.7-0.2,6.7-4.2,8.5-5.6c0.1-0.1,0.2-0.1,0.3,0
				c0.1,0.1,0,0.2-0.1,0.3c-3.2,2.6-7.2,5.6-8.9,5.8c-2.2,0.2-7.2,0.7-11.5,4.3c-4,3.2-5.3,5.7-7.4,9.4c-0.2,0.4-0.4,0.8-0.7,1.1
				c-1.8,3.1-2.6,3.9-5.2,6.3h-0.1C-325.6,286.8-325.7,286.8-325.8,286.8z"/>
			<path class="st7" d="M-329.6,302.2L-329.6,302.2c-0.2-0.1-0.2-0.2-0.1-0.3c1.1-1.1,2.3-2.3,3.4-3.3c3-3,6-6,8.9-7.6
				c2-1,4.4-1.8,7.1-2.6c3.7-1.1,7.6-2.3,9.9-4.4c0.4-0.3,0.7-0.7,1-0.9c3.4-3.2,5.7-5.3,7.7-10.1c1.7-4.1,7.5-9.7,12.3-13.3
				c0.1-0.1,0.2-0.1,0.3,0c0.1,0.1,0,0.2-0.1,0.3c-4.7,3.5-10.5,9.2-12.1,13.1c-2,4.8-4.4,7-7.8,10.2c-0.3,0.3-0.7,0.7-1,0.9
				c-2.5,2.3-6.3,3.5-10.1,4.6c-2.6,0.8-5,1.5-6.9,2.6c-2.8,1.5-5.8,4.4-8.8,7.5c-1.1,1.1-2.3,2.3-3.4,3.3
				C-329.4,302.1-329.5,302.2-329.6,302.2z"/>
			<path class="st7" d="M-308.5,302.5C-308.6,302.5-308.6,302.5-308.5,302.5c-0.2-0.2-0.1-0.3,0-0.4c1.6-1.2,7.8-5.4,9.1-4.9
				c0.1,0,0.3,0.2,0.3,0.5c-0.2,1.3-1.2,3.2-2.6,4.6c-0.1,0.1-0.2,0.1-0.3,0.1c-0.1-0.1-0.1-0.2,0-0.3c1.2-1.3,2.2-3.2,2.5-4.4
				c0-0.1,0-0.2-0.1-0.2c-0.8-0.3-5.8,2.7-8.6,4.8C-308.4,302.5-308.4,302.5-308.5,302.5z"/>
			<path class="st7" d="M-303.8,302.5c-0.2-0.1-0.2-0.2-0.1-0.3c0.5-0.7,0.6-1,0.5-1.1c-0.1-0.1-0.3-0.1-0.4,0
				c-0.7,0.2-1.2,0.5-2.6,1.3c-0.1,0.1-0.2,0.1-0.3,0c-0.1-0.1,0-0.2,0.1-0.3c1.3-0.9,1.9-1.2,2.7-1.4c0.6-0.1,0.8,0,0.9,0.2
				c0.2,0.3,0,0.9-0.6,1.5C-303.6,302.5-303.7,302.5-303.8,302.5z"/>
			<path class="st7" d="M-310.1,302.5C-310.2,302.5-310.2,302.5-310.1,302.5c-0.2-0.2-0.1-0.3,0-0.4l0.5-0.4
				c3.3-2.6,6.1-4.7,8.7-5.6c0.7-0.2,1.4-0.5,2.1-0.7c2.9-0.9,5.9-1.7,7.8-4.4c0.9-1.4,2.5-4.1,4.1-7c2.3-4.2,4.8-8.9,6.9-11.4
				c1.6-2,4.1-4.7,6.3-7.2c0.1-0.1,0.2-0.1,0.3-0.1c0.1,0.1,0.1,0.2,0,0.3c-2.2,2.5-4.7,5.1-6.3,7.2c-2,2.5-4.5,7.2-6.8,11.3
				c-1.6,2.8-3,5.6-4.1,7c-2,2.8-5.1,3.7-8,4.6c-0.8,0.2-1.4,0.4-2.1,0.7c-2.6,0.9-5.3,3-8.5,5.5l-0.5,0.4
				C-310,302.5-310.1,302.5-310.1,302.5z"/>
			<path class="st7" d="M-312.9,302.4C-313,302.4-313,302.4-312.9,302.4c-0.2-0.2-0.1-0.3,0-0.4c4.9-3.8,8-5.9,9.7-6.5
				c0.9-0.4,2-0.7,3.1-0.9c1.8-0.4,3.6-0.8,5.1-1.9c2.6-1.8,5.6-6.7,7.3-10.5c1.7-3.9,7.7-13.4,11.8-16.9c0.9-0.8,1.8-1.6,2.7-2.4
				c0.1-0.1,0.2-0.1,0.3,0c0.1,0.1,0.1,0.2,0,0.3c-0.9,0.9-1.8,1.6-2.7,2.5c-4.1,3.5-9.9,13-11.6,16.7c-1.7,3.9-4.8,8.9-7.5,10.7
				c-1.6,1.1-3.5,1.5-5.3,2c-1.1,0.3-2.1,0.5-3,0.9c-1.6,0.7-4.8,2.8-9.6,6.4C-312.8,302.4-312.8,302.4-312.9,302.4z"/>
			<path class="st7" d="M-326.8,302.4L-326.8,302.4c-0.2-0.1-0.2-0.2-0.1-0.3c3-3.1,8.4-8.5,11.3-9.6c0.9-0.4,2.1-0.8,3.2-1.2
				c3.1-1.1,7-2.6,10.9-4.8c5.1-2.9,7.2-6.1,9.3-9.4l0.3-0.5c0.5-0.8,0.9-1.6,1.5-2.5c1.6-2.6,3.3-5.4,5.5-7.6c1.6-1.7,4.9-4.5,8-7
				c0.1-0.1,0.2-0.1,0.3,0c0.1,0.1,0,0.2-0.1,0.3c-3,2.4-6.3,5.2-7.9,6.9c-2.2,2.2-3.8,4.9-5.4,7.5c-0.5,0.9-1,1.6-1.5,2.5l-0.3,0.5
				c-2,3-4.2,6.5-9.5,9.6c-4,2.3-7.8,3.7-11,4.8c-1.1,0.5-2.3,0.9-3.2,1.2c-2.8,1.1-8.7,7.1-11.1,9.6
				C-326.7,302.3-326.7,302.4-326.8,302.4z"/>
			<path class="st7" d="M-316.3,302.5C-316.4,302.5-316.4,302.5-316.3,302.5c-0.2-0.2-0.1-0.3,0-0.4l0.2-0.2c4.3-3,9.6-6.8,11.5-7.5
				c1.1-0.4,2.6-0.7,4-1c1.8-0.4,3.6-0.9,4.4-1.2c1.2-0.7,5.4-5.6,6.4-8.2c1-2.5,2.6-6,4.9-9.3c2.2-3.1,6.2-8.7,8.2-10.7
				c0.8-0.8,2.2-2,4.2-3.8c0.1-0.1,0.2-0.1,0.3,0c0.1,0.1,0.1,0.2,0,0.3c-2,1.7-3.4,2.9-4.2,3.7c-2,2-6.1,7.6-8.1,10.6
				c-2.2,3.2-3.9,6.7-4.8,9.2c-1,2.6-5.2,7.6-6.7,8.4c-0.9,0.5-2.6,0.9-4.5,1.3c-1.4,0.3-2.8,0.7-4,1c-1.8,0.6-7.1,4.4-11.3,7.4
				l-0.2,0.2C-316.2,302.5-316.3,302.5-316.3,302.5z"/>
			<path class="st7" d="M-323.8,302.4L-323.8,302.4c-0.2-0.1-0.2-0.2-0.1-0.3c4.3-4.3,8.6-7.3,12.7-8.9l1-0.4
				c3.9-1.5,7.5-2.9,10.8-5.1c3.2-2.2,6.2-5.9,9-11.2c0.3-0.6,0.6-1.1,0.9-1.6c1.8-3.4,2.6-4.8,5-7.3c1.7-1.7,5.9-5.5,9.2-8
				c0.1-0.1,0.2-0.1,0.3,0c0.1,0.1,0,0.2-0.1,0.3c-3.3,2.6-7.5,6.3-9.2,8c-2.5,2.4-3.1,3.7-4.9,7.2c-0.3,0.5-0.6,1-0.9,1.6
				c-2.8,5.3-5.9,9.1-9.2,11.3c-3.3,2.3-7,3.7-10.9,5.2l-1,0.4C-313.9,294.8-318.3,297.2-323.8,302.4
				C-323.7,302.4-323.7,302.4-323.8,302.4z"/>
			<path class="st7" d="M-320,302.4L-320,302.4c-0.2-0.1-0.2-0.2-0.1-0.3c1.8-1.7,5.4-4.7,8.9-6.5c4.4-2.2,6.5-2.9,10.5-4.4
				c3.7-1.3,5.8-3.5,8.3-7.3c1.5-2.2,2.8-4.8,4.2-7.3c0.8-1.4,1.5-2.8,2.2-4.1c1.9-3.2,6.7-8.3,12.5-13.1c0.1-0.1,0.2-0.1,0.3,0
				c0.1,0.1,0,0.2-0.1,0.3c-6.4,5.3-10.9,10.3-12.4,13c-0.8,1.2-1.4,2.6-2.2,4.1c-1.3,2.6-2.7,5.1-4.2,7.4c-2.2,3.2-4.3,6-8.6,7.5
				c-4,1.3-6.1,2.1-10.4,4.4c-2.6,1.2-5.7,3.6-8.7,6.4C-319.8,302.4-319.9,302.4-320,302.4z"/>
			<path class="st7" d="M-299.9,302.6C-300,302.6-300,302.6-299.9,302.6c-0.2-0.1-0.2-0.2-0.1-0.3c0.5-0.7,0.9-1.3,1.2-2
				c0.6-1,1-2,2.1-2.9c1-0.9,2.2-1.5,3.2-2c1.4-0.7,2.7-1.3,3.7-2.7c0.7-0.9,1.6-2.6,2.7-4.7c1.9-3.5,4.4-7.8,6.5-10.7
				c1.1-1.4,2.1-2.8,3.1-4.3c0.9-1.2,1.7-2.5,2.6-3.6c0.1-0.1,0.2-0.1,0.3-0.1c0.1,0,0.1,0.2,0,0.3c-0.9,1.1-1.7,2.3-2.6,3.6
				c-0.9,1.4-2,2.8-3.1,4.3c-2.3,2.8-4.6,7.2-6.5,10.7c-1.1,2.1-2.1,3.8-2.7,4.7c-1.1,1.4-2.6,2.2-4,2.8c-1,0.6-2.2,1-3.1,1.9
				c-0.9,0.9-1.4,1.8-2,2.8c-0.4,0.7-0.7,1.3-1.2,2.1C-299.8,302.5-299.9,302.6-299.9,302.6z"/>
			<path class="st7" d="M-298.4,302.6C-298.5,302.6-298.5,302.6-298.4,302.6c-0.2,0-0.2-0.2-0.1-0.3c0.2-0.4,0.4-0.8,0.6-1
				c0.7-1.3,1.1-2.2,3-3.2c1-0.6,2.1-0.9,2.9-1.3c1.7-0.7,3-1.1,4.1-2.8c0.5-0.8,1.1-2.1,1.9-3.6c2.1-4.1,5.1-10.3,8-13.2
				c0.7-0.7,1.3-1.3,1.9-2.1c0.1-0.1,0.2-0.1,0.3-0.1c0.1,0.1,0.1,0.2,0,0.3c-0.7,0.8-1.3,1.4-2,2.2c-2.8,2.8-6,9-7.9,13.1
				c-0.8,1.6-1.4,2.8-1.9,3.6c-1.1,1.8-2.6,2.4-4.4,3c-0.9,0.3-1.8,0.7-2.8,1.2c-1.7,0.9-2.1,1.7-2.7,2.9c-0.2,0.3-0.4,0.7-0.6,1
				C-298.3,302.5-298.4,302.6-298.4,302.6z"/>
			<path class="st7" d="M-296.2,302.6c-0.2,0-0.2-0.2-0.1-0.3c1.1-2.1,2.2-2.9,4.4-4c3-1.4,5-3,6.1-4.8c0.3-0.6,0.8-1.5,1.3-2.7
				c1.4-3,3.5-7.8,5.7-10.4c0.7-0.8,1.3-1.6,2-2.4c0.1-0.1,0.2-0.1,0.3-0.1c0.1,0.1,0.1,0.2,0,0.3c-0.7,0.8-1.3,1.5-2,2.4
				c-2.2,2.6-4.3,7.3-5.6,10.3c-0.6,1.2-0.9,2.2-1.3,2.7c-1,1.9-3.1,3.6-6.2,5c-2.1,0.9-3,1.8-4.1,3.8
				C-296,302.6-296.1,302.6-296.2,302.6z"/>
			<path class="st7" d="M-294.2,302.6C-294.2,302.6-294.3,302.6-294.2,302.6c-0.2-0.1-0.2-0.2-0.1-0.3c0.9-1,1.9-1.6,3.1-2.3
				c2.4-1.1,5.1-2.6,6.6-5.4c0.6-1.1,1.2-2.6,1.9-4.3c1-2.6,2.3-5.6,3.7-7.4c0.4-0.5,0.8-0.9,1.1-1.3c0.1-0.1,0.2-0.1,0.3-0.1
				c0.1,0.1,0.1,0.2,0,0.3c-0.4,0.5-0.9,0.9-1.1,1.3c-1.4,1.7-2.6,4.6-3.6,7.3c-0.7,1.6-1.2,3.2-1.9,4.4c-1.6,2.9-4.4,4.5-6.8,5.7
				c-1.4,0.7-2.3,1.2-2.9,2.1C-294,302.6-294.1,302.6-294.2,302.6z"/>
			<path class="st7" d="M-291.3,302.6C-291.4,302.6-291.4,302.6-291.3,302.6c-0.2-0.2-0.1-0.3,0-0.4c0.4-0.3,0.9-0.7,1.6-1l0.7-0.4
				c3.7-2.3,5.2-3.2,6.1-6c0.5-1.6,2.2-5.2,3.9-8.2c0.1-0.1,0.2-0.2,0.3-0.1c0.1,0,0.1,0.1,0.1,0.2c-1.6,2.9-3.3,6.5-3.9,8.1
				c-0.9,2.9-2.6,4-6.3,6.2l-0.6,0.5c-0.7,0.4-1.2,0.8-1.6,1C-291.3,302.6-291.3,302.6-291.3,302.6z"/>
			<path class="st7" d="M-288,302.7L-288,302.7c-0.2-0.1-0.2-0.2-0.1-0.3c0.8-0.7,1.5-1.2,2.1-1.5c1.5-0.7,3.7-2.8,4.3-4.4
				c0-0.1,0.1-0.3,0.2-0.5c0-0.1,0.1-0.2,0.3-0.2c0.1,0,0.2,0.1,0.1,0.2c-0.1,0.2-0.1,0.4-0.2,0.5c-0.7,1.8-2.9,4.1-4.5,4.8
				C-286.5,301.6-287.2,302-288,302.7C-287.9,302.7-287.9,302.7-288,302.7z"/>
			<path class="st7" d="M-285.3,302.7L-285.3,302.7c-0.2-0.1-0.2-0.2-0.1-0.3c1.2-1.2,2.2-1.8,2.8-2.2c0.1-0.1,0.2,0,0.3,0.1
				c0,0.1,0,0.2-0.1,0.3c-0.7,0.4-1.5,0.9-2.7,2.1C-285.1,302.7-285.2,302.7-285.3,302.7z"/>
			<path class="st7" d="M-324.7,283.1L-324.7,283.1c-0.2-0.1-0.2-0.2-0.1-0.3c2.3-2.6,3.5-4.6,4.9-6.8c0.4-0.6,0.8-1.1,1.1-1.8
				c2.6-4.1,6.6-8.5,9.7-9.3c1-0.3,2.3-0.4,3.5-0.6c2.4-0.3,4.8-0.5,6.8-1.7c1.6-1,3.5-2.3,4.9-3.3c0.1-0.1,0.2-0.1,0.3,0
				c0.1,0.1,0,0.2-0.1,0.3c-1.4,1-3.3,2.3-4.9,3.3c-2.1,1.3-4.5,1.6-7,1.8c-1.2,0.1-2.5,0.3-3.5,0.5c-2.9,0.8-6.8,5.1-9.4,9.1
				c-0.4,0.6-0.8,1.2-1.1,1.8c-1.3,2.2-2.6,4.4-4.9,6.9C-324.6,283.1-324.7,283.1-324.7,283.1z"/>
			<path class="st7" d="M-323.7,278.7C-323.7,278.7-323.8,278.7-323.7,278.7c-0.2-0.1-0.2-0.2-0.1-0.3c1.8-2.3,3.3-4.4,4.5-6.4
				c0.5-0.8,1-1.5,1.4-2.1l0.1-0.2c2.4-3.3,4.2-6,7.5-6.3l0.8-0.1c3.1-0.4,7.3-0.9,9.6-2.2c0.7-0.4,1.5-0.9,2.5-1.7
				c0.1-0.1,0.2-0.1,0.3,0c0.1,0.1,0,0.2-0.1,0.3c-1,0.8-1.8,1.3-2.6,1.8c-2.3,1.4-6.6,1.9-9.7,2.3l-0.8,0.1c-3,0.4-4.7,2.7-7.1,6.1
				l-0.1,0.2c-0.5,0.7-0.9,1.3-1.4,2.1C-320.3,274.1-321.8,276.4-323.7,278.7C-323.5,278.7-323.6,278.7-323.7,278.7z"/>
			<path class="st7" d="M-322.7,274.5c-0.2-0.1-0.2-0.2-0.1-0.3c1.5-2.1,2.9-4.3,4.3-6.1c0.8-1.1,1.4-2.2,2-2.9
				c2.3-3.2,5.7-3.6,8.8-3.6c1.5,0,3.8-0.7,6.1-1.9c0.1-0.1,0.2,0,0.3,0.1c0,0.1,0,0.2-0.1,0.3c-2.4,1.1-4.7,1.9-6.3,1.9
				c-3,0.1-6.2,0.4-8.3,3.4c-0.6,0.8-1.2,1.8-2,2.9c-1.2,1.8-2.7,4.2-4.3,6.2C-322.5,274.4-322.6,274.5-322.7,274.5z"/>
			<path class="st7" d="M-320.9,268C-320.9,268-320.9,268-320.9,268c-0.2-0.1-0.2-0.2-0.1-0.3c1-1.3,2-2.7,2.6-4.1
				c1.6-3.1,4-3.4,7.3-3.6c1,0,2.3-0.3,3.7-0.7c0.1,0,0.2,0,0.2,0.1s-0.1,0.2-0.2,0.2c-1.4,0.4-2.7,0.7-3.9,0.7
				c-3.7,0.1-5.5,0.7-6.8,3.3c-0.8,1.4-1.6,2.8-2.7,4.2C-320.8,268-320.9,268-320.9,268z"/>
			<path class="st7" d="M-320.1,264.9C-320.2,264.9-320.2,264.9-320.1,264.9c-0.2-0.1-0.2-0.2-0.1-0.3c0.5-0.7,0.9-1.4,1.3-2.3
				c0.8-1.4,1.8-2.4,3-3c0.1-0.1,0.2,0,0.3,0.1c0,0.1,0,0.2-0.1,0.3c-1.2,0.6-2.1,1.5-2.8,2.7c-0.5,0.9-0.9,1.7-1.4,2.4
				C-320,264.9-320.1,264.9-320.1,264.9z"/>
		</g>
		<path class="st8" d="M-275.2,263.7l-7.8,16c-0.9,1.9-4.3,11.1-20,11l-16.6-0.1l7.6-15.4c1.8-4,4.7-11.6,18.3-11.5L-275.2,263.7z"
			/>
		<path class="st9" d="M-279.5,251.4l-8.4,22.4c-1,2.6-4.6,15.5-21.8,15.3l-18.2-0.1l8.2-21.6c2-5.6,5.2-16.3,20.1-16.2
			L-279.5,251.4z"/>
		<g class="st6">
			<path class="st7" d="M-312.6,263.9c-0.2,0-0.3-0.1-0.4-0.2c-0.1-0.1,0-0.3,0.1-0.4l0.1-0.1c0.5-0.9,0.7-1.2,2.2-1.9
				c0.4-0.2,0.8-0.3,1.1-0.3c0.5,0,0.9,0.2,0.9,0.6c0,0.2,0,0.6-0.9,1C-310.5,263.2-312.1,263.9-312.6,263.9z M-312.6,263.6
				c0.5,0,1.7-0.6,2.9-1.2c0.4-0.2,0.6-0.5,0.6-0.7c0-0.2-0.2-0.3-0.6-0.3c-0.2,0-0.5,0-0.9,0.2c-1.3,0.7-1.5,0.9-1.9,1.7
				L-312.6,263.6z"/>
			<path class="st7" d="M-315.7,265.6c-0.3,0-0.5-0.1-0.5-0.2c-0.1-0.2,0-0.4,0.2-0.7c0.9-1.3,2.8-3.1,2.9-3.1
				c1.4-1,3.6-2.2,4.8-2.2c0.8,0,1.7,0.3,1.8,0.9c0.1,0.2,0,0.6-0.5,1c-0.1,0.1-0.3,0.3-0.5,0.4c-1.1,1-2.8,2.6-4.5,2.9
				c-0.4,0.1-0.9,0.3-1.4,0.4C-314.3,265.3-315.3,265.6-315.7,265.6z M-308.5,259.8c-1.1,0-3.2,1-4.4,2.1c0,0-2,1.7-2.8,3
				c-0.1,0.2-0.2,0.3-0.1,0.3c0,0,0.1,0.1,0.2,0.1c0.5,0,1.4-0.3,2.3-0.6c0.5-0.2,0.9-0.3,1.4-0.4c1.6-0.4,3.2-1.8,4.4-2.8
				c0.2-0.1,0.3-0.3,0.5-0.4c0.3-0.2,0.4-0.5,0.3-0.7C-307,260.1-307.7,259.8-308.5,259.8z"/>
			<path class="st7" d="M-318.5,268.2c-0.3,0-0.6-0.1-0.7-0.3c-0.2-0.3-0.1-0.7,0.2-1.3v-0.1c1.4-2.6,2-3.8,5-5.8
				c3.7-2.3,5.5-3,7.8-3.1c0.9,0,1.5,0.3,1.6,0.9c0.3,1.2-1,3.1-3.3,4.8c-3.5,2.6-4.2,2.8-5.9,3.2c-0.2,0-0.4,0.1-0.6,0.1
				c-0.5,0.1-1,0.4-1.7,0.6C-316.8,267.8-317.8,268.2-318.5,268.2z M-305.9,258.1L-305.9,258.1c-2.4,0.1-4.2,0.9-7.8,3
				c-2.9,1.9-3.5,2.8-4.8,5.6v0.1c-0.3,0.6-0.3,0.9-0.2,0.9s0.2,0.1,0.4,0.1c0.6,0,1.6-0.4,2.6-0.8c0.7-0.2,1.2-0.5,1.8-0.6
				c0.2-0.1,0.4-0.1,0.6-0.1c1.6-0.4,2.2-0.6,5.6-3.1c2.6-2,3.3-3.6,3.1-4.4C-304.9,258.3-305.2,258.1-305.9,258.1z"/>
			<path class="st7" d="M-322.5,271.8c-0.2,0-0.4-0.1-0.5-0.2c-0.2-0.3-0.1-0.8,0.2-1.5c1.2-3.3,4.2-6.7,6.4-8.7
				c2.1-1.8,4.6-3.6,8.7-4.9c2-0.6,4.2-1.2,5.6-1.2c0.8,0,1.3,0.2,1.5,0.6c0.3,0.5,0.1,1.1-0.6,2.2c-2.7,4.3-7.7,9.4-13.2,10.9
				c-2.2,0.6-4.1,1.4-5.4,2.1C-321,271.4-322,271.8-322.5,271.8z M-302.2,255.6c-1.3,0-3.5,0.6-5.4,1.2c-4,1.2-6.4,3-8.5,4.8
				c-2.3,2-5.1,5.3-6.3,8.5c-0.3,0.7-0.3,1.1-0.2,1.2c0,0,0.1,0.1,0.2,0.1c0.4,0,1.3-0.4,2.4-0.9c1.4-0.7,3.3-1.5,5.5-2.1
				c5.5-1.5,10.4-6.6,13-10.6c0.6-0.9,0.8-1.4,0.6-1.8C-301.1,255.7-301.6,255.6-302.2,255.6z"/>
			<path class="st7" d="M-331.4,279.9L-331.4,279.9c-0.2-0.1-0.2-0.2-0.1-0.3c3-2.9,6.4-5.2,10.2-6.7c2-0.9,3.7-1.4,5.1-2
				c2.8-1,4.8-1.8,7-3.1c3.4-2.1,7.5-5.7,9.1-8.9c0.5-0.9,0.9-1.7,1.1-2.4c0.8-1.7,1.2-2.6,2.5-3.8c0.7-0.6,1.6-1.6,2.6-2.7
				c0.9-1,2-2.1,2.8-2.9c0.1-0.1,0.2-0.1,0.3,0c0.1,0.1,0.1,0.2,0,0.3c-0.9,0.9-1.9,1.9-2.8,2.9c-1,1.1-2.1,2.1-2.7,2.7
				c-1.1,1-1.6,2-2.4,3.6c-0.3,0.7-0.7,1.4-1.1,2.4c-1.8,3.5-6.1,7.1-9.3,9.1c-2.2,1.4-4.3,2.2-7.1,3.1c-1.4,0.6-3.1,1.1-5.1,2
				C-325,274.7-328.4,276.9-331.4,279.9C-331.4,279.9-331.4,279.9-331.4,279.9z"/>
			<path class="st7" d="M-330.9,277.6L-330.9,277.6c-0.2-0.1-0.2-0.2-0.1-0.3c0.4-0.4,0.8-0.8,1.1-1c1.4-1.3,2.3-2.1,3.5-3.4
				c1.2-1.3,2.4-3.2,3.4-5.1c0.8-1.4,1.5-2.7,2.3-3.8c2-2.6,4.7-5.7,8.5-7.7c2-1,3.8-1.3,5.5-1.6c1.7-0.3,3.3-0.6,5.1-1.5
				c2.4-1.2,4.7-3.3,7-5.3c0.3-0.3,0.6-0.6,0.9-0.8c0.1-0.1,0.2-0.1,0.3,0c0.1,0.1,0.1,0.2,0,0.3c-0.3,0.3-0.6,0.6-0.9,0.8
				c-2.2,1.9-4.6,4.2-7.1,5.4c-1.9,0.9-3.6,1.2-5.3,1.5c-1.7,0.3-3.4,0.6-5.3,1.5c-3.7,1.9-6.4,5-8.3,7.5c-0.8,0.9-1.5,2.3-2.3,3.7
				c-1,1.9-2.2,3.9-3.4,5.2c-1.2,1.3-2.1,2.1-3.5,3.4c-0.4,0.3-0.7,0.7-1.1,1C-330.7,277.5-330.8,277.6-330.9,277.6z"/>
			<path class="st7" d="M-332.4,283.7L-332.4,283.7c-0.2-0.1-0.2-0.2-0.1-0.3c2.6-2.7,6.3-6.3,9.4-7.8c1.6-0.8,4.1-1.7,6.8-2.6
				c4.6-1.7,9.9-3.6,11.9-5.4c3.6-3.2,6.9-10,8.1-12.8c1.3-2.9,4.6-5.4,7.7-7.5c0.1-0.1,0.2-0.1,0.3,0c0.1,0.1,0,0.2-0.1,0.3
				c-3,2-6.2,4.4-7.5,7.3c-1.6,3.5-4.7,9.7-8.3,13c-2.1,1.9-7.5,3.8-12.1,5.5c-2.6,0.9-5.2,1.9-6.7,2.6
				C-326.1,277.5-329.7,281-332.4,283.7C-332.2,283.7-332.3,283.7-332.4,283.7z"/>
			<path class="st7" d="M-333.1,286.8L-333.1,286.8c-0.2-0.1-0.2-0.2-0.1-0.3c4.1-4.1,8-7.8,10.8-9.3c1.4-0.8,3.7-1.5,6.3-2.5
				c4.4-1.5,9.5-3.2,12-5.5c3.9-3.6,6.5-8.6,9.1-13.9c1.2-2.5,4-5.2,8.6-8.1c0.1-0.1,0.2-0.1,0.3,0c0.1,0.1,0,0.2-0.1,0.3
				c-4.4,2.9-7.3,5.5-8.4,7.9c-2.6,5.3-5.2,10.4-9.2,14.1c-2.6,2.4-7.7,4.1-12.2,5.6c-2.5,0.9-4.8,1.6-6.2,2.4
				c-2.7,1.4-6.6,5.2-10.7,9.2C-333,286.8-333.1,286.8-333.1,286.8z"/>
			<path class="st7" d="M-330,274.5L-330,274.5c-0.2-0.1-0.2-0.2-0.1-0.3l0.3-0.3c2.6-2.5,3.4-3.1,5.1-6.1c0.2-0.4,0.5-0.8,0.7-1.1
				c2.1-3.7,3.5-6.1,7.5-9.5c4.4-3.7,9.6-4.2,11.8-4.4c1.7-0.2,6.7-4.2,8.6-5.7c0.1-0.1,0.2-0.1,0.3,0c0.1,0.1,0,0.2-0.1,0.3
				c-3.2,2.6-7.2,5.6-8.9,5.8c-2.2,0.2-7.2,0.7-11.5,4.3c-4,3.2-5.3,5.7-7.4,9.4c-0.2,0.4-0.4,0.8-0.7,1.1c-1.8,3.1-2.6,3.9-5.2,6.3
				l-0.2,0.1C-329.9,274.5-330,274.5-330,274.5z"/>
			<path class="st7" d="M-333.8,289.9L-333.8,289.9c-0.2-0.2-0.2-0.3-0.1-0.4c1.1-1.1,2.3-2.3,3.4-3.3c3-3,6-6,8.9-7.6
				c2-1,4.4-1.8,7.1-2.6c3.7-1.1,7.6-2.3,9.9-4.4c0.4-0.3,0.7-0.7,1-0.9c3.4-3.2,5.7-5.3,7.7-10.1c1.7-4.1,7.5-9.7,12.3-13.3
				c0.1-0.1,0.2-0.1,0.3,0c0.1,0.1,0,0.2-0.1,0.3c-4.7,3.5-10.5,9.2-12.1,13.1c-2,4.8-4.4,7-7.8,10.2c-0.3,0.3-0.7,0.7-1,0.9
				c-2.5,2.3-6.3,3.5-10.1,4.6c-2.6,0.8-5,1.5-6.9,2.6c-2.8,1.5-5.8,4.4-8.8,7.5c-1.1,1.1-2.3,2.3-3.4,3.3
				C-333.7,289.8-333.8,289.9-333.8,289.9z"/>
			<path class="st7" d="M-312.8,290.2C-312.9,290.2-312.9,290.2-312.8,290.2c-0.2-0.2-0.1-0.3,0-0.4c1.6-1.2,7.8-5.4,9.1-4.9
				c0.1,0,0.3,0.2,0.3,0.5c-0.2,1.3-1.2,3.2-2.6,4.6c-0.1,0.1-0.2,0.1-0.3,0.1c-0.1-0.1-0.1-0.2,0-0.3c1.2-1.3,2.2-3.2,2.5-4.4
				c0-0.1,0-0.2-0.1-0.2c-0.8-0.3-5.8,2.7-8.6,4.8C-312.6,290.2-312.7,290.2-312.8,290.2z"/>
			<path class="st7" d="M-308.1,290.2C-308.2,290.2-308.2,290.2-308.1,290.2c-0.2-0.1-0.2-0.2-0.1-0.3c0.5-0.7,0.6-1,0.5-1.1
				c-0.1-0.1-0.3-0.1-0.4,0c-0.7,0.2-1.2,0.5-2.6,1.3c-0.1,0.1-0.2,0.1-0.3,0c-0.1-0.1,0-0.2,0.1-0.3c1.3-0.9,1.9-1.2,2.7-1.4
				c0.6-0.1,0.8,0,0.9,0.2c0.2,0.3,0,0.9-0.6,1.5C-308,290.2-308.1,290.2-308.1,290.2z"/>
			<path class="st7" d="M-314.4,290.2C-314.5,290.2-314.5,290.2-314.4,290.2c-0.2-0.2-0.1-0.3,0-0.4l0.5-0.4
				c3.3-2.6,6.1-4.7,8.7-5.6c0.7-0.2,1.4-0.5,2.1-0.7c2.9-0.9,5.9-1.7,7.8-4.4c0.9-1.4,2.5-4.1,4.1-7c2.3-4.2,4.8-8.9,6.9-11.4
				c1.6-2,4.1-4.7,6.3-7.2c0.1-0.1,0.2-0.1,0.3-0.1c0.1,0.1,0.1,0.2,0,0.3c-2.2,2.5-4.7,5.1-6.3,7.2c-2,2.5-4.5,7.2-6.8,11.3
				c-1.6,2.8-3,5.6-4.1,7c-2,2.8-5.1,3.7-8,4.6c-0.8,0.2-1.4,0.4-2.1,0.7c-2.6,0.9-5.3,3-8.5,5.5l-0.5,0.4
				C-314.3,290.2-314.3,290.2-314.4,290.2z"/>
			<path class="st7" d="M-317.2,290.1C-317.3,290.1-317.3,290.1-317.2,290.1c-0.2-0.2-0.1-0.3,0-0.4c4.9-3.8,8-5.9,9.7-6.5
				c0.9-0.4,2-0.7,3.1-0.9c1.8-0.4,3.6-0.8,5.1-1.9c2.6-1.8,5.6-6.7,7.3-10.5c1.7-3.9,7.7-13.4,11.8-16.9c0.9-0.8,1.8-1.6,2.7-2.4
				c0.1-0.1,0.2-0.1,0.3,0c0.1,0.1,0.1,0.2,0,0.3c-0.9,0.9-1.8,1.6-2.7,2.5c-4.1,3.5-9.9,13-11.6,16.7c-1.7,3.9-4.8,8.9-7.5,10.7
				c-1.6,1.1-3.5,1.5-5.3,2c-1.1,0.3-2.1,0.5-3,0.9c-1.6,0.7-4.8,2.8-9.6,6.4C-317.1,290.1-317.2,290.1-317.2,290.1z"/>
			<path class="st7" d="M-331.2,290.1L-331.2,290.1c-0.2-0.1-0.2-0.2-0.1-0.3c3-3.1,8.4-8.5,11.3-9.6c0.9-0.4,2.1-0.8,3.2-1.2
				c3.1-1.1,7-2.6,10.9-4.8c5.1-2.9,7.2-6.1,9.3-9.4l0.3-0.5c0.5-0.8,0.9-1.6,1.5-2.5c1.6-2.6,3.3-5.4,5.5-7.6c1.6-1.7,4.9-4.5,8-7
				c0.1-0.1,0.2-0.1,0.3,0c0.1,0.1,0,0.2-0.1,0.3c-3,2.4-6.3,5.2-7.9,6.9c-2.2,2.2-3.8,4.9-5.4,7.5c-0.5,0.9-1,1.6-1.5,2.5l-0.3,0.5
				c-2,3-4.2,6.5-9.5,9.6c-4,2.3-7.8,3.7-11,4.8c-1.1,0.5-2.3,0.9-3.2,1.2c-2.8,1.1-8.7,7.1-11.1,9.6
				C-331,290-331.1,290.1-331.2,290.1z"/>
			<path class="st7" d="M-320.7,290.2C-320.8,290.2-320.8,290.2-320.7,290.2c-0.2-0.2-0.1-0.3,0-0.4l0.2-0.2c4.3-3,9.6-6.8,11.5-7.5
				c1.1-0.4,2.6-0.7,4-1c1.8-0.4,3.6-0.9,4.4-1.2c1.2-0.7,5.4-5.6,6.4-8.2c1-2.5,2.6-6,4.9-9.3c2.2-2.9,6.3-8.6,8.2-10.5
				c0.8-0.8,2.2-2,4.2-3.8c0.1-0.1,0.2-0.1,0.3,0c0.1,0.1,0.1,0.2,0,0.3c-2,1.7-3.4,2.9-4.2,3.7c-2,2-6.1,7.6-8.1,10.6
				c-2.2,3.2-3.9,6.7-4.8,9.2c-1,2.6-5.2,7.6-6.7,8.4c-0.9,0.5-2.6,0.9-4.5,1.3c-1.4,0.3-2.8,0.7-4,1c-1.8,0.6-7.1,4.4-11.3,7.4
				l-0.2,0.2C-320.6,290.2-320.6,290.2-320.7,290.2z"/>
			<path class="st7" d="M-328.1,290.1L-328.1,290.1c-0.2-0.1-0.2-0.2-0.1-0.3c4.3-4.3,8.6-7.3,12.7-8.9l1-0.4
				c3.9-1.5,7.5-2.9,10.8-5.1c3.2-2.2,6.2-5.9,9-11.2c0.3-0.6,0.6-1.1,0.9-1.6c1.8-3.4,2.6-4.8,5-7.3c1.9-1.7,6-5.6,9.4-8.1
				c0.1-0.1,0.2-0.1,0.3,0c0.1,0.1,0,0.2-0.1,0.3c-3.3,2.6-7.5,6.3-9.2,8c-2.5,2.4-3.1,3.7-4.9,7.2c-0.3,0.5-0.6,1-0.9,1.6
				c-2.8,5.3-5.9,9.1-9.2,11.3c-3.3,2.3-7,3.7-10.9,5.2l-1,0.4c-2.7,1-7.1,3.5-12.5,8.7C-327.9,290.1-328,290.1-328.1,290.1z"/>
			<path class="st7" d="M-324.3,290.1L-324.3,290.1c-0.2-0.1-0.2-0.2-0.1-0.3c1.8-1.7,5.4-4.7,8.9-6.5c4.4-2.2,6.5-2.9,10.5-4.4
				c3.7-1.3,5.8-3.5,8.3-7.3c1.5-2.2,2.8-4.8,4.2-7.3c0.8-1.4,1.5-2.8,2.2-4.1c1.9-3.2,6.7-8.3,12.5-13.1c0.1-0.1,0.2-0.1,0.3,0
				c0.1,0.1,0,0.2-0.1,0.3c-6.4,5.3-10.9,10.3-12.4,13c-0.8,1.2-1.4,2.6-2.2,4.1c-1.3,2.6-2.7,5.1-4.2,7.4c-2.2,3.2-4.3,6-8.6,7.5
				c-4,1.3-6.1,2.1-10.4,4.4c-2.6,1.2-5.7,3.6-8.7,6.4C-324.2,290.1-324.3,290.1-324.3,290.1z"/>
			<path class="st7" d="M-304.2,290.3C-304.2,290.3-304.3,290.3-304.2,290.3c-0.2-0.1-0.2-0.2-0.1-0.3c0.5-0.7,0.9-1.3,1.2-2
				c0.6-1,1-2,2.1-2.9c1-0.9,2.2-1.5,3.2-2c1.4-0.7,2.7-1.3,3.7-2.7c0.7-0.9,1.6-2.6,2.7-4.7c1.9-3.5,4.4-7.8,6.5-10.7
				c1.1-1.4,2.1-2.8,3.1-4.3c0.9-1.2,1.7-2.5,2.6-3.6c0.1-0.1,0.2-0.1,0.3-0.1c0.1,0,0.1,0.2,0,0.3c-0.9,1.1-1.7,2.3-2.6,3.6
				c-0.9,1.4-2,2.8-3.1,4.3c-2.3,2.8-4.6,7.2-6.5,10.7c-1.1,2.1-2.1,3.8-2.7,4.7c-1,1.5-2.5,2.2-3.9,2.9c-1,0.6-2.2,1-3.1,1.9
				c-0.9,0.9-1.4,1.8-2,2.8c-0.4,0.7-0.7,1.3-1.2,2.1C-304,290.2-304.1,290.3-304.2,290.3z"/>
			<path class="st7" d="M-302.8,290.3C-302.8,290.3-302.9,290.3-302.8,290.3c-0.2,0-0.2-0.2-0.1-0.3c0.2-0.4,0.4-0.8,0.6-1
				c0.7-1.3,1.1-2.2,3-3.2c1-0.6,2.1-0.9,2.9-1.3c1.7-0.7,3-1.1,4.1-2.8c0.5-0.8,1.1-2.1,1.9-3.6c2.1-4.1,5.1-10.3,8-13.2
				c0.7-0.7,1.3-1.3,1.9-2.1c0.1-0.1,0.2-0.1,0.3-0.1c0.1,0.1,0.1,0.2,0,0.3c-0.7,0.8-1.3,1.4-2,2.2c-2.8,2.8-6,9-7.9,13.1
				c-0.8,1.6-1.4,2.8-1.9,3.6c-1.1,1.8-2.6,2.4-4.4,3c-0.9,0.3-1.8,0.7-2.8,1.2c-1.7,0.9-2.1,1.7-2.7,2.9c-0.2,0.3-0.4,0.7-0.6,1
				C-302.6,290.2-302.7,290.3-302.8,290.3z"/>
			<path class="st7" d="M-300.4,290.3C-300.4,290.3-300.5,290.3-300.4,290.3c-0.2,0-0.2-0.2-0.1-0.3c1.1-2.1,2.2-2.9,4.4-4
				c3-1.4,5-3,6.1-4.8c0.3-0.6,0.8-1.5,1.3-2.7c1.4-3,3.5-7.8,5.7-10.4c0.7-0.8,1.3-1.6,2-2.4c0.1-0.1,0.2-0.1,0.3-0.1
				c0.1,0.1,0.1,0.2,0,0.3c-0.7,0.8-1.3,1.5-2,2.4c-2.2,2.6-4.3,7.3-5.6,10.3c-0.6,1.2-0.9,2.2-1.3,2.7c-1,1.9-3.1,3.6-6.2,5
				c-2.1,0.9-3,1.8-4.1,3.8C-300.2,290.3-300.3,290.3-300.4,290.3z"/>
			<path class="st7" d="M-298.5,290.3c-0.2-0.1-0.2-0.2-0.1-0.3c0.9-1,1.9-1.6,3.1-2.3c2.4-1.1,5.1-2.6,6.6-5.4
				c0.6-1.1,1.2-2.6,1.9-4.3c1-2.6,2.3-5.6,3.7-7.4c0.4-0.5,0.8-0.9,1.1-1.3c0.1-0.1,0.2-0.1,0.3-0.1c0.1,0.1,0.1,0.2,0,0.3
				c-0.4,0.5-0.9,0.9-1.1,1.3c-1.4,1.7-2.6,4.6-3.6,7.3c-0.7,1.6-1.2,3.2-1.9,4.4c-1.6,2.9-4.4,4.5-6.8,5.7
				c-1.4,0.7-2.3,1.2-2.9,2.1C-298.3,290.3-298.4,290.3-298.5,290.3z"/>
			<path class="st7" d="M-295.7,290.3C-295.8,290.3-295.8,290.3-295.7,290.3c-0.2-0.2-0.1-0.3,0-0.4c0.4-0.3,0.9-0.7,1.6-1l0.7-0.4
				c3.7-2.3,5.2-3.2,6.1-6c0.5-1.6,2.2-5.2,3.9-8.2c0.1-0.1,0.2-0.2,0.3-0.1c0.1,0,0.1,0.1,0.1,0.2c-1.6,2.9-3.3,6.5-3.9,8.1
				c-0.9,2.9-2.6,4-6.3,6.2l-0.7,0.4C-294.7,289.6-295.2,289.9-295.7,290.3C-295.6,290.3-295.6,290.3-295.7,290.3z"/>
			<path class="st7" d="M-292.4,290.4L-292.4,290.4c-0.2-0.1-0.2-0.2-0.1-0.3c0.8-0.7,1.5-1.2,2.1-1.5c1.5-0.7,3.7-2.8,4.3-4.4
				c0-0.1,0.1-0.3,0.2-0.5c0-0.1,0.1-0.2,0.3-0.2c0.1,0,0.2,0.1,0.1,0.2c-0.1,0.2-0.1,0.4-0.2,0.5c-0.7,1.8-2.9,4.1-4.5,4.8
				C-290.9,289.3-291.5,289.7-292.4,290.4C-292.2,290.4-292.3,290.4-292.4,290.4z"/>
			<path class="st7" d="M-289.5,290.4L-289.5,290.4c-0.2-0.1-0.2-0.2-0.1-0.3c1.2-1.2,2.2-1.8,2.8-2.2c0.1-0.1,0.2,0,0.3,0.1
				c0,0.1,0,0.2-0.1,0.3c-0.7,0.4-1.5,0.9-2.7,2.1C-289.5,290.4-289.5,290.4-289.5,290.4z"/>
			<path class="st7" d="M-329.1,270.8L-329.1,270.8c-0.2,0-0.2-0.2-0.1-0.3c2.3-2.6,3.5-4.6,4.9-6.8c0.4-0.6,0.8-1.1,1.1-1.8
				c2.6-4.1,6.6-8.5,9.7-9.3c1-0.3,2.3-0.4,3.5-0.6c2.4-0.3,4.8-0.5,6.8-1.7c1.6-1,3.5-2.3,4.9-3.3c0.1-0.1,0.2-0.1,0.3,0
				c0.1,0.1,0,0.2-0.1,0.3c-1.4,1-3.3,2.3-4.9,3.3c-2.1,1.3-4.5,1.6-7,1.8c-1.4,0.2-2.6,0.4-3.6,0.6c-2.9,0.8-6.8,5.1-9.4,9.1
				c-0.4,0.6-0.8,1.2-1.1,1.8c-1.3,2.2-2.6,4.4-4.9,6.9C-328.9,270.8-329,270.8-329.1,270.8z"/>
			<path class="st7" d="M-328,266.4c-0.2-0.1-0.2-0.2-0.1-0.3c1.8-2.3,3.3-4.4,4.5-6.4c0.5-0.8,1-1.5,1.4-2.1l0.1-0.2
				c2.4-3.3,4.2-6,7.5-6.3l0.8-0.1c3.1-0.4,7.3-0.9,9.6-2.2c0.7-0.4,1.5-0.9,2.5-1.7c0.1-0.1,0.2-0.1,0.3,0c0.1,0.1,0,0.2-0.1,0.3
				c-1,0.8-1.8,1.3-2.6,1.8c-2.3,1.4-6.6,1.9-9.7,2.3l-0.8,0.1c-3,0.4-4.7,2.7-7.1,6.1l-0.1,0.2c-0.5,0.7-0.9,1.3-1.4,2.1
				C-324.6,261.8-326.2,264.1-328,266.4C-327.9,266.4-327.9,266.4-328,266.4z"/>
			<path class="st7" d="M-326.9,262.2C-327,262.2-327,262.2-326.9,262.2c-0.2-0.1-0.2-0.2-0.1-0.3c1.5-2.1,2.9-4.3,4.3-6.1
				c0.8-1.1,1.4-2.2,2-2.9c2.3-3.2,5.7-3.6,8.8-3.6c1.5,0,3.8-0.7,6.1-1.9c0.1-0.1,0.2,0,0.3,0.1c0,0.1,0,0.2-0.1,0.3
				c-2.4,1.1-4.7,1.9-6.3,1.9c-3,0.1-6.2,0.4-8.3,3.4c-0.6,0.8-1.2,1.8-2,2.9c-1.2,1.8-2.7,4.2-4.3,6.2
				C-326.8,262.1-326.9,262.2-326.9,262.2z"/>
			<path class="st7" d="M-325.2,255.7C-325.2,255.7-325.3,255.7-325.2,255.7c-0.2-0.1-0.2-0.2-0.1-0.3c1-1.3,1.9-2.7,2.6-4.1
				c1.6-3.1,4-3.4,7.3-3.6c1,0,2.3-0.3,3.7-0.7c0.1,0,0.2,0,0.2,0.1s-0.1,0.2-0.2,0.2c-1.4,0.4-2.7,0.7-3.9,0.7
				c-3.7,0.1-5.5,0.7-6.8,3.3c-0.8,1.4-1.6,2.8-2.7,4.2C-325,255.6-325.1,255.7-325.2,255.7z"/>
			<path class="st7" d="M-324.4,252.6C-324.4,252.6-324.5,252.6-324.4,252.6c-0.2,0-0.2-0.2-0.1-0.3c0.5-0.7,0.9-1.4,1.3-2.3
				c0.8-1.4,1.8-2.4,3-3c0.1-0.1,0.2,0,0.3,0.1c0,0.1,0,0.2-0.1,0.3c-1.2,0.6-2.1,1.5-2.8,2.7c-0.5,0.9-0.9,1.7-1.4,2.4
				C-324.3,252.6-324.4,252.6-324.4,252.6z"/>
		</g>
		<path class="st10" d="M-249.4,261.2l-0.1,1.7c-1.6-0.1-3.3-0.1-5-0.1c0,1.6,0,3.6,0,6.1c0,2.6,0,5.5,0.1,8.4h-2.3
			c0.1-2.8,0.2-5.7,0.2-8.4c0-2.4,0-4.4-0.1-6.1c-1.2,0-2.9,0.1-5.1,0.2l0.1-1.8H-249.4L-249.4,261.2z"/>
		<path class="st10" d="M-236.7,275.4l-0.1,1.9h-9.9c0.1-2.6,0.2-5.4,0.2-8.4c0-2.9-0.1-5.5-0.2-7.7h9.4l-0.1,1.8
			c-2.3-0.1-4.6-0.2-7.2-0.2c0.1,1.3,0.1,3,0.1,5.2c2.2,0,4.2-0.1,5.9-0.2v1.8c-1.8-0.1-3.8-0.1-5.9-0.1c0,2.1,0,4.1,0.1,6
			C-241.8,275.6-239.1,275.6-236.7,275.4z"/>
		<path class="st10" d="M-221.8,277.3h-2.6c0-0.3-0.7-1.5-1.9-3.6c-1.2-2-2.1-3.3-2.6-4.1h-0.1c-0.5,0.7-1.2,2-2.3,4
			c-1.1,2.1-1.6,3.3-1.6,3.7h-2.6c0-0.3,0.9-1.7,2.6-4.3c1.7-2.6,2.8-4.1,3.2-4.4v-0.1c-0.5-0.5-1.3-1.8-2.7-3.8
			c-1.4-2.1-2.2-3.2-2.2-3.5h2.6c0,0.3,0.5,1.2,1.5,2.8c0.9,1.6,1.7,2.7,2.1,3.2h0.1c0.4-0.5,1.1-1.6,2-3.2c0.9-1.6,1.4-2.6,1.4-2.8
			h2.6c0,0.2-0.8,1.3-2.3,3.3c-1.4,1.9-2.5,3.1-3,3.7v0.1c0.7,0.7,1.7,2.3,3.3,4.7C-222.7,275.6-221.8,277-221.8,277.3z"/>
		<path class="st10" d="M-207.6,277.3h-2.4c0.1-2.8,0.1-5.4,0.1-7.7h-7.4c0,1.8,0,4.4,0.1,7.7h-2.4c0.1-3,0.2-5.9,0.2-8.4
			c0-2.7-0.1-5.3-0.2-7.7h2.4c-0.1,2.4-0.2,4.6-0.2,6.9h7.5c0-1.8-0.1-4.1-0.2-6.9h2.4c-0.1,2.3-0.2,4.8-0.2,7.7
			C-207.7,271.9-207.6,274.7-207.6,277.3z"/>
		<path class="st10" d="M-188.8,268.9c0,2.6-0.8,4.8-2.4,6.4c-1.5,1.6-3.4,2.4-5.4,2.4c-2,0-3.7-0.8-5.2-2.2c-1.5-1.4-2.2-3.4-2.2-6
			c0-2.7,0.8-4.8,2.4-6.4c1.6-1.6,3.4-2.4,5.4-2.4c2,0,3.7,0.8,5.2,2.2C-189.6,264.5-188.8,266.5-188.8,268.9z M-191.1,269.2
			c0-2.1-0.6-3.8-1.7-4.9c-1.1-1.1-2.4-1.8-3.9-1.8c-1.3,0-2.6,0.6-3.6,1.8c-1,1.2-1.6,2.8-1.6,4.9c0,2.2,0.6,3.8,1.7,4.9
			c1.1,1.1,2.5,1.8,3.9,1.8c1.3,0,2.6-0.7,3.6-1.9C-191.6,272.9-191.1,271.3-191.1,269.2z"/>
		<path class="st10" d="M-174.5,261.2c-0.1,2.6-0.2,5.1-0.2,7.6c0,3,0.1,5.9,0.2,8.5h-2.3c0.1-2.3,0.1-5,0.1-8.1
			c0-2.5,0-4.6-0.1-6.4h-3c-0.1,0.4-0.2,0.9-0.4,1.5s-0.4,1.3-0.6,2.1c-0.3,0.8-0.5,1.5-0.9,2.4c-0.3,0.9-0.7,1.7-1,2.5
			c-0.4,0.9-0.8,1.6-1.1,2.4c-0.4,0.8-0.9,1.4-1.2,2c-0.4,0.6-0.9,1-1.3,1.4c-0.5,0.4-0.9,0.6-1.3,0.6l-0.1-2.3
			c0.2-0.1,0.5-0.2,0.8-0.6c0.3-0.3,0.6-0.8,0.9-1.2c0.4-0.5,0.7-1,0.9-1.7c0.4-0.7,0.7-1.3,1-2.1c0.4-0.8,0.7-1.5,0.9-2.3
			c0.3-0.8,0.6-1.5,0.9-2.3c0.3-0.8,0.5-1.5,0.7-2.2c0.2-0.7,0.3-1.3,0.4-1.9h6.7V261.2z"/>
		<path class="st10" d="M-155.7,268.9c0,2.6-0.8,4.8-2.4,6.4c-1.5,1.6-3.4,2.4-5.4,2.4c-2,0-3.7-0.8-5.2-2.2c-1.5-1.4-2.2-3.4-2.2-6
			c0-2.7,0.8-4.8,2.4-6.4c1.6-1.6,3.4-2.4,5.4-2.4c2,0,3.7,0.8,5.2,2.2C-156.5,264.5-155.7,266.5-155.7,268.9z M-158,269.2
			c0-2.1-0.6-3.8-1.7-4.9c-1.1-1.1-2.4-1.8-3.9-1.8c-1.3,0-2.6,0.6-3.6,1.8c-1,1.2-1.6,2.8-1.6,4.9c0,2.2,0.6,3.8,1.7,4.9
			c1.1,1.1,2.5,1.8,3.9,1.8c1.3,0,2.6-0.7,3.6-1.9C-158.5,272.9-158,271.3-158,269.2z"/>
		<path class="st10" d="M-142.7,261.2l-0.1,2c-2.9-0.1-5.4-0.1-7.4-0.1c0.1,1.6,0.1,3.8,0.1,6.6c0,3.4,0.1,6,0.2,7.7h-2.3
			c0.1-2,0.2-4.5,0.2-7.7c0-3.6-0.1-6.4-0.2-8.4L-142.7,261.2L-142.7,261.2z"/>
		<path class="st10" d="M-127.4,277.3h-2.4c0.1-1.5,0.2-3.8,0.2-6.9c0-1.4,0-3.2,0.1-5.3h-0.2c-0.3,0.9-1.8,2.9-4.6,6.3
			c-2.6,3.1-3.9,5.1-3.9,5.9h-1.7c0.1-2.2,0.2-4.7,0.2-7.7c0-2.9-0.1-5.8-0.2-8.4h2.4c-0.1,2.3-0.2,4.7-0.2,7.5c0,1.4,0,3-0.1,4.7
			h0.1c0.4-0.9,1.9-2.9,4.7-6.3c2.6-3,3.9-5,3.9-6h1.7c-0.1,2.6-0.2,5.5-0.2,8.4C-127.6,272.5-127.6,275.1-127.4,277.3z"/>
		<path class="st10" d="M-110.3,277.3h-2.4c0.1-1.5,0.2-3.8,0.2-6.9c0-1.4,0-3.2,0.1-5.3h-0.1c-0.3,0.9-1.8,2.9-4.6,6.3
			c-2.6,3.1-3.9,5.1-3.9,5.9h-1.7c0.1-2.2,0.2-4.7,0.2-7.7c0-2.9-0.1-5.8-0.2-8.4h2.4c-0.1,2.3-0.2,4.7-0.2,7.5c0,1.4,0,3-0.1,4.7
			h0.1c0.4-0.9,1.9-2.9,4.7-6.3c2.6-3,3.9-5,3.9-6h1.7c-0.1,2.6-0.2,5.5-0.2,8.4C-110.5,272.5-110.4,275.1-110.3,277.3z"/>
		<path class="st10" d="M-89.3,261.2c-0.1,2.6-0.2,5.1-0.2,7.6c0,3,0.1,5.9,0.2,8.5h-2.3c0.1-2.3,0.1-5,0.1-8.1c0-2.5,0-4.6-0.1-6.4
			h-3c-0.1,0.4-0.2,0.9-0.4,1.5c-0.2,0.7-0.4,1.3-0.6,2.1c-0.3,0.8-0.5,1.5-0.9,2.4c-0.3,0.9-0.7,1.7-1,2.5
			c-0.4,0.9-0.8,1.6-1.1,2.4c-0.4,0.8-0.9,1.4-1.2,2c-0.4,0.6-0.9,1-1.3,1.4c-0.5,0.4-0.9,0.6-1.3,0.6l-0.1-2.3
			c0.2-0.1,0.5-0.2,0.8-0.6c0.3-0.3,0.6-0.8,0.9-1.2c0.4-0.5,0.7-1,0.9-1.7c0.4-0.7,0.7-1.3,1-2.1c0.4-0.8,0.7-1.5,0.9-2.3
			s0.6-1.5,0.9-2.3c0.3-0.8,0.5-1.5,0.7-2.2c0.2-0.7,0.3-1.3,0.4-1.9h6.7V261.2z"/>
		<path class="st10" d="M-74.6,275.4l-0.1,1.9h-9.9c0.1-2.6,0.2-5.4,0.2-8.4c0-2.9-0.1-5.5-0.2-7.7h9.4l-0.1,1.8
			c-2.3-0.1-4.6-0.2-7.2-0.2c0.1,1.3,0.1,3,0.1,5.2c2.2,0,4.2-0.1,5.9-0.2v1.8c-1.8-0.1-3.8-0.1-5.9-0.1c0,2.1,0,4.1,0.1,6
			C-79.7,275.6-77.1,275.6-74.6,275.4z"/>
		<path class="st10" d="M-60.6,275.3l-0.2,1.8c-1,0.3-2.1,0.5-3.3,0.5c-2.8,0-5-0.8-6.4-2.4c-1.4-1.5-2.2-3.5-2.2-5.7
			c0-2.4,0.8-4.4,2.4-6.1s3.7-2.6,6.4-2.6c0.8,0,1.5,0.1,2.4,0.4l-0.4,2c-0.9-0.3-1.8-0.5-2.6-0.5c-2,0-3.5,0.7-4.5,1.9
			c-1,1.2-1.5,2.7-1.5,4.5c0,1.8,0.6,3.4,1.8,4.7c1.2,1.3,2.8,2,4.9,2C-62.9,275.8-61.8,275.7-60.6,275.3z"/>
		<path class="st10" d="M-44.4,277.3h-2.6c0-0.6-0.5-2.3-1.5-5.2h-7.1c-1,2.8-1.5,4.6-1.5,5.2h-2.6c0-0.3,1-2.9,3.2-7.9
			c2.1-5,3.2-7.7,3.2-8.2h2.8c0,0.5,1,3.2,3,8C-45.5,274-44.4,276.8-44.4,277.3z M-49.1,270.5c-1.9-4.8-2.9-7.4-2.9-7.8h-0.1
			c0,0.3-1,2.8-3,7.8H-49.1z"/>
		<path class="st11" d="M-256.4,293.4h-0.5v-4h-2.7v4h-0.5V289h3.7V293.4z"/>
		<path class="st11" d="M-249.4,291.3c0,1.3-1,2.3-2.3,2.3c-0.9,0-1.5-0.5-1.9-1.1v2.8h-0.5V289h0.5v1c0.4-0.7,1-1.1,1.9-1.1
			C-250.5,288.9-249.4,289.9-249.4,291.3z M-249.9,291.3c0-1-0.9-1.9-1.9-1.9c-1,0-1.9,0.9-1.9,1.9c0,1,0.9,1.9,1.9,1.9
			C-250.7,293.2-249.9,292.3-249.9,291.3z"/>
		<path class="st11" d="M-247.7,291.3c0-1.3,1-2.3,2.4-2.3c1.3,0,2.4,1,2.4,2.3s-1,2.3-2.4,2.3
			C-246.7,293.5-247.7,292.6-247.7,291.3z M-243.6,291.3c0-1-0.9-1.9-1.9-1.9c-1,0-1.9,0.9-1.9,1.9c0,1,0.9,1.9,1.9,1.9
			C-244.4,293.2-243.6,292.3-243.6,291.3z"/>
		<path class="st11" d="M-238.7,293.5v1.7h-0.5v-1.7c-1.4-0.1-2.4-1-2.4-2.3s0.9-2.3,2.4-2.3v-1.7h0.5v1.7c1.4,0.1,2.4,1,2.4,2.3
			S-237.2,293.4-238.7,293.5z M-239.1,293.2v-3.8c-1.1,0.1-1.9,0.9-1.9,1.9C-241,292.3-240.3,293.1-239.1,293.2z M-236.8,291.3
			c0-1-0.8-1.8-1.9-1.9v3.8C-237.5,293.1-236.8,292.3-236.8,291.3z"/>
		<path class="st11" d="M-230.2,291.3c0,0.1,0,0.1,0,0.2h-4c0.1,1,0.9,1.7,1.9,1.7c0.8,0,1.2-0.4,1.5-0.9l0.4,0.2
			c-0.4,0.6-1,1-1.9,1c-1.3,0-2.4-0.9-2.4-2.3c0-1.3,0.9-2.3,2.3-2.3C-231,288.9-230.2,290-230.2,291.3z M-234.2,291.1h3.6
			c-0.1-1-0.9-1.7-1.7-1.7C-233.4,289.4-234.1,290-234.2,291.1z"/>
		<path class="st11" d="M-228.5,291.3c0-1.3,0.9-2.3,2.4-2.3c0.9,0,1.6,0.5,1.9,1.1l-0.4,0.2c-0.3-0.6-0.9-0.9-1.6-0.9
			c-1,0-1.9,0.9-1.9,1.9c0,1,0.9,1.9,1.9,1.9c0.8,0,1.3-0.4,1.6-0.9l0.4,0.2c-0.4,0.7-1.1,1.1-2,1.1
			C-227.5,293.5-228.5,292.6-228.5,291.3z"/>
		<path class="st11" d="M-222.7,291.3c0-1.3,0.9-2.3,2.4-2.3c0.9,0,1.6,0.5,1.9,1.1l-0.4,0.2c-0.3-0.6-0.9-0.9-1.6-0.9
			c-1,0-1.9,0.9-1.9,1.9c0,1,0.9,1.9,1.9,1.9c0.8,0,1.3-0.4,1.6-0.9l0.4,0.2c-0.4,0.7-1.1,1.1-2,1.1
			C-221.7,293.5-222.7,292.6-222.7,291.3z"/>
		<path class="st11" d="M-212.9,289v4.4h-0.5v-3.7l-2.8,3.7h-0.4V289h0.5v3.7l2.8-3.7H-212.9z"/>
		<path class="st11" d="M-211,291.3c0-1.3,1-2.3,2.4-2.3s2.4,1,2.4,2.3s-1,2.3-2.4,2.3S-211,292.6-211,291.3z M-206.8,291.3
			c0-1-0.9-1.9-1.9-1.9c-1,0-1.9,0.9-1.9,1.9c0,1,0.9,1.9,1.9,1.9C-207.6,293.2-206.8,292.3-206.8,291.3z"/>
		<path class="st11" d="M-200.7,289v4.4h-0.5v-2h-2.7v2h-0.5V289h0.5v2h2.7v-2H-200.7z"/>
		<path class="st11" d="M-194.1,289v4.4h-0.5v-1c-0.4,0.7-1,1.1-1.9,1.1c-1.2,0-2.3-1-2.3-2.3s1-2.3,2.3-2.3c0.9,0,1.5,0.5,1.9,1.1
			v-1L-194.1,289L-194.1,289z M-194.5,291.3c0-1-0.9-1.9-1.9-1.9c-1,0-1.9,0.9-1.9,1.9c0,1,0.9,1.9,1.9,1.9
			C-195.4,293.2-194.5,292.3-194.5,291.3z"/>
		<path class="st11" d="M-188.3,293.4h-0.5v-4h-2.3v2.2c0,1.5-0.7,1.9-1.5,1.9v-0.4c0.7,0.1,1-0.3,1-1.4v-2.6h3.1L-188.3,293.4
			L-188.3,293.4z"/>
		<path class="st11" d="M-182.8,292.1c0,0.9-0.7,1.3-1.4,1.3h-1.8V289h0.5v1.7h1.3C-183.4,290.8-182.8,291.3-182.8,292.1z
			 M-183.2,292.1c0-0.6-0.5-0.9-1-0.9h-1.2v1.8h1.3C-183.7,293.1-183.2,292.7-183.2,292.1z"/>
		<path class="st11" d="M-177.3,289v4.4h-0.5v-2h-2.7v2h-0.5V289h0.5v2h2.7v-2H-177.3z"/>
		<path class="st11" d="M-175.3,291.3c0-1.3,1-2.3,2.4-2.3c1.3,0,2.4,1,2.4,2.3s-1,2.3-2.4,2.3
			C-174.3,293.5-175.3,292.6-175.3,291.3z M-171.1,291.3c0-1-0.9-1.9-1.9-1.9c-1,0-1.9,0.9-1.9,1.9c0,1,0.9,1.9,1.9,1.9
			C-171.9,293.2-171.1,292.3-171.1,291.3z"/>
		<path class="st11" d="M-165.8,291.3c0-1.3,1-2.3,2.4-2.3s2.4,1,2.4,2.3s-1,2.3-2.4,2.3S-165.8,292.6-165.8,291.3z M-161.6,291.3
			c0-1-0.9-1.9-1.9-1.9c-1,0-1.9,0.9-1.9,1.9c0,1,0.9,1.9,1.9,1.9C-162.3,293.2-161.6,292.3-161.6,291.3z"/>
		<path class="st11" d="M-156.4,293.4l-2.4-2.2v2.2h-0.5V289h0.5v2l2.3-2h0.7l-2.4,2.1l2.5,2.3L-156.4,293.4L-156.4,293.4z"/>
		<path class="st11" d="M-149.3,291.3c0,1.3-1,2.3-2.3,2.3c-0.9,0-1.5-0.5-1.9-1.1v2.8h-0.5V289h0.5v1c0.4-0.7,1-1.1,1.9-1.1
			C-150.3,288.9-149.3,289.9-149.3,291.3z M-149.8,291.3c0-1-0.9-1.9-1.9-1.9c-1,0-1.9,0.9-1.9,1.9c0,1,0.9,1.9,1.9,1.9
			C-150.6,293.2-149.8,292.3-149.8,291.3z"/>
		<path class="st11" d="M-143.1,289v4.4h-0.5v-1c-0.4,0.7-1,1.1-1.9,1.1c-1.2,0-2.3-1-2.3-2.3s1-2.3,2.3-2.3c0.9,0,1.5,0.5,1.9,1.1
			v-1L-143.1,289L-143.1,289z M-143.4,291.3c0-1-0.9-1.9-1.9-1.9c-1,0-1.9,0.9-1.9,1.9c0,1,0.9,1.9,1.9,1.9
			C-144.3,293.2-143.4,292.3-143.4,291.3z"/>
		<path class="st11" d="M-134.9,289v4.4h-5.9V289h0.5v4h2.3v-4h0.5v4h2.3v-4H-134.9z"/>
		<path class="st11" d="M-128.5,291.3c0,0.1,0,0.1,0,0.2h-4c0.1,1,0.9,1.7,1.9,1.7c0.8,0,1.2-0.4,1.5-0.9l0.4,0.2
			c-0.4,0.6-1,1-1.9,1c-1.3,0-2.4-0.9-2.4-2.3c0-1.3,0.9-2.3,2.3-2.3C-129.3,288.9-128.5,290-128.5,291.3z M-132.5,291.1h3.6
			c-0.1-1-0.9-1.7-1.7-1.7C-131.6,289.4-132.4,290-132.5,291.1z"/>
		<path class="st11" d="M-122.9,289v4.4h-0.5v-2h-2.7v2h-0.5V289h0.5v2h2.7v-2H-122.9z"/>
		<path class="st11" d="M-116.9,289v4.4h-0.5v-2h-2.7v2h-0.5V289h0.5v2h2.7v-2H-116.9z"/>
		<path class="st11" d="M-111.5,292.1c0,0.9-0.7,1.3-1.4,1.3h-1.8V289h0.5v1.7h1.3C-112.1,290.8-111.5,291.3-111.5,292.1z
			 M-111.9,292.1c0-0.6-0.5-0.9-1-0.9h-1.3v1.8h1.3C-112.4,293.1-111.9,292.7-111.9,292.1z M-110.3,289v4.4h-0.5V289H-110.3z"/>
		<path class="st11" d="M-103.9,291.3c0,0.1,0,0.1,0,0.2h-4.1c0.1,1,0.9,1.7,1.9,1.7c0.8,0,1.2-0.4,1.5-0.9l0.4,0.2
			c-0.4,0.6-1,1-1.9,1c-1.3,0-2.4-0.9-2.4-2.3c0-1.3,0.9-2.3,2.3-2.3C-104.7,288.9-103.9,290-103.9,291.3z M-108,291.1h3.6
			c-0.1-1-0.9-1.7-1.7-1.7C-107.1,289.4-107.9,290-108,291.1z"/>
		<path class="st11" d="M-94.4,293.4h-0.5v-3.8l-1.7,2.6l-1.7-2.6v3.8h-0.5V289h0.6l1.6,2.6l1.6-2.6h0.6V293.4L-94.4,293.4z"/>
		<path class="st11" d="M-87.8,289v4.4h-0.5v-1c-0.4,0.7-1,1.1-1.9,1.1c-1.2,0-2.3-1-2.3-2.3s1-2.3,2.3-2.3c0.9,0,1.5,0.5,1.9,1.1
			v-1L-87.8,289L-87.8,289z M-88.3,291.3c0-1-0.9-1.9-1.9-1.9c-1,0-1.9,0.9-1.9,1.9c0,1,0.9,1.9,1.9,1.9
			C-89.1,293.2-88.3,292.3-88.3,291.3z"/>
		<path class="st11" d="M-82.5,289.5h-1.6v4h-0.5v-4h-1.6V289h3.7V289.5z"/>
		<path class="st11" d="M-76.9,291.3c0,0.1,0,0.1,0,0.2h-4c0.1,1,0.9,1.7,1.9,1.7c0.8,0,1.2-0.4,1.5-0.9l0.4,0.2c-0.4,0.6-1,1-1.9,1
			c-1.3,0-2.4-0.9-2.4-2.3c0-1.3,0.9-2.3,2.3-2.3C-77.7,288.9-76.9,290-76.9,291.3z M-80.8,291.1h3.6c-0.1-1-0.9-1.7-1.7-1.7
			C-80,289.4-80.7,290-80.8,291.1z"/>
		<path class="st11" d="M-70.2,291.3c0,1.3-1,2.3-2.3,2.3c-0.9,0-1.5-0.5-1.9-1.1v2.8h-0.5V289h0.5v1c0.4-0.7,1-1.1,1.9-1.1
			C-71.3,288.9-70.2,289.9-70.2,291.3z M-70.7,291.3c0-1-0.9-1.9-1.9-1.9c-1,0-1.9,0.9-1.9,1.9c0,1,0.9,1.9,1.9,1.9
			C-71.6,293.2-70.7,292.3-70.7,291.3z"/>
		<path class="st11" d="M-64.6,289v4.4h-0.5v-3.7l-2.8,3.7h-0.3V289h0.5v3.7l2.8-3.7H-64.6z"/>
		<path class="st11" d="M-58,289v4.4h-0.5v-1c-0.4,0.7-1,1.1-1.9,1.1c-1.2,0-2.3-1-2.3-2.3s1-2.3,2.3-2.3c0.9,0,1.5,0.5,1.9,1.1v-1
			L-58,289L-58,289z M-58.5,291.3c0-1-0.9-1.9-1.9-1.9c-1,0-1.9,0.9-1.9,1.9c0,1,0.9,1.9,1.9,1.9C-59.3,293.2-58.5,292.3-58.5,291.3
			z"/>
		<path class="st11" d="M-52.2,293.4h-0.5v-4h-2.3v2.2c0,1.5-0.7,1.9-1.5,1.9v-0.4c0.7,0.1,1-0.3,1-1.4v-2.6h3.1L-52.2,293.4
			L-52.2,293.4z"/>
		<path class="st11" d="M-46.7,292.1c0,0.9-0.7,1.3-1.4,1.3h-1.8V289h0.5v1.7h1.3C-47.3,290.8-46.7,291.3-46.7,292.1z M-47.2,292.1
			c0-0.6-0.5-0.9-1-0.9h-1.3v1.8h1.3C-47.6,293.1-47.2,292.7-47.2,292.1z M-45.5,289v4.4H-46V289H-45.5z"/>
		<path class="st11" d="M-256.4,299.7v4.4h-0.5v-3.7l-2.8,3.7h-0.4v-4.4h0.5v3.7l2.8-3.7H-256.4z"/>
		<path class="st11" d="M-251.2,302.9c0,0.7-0.6,1.3-1.6,1.3c-0.9,0-1.5-0.5-1.7-1l0.4-0.2c0.2,0.5,0.6,0.9,1.3,0.9s1.1-0.4,1.1-0.9
			s-0.4-0.9-0.9-0.9h-0.6v-0.5h0.5c0.6,0,0.9-0.3,0.9-0.9c0-0.5-0.4-0.9-1-0.9c-0.6,0-1,0.3-1.2,0.8l-0.4-0.2
			c0.3-0.6,0.8-0.9,1.6-0.9c0.9,0,1.5,0.6,1.5,1.2c0,0.5-0.2,0.9-0.7,1C-251.4,301.9-251.2,302.4-251.2,302.9z"/>
		<path class="st11" d="M-241.7,304.1h-0.5v-3.8l-1.7,2.6h-0.1l-1.7-2.6v3.8h-0.4v-4.4h0.6l1.6,2.6l1.6-2.6h0.6V304.1z"/>
		<path class="st11" d="M-235.1,299.7v4.4h-0.5v-1c-0.4,0.7-1,1.1-1.9,1.1c-1.2,0-2.3-1-2.3-2.3c0-1.2,1-2.3,2.3-2.3
			c0.9,0,1.5,0.5,1.9,1.1v-1L-235.1,299.7L-235.1,299.7z M-235.5,301.9c0-1-0.9-1.9-1.9-1.9c-1,0-1.9,0.9-1.9,1.9
			c0,1,0.9,1.9,1.9,1.9C-236.4,303.7-235.5,303-235.5,301.9z"/>
		<path class="st11" d="M-233.2,301.9c0-1.3,0.9-2.3,2.4-2.3c0.9,0,1.6,0.5,1.9,1.1l-0.4,0.2c-0.3-0.6-0.9-0.9-1.6-0.9
			c-1,0-1.9,0.9-1.9,1.9c0,1,0.9,1.9,1.9,1.9c0.8,0,1.3-0.4,1.6-0.9l0.4,0.2c-0.4,0.7-1.1,1.1-2,1.1
			C-232.1,304.2-233.2,303.2-233.2,301.9z"/>
		<path class="st11" d="M-227.3,301.9c0-1.3,0.9-2.3,2.4-2.3c0.9,0,1.6,0.5,1.9,1.1l-0.4,0.2c-0.3-0.6-0.9-0.9-1.6-0.9
			c-1,0-1.9,0.9-1.9,1.9c0,1,0.9,1.9,1.9,1.9c0.8,0,1.3-0.4,1.6-0.9l0.4,0.2c-0.4,0.7-1.1,1.1-2,1.1
			C-226.4,304.2-227.3,303.2-227.3,301.9z"/>
		<path class="st11" d="M-217.5,299.7v4.4h-0.5v-3.7l-2.8,3.7h-0.4v-4.4h0.5v3.7l2.8-3.7H-217.5z"/>
		<path class="st11" d="M-211.8,302.9c0,0.7-0.5,1.2-1.3,1.2h-2.2v-4.4h2c0.9,0,1.3,0.5,1.3,1.1c0,0.5-0.2,0.8-0.6,0.9
			C-212,301.9-211.8,302.4-211.8,302.9z M-214.8,300.2v1.5h1.5c0.6,0,0.9-0.3,0.9-0.8s-0.3-0.8-0.9-0.8H-214.8L-214.8,300.2z
			 M-212.2,302.9c0-0.5-0.4-0.8-0.9-0.8h-1.7v1.6h1.7C-212.6,303.7-212.2,303.4-212.2,302.9z"/>
		<path class="st11" d="M-205.6,299.7v4.4h-0.5v-1c-0.4,0.7-1,1.1-1.9,1.1c-1.2,0-2.3-1-2.3-2.3c0-1.2,1-2.3,2.3-2.3
			c0.9,0,1.5,0.5,1.9,1.1v-1L-205.6,299.7L-205.6,299.7z M-206,301.9c0-1-0.9-1.9-1.9-1.9c-1,0-1.9,0.9-1.9,1.9c0,1,0.9,1.9,1.9,1.9
			C-206.8,303.7-206,303-206,301.9z"/>
		<path class="st11" d="M-195.8,303.7v1.6h-0.5V304h-3.8v1.2h-0.5v-1.6h0.5c0.3-0.4,0.5-0.9,0.5-1.8v-2.2h3.1v4H-195.8L-195.8,303.7
			z M-196.9,303.7v-3.6h-2.2v1.8c0,0.8-0.1,1.3-0.4,1.8H-196.9z"/>
		<path class="st11" d="M-190,301.9c0,0.1,0,0.2,0,0.2h-4c0.1,1,0.9,1.7,1.9,1.7c0.8,0,1.2-0.4,1.5-0.9l0.4,0.2c-0.4,0.6-1,1-1.9,1
			c-1.3,0-2.4-0.9-2.4-2.3c0-1.3,0.9-2.3,2.3-2.3C-190.7,299.6-190,300.7-190,301.9z M-193.9,301.7h3.6c-0.1-1-0.9-1.7-1.7-1.7
			C-193.1,300-193.8,300.7-193.9,301.7z"/>
		<path class="st11" d="M-183.3,301.9c0,1.3-1,2.3-2.3,2.3c-0.9,0-1.5-0.5-1.9-1.1v2.8h-0.5v-6.2h0.5v1c0.4-0.7,1-1.1,1.9-1.1
			C-184.4,299.6-183.3,300.5-183.3,301.9z M-183.8,301.9c0-1-0.9-1.9-1.9-1.9c-1,0-1.9,0.9-1.9,1.9c0,1,0.9,1.9,1.9,1.9
			C-184.6,303.7-183.8,303-183.8,301.9z"/>
		<path class="st11" d="M-177.2,301.9c0,0.1,0,0.2,0,0.2h-4c0.1,1,0.9,1.7,1.9,1.7c0.8,0,1.2-0.4,1.5-0.9l0.4,0.2
			c-0.4,0.6-1,1-1.9,1c-1.3,0-2.4-0.9-2.4-2.3c0-1.3,0.9-2.3,2.3-2.3C-178,299.6-177.2,300.7-177.2,301.9z M-181.3,301.7h3.6
			c-0.1-1-0.9-1.7-1.7-1.7C-180.4,300-181.2,300.7-181.3,301.7z"/>
		<path class="st11" d="M-171.8,302.9c0,0.7-0.5,1.2-1.3,1.2h-2.2v-4.4h2c0.9,0,1.3,0.5,1.3,1.1c0,0.5-0.2,0.8-0.6,0.9
			C-172,301.9-171.8,302.4-171.8,302.9z M-174.8,300.2v1.5h1.5c0.6,0,0.9-0.3,0.9-0.8s-0.3-0.8-0.9-0.8H-174.8L-174.8,300.2z
			 M-172.2,302.9c0-0.5-0.4-0.8-0.9-0.8h-1.7v1.6h1.7C-172.6,303.7-172.2,303.4-172.2,302.9z"/>
		<path class="st11" d="M-165.6,299.7v4.4h-0.5v-1c-0.4,0.7-1,1.1-1.9,1.1c-1.2,0-2.3-1-2.3-2.3c0-1.2,1-2.3,2.3-2.3
			c0.9,0,1.5,0.5,1.9,1.1v-1L-165.6,299.7L-165.6,299.7z M-166,301.9c0-1-0.9-1.9-1.9-1.9c-1,0-1.9,0.9-1.9,1.9c0,1,0.9,1.9,1.9,1.9
			C-166.8,303.7-166,303-166,301.9z"/>
	</g>
</g>
</svg>
