<svg height="512pt" viewBox="0 0 512 512" width="512pt" xmlns="http://www.w3.org/2000/svg"><path d="m512 256c0 141.386719-114.613281 256-256 256s-256-114.613281-256-256 114.613281-256 256-256 256 114.613281 256 256zm0 0" fill="#46b8fc"/><path d="m293.621094 383.757812-187.550782 79.757813c-5.609374-4.054687-11.054687-8.339844-16.308593-12.839844l19.539062-89.726562" fill="#663a91"/><path d="m397.40625 404.65625h-220.042969c-63.289062 0-114.59375-51.304688-114.59375-114.589844v-175.472656c0-63.289062 51.304688-114.59375 114.59375-114.59375h220.042969c63.289062 0 114.59375 51.304688 114.59375 114.59375v175.472656c0 63.285156-51.304688 114.589844-114.59375 114.589844zm0 0" fill="#663a91"/><g fill="#fff"><path d="m287.160156 30.5c77.496094 2.171875 141.148438 53.601562 154.789063 130.214844 2.324219 13.054687 3.152343 26.402344 4.183593 39.652344.4375 5.574218-2.71875 10.871093-8.734374 10.941406-6.214844.070312-9.007813-5.125-9.414063-10.695313-.796875-11.027343-1.347656-22.105469-2.867187-33.039062-8.023438-57.730469-54.054688-105.492188-111.515626-115.738281-8.648437-1.542969-17.5-1.949219-26.257812-2.867188-5.535156-.582031-12.789062-.917969-14.015625-7.800781-1.027344-5.769531 3.839844-10.367188 9.335937-10.660157 1.496094-.082031 3-.011718 4.496094-.007812 77.496094 2.171875-1.496094-.003906 0 0zm0 0"/><path d="m404.933594 183.167969c-.125.96875-.195313 3.246093-.757813 5.386719-2.058593 7.78125-13.855469 8.757812-16.570312.902343-.804688-2.328125-.925781-4.980469-.929688-7.488281-.027343-16.410156-3.59375-32.8125-11.871093-47.089844-8.511719-14.679687-21.511719-27.015625-36.757813-34.484375-9.21875-4.515625-19.1875-7.320312-29.292969-8.992187-4.417968-.730469-8.878906-1.171875-13.316406-1.789063-5.378906-.75-8.25-4.175781-7.996094-9.476562.238282-4.964844 3.867188-8.539063 9.277344-8.230469 17.785156 1.007812 34.960938 4.851562 50.773438 13.226562 32.152343 17.027344 50.519531 43.902344 55.882812 79.789063.242188 1.625.628906 3.238281.753906 4.871094.304688 4.027343.496094 8.0625.804688 13.375-.125.96875-.308594-5.3125 0 0zm0 0"/><path d="m356.730469 181.292969c-6.480469.117187-9.953125-3.472657-10.621094-9.414063-.464844-4.144531-.832031-8.347656-1.820313-12.378906-1.949218-7.941406-6.167968-15.300781-12.847656-20.167969-3.15625-2.300781-6.730468-3.976562-10.472656-5.054687-4.757812-1.371094-9.695312-.996094-14.441406-2.160156-5.152344-1.261719-8.003906-5.433594-7.191406-10.265626.734374-4.402343 5.015624-7.835937 9.820312-7.488281 30.046875 2.171875 51.519531 17.703125 54.582031 53.074219.21875 2.496094.472657 5.132812-.082031 7.519531-.945312 4.089844-3.972656 6.136719-6.925781 6.335938-6.480469.117187 2.953125-.199219 0 0zm0 0"/><path d="m202.824219 55.167969-19.925781-1.085938c-6.261719-.34375-12.398438 1.746094-17.132813 5.859375-9.660156 8.390625-25.109375 24.609375-29.855469 45.742188-7.074218 31.515625 3.859375 70.109375 32.160156 108.699218 28.300782 38.589844 81.039063 100.335938 174.300782 126.703126 30.050781 8.5 53.691406 2.769531 71.933594-8.898438 14.445312-9.238281 24.402343-24.070312 27.992187-40.839844l3.183594-14.859375c1.007812-4.722656-1.390625-9.515625-5.777344-11.539062l-67.347656-31.042969c-4.375-2.015625-9.558594-.742188-12.5 3.066406l-26.441407 34.277344c-1.996093 2.589844-5.414062 3.617188-8.503906 2.53125-18.105468-6.363281-78.757812-31.765625-112.039062-95.871094-1.441406-2.78125-1.082032-6.15625.964844-8.527344l25.269531-29.234374c2.578125-2.984376 3.234375-7.179688 1.683593-10.808594l-29.03125-67.921875c-1.546874-3.613281-5.007812-6.039063-8.933593-6.25zm0 0"/></g></svg>