<svg height="512pt" viewBox="0 0 512 512" width="512pt" xmlns="http://www.w3.org/2000/svg"><path d="m512 256c0 141.386719-114.613281 256-256 256-55.996094 0-107.792969-17.972656-149.933594-48.484375-5.609375-4.054687-11.054687-8.335937-16.308594-12.839844-54.941406-46.949219-89.757812-116.746093-89.757812-194.675781 0-141.386719 114.613281-256 256-256 5.382812 0 10.71875.167969 16.027344.5 126.421875 7.796875 228.007812 107.363281 238.992187 232.910156.644531 7.4375.980469 14.972656.980469 22.589844zm0 0" fill="#304e87"/><path d="m511.207031 224.214844c0 3.082031-.0625 6.144531-.1875 9.195312-4.828125 119.566406-103.289062 215.019532-224.039062 215.019532-34 0-66.234375-7.585938-95.105469-21.128907l-85.808594 36.214844c-5.609375-4.054687-11.054687-8.335937-16.308594-12.839844l19.539063-89.726562c-29.164063-37.847657-46.53125-85.253907-46.53125-136.734375 0-118.804688 92.402344-216.035156 209.261719-223.714844 4.945312-.332031 9.929687-.5 14.953125-.5 123.832031 0 224.226562 100.382812 224.226562 224.214844zm0 0" fill="#3fc37c"/><path d="m192.371094 65.617188-19.925782-1.085938c-6.261718-.34375-12.398437 1.75-17.132812 5.859375-9.660156 8.390625-25.109375 24.609375-29.855469 45.746094-7.074219 31.511719 3.859375 70.105469 32.160157 108.695312 28.300781 38.589844 81.039062 100.335938 174.300781 126.707031 30.050781 8.496094 53.691406 2.769532 71.933593-8.898437 14.445313-9.242187 24.402344-24.074219 27.992188-40.84375l3.183594-14.859375c1.007812-4.722656-1.390625-9.515625-5.777344-11.539062l-67.347656-31.042969c-4.375-2.015625-9.558594-.742188-12.5 3.070312l-26.441406 34.273438c-1.996094 2.589843-5.414063 3.617187-8.503907 2.53125-18.105469-6.363281-78.757812-31.765625-112.039062-95.871094-1.441407-2.78125-1.082031-6.15625.964843-8.527344l25.269532-29.230469c2.578125-2.988281 3.234375-7.183593 1.683594-10.8125l-29.03125-67.921874c-1.546876-3.613282-5.007813-6.035157-8.933594-6.25zm0 0" fill="#17a388"/><path d="m213.269531 65.617188-19.925781-1.085938c-6.257812-.34375-12.398438 1.75-17.132812 5.859375-9.660157 8.390625-25.109376 24.609375-29.851563 45.746094-7.074219 31.511719 3.859375 70.105469 32.160156 108.695312 28.296875 38.589844 81.039063 100.335938 174.296875 126.707031 30.054688 8.496094 53.695313 2.769532 71.9375-8.898437 14.445313-9.242187 24.402344-24.074219 27.992188-40.84375l3.179687-14.859375c1.011719-4.722656-1.386719-9.515625-5.773437-11.539062l-67.351563-31.042969c-4.371093-2.015625-9.554687-.742188-12.496093 3.070312l-26.441407 34.273438c-1.996093 2.589843-5.417969 3.617187-8.503906 2.53125-18.105469-6.363281-78.757813-31.765625-112.039063-95.871094-1.445312-2.78125-1.085937-6.15625.960938-8.527344l25.269531-29.230469c2.582031-2.988281 3.234375-7.183593 1.683594-10.8125l-29.03125-67.921874c-1.546875-3.613282-5.007813-6.035157-8.933594-6.25zm0 0" fill="#fcf8f2"/></svg>