<svg width="138" height="60" viewBox="0 0 138 60" fill="none" xmlns="http://www.w3.org/2000/svg">
<path fill-rule="evenodd" clip-rule="evenodd" d="M5.48106 9.11831H12.7151C23.8891 9.11831 32.9871 14.2043 32.9871 29.4623C32.9871 44.7923 23.7471 50.5223 9.56306 50.5223H5.48106V9.11831ZM0.539062 54.8203H9.27906C25.8251 54.8203 37.9331 47.8703 37.9331 29.7483C37.9331 15.1343 30.8431 4.82031 12.9331 4.82031H0.539062V54.8203Z" fill="#0D0D0D"/>
<path d="M46.4531 54.8203H51.3951V4.82031H46.4531V54.8203Z" fill="#0D0D0D"/>
<path fill-rule="evenodd" clip-rule="evenodd" d="M59.1797 54.8203H63.9777L69.3517 41.4243H94.5677L99.9397 54.8203H105.096L85.2557 4.82031H79.6657L59.1797 54.8203ZM92.9197 37.1263H71.2137L82.1017 9.54631L92.9197 37.1263Z" fill="#0D0D0D"/>
<path d="M112.469 54.8203H137.469V50.5223H117.415V4.82031H112.469V54.8203Z" fill="#0D0D0D"/>
</svg>
