<svg width="207" height="49" viewBox="0 0 207 49" fill="none" xmlns="http://www.w3.org/2000/svg">
<g clip-path="url(#clip0_532_9)">
<path d="M22.2957 25.5134H15.0717L7.62642 15.6132L5.69466 17.7376V25.5134H0V0.5625H5.69466V12.1261L15.937 0.5625H22.7183L11.7515 12.4267L22.2957 25.5134Z" fill="#0D0D0D"/>
<path d="M41.0464 25.5134L31.2468 7.65698C31.4279 10.3024 31.4681 12.8676 31.4681 14.6713V25.5134H25.7734V0.5625H33.0578L43.1391 18.92C42.9983 16.3146 42.958 13.4889 42.958 11.6652V0.5625H48.6125V25.5134H41.0464Z" fill="#0D0D0D"/>
<path d="M63.6239 16.5151L58.211 25.5134H51.4297L60.3842 12.9277L52.0334 0.5625H58.6335L63.8251 9.3805L69.3789 0.5625H75.9187L67.1655 12.8275L76.0596 25.5134H69.4192L63.6239 16.5151Z" fill="#0D0D0D"/>
<path d="M96.9104 21.063V25.5121H78.1562V22.9468L86.326 15.1108C89.8474 11.744 91.1554 9.98037 91.1554 7.5955C91.1554 5.53129 89.9883 4.18855 87.9157 4.18855C85.7022 4.18855 84.5753 5.59141 84.3137 8.41718L84.2735 8.77791H78.5788L78.6191 8.41718C79.1624 2.98609 82.543 0 88.4187 0C94.0731 0 97.1318 2.88589 97.1318 7.29489C97.1318 10.3611 95.6829 12.6057 90.9944 17.135L86.9297 21.083H96.9104V21.063Z" fill="#0D0D0D"/>
<path d="M118.24 19.7612V25.5129H112.545V19.7612H100.633V16.6949L112.103 0.582031H118.24V15.3321H121.319V19.7812H118.24V19.7612ZM112.545 6.75463C112.002 7.69655 111.499 8.51823 111.016 9.21966L106.67 15.3321H112.545V6.75463Z" fill="#0D0D0D"/>
<path d="M130.616 22.7281C130.616 24.652 129.268 26.0148 127.316 26.0148C125.384 26.0148 124.016 24.632 124.016 22.7281C124.016 20.7841 125.404 19.4414 127.316 19.4414C129.268 19.4414 130.616 20.7841 130.616 22.7281Z" fill="#0D0D0D"/>
<path d="M151.74 13.3661H146.186C145.784 10.7207 144.435 9.63844 142.564 9.63844C140.17 9.63844 138.64 11.5824 138.64 15.6708C138.64 20.1599 140.21 22.1039 142.564 22.1039C144.315 22.1039 145.683 20.9014 146.126 18.6769H151.76C150.995 23.5268 147.293 26.0119 142.242 26.0119C136.869 26.0119 132.805 22.5849 132.805 16.0315C132.805 9.41799 137.232 5.73047 142.705 5.73047C148.098 5.73047 151.438 9.05726 151.74 13.3661Z" fill="#0D0D0D"/>
<path d="M173.982 15.8511C173.982 21.8434 170.179 26.0119 163.78 26.0119C157.361 26.0119 153.578 21.8634 153.578 15.8511C153.578 9.83885 157.361 5.73047 163.78 5.73047C170.179 5.73047 173.982 9.85889 173.982 15.8511ZM168.107 15.8511C168.107 11.8429 166.477 9.63844 163.78 9.63844C161.064 9.63844 159.434 11.8429 159.434 15.8511C159.434 19.8593 161.064 22.1039 163.78 22.1039C166.477 22.1039 168.107 19.8593 168.107 15.8511Z" fill="#0D0D0D"/>
<path d="M207.001 14.1271V25.5103H201.307V15.57C201.307 14.6682 201.267 13.6261 201.166 12.6441C200.945 10.7201 199.938 9.63793 198.127 9.63793C195.954 9.63793 194.868 11.5619 194.868 15.4899V25.5103H189.213V15.57C189.213 14.6682 189.173 13.6261 189.072 12.6441C188.811 10.7201 187.845 9.63793 185.994 9.63793C183.82 9.63793 182.754 11.5619 182.754 15.4899V25.5103H177.039V6.25102H182.734V9.25716L184.183 6.87229C185.35 6.11074 186.577 5.75 188.348 5.75C191.588 5.75 193.58 7.33323 194.365 9.47761L196.316 6.87229C197.443 6.11074 198.711 5.75 200.462 5.75C204.245 5.75 206.378 7.91442 206.82 10.5598C206.961 11.5218 207.001 12.5639 207.001 14.1271Z" fill="#0D0D0D"/>
<path d="M0.0234375 39.3794H1.11005L2.55887 43.1471C2.88083 44.0089 3.08206 44.6301 3.16255 45.0109H3.20279C3.26316 44.8105 3.36377 44.4498 3.52475 43.9487C3.68573 43.4477 4.24916 41.9246 5.17479 39.3594H6.26141L3.40401 46.8948C3.1223 47.6363 2.78022 48.1774 2.41801 48.478C2.03569 48.7986 1.57287 48.9389 1.02956 48.9389C0.727724 48.9389 0.425887 48.8988 0.12405 48.8387V48.0371C0.345397 48.0772 0.586867 48.1173 0.868582 48.1173C1.55275 48.1173 2.05581 47.7365 2.35765 46.9549L2.71985 46.013L0.0234375 39.3794Z" fill="#0D0D0D"/>
<path d="M10.788 45.031L10.9691 44.4698L11.2307 43.7483L13.0417 39.3794H14.3296V45.9929H13.4442V40.5217L13.3234 40.8624L12.9814 41.7843L11.271 45.9729H10.4258L8.71539 41.7643C8.49405 41.2232 8.35319 40.8023 8.2727 40.5017V45.9729H7.36719V39.3594H8.59466L10.3453 43.568C10.4862 44.0289 10.6472 44.5099 10.788 45.031Z" fill="#0D0D0D"/>
<path d="M17.4671 39.3789V42.1446H21.1897V39.3789H22.1958V45.9924H21.1897V43.0063H17.4671V45.9924H16.4609V39.3789H17.4671Z" fill="#0D0D0D"/>
<path d="M25.3544 42.105H27.1654C28.0105 42.105 28.6343 42.2653 29.0368 42.5659C29.4392 42.8866 29.6405 43.3475 29.6405 43.9688C29.6405 44.6301 29.4191 45.1312 28.9965 45.4718C28.574 45.8125 27.9301 45.9729 27.0849 45.9729H24.3281V39.3594H25.3342V42.105H25.3544ZM25.3544 42.9667V45.1512H27.0648C28.1313 45.1512 28.6746 44.7704 28.6746 44.0289C28.6746 43.6682 28.5538 43.3876 28.3124 43.2273C28.0709 43.0669 27.6483 42.9667 27.0447 42.9667H25.3544ZM31.7734 45.9929H30.7673V39.3794H31.7734V45.9929Z" fill="#0D0D0D"/>
<path d="M36.7262 46.1123C35.7402 46.1123 34.9756 45.8117 34.392 45.2105C33.8286 44.6092 33.5469 43.7876 33.5469 42.7254C33.5469 41.6632 33.8085 40.8015 34.3317 40.1802C34.8548 39.5589 35.5591 39.2383 36.4646 39.2383C37.2897 39.2383 37.9537 39.5189 38.4366 40.06C38.9196 40.6011 39.1611 41.3225 39.1611 42.2244V42.8657H34.5731C34.5932 43.6473 34.7945 44.2285 35.1567 44.6293C35.5189 45.0301 36.0622 45.2305 36.7464 45.2305C37.4708 45.2305 38.175 45.0902 38.8793 44.7896V45.6915C38.5171 45.8518 38.1952 45.952 37.8732 46.0121C37.5512 46.0722 37.1689 46.1123 36.7262 46.1123ZM36.4445 40.1C35.9012 40.1 35.4786 40.2804 35.1768 40.6211C34.8548 40.9618 34.6737 41.4428 34.6134 42.064H38.0946C38.0946 41.4227 37.9537 40.9418 37.672 40.6011C37.3701 40.2604 36.9677 40.1 36.4445 40.1Z" fill="#0D0D0D"/>
<path d="M47.2082 46.1123C46.7655 46.1123 46.3832 46.0321 46.021 45.8718C45.6588 45.7115 45.357 45.471 45.1155 45.1303H45.035C45.0753 45.5111 45.1155 45.8919 45.1155 46.2326V48.9581H44.1094V39.3585H44.9344L45.0753 40.2604H45.1155C45.3771 39.8996 45.6789 39.6391 46.021 39.4788C46.3631 39.3184 46.7655 39.2383 47.2082 39.2383C48.0936 39.2383 48.7778 39.5389 49.2406 40.1401C49.7235 40.7413 49.965 41.5831 49.965 42.6653C49.965 43.7475 49.7235 44.5892 49.2406 45.1904C48.7375 45.8117 48.0735 46.1123 47.2082 46.1123ZM47.0674 40.1C46.3832 40.1 45.9003 40.2804 45.5984 40.6612C45.2966 41.042 45.1356 41.6231 45.1356 42.4448V42.6653C45.1356 43.5872 45.2966 44.2685 45.5984 44.6694C45.9003 45.0702 46.4033 45.2706 47.0875 45.2706C47.6711 45.2706 48.1137 45.0301 48.4357 44.5692C48.7577 44.1082 48.9187 43.4669 48.9187 42.6452C48.9187 41.8236 48.7577 41.1822 48.4357 40.7413C48.1137 40.3205 47.6509 40.1 47.0674 40.1Z" fill="#0D0D0D"/>
<path d="M54.5387 46.1123C53.5527 46.1123 52.7881 45.8117 52.2045 45.2105C51.6411 44.6092 51.3594 43.7876 51.3594 42.7254C51.3594 41.6632 51.621 40.8015 52.1442 40.1802C52.6673 39.5589 53.3716 39.2383 54.2771 39.2383C55.1022 39.2383 55.7662 39.5189 56.2491 40.06C56.7321 40.6011 56.9736 41.3225 56.9736 42.2244V42.8657H52.3856C52.4057 43.6473 52.607 44.2285 52.9692 44.6293C53.3314 45.0301 53.8747 45.2305 54.5589 45.2305C55.2833 45.2305 55.9875 45.0902 56.6918 44.7896V45.6915C56.3296 45.8518 56.0077 45.952 55.6857 46.0121C55.3638 46.0722 54.9814 46.1123 54.5387 46.1123ZM54.2771 40.1C53.7338 40.1 53.3113 40.2804 53.0094 40.6211C52.6875 40.9618 52.5064 41.4428 52.446 42.064H55.9071C55.9071 41.4227 55.7662 40.9418 55.4845 40.6011C55.2028 40.2604 54.8003 40.1 54.2771 40.1Z" fill="#0D0D0D"/>
<path d="M63.6533 45.1306H66.6113V39.3789H67.6375V45.9924H58.7031V39.3789H59.7092V45.1306H62.6471V39.3789H63.6533V45.1306Z" fill="#0D0D0D"/>
<path d="M72.5622 46.1123C71.5762 46.1123 70.8115 45.8117 70.228 45.2105C69.6645 44.6092 69.3828 43.7876 69.3828 42.7254C69.3828 41.6632 69.6444 40.8015 70.1676 40.1802C70.6908 39.5589 71.3951 39.2383 72.3006 39.2383C73.1256 39.2383 73.7896 39.5189 74.2726 40.06C74.7555 40.6011 74.997 41.3225 74.997 42.2244V42.8657H70.4091C70.4292 43.6473 70.6304 44.2285 70.9926 44.6293C71.3548 45.0301 71.8981 45.2305 72.5823 45.2305C73.3067 45.2305 74.011 45.0902 74.7153 44.7896V45.6915C74.3531 45.8518 74.0311 45.952 73.7091 46.0121C73.3872 46.0722 73.025 46.1123 72.5622 46.1123ZM72.3006 40.1C71.7573 40.1 71.3347 40.2804 71.0329 40.6211C70.7109 40.9618 70.5298 41.4428 70.4694 42.064H73.9506C73.9506 41.4227 73.8098 40.9418 73.528 40.6011C73.2262 40.2604 72.8238 40.1 72.3006 40.1Z" fill="#0D0D0D"/>
<path d="M77.7327 39.3789V42.1446H81.4553V39.3789H82.4615V45.9924H81.4553V43.0063H77.7327V45.9924H76.7266V39.3789H77.7327Z" fill="#0D0D0D"/>
<path d="M85.5629 39.3789V43.5875L85.5227 44.6897L85.5026 45.0304L89.1045 39.3789H90.3521V45.9924H89.4063V41.9441L89.4265 41.1425L89.4667 40.3609L85.8648 45.9924H84.6172V39.3789H85.5629Z" fill="#0D0D0D"/>
<path d="M92.8279 45.9929H91.6406L93.5523 43.1872C93.0291 43.0669 92.6468 42.8465 92.365 42.5258C92.0833 42.2052 91.9626 41.7843 91.9626 41.3033C91.9626 40.7021 92.1638 40.2211 92.5663 39.8804C92.9687 39.5397 93.5523 39.3594 94.2767 39.3594H97.2347V45.9729H96.2286V43.3475H94.5383L92.8279 45.9929ZM92.9486 41.3234C92.9486 42.0849 93.512 42.4657 94.6188 42.4657H96.2487V40.2211H94.4175C93.4315 40.2412 92.9486 40.6019 92.9486 41.3234Z" fill="#0D0D0D"/>
<path d="M108.385 48.2971H107.419V46.0124H102.771V48.2971H101.805V45.1507H102.328C102.871 44.4092 103.294 43.5474 103.596 42.5654C103.897 41.5834 104.058 40.5212 104.079 39.3789H107.439V45.1306H108.385V48.2971ZM106.473 45.1306V40.1605H104.984C104.924 41.0623 104.763 41.9642 104.461 42.8861C104.159 43.8079 103.797 44.5495 103.374 45.1306H106.473Z" fill="#0D0D0D"/>
<path d="M114.683 45.9934H113.657V40.2216H111.664C111.564 41.6646 111.403 42.7869 111.202 43.6286C111 44.4703 110.759 45.0916 110.437 45.4724C110.135 45.8732 109.733 46.0535 109.25 46.0535C109.028 46.0535 108.847 46.0335 108.727 45.9734V45.2319C108.807 45.2519 108.908 45.2719 109.028 45.2719C109.491 45.2719 109.874 44.791 110.135 43.809C110.417 42.827 110.618 41.3439 110.759 39.3398H114.643V45.9934H114.683Z" fill="#0D0D0D"/>
<path d="M117.133 45.9929H115.945L117.857 43.1872C117.334 43.0669 116.951 42.8465 116.67 42.5258C116.388 42.2052 116.267 41.7843 116.267 41.3033C116.267 40.7021 116.468 40.2211 116.871 39.8804C117.273 39.5397 117.857 39.3594 118.581 39.3594H121.539V45.9729H120.533V43.3475H118.883L117.133 45.9929ZM117.273 41.3234C117.273 42.0849 117.837 42.4657 118.944 42.4657H120.573V40.2211H118.742C117.756 40.2412 117.273 40.6019 117.273 41.3234Z" fill="#0D0D0D"/>
<path d="M132.71 48.2971H131.724V46.0124H127.075V48.2971H126.109V45.1507H126.633C127.176 44.4092 127.598 43.5474 127.9 42.5654C128.202 41.5834 128.363 40.5212 128.383 39.3789H131.764V45.1306H132.71V48.2971ZM130.798 45.1306V40.1605H129.309C129.248 41.0623 129.088 41.9642 128.786 42.8861C128.484 43.8079 128.122 44.5495 127.699 45.1306H130.798Z" fill="#0D0D0D"/>
<path d="M139.797 42.6853C139.797 43.7675 139.515 44.6092 138.972 45.2105C138.429 45.8117 137.664 46.1123 136.718 46.1123C136.115 46.1123 135.591 45.972 135.129 45.6915C134.666 45.4109 134.303 45.0101 134.062 44.489C133.821 43.9679 133.68 43.3667 133.68 42.6653C133.68 41.5831 133.941 40.7413 134.485 40.1401C135.028 39.5389 135.772 39.2383 136.738 39.2383C137.664 39.2383 138.408 39.5389 138.952 40.1602C139.515 40.8015 139.797 41.6231 139.797 42.6853ZM134.726 42.6853C134.726 43.527 134.887 44.1683 135.229 44.6092C135.571 45.0501 136.074 45.2706 136.718 45.2706C137.382 45.2706 137.885 45.0501 138.227 44.6092C138.569 44.1683 138.73 43.527 138.73 42.6653C138.73 41.8236 138.569 41.1822 138.227 40.7413C137.885 40.3004 137.382 40.08 136.718 40.08C136.054 40.08 135.551 40.3004 135.229 40.7213C134.887 41.1822 134.726 41.8236 134.726 42.6853Z" fill="#0D0D0D"/>
<path d="M145.007 45.031L145.188 44.4698L145.449 43.7483L147.26 39.3794H148.548V45.9929H147.663V40.5217L147.542 40.8624L147.2 41.7843L145.49 45.9729H144.645L142.934 41.7643C142.713 41.2232 142.572 40.8023 142.491 40.5017V45.9729H141.586V39.3594H142.813L144.564 43.568C144.705 44.0289 144.866 44.5099 145.007 45.031Z" fill="#0D0D0D"/>
<path d="M154.763 45.9921L154.562 45.0501H154.522C154.2 45.471 153.858 45.7516 153.536 45.8919C153.214 46.0321 152.791 46.1123 152.308 46.1123C151.644 46.1123 151.141 45.952 150.759 45.6113C150.376 45.2706 150.195 44.7896 150.195 44.1683C150.195 42.8256 151.262 42.1242 153.415 42.064L154.542 42.024V41.6031C154.542 41.082 154.421 40.7013 154.2 40.4608C153.978 40.2203 153.616 40.08 153.113 40.08C152.55 40.08 151.926 40.2403 151.242 40.581L150.94 39.8195C151.262 39.6391 151.624 39.4988 152.026 39.3986C152.409 39.2984 152.811 39.2383 153.194 39.2383C153.978 39.2383 154.582 39.4186 154.964 39.7593C155.347 40.1 155.528 40.6812 155.528 41.4428V45.972H154.763V45.9921ZM152.489 45.2906C153.113 45.2906 153.616 45.1103 153.958 44.7696C154.32 44.4289 154.502 43.9479 154.502 43.3266V42.7254L153.495 42.7655C152.69 42.7855 152.107 42.9258 151.765 43.1463C151.423 43.3667 151.242 43.7074 151.242 44.1683C151.242 44.5291 151.342 44.8097 151.564 44.99C151.785 45.1904 152.107 45.2906 152.489 45.2906Z" fill="#0D0D0D"/>
<path d="M161.766 39.3789V43.5875L161.726 44.6897L161.706 45.0304L165.308 39.3789H166.555V45.9924H165.609V41.9441L165.63 41.1425L165.67 40.3609L162.068 45.9924H160.82V39.3789H161.766Z" fill="#0D0D0D"/>
<path d="M177.664 42.6853C177.664 43.7675 177.382 44.6092 176.839 45.2105C176.296 45.8117 175.531 46.1123 174.585 46.1123C173.982 46.1123 173.459 45.972 172.996 45.6915C172.533 45.4109 172.171 45.0101 171.929 44.489C171.688 43.9679 171.547 43.3667 171.547 42.6653C171.547 41.5831 171.808 40.7413 172.352 40.1401C172.895 39.5389 173.64 39.2383 174.605 39.2383C175.531 39.2383 176.276 39.5389 176.819 40.1602C177.382 40.8015 177.664 41.6231 177.664 42.6853ZM172.593 42.6853C172.593 43.527 172.754 44.1683 173.096 44.6092C173.438 45.0501 173.941 45.2706 174.585 45.2706C175.249 45.2706 175.752 45.0501 176.095 44.6092C176.437 44.1683 176.598 43.527 176.598 42.6653C176.598 41.8236 176.437 41.1822 176.095 40.7413C175.752 40.3004 175.249 40.08 174.585 40.08C173.921 40.08 173.418 40.3004 173.096 40.7213C172.774 41.1822 172.593 41.8236 172.593 42.6853Z" fill="#0D0D0D"/>
<path d="M186.556 42.6852C186.556 43.6872 186.274 44.4888 185.691 45.0901C185.127 45.6913 184.322 46.032 183.296 46.1122V48.998H182.31V46.1122C181.304 46.032 180.519 45.6913 179.936 45.0901C179.352 44.4888 179.07 43.6872 179.07 42.7052C179.07 41.7032 179.352 40.9015 179.936 40.3203C180.519 39.7392 181.324 39.3985 182.35 39.3183V36.6328H183.316V39.3183C184.322 39.4185 185.127 39.7592 185.711 40.3604C186.254 40.9216 186.556 41.7032 186.556 42.6852ZM180.097 42.6852C180.097 43.4668 180.278 44.068 180.64 44.5089C181.002 44.9498 181.565 45.2103 182.33 45.2704V40.1199C181.586 40.1801 181.022 40.4406 180.66 40.8414C180.278 41.2623 180.097 41.8835 180.097 42.6852ZM185.51 42.6852C185.51 41.142 184.765 40.3003 183.296 40.14V45.2704C184.061 45.1903 184.624 44.9297 184.986 44.4888C185.328 44.0479 185.51 43.4467 185.51 42.6852Z" fill="#0D0D0D"/>
<path d="M189.258 39.3789V43.5875L189.218 44.6897L189.198 45.0304L192.8 39.3789H194.047V45.9924H193.102V41.9441L193.122 41.1425L193.162 40.3609L189.56 45.9924H188.312V39.3789H189.258Z" fill="#0D0D0D"/>
<path d="M198.854 46.1118C197.888 46.1118 197.144 45.8112 196.621 45.23C196.098 44.6488 195.836 43.8071 195.836 42.7249C195.836 41.6226 196.098 40.7609 196.641 40.1597C197.184 39.5584 197.949 39.2578 198.935 39.2578C199.257 39.2578 199.579 39.2979 199.901 39.358C200.223 39.4181 200.464 39.4983 200.645 39.5985L200.343 40.4603C200.122 40.3801 199.881 40.2999 199.619 40.2398C199.357 40.1797 199.116 40.1597 198.915 40.1597C197.566 40.1597 196.882 41.0214 196.882 42.7249C196.882 43.5466 197.043 44.1678 197.385 44.5887C197.707 45.0296 198.21 45.25 198.854 45.25C199.418 45.25 199.981 45.1298 200.565 44.8893V45.7711C200.082 46.0116 199.518 46.1118 198.854 46.1118Z" fill="#0D0D0D"/>
<path d="M206.201 45.9921L205.999 45.0501H205.959C205.637 45.471 205.295 45.7516 204.973 45.8919C204.651 46.0321 204.229 46.1123 203.746 46.1123C203.082 46.1123 202.579 45.952 202.196 45.6113C201.814 45.2706 201.633 44.7896 201.633 44.1683C201.633 42.8256 202.699 42.1242 204.852 42.064L205.979 42.024V41.6031C205.979 41.082 205.859 40.7013 205.637 40.4608C205.416 40.2203 205.054 40.08 204.551 40.08C203.987 40.08 203.363 40.2403 202.679 40.581L202.377 39.8195C202.699 39.6391 203.062 39.4988 203.464 39.3986C203.846 39.2984 204.249 39.2383 204.631 39.2383C205.416 39.2383 206.02 39.4186 206.402 39.7593C206.784 40.1 206.965 40.6812 206.965 41.4428V45.972H206.201V45.9921ZM203.927 45.2906C204.551 45.2906 205.054 45.1103 205.396 44.7696C205.758 44.4289 205.939 43.9479 205.939 43.3266V42.7254L204.933 42.7655C204.128 42.7855 203.544 42.9258 203.202 43.1463C202.86 43.3667 202.679 43.7074 202.679 44.1683C202.679 44.5291 202.78 44.8097 203.001 44.99C203.222 45.1904 203.524 45.2906 203.927 45.2906Z" fill="#0D0D0D"/>
</g>
<defs>
<clipPath id="clip0_532_9">
<rect width="207" height="49" fill="white"/>
</clipPath>
</defs>
</svg>
