<svg width="47" height="45" viewBox="0 0 47 45" fill="none" xmlns="http://www.w3.org/2000/svg">
<path d="M4.80371 23.414H0.925197C0.414211 23.414 0 22.9998 0 22.4888C0 21.9779 0.414211 21.5636 0.925197 21.5636H4.80371C5.3147 21.5636 5.72891 21.9779 5.72891 22.4888C5.72891 22.9998 5.3147 23.414 4.80371 23.414ZM46.0748 21.5636H42.1963C41.6853 21.5636 41.2711 21.9779 41.2711 22.4888C41.2711 22.9998 41.6853 23.414 42.1963 23.414H46.0748C46.5858 23.414 47 22.9998 47 22.4888C47 21.9779 46.5858 21.5636 46.0748 21.5636ZM6.8459 31.0358L3.48697 32.975C3.04445 33.2305 2.89281 33.7963 3.14835 34.2388C3.40389 34.6814 3.96965 34.833 4.41217 34.5775L7.7711 32.6383C8.21362 32.3828 8.36526 31.817 8.10972 31.3744C7.85418 30.9319 7.28842 30.7803 6.8459 31.0358ZM40.1541 13.942L43.513 12.0028C43.9555 11.7473 44.1072 11.1815 43.8517 10.7389C43.5962 10.2964 43.0303 10.1448 42.5878 10.4003L39.2289 12.3395C38.7864 12.595 38.6347 13.1608 38.8903 13.6033C39.1458 14.0459 39.7116 14.1975 40.1541 13.942ZM43.5129 32.975L40.154 31.0358C39.7115 30.7803 39.1456 30.9319 38.8902 31.3744C38.6347 31.817 38.7863 32.3828 39.2288 32.6383L42.5877 34.5775C43.0303 34.833 43.5961 34.6814 43.8516 34.2388C44.107 33.7963 43.9555 33.2305 43.5129 32.975ZM7.7711 12.3395L4.41217 10.4003C3.96965 10.1448 3.4038 10.2964 3.14835 10.7389C2.89291 11.1815 3.04445 11.7473 3.48697 12.0028L6.8459 13.942C7.28842 14.1975 7.85427 14.0459 8.10972 13.6033C8.36517 13.1608 8.21362 12.595 7.7711 12.3395ZM36.3766 14.8068H24.5547L25.5382 12.4013C26.0029 11.265 24.2904 10.5646 23.8257 11.701L22.3208 15.3819C22.0721 15.9906 22.5197 16.6572 23.1772 16.6572H34.768L22.102 38.4373L25.1061 23.782C25.2237 23.2083 24.7855 22.671 24.1998 22.671H11.8619L17.9312 2.13164H27.7383L26.9769 3.99314C26.5103 5.13465 28.2238 5.83502 28.6904 4.69351L29.973 1.55663C30.2219 0.947947 29.7742 0.28125 29.1167 0.28125H17.2392C16.8229 0.28125 16.4694 0.558809 16.3547 0.939065C16.3539 0.93999 11.459 17.5064 9.7364 23.3361C9.56145 23.9283 10.0054 24.5215 10.6228 24.5215H23.0661L19.1548 43.6036C18.9443 44.6303 20.3341 45.1605 20.861 44.2545L37.1764 16.1971C37.535 15.5803 37.0901 14.8068 36.3766 14.8068ZM26.2579 7.27204C25.7469 7.27204 25.3327 7.68625 25.3327 8.19723C25.3327 8.70822 25.7469 9.12243 26.2579 9.12243C26.7689 9.12243 27.1831 8.70822 27.1831 8.19723C27.1831 7.68625 26.7689 7.27204 26.2579 7.27204Z" fill="#36383D"/>
</svg>
