<svg width="36" height="45" viewBox="0 0 36 45" fill="none" xmlns="http://www.w3.org/2000/svg">
<path d="M35.25 17.9934V9.74139C35.25 9.32711 34.9142 8.99121 34.5 8.99121H32.25V7.38425C33.5706 7.04322 34.4949 5.85421 34.5 4.49011C34.5 3.03407 32.4661 0.692674 32.0581 0.238095C31.912 0.0860806 31.7106 0 31.5 0C31.2894 0 31.0876 0.0860806 30.9419 0.238095C30.5339 0.692674 28.5 3.03407 28.5 4.49011C28.5051 5.85421 29.4294 7.04322 30.75 7.38425V8.99121H28.5C28.0858 8.99121 27.75 9.32711 27.75 9.74139V17.9934C27.3358 17.9934 27 18.3293 27 18.7436V24.7451C27.0026 26.8154 28.6798 28.4934 30.75 28.496V29.2462C30.7474 31.3165 29.0698 32.9945 27 32.9971H18.75V28.496C20.8198 28.4934 22.4974 26.8154 22.5 24.7451V18.7436C22.5 18.3293 22.1642 17.9934 21.75 17.9934V9.74139C21.75 9.32711 21.4142 8.99121 21 8.99121H18.75V7.38425C20.0706 7.04322 20.9949 5.85421 21 4.49011C21 3.03407 18.9661 0.692674 18.5581 0.238095C18.412 0.0860806 18.2106 0 18 0C17.7894 0 17.5876 0.0860806 17.4419 0.238095C17.0339 0.692674 15 3.03407 15 4.49011C15.0051 5.85421 15.9294 7.04322 17.25 7.38425V8.99121H15C14.5858 8.99121 14.25 9.32711 14.25 9.74139V17.9934C13.8358 17.9934 13.5 18.3293 13.5 18.7436V24.7451C13.5026 26.8154 15.1798 28.4934 17.25 28.496V32.9971H9C6.92981 32.9945 5.25256 31.3165 5.25 29.2462V28.496C7.31982 28.4934 8.99744 26.8154 9 24.7451V18.7436C9 18.3293 8.66418 17.9934 8.25 17.9934V9.74139C8.25 9.32711 7.91419 8.99121 7.5 8.99121H5.25V7.38425C6.57056 7.04322 7.49487 5.85421 7.5 4.49011C7.5 3.03407 5.46606 0.692674 5.05811 0.238095C4.91199 0.0860806 4.71057 0 4.5 0C4.28943 0 4.08765 0.0860806 3.94189 0.238095C3.53394 0.692674 1.5 3.03407 1.5 4.49011C1.50513 5.85421 2.42944 7.04322 3.75 7.38425V8.99121H1.5C1.08582 8.99121 0.75 9.32711 0.75 9.74139V17.9934C0.335816 17.9934 0 18.3293 0 18.7436V24.7451C0.0025635 26.8154 1.67981 28.4934 3.75 28.496V29.2462C3.7533 32.1451 6.10181 34.4941 9 34.4974H17.25V40.4989H4.5C4.08582 40.4989 3.75 40.8348 3.75 41.2491V44.2498C3.75 44.6641 4.08582 45 4.5 45H31.5C31.9142 45 32.25 44.6641 32.25 44.2498V41.2491C32.25 40.8348 31.9142 40.4989 31.5 40.4989H18.75V34.4974H27C29.8982 34.4941 32.2467 32.1451 32.25 29.2462V28.496C34.3198 28.4934 35.9974 26.8154 36 24.7451V18.7436C36 18.3293 35.6642 17.9934 35.25 17.9934ZM30 4.49011C30 4.01209 30.7042 2.89597 31.5 1.9011C32.2965 2.90037 33 4.02491 33 4.49011C33 5.31868 32.3284 5.99048 31.5 5.99048C30.6716 5.99048 30 5.31868 30 4.49011ZM16.5 4.49011C16.5 4.01209 17.2042 2.89597 18 1.9011C18.7965 2.90037 19.5 4.02491 19.5 4.49011C19.5 5.31868 18.8284 5.99048 18 5.99048C17.1716 5.99048 16.5 5.31868 16.5 4.49011ZM15.75 10.4916H20.25V17.9934H15.75V10.4916ZM15 24.7451V19.4938H21V24.7451C21 25.9879 19.9926 26.9956 18.75 26.9956H17.25C16.0074 26.9956 15 25.9879 15 24.7451ZM3 4.49011C3 4.01209 3.70422 2.89597 4.5 1.9011C5.29651 2.90037 6 4.02491 6 4.49011C6 5.31868 5.32837 5.99048 4.5 5.99048C3.67163 5.99048 3 5.31868 3 4.49011ZM2.25 10.4916H6.75V17.9934H2.25V10.4916ZM1.5 24.7451V19.4938H7.5V24.7451C7.5 25.9879 6.49255 26.9956 5.25 26.9956H3.75C2.50745 26.9956 1.5 25.9879 1.5 24.7451ZM30.75 43.4996H5.25V41.9993H30.75V43.4996ZM29.25 10.4916H33.75V17.9934H29.25V10.4916ZM34.5 24.7451C34.5 25.9879 33.4926 26.9956 32.25 26.9956H30.75C29.5074 26.9956 28.5 25.9879 28.5 24.7451V19.4938H34.5V24.7451Z" fill="#36383D"/>
</svg>
