<svg width="45" height="45" viewBox="0 0 45 45" fill="none" xmlns="http://www.w3.org/2000/svg">
<path d="M31.9568 27.6408C31.5538 27.2798 30.9346 27.315 30.5755 27.7171C28.5349 29.9974 25.5923 31.3043 22.5 31.3043C19.4087 31.3043 16.4651 29.9974 14.4245 27.7171C14.0635 27.315 13.4462 27.2798 13.0432 27.6408C12.6401 28.0008 12.6068 28.619 12.9668 29.0221C15.3783 31.7162 18.853 33.2609 22.5 33.2609C26.1479 33.2609 29.6227 31.7152 32.0331 29.0221C32.3932 28.619 32.3589 28.0008 31.9568 27.6408Z" fill="#36383D"/>
<path d="M22.5 0C10.0937 0 0 10.0937 0 22.5C0 34.9063 10.0937 45 22.5 45C34.9063 45 45 34.9063 45 22.5C45 10.0937 34.9063 0 22.5 0ZM22.5 43.0435C11.1717 43.0435 1.95652 33.8283 1.95652 22.5C1.95652 11.1717 11.1717 1.95652 22.5 1.95652C33.8283 1.95652 43.0435 11.1717 43.0435 22.5C43.0435 33.8283 33.8283 43.0435 22.5 43.0435Z" fill="#36383D"/>
<path d="M30.3261 15.6522C27.629 15.6522 25.4348 17.8464 25.4348 20.5435C25.4348 21.0835 25.873 21.5217 26.413 21.5217C26.953 21.5217 27.3913 21.0835 27.3913 20.5435C27.3913 18.9254 28.708 17.6087 30.3261 17.6087C31.9441 17.6087 33.2609 18.9254 33.2609 20.5435C33.2609 21.0835 33.6991 21.5217 34.2391 21.5217C34.7791 21.5217 35.2174 21.0835 35.2174 20.5435C35.2174 17.8464 33.0232 15.6522 30.3261 15.6522Z" fill="#36383D"/>
<path d="M17.6087 20.5435C17.6087 21.0835 18.047 21.5217 18.587 21.5217C19.127 21.5217 19.5652 21.0835 19.5652 20.5435C19.5652 17.8464 17.371 15.6522 14.6739 15.6522C11.9768 15.6522 9.78261 17.8464 9.78261 20.5435C9.78261 21.0835 10.2209 21.5217 10.7609 21.5217C11.3009 21.5217 11.7391 21.0835 11.7391 20.5435C11.7391 18.9254 13.0559 17.6087 14.6739 17.6087C16.292 17.6087 17.6087 18.9254 17.6087 20.5435Z" fill="#36383D"/>
</svg>
