<svg width="44" height="45" viewBox="0 0 44 45" fill="none" xmlns="http://www.w3.org/2000/svg">
<path d="M30.9559 16.8119C30.2733 15.5914 28.996 14.8331 27.6228 14.8331C26.2496 14.8331 24.9723 15.5914 24.2897 16.8119C24.0528 17.2356 24.2046 17.771 24.6288 18.0078C25.0532 18.2445 25.5892 18.0929 25.8261 17.6692C26.1982 17.0041 26.8867 16.5909 27.6229 16.5909C28.3591 16.5909 29.0475 17.0041 29.4196 17.6692C29.5808 17.9573 29.88 18.1196 30.1885 18.1196C30.3337 18.1196 30.4811 18.0836 30.6169 18.0078C31.0411 17.771 31.1929 17.2356 30.9559 16.8119Z" fill="#36383D"/>
<path d="M19.7102 16.812C19.0274 15.5913 17.7502 14.8331 16.377 14.8331C15.0036 14.8331 13.7265 15.5914 13.0438 16.8119C12.8068 17.2357 12.9586 17.771 13.3828 18.0078C13.8071 18.2445 14.3433 18.0929 14.5801 17.6692C14.9522 17.0041 15.6406 16.5909 16.377 16.5909C17.1133 16.5909 17.8017 17.0041 18.1736 17.6692C18.3348 17.9573 18.6341 18.1196 18.9427 18.1196C19.0879 18.1196 19.2352 18.0836 19.3711 18.0079C19.7953 17.7712 19.9472 17.2357 19.7102 16.812Z" fill="#36383D"/>
<path d="M41.8575 7.1278C41.4327 6.63359 41.0249 6.14739 40.6306 5.67726C38.968 3.69516 37.5322 1.98333 35.9244 0.967846C34.0571 -0.211639 32.1117 -0.307 29.9772 0.676139C29.8462 0.736431 29.6203 0.860532 28.6542 1.51962C26.7241 0.490691 24.5188 0 22 0C19.4811 0 17.2757 0.49069 15.3457 1.51953C14.3799 0.860708 14.1539 0.736519 14.0227 0.676051C11.8881 -0.307088 9.94266 -0.211639 8.07534 0.967846C6.46759 1.98333 5.03179 3.69516 3.36923 5.67735C2.97493 6.14747 2.56708 6.63368 2.14242 7.1278C0.333343 9.23321 -0.349405 11.7119 0.168089 14.2961C0.727996 17.0922 2.67795 19.7595 5.2135 21.259C4.95348 22.851 4.73745 25.1622 4.81471 27.4918C3.9646 29.1089 3.65037 31.0283 3.93081 32.901C4.216 34.8059 5.10791 36.584 6.44225 37.9078C8.07138 39.5242 10.2813 40.4331 12.833 40.5366C12.9998 40.5434 13.1676 40.5467 13.3366 40.5467C14.4466 40.5467 15.6062 40.4009 16.8103 40.1111C16.9705 42.8338 19.2365 45 22.0001 45C24.7581 45 27.0203 42.8425 27.1886 40.1275C28.393 40.4174 29.553 40.5632 30.6634 40.5632C30.8322 40.5632 31.0005 40.5599 31.167 40.5531C33.7187 40.4498 35.9286 39.5407 37.5577 37.9243C38.892 36.6004 39.7839 34.8224 40.0691 32.9176C40.3497 31.0445 40.0353 29.1248 39.1849 27.5076C39.186 27.4738 39.187 27.4405 39.188 27.4089C39.2485 25.4049 39.099 23.1502 38.7865 21.259C41.3221 19.7595 43.272 17.0923 43.832 14.2962C44.3494 11.712 43.6666 9.23321 41.8575 7.1278ZM22 1.7578C25.8285 1.7578 28.6723 2.97719 30.9495 5.59526C33.592 8.63318 35.5519 13.6515 36.9404 20.9325C36.9414 20.9387 36.9429 20.9448 36.9439 20.951C36.9502 20.984 36.9567 21.0163 36.963 21.0493C37.1561 22.0701 37.3454 23.575 37.414 25.2324C36.6771 24.5709 35.8134 24.0346 34.8426 23.6439C32.9347 22.8762 30.6865 22.6814 28.1512 23.0587C28.013 22.694 27.7964 22.3526 27.5005 22.0616C26.9748 21.5448 26.2791 21.2601 25.542 21.2601L18.464 21.2545C17.2764 21.2545 16.26 21.9978 15.854 23.0429C13.3164 22.6647 11.0663 22.8591 9.15723 23.6273C8.18647 24.0179 7.32272 24.5541 6.58595 25.2156C6.65441 23.5747 6.84139 22.0822 7.03683 21.0492C7.04281 21.0176 7.04906 20.9868 7.05504 20.9553C7.05663 20.9473 7.05848 20.9392 7.05971 20.9312C8.44817 13.6508 10.408 8.63301 13.0503 5.59526C15.3276 2.97719 18.1714 1.7578 22 1.7578ZM26.2768 24.7785L22.7418 28.3857C22.5394 28.5867 22.275 28.6974 21.9968 28.6974C21.7216 28.6974 21.462 28.5876 21.2671 28.3895L17.826 24.8782C17.8108 24.8626 17.7949 24.8476 17.7785 24.8332C17.5536 24.6355 17.4247 24.3507 17.4247 24.0519C17.4248 23.4787 17.891 23.0124 18.4632 23.0124L25.5416 23.018C25.8143 23.018 26.0715 23.1233 26.2659 23.3143C26.6726 23.7143 26.6781 24.3706 26.2768 24.7785ZM1.89374 13.9513C1.48633 11.9166 2.03409 9.95294 3.4779 8.27274C3.90943 7.77063 4.32062 7.28038 4.71827 6.80621C8.18322 2.67511 9.99475 0.75647 13.2781 2.26871C13.3086 2.28418 13.412 2.34245 13.7331 2.55417C9.91433 5.4513 7.32017 10.9069 5.56961 19.3964C3.73361 18.1061 2.31154 16.0375 1.89374 13.9513ZM25.4398 39.8029C25.4398 41.6993 23.8967 43.2421 22 43.2421C20.1033 43.2421 18.5602 41.6993 18.5602 39.8029V39.5991C19.395 39.313 20.2488 38.962 21.12 38.5473V40.069C21.12 40.5544 21.514 40.9479 22 40.9479C22.486 40.9479 22.8799 40.5544 22.8799 40.069V38.564C23.7512 38.9787 24.605 39.3297 25.4398 39.6158V39.8029ZM36.3173 36.6772C33.3655 39.6059 28.35 39.5109 22.543 36.4246C22.5332 36.4169 22.523 36.41 22.513 36.4028C22.5046 36.3968 22.4965 36.3904 22.488 36.3847C22.4754 36.3763 22.4623 36.3689 22.4494 36.3612C22.4375 36.3541 22.4258 36.3467 22.4136 36.3402C22.4033 36.3347 22.3926 36.3302 22.3822 36.3251C22.3667 36.3176 22.3514 36.31 22.3356 36.3034C22.3271 36.2999 22.3183 36.2972 22.3097 36.294C22.2917 36.2873 22.2736 36.2804 22.255 36.2748C22.2463 36.2722 22.2374 36.2704 22.2286 36.268C22.2101 36.263 22.1917 36.2579 22.1728 36.2541C22.1546 36.2505 22.1362 36.2483 22.1178 36.2457C22.1082 36.2444 22.0988 36.2425 22.089 36.2414C22.0304 36.2354 21.9711 36.2354 21.9118 36.2414C21.9047 36.2421 21.8979 36.2435 21.8909 36.2444C21.8694 36.247 21.848 36.2499 21.8267 36.2541C21.8126 36.257 21.799 36.2609 21.7852 36.2644C21.7714 36.2679 21.7575 36.2708 21.7437 36.2751C21.7232 36.2813 21.7031 36.2889 21.6831 36.2967C21.6763 36.2993 21.6694 36.3013 21.6626 36.3042C21.634 36.3161 21.606 36.3293 21.5791 36.344C15.7202 39.4944 10.6552 39.61 7.68262 36.6606C5.50309 34.4982 4.95691 30.9766 6.38382 28.287C7.93886 25.356 11.3407 24.1054 15.7702 24.8086C15.912 25.3123 16.1933 25.7717 16.5893 26.1289L20.0109 29.6202C20.5405 30.1586 21.2459 30.4552 21.9971 30.4552C22.7468 30.4552 23.4544 30.1605 23.9897 29.6255C23.9918 29.6234 23.9939 29.6213 23.996 29.6191L27.5335 26.0094C27.8707 25.6667 28.1011 25.2584 28.2252 24.826C32.6569 24.1213 36.0607 25.3716 37.6164 28.3036C39.043 30.993 38.4969 34.5147 36.3173 36.6772ZM42.1061 13.9514C41.6883 16.0377 40.2662 18.1062 38.4302 19.3965C36.6796 10.9069 34.0854 5.4513 30.2666 2.55417C30.5866 2.34306 30.6881 2.28567 30.7141 2.27231C34.0048 0.75647 35.8166 2.67502 39.2815 6.80603C39.6792 7.2802 40.0904 7.77045 40.522 8.27266C41.9659 9.95294 42.5136 11.9166 42.1061 13.9514Z" fill="#36383D"/>
<path d="M12.0786 28.0281C11.594 28.0281 11.1987 28.4229 11.1987 28.907C11.1987 29.3911 11.594 29.7859 12.0786 29.7859C12.5633 29.7859 12.9586 29.3911 12.9586 28.907C12.9586 28.423 12.5633 28.0281 12.0786 28.0281Z" fill="#36383D"/>
<path d="M10.2308 32.862C9.74608 32.862 9.35081 33.2568 9.35081 33.7409C9.35081 34.225 9.74608 34.6198 10.2308 34.6198C10.7154 34.6198 11.1107 34.225 11.1107 33.7409C11.1107 33.2569 10.7154 32.862 10.2308 32.862Z" fill="#36383D"/>
<path d="M15.4664 31.6316C14.9817 31.6316 14.5865 32.0264 14.5865 32.5105C14.5865 32.9946 14.9817 33.3894 15.4664 33.3894C15.9511 33.3894 16.3464 32.9946 16.3464 32.5105C16.3464 32.0265 15.9511 31.6316 15.4664 31.6316Z" fill="#36383D"/>
<path d="M31.9213 28.0281C31.4367 28.0281 31.0414 28.4229 31.0414 28.907C31.0414 29.3911 31.4367 29.7859 31.9213 29.7859C32.406 29.7859 32.8013 29.3911 32.8013 28.907C32.8013 28.423 32.406 28.0281 31.9213 28.0281Z" fill="#36383D"/>
<path d="M33.7692 32.862C33.2845 32.862 32.8893 33.2568 32.8893 33.7409C32.8893 34.225 33.2845 34.6198 33.7692 34.6198C34.2539 34.6198 34.6491 34.225 34.6491 33.7409C34.6491 33.2569 34.2539 32.862 33.7692 32.862Z" fill="#36383D"/>
<path d="M28.5335 31.6316C28.0489 31.6316 27.6536 32.0264 27.6536 32.5105C27.6536 32.9946 28.0489 33.3894 28.5335 33.3894C29.0182 33.3894 29.4135 32.9946 29.4135 32.5105C29.4135 32.0265 29.0182 31.6316 28.5335 31.6316Z" fill="#36383D"/>
<path d="M12.9281 9.62282C12.4952 9.40248 11.9653 9.57448 11.7446 10.0071C11.7442 10.008 11.7368 10.0228 11.7362 10.0238C11.5173 10.4572 11.6915 10.9857 12.1254 11.2044C12.2525 11.2685 12.3878 11.2989 12.5211 11.2989C12.8426 11.2988 13.1525 11.1221 13.3074 10.8158C13.3079 10.8147 13.3123 10.806 13.3136 10.8033C13.5329 10.3711 13.3606 9.8429 12.9281 9.62282Z" fill="#36383D"/>
<path d="M19.3779 4.25397C19.2628 3.78244 18.7871 3.49293 18.3146 3.60815C16.208 4.1209 14.0172 6.37572 13.0586 7.76623C12.7829 8.16596 12.884 8.71325 13.2843 8.98852C13.4367 9.09337 13.6105 9.14365 13.7826 9.14365C14.0624 9.14365 14.3375 9.01067 14.5082 8.76308C15.4932 7.33408 17.3422 5.65406 18.7313 5.31595C19.2035 5.20099 19.493 4.72559 19.3779 4.25397Z" fill="#36383D"/>
</svg>
