<svg width="1436" height="925" viewBox="0 0 1436 925" fill="none" xmlns="http://www.w3.org/2000/svg">
<g clip-path="url(#clip0_203_31826)">
<path d="M72.0868 703.173L71.7996 703.461L66.63 717.846L64.476 735.253L62.1784 737.411L60.3116 740.288L59.0191 743.453L58.1576 747.337L73.9536 731.656L87.0212 705.906L88.0264 708.783L88.17 710.653L91.1856 718.278L92.6216 720.292L95.9244 722.018L101.238 719.573L103.535 720.436L105.115 731.081L96.9296 739.856L76.5384 753.379L60.3116 772.512L50.116 777.835L39.2023 772.943L24.8423 773.519L10.3387 776.971L2.72795 781.575L6.89235 771.505L9.33355 766.901L10.3387 763.017L4.73835 755.968L1.43555 749.639L2.58435 744.028L10.3387 739.137L29.4375 729.786L31.0171 729.499L33.6019 730.362L35.4688 730.649L37.3355 730.362L44.2283 728.204L45.6643 725.183L45.3772 720.867L45.5208 715.832L47.8183 702.885L48.8236 699.289L53.4188 688.787L71.0816 703.461L72.0868 703.173Z" fill="#F2FBFA" stroke="white" stroke-width="2" stroke-linecap="round" stroke-linejoin="round"/>
<path d="M440.422 175.937L441.284 177.376L442.145 178.095L455.5 184.856L464.116 191.761L466.27 195.358L466.701 199.098L468.855 200.68H472.301L487.666 204.708L493.841 205.284L496.139 205.14L498.724 206.147L501.452 208.017L504.468 213.052L509.494 217.368L504.324 222.259L503.606 225.28L503.893 226.862L505.042 227.582L510.93 228.301L510.068 229.452L491.113 234.918L456.362 232.041L453.346 230.747L451.479 226.719L450.618 226.431L449.9 227.294L449.325 229.308L448.033 230.89L446.31 232.617L443.725 233.768L438.412 238.227L434.822 240.529L426.636 243.406L421.754 244.413L415.723 244.845L389.013 239.378L388.152 244.125L388.726 246.283L388.152 248.009L386.859 249.448L383.7 251.75L383.126 253.188L382.982 255.778L383.556 259.086L384.274 261.1L382.551 262.683L366.899 265.704L356.99 264.697L354.98 265.128L353.688 266.423L353.113 269.013L352.252 270.883L349.954 274.335L348.518 277.5L346.22 280.521L342.774 283.974L337.748 286.563L334.876 288.865L331.43 292.317L328.127 293.037L320.803 292.749L317.213 294.763L305.725 303.682L302.279 305.696L299.838 306.415L298.402 305.696L297.396 304.401L294.381 301.956L285.765 301.38L282.031 299.942L282.749 299.222L288.78 289.152L297.971 279.658L319.511 263.69L318.218 252.037L320.229 242.399L326.26 236.213L329.132 235.925L330.855 235.206L335.45 228.876L338.753 227.006L342.056 226.143L345.072 224.129L347.513 218.95L344.21 214.203L339.471 209.887L334.732 206.003L328.845 208.88L291.078 212.621L292.658 206.579L296.535 199.242L301.274 193.056L309.459 188.165L309.89 179.246L318.218 177.376L323.388 174.499L328.127 170.327L330.568 166.443L328.988 160.832L325.686 154.215L324.968 149.036L330.855 147.166L333.727 145.008L336.599 144.289L339.471 145.008L342.343 147.166L350.528 148.46L366.324 145.583L373.935 147.166L377.956 149.611L382.264 150.331L390.88 149.467L385.136 162.846L386.859 170.471L393.752 174.642L403.086 177.663L404.378 178.67L405.384 180.397L406.532 181.979L409.117 183.13L411.128 182.698L423.19 177.376L431.662 175.649L440.422 175.937Z" fill="#F2FBFA" stroke="white" stroke-width="2" stroke-linecap="round" stroke-linejoin="round"/>
<path d="M285.763 301.38L292.225 304.977L295.815 309.724L297.825 313.896L298.831 318.212L298.543 321.377L297.251 327.275L296.677 328.713L295.097 330.296L294.235 333.748L294.379 336.625H295.241L343.634 321.52L345.788 320.945L346.075 327.275L350.383 328.426L359.717 333.748L362.158 335.906L363.307 337.92V338.639L361.584 340.078L361.297 341.373L362.158 344.106L362.733 347.846V350.292L361.871 353.025L358.855 354.608L355.553 357.341L348.516 360.362L347.367 361.8L346.362 363.958L344.639 371.726L343.203 375.035L340.187 383.379L316.206 403.231L304 413.445L293.805 421.933L259.053 450.704L253.884 439.052L252.735 434.16L252.879 429.701L252.591 427.111L251.73 424.666L249.145 422.508L247.422 420.206L246.56 417.329L247.278 412.87L246.273 407.115L227.461 418.48L219.133 425.529L214.25 428.838L204.629 432.146L189.12 440.346L184.669 443.799L181.509 445.525L178.781 445.957L162.411 446.82L156.523 447.827L157.672 444.95L158.246 438.476L157.241 433.297L152.933 425.241L151.641 421.069L156.379 404.67L171.745 395.607L205.921 384.817L227.174 368.562L234.354 358.06L230.621 349.429L234.929 341.948L237.801 339.071L245.842 336.194L246.991 333.173L248.14 332.31L252.735 330.008L252.304 321.952L261.925 318.643L282.029 299.942L285.763 301.38Z" fill="#F2FBFA" stroke="white" stroke-width="2" stroke-linecap="round" stroke-linejoin="round"/>
<path d="M784.775 105.591L784.344 108.468L777.02 120.408L770.127 127.313L764.814 135.945L763.235 144.864L763.091 149.755L764.814 156.228L771.707 171.333L774.148 178.526L778.456 184.281L779.318 186.151L777.882 190.035L769.553 198.666L768.835 201.256L771.563 203.701L777.882 207.01L779.318 208.592L779.174 211.613L778.456 218.231L779.461 221.539L783.195 225.567L792.673 222.69L791.667 227.15L788.795 232.329L782.908 239.953L777.451 243.406L775.297 244.269L772.569 244.557L773.287 248.297L780.467 263.546L776.302 271.602L775.871 275.774L777.595 295.626L779.892 312.025L770.702 311.594L766.681 309.724L764.958 308.141L762.66 305.264L759.214 299.798L758.065 297.496L747.439 266.998L744.997 261.532L743.705 257.648L742.7 253.044L740.977 250.311L739.11 248.585L733.797 246.283L728.483 246.858L723.17 253.188L721.734 256.928L714.554 269.875L709.385 273.76L706.513 274.047L704.359 273.184L702.923 272.033L701.056 270.163L700.194 267.718L700.625 266.567L702.923 265.56L702.061 264.84L699.189 263.69L690.573 263.402L684.111 261.244L679.372 256.209L657.545 264.84L650.509 250.742L645.626 248.585L638.733 248.728L637.441 249.016L636.723 250.886V254.627L637.154 258.655L636.579 261.532L634.856 263.114L626.671 265.991H619.491L600.105 270.019L595.941 262.826L595.653 261.819L594.792 252.613L597.233 249.592L604.844 234.199L605.849 233.048L619.922 219.957L622.219 220.532L624.948 221.683L645.195 224.704L647.493 223.553L650.078 221.827L654.386 211.613L657.976 206.147L660.273 200.824L659.986 191.905L655.965 190.754L652.806 189.028L650.078 186.295L648.642 184.137L647.206 177.663L645.195 176.368L644.765 172.053L645.052 169.607L644.477 168.025L641.749 164.716L636.723 163.853L632.702 161.12L632.128 158.242V151.625L622.363 150.618L619.491 148.46L618.342 144.864L609.008 130.622L607.572 127.313L605.705 126.018L603.264 122.422L598.669 121.127L596.802 121.415L595.941 122.134L595.51 124.148L595.079 128.608L594.361 129.903L586.319 137.239L582.011 137.815L581.15 136.232L580.432 133.499L580.288 130.766L580.432 128.464L578.565 126.882L577.129 126.594L565.497 120.84L564.492 120.12L576.985 117.531L583.017 114.078L588.043 108.036L593.787 98.8295L598.238 101.131L618.773 102.426L620.64 104.44L621.645 108.899L622.363 113.359L623.225 115.373H664.438L678.798 112.064L681.813 109.906L683.249 107.893L684.542 105.591L687.27 102.426L689.855 100.412L696.748 96.6717L702.492 94.9454L704.646 92.6437L706.225 90.342L707.949 89.1911L725.037 86.314H730.781L739.11 88.7595L742.7 89.1911L744.423 91.2051L746.146 95.8085L748.444 100.412L751.459 102.426L763.522 105.591L783.913 105.735L784.775 105.591Z" fill="#F2FBFA" stroke="white" stroke-width="2" stroke-linecap="round" stroke-linejoin="round"/>
<path d="M779.891 312.026L783.768 318.356L786.496 319.075L789.799 320.513L791.522 325.548L781.758 331.59L780.034 333.173L779.173 334.899L778.742 336.625L778.598 339.071L778.168 340.797L777.019 342.38L774.29 345.401L773.716 346.983L774.29 349.572L776.014 351.874L779.46 353.744L784.342 351.443L797.123 354.895L809.329 366.116L810.478 367.842L811.483 370.144L810.334 373.74L809.329 376.186L798.846 381.653L797.123 378.488L792.815 374.172L788.22 373.309L785.491 376.042L785.204 378.2L782.045 379.207L771.562 379.063L770.7 377.049L767.254 375.035L762.372 377.481L755.622 379.782L751.602 379.063L748.012 378.919L743.991 379.639L736.236 379.495L730.78 380.646L724.748 382.803L722.882 384.098L721.876 386.4L721.733 388.27L723.169 391.866L705.506 393.593L700.193 397.045L699.475 398.34L700.767 402.368L701.054 404.814L700.624 407.115L694.162 413.013L686.551 422.796L685.258 423.227L684.54 422.652L683.392 421.069L680.663 420.926L679.084 421.645L677.791 422.652L675.494 426.104L674.345 428.406L673.196 431.715L672.047 438.476L666.59 451.135L665.872 453.581L666.878 458.328L668.457 461.781L670.18 468.974L665.011 477.317L658.549 476.886L652.948 479.044L648.21 481.777L645.768 482.209L643.758 481.633L639.594 476.598L635.86 470.7L614.894 453.869L609.868 448.402L609.725 444.806L606.853 435.599L607.427 433.297L610.443 430.42L611.448 427.687L611.735 424.234L611.017 418.624V415.891L611.592 413.877L612.74 413.013L615.469 411.863L617.91 410.424L618.628 410.136L621.213 410.856L622.792 410.568L624.372 409.417L625.377 407.691L626.526 404.957L628.249 403.663L628.824 402.8L629.542 398.34L630.116 397.189L631.983 394.312L632.988 390.14L633.85 388.126L636.004 377.337L629.111 375.898L626.957 374.028L618.484 373.165L617.336 365.684L615.756 363.67L613.602 359.786L610.874 356.046L610.012 352.881V349.86L611.017 340.366V331.159L611.735 326.268L612.597 323.103L615.182 318.499L612.453 304.401V299.654L611.448 295.914L609.725 291.742L608.289 289.009L600.104 270.02L619.49 265.992H626.67L634.855 263.114L636.578 261.532L637.152 258.655L636.722 254.627V250.887L637.44 249.016L638.732 248.729L645.625 248.585L650.507 250.743L657.544 264.841L679.371 256.209L684.11 261.244L690.572 263.402L699.188 263.69L702.06 264.841L702.921 265.56L700.624 266.567L700.193 267.718L701.054 270.163L702.921 272.034L704.357 273.184L706.511 274.048L709.383 273.76L714.553 269.876L721.733 256.929L723.169 253.188L728.482 246.859L733.795 246.283L739.108 248.585L740.975 250.311L742.698 253.044L743.704 257.648L744.996 261.532L747.437 266.999L758.064 297.496L759.212 299.798L762.659 305.265L764.956 308.142L766.68 309.724L770.7 311.594L779.891 312.026Z" fill="#F2FBFA" stroke="white" stroke-width="2" stroke-linecap="round" stroke-linejoin="round"/>
<path d="M798.848 381.652L806.602 387.119L829.434 384.098L830.009 386.975L829.578 389.421L825.126 403.231L824.265 405.101L822.829 406.683L819.239 409.992L803.012 418.48L797.699 422.076L796.981 423.083L796.837 424.522L799.135 428.118L799.996 430.132L800.427 433.153L799.853 436.462L801.145 445.956L785.78 446.532L782.477 443.798L781.328 441.065L779.749 440.346L778.313 440.49L772.282 444.518L770.558 444.662L770.702 443.223L770.846 440.058L769.122 437.613L767.974 437.325L766.681 438.188L765.532 440.49L765.676 442.072L766.681 444.23L767.256 449.697L767.83 451.998L769.553 457.896V462.212L772.712 464.514L773.143 465.521L773.574 468.254L775.297 470.556L776.59 472.714L778.744 475.015L783.77 477.173L784.631 478.036L785.206 479.619L784.488 480.482L775.441 483.359L767.974 476.742L761.368 472.714L754.906 463.651L754.044 452.718L754.619 448.258L754.906 438.907L756.486 433.585L756.916 431.427V418.911L756.342 417.041L754.762 415.603L747.295 412.006L745.285 410.28L743.705 408.122L744.136 404.957L744.998 403.375L746.864 400.354L747.726 398.196L748.731 393.88L748.013 392.585L746.864 391.866L734.802 388.126H733.51L732.074 388.701L728.627 390.571L723.17 391.866L721.734 388.27L721.878 386.4L722.883 384.098L724.75 382.803L730.781 380.645L736.238 379.494L743.992 379.638L748.013 378.919L751.603 379.063L755.624 379.782L762.373 377.48L767.256 375.035L770.702 377.049L771.564 379.063L782.046 379.207L785.206 378.2L785.493 376.042L788.221 373.309L792.816 374.172L797.124 378.487L798.848 381.652Z" fill="#F2FBFA" stroke="white" stroke-width="2" stroke-linecap="round" stroke-linejoin="round"/>
<path d="M802.58 596.287L793.246 608.946L787.933 612.542L780.61 613.406L777.881 614.269L776.876 615.276L776.732 616.427L777.163 618.297L777.02 619.304L775.296 622.325L774.004 625.633L773.286 628.654L773.717 634.121L760.218 636.998L751.459 641.745L744.71 648.938L742.125 654.836L743.274 656.85L745.428 658.433L745.571 663.036L743.704 667.352L740.545 671.092L736.812 673.969L727.908 678.573L712.256 699.288L705.65 703.892L691.865 706.913L684.972 710.221L678.797 716.551L675.638 721.011L674.346 724.895L675.351 726.621L682.818 733.095L692.152 751.364L693.157 768.196L686.264 783.157L672.335 795.241L668.889 796.392L662.283 797.111L659.124 799.556L656.826 804.304L656.108 809.626V814.805L654.385 827.896L653.811 828.759L650.795 835.521L650.508 836.528L646.631 841.706L644.333 843.72L641.318 844.584L618.772 849.762L614.177 853.503L610.731 860.12L609.869 868.752L603.264 869.039L602.976 869.902L601.971 874.506L602.258 876.951L601.397 878.534L597.52 880.692L595.653 880.548L589.909 878.822L581.149 878.965L565.928 873.355L562.768 873.787L560.471 874.937L557.742 875.513L553.865 874.218L553.434 873.067L547.403 864.292L542.664 859.832L537.638 856.955L505.328 848.755L500.015 851.489L496.856 856.668L493.41 861.271L486.804 862.134L477.326 866.306L458.515 880.116L448.319 883.713L424.482 881.123L420.317 882.562L411.414 888.172L391.741 896.228L382.263 898.098L371.78 898.242L362.016 896.228L354.692 891.769L340.475 875.657L338.178 872.06L336.598 867.457L334.301 858.969L330.711 849.475L329.562 844.584L327.982 843.577L306.442 819.121L299.262 815.956L296.534 817.107L294.38 819.409L291.939 821.279L288.923 820.847L286.051 818.689L285.907 817.251L286.482 815.381L286.338 811.784L286.913 811.353L286.769 806.461L286.195 802.002L286.769 799.988L289.354 796.967L291.508 793.371L291.939 789.918L287.056 785.171L261.783 779.56L259.054 771.792L261.926 756.112L267.383 739.568L278.727 717.558L271.404 705.042L260.203 692.958L254.172 682.457L255.895 677.134L264.224 667.208L266.521 659.584L266.091 654.98L272.122 655.412L287.2 658.433L291.077 656.131L293.231 659.44L297.826 665.05L299.98 668.934L299.837 671.38L299.119 674.401L298.688 677.853L299.98 681.306L303.857 684.039L308.165 684.902L311.468 687.636L312.904 695.836L314.34 700.007L334.588 735.396L341.768 745.035L344.065 749.494L347.655 754.241L359.862 747.336L370.344 740.431L377.812 731.081L381.402 729.498L387.433 723.312L391.884 716.983L395.618 710.509L396.91 706.913L396.336 700.871L396.48 699.432L401.936 693.39L405.814 688.93L416.871 682.457L419.312 678.285L419.599 675.264L421.035 673.969L431.374 670.517H433.241L434.103 671.524L434.39 674.689L433.959 678.429L434.39 679.58L436.257 680.155L438.124 681.162L450.042 677.134L457.366 671.955L460.382 668.359L461.818 667.208L466.413 666.201L480.198 666.057L487.809 668.359L490.538 669.366L492.548 669.222L495.276 668.503L506.621 663.755L511.216 659.584L507.195 657.138L505.328 654.693L512.508 650.089L523.278 646.924L524.284 645.773L527.73 643.04L528.304 642.033L529.31 639.012L531.751 637.286L538.356 638.149L559.322 648.363L563.056 648.075L601.828 619.735L605.561 620.886H610.3L613.172 620.311L619.921 617.721L631.553 609.521L640.312 603.767L641.318 602.472L642.466 600.171L642.036 597.15L640.025 593.266V592.546L641.748 590.964L652.088 584.49L660.273 584.059L687.27 589.238L689.998 591.539L697.609 594.992L706.225 595.855L706.656 596.143L706.943 599.739L708.092 600.458L709.671 601.034L711.538 600.89L728.052 597.581L735.663 594.848L750.31 586.504L753.613 583.627L758.639 580.462L761.942 577.01L763.521 574.708L764.957 572.119L766.537 561.905L768.404 554.712L769.696 550.972L771.563 547.088L777.738 539.463L781.184 538.888L783.769 540.182L784.487 541.333L785.061 543.491L784.918 547.375L784.2 553.13L783.051 558.165L780.897 565.645L780.466 567.947L780.897 570.536L781.758 573.413L785.205 581.901L789.944 589.525L802.58 596.287Z" fill="#F2FBFA" stroke="white" stroke-width="2" stroke-linecap="round" stroke-linejoin="round"/>
<path d="M1162.01 167.593L1153.68 171.046L1148.8 171.909L1142.91 171.621V173.491L1143.34 174.498L1153.4 179.533L1153.97 183.849L1140.33 192.337L1139.75 185.719L1141.33 183.993L1141.48 181.835L1141.19 180.109L1139.9 178.382L1138.32 176.8L1136.31 175.074L1135.16 175.361L1133.15 177.232L1131.14 178.67L1130.13 181.835L1131.57 183.13L1132 184.137L1131.28 185L1127.55 186.87L1124.25 188.74L1123.24 194.063L1121.66 205.859L1123.81 212.908L1113.62 212.62L1079.87 196.652L1077.86 198.666V202.119L1077.58 207.873L1075.85 212.333L1074.13 215.641L1071.54 218.806L1066.81 222.546L1065.8 225.28L1064.94 236.357L1065.51 240.385L1066.66 243.262L1069.1 246.571L1070.68 249.448L1071.83 253.188L1072.41 255.202L1073.99 260.093L1068.67 261.532L1066.66 261.388L1063.36 258.942L1053.59 253.476L1037.8 251.462L1034.93 250.599L1033.49 249.735L1031.19 246.858L1034.93 242.543L1032.63 231.897L1032.77 229.02L1033.49 227.15L1035.5 224.848L1037.94 220.676L1037.51 219.094L1036.51 218.375H1035.07L1031.91 219.094L1027.75 210.894L1028.32 210.031L1032.2 206.291L1034.64 201.975L1037.8 195.07L1039.38 192.193L1040.53 190.898L1043.4 191.33L1054.74 189.603H1057.04L1062.21 191.33L1076.57 188.452L1087.91 186.582H1094.95L1098.68 185.431L1100.69 183.274L1101.27 180.828L1102.27 177.951L1103.85 175.074L1107.59 174.211L1110.32 173.06L1126.26 165.867L1132.86 159.825L1134.58 158.962L1135.88 158.818L1137.31 159.681L1140.04 160.256L1140.9 160.832L1144.06 163.421L1149.09 165.291L1162.01 167.593Z" fill="#F2FBFA" stroke="white" stroke-width="2" stroke-linecap="round" stroke-linejoin="round"/>
<path d="M1119.65 144.001L1125.82 149.467L1133.15 147.309L1144.35 138.103L1144.92 138.678L1154.4 152.92L1166.18 158.386L1175.22 166.442L1175.08 186.439L1171.92 193.631L1159.57 209.168L1158.13 213.484L1156.56 221.683L1155.26 224.992L1144.49 238.083L1128.98 264.409L1123.53 280.233L1122.81 296.057L1125.25 303.826L1128.7 310.587L1131.28 318.068L1131.43 327.994L1128.41 334.323L1123.53 339.358L1119.94 344.393L1120.22 348.709V350.579L1122.67 358.348L1126.26 366.116L1135.88 382.659L1137.74 386.4L1135.3 386.975L1133.44 388.126L1131.86 389.852L1130.71 394.168L1129.85 396.038L1126.83 398.484L1125.25 400.498L1123.1 404.382L1121.52 407.978L1120.51 413.589L1120.66 415.746L1120.22 418.192L1119.36 420.781L1115.2 428.118L1111.18 429.413L1110.32 433.297L1109.31 433.729L1107.01 433.441L1103.42 430.708L1096.96 427.543L1054.46 421.213L1053.02 422.076L1050.29 421.788L1045.27 415.746L1045.84 411.431L1045.55 409.561L1043.11 404.094L1041.96 399.922L1041.82 398.196L1042.82 395.606L1044.26 382.228L1043.69 378.919L1042.39 374.747L1038.23 366.116L1035.5 362.519L1032.92 360.505L1030.62 360.793L1028.32 361.512L1024.73 363.383L1018.84 363.958L1016.83 363.383L1010.94 359.93L1010.66 359.067L1011.52 357.916L1022.43 350.292L1024.3 343.674L1025.88 321.376L992.421 314.903L987.538 312.026L970.881 296.777H969.014L963.988 299.51L955.515 290.879L953.505 286.994L953.649 282.966L954.51 278.507L944.602 275.342L914.733 278.363L897.357 275.342L901.665 264.409L907.553 259.806L920.621 261.676L924.785 261.244L943.597 252.469L946.469 249.879L947.905 247.578L947.761 243.694L949.484 240.816L951.925 237.652L955.946 234.055L957.957 231.753L958.962 229.883L957.957 226.287L956.09 216.217L948.623 202.407L947.187 200.393L950.489 200.249L953.074 196.652L957.382 188.74L960.541 185L964.131 176.944L965.28 175.218L966.716 174.786L967.865 175.218L970.163 174.93L973.322 173.348L975.045 172.916L977.199 172.628L978.348 171.909L978.922 170.758L979.066 169.176L978.635 164.428V162.702L969.875 156.372L969.157 154.79L968.87 152.488L969.875 150.33L971.742 149.611L974.901 148.748L977.486 145.871L978.635 145.583L981.076 146.446L983.087 146.59L988.543 145.727L989.549 145.871L991.846 148.748L992.708 149.036L996.729 148.604L1000.75 149.611H1004.77L1009.94 148.748L1012.52 147.309L1013.96 145.583L1016.83 140.26L1021.57 146.015L1031.91 150.906L1044.26 153.783L1050 154.502L1051.15 153.495L1054.02 151.913L1055.89 151.769L1058.62 152.344L1060.77 151.769L1062.5 150.474L1064.36 147.166L1065.51 143.569L1063.93 136.52L1061.64 136.089L1059.91 136.808L1057.9 137.239L1054.46 136.664L1053.31 135.945V134.65L1054.46 133.931L1055.6 134.218L1058.62 131.629L1062.5 130.478L1065.08 130.334L1065.94 130.047L1067.52 128.464L1070.68 127.313L1075.13 127.169L1078.15 131.917L1078.01 135.513L1076.86 138.103L1077.72 140.404L1084.76 149.611L1087.48 151.913L1089.64 152.632L1091.79 148.316L1108.02 135.945L1111.18 138.103L1109.74 142.562L1110.32 143.857L1113.48 145.439L1116.2 145.295L1119.65 144.001ZM1073.99 260.093L1078.15 263.114L1080.88 264.265L1083.18 265.704L1085.9 266.279H1088.06L1096.96 262.827L1103.14 259.662L1107.73 256.353L1112.18 251.462L1118.36 239.666L1123.81 212.908L1121.66 205.859L1123.24 194.063L1131.86 190.61L1135.88 190.035L1140.33 192.337L1153.97 183.849L1153.4 179.533L1153.97 176.081L1154.69 174.93L1162.01 167.593L1149.09 165.292L1144.06 163.421L1140.9 160.832L1140.04 160.257L1137.31 159.681L1135.88 158.818L1134.58 158.962L1132.86 159.825L1126.26 165.867L1110.32 173.06L1107.59 174.211L1103.85 175.074L1102.27 177.951L1101.27 180.828L1100.69 183.274L1098.68 185.431L1094.95 186.582H1087.91L1076.57 188.452L1062.21 191.33L1057.04 189.603H1054.74L1043.4 191.33L1040.53 190.898L1039.38 192.193L1037.8 195.07L1034.64 201.975L1032.2 206.291L1028.32 210.031L1027.75 210.894L1031.91 219.094L1035.07 218.375H1036.51L1037.51 219.094L1037.94 220.676L1035.5 224.848L1033.49 227.15L1032.77 229.02L1032.63 231.897L1034.93 242.543L1031.19 246.858L1033.49 249.736L1034.93 250.599L1037.8 251.462L1053.59 253.476L1063.36 258.942L1066.66 261.388L1068.67 261.532L1073.99 260.093Z" fill="#F2FBFA" stroke="white" stroke-width="2" stroke-linecap="round" stroke-linejoin="round"/>
<path d="M1020.71 762.01L1020.56 762.298L997.445 777.978L991.557 786.897L990.408 792.796L990.983 803.153L989.978 808.764L987.536 813.079L984.521 814.95L977.484 817.107L969.443 823.437L968.007 828.616L973.607 844.584L963.268 854.366L962.263 856.668L963.268 858.97L966.571 862.422L969.299 870.766L972.171 875.082L975.187 876.808L982.08 878.247L985.095 880.117L988.685 887.741L987.536 895.509L979.638 911.046L969.443 923.562L959.965 921.835L949.482 917.088L936.989 920.972L938.138 913.923L940.005 908.457L941.297 902.846L940.723 894.934L939 888.892L936.415 882.85L930.814 873.068L927.655 865.731L925.645 862.854L923.491 861.128L905.254 851.345L900.371 849.619L895.058 849.188L896.781 845.735L902.238 832.932L911.428 821.711L916.167 811.065L907.982 800.276L903.243 798.55L893.478 798.838L888.452 798.118L886.011 796.392L883.57 792.076L880.985 791.213L878.975 792.076L874.092 796.536L871.795 797.831L866.194 797.543L851.404 788.768L845.372 786.61L842.213 785.027L822.109 755.249L813.206 745.898L804.446 741.439L796.118 738.13L790.23 733.239L786.784 725.902L785.491 714.681L786.64 702.741L791.81 678.861L792.815 665.626L792.671 651.672L791.379 641.17L786.927 634.841L777.88 633.258L773.716 634.121L773.285 628.655L774.003 625.634L775.296 622.325L777.019 619.304L777.162 618.297L776.732 616.427L776.875 615.276L777.88 614.269L780.609 613.406L787.932 612.543L793.246 608.946L802.58 596.287L813.062 587.512L813.78 585.066L814.929 582.045L817.514 574.709L819.381 572.551L821.678 571.975L825.412 571.688L853.127 578.161L866.338 572.407L876.964 577.298L901.52 579.456L920.188 576.291L936.271 569.674L939.43 567.516L940.148 565.933L939.861 564.351L939.143 562.912L938.856 560.898L939.287 558.597L941.584 555.288L943.882 554.137L946.323 553.13L949.339 552.411L952.067 549.821H953.79L954.652 550.541L955.083 552.986L955.944 555.288L957.524 557.877L968.294 558.884L969.874 559.604L972.171 561.042L975.761 562.481L979.926 566.509L980.644 567.66L980.931 569.098L980.356 570.824L977.915 575.284L976.91 578.017L975.905 581.47L975.474 584.347L974.756 589.813L973.607 595.568L975.474 604.487L977.341 609.09L980.644 614.845L984.09 619.88L986.388 620.887L988.542 620.023L993.28 619.304L996.87 626.209L997.014 628.943L996.87 632.683L996.152 637.718L996.727 641.602L997.876 644.911L999.455 647.932L999.742 649.802L999.024 651.96L998.019 656.419L996.727 660.16L997.014 674.114L995.865 677.278L990.983 686.485L990.408 689.65L990.696 692.671L991.27 695.548L990.696 697.85L989.403 700.871L986.818 703.892L986.675 705.762L987.106 708.064L989.69 714.537L992.993 721.155L993.28 725.183L992.419 731.081L992.993 733.527L993.998 735.972L996.583 740.144L998.594 742.014L1003.91 745.611L1010.51 753.81L1013.24 756.544L1020.71 762.01Z" fill="#F2FBFA" stroke="white" stroke-width="2" stroke-linecap="round" stroke-linejoin="round"/>
<path d="M1045.26 415.747L1036.36 423.659L1030.9 431.283L1029.32 432.29L1026.74 433.441L1020.71 433.585L1016.11 434.592L1005.2 442.072L1002.04 442.935L999.455 441.929L998.019 439.914L995.722 438.332L992.706 437.181L987.393 436.75L984.234 437.325L982.223 438.476L981.362 439.483L981.218 441.209V444.806L980.787 446.388L979.926 447.827L976.623 455.307L974.182 458.472L969.73 462.644L962.55 466.096L944.887 471.563L942.015 471.707L940.723 470.844L940.005 467.679L939.431 466.528L937.851 466.24L934.548 464.946L927.943 464.658L927.799 455.739L927.512 453.437L927.943 450.416L936.271 444.23L938.713 441.929L942.015 441.497L948.765 438.764L950.919 436.894L952.211 434.304L952.355 429.701L952.211 426.967L950.919 422.652L946.611 414.883L953.36 411.431L954.939 405.82L956.088 399.635L955.514 396.614L954.365 394.6L949.195 391.003L947.759 389.421L946.323 386.975L946.18 385.537L947.185 383.954L947.041 383.235L938.138 370.288L933.687 366.26L935.266 360.937L938.856 358.348L946.754 354.607L949.483 351.442L952.067 347.558L955.227 341.085L955.514 337.632L954.652 331.59L956.232 329.001L956.95 327.131L957.811 321.952V319.219L963.986 299.51L969.012 296.777H970.879L987.537 312.026L992.419 314.903L1025.88 321.376L1024.3 343.674L1022.43 350.292L1011.52 357.916L1010.66 359.067L1010.94 359.93L1016.83 363.383L1018.84 363.958L1024.73 363.383L1028.32 361.512L1030.62 360.793L1032.91 360.505L1035.5 362.519L1038.23 366.116L1042.39 374.747L1043.68 378.919L1044.26 382.228L1042.82 395.607L1041.82 398.196L1041.96 399.922L1043.11 404.094L1045.55 409.561L1045.84 411.431L1045.26 415.747Z" fill="#F2FBFA" stroke="white" stroke-width="2" stroke-linecap="round" stroke-linejoin="round"/>
<path d="M1020.71 762.01L1013.24 756.543L1010.51 753.81L1003.91 745.61L998.595 742.014L996.585 740.144L994 735.972L992.995 733.526L992.42 731.081L993.282 725.183L992.995 721.155L989.692 714.537L987.107 708.064L986.676 705.762L986.82 703.892L989.405 700.871L990.697 697.85L991.271 695.548L990.697 692.671L990.41 689.65L990.984 686.485L995.867 677.278L997.015 674.113L996.728 660.159L998.021 656.419L999.026 651.959L999.744 649.802L999.457 647.931L997.877 644.91L996.728 641.602L996.154 637.718L996.872 632.683L997.015 628.942L996.872 626.209L993.282 619.304L988.543 620.023L986.389 620.886L984.091 619.879L980.645 614.844L977.342 609.09L975.475 604.487L973.609 595.567L974.757 589.813L975.475 584.347L975.906 581.47L976.911 578.017L977.917 575.284L980.358 570.824L980.932 569.098L980.645 567.659L979.927 566.508L975.763 562.48L972.173 561.042L969.875 559.603L968.295 558.884L957.525 557.877L955.946 555.288L955.084 552.986L954.653 550.54L953.792 549.821H952.069L949.34 552.41L946.325 553.13L943.883 554.137L941.586 555.288L939.288 558.596L938.857 560.898L939.145 562.912L939.863 564.351L940.15 565.933L939.432 567.515L936.273 569.673L920.189 576.291L901.521 579.455L876.966 577.298L866.339 572.407L867.345 566.077L866.627 562.337L864.903 556.582L864.185 555.144L860.452 552.698L859.447 551.26L858.729 549.389L858.441 546.8L858.585 544.211L860.883 536.874L863.18 531.695L863.755 529.249L863.898 527.379L863.611 524.646L864.76 522.776L866.914 520.762L872.083 518.46L875.243 517.885L878.402 516.015L885.725 506.376L888.885 503.067L894.485 501.053L899.224 502.78L900.516 502.924L905.255 501.773L906.404 501.053L907.409 499.471L907.122 495.299L907.553 493.573L910.137 489.257L913.009 485.517L913.584 481.633L913.297 476.166L914.158 475.015L916.599 474.44L918.753 473.577L920.907 471.275L924.497 469.261L927.944 464.658L934.549 464.945L937.852 466.24L939.432 466.528L940.006 467.679L940.724 470.844L942.017 471.707L944.889 471.563L962.551 466.096L969.731 462.644L974.183 458.472L976.624 455.307L979.927 447.826L980.789 446.388L981.219 444.805V441.209L981.363 439.483L982.225 438.476L984.235 437.325L987.394 436.749L992.707 437.181L995.723 438.332L998.021 439.914L999.457 441.928L1002.04 442.935L1005.2 442.072L1016.11 434.592L1020.71 433.585L1026.74 433.441L1029.33 432.29L1030.91 431.283L1036.36 423.658L1045.27 415.746L1050.29 421.788L1053.02 422.076L1054.46 421.213L1096.96 427.543L1103.42 430.707L1107.01 433.441L1109.31 433.728L1110.32 433.297L1111.18 429.413L1115.2 428.118L1119.36 420.781L1120.22 418.192L1120.66 415.746L1120.51 413.588L1121.52 407.978L1123.1 404.382L1125.25 400.497L1126.83 398.483L1129.85 396.038L1130.71 394.168L1131.86 389.852L1133.44 388.126L1135.3 386.975L1137.74 386.4L1135.88 382.659L1126.26 366.116L1122.67 358.347L1120.22 350.579V348.709L1127.4 350.867L1146.79 354.032L1153.25 352.018L1159.28 353.6L1175.94 351.442L1181.25 352.305L1241.28 371.295L1240.7 376.617L1242 377.768L1244.01 377.624L1245.3 379.063V381.94L1243.86 386.4L1243.15 397.333L1242.14 402.368L1242.72 406.683L1246.74 412.438L1254.63 418.48L1288.52 429.557L1300.87 441.353L1307.91 445.525L1321.7 449.84L1328.3 450.128L1336.49 447.826L1350.27 440.777L1353.57 435.886L1354.44 432.434L1354.72 428.406L1356.16 422.508L1361.04 414.308L1366.21 413.445L1372.39 415.027L1380.28 414.595L1380.43 405.964L1386.03 395.175L1393.93 385.968L1403.26 380.645L1404.98 380.358L1406.71 380.645L1408.43 381.796L1411.73 385.393L1418.34 396.182L1429.11 404.813L1431.98 408.122L1433.7 416.034L1429.68 431.858L1430.54 441.784L1428.82 456.889L1427.67 461.061L1425.81 463.938L1418.91 472.426L1419.49 479.331L1421.78 486.092L1422.5 492.422L1418.63 498.32L1413.31 501.773L1412.02 506.088L1412.31 511.411L1411.59 518.029L1408.57 523.495L1405.13 526.804L1403.55 531.12L1406.28 540.039L1412.02 546.8L1425.52 548.239L1432.12 553.849L1434.56 562.768L1434.28 574.708L1431.84 586.217L1427.38 593.553L1421.64 594.704L1398.81 588.662L1387.75 589.813L1383.73 589.094L1380.14 587.368L1378.13 585.354L1376.55 582.908L1373.97 580.75L1360.9 576.147L1359.46 571.112L1361.19 561.617L1360.61 556.438L1355.58 552.267H1347.4L1317.24 561.042L1314.23 562.768L1312.94 566.077L1308.91 581.326L1306.33 584.778L1299.44 591.683L1296.71 595.855L1296.28 599.164V609.378L1294.84 614.269L1295.27 618.585L1295.99 621.893L1297.57 624.483L1300.3 626.353L1294.7 635.991L1299.72 642.177L1309.06 645.917L1323.27 648.651L1328.73 650.809L1331.03 655.987L1328.59 666.057L1326.29 669.222L1319.68 675.12L1317.24 679.724L1315.66 685.91L1315.52 690.082L1316.81 693.966L1319.68 699.144L1332.75 712.523L1336.77 720.867L1332.61 729.642L1323.85 735.253L1310.35 740.288L1299.87 740.144L1299.58 729.786L1296.42 721.874L1283.93 710.653L1279.19 704.323L1277.18 694.253L1277.04 685.19L1274.88 677.566L1266.98 672.387L1260.38 670.661L1254.2 670.229L1240.42 672.531L1219.31 683.464L1212.7 685.622L1208.54 684.759L1200.93 680.155L1197.48 680.012L1194.03 683.896L1193.32 689.218L1193.89 694.397L1193.75 698.137L1188.87 704.899L1182.83 707.2L1146.5 706.769L1139.04 704.179L1132.43 699.576L1128.27 693.966L1121.95 677.278L1119.22 674.977L1112.18 670.949L1109.89 668.791L1109.17 666.201L1109.74 659.152L1107.73 614.7L1106.73 611.823L1104.28 612.399L1099.12 616.283L1096.96 619.16L1095.81 622.469L1094.38 625.202L1090.93 626.641L1088.49 625.634L1080.3 617.865L1080.16 612.111L1073.84 610.385L1058.33 612.255L1052.3 618.009L1046.84 629.086L1044.26 640.451L1047.42 646.637L1051.58 649.658L1052.16 654.261L1051.44 660.159V666.633L1055.75 683.032L1056.18 689.074L1054.17 699.144L1044.83 718.709L1040.1 735.253L1037.22 739.856L1033.49 743.309L1029.76 745.179L1026.31 747.624L1024.59 752.228L1023.01 757.55L1020.71 762.01Z" fill="#F2FBFA" stroke="white" stroke-width="2" stroke-linecap="round" stroke-linejoin="round"/>
<path d="M826.275 98.1103L829.147 101.707L833.455 100.268L834.173 98.9735V100.7L830.152 111.489L827.711 115.229L825.413 114.942L822.685 111.201L820.531 109.187L819.238 108.324L819.526 104.728L826.275 98.1103ZM921.625 63.0092L912.004 57.8304L908.27 59.4128L905.255 57.9742L901.521 67.0372L899.367 69.4828L898.075 70.4898L896.639 70.9214L895.346 70.7775L893.623 71.6407L892.331 73.0792L890.751 74.0862L888.884 74.8055L875.96 74.3739L873.088 73.3669L870.934 71.9284L868.924 68.9074L867.632 66.3179L867.057 58.6935L868.062 51.5007L854.42 51.0691L851.692 53.8024L849.538 58.1181L844.081 63.1531L839.63 69.1951L836.04 67.6127L831.588 66.8934L816.079 69.6267L811.34 71.9284L807.032 75.0932L802.294 77.5388L796.693 77.8265L790.088 74.0862L781.902 67.7565L780.323 67.6127L775.297 65.7425L777.451 60.5637L776.589 56.5357L775.297 53.0831L775.584 49.6305L778.743 46.0341L786.785 41.5746L790.231 38.4097L792.529 28.9151L794.108 25.4626L798.273 19.1329L800.858 17.5505L804.448 17.6943L821.536 14.2417L826.275 11.7962L823.259 4.31561L828.429 1.43848L836.327 1.87005L842.214 4.60333L842.645 8.05589L842.932 14.0979L844.081 19.8522L847.24 22.2977L851.118 19.5644L852.841 9.35061L855.713 6.18576L859.734 7.62432L862.749 12.2277L865.334 17.8382L867.632 21.5784L870.934 22.2977L874.524 21.5784L877.54 22.1539L879.694 26.9012L878.832 28.7713L874.668 35.101L873.519 38.2658L874.955 42.15L877.396 45.3148L878.832 51.9323L895.634 51.6445L893.049 48.7674L895.921 39.5606L904.393 39.8483L914.732 46.0341L923.061 53.8024L917.174 55.0971V58.4058L921.625 63.0092Z" fill="#F2FBFA" stroke="white" stroke-width="2" stroke-linecap="round" stroke-linejoin="round"/>
<path d="M963.987 299.51L957.812 319.218V321.952L956.95 327.131L956.232 329.001L954.653 331.59L955.514 337.632L955.227 341.085L952.068 347.558L949.483 351.442L946.755 354.607L938.857 358.348L935.267 360.937L933.687 366.26L938.139 370.288L947.042 383.235L947.186 383.954L946.18 385.536L946.324 386.975L947.76 389.421L949.196 391.003L954.366 394.599L955.514 396.613L956.089 399.634L954.94 405.82L953.36 411.431L946.611 414.883L932.251 423.083L930.815 423.515L922.917 427.255L920.763 429.413L919.471 429.844L918.178 428.981L917.46 426.104L917.173 421.069L916.312 419.631L914.445 419.487L912.578 417.473L911.573 415.746L911.429 413.589L911.716 411.575L910.711 409.848L908.557 408.841L899.51 409.129L896.638 408.554L894.484 406.827L892.905 405.964L890.607 406.54L886.874 408.554L884.432 409.417L881.417 410.999L878.114 413.732L876.104 414.596L874.237 413.876L871.796 410.424L870.36 405.245L869.354 403.95L867.775 403.231L860.595 403.806L858.297 403.375L851.548 400.929L848.82 400.21L846.953 399.347L844.512 397.477L843.219 393.305L842.07 386.687L841.64 385.105L838.768 383.666L829.434 384.098L806.601 387.119L798.847 381.652L809.33 376.186L810.335 373.74L811.484 370.144L810.478 367.842L809.33 366.116L797.124 354.895L784.343 351.442L779.461 353.744L776.014 351.874L774.291 349.572L773.717 346.983L774.291 345.4L777.02 342.379L778.168 340.797L778.599 339.071L778.743 336.625L779.174 334.899L780.035 333.173L781.758 331.59L791.523 325.548L794.826 323.103L798.129 321.52L800.283 322.383L803.586 322.671L809.186 335.33L825.556 333.892L827.28 334.18L828.572 335.187L831.157 337.776H834.029L837.762 336.913L844.942 334.323L849.25 333.46L853.558 331.734L857.005 329.001L865.908 318.211L868.349 311.306L874.093 305.264L868.206 301.236L867.631 298.647L865.908 296.057L865.477 293.9L866.195 291.166L868.062 289.008L871.221 286.131L883.571 278.075L897.356 275.342L914.732 278.363L944.601 275.342L954.509 278.507L953.648 282.966L953.504 286.994L955.514 290.879L963.987 299.51Z" fill="#F2FBFA" stroke="white" stroke-width="2" stroke-linecap="round" stroke-linejoin="round"/>
<path d="M921.625 63.0094L931.103 70.2023L938.857 72.2163L951.351 71.0654L962.982 67.3251L968.008 61.7147L974.039 59.413L1009.37 63.441H1026.88L1031.19 70.2023H1031.48L1034.35 74.2303L1086.62 105.591L1089.64 108.756L1090.21 111.058L1095.09 123.142L1096.39 123.429L1119.65 144.001L1116.2 145.296L1113.48 145.439L1110.32 143.857L1109.74 142.562L1111.18 138.103L1108.02 135.945L1091.79 148.317L1089.64 152.632L1087.48 151.913L1084.76 149.611L1077.72 140.404L1076.86 138.103L1078.01 135.513L1078.15 131.917L1075.13 127.17L1070.68 127.313L1067.52 128.464L1065.94 130.047L1065.08 130.334L1062.5 130.478L1058.62 131.629L1055.6 134.219L1054.46 133.931L1053.31 134.65V135.945L1054.46 136.664L1057.9 137.24L1059.91 136.808L1061.64 136.089L1063.93 136.52L1065.51 143.569L1064.36 147.166L1062.5 150.474L1060.77 151.769L1058.62 152.345L1055.89 151.769L1054.02 151.913L1051.15 153.495L1050 154.502L1044.26 153.783L1031.91 150.906L1021.57 146.015L1016.83 140.261L1013.96 145.583L1012.52 147.31L1009.94 148.748L1004.77 149.611H1000.75L996.728 148.604L992.707 149.036L991.846 148.748L989.548 145.871L988.543 145.727L983.086 146.59L981.076 146.446L978.635 145.583L977.486 145.871L974.901 148.748L971.742 149.611L969.875 150.331L968.87 152.488L969.157 154.79L969.875 156.373L978.635 162.702V164.429L979.065 169.176L978.922 170.758L978.347 171.909L977.199 172.628L975.045 172.916L973.321 173.348L970.162 174.93L967.865 175.218L966.716 174.786L965.28 175.218L964.131 176.944L960.541 185L957.382 188.74L953.074 196.652L950.489 200.249L947.186 200.393L934.549 187.014L936.991 183.705L938.283 179.965L938.714 176.656L940.581 174.499V173.779L937.996 172.341L934.837 169.32L933.401 159.681L930.241 157.667L929.523 156.229L928.805 153.495L929.093 151.194L931.103 149.611L932.395 147.597L931.965 144.576L932.108 143.425L933.975 133.499L934.119 132.205L933.257 130.622L931.103 128.752L921.625 124.868L918.466 122.998L916.599 120.84L915.307 116.668L916.887 113.503L917.461 112.64L915.738 110.194L913.871 108.18L893.623 98.1105L889.89 96.9596L887.018 93.3632L885.869 91.6369V90.6299L886.443 89.6229L888.454 88.0405L890.751 87.1774L892.905 87.6089L897.501 89.9107L899.224 91.7808L900.66 92.9317L903.101 93.0755L904.968 89.4791L907.84 86.3142L910.137 81.567L911.573 79.553L912.148 77.2513L911.573 75.2373L907.983 71.0654L906.691 64.7357L901.521 67.0374L905.255 57.9744L908.271 59.413L912.004 57.8306L921.625 63.0094Z" fill="#F2FBFA" stroke="white" stroke-width="2" stroke-linecap="round" stroke-linejoin="round"/>
<path d="M946.612 414.883L950.92 422.652L952.212 426.967L952.356 429.701L952.212 434.304L950.92 436.894L948.766 438.764L942.016 441.497L938.714 441.929L936.272 444.23L927.944 450.416L927.513 453.437L927.8 455.739L927.944 464.658L924.497 469.261L920.907 471.275L918.753 473.577L916.599 474.44L914.158 475.016L913.296 476.166L913.584 481.633L913.009 485.517L910.137 489.257L907.552 493.573L907.122 495.299L907.409 499.471L906.404 501.054L905.255 501.773L900.516 502.924L899.224 502.78L894.485 501.054L888.884 503.068L885.725 506.376L878.402 516.015L875.242 517.885L872.083 518.46L866.914 520.762L864.76 522.776L863.611 524.646L863.898 527.38L863.754 529.25L863.18 531.695L860.882 536.874L858.585 544.211L858.441 546.8L858.728 549.39L859.446 551.26L860.452 552.698L864.185 555.144L864.903 556.582L866.626 562.337L867.344 566.077L866.339 572.407L853.128 578.161L825.413 571.687L821.68 571.975L819.382 572.551L817.515 574.708L814.93 582.045L813.782 585.066L813.064 587.512L802.581 596.287L789.944 589.526L785.205 581.901L781.759 573.414L780.897 570.537L780.466 567.947L780.897 565.646L783.051 558.165L784.2 553.13L784.918 547.376L785.062 543.492L784.487 541.334L783.769 540.183L781.184 538.888L780.179 532.99L778.743 529.106L778.6 523.639L780.179 521.769L782.19 521.481L787.503 522.92L789.944 523.064L792.385 522.488L793.39 520.762L794.252 515.871V513.857L793.39 510.117V507.527L792.816 505.657L791.093 501.917L790.088 499.184L789.8 494.868L790.088 492.566L792.816 486.093L803.155 482.928L803.73 480.77L804.017 478.468L803.012 473.433L801.288 471.995L800.57 470.124L801.863 467.391L802.724 464.083L804.448 458.041L806.171 454.876L808.612 452.142L809.904 449.697L809.186 447.827L808.325 446.964L805.596 446.388L804.591 445.525L801.145 445.957L799.852 436.462L800.427 433.153L799.996 430.132L799.134 428.118L796.837 424.522L796.98 423.083L797.698 422.076L803.012 418.48L819.238 409.992L822.828 406.684L824.264 405.101L825.126 403.231L829.578 389.421L830.008 386.975L829.434 384.098L838.768 383.667L841.64 385.105L842.071 386.687L843.22 393.305L844.512 397.477L846.953 399.347L848.82 400.21L851.548 400.929L858.298 403.375L860.595 403.806L867.775 403.231L869.355 403.95L870.36 405.245L871.796 410.424L874.237 413.876L876.104 414.596L878.114 413.733L881.417 410.999L884.433 409.417L886.874 408.554L890.608 406.54L892.905 405.964L894.485 406.827L896.639 408.554L899.511 409.129L908.558 408.841L910.712 409.848L911.717 411.575L911.43 413.589L911.573 415.747L912.578 417.473L914.445 419.487L916.312 419.631L917.174 421.069L917.461 426.104L918.179 428.981L919.471 429.845L920.764 429.413L922.918 427.255L930.816 423.515L932.252 423.083L946.612 414.883Z" fill="#F2FBFA" stroke="white" stroke-width="2" stroke-linecap="round" stroke-linejoin="round"/>
<path d="M901.52 67.0375L906.69 64.7357L907.982 71.0654L911.572 75.2373L912.147 77.2513L911.572 79.553L910.136 81.567L907.839 86.3143L904.967 89.4791L903.1 93.0756L900.659 92.9317L899.223 91.7808L897.499 89.9107L892.904 87.609L890.75 87.1774L888.453 88.0406L886.442 89.623L885.868 90.63V91.637L887.017 93.3633L889.889 96.9597L893.622 98.1105L913.87 108.181L915.737 110.195L917.46 112.64L916.885 113.503L915.306 116.668L916.598 120.84L918.465 122.998L921.624 124.868L931.102 128.752L933.256 130.622L934.117 132.205L933.974 133.499L932.107 143.425L931.963 144.576L932.394 147.597L931.102 149.611L929.091 151.194L928.804 153.495L929.522 156.229L930.24 157.667L933.399 159.681L934.835 169.32L937.995 172.341L940.579 173.779V174.499L938.713 176.656L938.282 179.965L936.989 183.705L934.548 187.014L947.185 200.393L948.621 202.407L956.088 216.217L957.955 226.287L958.96 229.883L957.955 231.754L955.945 234.055L951.924 237.652L949.483 240.817L947.759 243.694L947.903 247.578L946.467 249.88L943.595 252.469L924.783 261.244L920.619 261.676L907.551 259.806L901.664 264.409L897.356 275.342L883.57 278.076L871.221 286.132L868.061 289.009L866.195 291.167L865.477 293.9L865.907 296.058L867.631 298.647L868.205 301.237L861.025 302.1L851.691 298.072L849.393 296.202L848.101 294.188L847.239 292.461L843.649 288.002L838.193 283.254L832.449 276.781L819.955 274.767L810.909 276.493L805.021 278.651H801.718L797.985 278.076L785.348 273.904L783.194 272.465L782.332 270.595L781.901 268.581L780.465 263.546L773.285 248.297L772.567 244.557L775.296 244.269L777.45 243.406L782.907 239.953L788.794 232.329L791.666 227.15L792.671 222.691L783.194 225.568L779.46 221.54L778.455 218.231L779.173 211.614L779.317 208.593L777.881 207.01L771.562 203.702L768.834 201.256L769.552 198.667L777.881 190.035L779.317 186.151L778.455 184.281L774.147 178.527L771.706 171.334L764.813 156.229L763.09 149.755L763.233 144.864L764.813 135.945L770.126 127.314L777.019 120.408L784.343 108.468L784.773 105.591L793.677 104.153L794.107 101.851L797.697 93.7948L807.462 87.3213L816.94 86.3143L821.822 90.9177L825.699 97.3913L826.274 98.1105L819.525 104.728L819.237 108.324L820.53 109.188L822.684 111.202L825.412 114.942L827.71 115.23L830.151 111.489L834.172 100.7V98.9737L835.464 96.5281L835.895 93.0756L835.751 89.7668L836.039 86.4581L835.895 84.8757L835.177 83.0056L834.746 80.8477L835.464 78.2583L836.613 77.2513L838.193 76.532H839.629L839.916 77.2513L840.059 80.2723L842.213 81.2793L843.937 70.0585L841.065 69.7707L839.629 69.1953L844.08 63.1533L849.537 58.1183L851.691 53.8026L854.419 51.0693L868.061 51.5009L867.056 58.6938L867.631 66.3182L868.923 68.9076L870.933 71.9286L873.087 73.3672L875.959 74.3742L888.883 74.8057L890.75 74.0864L892.33 73.0794L893.622 71.6409L895.345 70.7777L896.638 70.9216L898.074 70.49L899.366 69.483L901.52 67.0375Z" fill="#F2FBFA" stroke="white" stroke-width="2" stroke-linecap="round" stroke-linejoin="round"/>
<path d="M868.206 301.236L874.094 305.264L868.35 311.306L865.908 318.212L857.005 329.001L853.559 331.734L849.251 333.46L844.943 334.324L837.763 336.913L834.029 337.776H831.157L828.572 335.187L827.28 334.18L825.557 333.892L809.186 335.331L803.586 322.671L800.283 322.383L798.129 321.52L794.826 323.103L791.524 325.548L789.8 320.513L786.498 319.075L783.769 318.355L779.892 312.026L777.594 295.626L775.871 275.774L776.302 271.602L780.466 263.546L781.902 268.581L782.333 270.595L783.195 272.465L785.349 273.904L797.986 278.075L801.719 278.651H805.022L810.91 276.493L819.956 274.767L832.45 276.781L838.194 283.254L843.65 288.002L847.24 292.461L848.102 294.187L849.394 296.201L851.692 298.072L861.026 302.1L868.206 301.236Z" fill="#F2FBFA" stroke="white" stroke-width="2" stroke-linecap="round" stroke-linejoin="round"/>
<path d="M263.363 507.671L261.209 509.541L259.629 508.822L258.911 505.801L257.331 504.218L256.039 501.917L256.757 499.615H258.911L260.921 496.882L263.65 494.148H265.66L267.527 496.162L267.814 499.615L267.24 503.067L264.942 506.088L263.363 507.671ZM296.965 497.601L294.667 502.348L292.226 504.65L289.929 505.801L284.328 503.499L280.738 501.485L278.297 502.348L274.707 505.801L271.979 506.088H269.968L269.107 504.218L271.979 501.485L277.723 498.752L279.159 495.731L282.031 491.847L283.897 490.408L287.2 485.373L288.78 484.222L290.647 486.092L291.652 488.394L293.806 489.257L296.391 490.696L297.97 494.148L296.965 497.601ZM259.055 450.704L293.806 421.932L307.161 435.167L308.309 436.749L308.022 437.469L306.73 436.893L304.576 437.756L302.565 439.339L301.991 440.634L305.007 441.065L306.873 441.928L310.176 444.662L311.181 446.1L311.038 447.539L309.171 450.704L307.161 455.307L306.443 458.328L305.294 467.966L306.299 469.693L308.74 468.542L310.607 468.829L311.181 470.556L309.889 472.714L307.591 478.324L305.868 479.763L303.427 480.482L301.704 480.77L297.252 480.626L295.816 480.482L291.508 477.749L289.211 478.468H287.775L285.621 479.331L283.754 480.626L281.169 481.057L278.728 480.482L275.425 478.899L271.835 478.18L267.814 476.31L267.671 474.728L269.107 472.57L269.25 471.707L268.245 470.412L266.953 470.7L265.373 469.98L261.783 466.384L260.634 462.931L259.055 450.704ZM407.824 409.129L405.239 409.704L404.091 407.403L408.829 405.964L408.973 407.69L407.824 409.129ZM410.409 585.066L400.931 592.69L382.694 598.301L379.535 601.034L377.237 604.199L372.211 610.241L368.909 612.974L366.18 614.7L356.846 615.851L354.549 616.858L352.395 618.009L346.938 622.756L343.779 626.353L342.199 629.086L340.907 633.114L333.583 636.711L332.147 635.416L331.573 633.69L330.424 632.107L329.419 629.949L328.557 625.634L327.552 620.886L325.398 615.564L307.735 602.329L303.427 600.602H299.981L295.385 605.637L293.088 607.364L290.359 608.658L285.764 609.378L283.323 608.802L281.887 608.083L278.297 603.048L276.143 596.718L278.871 591.252L279.589 590.964L283.754 590.82L287.2 591.396L291.077 593.985L292.083 593.122L292.944 591.683L300.842 582.62L302.565 580.319L303.14 579.024L301.417 578.736L298.975 579.455L297.539 579.024L295.385 577.585L291.795 573.845L288.923 572.55L285.333 573.557L280.738 573.989L278.153 572.119H276.287L274.851 572.55L272.122 573.701L271.835 571.543L272.122 569.529L271.835 565.358L272.984 564.494L273.127 563.487L272.266 558.452L271.835 553.274V547.951L272.122 545.793L272.84 540.902L276.574 540.47L281.743 536.874L285.333 536.155L290.216 536.011L292.083 535.579L292.801 534.86L292.37 532.99L294.093 528.242L305.15 511.987L314.341 499.327L315.489 495.443L315.202 495.011L311.181 494.004L308.884 492.71L308.022 490.983L308.453 490.12L312.617 488.969L313.91 487.962L315.059 486.524L323.675 474.152L323.1 467.679L324.967 462.931L326.116 461.061L329.419 458.472L332.578 454.588L333.583 452.718L333.87 451.135L333.152 450.704L331.573 451.135L330.711 450.416L329.562 448.69L328.701 444.518V442.36L329.275 440.346L330.28 438.332L329.849 436.462L329.275 434.879L327.839 433.585L325.829 434.016L324.393 435.023L324.249 436.893L323.531 438.044L321.951 437.181L316.782 430.132L313.766 427.255L304.001 413.445L316.207 403.231L336.168 431.139L337.747 434.304L341.337 436.318L345.789 442.935L346.22 446.388L346.651 447.395L352.107 444.518L354.836 441.209L356.559 437.9L357.277 435.455L357.995 431.283L359 429.125L360.293 427.543L362.159 427.686L363.595 429.125L364.457 428.837L366.755 426.104L367.329 424.809L367.185 423.946L365.175 423.083L363.308 421.644L356.703 407.834L355.41 404.525L353.256 388.701L378.817 386.256L394.613 379.782L401.937 376.617L404.952 377.48L406.101 379.207L406.532 382.228L408.542 385.249L407.824 386.975L404.521 391.147L402.798 392.585L398.777 394.599L398.059 395.319L398.203 396.613L399.926 399.634L400.788 401.504L401.075 403.518L401.219 406.539L402.08 411.431L401.649 413.732L400.931 416.466L398.634 421.213L398.777 422.364L399.926 422.939H401.362L404.665 422.364L421.035 427.111L446.453 429.269L447.889 439.77L446.453 443.655L443.437 446.1L441.57 447.107H439.703L438.124 445.812L438.267 444.662L435.826 443.798L433.385 445.812L433.098 447.251L434.103 449.409L434.965 454.156L434.821 461.061L431.087 476.454L430.369 483.791L430.082 495.875L430.8 502.78L432.093 506.232L432.811 507.815L433.816 508.678L439.273 510.836L440.852 511.843L443.581 514.001L444.873 516.446L445.878 517.309L447.027 517.741H449.468L451.048 519.611L454.494 521.769L454.925 522.632L454.207 525.797L452.915 537.162L453.489 538.888L452.34 540.614L449.612 543.491L447.171 543.347L444.442 542.34L439.847 541.333L438.411 542.34L434.965 546.368L436.113 560.035L435.539 566.508L434.821 570.536L433.385 572.406L431.949 572.982L428.933 573.126L423.333 573.701L410.409 585.066Z" fill="#F2FBFA" stroke="white" stroke-width="2" stroke-linecap="round" stroke-linejoin="round"/>
<path d="M291.077 656.132L287.199 658.433L272.121 655.412L266.09 654.981L265.803 651.672L291.077 656.132ZM293.805 421.933L304.001 413.445L313.765 427.255L316.781 430.132L321.951 437.181L323.53 438.045L324.248 436.894L324.392 435.024L325.828 434.017L327.838 433.585L329.274 434.88L329.849 436.462L330.279 438.332L329.274 440.346L328.7 442.36V444.518L329.561 448.69L330.71 450.416L331.572 451.136L333.151 450.704L333.869 451.136L333.582 452.718L332.577 454.588L329.418 458.472L326.115 461.062L324.966 462.932L323.099 467.679L323.674 474.153L315.058 486.524L313.909 487.963L312.617 488.97L308.452 490.121L308.021 490.984L308.883 492.71L311.181 494.005L315.201 495.012L315.489 495.443L314.34 499.328L305.149 511.987L294.092 528.243L292.369 532.99L292.8 534.86L292.082 535.58L290.215 536.011L285.333 536.155L281.743 536.874L276.573 540.471L272.839 540.902L272.121 545.793L271.834 547.951V553.274L272.265 558.453L273.127 563.488L272.983 564.495L271.834 565.358L272.121 569.53L271.834 571.544L272.121 573.702L274.85 572.551L276.286 572.119H278.153L280.737 573.989L285.333 573.558L288.923 572.551L291.795 573.845L295.385 577.586L297.539 579.024L298.975 579.456L301.416 578.737L303.139 579.024L302.565 580.319L300.841 582.621L292.943 591.684L292.082 593.122L291.077 593.985L287.199 591.396L283.753 590.821L279.589 590.964L278.871 591.252L276.142 596.719L278.296 603.048L281.886 608.083L283.322 608.803L285.763 609.378L290.359 608.659L293.087 607.364L295.385 605.638L299.98 600.603H303.426L307.734 602.329L325.397 615.564L327.551 620.887L328.556 625.634L329.418 629.95L330.423 632.108L331.572 633.69L332.146 635.416L333.582 636.711L340.906 633.115L342.198 629.087L343.778 626.353L346.937 622.757L352.394 618.01L354.548 616.859L356.845 615.852L366.179 614.701L368.908 612.975L372.211 610.241L377.237 604.199L379.534 601.034L382.693 598.301L400.931 592.691L410.408 585.066L411.844 589.094L413.567 591.828L413.998 593.266L414.142 595.136L413.998 598.445V601.466L413.711 605.206L412.706 608.947L410.265 613.55L408.685 615.708L407.823 617.578L407.536 619.304L408.254 625.49L408.111 628.367L406.962 631.532L404.09 635.416L398.92 638.581L397.915 640.164L398.92 644.191L399.925 646.925L400.643 650.665V653.111L397.053 664.475L400.213 666.921L404.808 671.668L406.675 672.531L407.536 673.826L407.68 675.408L406.1 677.998L405.382 679.724L405.813 688.931L401.936 693.391L396.479 699.433L396.335 700.871L396.91 706.913L395.617 710.51L391.884 716.983L387.432 723.313L381.401 729.499L377.811 731.081L370.344 740.432L359.861 747.337L347.655 754.242L344.065 749.495L341.767 745.035L334.587 735.397L314.34 700.008L312.904 695.836L311.468 687.636L308.165 684.903L303.857 684.04L299.98 681.307L298.687 677.854L299.118 674.401L299.836 671.38L299.98 668.935L297.826 665.051L293.231 659.44L291.077 656.132H291.364L306.011 655.412L312.904 646.637L306.873 638.006L292.513 630.237L264.941 621.031L212.815 602.185L205.635 600.747L178.063 602.905L173.037 604.919L154.226 620.455L148.913 623.476L127.803 626.209L122.059 628.943L116.89 633.69L72.0865 703.173L71.0813 703.461L53.4185 688.787L59.1625 676.128L58.7317 670.949L54.8545 664.044L50.1157 659.009L33.0273 648.363L36.6173 644.911L37.1917 641.746L36.6173 638.725V635.129L36.3301 633.69L34.8941 629.662V627.216L36.1865 624.483L39.7765 620.599L50.8337 601.466L62.0345 587.224L54.4237 578.593L53.4185 572.407L57.7265 566.796L100.376 527.524L123.065 514.864L126.224 512.275L134.696 502.78L145.179 497.17L148.482 494.58L152.072 490.121L153.364 486.237L153.221 478.324L150.779 475.735L149.2 473.433L148.338 470.844L148.769 468.542L153.795 453.437L155.949 449.409L156.523 447.827L162.411 446.82L178.781 445.957L181.51 445.525L184.669 443.799L189.121 440.346L204.629 432.146L214.251 428.838L219.133 425.529L227.462 418.48L246.273 407.115L247.279 412.87L246.561 417.329L247.422 420.206L249.145 422.508L251.73 424.666L252.592 427.111L252.879 429.701L252.735 434.16L253.884 439.052L259.054 450.704L260.633 462.932L261.782 466.384L265.372 469.981L266.952 470.7L268.244 470.412L269.249 471.707L269.106 472.57L267.67 474.728L267.813 476.31L271.834 478.181L275.424 478.9L278.727 480.482L281.168 481.058L283.753 480.626L285.62 479.331L287.774 478.468H289.21L291.507 477.749L295.815 480.482L297.251 480.626L301.703 480.77L303.426 480.482L305.867 479.763L307.591 478.324L309.888 472.714L311.181 470.556L310.606 468.83L308.739 468.542L306.298 469.693L305.293 467.967L306.442 458.328L307.16 455.307L309.17 450.704L311.037 447.539L311.181 446.101L310.175 444.662L306.873 441.929L305.006 441.066L301.99 440.634L302.565 439.339L304.575 437.757L306.729 436.894L308.021 437.469L308.309 436.75L307.16 435.167L293.805 421.933ZM296.964 497.601L297.969 494.149L296.39 490.696L293.805 489.258L291.651 488.394L290.646 486.093L288.779 484.223L287.199 485.373L283.897 490.408L282.03 491.847L279.158 495.731L277.722 498.752L271.978 501.485L269.106 504.219L269.967 506.089H271.978L274.706 505.801L278.296 502.349L280.737 501.485L284.327 503.499L289.928 505.801L292.225 504.65L294.667 502.349L296.964 497.601ZM263.362 507.671L264.941 506.089L267.239 503.068L267.813 499.615L267.526 496.163L265.659 494.149H263.649L260.921 496.882L258.91 499.615H256.756L256.038 501.917L257.331 504.219L258.91 505.801L259.628 508.822L261.208 509.541L263.362 507.671ZM316.207 403.231L340.188 383.379L353.255 388.702L355.409 404.526L356.702 407.835L363.307 421.645L365.174 423.083L367.185 423.947L367.328 424.81L366.754 426.104L364.456 428.838L363.595 429.125L362.159 427.687L360.292 427.543L358.999 429.125L357.994 431.283L357.276 435.455L356.558 437.901L354.835 441.209L352.107 444.518L346.65 447.395L346.219 446.388L345.788 442.936L341.337 436.318L337.747 434.304L336.167 431.139L316.207 403.231Z" fill="#F2FBFA"/>
<path d="M291.077 656.132L287.199 658.433L272.121 655.412L266.09 654.981L265.803 651.672L291.077 656.132ZM291.077 656.132L293.231 659.44L297.826 665.051L299.98 668.935L299.836 671.38L299.118 674.401L298.687 677.854L299.98 681.307L303.857 684.04L308.165 684.903L311.468 687.636L312.904 695.836L314.34 700.008L334.587 735.397L341.767 745.035L344.065 749.495L347.655 754.242L359.861 747.337L370.344 740.432L377.811 731.081L381.401 729.499L387.432 723.313L391.884 716.983L395.617 710.51L396.91 706.913L396.335 700.871L396.479 699.433L401.936 693.391L405.813 688.931L405.382 679.724L406.1 677.998L407.68 675.408L407.536 673.826L406.675 672.531L404.808 671.668L400.213 666.921L397.053 664.475L400.643 653.111V650.665L399.925 646.925L398.92 644.191L397.915 640.164L398.92 638.581L404.09 635.416L406.962 631.532L408.111 628.367L408.254 625.49L407.536 619.304L407.823 617.578L408.685 615.708L410.265 613.55L412.706 608.947L413.711 605.206L413.998 601.466V598.445L414.142 595.136L413.998 593.266L413.567 591.828L411.844 589.094L410.408 585.066L400.931 592.691L382.693 598.301L379.534 601.034L377.237 604.199L372.211 610.241L368.908 612.975L366.179 614.701L356.845 615.852L354.548 616.859L352.394 618.01L346.937 622.757L343.778 626.353L342.198 629.087L340.906 633.115L333.582 636.711L332.146 635.416L331.572 633.69L330.423 632.108L329.418 629.95L328.556 625.634L327.551 620.887L325.397 615.564L307.734 602.329L303.426 600.603H299.98L295.385 605.638L293.087 607.364L290.359 608.659L285.763 609.378L283.322 608.803L281.886 608.083L278.296 603.048L276.142 596.719L278.871 591.252L279.589 590.964L283.753 590.821L287.199 591.396L291.077 593.985L292.082 593.122L292.943 591.684L300.841 582.621L302.565 580.319L303.139 579.024L301.416 578.737L298.975 579.456L297.539 579.024L295.385 577.586L291.795 573.845L288.923 572.551L285.333 573.558L280.737 573.989L278.153 572.119H276.286L274.85 572.551L272.121 573.702L271.834 571.544L272.121 569.53L271.834 565.358L272.983 564.495L273.127 563.488L272.265 558.453L271.834 553.274V547.951L272.121 545.793L272.839 540.902L276.573 540.471L281.743 536.874L285.333 536.155L290.215 536.011L292.082 535.58L292.8 534.86L292.369 532.99L294.092 528.243L305.149 511.987L314.34 499.328L315.489 495.443L315.201 495.012L311.181 494.005L308.883 492.71L308.021 490.984L308.452 490.121L312.617 488.97L313.909 487.963L315.058 486.524L323.674 474.153L323.099 467.679L324.966 462.932L326.115 461.062L329.418 458.472L332.577 454.588L333.582 452.718L333.869 451.136L333.151 450.704L331.572 451.136L330.71 450.416L329.561 448.69L328.7 444.518V442.36L329.274 440.346L330.279 438.332L329.849 436.462L329.274 434.88L327.838 433.585L325.828 434.017L324.392 435.024L324.248 436.894L323.53 438.045L321.951 437.181L316.781 430.132L313.765 427.255L304.001 413.445L293.805 421.933L307.16 435.167L308.309 436.75L308.021 437.469L306.729 436.894L304.575 437.757L302.565 439.339L301.99 440.634L305.006 441.066L306.873 441.929L310.175 444.662L311.181 446.101L311.037 447.539L309.17 450.704L307.16 455.307L306.442 458.328L305.293 467.967L306.298 469.693L308.739 468.542L310.606 468.83L311.181 470.556L309.888 472.714L307.591 478.324L305.867 479.763L303.426 480.482L301.703 480.77L297.251 480.626L295.815 480.482L291.507 477.749L289.21 478.468H287.774L285.62 479.331L283.753 480.626L281.168 481.058L278.727 480.482L275.424 478.9L271.834 478.181L267.813 476.31L267.67 474.728L269.106 472.57L269.249 471.707L268.244 470.412L266.952 470.7L265.372 469.981L261.782 466.384L260.633 462.932L259.054 450.704L253.884 439.052L252.735 434.16L252.879 429.701L252.592 427.111L251.73 424.666L249.145 422.508L247.422 420.206L246.561 417.329L247.279 412.87L246.273 407.115L227.462 418.48L219.133 425.529L214.251 428.838L204.629 432.146L189.121 440.346L184.669 443.799L181.51 445.525L178.781 445.957L162.411 446.82L156.523 447.827L155.949 449.409L153.795 453.437L148.769 468.542L148.338 470.844L149.2 473.433L150.779 475.735L153.221 478.324L153.364 486.237L152.072 490.121L148.482 494.58L145.179 497.17L134.696 502.78L126.224 512.275L123.065 514.864L100.376 527.524L57.7265 566.796L53.4185 572.407L54.4237 578.593L62.0345 587.224L50.8337 601.466L39.7765 620.599L36.1865 624.483L34.8941 627.216V629.662L36.3301 633.69L36.6173 635.129V638.725L37.1917 641.746L36.6173 644.911L33.0273 648.363L50.1157 659.009L54.8545 664.044L58.7317 670.949L59.1625 676.128L53.4185 688.787L71.0813 703.461L72.0865 703.173L116.89 633.69L122.059 628.943L127.803 626.209L148.913 623.476L154.226 620.455L173.037 604.919L178.063 602.905L205.635 600.747L212.815 602.185L264.941 621.031L292.513 630.237L306.873 638.006L312.904 646.637L306.011 655.412L291.364 656.132H291.077ZM296.964 497.601L297.969 494.149L296.39 490.696L293.805 489.258L291.651 488.394L290.646 486.093L288.779 484.223L287.199 485.373L283.897 490.408L282.03 491.847L279.158 495.731L277.722 498.752L271.978 501.485L269.106 504.219L269.967 506.089H271.978L274.706 505.801L278.296 502.349L280.737 501.485L284.327 503.499L289.928 505.801L292.225 504.65L294.667 502.349L296.964 497.601ZM263.362 507.671L264.941 506.089L267.239 503.068L267.813 499.615L267.526 496.163L265.659 494.149H263.649L260.921 496.882L258.91 499.615H256.756L256.038 501.917L257.331 504.219L258.91 505.801L259.628 508.822L261.208 509.541L263.362 507.671ZM316.207 403.231L340.188 383.379L353.255 388.702L355.409 404.526L356.702 407.835L363.307 421.645L365.174 423.083L367.185 423.947L367.328 424.81L366.754 426.104L364.456 428.838L363.595 429.125L362.159 427.687L360.292 427.543L358.999 429.125L357.994 431.283L357.276 435.455L356.558 437.901L354.835 441.209L352.107 444.518L346.65 447.395L346.219 446.388L345.788 442.936L341.337 436.318L337.747 434.304L336.167 431.139L316.207 403.231Z" stroke="white" stroke-width="2" stroke-linecap="round" stroke-linejoin="round"/>
<path d="M455.5 184.856L442.145 178.095L441.283 177.375L440.422 175.937L453.633 176.512L456.792 175.361L455.5 184.856ZM455.5 184.856L473.306 184.137L478.045 180.972L478.189 179.246L477.901 177.807L475.029 172.628L473.593 171.477L471.439 171.621L469.716 170.902L468.711 169.607L466.988 167.018L468.711 164.716L469.86 160.4L469.285 157.667L466.701 154.358L465.121 151.481L464.977 148.46L468.711 147.453L473.593 149.18L475.029 150.043L475.46 160.544L476.609 164.284L477.758 166.442L482.927 166.586L503.031 162.414L502.888 149.899L501.452 146.734L498.867 146.159L492.836 143.857L487.666 144.432L487.523 143.425L485.225 140.26L484.507 138.39L484.938 136.808L486.805 135.801L490.107 136.52L492.549 135.657L493.985 133.068L493.841 128.32H492.836L487.523 124.292L486.805 124.005L498.867 113.935L500.734 114.942L510.355 121.847L513.227 122.566L516.386 122.998L517.248 124.724L520.407 127.457L526.007 123.717L527.731 123.141L529.31 123.861L531.177 126.019L533.618 128.033L536.777 129.903L538.931 127.457V119.545L543.527 122.134L550.563 122.998L564.492 120.12L565.497 120.84L577.129 126.594L578.565 126.882L580.432 128.464L580.288 130.766L580.432 133.499L581.15 136.232L582.011 137.815L586.319 137.239L594.361 129.903L595.079 128.608L595.51 124.148L595.941 122.134L596.802 121.415L598.669 121.127L603.264 122.422L605.705 126.019L607.572 127.313L609.008 130.622L618.342 144.864L619.491 148.46L622.363 150.618L632.128 151.625V158.243L632.702 161.12L636.723 163.853L635.143 168.888L633.564 171.909L634.138 174.786L636.149 178.239L636.292 180.54L634.425 182.986L628.538 187.302L621.789 189.172L617.624 189.603L615.183 189.316L613.603 189.891L611.88 194.926L610.731 197.084L609.87 198.235L602.115 201.831L599.818 203.557L593.212 205.428L589.191 208.161L584.309 216.648L583.16 219.957L576.411 217.943L574.544 217.08L572.39 215.641L569.949 212.764L566.933 210.463L560.184 206.866L552.286 204.996L541.085 206.003L539.362 205.284L538.357 204.133L536.634 198.091L536.059 195.358L535.772 191.905L536.059 188.021L546.542 184.856L547.978 184.137L550.707 180.828L551.568 176.944L551.712 170.902L552.717 168.312L556.163 165.579L557.169 164.141L558.605 161.263L560.041 159.249L559.035 157.523L558.03 156.372L544.388 147.885L541.947 147.741L541.803 149.611L541.085 150.762L539.793 151.769L531.177 150.762L528.592 151.337L526.582 156.66L531.464 159.106L532.469 161.839L528.879 172.34L524.859 176.368L517.679 176.944L515.955 177.663L515.812 180.253L516.099 182.123L516.817 183.705L516.386 184.712L514.807 185.144L505.616 185.863L504.467 186.438L503.175 187.445L502.313 189.891L499.729 194.063L497.431 195.501L494.415 196.365L489.246 195.501L483.789 192.48L481.491 192.049L477.183 193.056L472.301 200.68H468.855L466.701 199.098L466.27 195.358L464.116 191.761L455.5 184.856Z" fill="#F2FBFA"/>
<path d="M455.5 184.856L442.145 178.095L441.283 177.375L440.422 175.937L453.633 176.512L456.792 175.361L455.5 184.856ZM455.5 184.856L473.306 184.137L478.045 180.972L478.189 179.246L477.901 177.807L475.029 172.628L473.593 171.477L471.439 171.621L469.716 170.902L468.711 169.607L466.988 167.018L468.711 164.716L469.86 160.4L469.285 157.667L466.701 154.358L465.121 151.481L464.977 148.46L468.711 147.453L473.593 149.18L475.029 150.043L475.46 160.544L476.609 164.284L477.758 166.442L482.927 166.586L503.031 162.414L502.888 149.899L501.452 146.734L498.867 146.159L492.836 143.857L487.666 144.432L487.523 143.425L485.225 140.26L484.507 138.39L484.938 136.808L486.805 135.801L490.107 136.52L492.549 135.657L493.985 133.068L493.841 128.32H492.836L487.523 124.292L486.805 124.005L498.867 113.935L500.734 114.942L510.355 121.847L513.227 122.566L516.386 122.998L517.248 124.724L520.407 127.457L526.007 123.717L527.731 123.141L529.31 123.861L531.177 126.019L533.618 128.033L536.777 129.903L538.931 127.457V119.545L543.527 122.134L550.563 122.998L564.492 120.12L565.497 120.84L577.129 126.594L578.565 126.882L580.432 128.464L580.288 130.766L580.432 133.499L581.15 136.232L582.011 137.815L586.319 137.239L594.361 129.903L595.079 128.608L595.51 124.148L595.941 122.134L596.802 121.415L598.669 121.127L603.264 122.422L605.705 126.019L607.572 127.313L609.008 130.622L618.342 144.864L619.491 148.46L622.363 150.618L632.128 151.625V158.243L632.702 161.12L636.723 163.853L635.143 168.888L633.564 171.909L634.138 174.786L636.149 178.239L636.292 180.54L634.425 182.986L628.538 187.302L621.789 189.172L617.624 189.603L615.183 189.316L613.603 189.891L611.88 194.926L610.731 197.084L609.87 198.235L602.115 201.831L599.818 203.557L593.212 205.428L589.191 208.161L584.309 216.648L583.16 219.957L576.411 217.943L574.544 217.08L572.39 215.641L569.949 212.764L566.933 210.463L560.184 206.866L552.286 204.996L541.085 206.003L539.362 205.284L538.357 204.133L536.634 198.091L536.059 195.358L535.772 191.905L536.059 188.021L546.542 184.856L547.978 184.137L550.707 180.828L551.568 176.944L551.712 170.902L552.717 168.312L556.163 165.579L557.169 164.141L558.605 161.263L560.041 159.249L559.035 157.523L558.03 156.372L544.388 147.885L541.947 147.741L541.803 149.611L541.085 150.762L539.793 151.769L531.177 150.762L528.592 151.337L526.582 156.66L531.464 159.106L532.469 161.839L528.879 172.34L524.859 176.368L517.679 176.944L515.955 177.663L515.812 180.253L516.099 182.123L516.817 183.705L516.386 184.712L514.807 185.144L505.616 185.863L504.467 186.438L503.175 187.445L502.313 189.891L499.729 194.063L497.431 195.501L494.415 196.365L489.246 195.501L483.789 192.48L481.491 192.049L477.183 193.056L472.301 200.68H468.855L466.701 199.098L466.27 195.358L464.116 191.761L455.5 184.856Z" stroke="white" stroke-width="2" stroke-linecap="round" stroke-linejoin="round"/>
<path d="M510.067 229.452L507.769 236.644L505.902 238.946L502.887 241.104L492.548 244.413L490.25 245.707L487.522 248.009L483.932 251.893L481.06 254.483L473.88 257.36L467.13 263.114L467.992 266.423L444.298 277.212L443.436 279.37L445.016 283.254L446.165 284.98L447.026 287.714L448.032 289.008L449.611 289.872L453.058 291.166L454.637 292.317L455.355 293.756L457.509 299.222L457.796 300.517L457.366 302.531L458.084 303.106L460.094 303.538L463.397 302.963L465.982 301.668L468.423 298.503L471.295 295.77L473.018 293.756L475.603 293.18L478.044 291.166L479.624 290.159L484.65 289.152L485.368 295.194L485.798 297.496L488.24 299.942L489.388 301.524L488.24 304.113L484.793 306.415L482.639 306.991L480.772 306.415L479.193 305.552H478.044L474.598 308.429L472.587 311.45L472.013 313.752L472.731 318.211L472.444 320.513L470.002 321.952L464.402 323.39L462.966 323.534L459.663 322.671L457.653 322.815L454.063 322.095L453.058 322.527L452.483 324.541L452.914 325.98L454.781 329.576L456.791 333.604L458.514 335.186L459.663 335.618L468.854 333.029L471.438 332.597L472.156 332.741L472.444 337.057L475.172 343.242L481.06 341.372L483.07 340.078L484.219 338.495L484.506 335.762L483.932 333.604L482.352 329.432V327.418L483.357 326.123L491.83 322.095L496.425 317.924L504.754 305.696L509.205 301.38L512.795 300.805L521.268 306.703L535.915 307.278L537.782 306.847L541.084 303.538L543.095 300.517L546.11 298.935L547.116 297.928L548.408 294.907L547.834 292.173L546.254 288.433L541.802 280.233L536.633 272.609L530.889 270.019L524.858 262.826L524.714 259.23L523.278 254.051L518.683 248.585L539.936 245.851L551.424 240.672L562.194 253.763L565.927 256.065L574.687 256.497L580.862 254.195L583.877 255.346L594.791 252.613L595.653 261.819L595.94 262.826L600.104 270.019L608.289 289.008L609.725 291.742L611.449 295.914L612.454 299.654V304.401L615.182 318.499L612.597 323.103L611.736 326.267L611.018 331.158V340.365L610.013 349.86V352.881L610.874 356.046L613.603 359.786L615.757 363.67L617.336 365.684L618.485 373.165L626.957 374.028L629.111 375.898L636.004 377.337L633.85 388.126L632.989 390.14L631.983 394.312L630.117 397.189L629.542 398.34L628.824 402.799L628.25 403.662L626.527 404.957L625.378 407.69L624.373 409.417L622.793 410.568L621.213 410.855L618.629 410.136L617.911 410.424L615.469 411.862L612.741 413.013L611.592 413.876L611.018 415.89V418.623L611.736 424.234L611.449 427.686L610.443 430.42L607.428 433.297L606.853 435.599L609.725 444.805L609.869 448.402L614.895 453.868L635.861 470.7L639.594 476.598L643.759 481.633L645.769 482.208L648.21 481.777L652.949 479.043L658.549 476.886L665.011 477.317L675.063 477.749L681.095 479.187L691.865 486.236L695.167 488.538L698.901 490.264L701.342 490.84L702.922 490.552L710.389 487.675L714.123 486.956L730.78 488.97L736.955 490.84L739.971 490.984L743.417 489.689L754.187 482.208L767.973 476.742L775.44 483.359L778.455 485.949L780.609 484.798L784.917 483.935H786.497L792.815 486.092L790.087 492.566L789.8 494.868L790.087 499.183L791.092 501.917L792.815 505.657L793.39 507.527V510.117L794.251 513.857V515.871L793.39 520.762L792.385 522.488L789.943 523.064L787.502 522.92L782.189 521.481L780.179 521.769L778.599 523.639L778.743 529.106L780.179 532.99L781.184 538.888L777.737 539.463L771.563 547.088L769.696 550.972L768.403 554.712L766.537 561.905L764.957 572.119L763.521 574.708L761.941 577.01L758.639 580.463L753.613 583.627L750.31 586.505L735.663 594.848L728.052 597.581L711.538 600.89L709.671 601.034L708.091 600.459L706.943 599.739L706.655 596.143L706.225 595.855L697.609 594.992L689.998 591.54L687.269 589.238L660.273 584.059L652.087 584.491L641.748 590.964L640.025 592.547V593.266L642.035 597.15L642.466 600.171L641.317 602.473L640.312 603.767L631.553 609.522L619.921 617.721L613.172 620.311L610.3 620.886H605.561L601.827 619.735L563.055 648.075L559.322 648.363L538.356 638.149L531.75 637.286L529.309 639.012L528.304 642.033L527.73 643.04L524.283 645.774L523.278 646.924L512.508 650.089L505.328 654.693L507.195 657.138L511.216 659.584L506.62 663.756L495.276 668.503L492.548 669.222L490.537 669.366L487.809 668.359L480.198 666.057L466.412 666.201L461.817 667.208L460.381 668.359L457.366 671.956L450.042 677.134L438.123 681.162L436.256 680.155L434.39 679.58L433.959 678.429L434.39 674.689L434.102 671.524L433.241 670.517H431.374L421.035 673.97L419.599 675.264L419.312 678.285L416.87 682.457L405.813 688.931L405.382 679.724L406.1 677.998L407.68 675.408L407.536 673.826L406.675 672.531L404.808 671.668L400.213 666.921L397.054 664.475L400.644 653.11V650.665L399.926 646.924L398.92 644.191L397.915 640.163L398.92 638.581L404.09 635.416L406.962 631.532L408.111 628.367L408.254 625.49L407.536 619.304L407.824 617.578L408.685 615.707L410.265 613.55L412.706 608.946L413.711 605.206L413.998 601.466V598.445L414.142 595.136L413.998 593.266L413.568 591.827L411.844 589.094L410.408 585.066L423.332 573.701L428.933 573.126L431.948 572.982L433.384 572.407L434.82 570.536L435.538 566.508L436.113 560.035L434.964 546.368L438.41 542.34L439.846 541.333L444.442 542.34L447.17 543.347L449.611 543.491L452.34 540.614L453.488 538.888L452.914 537.162L454.206 525.797L454.924 522.632L454.494 521.769L451.047 519.611L449.468 517.741H447.026L445.878 517.309L444.872 516.446L443.58 514.001L440.852 511.843L439.272 510.836L433.815 508.678L432.81 507.815L432.092 506.232L430.8 502.78L430.082 495.875L430.369 483.791L431.087 476.454L434.82 461.061L434.964 454.156L434.102 449.409L433.097 447.251L433.384 445.812L435.826 443.798L438.267 444.662L438.123 445.812L439.703 447.107H441.57L443.436 446.1L446.452 443.655L447.888 439.77L446.452 429.269L421.035 427.111L404.664 422.364L401.362 422.939H399.926L398.777 422.364L398.633 421.213L400.931 416.466L401.649 413.732L402.08 411.431L401.218 406.54L401.074 403.519L400.787 401.505L399.926 399.634L398.202 396.613L398.059 395.319L398.777 394.599L402.798 392.585L404.521 391.147L407.824 386.975L408.542 385.249L406.531 382.228L406.1 379.207L404.952 377.48L401.936 376.617L394.612 379.782L378.816 386.256L353.256 388.701L340.188 383.379L343.204 375.035L344.64 371.726L346.363 363.958L347.368 361.8L348.517 360.361L355.553 357.34L358.856 354.607L361.872 353.025L362.733 350.291V347.846L362.159 344.106L361.297 341.372L361.584 340.078L363.308 338.639V337.92L362.159 335.906L359.718 333.748L350.384 328.425L346.076 327.274L345.788 320.945L343.634 321.52L295.241 336.625H294.38L294.236 333.748L295.098 330.295L296.677 328.713L297.252 327.274L298.544 321.376L298.831 318.211L297.826 313.896L295.816 309.724L292.226 304.977L285.764 301.38L294.38 301.956L297.395 304.401L298.4 305.696L299.836 306.415L302.278 305.696L305.724 303.682L317.212 294.763L320.802 292.749L328.126 293.036L331.428 292.317L334.875 288.865L337.747 286.563L342.773 283.973L346.219 280.521L348.517 277.5L349.953 274.335L352.25 270.882L353.112 269.012L353.686 266.423L354.979 265.128L356.989 264.697L366.898 265.704L382.55 262.683L384.273 261.1L383.555 259.086L382.981 255.777L383.124 253.188L383.699 251.749L386.858 249.448L388.15 248.009L388.725 246.283L388.15 244.125L389.012 239.378L415.722 244.844L421.753 244.413L426.635 243.406L434.82 240.529L438.41 238.227L443.724 233.767L446.308 232.616L448.032 230.89L449.324 229.308L449.898 227.294L450.616 226.431L451.478 226.718L453.345 230.746L456.36 232.041L491.112 234.918L510.067 229.452ZM407.824 409.129L408.972 407.69L408.829 405.964L404.09 407.403L405.239 409.704L407.824 409.129ZM510.928 228.301L505.041 227.582L503.892 226.862L503.605 225.28L504.323 222.259L509.492 217.368L511.934 217.943L513.657 220.245L514.231 222.259L514.518 224.273L514.088 226.718L513.657 228.157L510.928 228.301Z" fill="#F2FBFA" stroke="white" stroke-width="2" stroke-linecap="round" stroke-linejoin="round"/>
<path d="M538.932 119.545V127.457L536.778 129.903L533.618 128.033L531.177 126.019L529.31 123.861L527.731 123.142L526.008 123.717L520.407 127.457L517.248 124.724L516.386 122.998L513.227 122.566L510.355 121.847L500.734 114.942L498.867 113.935L500.59 112.496L508.201 108.324L519.546 104.009L535.772 99.1175L542.952 98.2544L538.788 110.051L535.485 113.359H527.156L538.932 119.545Z" fill="#F2FBFA" stroke="white" stroke-width="2" stroke-linecap="round" stroke-linejoin="round"/>
<path d="M455.5 184.856L456.792 175.362L462.536 173.06L466.988 167.018L468.711 169.607L469.716 170.902L471.44 171.621L473.594 171.477L475.03 172.628L477.902 177.807L478.189 179.246L478.045 180.972L473.306 184.137L455.5 184.856ZM636.723 163.853L641.749 164.716L644.478 168.025L645.052 169.607L644.765 172.053L645.196 176.369L647.206 177.663L648.642 184.137L650.078 186.295L652.806 189.028L655.966 190.754L659.986 191.905L660.274 200.824L657.976 206.147L654.386 211.614L650.078 221.827L647.493 223.554L645.196 224.705L624.948 221.684L622.22 220.533L619.922 219.957L605.849 233.048L604.844 234.199L597.233 249.592L594.792 252.613L583.878 255.346L580.863 254.195L574.688 256.497L565.928 256.065L562.195 253.764L551.425 240.673L539.937 245.851L518.684 248.585L523.279 254.051L524.715 259.23L524.859 262.827L530.89 270.019L536.634 272.609L541.804 280.233L546.255 288.433L547.835 292.173L548.409 294.907L547.117 297.928L546.112 298.935L543.096 300.517L541.086 303.538L537.783 306.847L535.916 307.278L521.269 306.703L512.796 300.805L509.206 301.38L504.755 305.696L496.426 317.924L491.831 322.096L483.358 326.124L482.353 327.418V329.432L483.933 333.604L484.507 335.762L484.22 338.495L483.071 340.078L481.061 341.372L475.173 343.243L472.445 337.057L472.158 332.741L471.44 332.597L468.855 333.029L459.664 335.618L458.516 335.187L456.792 333.604L454.782 329.576L452.915 325.98L452.484 324.541L453.059 322.527L454.064 322.096L457.654 322.815L459.664 322.671L462.967 323.534L464.403 323.39L470.004 321.952L472.445 320.513L472.732 318.212L472.014 313.752L472.588 311.45L474.599 308.429L478.045 305.552H479.194L480.774 306.415L482.64 306.991L484.794 306.415L488.241 304.114L489.39 301.524L488.241 299.942L485.8 297.496L485.369 295.194L484.651 289.152L479.625 290.159L478.045 291.166L475.604 293.18L473.019 293.756L471.296 295.77L468.424 298.503L465.983 301.668L463.398 302.963L460.095 303.538L458.085 303.107L457.367 302.531L457.798 300.517L457.51 299.222L455.356 293.756L454.638 292.317L453.059 291.166L449.612 289.872L448.033 289.009L447.028 287.714L446.166 284.981L445.017 283.254L443.438 279.37L444.299 277.212L467.993 266.423L467.132 263.114L473.881 257.36L481.061 254.483L483.933 251.893L487.523 248.009L490.251 245.708L492.549 244.413L502.888 241.104L505.904 238.946L507.77 236.645L510.068 229.452L510.93 228.301L513.658 228.157L514.089 226.719L514.52 224.273L514.232 222.259L513.658 220.245L511.935 217.943L509.494 217.368L504.468 213.052L501.452 208.017L498.724 206.147L496.139 205.14L493.841 205.284L487.666 204.708L472.301 200.68L477.184 193.056L481.492 192.049L483.789 192.481L489.246 195.502L494.416 196.365L497.431 195.502L499.729 194.063L502.314 189.891L503.175 187.446L504.468 186.439L505.616 185.863L514.807 185.144L516.386 184.712L516.817 183.705L516.099 182.123L515.812 180.253L515.956 177.663L517.679 176.944L524.859 176.369L528.88 172.341L532.47 161.839L531.464 159.106L526.582 156.66L528.592 151.337L531.177 150.762L539.793 151.769L541.086 150.762L541.804 149.611L541.947 147.741L544.388 147.885L558.03 156.372L559.036 157.523L560.041 159.25L558.605 161.264L557.169 164.141L556.164 165.579L552.717 168.313L551.712 170.902L551.568 176.944L550.707 180.828L547.978 184.137L546.542 184.856L536.06 188.021L535.772 191.905L536.06 195.358L536.634 198.091L538.357 204.133L539.362 205.284L541.086 206.003L552.286 204.996L560.184 206.866L566.934 210.463L569.949 212.764L572.39 215.642L574.544 217.08L576.411 217.943L583.16 219.957L584.309 216.649L589.192 208.161L593.212 205.428L599.818 203.558L602.116 201.831L609.87 198.235L610.732 197.084L611.88 194.926L613.604 189.891L615.183 189.316L617.624 189.603L621.789 189.172L628.538 187.302L634.426 182.986L636.292 180.54L636.149 178.239L634.138 174.786L633.564 171.909L635.144 168.888L636.723 163.853ZM475.03 150.043L477.758 151.769L481.922 152.344L486.805 148.029L487.81 145.871L487.666 144.432L492.836 143.857L498.867 146.159L501.452 146.734L502.888 149.899L503.032 162.414L482.928 166.586L477.758 166.442L476.609 164.285L475.46 160.544L475.03 150.043Z" fill="#F2FBFA" stroke="white" stroke-width="2" stroke-linecap="round" stroke-linejoin="round"/>
<path d="M801.145 445.956L804.591 445.525L805.596 446.388L808.325 446.963L809.186 447.827L809.904 449.697L808.612 452.142L806.171 454.876L804.447 458.04L802.724 464.082L801.863 467.391L800.57 470.124L801.288 471.995L803.011 473.433L804.017 478.468L803.729 480.77L803.155 482.928L792.816 486.093L786.497 483.935H784.918L780.61 484.798L778.456 485.949L775.44 483.359L784.487 480.482L785.205 479.619L784.631 478.037L783.769 477.173L778.743 475.016L776.589 472.714L775.297 470.556L773.573 468.254L773.143 465.521L772.712 464.514L769.553 462.212V457.897L767.829 451.998L767.255 449.697L766.681 444.23L765.675 442.072L765.532 440.49L766.681 438.188L767.973 437.325L769.122 437.613L770.845 440.058L770.701 443.223L770.558 444.662L772.281 444.518L778.312 440.49L779.748 440.346L781.328 441.065L782.477 443.799L785.779 446.532L801.145 445.956ZM767.973 476.742L754.187 482.208L743.417 489.689L739.971 490.984L736.955 490.84L730.78 488.97L714.123 486.956L710.389 487.675L702.922 490.552L701.342 490.84L698.901 490.264L695.168 488.538L691.865 486.236L681.095 479.187L675.064 477.749L665.012 477.317L670.181 468.974L668.458 461.781L666.879 458.328L665.873 453.581L666.591 451.135L672.048 438.476L673.197 431.715L674.346 428.406L675.495 426.104L677.792 422.652L679.084 421.645L680.664 420.925L683.392 421.069L684.541 422.652L685.259 423.227L686.552 422.795L694.162 413.013L700.624 407.115L701.055 404.813L700.768 402.368L699.476 398.34L700.194 397.045L705.507 393.593L723.17 391.866L728.626 390.572L732.073 388.701L733.509 388.126H734.801L746.864 391.866L748.013 392.586L748.731 393.88L747.725 398.196L746.864 400.354L744.997 403.375L744.135 404.957L743.705 408.122L745.284 410.28L747.295 412.006L754.762 415.603L756.341 417.041L756.916 418.911V431.427L756.485 433.585L754.905 438.907L754.618 448.258L754.044 452.718L754.905 463.651L761.367 472.714L767.973 476.742Z" fill="#F2FBFA" stroke="white" stroke-width="2" stroke-linecap="round" stroke-linejoin="round"/>
<path d="M1073.98 260.093L1072.4 255.202L1071.83 253.188L1070.68 249.448L1069.1 246.571L1066.66 243.262L1065.51 240.385L1064.94 236.357L1065.8 225.28L1066.8 222.547L1071.54 218.806L1074.13 215.641L1075.85 212.333L1077.57 207.873L1077.86 202.119V198.666L1079.87 196.652L1113.62 212.62L1123.81 212.908L1118.36 239.666L1112.18 251.462L1107.73 256.353L1103.14 259.662L1096.96 262.827L1088.06 266.279H1085.9L1083.17 265.704L1080.88 264.265L1078.15 263.114L1073.98 260.093ZM1140.33 192.337L1135.88 190.035L1131.86 190.61L1123.24 194.063L1124.24 188.74L1127.55 186.87L1131.28 185L1132 184.137L1131.57 183.13L1130.13 181.835L1131.14 178.67L1133.15 177.232L1135.16 175.362L1136.31 175.074L1138.32 176.8L1139.9 178.383L1141.19 180.109L1141.48 181.835L1141.33 183.993L1139.75 185.719L1140.33 192.337ZM1162.01 167.593L1154.69 174.93L1153.97 176.081L1153.4 179.533L1143.34 174.498L1142.91 173.491V171.621L1148.8 171.909L1153.68 171.046L1162.01 167.593Z" fill="#F2FBFA" stroke="white" stroke-width="2" stroke-linecap="round" stroke-linejoin="round"/>
</g>
<defs>
<clipPath id="clip0_203_31826">
<rect width="1436" height="925" fill="white"/>
</clipPath>
</defs>
</svg>
