<svg width="49" height="49" viewBox="0 0 49 49" fill="none" xmlns="http://www.w3.org/2000/svg">
<path d="M27.0936 10.954C27.0936 14.5184 25.0468 17.7675 21.9079 19.3369V17.2615C24.0076 15.8667 25.2944 13.4908 25.2944 10.954C25.2944 6.78108 21.8994 3.38704 17.7275 3.38704C13.5556 3.38704 10.1605 6.78108 10.1605 10.954C10.1605 13.4908 11.4473 15.8667 13.547 17.2615V19.3369C10.408 17.7674 8.36133 14.5184 8.36133 10.954C8.36133 5.78948 12.5628 1.58789 17.7275 1.58789C22.8921 1.58789 27.0936 5.78948 27.0936 10.954Z" fill="#14161B"/>
<path d="M23.707 10.9531C23.707 12.5755 23.0413 14.1133 21.9078 15.2255V11.0991C21.9078 8.88512 20.2505 6.9939 18.135 6.79175C16.9593 6.68062 15.7856 7.06901 14.9156 7.85961C14.0457 8.6502 13.5472 9.77832 13.5472 10.9531V15.2255C12.4137 14.1132 11.748 12.5744 11.748 10.9531C11.748 7.6565 14.4309 4.97363 17.7275 4.97363C21.0241 4.97363 23.707 7.6565 23.707 10.9531Z" fill="#FDCA00"/>
<path d="M42.2271 24.646V39.7397C42.2271 44.8461 38.0732 49 32.9668 49H20.4428C16.4508 49 12.9203 46.4558 11.6577 42.6681L8.65 33.6438C7.94716 31.5367 8.69024 29.2539 10.4967 27.9638L13.5468 25.7848V21.0806C9.47748 19.3989 6.77344 15.3847 6.77344 10.9535C6.77344 4.91372 11.6873 0 17.727 0C23.7667 0 28.6805 4.91372 28.6805 10.9535C28.6805 13.9274 27.4614 16.7129 25.4305 18.7322C26.6031 19.0063 27.5884 19.8063 28.1568 20.8679C28.253 20.7599 28.3547 20.6573 28.4615 20.56C29.3315 19.7694 30.5053 19.381 31.6809 19.4921C33.0801 19.6255 34.2792 20.4985 34.9299 21.7145C35.0262 21.6066 35.1278 21.5039 35.2347 21.4066C36.1047 20.616 37.2784 20.2276 38.454 20.3387C40.5698 20.5408 42.2271 22.432 42.2271 24.646ZM40.6397 39.7397V24.646C40.6397 23.2416 39.6142 22.0447 38.304 21.9198C37.561 21.8479 36.8499 22.0839 36.3038 22.5813C35.763 23.0712 35.454 23.7708 35.454 24.5V29.5799C35.454 30.0181 35.0984 30.3737 34.6603 30.3737C34.2222 30.3737 33.8665 30.0181 33.8665 29.5799V24.5V23.7994C33.8665 22.3949 32.841 21.198 31.5309 21.0732C30.7879 21.0012 30.0768 21.2372 29.5307 21.7346C28.9899 22.2246 28.6809 22.9242 28.6809 23.6534V28.7333C28.6809 29.1714 28.3253 29.5271 27.8872 29.5271C27.449 29.5271 27.0934 29.1714 27.0934 28.7333V23.6534V22.9527C27.0934 21.5483 26.0679 20.3514 24.7577 20.2266C24.0148 20.1546 23.3037 20.3906 22.7576 20.888C22.2168 21.378 21.9078 22.0775 21.9078 22.8067V27.8867C21.9078 28.3248 21.5522 28.6804 21.114 28.6804C20.6759 28.6804 20.3203 28.3248 20.3203 27.8867V11.0997C20.3203 9.69523 19.2948 8.49832 17.9846 8.37348C17.2416 8.30258 16.5306 8.5375 15.9845 9.03493C15.4436 9.52488 15.1347 10.2245 15.1347 10.9536V34.6599C15.1347 35.098 14.779 35.4536 14.3409 35.4536C13.9028 35.4536 13.5471 35.098 13.5471 34.6599V27.7353L11.42 29.2551C10.1838 30.1388 9.67589 31.6998 10.1564 33.1412L13.1641 42.1665C14.2097 45.3045 17.136 47.4126 20.4432 47.4126H32.9673C37.198 47.4125 40.6397 43.9708 40.6397 39.7397ZM21.9075 19.3365C25.0465 17.767 27.0932 14.518 27.0932 10.9536C27.0932 5.7891 22.8917 1.58751 17.7271 1.58751C12.5624 1.58751 8.36105 5.78901 8.36105 10.9535C8.36105 14.5179 10.4079 17.767 13.5468 19.3364V17.2611C11.4471 15.8662 10.1602 13.4903 10.1602 10.9535C10.1602 6.7806 13.5553 3.38657 17.7272 3.38657C21.8991 3.38657 25.2942 6.7806 25.2942 10.9535C25.2942 13.4903 24.0073 15.8662 21.9076 17.2611V19.3365H21.9075ZM21.9075 15.2259C23.041 14.1136 23.7066 12.5759 23.7066 10.9535C23.7066 7.65695 21.0238 4.97408 17.7272 4.97408C14.4306 4.97408 11.7477 7.65695 11.7477 10.9535C11.7477 12.5749 12.4134 14.1137 13.5469 15.2259V10.9535C13.5469 9.77887 14.0453 8.65065 14.9153 7.86005C15.7853 7.06946 16.959 6.68106 18.1346 6.7922C20.2502 6.99435 21.9075 8.88557 21.9075 11.0996V15.2259Z" fill="white"/>
</svg>
