<svg width="49" height="49" viewBox="0 0 49 49" fill="none" xmlns="http://www.w3.org/2000/svg">
<path d="M10.1066 37.9932C10.6029 37.9932 11.0061 38.3964 11.0061 38.8927C11.0061 39.389 10.6028 39.7922 10.1066 39.7922C9.61018 39.7922 9.20703 39.389 9.20703 38.8927C9.20703 38.3964 9.61018 37.9932 10.1066 37.9932Z" fill="#C2E95D"/>
<path d="M49 9.2604V39.7399C49 42.0449 47.1247 43.9202 44.8197 43.9202H4.18032C1.87531 43.9202 0 42.0449 0 39.7399V9.2604C0 6.95539 1.87531 5.08008 4.18032 5.08008H44.8196C47.1246 5.08008 49 6.95539 49 9.2604ZM47.4125 39.7399V13.4407H1.58751V39.7399C1.58751 41.1697 2.7506 42.3328 4.18042 42.3328H44.8197C46.2494 42.3327 47.4125 41.1696 47.4125 39.7399ZM47.4125 11.8533V9.2604C47.4125 7.83058 46.2494 6.66749 44.8196 6.66749H4.18032C2.75051 6.66749 1.58742 7.83058 1.58742 9.2604V11.8533H47.4125Z" fill="white"/>
<path d="M47.4129 9.2599V11.8528H1.58789V9.2599C1.58789 7.83008 2.75098 6.66699 4.1808 6.66699H44.8201C46.2498 6.66699 47.4129 7.83008 47.4129 9.2599ZM13.441 9.2599C13.441 8.82177 13.0853 8.46614 12.6472 8.46614H11.8006C11.3624 8.46614 11.0068 8.82177 11.0068 9.2599C11.0068 9.69802 11.3624 10.0537 11.8006 10.0537H12.6472C13.0854 10.0537 13.441 9.69802 13.441 9.2599ZM10.0544 9.2599C10.0544 8.82177 9.69877 8.46614 9.26064 8.46614H8.414C7.97588 8.46614 7.62025 8.82177 7.62025 9.2599C7.62025 9.69802 7.97588 10.0537 8.414 10.0537H9.26064C9.69877 10.0537 10.0544 9.69802 10.0544 9.2599ZM6.66774 9.2599C6.66774 8.82177 6.31211 8.46614 5.87398 8.46614H5.02734C4.58922 8.46614 4.23359 8.82177 4.23359 9.2599C4.23359 9.69802 4.58922 10.0537 5.02734 10.0537H5.87398C6.3122 10.0537 6.66774 9.69802 6.66774 9.2599Z" fill="#15161C"/>
<path d="M45.6135 16.033V34.6593C45.6135 35.0974 45.2579 35.4531 44.8197 35.4531H4.18047C3.74235 35.4531 3.38672 35.0974 3.38672 34.6593V16.033C3.38672 15.5949 3.74235 15.2393 4.18047 15.2393H44.8197C45.258 15.2393 45.6135 15.5949 45.6135 16.033ZM44.0261 33.8656V16.8268H4.97423V33.8657H44.0261V33.8656Z" fill="white"/>
<path d="M44.8197 38.0986C45.2579 38.0986 45.6135 38.4542 45.6135 38.8923C45.6135 39.3304 45.2579 39.6861 44.8197 39.6861H12.4639C12.1315 40.6692 11.2014 41.3793 10.1071 41.3793C9.01276 41.3793 8.08248 40.6692 7.75022 39.6861H4.18047C3.74235 39.6861 3.38672 39.3304 3.38672 38.8923C3.38672 38.4542 3.74235 38.0986 4.18047 38.0986H7.75013C8.08248 37.1154 9.01266 36.4053 10.107 36.4053C11.2013 36.4053 12.1315 37.1154 12.4638 38.0986H44.8197ZM11.0066 38.8923C11.0066 38.3959 10.6033 37.9928 10.1071 37.9928C9.61069 37.9928 9.20753 38.396 9.20753 38.8923C9.20753 39.3886 9.61078 39.7918 10.1071 39.7918C10.6034 39.7918 11.0066 39.3886 11.0066 38.8923Z" fill="#FDCA00"/>
<path d="M29.4451 23.9057C29.9721 24.1936 30.2991 24.7449 30.2991 25.346C30.2991 25.9471 29.9721 26.4986 29.4441 26.7864L22.7459 30.4397C22.4983 30.5751 22.2294 30.6418 21.9597 30.6418C21.6718 30.6418 21.384 30.5646 21.1236 30.4101C20.6209 30.1116 20.3203 29.5846 20.3203 28.9993V21.6927C20.3203 21.1075 20.6209 20.5804 21.1236 20.282C21.6263 19.9836 22.2327 19.9719 22.7459 20.2524L29.4451 23.9057ZM28.7116 25.346C28.7116 25.3143 28.6957 25.3058 28.6841 25.2995L21.986 21.6462C21.9797 21.643 21.9722 21.6377 21.9617 21.6377C21.9532 21.6377 21.9447 21.6409 21.9331 21.6472C21.9077 21.6621 21.9077 21.68 21.9077 21.6927V28.9993C21.9077 29.0121 21.9077 29.03 21.9331 29.0448C21.9596 29.0607 21.9755 29.0522 21.986 29.0459L28.6841 25.3926C28.6958 25.3863 28.7116 25.3777 28.7116 25.346Z" fill="white"/>
<path d="M28.6826 25.3004C28.6942 25.3067 28.7101 25.3152 28.7101 25.347C28.7101 25.3787 28.6942 25.3872 28.6826 25.3935L21.9845 29.0468C21.974 29.0531 21.9581 29.0616 21.9316 29.0457C21.9062 29.0309 21.9062 29.013 21.9062 29.0002V21.6937C21.9062 21.6809 21.9062 21.663 21.9316 21.6482C21.9433 21.6418 21.9518 21.6387 21.9602 21.6387C21.9707 21.6387 21.9782 21.6439 21.9845 21.6471L28.6826 25.3004Z" fill="#FDCA00"/>
<path d="M12.6482 8.4668C13.0863 8.4668 13.442 8.82243 13.442 9.26055C13.442 9.69867 13.0863 10.0543 12.6482 10.0543H11.8016C11.3634 10.0543 11.0078 9.69867 11.0078 9.26055C11.0078 8.82243 11.3634 8.4668 11.8016 8.4668H12.6482Z" fill="white"/>
<path d="M9.26149 8.4668C9.69962 8.4668 10.0552 8.82243 10.0552 9.26055C10.0552 9.69867 9.69962 10.0543 9.26149 10.0543H8.41485C7.97673 10.0543 7.62109 9.69867 7.62109 9.26055C7.62109 8.82243 7.97673 8.4668 8.41485 8.4668H9.26149Z" fill="white"/>
<path d="M5.87477 8.4668C6.3129 8.4668 6.66853 8.82243 6.66853 9.26055C6.66853 9.69867 6.3129 10.0543 5.87477 10.0543H5.02813C4.59001 10.0543 4.23438 9.69867 4.23438 9.26055C4.23438 8.82243 4.59001 8.4668 5.02813 8.4668H5.87477Z" fill="white"/>
</svg>
