<svg width="49" height="49" viewBox="0 0 49 49" fill="none" xmlns="http://www.w3.org/2000/svg">
<path d="M44.8731 34.6593V35.5588H34.6074V34.6593C34.6074 34.1629 35.0107 33.7598 35.5069 33.7598H43.1237C43.1247 33.7598 43.1268 33.7598 43.1268 33.7598C43.1279 33.7598 43.1289 33.7598 43.13 33.7598H43.9735C44.4698 33.7598 44.8731 34.1629 44.8731 34.6593Z" fill="#FDCA00"/>
<path d="M46.5128 19.3672C47.0092 19.3672 47.4123 19.7704 47.4123 20.2667C47.4123 20.763 47.0091 21.1662 46.5128 21.1662C46.0165 21.1662 45.6133 20.763 45.6133 20.2667C45.6133 19.7704 46.0164 19.3672 46.5128 19.3672Z" fill="#FDCA00"/>
<path d="M41.4327 6.66699C41.9291 6.66699 42.3323 7.07024 42.3323 7.56652C42.3323 8.0628 41.929 8.46604 41.4327 8.46604C40.9365 8.46604 40.5332 8.0628 40.5332 7.56652C40.5332 7.07024 40.9364 6.66699 41.4327 6.66699Z" fill="#FDCA00"/>
<path d="M38.9473 13.4933V13.5462H28.6816V13.4933C28.6816 12.5303 29.4648 11.7471 30.4279 11.7471H37.2011C38.1642 11.7472 38.9473 12.5303 38.9473 13.4933Z" fill="#FDCA00"/>
<path d="M35.751 5.76212L36.3003 10.1594H31.3262L31.8754 5.76212C31.9315 5.31231 32.3157 4.97363 32.7676 4.97363H34.8588C35.3108 4.97363 35.6949 5.31231 35.751 5.76212Z" fill="#FDCA00"/>
<path d="M21.1671 32.9131H13.4414V35.5589H21.1671V32.9131Z" fill="#FDCA00"/>
<path d="M32.1732 29.5264V29.5793C32.1732 30.5423 31.3901 31.3255 30.427 31.3255H3.33415C2.37111 31.3255 1.58789 30.5424 1.58789 29.5793V29.5264H32.1732Z" fill="#FDCA00"/>
<path d="M49 36.3531V39.7397C49 40.1778 48.6444 40.5335 48.2062 40.5335H47.3067V44.8196C47.3067 45.2578 46.9511 45.6134 46.513 45.6134C46.0748 45.6134 45.7192 45.2578 45.7192 44.8196V40.5335H43.9201V44.8196C43.9201 45.2578 43.5644 45.6134 43.1263 45.6134C42.6882 45.6134 42.3325 45.2578 42.3325 44.8196V40.5335H7.514V44.8196C7.514 45.2578 7.15837 45.6134 6.72025 45.6134C6.28212 45.6134 5.92649 45.2578 5.92649 44.8196V40.5335H4.12744V44.8196C4.12744 45.2578 3.7718 45.6134 3.33368 45.6134C2.89556 45.6134 2.53992 45.2578 2.53992 44.8196V40.5335H0.793756C0.355633 40.5335 0 40.1778 0 39.7397V36.3531C0 35.915 0.355633 35.5594 0.793756 35.5594H11.8532V32.9136H3.33368C1.49544 32.9137 0 31.4182 0 29.5799V10.9536C0 9.11527 1.49544 7.61993 3.33368 7.61993H30.0435L30.3006 5.56469C30.4551 4.32332 31.5166 3.38672 32.7675 3.38672H34.8588C36.1097 3.38672 37.1712 4.32332 37.3257 5.56469L37.4771 6.77328H39.0762C39.4085 5.79012 40.3387 5.08 41.433 5.08C42.8046 5.08 43.9201 6.19548 43.9201 7.56704C43.9201 8.32372 43.5793 9.00212 43.0449 9.45931L46.3743 17.784C46.4209 17.7809 46.4664 17.7798 46.513 17.7798C47.8845 17.7798 49 18.8953 49 20.2669C49 21.5845 47.9703 22.665 46.6728 22.7486L44.1572 32.1803C45.443 32.2754 46.4601 33.3507 46.4601 34.6599V35.5595H48.2063C48.6444 35.5595 49 35.915 49 36.3531ZM47.4125 38.946V37.1469H1.58751V38.946H47.4125ZM47.4125 20.2668C47.4125 19.7704 47.0092 19.3672 46.513 19.3672C46.0167 19.3672 45.6134 19.7705 45.6134 20.2668C45.6134 20.763 46.0167 21.1663 46.513 21.1663C47.0092 21.1663 47.4125 20.7631 47.4125 20.2668ZM42.5167 32.1728L45.1392 22.339C44.4683 21.8923 44.0258 21.1304 44.0258 20.2668C44.0258 19.5101 44.3666 18.8317 44.901 18.3745L41.5716 10.0498C41.525 10.0529 41.4795 10.054 41.4329 10.054C40.3386 10.054 39.4083 9.34387 39.0761 8.3607H37.676L37.9098 10.2371C39.4084 10.5629 40.5334 11.8985 40.5334 13.4935V14.3402C40.5334 14.7783 40.1778 15.1339 39.7396 15.1339H33.7603V29.5799C33.7603 31.4182 32.2648 32.9136 30.4266 32.9136H22.7538V35.5594H33.0195V34.6598C33.0195 33.2883 34.135 32.1728 35.5065 32.1728H42.5167ZM44.8726 35.5595V34.6599C44.8726 34.1636 44.4693 33.7604 43.973 33.7604H43.1296C43.1285 33.7604 43.1274 33.7604 43.1264 33.7604C43.1264 33.7604 43.1243 33.7604 43.1232 33.7604H35.5065C35.0102 33.7604 34.607 34.1637 34.607 34.6599V35.5595H44.8726ZM42.3325 7.56704C42.3325 7.07067 41.9293 6.66751 41.433 6.66751C40.9367 6.66751 40.5335 7.07076 40.5335 7.56704C40.5335 8.06332 40.9367 8.46657 41.433 8.46657C41.9293 8.46657 42.3325 8.06332 42.3325 7.56704ZM38.946 13.5465V13.4936C38.946 12.5306 38.1629 11.7474 37.1997 11.7474H30.4265C29.4634 11.7474 28.6802 12.5305 28.6802 13.4936V13.5465H38.946ZM36.3002 10.1598L35.7509 5.76253C35.6949 5.31272 35.3107 4.97404 34.8588 4.97404H32.7675C32.3156 4.97404 31.9314 5.31272 31.8754 5.76253L31.3261 10.1598H36.3002ZM32.1728 29.5799V29.527H1.58751V29.5799C1.58751 30.543 2.37063 31.3262 3.33378 31.3262H30.4266C31.3896 31.3262 32.1728 30.543 32.1728 29.5799ZM32.1728 27.9396V15.1339H30.3736V25.3467C30.3736 25.7848 30.018 26.1405 29.5798 26.1405H4.18032C3.7422 26.1405 3.38657 25.7848 3.38657 25.3467V11.8002C3.38657 11.3621 3.7422 11.0065 4.18032 11.0065H28.2093C28.6305 10.6308 29.1459 10.3609 29.7164 10.2371L29.8445 9.20734H3.33368C2.37063 9.20734 1.58742 9.99046 1.58742 10.9536V27.9395H32.1728V27.9396ZM28.7862 24.5529V15.1339H27.8867C27.4485 15.1339 27.0929 14.7783 27.0929 14.3402V13.4935C27.0929 13.1813 27.1374 12.8808 27.2167 12.594H4.97408V24.5529H28.7862ZM21.1663 35.5595V32.9137H13.4406V35.5595H21.1663Z" fill="white"/>
</svg>
