<svg width="50" height="50" viewBox="0 0 50 50" fill="none" xmlns="http://www.w3.org/2000/svg">
<rect x="2" y="2" width="46" height="46" rx="12" fill="#489EEE"/>
<path d="M34.8686 14.1942C34.8686 14.1942 37.1813 13.2419 36.9886 15.5546C36.9244 16.5069 36.3462 19.8399 35.8965 23.445L34.3547 34.1243C34.3547 34.1243 34.2263 35.6887 33.0699 35.9608C31.9135 36.2329 30.1791 35.0085 29.8578 34.7364C29.6008 34.5324 25.0398 31.4714 23.4337 29.975C22.984 29.5669 22.4701 28.7506 23.4979 27.7983L30.2433 20.9963C31.0142 20.18 31.7851 18.2755 28.573 20.5882L19.5792 27.0501C19.5792 27.0501 18.5514 27.7303 16.6242 27.1182L12.4485 25.7577C12.4485 25.7577 10.9067 24.7374 13.5406 23.7171C19.9647 20.5201 27.8664 17.2551 34.8686 14.1942Z" fill="white"/>
</svg>
