<svg width="50" height="50" viewBox="0 0 50 50" fill="none" xmlns="http://www.w3.org/2000/svg">
<rect x="2" y="2" width="46" height="46" rx="12" fill="#0A0A0A"/>
<path d="M35.3678 22.5516C35.5813 22.5516 35.792 22.5386 36 22.5191V18.1929C32.6798 17.952 30.0238 15.3267 29.6775 12H25.9982C25.9982 12 25.9597 30.0636 25.9597 30.1516C25.9597 32.3787 24.0147 34.1333 21.8122 34.1333C19.6097 34.1333 17.825 32.3287 17.825 30.1016C17.825 27.8746 19.6097 26.07 21.8122 26.07C21.9771 26.07 22.1347 26.0996 22.295 26.1191V22.2264C22.1347 22.2162 21.9753 22.2014 21.8122 22.2014C17.4979 22.2014 14 25.7383 14 30.1007C14 34.4631 17.4979 38 21.8122 38C26.1264 38 29.6244 34.4631 29.6244 30.1007V19.413C30.853 21.3019 32.9647 22.5516 35.3678 22.5516Z" fill="white"/>
</svg>
