<svg width="50" height="50" viewBox="0 0 50 50" fill="none" xmlns="http://www.w3.org/2000/svg">
<rect x="2" y="2" width="46" height="46" rx="12" fill="#E34530"/>
<path d="M39.1905 18.4375C38.9224 17.063 37.6451 16.062 36.1628 15.7495C33.9445 15.3125 29.8392 15 25.3975 15C20.9584 15 16.7874 15.3125 14.5665 15.7495C13.0868 16.062 11.8069 16.9995 11.5388 18.4375C11.2681 20 11 22.1875 11 25C11 27.8125 11.2681 30 11.6045 31.5625C11.8752 32.937 13.1525 33.938 14.6322 34.2505C16.9871 34.6875 21.0241 35 25.4658 35C29.9076 35 33.9445 34.6875 36.2994 34.2505C37.7791 33.938 39.0565 33.0005 39.3272 31.5625C39.5953 30 39.9317 27.749 40 25C39.8633 22.1875 39.5269 20 39.1905 18.4375ZM21.7653 29.375V20.625L29.9733 25L21.7653 29.375Z" fill="white"/>
</svg>
