<svg width="30" height="18" viewBox="0 0 30 18" fill="none" xmlns="http://www.w3.org/2000/svg">
<path d="M18.8399 15.8814H11.1406V2.12305H18.8399V15.8814Z" fill="#0D0D0D"/>
<path d="M11.634 9.00098C11.634 6.21003 12.9482 3.72394 14.9948 2.1218C13.4982 0.950241 11.6094 0.250976 9.55669 0.250976C4.69708 0.250976 0.757812 4.16842 0.757812 9.00098C0.757812 13.8335 4.69708 17.751 9.55669 17.751C11.6094 17.751 13.4982 17.0517 14.9948 15.8801C12.9482 14.278 11.634 11.7919 11.634 9.00098Z" fill="#0D0D0D"/>
<path d="M29.2219 9.00098C29.2219 13.8335 25.2827 17.751 20.423 17.751C18.3703 17.751 16.4815 17.0517 14.9844 15.8801C17.0315 14.278 18.3457 11.7919 18.3457 9.00098C18.3457 6.21003 17.0315 3.72394 14.9844 2.1218C16.4815 0.950241 18.3703 0.250976 20.423 0.250976C25.2827 0.250976 29.2219 4.16842 29.2219 9.00098Z" fill="#0D0D0D"/>
<path d="M7.37849 9.05634C7.37849 8.67414 7.63038 8.36015 8.042 8.36015C8.43528 8.36015 8.70079 8.6606 8.70079 9.05634C8.70079 9.45207 8.43528 9.75252 8.042 9.75252C7.63038 9.75252 7.37849 9.43853 7.37849 9.05634ZM9.14906 9.05634V7.9691H8.67356V8.2331C8.52274 8.03732 8.29389 7.91443 7.98282 7.91443C7.36959 7.91443 6.88885 8.39244 6.88885 9.05634C6.88885 9.72076 7.36959 10.1982 7.98282 10.1982C8.29389 10.1982 8.52274 10.0754 8.67356 9.87957V10.1436H9.14906V9.05634ZM25.2177 9.05634C25.2177 8.67414 25.4696 8.36015 25.8812 8.36015C26.275 8.36015 26.54 8.6606 26.54 9.05634C26.54 9.45207 26.275 9.75252 25.8812 9.75252C25.4696 9.75252 25.2177 9.43853 25.2177 9.05634ZM26.9888 9.05634V7.09588H26.5127V8.2331C26.3619 8.03732 26.1331 7.91443 25.822 7.91443C25.2088 7.91443 24.728 8.39244 24.728 9.05634C24.728 9.72076 25.2088 10.1982 25.822 10.1982C26.1331 10.1982 26.3619 10.0754 26.5127 9.87957V10.1436H26.9888V9.05634ZM15.0515 8.33776C15.3578 8.33776 15.5547 8.52886 15.605 8.86524H14.4702C14.521 8.55125 14.7126 8.33776 15.0515 8.33776ZM15.0609 7.91443C14.4199 7.91443 13.9716 8.37838 13.9716 9.05634C13.9716 9.74783 14.4382 10.1982 15.0928 10.1982C15.4222 10.1982 15.7239 10.1165 15.9894 9.89363L15.7563 9.5432C15.573 9.68847 15.3395 9.77074 15.1201 9.77074C14.8137 9.77074 14.5346 9.62963 14.466 9.23806H16.0899C16.0946 9.17922 16.0993 9.11986 16.0993 9.05634C16.0946 8.37838 15.6736 7.91443 15.0609 7.91443ZM20.8025 9.05634C20.8025 8.67414 21.0544 8.36015 21.466 8.36015C21.8593 8.36015 22.1248 8.6606 22.1248 9.05634C22.1248 9.45207 21.8593 9.75252 21.466 9.75252C21.0544 9.75252 20.8025 9.43853 20.8025 9.05634ZM22.5731 9.05634V7.9691H22.0976V8.2331C21.9462 8.03732 21.7179 7.91443 21.4068 7.91443C20.7936 7.91443 20.3129 8.39244 20.3129 9.05634C20.3129 9.72076 20.7936 10.1982 21.4068 10.1982C21.7179 10.1982 21.9462 10.0754 22.0976 9.87957V10.1436H22.5731V9.05634ZM18.1171 9.05634C18.1171 9.71607 18.579 10.1982 19.2839 10.1982C19.6132 10.1982 19.8327 10.1253 20.0704 9.93893L19.8421 9.55673C19.6635 9.68431 19.476 9.75252 19.2697 9.75252C18.89 9.74783 18.6109 9.47498 18.6109 9.05634C18.6109 8.63769 18.89 8.36484 19.2697 8.36015C19.476 8.36015 19.6635 8.42837 19.8421 8.55594L20.0704 8.17374C19.8327 7.98733 19.6132 7.91443 19.2839 7.91443C18.579 7.91443 18.1171 8.3966 18.1171 9.05634ZM24.2478 7.91443C23.9734 7.91443 23.7948 8.042 23.6712 8.2331V7.9691H23.1999V10.1436H23.676V8.9246C23.676 8.56479 23.8315 8.36484 24.1426 8.36484C24.2389 8.36484 24.3395 8.37838 24.44 8.41951L24.5866 7.97379C24.4814 7.93265 24.3442 7.91443 24.2478 7.91443ZM11.5009 8.14198C11.2721 7.99201 10.9568 7.91443 10.6091 7.91443C10.055 7.91443 9.6984 8.17843 9.6984 8.61061C9.6984 8.96521 9.9639 9.18391 10.453 9.25212L10.6777 9.28388C10.9385 9.32033 11.0615 9.38855 11.0615 9.51143C11.0615 9.67962 10.8877 9.77543 10.563 9.77543C10.2336 9.77543 9.99585 9.67077 9.8356 9.54788L9.61147 9.91602C9.87226 10.1071 10.2017 10.1982 10.5583 10.1982C11.1898 10.1982 11.5559 9.90248 11.5559 9.48852C11.5559 9.10632 11.2679 8.90637 10.7918 8.83816L10.5677 8.80588C10.3619 8.7788 10.1969 8.73818 10.1969 8.59239C10.1969 8.43305 10.3525 8.33776 10.6133 8.33776C10.8924 8.33776 11.1626 8.44242 11.2951 8.52417L11.5009 8.14198ZM17.6364 7.91443C17.3619 7.91443 17.1834 8.042 17.0603 8.2331V7.9691H16.589V10.1436H17.0645V8.9246C17.0645 8.56479 17.22 8.36484 17.5311 8.36484C17.6274 8.36484 17.728 8.37838 17.8285 8.41951L17.9752 7.97379C17.8699 7.93265 17.7327 7.91443 17.6364 7.91443ZM13.5783 7.9691H12.8007V7.30937H12.3199V7.9691H11.8764V8.40129H12.3199V9.39323C12.3199 9.8978 12.5168 10.1982 13.0793 10.1982C13.2856 10.1982 13.5234 10.1347 13.6742 10.0301L13.537 9.62495C13.3951 9.7067 13.2395 9.74783 13.1159 9.74783C12.8782 9.74783 12.8007 9.60203 12.8007 9.38386V8.40129H13.5783V7.9691ZM6.46834 10.1436V8.7788C6.46834 8.26486 6.13894 7.91912 5.60793 7.91443C5.32881 7.90974 5.04078 7.99618 4.83917 8.30131C4.68835 8.06023 4.4506 7.91443 4.11649 7.91443C3.88293 7.91443 3.6546 7.98264 3.47603 8.23727V7.9691H3V10.1436H3.48022V8.93814C3.48022 8.56062 3.69073 8.36015 4.01594 8.36015C4.33172 8.36015 4.49144 8.56479 4.49144 8.93345V10.1436H4.97218V8.93814C4.97218 8.56062 5.1916 8.36015 5.50738 8.36015C5.83206 8.36015 5.9876 8.56479 5.9876 8.93345V10.1436H6.46834Z" fill="white"/>
</svg>
