<svg width="44" height="28" viewBox="0 0 44 28" fill="none" xmlns="http://www.w3.org/2000/svg">
<g id="MasterCard">
<g id="MasterCard_2">
<rect id="Rectangle" width="44" height="28" rx="3" fill="#EEEEEE"/>
<g id="Group">
<g id="Group_2">
<path id="Vector" d="M25.8399 20.8814H18.1406V7.12305H25.8399V20.8814Z" fill="#0D0D0D"/>
<g id="Group_3">
<path id="Vector_2" d="M18.634 14.001C18.634 11.21 19.9482 8.72394 21.9948 7.1218C20.4982 5.95024 18.6094 5.25098 16.5567 5.25098C11.6971 5.25098 7.75781 9.16842 7.75781 14.001C7.75781 18.8335 11.6971 22.751 16.5567 22.751C18.6094 22.751 20.4982 22.0517 21.9948 20.8801C19.9482 19.278 18.634 16.7919 18.634 14.001Z" fill="#0D0D0D"/>
</g>
<g id="Group_4">
<path id="Vector_3" d="M36.2258 14.001C36.2258 18.8335 32.2866 22.751 27.4269 22.751C25.3742 22.751 23.4854 22.0517 21.9883 20.8801C24.0354 19.278 25.3496 16.7919 25.3496 14.001C25.3496 11.21 24.0354 8.72394 21.9883 7.1218C23.4854 5.95024 25.3742 5.25098 27.4269 5.25098C32.2866 5.25098 36.2258 9.16842 36.2258 14.001Z" fill="#0D0D0D"/>
</g>
</g>
<g id="Group_5">
<path id="Vector_4" d="M14.3785 14.0563C14.3785 13.6741 14.6304 13.3602 15.042 13.3602C15.4353 13.3602 15.7008 13.6606 15.7008 14.0563C15.7008 14.4521 15.4353 14.7525 15.042 14.7525C14.6304 14.7525 14.3785 14.4385 14.3785 14.0563ZM16.1491 14.0563V12.9691H15.6736V13.2331C15.5227 13.0373 15.2939 12.9144 14.9828 12.9144C14.3696 12.9144 13.8889 13.3924 13.8889 14.0563C13.8889 14.7208 14.3696 15.1982 14.9828 15.1982C15.2939 15.1982 15.5227 15.0754 15.6736 14.8796V15.1436H16.1491V14.0563ZM32.2177 14.0563C32.2177 13.6741 32.4696 13.3602 32.8812 13.3602C33.275 13.3602 33.54 13.6606 33.54 14.0563C33.54 14.4521 33.275 14.7525 32.8812 14.7525C32.4696 14.7525 32.2177 14.4385 32.2177 14.0563ZM33.9888 14.0563V12.0959H33.5127V13.2331C33.3619 13.0373 33.1331 12.9144 32.822 12.9144C32.2088 12.9144 31.728 13.3924 31.728 14.0563C31.728 14.7208 32.2088 15.1982 32.822 15.1982C33.1331 15.1982 33.3619 15.0754 33.5127 14.8796V15.1436H33.9888V14.0563ZM22.0515 13.3378C22.3578 13.3378 22.5547 13.5289 22.605 13.8652H21.4702C21.521 13.5513 21.7126 13.3378 22.0515 13.3378ZM22.0609 12.9144C21.4199 12.9144 20.9716 13.3784 20.9716 14.0563C20.9716 14.7478 21.4382 15.1982 22.0928 15.1982C22.4222 15.1982 22.7239 15.1165 22.9894 14.8936L22.7563 14.5432C22.573 14.6885 22.3395 14.7707 22.1201 14.7707C21.8137 14.7707 21.5346 14.6296 21.466 14.2381H23.0899C23.0946 14.1792 23.0993 14.1199 23.0993 14.0563C23.0946 13.3784 22.6736 12.9144 22.0609 12.9144ZM27.8025 14.0563C27.8025 13.6741 28.0544 13.3602 28.466 13.3602C28.8593 13.3602 29.1248 13.6606 29.1248 14.0563C29.1248 14.4521 28.8593 14.7525 28.466 14.7525C28.0544 14.7525 27.8025 14.4385 27.8025 14.0563ZM29.5731 14.0563V12.9691H29.0976V13.2331C28.9462 13.0373 28.7179 12.9144 28.4068 12.9144C27.7936 12.9144 27.3129 13.3924 27.3129 14.0563C27.3129 14.7208 27.7936 15.1982 28.4068 15.1982C28.7179 15.1982 28.9462 15.0754 29.0976 14.8796V15.1436H29.5731V14.0563ZM25.1171 14.0563C25.1171 14.7161 25.579 15.1982 26.2839 15.1982C26.6132 15.1982 26.8327 15.1253 27.0704 14.9389L26.8421 14.5567C26.6635 14.6843 26.476 14.7525 26.2697 14.7525C25.89 14.7478 25.6109 14.475 25.6109 14.0563C25.6109 13.6377 25.89 13.3648 26.2697 13.3602C26.476 13.3602 26.6635 13.4284 26.8421 13.5559L27.0704 13.1737C26.8327 12.9873 26.6132 12.9144 26.2839 12.9144C25.579 12.9144 25.1171 13.3966 25.1171 14.0563ZM31.2478 12.9144C30.9734 12.9144 30.7948 13.042 30.6712 13.2331V12.9691H30.1999V15.1436H30.676V13.9246C30.676 13.5648 30.8315 13.3648 31.1426 13.3648C31.2389 13.3648 31.3395 13.3784 31.44 13.4195L31.5866 12.9738C31.4814 12.9327 31.3442 12.9144 31.2478 12.9144ZM18.5009 13.142C18.2721 12.992 17.9568 12.9144 17.6091 12.9144C17.055 12.9144 16.6984 13.1784 16.6984 13.6106C16.6984 13.9652 16.9639 14.1839 17.453 14.2521L17.6777 14.2839C17.9385 14.3203 18.0615 14.3885 18.0615 14.5114C18.0615 14.6796 17.8877 14.7754 17.563 14.7754C17.2336 14.7754 16.9958 14.6708 16.8356 14.5479L16.6115 14.916C16.8723 15.1071 17.2017 15.1982 17.5583 15.1982C18.1898 15.1982 18.5559 14.9025 18.5559 14.4885C18.5559 14.1063 18.2679 13.9064 17.7918 13.8382L17.5677 13.8059C17.3619 13.7788 17.1969 13.7382 17.1969 13.5924C17.1969 13.4331 17.3525 13.3378 17.6133 13.3378C17.8924 13.3378 18.1626 13.4424 18.2951 13.5242L18.5009 13.142ZM24.6364 12.9144C24.3619 12.9144 24.1834 13.042 24.0603 13.2331V12.9691H23.589V15.1436H24.0645V13.9246C24.0645 13.5648 24.22 13.3648 24.5311 13.3648C24.6274 13.3648 24.728 13.3784 24.8285 13.4195L24.9752 12.9738C24.8699 12.9327 24.7327 12.9144 24.6364 12.9144ZM20.5783 12.9691H19.8007V12.3094H19.3199V12.9691H18.8764V13.4013H19.3199V14.3932C19.3199 14.8978 19.5168 15.1982 20.0793 15.1982C20.2856 15.1982 20.5234 15.1347 20.6742 15.0301L20.537 14.6249C20.3951 14.7067 20.2395 14.7478 20.1159 14.7478C19.8782 14.7478 19.8007 14.602 19.8007 14.3839V13.4013H20.5783V12.9691ZM13.4683 15.1436V13.7788C13.4683 13.2649 13.1389 12.9191 12.6079 12.9144C12.3288 12.9097 12.0408 12.9962 11.8392 13.3013C11.6883 13.0602 11.4506 12.9144 11.1165 12.9144C10.8829 12.9144 10.6546 12.9826 10.476 13.2373V12.9691H10V15.1436H10.4802V13.9381C10.4802 13.5606 10.6907 13.3602 11.0159 13.3602C11.3317 13.3602 11.4914 13.5648 11.4914 13.9334V15.1436H11.9722V13.9381C11.9722 13.5606 12.1916 13.3602 12.5074 13.3602C12.8321 13.3602 12.9876 13.5648 12.9876 13.9334V15.1436H13.4683Z" fill="white"/>
</g>
</g>
</g>
</g>
</svg>
