<svg width="34" height="10" viewBox="0 0 34 10" fill="none" xmlns="http://www.w3.org/2000/svg">
<g clip-path="url(#clip0_537_117886)">
<path d="M0 0.00150923H3.1875C3.47727 0.00150923 4.34659 -0.0950817 4.73295 1.25719C5.02273 2.12651 5.40909 3.47878 5.98864 5.50719H6.18182C6.76136 3.38219 7.24432 1.93333 7.4375 1.25719C7.82386 -0.0950817 8.78977 0.00150923 9.17614 0.00150923H12.1705V9.27424H9.07955V3.76855H8.88636L7.24432 9.27424H4.92614L3.28409 3.76855H2.99432V9.27424H0M13.4261 0.00150923H16.517V5.50719H16.8068L18.8352 0.967418C19.2216 0.0981001 20.0909 0.00150923 20.0909 0.00150923H22.9886V9.27424H19.8977V3.76855H19.7045L17.6761 8.30833C17.2898 9.17765 16.3239 9.27424 16.3239 9.27424H13.4261M27.142 6.4731V9.27424H24.2443V4.44469H33.7102C33.3239 5.60378 31.9716 6.4731 30.4261 6.4731" fill="#0D0D0D"/>
<path d="M33.907 3.86535C34.2933 2.12671 33.1342 0.00170898 30.6229 0.00170898H24.0547C24.2479 2.03012 25.9865 3.86535 27.8217 3.86535" fill="#0D0D0D"/>
</g>
<defs>
<clipPath id="clip0_537_117886">
<rect width="34" height="10" fill="white"/>
</clipPath>
</defs>
</svg>
