<svg width="30" height="17" viewBox="0 0 30 17" fill="none" xmlns="http://www.w3.org/2000/svg">
<g clip-path="url(#clip0_537_117867)">
<path d="M29.6968 7.15824V11.3319H28.2065V8.40415H26.7716V11.3319H25.2812V7.15796H29.6968V7.15824Z" fill="#0D0D0D"/>
<path fill-rule="evenodd" clip-rule="evenodd" d="M22.2211 11.4811C23.5552 11.4811 24.5459 10.6631 24.5459 9.42301C24.5459 8.22276 23.8149 7.44347 22.5934 7.44347C22.0296 7.44347 21.5644 7.64192 21.214 7.98434C21.2977 7.2766 21.8961 6.75991 22.5551 6.75991C22.7072 6.75991 23.8521 6.75749 23.8521 6.75749L24.4995 5.51855C24.4995 5.51855 23.0621 5.55127 22.3939 5.55127C20.8672 5.57788 19.8359 6.96562 19.8359 8.65111C19.8359 10.6147 20.8417 11.4811 22.2211 11.4811ZM22.2292 8.54086C22.7245 8.54086 23.0679 8.86635 23.0679 9.42286C23.0679 9.92376 22.7628 10.3365 22.2292 10.3376C21.7187 10.3376 21.3753 9.9552 21.3753 9.4314C21.3753 8.87474 21.7187 8.54086 22.2292 8.54086Z" fill="#0D0D0D"/>
<path d="M18.6232 9.93453C18.6232 9.93453 18.2713 10.1374 17.7456 10.1758C17.1413 10.1937 16.6029 9.81205 16.6029 9.1339C16.6029 8.47239 17.078 8.09327 17.7304 8.09327C18.1304 8.09327 18.6596 8.37053 18.6596 8.37053C18.6596 8.37053 19.0469 7.65995 19.2475 7.30458C18.8801 7.02618 18.3909 6.87354 17.8219 6.87354C16.3858 6.87354 15.2734 7.80989 15.2734 9.1255C15.2734 10.4579 16.3189 11.3725 17.8219 11.3449C18.242 11.3292 18.8215 11.1817 19.1748 10.9548L18.6232 9.93453Z" fill="#0D0D0D"/>
<path d="M0.296875 3.68018L2.36419 7.37536V9.62932L0.299293 13.3173L0.296875 3.68018Z" fill="#0D0D0D"/>
<path d="M8.23438 6.03084L10.1715 4.84354L14.136 4.83984L8.23438 8.45522V6.03084Z" fill="#0D0D0D"/>
<path d="M8.22526 3.65841L8.23621 8.55071L6.16406 7.27749V-0.0356445L8.22526 3.65841Z" fill="#0D0D0D"/>
<path d="M14.1378 4.83973L10.1732 4.84343L8.22526 3.65841L6.16406 -0.0356445L14.1378 4.83973Z" fill="#0D0D0D"/>
<path d="M8.23621 13.338V10.9644L6.16406 9.71533L6.1652 17.0357L8.23621 13.338Z" fill="#0D0D0D"/>
<path d="M10.1668 12.1613L2.36405 7.37536L0.296875 3.68018L14.1278 12.1564L10.1668 12.1613Z" fill="#0D0D0D"/>
<path d="M6.16406 17.0356L8.23479 13.3378L10.1671 12.1613L14.128 12.1565L6.16406 17.0356Z" fill="#0D0D0D"/>
<path d="M0.296875 13.3174L6.17688 9.71535L4.20005 8.50244L2.36177 9.62942L0.296875 13.3174Z" fill="#0D0D0D"/>
</g>
<defs>
<clipPath id="clip0_537_117867">
<rect width="30" height="17" fill="white"/>
</clipPath>
</defs>
</svg>
