<svg width="44" height="28" viewBox="0 0 44 28" fill="none" xmlns="http://www.w3.org/2000/svg">
<rect width="44" height="28" rx="3" fill="#EEEEEE"/>
<path d="M19.7714 18.8436H17.0625L18.7568 9.1875H21.4655L19.7714 18.8436Z" fill="#0D0D0D"/>
<path d="M29.5907 9.42355C29.0564 9.22817 28.209 9.01245 27.1611 9.01245C24.486 9.01245 22.6022 10.3273 22.5906 12.207C22.5684 13.5939 23.9394 14.3642 24.9647 14.8266C26.0128 15.2992 26.369 15.6076 26.369 16.0288C26.3584 16.6757 25.5222 16.9739 24.7422 16.9739C23.6607 16.9739 23.0813 16.8201 22.2006 16.4603L21.8439 16.306L21.4648 18.4735C22.1002 18.7403 23.2707 18.9771 24.486 18.9875C27.3283 18.9875 29.1788 17.693 29.2007 15.6898C29.2115 14.5906 28.4876 13.7483 26.9269 13.0601C25.9794 12.6183 25.3992 12.3203 25.3992 11.8683C25.4103 11.4573 25.89 11.0364 26.9595 11.0364C27.8401 11.0158 28.4871 11.2109 28.9773 11.4061L29.2223 11.5087L29.5907 9.42355Z" fill="#0D0D0D"/>
<path d="M33.1911 15.4228C33.4142 14.868 34.2726 12.7211 34.2726 12.7211C34.2613 12.7417 34.4952 12.1561 34.629 11.7966L34.8183 12.6286C34.8183 12.6286 35.3313 14.94 35.4427 15.4228C35.0193 15.4228 33.7261 15.4228 33.1911 15.4228ZM36.5348 9.1875H34.4395C33.7934 9.1875 33.3025 9.36199 33.0237 9.98867L29 18.8434H31.8423C31.8423 18.8434 32.3103 17.6516 32.4109 17.395C32.7227 17.395 35.4877 17.395 35.8888 17.395C35.9666 17.734 36.2121 18.8434 36.2121 18.8434H38.7202L36.5348 9.1875Z" fill="#0D0D0D"/>
<path d="M14.8013 9.1875L12.1484 15.772L11.8585 14.4366C11.368 12.8957 9.82982 11.2215 8.11328 10.3891L10.5432 18.8333H13.4078L17.6657 9.1875H14.8013Z" fill="#0D0D0D"/>
<path d="M9.68415 9.1875H5.32584L5.28125 9.3826C8.68101 10.1839 10.9326 12.1154 11.8577 14.437L10.9102 9.99918C10.7542 9.38247 10.2749 9.20784 9.68415 9.1875Z" fill="#0D0D0D"/>
</svg>
