<svg width="34" height="10" viewBox="0 0 34 10" fill="none" xmlns="http://www.w3.org/2000/svg">
<path d="M14.7714 9.84356H12.0625L13.7568 0.1875H16.4655L14.7714 9.84356Z" fill="#0D0D0D"/>
<path d="M24.5946 0.423548C24.0603 0.228171 23.2129 0.0124512 22.165 0.0124512C19.4899 0.0124512 17.6061 1.32725 17.5945 3.20702C17.5723 4.59391 18.9433 5.36422 19.9686 5.82665C21.0167 6.29919 21.3729 6.60761 21.3729 7.02881C21.3623 7.6757 20.5261 7.97388 19.7461 7.97388C18.6646 7.97388 18.0852 7.82015 17.2045 7.46025L16.8478 7.30597L16.4688 9.47355C17.1041 9.74033 18.2746 9.97708 19.4899 9.98745C22.3322 9.98745 24.1827 8.693 24.2046 6.6898C24.2154 5.59059 23.4915 4.74832 21.9308 4.06007C20.9833 3.61825 20.4031 3.32034 20.4031 2.86828C20.4142 2.45732 20.8939 2.0364 21.9634 2.0364C22.844 2.01578 23.4911 2.21088 23.9812 2.40612L24.2262 2.50866L24.5946 0.423548Z" fill="#0D0D0D"/>
<path d="M28.1911 6.42276C28.4142 5.86803 29.2726 3.72107 29.2726 3.72107C29.2613 3.74169 29.4952 3.15611 29.629 2.79662L29.8183 3.62864C29.8183 3.62864 30.3313 5.93999 30.4427 6.42276C30.0193 6.42276 28.7261 6.42276 28.1911 6.42276ZM31.5348 0.1875H29.4395C28.7934 0.1875 28.3025 0.361987 28.0237 0.988668L24 9.84343H26.8423C26.8423 9.84343 27.3103 8.65164 27.4109 8.39496C27.7227 8.39496 30.4877 8.39496 30.8888 8.39496C30.9666 8.73397 31.2121 9.84343 31.2121 9.84343H33.7202L31.5348 0.1875Z" fill="#0D0D0D"/>
<path d="M9.79735 0.1875L7.14447 6.77201L6.85457 5.43659C6.36411 3.8957 4.82592 2.22155 3.10938 1.38911L5.53932 9.83332H8.40388L12.6618 0.1875H9.79735Z" fill="#0D0D0D"/>
<path d="M4.68415 0.1875H0.325837L0.28125 0.382604C3.68101 1.18391 5.9326 3.11542 6.85768 5.437L5.91023 0.99918C5.75425 0.382467 5.2749 0.207843 4.68415 0.1875Z" fill="#0D0D0D"/>
</svg>
