<svg  viewBox="0 0 97 39" fill="none" xmlns="http://www.w3.org/2000/svg">
<path d="M1.25 18H5.25V9.675L11.225 18H16.3L9.2 8.575L15.775 0.499999H10.975L5.25 8.125V0.499999H1.25V18ZM28.3846 18H32.3846V0.499999H20.7846L20.5346 4C19.8346 13.7 18.3346 14.25 16.8846 14L16.8096 18C20.9096 18.675 23.1096 16.775 24.1596 7.55L24.5346 4.25H28.3846V18ZM40.3945 18L48.1445 7.125V18H52.1445V0.499999H48.6445L40.8945 11.375V0.499999H36.8945V18H40.3945ZM67.0205 18H71.0205V0.499999H67.0205V7.2H60.6455V0.499999H56.6455V18H60.6455V10.95H67.0205V18ZM86.6676 18H91.3176L88.1926 13.975C89.6426 12.15 90.5926 9.525 90.5926 6.75H86.8676C86.8676 8.875 86.3176 10.15 85.9426 10.975L83.4176 7.6C84.4426 7.05 85.3426 5.65 85.3426 4.175C85.3426 1.625 83.1676 0.2 80.8676 0.2C78.5926 0.2 76.4176 1.625 76.4176 4.175C76.4176 5.825 77.0926 6.85 78.1426 7.575C76.0426 9.05 74.5176 10.325 74.5176 13.25C74.5176 16.15 76.8676 18.3 80.6426 18.3C83.3176 18.3 84.6926 17.4 85.5426 16.625L86.6676 18ZM80.7676 14.55C79.5926 14.55 78.7676 13.55 78.7676 12.475C78.7676 11.65 79.0426 11.05 80.5926 9.725L83.2926 13.625C82.7926 14.225 81.9926 14.55 80.7676 14.55ZM79.9176 4.175C79.9176 3.6 80.3176 3.2 80.8676 3.2C81.3926 3.2 81.8426 3.625 81.8426 4.175C81.8426 4.675 81.4676 5.125 80.8676 5.125C80.2926 5.125 79.9176 4.675 79.9176 4.175Z" fill="#00BF81"/>
<path d="M13.35 33.275C12.175 34.15 10.8 34.55 9.55 34.55C6.4 34.55 4.25 32.35 4.25 29.25C4.25 25.8 6.45 23.95 9.15 23.95C10.8 23.95 11.775 24.45 12.725 25.025L14.5 22.025C13.45 21 11.475 20.2 9.15 20.2C3.125 20.2 7.07805e-08 24.225 7.07805e-08 29.25C7.07805e-08 34.7 3.75 38.3 9.175 38.3C11.55 38.3 13.825 37.45 14.875 36.275L13.35 33.275ZM17.6318 38H28.2568V34.25H21.6318V31.075H27.2568V27.325H21.6318V24.25H28.0068V20.5H17.6318V38ZM36.0117 38V32.05C36.6367 32.125 37.5867 32.125 37.9617 32.125C42.0117 32.125 44.4367 29.375 44.4367 26.25C44.4367 23.225 42.6867 20.45 37.3617 20.45C36.0117 20.45 32.9867 20.5 32.0117 20.5V38H36.0117ZM37.7617 24.2C39.1867 24.2 40.1867 24.675 40.1867 26.225C40.1867 27.925 38.8867 28.375 37.8367 28.375C37.2617 28.375 36.5867 28.325 36.0117 28.25V24.25C36.8367 24.225 37.2367 24.2 37.7617 24.2ZM47.6855 37.95C48.7105 38.05 51.0355 38.1 52.7105 38.1C56.5105 38.1 59.3605 36.375 59.3605 32.7C59.3605 30.45 58.1355 29.175 56.8605 28.7V28.65C58.1605 27.8 58.8605 26.575 58.8605 24.75C58.8605 22.325 57.1605 20.4 52.9855 20.4C51.0855 20.4 48.6605 20.5 47.6855 20.55V37.95ZM53.2355 30.925C54.5355 30.925 55.3605 31.4 55.3605 32.5C55.3605 33.675 54.5855 34.35 53.0355 34.35C52.2855 34.35 51.9605 34.275 51.6855 34.2V30.925H53.2355ZM52.9355 24.15C53.9105 24.15 54.8605 24.675 54.8605 25.725C54.8605 27 54.0355 27.425 53.0105 27.425H51.6855V24.25C52.1355 24.2 52.4355 24.15 52.9355 24.15ZM66.6152 38L74.3652 27.125V38H78.3652V20.5H74.8652L67.1152 31.375V20.5H63.1152V38H66.6152ZM94.9662 33.275C93.7912 34.15 92.4162 34.55 91.1662 34.55C88.0162 34.55 85.8662 32.35 85.8662 29.25C85.8662 25.8 88.0662 23.95 90.7662 23.95C92.4162 23.95 93.3912 24.45 94.3412 25.025L96.1162 22.025C95.0662 21 93.0912 20.2 90.7662 20.2C84.7412 20.2 81.6162 24.225 81.6162 29.25C81.6162 34.7 85.3662 38.3 90.7912 38.3C93.1662 38.3 95.4412 37.45 96.4912 36.275L94.9662 33.275Z" fill="#3C3C3C"/>
</svg>
