<svg width="249" height="239" viewBox="0 0 249 239" fill="none" xmlns="http://www.w3.org/2000/svg">
<path d="M240.874 147.657C246.309 147.706 249.64 149.118 248.897 154.475C248.28 158.936 248.42 203.924 246.674 230.084C246.687 232.743 244.802 235.381 242.172 235.439C233.351 236.138 214.765 238.248 214.922 231.105C215.45 207.138 215.041 163.919 215.287 159.331C215.548 154.48 213.432 151.35 216.2 149.286C220.094 146.373 234.728 147.601 240.874 147.657Z" fill="#FFD8D8"/>
<path d="M164.958 65.8383C166.512 67.6025 168.083 70.4808 166.326 72.0477C146.453 89.7607 131.44 112.262 122.716 137.413C122.533 137.921 122.325 138.48 121.844 138.721C121.404 138.94 120.88 138.823 120.405 138.703L107.044 135.302L103.665 134.444C102.973 134.261 102.113 134.163 101.762 133.445C101.145 132.166 102.451 130.09 102.92 128.948C105.688 122.199 108.853 115.618 112.399 109.242C115.933 102.877 119.907 96.7661 124.292 90.9537C128.651 85.1679 133.485 79.7555 138.743 74.7726C143.999 69.8178 150.055 63.318 156.621 60.3009C161.061 58.2627 160.953 61.2926 164.958 65.8383Z" fill="#E21F1D"/>
<path d="M51.3333 67.4783C52.1131 61.7017 53.8262 52.3856 56.12 47.0236C57.7053 43.3235 64.5393 45.1973 67.3373 45.1644C67.7626 45.1583 68.1841 45.2446 68.5728 45.4174C68.9615 45.5903 69.308 45.8455 69.5883 46.1654C69.8686 46.4853 70.0761 46.8623 70.1964 47.2704C70.3167 47.6784 70.3469 48.1076 70.2849 48.5284C66.2159 76.6537 71.0538 109.133 79.9315 136.192C73.1504 136.329 66.3638 136.557 59.5827 136.602C57.8295 136.613 55.9118 136.42 54.6681 135.034C53.2746 133.489 53.0135 131.14 52.6592 129.189C51.4952 122.683 50.6575 116.129 50.1462 109.527C49.6348 102.938 49.4503 96.3213 49.5983 89.7137C49.7462 83.1061 50.2156 76.5039 51.0173 69.9438C51.1178 69.1165 51.2164 68.2983 51.3333 67.4783Z" fill="#E21F1D"/>
<path d="M165.443 82.9544C164.764 82.9548 164.109 82.7051 163.602 82.2531L163.586 82.2385C159.345 78.4763 155.066 74.6301 150.873 70.8131C148.756 68.8827 146.625 66.9304 144.543 65.0091C144.252 64.7618 143.947 64.5313 143.63 64.3187C142.253 63.3526 140.173 61.8916 141.162 60.005C141.592 59.1886 142.258 58.4782 142.89 57.7896C143.117 57.5449 143.33 57.3148 143.524 57.0902C144.318 56.1642 145.142 55.2401 145.971 54.3416C147.64 52.5299 149.395 50.751 151.189 49.0544C158.343 42.2818 166.385 36.5133 175.094 31.9071C175.791 31.5419 176.807 31.1602 177.687 31.4469C177.919 31.5231 178.134 31.6462 178.317 31.8086C178.5 31.971 178.648 32.1693 178.752 32.3911C178.885 32.6741 178.956 32.9825 178.96 33.2955C178.964 33.6084 178.9 33.9185 178.774 34.2046L174.573 44.0466C174.522 44.1663 174.499 44.2959 174.505 44.4258C174.512 44.5557 174.547 44.6824 174.61 44.7965C174.672 44.9106 174.76 45.009 174.866 45.0845C174.971 45.1599 175.093 45.2103 175.221 45.2319C182.231 46.4062 189.598 47.8746 195.84 51.7299C202.233 55.6803 208.09 63.4622 206.76 71.9454C206.612 72.8805 206.272 73.5453 205.746 73.916C205.549 74.0532 205.326 74.1486 205.091 74.1963C204.856 74.2441 204.613 74.2431 204.378 74.1936C204.046 74.1291 203.733 73.9878 203.465 73.7809C202.454 73.0211 201.436 72.1774 200.452 71.3628C196.827 68.3585 193.085 65.252 188.656 65.4656C185.158 65.6355 182.059 67.9056 179.23 70.3328C175.057 73.9168 171.161 77.8106 167.575 81.981C167.334 82.2632 167.039 82.4943 166.707 82.6605C166.376 82.8268 166.014 82.9249 165.644 82.949C165.571 82.9508 165.505 82.9544 165.443 82.9544ZM164.574 81.161C164.704 81.2774 164.857 81.3665 165.022 81.4229C165.187 81.4794 165.362 81.5021 165.536 81.4897C165.712 81.4773 165.883 81.43 166.04 81.3506C166.196 81.2713 166.336 81.1615 166.45 81.0277C170.084 76.8009 174.033 72.8545 178.262 69.2224C181.288 66.6254 184.631 64.1945 188.568 64.0046C193.559 63.7635 197.528 67.0545 201.369 70.236C202.338 71.0396 203.343 71.8797 204.326 72.6102C204.413 72.6801 204.516 72.7294 204.625 72.7545C204.668 72.7685 204.713 72.7729 204.757 72.7672C204.802 72.7615 204.845 72.7459 204.883 72.7216C205.021 72.623 205.202 72.307 205.295 71.7171C206.523 63.8968 201.034 56.6683 195.051 52.9718C189.034 49.2553 181.827 47.8216 174.962 46.671C174.616 46.613 174.287 46.4771 174.001 46.2736C173.715 46.0701 173.478 45.8043 173.31 45.4963C173.141 45.1883 173.045 44.846 173.027 44.4952C173.01 44.1445 173.073 43.7944 173.211 43.4713L177.411 33.6293C177.453 33.5352 177.475 33.4331 177.475 33.3298C177.475 33.2266 177.453 33.1245 177.411 33.0303C177.394 32.9842 177.366 32.9426 177.331 32.9087C177.295 32.8748 177.252 32.8496 177.205 32.8349C176.918 32.7399 176.346 32.8824 175.744 33.2001C171.482 35.4522 167.378 37.9905 163.46 40.7976C159.486 43.6431 155.711 46.755 152.159 50.1118C150.391 51.7847 148.659 53.5398 147.012 55.3259C146.196 56.2117 145.383 57.1249 144.598 58.038C144.388 58.2827 144.154 58.5348 143.927 58.7777C143.356 59.395 142.762 60.0342 142.424 60.6789C142.059 61.3711 143.168 62.2276 144.433 63.117C144.807 63.3662 145.165 63.6376 145.505 63.9297C147.586 65.8492 149.706 67.7997 151.828 69.7264C156.016 73.5416 160.289 77.3823 164.528 81.1427L164.574 81.161Z" fill="black"/>
<path d="M46.353 56.4144C45.7667 56.433 45.1829 56.3304 44.6381 56.1131C42.704 55.2675 42.8556 52.8366 42.9469 51.3847C42.9469 51.2532 42.9633 51.1272 42.9688 51.0067C43.104 48.3932 43.3341 45.7505 43.6519 43.1535C44.9341 32.6475 47.6757 22.3716 51.7972 12.623C52.0493 12.0295 52.2812 11.4925 52.5077 10.9793C52.7725 10.384 53.3551 9.33567 54.2938 9.00145C54.5221 8.91983 54.765 8.88677 55.0068 8.90438C55.2486 8.92199 55.4841 8.98989 55.6982 9.10373C56.0426 9.28554 56.3304 9.55854 56.5301 9.89287C56.7298 10.2272 56.8337 10.61 56.8305 10.9994L56.8926 20.4963C56.8937 20.5919 56.9205 20.6855 56.9702 20.7673C57.0198 20.849 57.0906 20.9159 57.175 20.9609C57.2594 21.0059 57.3544 21.0274 57.4499 21.0231C57.5455 21.0188 57.6381 20.9888 57.7181 20.9364C64.7695 16.3231 72.009 13.3371 79.2376 12.0605C88.4623 10.4296 97.6578 11.6953 105.131 15.6218C105.656 15.8935 106.054 16.3595 106.24 16.9203C106.565 17.9559 106.092 18.8179 104.832 19.4772C102.534 20.6972 99.9772 21.2962 97.4971 21.8624C94.8051 22.4851 92.261 23.075 90.0092 24.3973C84.9686 27.3596 82.9724 33.1636 82.2309 36.3706C81.3981 39.9721 81.2118 43.7672 81.031 47.4362C80.9653 48.7512 80.8995 50.1081 80.8046 51.445C80.7516 52.1847 80.6548 52.9608 80.1197 53.5745C79.4257 54.3708 78.3153 54.4748 77.6542 54.5351C72.0784 55.0501 66.4169 55.4684 60.8247 55.7807C58.045 55.9359 55.2216 56.0674 52.4364 56.1715C51.0375 56.2245 49.6257 56.2719 48.2359 56.3103C48.0094 56.3103 47.7629 56.3359 47.5054 56.356C47.1365 56.3852 46.7456 56.4144 46.353 56.4144ZM54.8764 10.3602C54.8439 10.3608 54.8118 10.367 54.7814 10.3785C54.491 10.4826 54.113 10.9611 53.8445 11.5711C53.6217 12.0715 53.3934 12.6011 53.145 13.1874C49.0781 22.8095 46.3735 32.952 45.1093 43.3215C44.797 45.8893 44.5614 48.4973 44.4354 51.0761C44.4354 51.2021 44.4207 51.3336 44.4116 51.4706C44.3148 53.0357 44.3093 54.3653 45.2316 54.7689C45.7996 55.0173 46.6141 54.9515 47.4013 54.8931C47.6807 54.873 47.9492 54.8529 48.2067 54.8456C49.5892 54.8054 50.9955 54.7598 52.3908 54.7068C55.1686 54.6027 57.9811 54.4712 60.7535 54.316C66.3274 54.0055 71.9707 53.5854 77.5282 53.0741C78.129 53.0193 78.7408 52.9371 79.0276 52.6084C79.2668 52.3344 79.3198 51.8504 79.3563 51.3299C79.4494 50.0095 79.517 48.6599 79.5809 47.354C79.7636 43.6192 79.9462 39.7584 80.8174 36.0309C82.1889 30.11 85.2005 25.5278 89.2787 23.1262C91.7223 21.6907 94.4946 21.0478 97.1738 20.4269C99.548 19.879 102.019 19.3055 104.158 18.1787C104.978 17.7458 104.906 17.5176 104.853 17.3495C104.782 17.1572 104.637 17.0006 104.452 16.913C97.2633 13.1362 88.3984 11.9236 79.4914 13.496C72.4601 14.7397 65.4033 17.6527 58.5181 22.1564C58.2185 22.3532 57.8714 22.4655 57.5133 22.4816C57.1552 22.4976 56.7994 22.4168 56.4834 22.2476C56.1675 22.0784 55.903 21.8271 55.7178 21.5201C55.5327 21.2132 55.4338 20.862 55.4316 20.5036L55.3695 11.0067C55.3729 10.8851 55.3435 10.7648 55.2844 10.6584C55.2253 10.552 55.1386 10.4635 55.0335 10.4022C54.9851 10.3762 54.9313 10.3619 54.8764 10.3602Z" fill="black"/>
<path d="M53.3259 17.2272C50.8239 17.2272 49.3409 16.8491 48.9154 16.1022C48.8137 15.9373 48.7816 15.7387 48.8263 15.5501C48.871 15.3616 48.9888 15.1985 49.1537 15.0968C49.3187 14.9951 49.5172 14.963 49.7058 15.0077C49.8943 15.0524 50.0574 15.1702 50.1591 15.3351C50.8896 15.9031 56.0636 15.978 58.1438 15.0721C58.232 15.0313 58.3276 15.0084 58.4248 15.005C58.5221 15.0015 58.619 15.0175 58.71 15.0521C58.8009 15.0866 58.8841 15.1389 58.9545 15.206C59.025 15.2731 59.0813 15.3536 59.1202 15.4428C59.1592 15.5319 59.1799 15.628 59.1812 15.7252C59.1825 15.8225 59.1644 15.9191 59.1278 16.0093C59.0913 16.0994 59.0372 16.1814 58.9685 16.2504C58.8999 16.3193 58.8182 16.3739 58.7282 16.4108C57.3511 17.0099 55.0463 17.2254 53.3497 17.2272H53.3259Z" fill="black"/>
<path d="M180.379 40.6772C178.467 40.6603 176.585 40.2009 174.881 39.3349C173.176 38.469 171.695 37.22 170.554 35.6859C170.438 35.6587 170.33 35.6035 170.24 35.5252C170.151 35.4469 170.081 35.3478 170.039 35.2366L169.648 34.2212C169.58 34.0472 169.581 33.8537 169.651 33.6806C169.722 33.5075 169.855 33.3678 170.025 33.2904C170.196 33.213 170.389 33.2037 170.565 33.2643C170.742 33.325 170.889 33.4511 170.976 33.6167C172.953 37.3424 177.264 39.6216 181.459 39.1577C181.649 39.1403 181.839 39.1983 181.987 39.3193C182.135 39.4403 182.23 39.6147 182.251 39.8048C182.272 39.995 182.218 40.1859 182.1 40.3364C181.982 40.4869 181.809 40.585 181.619 40.6096C181.207 40.6549 180.793 40.6775 180.379 40.6772Z" fill="black"/>
<path d="M90.0764 28.1925C90.3687 27.8381 90.5158 27.386 90.488 26.9275C90.4602 26.4689 90.2596 26.0379 89.9266 25.7214L86.5881 22.551C85.5088 21.5246 84.3491 20.4562 82.8917 20.1457C81.4343 19.8352 79.6335 20.637 79.4345 22.1145C79.2518 23.5006 80.459 24.6366 81.553 25.5078L86.7982 29.6845C87.1283 29.947 87.5483 30.0694 87.9677 30.0254C88.3872 29.9813 88.7725 29.7743 89.0409 29.449L90.0764 28.1925Z" fill="black"/>
<path d="M87.7961 30.7601C87.269 30.7618 86.7569 30.5841 86.3442 30.2561L81.099 26.0793C79.7896 25.0383 78.4819 23.7398 78.7121 22.0175C78.7712 21.6224 78.912 21.2439 79.1255 20.9062C79.339 20.5685 79.6205 20.279 79.9521 20.0561C80.4 19.7507 80.9044 19.5379 81.4357 19.4303C81.967 19.3228 82.5145 19.3225 83.0459 19.4297C84.748 19.7949 86.0484 21.0295 87.093 22.0212L90.4297 25.1917C90.8959 25.6368 91.1768 26.2417 91.2161 26.8851C91.2554 27.5286 91.0502 28.1631 90.6415 28.6617L89.606 29.9182C89.3854 30.1836 89.1086 30.3968 88.7956 30.5424C88.4827 30.688 88.1413 30.7623 87.7961 30.7601ZM82.2496 20.8085C81.7292 20.8053 81.2199 20.9593 80.7886 21.2505C80.6219 21.3577 80.4795 21.4986 80.3704 21.664C80.2613 21.8294 80.1878 22.0157 80.1548 22.2111C80.0215 23.2101 81.015 24.1489 82.0031 24.936L87.2483 29.1128C87.429 29.2554 87.6584 29.3216 87.8874 29.2974C88.1163 29.2732 88.3268 29.1604 88.4737 28.9831L89.5074 27.7266C89.6794 27.5139 89.7655 27.2445 89.749 26.9714C89.7324 26.6983 89.6143 26.4414 89.4179 26.2509L86.0812 23.0805C84.9215 21.9847 83.939 21.1153 82.7354 20.8597C82.5758 20.8254 82.4129 20.8083 82.2496 20.8085Z" fill="black"/>
<path d="M25.7476 26.3223C25.5885 26.3224 25.4338 26.2705 25.3069 26.1746C25.18 26.0786 25.0878 25.9439 25.0445 25.7908C22.0329 15.1051 28.1438 3.58103 32.4064 0.125648C32.5582 0.0228623 32.743 -0.0191039 32.9243 0.00807844C33.1056 0.0352608 33.27 0.129604 33.385 0.272386C33.5 0.415168 33.557 0.595952 33.5449 0.778861C33.5328 0.961771 33.4523 1.13343 33.3195 1.25979C29.4313 4.40653 23.6401 15.4667 26.4416 25.3945C26.4939 25.5808 26.4702 25.7801 26.3758 25.9489C26.2813 26.1177 26.1237 26.2421 25.9376 26.2949C25.8757 26.3122 25.8119 26.3214 25.7476 26.3223Z" fill="#E21F1D"/>
<path d="M18.0358 18.1369C17.8604 18.1365 17.691 18.073 17.5585 17.958C17.4261 17.843 17.3394 17.6841 17.3144 17.5105C16.7138 13.3114 17.5361 9.03201 19.6503 5.35454C19.6983 5.27144 19.7621 5.1986 19.8382 5.14018C19.9144 5.08175 20.0012 5.0389 20.0939 5.01405C20.1866 4.98921 20.2833 4.98286 20.3784 4.99538C20.4735 5.00789 20.5653 5.03902 20.6484 5.08698C20.7315 5.13495 20.8043 5.19882 20.8627 5.27494C20.9212 5.35105 20.964 5.43793 20.9889 5.53061C21.0137 5.62329 21.0201 5.71996 21.0075 5.81509C20.995 5.91023 20.9639 6.00196 20.9159 6.08507C18.964 9.47882 18.2053 13.4287 18.7609 17.3041C18.7746 17.3991 18.7694 17.4958 18.7457 17.5888C18.722 17.6818 18.6802 17.7692 18.6227 17.846C18.5652 17.9229 18.4932 17.9876 18.4106 18.0366C18.3281 18.0856 18.2367 18.1178 18.1418 18.1314C18.1066 18.136 18.0712 18.1378 18.0358 18.1369Z" fill="#E21F1D"/>
<path d="M33.7765 118.443C33.7911 117.004 34.0541 115.209 35.7654 115.07C36.0291 115.052 36.2939 115.075 36.5507 115.138C39.6938 115.883 42.3748 117.795 45.2312 119.267C50.1448 121.793 55.6153 123.042 61.1384 122.898C71.3876 122.617 81.0288 117.565 91.2726 117.09C98.4189 116.758 105.456 118.67 112.545 119.63C121.94 120.898 131.484 120.5 140.74 118.456C142.8 118.001 145.764 116.522 145.883 126.059C146.204 151.713 143.043 178.613 141.639 190.711C141.639 190.711 107.633 185.78 91.0406 196.153C68.0857 185.115 47.3917 187.022 46.5589 183.917C45.4631 179.884 38.0465 147.938 36.7918 142.224C35.002 134.073 33.7966 126.455 33.7692 120.626C33.7656 119.895 33.768 119.168 33.7765 118.443Z" fill="#FFD8D8"/>
<path d="M42.2053 124.688C42.0818 124.687 41.9606 124.655 41.8528 124.594L38.2203 122.576C38.1363 122.53 38.0624 122.467 38.0026 122.392C37.9429 122.317 37.8985 122.231 37.8721 122.139C37.8456 122.046 37.8376 121.95 37.8484 121.854C37.8593 121.759 37.8888 121.667 37.9354 121.583C37.9819 121.499 38.0445 121.425 38.1196 121.365C38.1947 121.305 38.2809 121.261 38.3731 121.235C38.4654 121.208 38.5619 121.2 38.6573 121.211C38.7527 121.222 38.8449 121.251 38.9289 121.298L42.5614 123.307C42.7033 123.385 42.8151 123.509 42.879 123.658C42.943 123.807 42.9556 123.973 42.9148 124.13C42.874 124.287 42.7821 124.426 42.6537 124.525C42.5252 124.624 42.3675 124.677 42.2053 124.677V124.688Z" fill="white"/>
<path d="M50.7258 127.831C50.6854 127.831 50.645 127.827 50.6053 127.82C50.3551 127.778 50.072 127.754 49.7706 127.728C48.5781 127.624 47.0933 127.495 46.0651 126.149C45.9542 125.994 45.9078 125.803 45.9356 125.615C45.9635 125.427 46.0634 125.258 46.2143 125.142C46.3651 125.027 46.555 124.975 46.7436 124.997C46.9323 125.019 47.1048 125.114 47.2248 125.261C47.8621 126.096 48.852 126.174 49.8985 126.273C50.2126 126.3 50.5377 126.328 50.8445 126.379C51.0383 126.395 51.2178 126.487 51.3437 126.635C51.4696 126.783 51.5314 126.975 51.5157 127.169C51.4999 127.362 51.4079 127.542 51.2597 127.668C51.1116 127.794 50.9196 127.856 50.7258 127.84V127.831Z" fill="white"/>
<path d="M58.3607 128.585C55.7856 128.585 55.0952 128.026 54.834 127.816C54.7534 127.758 54.6854 127.685 54.6341 127.6C54.5829 127.515 54.5495 127.42 54.5361 127.322C54.5226 127.223 54.5293 127.123 54.5558 127.028C54.5823 126.932 54.628 126.843 54.6901 126.765C54.7522 126.688 54.8295 126.624 54.9171 126.577C55.0048 126.531 55.101 126.503 55.2 126.494C55.2989 126.486 55.3984 126.498 55.4925 126.53C55.5866 126.562 55.6733 126.612 55.7472 126.678C56.16 127.013 57.6119 127.276 60.4536 127.018C60.6474 127 60.8402 127.06 60.9897 127.185C61.1392 127.309 61.2331 127.488 61.2508 127.682C61.2685 127.876 61.2085 128.068 61.084 128.218C60.9595 128.367 60.7807 128.461 60.5869 128.479C59.7231 128.552 58.9853 128.585 58.3607 128.585Z" fill="white"/>
<path d="M65.4408 127.894H65.2436C65.1476 127.892 65.0531 127.871 64.9653 127.833C64.8775 127.794 64.7981 127.738 64.7318 127.669C64.6655 127.6 64.6135 127.518 64.5788 127.428C64.5441 127.339 64.5273 127.243 64.5295 127.148C64.5316 127.052 64.5527 126.957 64.5914 126.869C64.6301 126.781 64.6857 126.702 64.7551 126.636C64.8244 126.569 64.9062 126.517 64.9956 126.483C65.0851 126.448 65.1805 126.431 65.2764 126.433C65.3111 126.433 68.7848 126.497 70.549 125.433C70.6305 125.373 70.7236 125.33 70.8223 125.308C70.921 125.286 71.0231 125.285 71.1224 125.305C71.2216 125.324 71.3157 125.364 71.3987 125.422C71.4817 125.48 71.5518 125.554 71.6046 125.64C71.6573 125.726 71.6916 125.823 71.7053 125.923C71.7189 126.023 71.7116 126.125 71.6838 126.222C71.656 126.32 71.6083 126.41 71.5437 126.488C71.4792 126.566 71.3992 126.629 71.3088 126.674C69.4258 127.816 66.2663 127.894 65.4408 127.894Z" fill="white"/>
<path d="M76.2813 125.961C76.1072 125.962 75.9385 125.9 75.8056 125.788C75.6727 125.675 75.5843 125.519 75.5564 125.348C75.5284 125.176 75.5627 125 75.6531 124.851C75.7434 124.702 75.884 124.59 76.0493 124.536C76.729 124.325 77.4198 124.151 78.1185 124.016C78.7631 123.892 79.4003 123.732 80.027 123.537C80.2109 123.476 80.4115 123.49 80.5848 123.577C80.7581 123.663 80.8899 123.815 80.9512 123.999C81.0124 124.183 80.9982 124.384 80.9115 124.557C80.8249 124.73 80.6729 124.862 80.4891 124.923C79.8129 125.136 79.1251 125.31 78.429 125.444C77.784 125.569 77.1463 125.728 76.5187 125.922C76.4422 125.948 76.362 125.961 76.2813 125.961Z" fill="white"/>
<path d="M85.6152 123.946C85.4474 123.946 85.2849 123.887 85.155 123.781C85.025 123.675 84.9356 123.527 84.9017 123.363C84.8679 123.199 84.8916 123.028 84.969 122.879C85.0464 122.73 85.1727 122.612 85.3267 122.545C87.3996 121.658 89.1145 121.234 91.7462 121.691C91.8423 121.705 91.9346 121.739 92.0175 121.79C92.1005 121.84 92.1724 121.907 92.2292 121.986C92.2861 122.065 92.3265 122.154 92.3483 122.249C92.3701 122.344 92.3727 122.442 92.3561 122.538C92.3394 122.634 92.3038 122.725 92.2513 122.807C92.1988 122.889 92.1305 122.96 92.0504 123.015C91.9703 123.07 91.88 123.108 91.7848 123.128C91.6896 123.148 91.5914 123.148 91.496 123.13C89.1967 122.73 87.8087 123.071 85.902 123.888C85.8114 123.927 85.7138 123.947 85.6152 123.946Z" fill="white"/>
<path d="M101.599 123.946C101.551 123.946 101.504 123.942 101.457 123.933C100.942 123.829 100.335 123.738 99.7473 123.648C99.1592 123.559 98.52 123.466 97.9721 123.353C97.8755 123.336 97.783 123.301 97.7003 123.249C97.6176 123.196 97.5463 123.128 97.4907 123.047C97.435 122.966 97.3962 122.875 97.3764 122.779C97.3566 122.683 97.3563 122.585 97.3755 122.488C97.3948 122.392 97.4331 122.301 97.4883 122.22C97.5435 122.139 97.6145 122.07 97.6969 122.017C97.7793 121.964 97.8715 121.929 97.968 121.912C98.0646 121.895 98.1635 121.898 98.2588 121.921C98.7739 122.023 99.3802 122.114 99.9664 122.204C100.553 122.293 101.194 122.386 101.742 122.5C101.919 122.536 102.076 122.636 102.184 122.782C102.291 122.927 102.341 123.107 102.323 123.287C102.306 123.467 102.222 123.634 102.088 123.756C101.954 123.878 101.78 123.945 101.599 123.946Z" fill="white"/>
<path d="M114.758 125.96H114.687C113.496 125.844 112.366 125.663 111.274 125.489C110.182 125.316 109.095 125.142 107.95 125.029C107.854 125.02 107.761 124.991 107.676 124.946C107.591 124.901 107.515 124.839 107.454 124.765C107.393 124.69 107.347 124.604 107.319 124.512C107.291 124.42 107.281 124.323 107.291 124.227C107.3 124.131 107.328 124.038 107.373 123.953C107.419 123.868 107.48 123.793 107.555 123.732C107.629 123.67 107.715 123.624 107.807 123.596C107.9 123.568 107.996 123.559 108.092 123.568C109.281 123.685 110.412 123.866 111.504 124.039C112.596 124.213 113.683 124.386 114.828 124.499C115.022 124.509 115.204 124.594 115.334 124.738C115.465 124.881 115.533 125.071 115.524 125.265C115.514 125.458 115.429 125.64 115.285 125.771C115.142 125.901 114.952 125.97 114.758 125.96Z" fill="white"/>
<path d="M120.59 126.026C120.344 126.027 120.099 125.998 119.86 125.939C119.675 125.889 119.516 125.769 119.419 125.604C119.322 125.438 119.294 125.242 119.34 125.056C119.387 124.87 119.504 124.71 119.668 124.61C119.831 124.51 120.027 124.478 120.214 124.521C120.516 124.577 120.825 124.577 121.127 124.521C121.605 124.44 122.093 124.452 122.566 124.556C122.661 124.578 122.75 124.619 122.829 124.675C122.907 124.732 122.974 124.804 123.024 124.887C123.075 124.969 123.109 125.061 123.123 125.157C123.138 125.253 123.133 125.351 123.11 125.445C123.086 125.539 123.044 125.627 122.986 125.705C122.928 125.783 122.855 125.848 122.772 125.897C122.688 125.947 122.596 125.979 122.499 125.992C122.403 126.005 122.306 125.998 122.212 125.973C121.91 125.917 121.6 125.917 121.299 125.973C121.064 126.005 120.827 126.023 120.59 126.026Z" fill="white"/>
<path d="M127.375 126.026C127.181 126.026 126.995 125.949 126.858 125.812C126.721 125.675 126.645 125.489 126.645 125.296C126.645 125.102 126.721 124.916 126.858 124.779C126.995 124.642 127.181 124.565 127.375 124.565C127.687 124.565 128.812 124.383 129.716 124.229C131.053 124.008 131.893 123.864 132.295 123.864C132.489 123.864 132.675 123.941 132.812 124.078C132.949 124.215 133.026 124.401 133.026 124.594C133.026 124.788 132.949 124.974 132.812 125.111C132.675 125.248 132.489 125.325 132.295 125.325C131.985 125.325 130.86 125.508 129.956 125.661C128.611 125.891 127.771 126.026 127.375 126.026Z" fill="white"/>
<path d="M137.642 124.688C137.448 124.703 137.256 124.641 137.108 124.516C136.96 124.39 136.868 124.21 136.852 124.016C136.836 123.823 136.898 123.631 137.024 123.482C137.15 123.334 137.329 123.242 137.523 123.227C137.952 123.155 139.885 122.584 140.993 122.24C141.086 122.208 141.185 122.194 141.283 122.2C141.381 122.206 141.477 122.232 141.565 122.277C141.653 122.321 141.731 122.383 141.795 122.458C141.858 122.533 141.906 122.62 141.935 122.714C141.964 122.808 141.973 122.907 141.963 123.005C141.953 123.103 141.923 123.198 141.875 123.284C141.827 123.37 141.762 123.446 141.685 123.506C141.607 123.567 141.518 123.611 141.422 123.636C141.117 123.731 138.42 124.549 137.753 124.667C137.717 124.677 137.68 124.684 137.642 124.688Z" fill="white"/>
<path d="M192.491 67.7815C192.5 65.2916 192.278 62.8062 191.826 60.3575C191.585 59.0791 191.24 57.7459 190.115 56.9624C189.838 56.7589 189.515 56.6278 189.175 56.5813C188.834 56.5347 188.488 56.574 188.166 56.6958C187.149 57.1122 186.939 58.2189 186.837 59.2051C186.488 62.5144 186.309 65.0493 186.976 68.3075C187.469 70.7091 192.491 69.4617 192.491 67.7815Z" fill="black"/>
<path d="M189.119 70.3749C187.585 70.3749 186.511 69.6663 186.263 68.4536C185.571 65.0694 185.763 62.4541 186.113 59.1394C186.197 58.3303 186.374 56.6501 187.892 56.0347C188.326 55.8658 188.795 55.8087 189.257 55.8687C189.719 55.9287 190.158 56.1039 190.535 56.378C191.897 57.3259 192.288 58.8673 192.544 60.2388C193.002 62.7316 193.229 65.2615 193.221 67.7961C193.221 69.2279 191.395 70.1868 189.664 70.3621C189.483 70.3759 189.301 70.3802 189.119 70.3749ZM188.876 57.2875C188.729 57.2868 188.583 57.3153 188.447 57.3715C187.856 57.6144 187.671 58.2847 187.565 59.2818C187.231 62.4761 187.043 64.9818 187.695 68.1596C187.866 68.9942 189.134 68.9321 189.521 68.8901C190.84 68.7568 191.766 68.0902 191.766 67.7797C191.775 65.3357 191.556 62.8962 191.114 60.4927C190.898 59.3549 190.613 58.1934 189.702 57.5596C189.461 57.3873 189.173 57.2924 188.876 57.2875Z" fill="black"/>
<path d="M214.715 87.6756C214.563 87.6756 214.415 87.6285 214.292 87.5407C214.168 87.453 214.075 87.329 214.025 87.186C213.975 87.0429 213.971 86.8879 214.013 86.7423C214.055 86.5967 214.141 86.4678 214.26 86.3735C217.642 83.6833 220.039 81.2287 221.801 78.6482C223.992 75.4503 225.165 72.0241 225.214 68.7422C225.217 68.5485 225.297 68.3638 225.436 68.2289C225.575 68.0939 225.762 68.0198 225.956 68.0227C226.15 68.0256 226.334 68.1053 226.469 68.2444C226.604 68.3834 226.678 68.5704 226.675 68.7641C226.622 72.3346 225.353 76.0365 223.008 79.4718C221.16 82.1766 218.671 84.7334 215.17 87.5167C215.04 87.6196 214.88 87.6756 214.715 87.6756Z" fill="#E21F1D"/>
<path d="M221.679 89.783C221.511 89.7833 221.349 89.7259 221.218 89.6204C221.088 89.5149 220.998 89.3677 220.963 89.2037C220.928 89.0396 220.951 88.8686 221.028 88.7194C221.104 88.5701 221.23 88.4517 221.383 88.3841C224.208 87.1274 226.428 84.8136 227.567 81.939C227.602 81.8497 227.654 81.7681 227.721 81.699C227.787 81.6298 227.867 81.5745 227.955 81.5361C228.043 81.4977 228.137 81.4769 228.233 81.4751C228.329 81.4733 228.425 81.4903 228.514 81.5254C228.603 81.5604 228.685 81.6126 228.754 81.6792C228.823 81.7457 228.878 81.8252 228.917 81.9132C228.955 82.0011 228.976 82.0957 228.978 82.1917C228.98 82.2876 228.963 82.383 228.928 82.4723C227.649 85.7054 225.154 88.3088 221.978 89.7246C221.884 89.765 221.782 89.7849 221.679 89.783Z" fill="#E21F1D"/>
<path d="M203.559 236.164C202.293 236.164 201.201 236.137 200.472 236.078C199.044 235.965 197.442 235.74 196.493 234.509C195.802 233.614 195.713 232.451 195.649 231.602C194.062 210.733 193.275 187.423 192.588 166.857C192.332 159.232 192.091 152.031 191.826 145.526C191.783 144.43 191.704 143.334 191.627 142.253C191.337 138.173 191.079 134.65 192.743 133.293C195.965 130.656 214.679 130.565 216.204 130.716C216.982 130.793 218.284 130.923 219.051 131.878C219.709 132.696 219.69 133.781 219.679 134.499C219.511 144.7 219.446 155.318 219.382 165.597C219.243 187.708 219.101 210.572 217.961 232.272C217.928 232.902 217.888 233.684 217.486 234.378C217.245 234.794 216.798 235.57 209.702 235.985C207.692 236.102 205.434 236.164 203.559 236.164ZM214.018 132.121C208.78 132.121 195.881 132.612 193.669 134.424C192.595 135.3 192.844 138.783 193.085 142.149C193.161 143.236 193.242 144.357 193.287 145.466C193.55 151.978 193.793 159.181 194.049 166.808C194.739 187.359 195.521 210.652 197.106 231.49C197.174 232.383 197.258 233.109 197.654 233.618C198.237 234.374 199.426 234.531 200.593 234.621C204.459 234.929 215.037 234.438 216.255 233.592C216.452 233.205 216.482 232.679 216.505 232.195C217.643 210.53 217.784 187.683 217.924 165.588C217.988 155.309 218.054 144.684 218.222 134.475C218.233 133.803 218.222 133.169 217.915 132.793C217.563 132.353 216.807 132.245 216.063 132.17C215.751 132.139 215.026 132.121 214.018 132.121Z" fill="#E21F1D"/>
<path d="M192.728 171.04C192.301 171.042 191.885 170.899 191.55 170.634C190.056 169.478 190.001 166.194 190.33 164.269C190.609 162.626 191.143 161.669 191.915 161.413C198.322 159.284 212.598 159.282 220.265 159.287H220.318C220.992 159.287 221.521 159.49 221.89 159.886C222.641 160.692 222.542 162.056 222.407 163.943L222.387 164.249C222.234 166.474 221.976 170.198 218.952 170.198C211.464 170.148 205.682 170.38 198.977 170.654C197.263 170.724 195.484 170.797 193.595 170.868C193.319 170.978 193.025 171.036 192.728 171.04ZM192.392 162.794C191.76 163.221 191.174 167.294 192.134 169.082C192.441 169.652 192.72 169.661 193.131 169.476C193.217 169.438 193.31 169.416 193.404 169.412C195.341 169.339 197.162 169.266 198.914 169.195C205.638 168.921 211.444 168.687 218.954 168.737C220.488 168.737 220.756 166.658 220.93 164.149L220.95 163.838C221.043 162.56 221.132 161.221 220.822 160.882C220.677 160.775 220.497 160.727 220.318 160.748H219.664C212.423 160.748 198.42 160.801 192.394 162.794H192.392Z" fill="#E21F1D"/>
<path d="M231.6 180.452C230.796 180.46 229.995 180.346 229.225 180.114C225.613 178.982 223.323 174.668 224.324 170.888C225.39 166.87 227.927 164.651 231.47 164.651C232.938 164.633 234.388 164.975 235.694 165.647C236.999 166.319 238.12 167.301 238.958 168.506C240.355 170.515 240.832 172.957 240.174 174.734C239.753 175.914 239.073 176.986 238.185 177.87C237.298 178.755 236.224 179.43 235.042 179.848C233.938 180.247 232.774 180.452 231.6 180.452ZM225.73 171.261C224.917 174.325 226.753 177.81 229.656 178.721C231.992 179.452 237.071 178.887 238.799 174.226C239.287 172.906 238.867 170.939 237.752 169.341C237.048 168.33 236.106 167.507 235.009 166.944C233.913 166.381 232.695 166.095 231.463 166.112C227.852 166.112 226.349 168.912 225.73 171.261Z" fill="black"/>
<path d="M226.775 189.63C226.581 189.639 226.391 189.572 226.247 189.442C226.103 189.312 226.017 189.13 226.007 188.936C225.997 188.743 226.064 188.553 226.194 188.409C226.324 188.265 226.506 188.178 226.7 188.169C230.745 187.742 234.81 187.528 238.878 187.527H238.889C239.082 187.527 239.268 187.604 239.405 187.741C239.542 187.878 239.619 188.064 239.619 188.258C239.619 188.452 239.542 188.638 239.405 188.775C239.268 188.912 239.082 188.989 238.889 188.989H238.878C234.861 188.99 230.848 189.201 226.853 189.622L226.775 189.63Z" fill="black"/>
<path d="M235.515 193.456H229.346C229.152 193.456 228.966 193.379 228.829 193.242C228.692 193.105 228.615 192.919 228.615 192.725C228.615 192.531 228.692 192.346 228.829 192.209C228.966 192.072 229.152 191.995 229.346 191.995H235.515C235.709 191.995 235.895 192.072 236.032 192.209C236.169 192.346 236.246 192.531 236.246 192.725C236.246 192.919 236.169 193.105 236.032 193.242C235.895 193.379 235.709 193.456 235.515 193.456Z" fill="black"/>
<path d="M195.926 146.227C195.742 146.228 195.564 146.159 195.428 146.034C195.293 145.909 195.21 145.737 195.195 145.553C195.005 142.931 194.984 140.298 195.133 137.673C195.292 135.377 197.679 134.568 199.674 134.568C199.867 134.568 200.053 134.645 200.19 134.782C200.327 134.919 200.404 135.105 200.404 135.299C200.404 135.492 200.327 135.678 200.19 135.815C200.053 135.952 199.867 136.029 199.674 136.029C199.37 136.029 196.71 136.078 196.591 137.777C196.449 140.332 196.469 142.894 196.653 145.447C196.668 145.64 196.606 145.831 196.48 145.979C196.355 146.126 196.176 146.217 195.983 146.233L195.926 146.227Z" fill="#E21F1D"/>
<path d="M195.901 153.425C195.737 153.425 195.577 153.371 195.448 153.27C195.319 153.169 195.228 153.027 195.189 152.868C195.114 152.566 195.132 152.082 195.168 151.319C195.196 150.941 195.202 150.562 195.187 150.183C195.141 149.996 195.172 149.798 195.271 149.633C195.371 149.469 195.531 149.35 195.718 149.303C195.812 149.279 195.909 149.275 196.004 149.289C196.1 149.303 196.191 149.336 196.274 149.386C196.356 149.436 196.428 149.502 196.485 149.58C196.542 149.658 196.583 149.746 196.606 149.84C196.681 150.141 196.662 150.623 196.628 151.388C196.6 151.766 196.593 152.144 196.608 152.522C196.653 152.71 196.623 152.908 196.524 153.073C196.424 153.238 196.263 153.358 196.076 153.405C196.019 153.418 195.96 153.425 195.901 153.425Z" fill="#E21F1D"/>
<path d="M198.822 223.064C198.639 223.065 198.463 222.997 198.327 222.874C198.192 222.751 198.108 222.581 198.091 222.399C196.919 209.487 196.482 197.231 196.022 184.257C195.924 181.477 195.821 178.677 195.715 175.855C195.708 175.662 195.778 175.473 195.909 175.331C196.041 175.188 196.224 175.104 196.418 175.097C196.611 175.089 196.8 175.159 196.942 175.291C197.085 175.422 197.169 175.605 197.176 175.799C197.284 178.619 197.385 181.419 197.481 184.2C197.942 197.156 198.378 209.392 199.545 222.264C199.562 222.457 199.503 222.648 199.379 222.797C199.255 222.946 199.077 223.039 198.884 223.057L198.822 223.064Z" fill="#E21F1D"/>
<path d="M172.004 225.436C168.232 230.639 160.666 231.432 154.066 231.66C108.156 233.242 55.8391 230.161 9.9493 232.234C16.955 222.478 14.1115 204.804 8.85352 201.389C50.5245 200.31 94.8729 200.222 136.513 201.824C144.572 202.132 153.514 199.685 161.046 202.689C163.564 203.694 168.501 205 170.787 206.446C172.76 207.694 174.347 211.881 175.331 213.892C177.09 217.442 174.478 222.021 172.004 225.436Z" fill="white"/>
<path d="M149.049 202.852C112.424 200.261 56.1679 201.165 26.5798 202.346C18.2262 202.679 13.7591 204.008 11.0561 203.838C6.56889 203.557 6.46479 199.543 12.5373 199.441C52.7162 198.772 60.7794 198.977 113.332 198.527C121.406 198.46 152.683 199 160.582 200.589C182.805 205.058 177.567 221.851 174.334 226.773C169.538 234.078 162.808 233.454 136.56 233.936C91.7537 234.761 53.2111 232.723 13.2842 233.739C6.89214 233.901 7.30306 231.449 8.01167 230.351C9.36863 228.247 13.1911 229.73 21.6652 229.893C68.9229 230.806 116.907 230.831 158.166 230.342C169.427 230.208 171.83 225.214 173.238 220.052C174.699 214.703 176.272 204.779 149.049 202.852Z" fill="#E21F1D"/>
<path d="M50.7841 238.845C50.6557 238.845 50.5295 238.812 50.4183 238.747C50.307 238.683 50.2146 238.591 50.1504 238.48L47.2575 233.472C47.1686 233.306 47.0614 233.15 46.9379 233.008C46.7379 233.123 46.5618 233.276 46.4193 233.457L41.8133 238.467C41.7194 238.569 41.5984 238.643 41.4643 238.679C41.3303 238.714 41.1888 238.711 41.0564 238.67C40.924 238.628 40.8062 238.55 40.7167 238.444C40.6273 238.338 40.5699 238.208 40.5513 238.071C40.0966 234.758 40.8946 231.465 41.5978 228.559L43.8332 219.327C43.9282 218.935 44.0597 218.396 44.414 217.998C44.7505 217.651 45.1963 217.432 45.6759 217.377C46.8028 217.165 53.3629 216.714 54.7929 217.925C54.9203 218.025 55.0232 218.154 55.094 218.3C55.1649 218.446 55.2018 218.606 55.202 218.768C55.1874 219.811 54.7454 222.998 54.298 224.552C53.7702 226.397 53.2825 228.446 52.8114 230.818C52.3073 233.346 51.8818 235.947 51.5037 238.241C51.4792 238.389 51.4095 238.526 51.3043 238.633C51.1991 238.74 51.0634 238.812 50.9156 238.84C50.8721 238.846 50.828 238.848 50.7841 238.845ZM49.6884 218.573C48.2273 218.573 46.7498 218.657 45.9499 218.809C45.7913 218.817 45.6386 218.871 45.5097 218.964C45.3965 219.09 45.3125 219.435 45.2577 219.665L43.0223 228.897C42.4744 231.18 41.8553 233.711 41.8845 236.228L45.3545 232.464C45.6632 232.128 46.4813 231.237 47.4694 231.629C48.0173 231.847 48.3277 232.382 48.5323 232.736L50.4061 235.978C50.7001 234.217 51.0234 232.353 51.3887 230.521C51.869 228.108 52.3657 226.021 52.9045 224.129C53.288 222.797 53.6807 220.082 53.7428 218.949C53.1565 218.697 51.427 218.578 49.6847 218.578L49.6884 218.573Z" fill="black"/>
<path d="M151.134 213.556H151.117C121.878 212.606 92.2241 212.543 62.9775 213.374C62.8815 213.376 62.786 213.36 62.6964 213.326C62.6067 213.291 62.5247 213.24 62.455 213.174C62.3853 213.108 62.3293 213.029 62.2901 212.941C62.251 212.853 62.2295 212.759 62.2268 212.663C62.2242 212.567 62.2405 212.472 62.2748 212.382C62.309 212.292 62.3606 212.21 62.4266 212.141C62.4926 212.071 62.5716 212.015 62.6592 211.976C62.7469 211.937 62.8413 211.915 62.9373 211.912C92.2113 211.087 121.896 211.151 151.165 212.095C151.358 212.098 151.543 212.178 151.678 212.317C151.813 212.457 151.887 212.644 151.883 212.837C151.88 213.031 151.8 213.216 151.661 213.351C151.522 213.485 151.335 213.559 151.141 213.556H151.134Z" fill="black"/>
<path d="M81.3217 219.126C76.7109 219.126 72.1116 219.092 67.5239 219.022C67.3301 219.021 67.1449 218.942 67.0089 218.804C66.873 218.666 66.7974 218.48 66.7988 218.286C66.8003 218.092 66.8787 217.907 67.0167 217.771C67.1547 217.635 67.3411 217.56 67.5349 217.561H67.5458C79.4589 217.744 91.5399 217.687 103.449 217.397C103.643 217.392 103.831 217.465 103.971 217.598C104.111 217.732 104.193 217.916 104.197 218.11C104.202 218.304 104.129 218.491 103.995 218.632C103.862 218.772 103.678 218.853 103.484 218.858C96.1441 219.037 88.7201 219.126 81.3217 219.126Z" fill="black"/>
<path d="M111.431 219.148C111.237 219.151 111.051 219.076 110.912 218.941C110.773 218.805 110.694 218.621 110.691 218.427C110.689 218.233 110.764 218.046 110.899 217.908C111.034 217.769 111.219 217.69 111.413 217.687L115.736 217.581C115.832 217.579 115.927 217.595 116.017 217.63C116.106 217.664 116.188 217.716 116.258 217.782C116.327 217.848 116.383 217.928 116.422 218.015C116.461 218.103 116.482 218.198 116.485 218.294C116.489 218.487 116.416 218.674 116.283 218.814C116.149 218.954 115.966 219.036 115.772 219.041L111.449 219.148H111.431Z" fill="black"/>
<path d="M35.6526 218.849H35.5704C32.7461 218.534 29.8963 218.52 27.0689 218.807C26.8752 218.826 26.6817 218.768 26.531 218.644C26.3803 218.521 26.2847 218.343 26.2654 218.149C26.246 217.955 26.3044 217.762 26.4277 217.611C26.551 217.461 26.7291 217.365 26.9228 217.346C29.8522 217.048 32.8049 217.063 35.7312 217.389C35.9249 217.4 36.1066 217.487 36.2362 217.631C36.3658 217.776 36.4328 217.966 36.4224 218.159C36.412 218.353 36.325 218.535 36.1807 218.664C36.0363 218.794 35.8464 218.861 35.6526 218.851V218.849Z" fill="black"/>
<path d="M20.4172 145.518C29.3954 146.534 65.7354 146.477 88.6447 185.831C90.418 188.879 90.7742 191.947 93.0388 185.763C98.6784 170.354 122.514 149.043 168.873 149.661C169.056 149.663 169.236 149.706 169.401 149.785C169.566 149.865 169.711 149.981 169.827 150.123C169.942 150.266 170.024 150.432 170.068 150.61C170.112 150.788 170.116 150.973 170.08 151.153C169.381 154.657 167.978 163.334 170.96 164.485C174.713 165.926 171.293 176.427 172.642 180.105C173.992 183.783 179.937 191.076 174.273 196.75C111.096 188.996 89.8373 196.146 89.8373 196.146C89.8373 196.146 81.0436 187.483 6.80205 197.789C6.13727 197.704 6.87145 195.233 6.87145 195.233C6.87145 195.233 1.71211 191.56 4.46071 183.893C5.71722 180.388 10.0036 178.578 9.78807 175.474C9.57257 172.369 8.16996 165.336 15.2524 160.355C21.0217 156.29 15.0753 144.916 20.4172 145.518Z" fill="#E21F1D"/>
<path d="M88.5888 194.221C89.2007 194.513 89.8703 194.665 90.5484 194.665C91.2266 194.665 91.8961 194.513 92.5081 194.221C99.8736 190.667 125.773 191.397 132.287 191.812C147.223 192.762 159.959 194.745 174.893 195.695C177.154 195.839 179.441 196.091 179.415 197.45C179.377 199.446 176.61 198.18 174.25 197.83C163.448 196.226 144.427 194.221 135.249 193.6C124.017 192.838 109.316 192.119 96.4456 194.86C95.4101 195.079 92.351 196.557 91.2972 196.653C89.3449 196.836 87.4619 195.401 83.2121 194.235C80.953 193.616 73.3117 191.291 50.4827 192.805C8.88477 195.561 2.10184 199.692 1.0371 198.33C0.512944 197.658 0.500159 196.65 2.17306 196.219C15.6239 192.758 69.0655 184.97 88.5888 194.221Z" fill="black"/>
<path d="M1.82834 199.327C1.14895 199.327 0.761768 199.163 0.462252 198.779C0.251638 198.533 0.106558 198.238 0.0404703 197.921C-0.0256179 197.604 -0.0105743 197.275 0.0842053 196.966C0.248574 196.484 0.712458 195.841 1.9927 195.505C16.2124 191.852 69.3837 184.306 88.9015 193.552C89.4154 193.795 89.9768 193.921 90.5452 193.921C91.1136 193.921 91.675 193.795 92.1889 193.552C99.7645 189.9 126.195 190.681 132.331 191.072C139.819 191.547 146.856 192.294 153.664 193.015C160.473 193.737 167.486 194.476 174.937 194.955C177.027 195.088 180.184 195.289 180.142 197.453C180.13 198.08 179.916 198.558 179.507 198.878C178.656 199.541 177.33 199.234 175.794 198.878C175.246 198.75 174.673 198.619 174.15 198.538C163.077 196.895 144.122 194.918 135.206 194.316C122.301 193.441 108.693 192.988 96.6031 195.561C96.2141 195.643 95.3685 195.983 94.5503 196.31C93.0527 196.911 92.0209 197.307 91.3689 197.368C90.0704 197.486 88.8869 197.022 87.2505 196.379C85.8711 195.813 84.4608 195.325 83.0263 194.918L82.8345 194.865C80.3142 194.168 72.6437 192.047 50.5361 193.512C23.7587 195.287 11.6174 197.596 5.79144 198.706C3.83728 199.097 2.63739 199.327 1.82834 199.327ZM1.58909 197.846C1.95435 197.967 3.53046 197.663 5.50288 197.298C11.3672 196.182 23.567 193.863 50.4302 192.082C72.7861 190.599 80.6356 192.773 83.2162 193.485L83.3988 193.536C84.887 193.953 86.3504 194.455 87.782 195.037C89.2851 195.629 90.2767 196.018 91.2319 195.93C91.7214 195.886 92.987 195.382 94.0042 194.971C94.9576 194.59 95.7831 194.259 96.2963 194.15C102.199 192.893 108.443 192.347 114.78 192.217C106.051 192.351 96.7401 192.997 92.8281 194.886C92.1184 195.227 91.341 195.404 90.5534 195.404C89.7659 195.404 88.9885 195.227 88.2787 194.886C77.8578 189.955 57.9893 190.15 43.1578 191.187C24.6737 192.48 8.32271 195.388 2.35797 196.931C1.77903 197.081 1.51969 197.296 1.46855 197.441C1.45891 197.513 1.46467 197.586 1.48545 197.656C1.50622 197.726 1.54154 197.791 1.58909 197.846ZM119.167 192.184C124.566 192.223 129.992 192.511 135.299 192.871C144.248 193.476 163.253 195.459 174.358 197.106C174.948 197.194 175.549 197.333 176.128 197.472C176.997 197.673 178.32 197.978 178.612 197.742C178.67 197.653 178.695 197.546 178.685 197.441C178.7 196.675 175.801 196.491 174.85 196.431C167.362 195.954 160.325 195.207 153.517 194.486C146.708 193.764 139.695 193.025 132.244 192.546C129.986 192.398 124.962 192.197 119.167 192.184Z" fill="black"/>
<path d="M96.1255 188.285C95.9833 188.285 95.8443 188.243 95.7255 188.165C95.564 188.059 95.4512 187.893 95.4118 187.703C95.3724 187.514 95.4097 187.317 95.5155 187.155C110.022 165.056 132.685 153.808 164.8 152.753C164.896 152.749 164.992 152.765 165.082 152.799C165.172 152.833 165.254 152.884 165.324 152.95C165.394 153.015 165.45 153.094 165.49 153.182C165.53 153.269 165.552 153.363 165.555 153.459C165.558 153.555 165.542 153.651 165.508 153.741C165.474 153.831 165.423 153.913 165.357 153.983C165.292 154.053 165.213 154.109 165.126 154.149C165.038 154.189 164.944 154.211 164.848 154.214C133.242 155.255 110.972 166.293 96.7373 187.958C96.6704 188.059 96.5795 188.142 96.4727 188.199C96.3659 188.256 96.2466 188.286 96.1255 188.285Z" fill="white"/>
<path d="M114.091 179.34C113.934 179.34 113.781 179.29 113.655 179.196C113.529 179.103 113.436 178.971 113.391 178.821C113.345 178.671 113.349 178.51 113.402 178.362C113.455 178.215 113.555 178.088 113.685 178.001C121.997 172.466 131.161 169.127 141.699 167.799C151.03 166.623 159.944 167.184 168.181 167.966C168.374 167.984 168.553 168.078 168.677 168.228C168.801 168.378 168.861 168.571 168.843 168.765C168.824 168.958 168.73 169.137 168.58 169.261C168.43 169.385 168.237 169.445 168.044 169.427C151.592 167.865 132.529 167.208 114.491 179.223C114.372 179.301 114.233 179.341 114.091 179.34Z" fill="white"/>
<path d="M102.837 189.443C102.665 189.443 102.499 189.382 102.368 189.272C102.236 189.161 102.148 189.008 102.118 188.839C102.089 188.67 102.12 188.496 102.206 188.347C102.292 188.198 102.427 188.085 102.589 188.026C133.647 176.789 151.242 179.908 172.708 185.54C172.889 185.595 173.042 185.717 173.135 185.881C173.228 186.046 173.253 186.24 173.206 186.423C173.159 186.606 173.042 186.764 172.882 186.863C172.721 186.962 172.528 186.994 172.343 186.954C151.134 181.389 133.751 178.306 103.091 189.399C103.01 189.43 102.924 189.445 102.837 189.443Z" fill="white"/>
<path d="M81.8407 182.777C81.7372 182.777 81.6349 182.756 81.5404 182.714C81.446 182.671 81.3616 182.61 81.2928 182.532C63.8862 163.069 46.3353 154.069 22.6078 152.437C22.5119 152.43 22.4182 152.405 22.3321 152.362C22.246 152.319 22.1691 152.26 22.106 152.187C22.0428 152.115 21.9945 152.03 21.9639 151.939C21.9333 151.848 21.9209 151.752 21.9275 151.656C21.9341 151.56 21.9595 151.466 22.0023 151.38C22.0451 151.294 22.1045 151.217 22.177 151.154C22.2495 151.091 22.3337 151.042 22.4249 151.012C22.516 150.981 22.6123 150.969 22.7083 150.975C35.7554 151.878 47.053 155.054 57.2439 160.693C65.9864 165.529 73.9729 172.159 82.3812 181.559C82.4757 181.664 82.5375 181.795 82.5592 181.934C82.5809 182.074 82.5616 182.217 82.5035 182.346C82.4455 182.475 82.3513 182.585 82.2324 182.661C82.1134 182.738 81.9748 182.778 81.8334 182.777H81.8407Z" fill="white"/>
<path d="M74.0985 180.452C73.9766 180.452 73.8567 180.421 73.7497 180.363C73.2274 180.078 60.7591 173.33 41.497 170.187C41.3992 170.175 41.3048 170.144 41.2195 170.094C41.1341 170.045 41.0596 169.979 41.0004 169.901C40.9412 169.822 40.8985 169.732 40.8748 169.637C40.8512 169.541 40.8472 169.442 40.8629 169.344C40.8787 169.247 40.914 169.154 40.9666 169.071C41.0192 168.988 41.0882 168.916 41.1692 168.86C41.2503 168.804 41.3418 168.765 41.4383 168.746C41.5348 168.726 41.6343 168.726 41.7308 168.746C61.2394 171.929 73.9214 178.79 74.451 179.081C74.5936 179.159 74.7061 179.282 74.7708 179.431C74.8355 179.58 74.8486 179.746 74.8082 179.904C74.7678 180.061 74.676 180.2 74.5475 180.3C74.419 180.399 74.261 180.453 74.0985 180.452Z" fill="white"/>
<path d="M7.30297 189.443C7.12454 189.442 6.9528 189.375 6.82013 189.256C6.68746 189.137 6.60306 188.973 6.58283 188.795C6.56261 188.618 6.60797 188.44 6.71036 188.294C6.81274 188.147 6.96507 188.044 7.1386 188.002C26.6272 183.48 49.9766 179.72 75.388 186.101C75.5759 186.148 75.7374 186.268 75.8369 186.435C75.9364 186.601 75.9657 186.8 75.9185 186.988C75.8713 187.176 75.7513 187.337 75.5851 187.437C75.4188 187.536 75.2198 187.566 75.0318 187.518C49.9218 181.212 26.7879 184.943 7.46917 189.425C7.41465 189.437 7.35889 189.443 7.30297 189.443Z" fill="white"/>
<path d="M12.6703 227.533C12.5567 227.533 12.4446 227.507 12.343 227.456C12.2414 227.405 12.153 227.331 12.0849 227.24C12.0168 227.149 11.9709 227.044 11.9508 226.932C11.9307 226.82 11.9369 226.705 11.969 226.596C13.875 220.081 13.8217 213.149 11.8156 206.664C11.765 206.481 11.7873 206.286 11.878 206.119C11.9686 205.953 12.1204 205.828 12.3012 205.771C12.4821 205.715 12.6779 205.731 12.8473 205.816C13.0167 205.901 13.1464 206.048 13.2091 206.227C15.3003 212.989 15.3568 220.217 13.3716 227.011C13.3267 227.162 13.2341 227.294 13.1077 227.388C12.9813 227.482 12.8279 227.533 12.6703 227.533Z" fill="black"/>
<path d="M14.5276 168.19C14.4317 168.196 14.3356 168.183 14.2447 168.152C14.1539 168.12 14.0701 168.071 13.9982 168.007C13.9263 167.944 13.8677 167.866 13.8256 167.78C13.7836 167.693 13.759 167.6 13.7533 167.504C13.7475 167.408 13.7607 167.312 13.7921 167.221C13.8235 167.13 13.8725 167.046 13.9362 166.974C14 166.902 14.0773 166.844 14.1637 166.802C14.2502 166.76 14.344 166.735 14.44 166.729C14.9568 166.665 15.3166 166.605 15.6344 166.547C16.4398 166.413 16.8836 166.34 18.2789 166.464C18.4726 166.482 18.6515 166.576 18.7762 166.725C18.9008 166.874 18.9611 167.067 18.9437 167.261C18.9262 167.454 18.8325 167.633 18.6832 167.758C18.5339 167.883 18.3411 167.943 18.1474 167.926C16.9384 167.816 16.6041 167.873 15.8736 167.993C15.5577 168.046 15.165 168.112 14.6189 168.176C14.5888 168.182 14.5583 168.187 14.5276 168.19Z" fill="white"/>
<path d="M35.072 169.502C35.0273 169.502 34.9826 169.498 34.9387 169.489C32.444 169.031 27.1257 168.47 24.5926 168.393C24.4967 168.39 24.4023 168.369 24.3147 168.329C24.2271 168.29 24.1481 168.234 24.0822 168.164C24.0163 168.095 23.9649 168.012 23.9307 167.923C23.8965 167.833 23.8804 167.738 23.8831 167.642C23.8859 167.546 23.9075 167.451 23.9468 167.364C23.986 167.276 24.0421 167.197 24.1119 167.131C24.1817 167.065 24.2638 167.014 24.3535 166.98C24.4432 166.945 24.5387 166.929 24.6346 166.932C27.2225 167.005 32.6558 167.579 35.2035 168.048C35.3819 168.082 35.5413 168.181 35.6506 168.326C35.76 168.471 35.8115 168.651 35.7951 168.832C35.7786 169.013 35.6955 169.181 35.5618 169.304C35.4282 169.426 35.2536 169.495 35.072 169.496V169.502Z" fill="white"/>
</svg>
