<svg width="80" height="80" viewBox="0 0 80 80" fill="none" xmlns="http://www.w3.org/2000/svg">
<path d="M40 23C35.448 19.0983 22.2692 13.0081 5.2898 19.0224C4.51079 19.2984 4 20.0431 4 20.8695V65.1759C4 66.5558 5.36565 67.524 6.69773 67.1638C15.4362 64.8013 28.7336 64.3388 40 72C51.2664 64.3388 64.5638 64.8013 73.3023 67.1638C74.6344 67.524 76 66.5558 76 65.1759V20.8695C76 20.0431 75.4892 19.2984 74.7102 19.0224C57.7308 13.0081 44.552 19.0983 40 23Z" fill="#516AFE"/>
<path d="M40 12C35.6495 6.19935 24.0088 1.70722 13.1197 6.47523C12.4258 6.77909 12 7.47174 12 8.22929V51.6032C12 53.1282 13.6627 54.1217 15.1088 53.6377C23.8665 50.7065 35.1035 53.7681 40 60C44.8965 53.7681 56.1335 50.7065 64.8912 53.6377C66.3373 54.1217 68 53.1282 68 51.6032V8.22929C68 7.47174 67.5742 6.77909 66.8803 6.47523C55.9912 1.70722 44.3505 6.19935 40 12Z" fill="#45ADFF"/>
<path fill-rule="evenodd" clip-rule="evenodd" d="M68 17.2032C54.3029 14.6255 43.9324 19.6294 40 23C36.0676 19.6294 25.6971 14.6255 12 17.2032V51.6033C12 53.1282 13.6627 54.1217 15.1088 53.6377C23.8665 50.7066 35.1035 53.7681 40 60C44.8965 53.7681 56.1335 50.7066 64.8912 53.6377C66.3373 54.1217 68 53.1282 68 51.6033V17.2032Z" fill="#1547FE"/>
<path fill-rule="evenodd" clip-rule="evenodd" d="M40 16C40.5523 16 41 16.4477 41 17V39.5C41 40.0523 40.5523 40.5 40 40.5C39.4477 40.5 39 40.0523 39 39.5V17C39 16.4477 39.4477 16 40 16Z" fill="white"/>
</svg>
