<svg width="80" height="80" viewBox="0 0 80 80" fill="none" xmlns="http://www.w3.org/2000/svg">
<path d="M55 36.2997L55 61C55 62.1046 55.8954 63 57 63H71C72.1046 63 73 62.1046 73 61V36.2997C73 35.5094 72.5345 34.7931 71.8123 34.4721L64.8123 31.361C64.2951 31.1312 63.7049 31.1312 63.1877 31.361L56.1877 34.4721C55.4655 34.7931 55 35.5094 55 36.2997Z" fill="#E12C37"/>
<path fill-rule="evenodd" clip-rule="evenodd" d="M22 17.2998V70C22 71.1046 22.8954 72 24 72H56C57.1046 72 58 71.1046 58 70V17.2998C58 16.5094 57.5345 15.7931 56.8123 15.4721L40.8123 8.36104C40.2951 8.1312 39.7049 8.1312 39.1877 8.36104L23.1877 15.4721C22.4655 15.7931 22 16.5094 22 17.2998ZM40 22C42.2091 22 44 20.2092 44 18C44 15.7909 42.2091 14 40 14C37.7909 14 36 15.7909 36 18C36 20.2092 37.7909 22 40 22Z" fill="#FF5352"/>
<path fill-rule="evenodd" clip-rule="evenodd" d="M58 33.6667L56.1877 34.4721C55.4655 34.7931 55 35.5094 55 36.2997V61C55 62.1046 55.8954 63 57 63H58V33.6667Z" fill="#C12221"/>
<circle cx="17.5" cy="33.5" r="11.5" fill="#E12C37"/>
<path fill-rule="evenodd" clip-rule="evenodd" d="M22 44.0862C26.1149 42.3348 29 38.2543 29 33.5C29 28.7456 26.1149 24.6651 22 22.9138V44.0862Z" fill="#C12221"/>
<circle cx="34" cy="48" r="3" stroke="white" stroke-width="2"/>
<circle cx="45" cy="59" r="3" stroke="white" stroke-width="2"/>
<path d="M47 46L32 61" stroke="white" stroke-width="2" stroke-linecap="round"/>
<path fill-rule="evenodd" clip-rule="evenodd" d="M61 41C61 40.4477 61.4477 40 62 40L67 40C67.5523 40 68 40.4477 68 41C68 41.5523 67.5523 42 67 42L62 42C61.4477 42 61 41.5523 61 41Z" fill="white"/>
<path fill-rule="evenodd" clip-rule="evenodd" d="M61 45C61 44.4477 61.4477 44 62 44L67 44C67.5523 44 68 44.4477 68 45C68 45.5523 67.5523 46 67 46L62 46C61.4477 46 61 45.5523 61 45Z" fill="white"/>
</svg>
