<svg width="80" height="80" viewBox="0 0 80 80" fill="none" xmlns="http://www.w3.org/2000/svg">
<path d="M54.0934 51C54.0934 64.8071 58.5934 76 29.0934 76C1.09346 76 4.09342 64.8071 4.09342 51C4.09342 37.1929 15.2863 26 29.0934 26C42.9005 26 54.0934 37.1929 54.0934 51Z" fill="#20C472"/>
<path fill-rule="evenodd" clip-rule="evenodd" d="M34 45C34 44.4477 34.4477 44 35 44L45 44C45.5523 44 46 44.4477 46 45C46 45.5523 45.5523 46 45 46L35 46C34.4477 46 34 45.5523 34 45Z" fill="white"/>
<circle cx="29.0934" cy="18" r="14" fill="#43DEBB"/>
<path d="M75.8632 62C75.8632 69.732 78.3662 76 61.9576 76C46.3833 76 48.052 69.732 48.052 62C48.052 54.268 54.2777 48 61.9576 48C69.6375 48 75.8632 54.268 75.8632 62Z" fill="#20C472"/>
<path fill-rule="evenodd" clip-rule="evenodd" d="M54.2224 55.8702C54.159 54.2949 54.0934 52.6665 54.0934 51C54.0934 50.8183 54.0915 50.6371 54.0876 50.4563C50.4422 52.9802 48.052 57.2091 48.052 62C48.052 62.6976 48.0384 63.3833 48.0251 64.0535C47.9621 67.235 47.906 70.0684 49.3422 72.1766C54.734 68.5788 54.4985 62.7284 54.2224 55.8702Z" fill="#069569"/>
<circle cx="62" cy="43" r="8" fill="#43DEBB"/>
<path fill-rule="evenodd" clip-rule="evenodd" d="M67.2397 49.0454C65.8361 50.2631 64.0041 51 62 51C59.9829 51 58.1402 50.2535 56.733 49.0217C58.3461 48.3629 60.1097 48 61.9576 48C63.8275 48 65.6111 48.3716 67.2397 49.0454Z" fill="#069569"/>
<path fill-rule="evenodd" clip-rule="evenodd" d="M38.8964 27.9951C36.3709 30.4724 32.9106 32 29.0935 32C25.2764 32 21.816 30.4724 19.2905 27.9951C22.3006 26.7108 25.614 26 29.0935 26C32.5729 26 35.8863 26.7108 38.8964 27.9951Z" fill="#069569"/>
<circle cx="62" cy="64" r="1" transform="rotate(90 62 64)" fill="white"/>
<circle cx="62" cy="60" r="1" transform="rotate(90 62 60)" fill="white"/>
<circle cx="62" cy="56" r="1" transform="rotate(90 62 56)" fill="white"/>
</svg>
