<svg width="80" height="80" viewBox="0 0 80 80" fill="none" xmlns="http://www.w3.org/2000/svg">
<path d="M4 66V36C4 34.8954 4.89543 34 6 34H42C43.1046 34 44 34.8954 44 36V66C44 67.1046 43.1046 68 42 68H24.4142C24.149 68 23.8946 68.1054 23.7071 68.2929L17.7071 74.2929C17.0771 74.9229 16 74.4767 16 73.5858V69C16 68.4477 15.5523 68 15 68H6C4.89543 68 4 67.1046 4 66Z" fill="#728FF2"/>
<path fill-rule="evenodd" clip-rule="evenodd" d="M8 39C8 38.4477 8.44772 38 9 38L22 38C22.5523 38 23 38.4477 23 39C23 39.5523 22.5523 40 22 40L9 40C8.44772 40 8 39.5523 8 39Z" fill="white"/>
<path fill-rule="evenodd" clip-rule="evenodd" d="M8 43C8 42.4477 8.44772 42 9 42L16 42C16.5523 42 17 42.4477 17 43C17 43.5523 16.5523 44 16 44L9 44C8.44772 44 8 43.5523 8 43Z" fill="white"/>
<path d="M31 52V6C31 4.89543 31.8954 4 33 4H74C75.1046 4 76 4.89543 76 6V52C76 53.1046 75.1046 54 74 54H65C64.4477 54 64 54.4477 64 55V59.5858C64 60.4767 62.9229 60.9229 62.2929 60.2929L56.2929 54.2929C56.1054 54.1054 55.851 54 55.5858 54H33C31.8954 54 31 53.1046 31 52Z" fill="#8756CC"/>
<path fill-rule="evenodd" clip-rule="evenodd" d="M31 34V52C31 53.1046 31.8954 54 33 54H44V36C44 34.8954 43.1046 34 42 34H31Z" fill="#5D41AB"/>
<path d="M48 21.5C48 18.5 50.5 16 54 16C58.5 16 59.5 19.5 59.5 21.5C59.5 25.5 53.5 26.5 53.5 31C53.5 32 53.5 33.5 53.5 34" stroke="white" stroke-width="2" stroke-linecap="round"/>
<circle cx="53.5" cy="39" r="1.5" fill="white"/>
</svg>
