<svg width="80" height="80" viewBox="0 0 80 80" fill="none" xmlns="http://www.w3.org/2000/svg">
<circle cx="40" cy="52" r="24" fill="#9372F2"/>
<path fill-rule="evenodd" clip-rule="evenodd" d="M73.2074 27.7066L41.0357 47.3671C40.3992 47.756 39.5992 47.7585 38.9604 47.3734L8.99998 29.3151V42L11.3787 51.5149C11.6943 52.7772 10.7396 54 9.43843 54H6.56153C5.26039 54 4.30567 52.7772 4.62125 51.515L6.99998 42V28.1096L6.34186 27.7129C5.05178 26.9354 5.05178 25.0647 6.34186 24.2871L38.9604 4.62663C39.5992 4.24157 40.3992 4.24402 41.0357 4.63297L73.2074 24.2935C74.4836 25.0733 74.4836 26.9267 73.2074 27.7066Z" fill="#8756CC"/>
<path fill-rule="evenodd" clip-rule="evenodd" d="M58.4914 36.6997L41.0357 47.3671C40.3993 47.756 39.5992 47.7585 38.9604 47.3734L21.4234 36.8032C25.8247 31.4293 32.5119 28 40 28C47.44 28 54.0892 31.3854 58.4914 36.6997Z" fill="#5D41AB"/>
<path fill-rule="evenodd" clip-rule="evenodd" d="M39.168 9.44529C39.4743 8.98576 40.0952 8.86159 40.5547 9.16794L46.5547 13.1679C47.0143 13.4743 47.1384 14.0952 46.8321 14.5547C46.5257 15.0142 45.9049 15.1384 45.4453 14.832L39.4453 10.832C38.9858 10.5257 38.8616 9.90482 39.168 9.44529Z" fill="white"/>
</svg>
