<svg width="80" height="80" viewBox="0 0 80 80" fill="none" xmlns="http://www.w3.org/2000/svg">
<path d="M6 36H11C13.3625 28.4472 18.0625 24.0645 21.4 21.6896L23.2155 9.82072C23.4609 8.21671 25.4137 7.55718 26.5813 8.68395L35.5 17.2903C47.7 14.0719 76 19 76 41C76 52.5862 68.8 60.7126 65.2 63.3276L67.4453 68.7473C67.8638 69.7575 67.3934 70.9166 66.3893 71.3494L57.2875 75.2726C56.3333 75.6839 55.2231 75.296 54.7326 74.38L51.4 68.1552H34L30.6751 74.3655C30.1814 75.2876 29.0607 75.6736 28.104 75.2511L19.3931 71.4048C18.3582 70.9479 17.908 69.7242 18.4 68.7055L20.875 63.5806C10.675 55.7358 11 51 11 51H6C4.89543 51 4 50.1046 4 49V38C4 36.8954 4.89543 36 6 36Z" fill="#FB7C3D"/>
<circle cx="26" cy="37" r="4" fill="white"/>
<circle cx="56" cy="16" r="12" fill="#FFAF28"/>
<path fill-rule="evenodd" clip-rule="evenodd" d="M44.0066 16.4008C51.0939 16.5041 59.5355 18.3731 65.9675 22.6842C63.8132 25.8903 60.153 28 56 28C49.5067 28 44.218 22.8427 44.0066 16.4008Z" fill="#E86321"/>
</svg>
