<svg width="80" height="80" viewBox="0 0 80 80" fill="none" xmlns="http://www.w3.org/2000/svg">
<rect x="8" y="8" width="64" height="48" rx="2" fill="#20C472"/>
<path d="M34 36.5179V29.4821C34 27.9385 35.6744 26.9768 37.0077 27.7545L43.0385 31.2724C44.3615 32.0442 44.3615 33.9558 43.0385 34.7276L37.0077 38.2455C35.6744 39.0233 34 38.0615 34 36.5179Z" fill="white"/>
<circle cx="65" cy="15" r="1" fill="white"/>
<circle cx="61" cy="15" r="1" fill="white"/>
<circle cx="57" cy="15" r="1" fill="white"/>
<path fill-rule="evenodd" clip-rule="evenodd" d="M13 15C13 14.4477 13.4477 14 14 14L37 14C37.5523 14 38 14.4477 38 15C38 15.5523 37.5523 16 37 16L14 16C13.4477 16 13 15.5523 13 15Z" fill="white"/>
<path d="M65.4142 74.5858L70.5858 69.4142C71.3668 68.6332 71.3668 67.3668 70.5858 66.5858L60.4142 56.4142C59.6332 55.6332 59.6332 54.3668 60.4142 53.5858L62.6575 51.3425C63.7218 50.2782 63.2735 48.4642 61.8361 48.0181L39.6292 41.1263C38.0916 40.6491 36.6491 42.0916 37.1263 43.6292L44.0181 65.8361C44.4642 67.2735 46.2782 67.7218 47.3425 66.6575L49.5858 64.4142C50.3668 63.6332 51.6332 63.6332 52.4142 64.4142L62.5858 74.5858C63.3668 75.3668 64.6332 75.3668 65.4142 74.5858Z" fill="#43DEBB"/>
<path fill-rule="evenodd" clip-rule="evenodd" d="M60.0958 56H40.9655L37.1263 43.6293C36.6491 42.0916 38.0916 40.6491 39.6293 41.1263L61.8361 48.0181C63.2735 48.4642 63.7218 50.2783 62.6576 51.3425L60.4142 53.5858C59.7599 54.2402 59.6537 55.2351 60.0958 56Z" fill="#069569"/>
</svg>
