<svg width="80" height="80" viewBox="0 0 80 80" fill="none" xmlns="http://www.w3.org/2000/svg">
<path d="M38.1904 7.84548L9.34193 69.1484C8.7177 70.4749 9.68554 72 11.1516 72H68.8484C70.3145 72 71.2823 70.4749 70.6581 69.1484L41.8096 7.84548C41.0891 6.31427 38.9109 6.31428 38.1904 7.84548Z" fill="#516AFE"/>
<path fill-rule="evenodd" clip-rule="evenodd" d="M40 31C40.5523 31 41 31.4477 41 32V49.5C41 50.0523 40.5523 50.5 40 50.5C39.4477 50.5 39 50.0523 39 49.5V32C39 31.4477 39.4477 31 40 31Z" fill="white"/>
<path fill-rule="evenodd" clip-rule="evenodd" d="M51.8462 72L41.761 53.2703C41.0058 51.8679 38.9942 51.8679 38.2391 53.2703L28.1539 72H51.8462Z" fill="#1547FE"/>
<path fill-rule="evenodd" clip-rule="evenodd" d="M74.5 41H65H56V40.9776C55.8353 40.9924 55.6685 41 55.5 41C52.4624 41 50 38.5376 50 35.5C50 32.4624 52.4624 30 55.5 30C55.7415 30 55.9794 30.0156 56.2128 30.0458C57.1052 26.0148 60.7005 23 65 23C69.2995 23 72.8948 26.0148 73.7872 30.0458C74.0206 30.0156 74.2585 30 74.5 30C77.5376 30 80 32.4624 80 35.5C80 38.369 77.8033 40.725 75 40.9776V41H74.5Z" fill="#45ADFF"/>
<path fill-rule="evenodd" clip-rule="evenodd" d="M52.6185 30.8143C51.0473 31.7826 50 33.519 50 35.5C50 38.5376 52.4624 41 55.5 41C55.6685 41 55.8353 40.9924 56 40.9776V41H57.4118L52.6185 30.8143Z" fill="#1547FE"/>
<path fill-rule="evenodd" clip-rule="evenodd" d="M24.3279 49H18.0049C18.0033 49 18.0017 49 18 49C17.9984 49 17.9968 49 17.9952 49H12V48.9851C11.8902 48.9949 11.779 49 11.6667 49C9.64162 49 8 47.3584 8 45.3333C8 43.3083 9.64162 41.6667 11.6667 41.6667C11.8277 41.6667 11.9863 41.677 12.1419 41.6972C12.7369 39.0099 15.1337 37 18 37C20.8663 37 23.2632 39.0099 23.8582 41.6972C24.0137 41.677 24.1723 41.6667 24.3333 41.6667C26.3583 41.6667 28 43.3083 28 45.3333C28 47.246 26.5355 48.8166 24.6667 48.985V49H24.3386C24.3368 49 24.3351 49 24.3333 49C24.3315 49 24.3297 49 24.3279 49Z" fill="#45ADFF"/>
<path fill-rule="evenodd" clip-rule="evenodd" d="M18.8235 49H24.328H24.3333H24.3386H24.6667V48.985C26.5355 48.8166 28 47.246 28 45.3333C28 43.3083 26.3583 41.6667 24.3333 41.6667C24.1723 41.6667 24.0137 41.677 23.8582 41.6972C23.713 41.0413 23.4605 40.4258 23.12 39.8701L18.8235 49Z" fill="#1547FE"/>
</svg>
