<svg width="80" height="80" viewBox="0 0 80 80" fill="none" xmlns="http://www.w3.org/2000/svg">
<g clip-path="url(#clip0_1540_43472)">
<path d="M33.6099 32C50.0878 22.4865 67.4011 27.3623 75.5736 33.3728C76.0344 33.7117 76.308 34.2437 76.3182 34.8156C76.5039 45.2421 70.8316 63.049 56.3599 71.4042C41.9287 79.736 23.7329 75.7905 14.3756 70.6666C13.8198 70.3622 13.4569 69.7977 13.4146 69.1655C12.7242 58.8426 17.1806 41.4855 33.6099 32Z" fill="#20C472"/>
<path d="M34.8647 49.1734C38.3408 49.8608 44.7073 53.4212 42.3647 62.1638" stroke="white" stroke-width="2" stroke-linecap="round"/>
<path d="M40.8977 45.6903C44.3737 46.3777 50.7402 49.9381 48.3977 58.6807" stroke="white" stroke-width="2" stroke-linecap="round"/>
<path d="M46.9598 42.1903C50.4359 42.8777 56.8024 46.4381 54.4598 55.1807" stroke="white" stroke-width="2" stroke-linecap="round"/>
<circle cx="24.5" cy="24.5" r="20.5" fill="#43DEBB"/>
<path fill-rule="evenodd" clip-rule="evenodd" d="M44.7659 27.6082C43.2681 37.4551 34.7652 45 24.5 45C23.0385 45 21.6127 44.8471 20.2378 44.5563C23.365 39.8168 27.7174 35.4021 33.6099 32C37.3242 29.8556 41.081 28.4422 44.7659 27.6082Z" fill="#069569"/>
</g>
<defs>
<clipPath id="clip0_1540_43472">
<rect width="80" height="80" fill="white"/>
</clipPath>
</defs>
</svg>
