<svg width="80" height="80" viewBox="0 0 80 80" fill="none" xmlns="http://www.w3.org/2000/svg">
<rect x="4" y="12" width="72" height="42" rx="2" fill="#516AFE"/>
<rect x="8" y="48" width="64" height="28" rx="2" fill="#45ADFF"/>
<path fill-rule="evenodd" clip-rule="evenodd" d="M59 27C59 26.4477 59.4477 26 60 26L67 26C67.5523 26 68 26.4477 68 27C68 27.5523 67.5523 28 67 28L60 28C59.4477 28 59 27.5523 59 27Z" fill="white"/>
<path fill-rule="evenodd" clip-rule="evenodd" d="M72 54H8V50C8 48.8954 8.89543 48 10 48H70C71.1046 48 72 48.8954 72 50V54Z" fill="#1547FE"/>
<path d="M26 16.5V10C26 6.68629 28.6863 4 32 4H48C51.3137 4 54 6.68629 54 10V16.5C54 17.0523 53.5523 17.5 53 17.5H49.5C48.9477 17.5 48.5 17.0523 48.5 16.5V11C48.5 9.34315 47.1569 8 45.5 8H34.5C32.8431 8 31.5 9.34315 31.5 11V16.5C31.5 17.0523 31.0523 17.5 30.5 17.5H27C26.4477 17.5 26 17.0523 26 16.5Z" fill="#45ADFF"/>
<path fill-rule="evenodd" clip-rule="evenodd" d="M26 12V16.5C26 17.0523 26.4477 17.5 27 17.5H30.5C31.0523 17.5 31.5 17.0523 31.5 16.5V12H26ZM54 12H48.5V16.5C48.5 17.0523 48.9477 17.5 49.5 17.5H53C53.5523 17.5 54 17.0523 54 16.5V12Z" fill="#1547FE"/>
<rect x="29" y="43" width="22" height="16" rx="2" fill="#1547FE"/>
</svg>
