<svg width="80" height="80" viewBox="0 0 80 80" fill="none" xmlns="http://www.w3.org/2000/svg">
<path d="M4 5C4 3.89543 4.89543 3 6 3H52C53.1046 3 54 3.89543 54 5V41C54 42.1046 53.1046 43 52 43H6C4.89543 43 4 42.1046 4 41V5Z" fill="#FF5352"/>
<path fill-rule="evenodd" clip-rule="evenodd" d="M28.5 11C29.0523 11 29.5 11.4477 29.5 12V16.5H37.5C38.0523 16.5 38.5 16.9477 38.5 17.5C38.5 18.0523 38.0523 18.5 37.5 18.5H37.0387C35.5833 20.6943 33.3127 23.9051 30.8673 26.951C30.5182 27.3859 30.1638 27.8196 29.8061 28.2483C31.3394 29.9328 33.1087 31.6275 35.1196 33.2151C35.5531 33.5573 35.6271 34.1862 35.2849 34.6196C34.9427 35.0531 34.3138 35.1271 33.8804 34.7849C31.8532 33.1845 30.0597 31.4794 28.4946 29.7776C26.6043 31.9176 24.6907 33.7913 23.0369 34.8437C22.5709 35.1402 21.9528 35.0028 21.6563 34.5369C21.3598 34.0709 21.4972 33.4528 21.9631 33.1563C23.4465 32.2124 25.2753 30.417 27.1606 28.2655C23.8846 24.3934 21.7975 20.7062 20.8323 18.5H20C19.4477 18.5 19 18.0523 19 17.5C19 16.9477 19.4477 16.5 20 16.5H27.5V12C27.5 11.4477 27.9477 11 28.5 11ZM23.0357 18.5C24.0236 20.5301 25.8236 23.5418 28.4749 26.7207C28.753 26.3848 29.0309 26.0437 29.3077 25.699C31.3253 23.1858 33.2254 20.5533 34.6276 18.5H23.0357Z" fill="white"/>
<path d="M75 53C75 64.598 65.598 74 54 74C42.402 74 33 64.598 33 53C33 41.402 42.402 32 54 32C65.598 32 75 41.402 75 53Z" fill="#E12C37"/>
<path fill-rule="evenodd" clip-rule="evenodd" d="M54 32V41C54 42.1046 53.1046 43 52 43H35.5292C39.0838 36.4484 46.0224 32 54 32Z" fill="#C12221"/>
<path d="M8 48V42H17L11.6 49.2C10.4468 50.7376 8 49.922 8 48Z" fill="#FF5352"/>
<path d="M72 28V43L63 34L68.4 26.8C69.5532 25.2624 72 26.078 72 28Z" fill="#E12C37"/>
<path fill-rule="evenodd" clip-rule="evenodd" d="M53.655 43C53.1749 43 52.7625 43.3412 52.6727 43.8129L48.9823 63.1871C48.879 63.7296 48.3554 64.0857 47.8129 63.9823C47.2704 63.879 46.9143 63.3554 47.0177 62.8129L50.708 43.4387C50.9775 42.0237 52.2146 41 53.655 41H54.345C55.7854 41 57.0225 42.0237 57.292 43.4387L60.9823 62.8129C61.0857 63.3554 60.7296 63.879 60.1871 63.9823C59.6446 64.0857 59.121 63.7296 59.0177 63.1871L55.3273 43.8129C55.2375 43.3412 54.8251 43 54.345 43H53.655Z" fill="white"/>
<path fill-rule="evenodd" clip-rule="evenodd" d="M48.5 54.5C48.5 53.9477 48.9477 53.5 49.5 53.5H58.5C59.0523 53.5 59.5 53.9477 59.5 54.5C59.5 55.0523 59.0523 55.5 58.5 55.5H49.5C48.9477 55.5 48.5 55.0523 48.5 54.5Z" fill="white"/>
</svg>
