<svg width="80" height="80" viewBox="0 0 80 80" fill="none" xmlns="http://www.w3.org/2000/svg">
<path d="M16.8755 47.867C16.9456 46.8164 17.8182 46 18.8711 46H61.1289C62.1818 46 63.0544 46.8164 63.1245 47.867L64.8578 73.867C64.9348 75.0213 64.0192 76 62.8622 76H17.1378C15.9808 76 15.0652 75.0213 15.1422 73.867L16.8755 47.867Z" fill="#45ADFF"/>
<path d="M31.4295 11.0182L33.9757 5.19836C34.2942 4.47039 35.0134 4 35.808 4H44.192C44.9866 4 45.7058 4.47039 46.0243 5.19836L48.5705 11.0182C48.8388 11.6315 48.7825 12.3383 48.4205 12.9014L44.8966 18.3831C44.6405 18.7814 44.5341 19.2576 44.5962 19.727L48.8897 52.1668C48.9603 52.6997 48.8133 53.2385 48.482 53.6619L41.575 62.4875C40.7743 63.5107 39.2257 63.5107 38.425 62.4875L31.518 53.6619C31.1867 53.2385 31.0397 52.6997 31.1103 52.1668L35.4038 19.727C35.4659 19.2576 35.3595 18.7814 35.1034 18.3831L31.5795 12.9014C31.2175 12.3383 31.1612 11.6315 31.4295 11.0182Z" fill="#45ADFF"/>
<path d="M16.8472 13.8339C16.9336 12.7973 17.8001 12 18.8403 12H61.1597C62.1999 12 63.0664 12.7973 63.1528 13.8339L67.8195 69.8339C67.9167 70.9999 66.9965 72 65.8264 72H14.1736C13.0035 72 12.0833 70.9999 12.1805 69.8339L16.8472 13.8339Z" fill="#516AFE"/>
<path d="M52.7887 26.1472L56.423 31.4335C56.8792 32.097 56.4041 33 55.599 33H48C47.176 33 46.7056 32.0592 47.2 31.4L51.1647 26.1138C51.575 25.5666 52.4013 25.5836 52.7887 26.1472Z" fill="#45ADFF"/>
<path fill-rule="evenodd" clip-rule="evenodd" d="M44 32C44 31.4477 44.4477 31 45 31L58 31C58.5523 31 59 31.4477 59 32C59 32.5523 58.5523 33 58 33L45 33C44.4477 33 44 32.5523 44 32Z" fill="white"/>
<path fill-rule="evenodd" clip-rule="evenodd" d="M48.73 12C48.7014 12.3163 48.5975 12.6261 48.4205 12.9014L44.8966 18.3831C44.6405 18.7814 44.5341 19.2576 44.5962 19.727L48.8897 52.1668C48.9602 52.6997 48.8133 53.2385 48.482 53.6619L41.575 62.4875C40.7742 63.5107 39.2257 63.5107 38.425 62.4875L31.518 53.6619C31.1867 53.2385 31.0397 52.6997 31.1103 52.1668L35.4038 19.727C35.4659 19.2576 35.3595 18.7814 35.1034 18.3831L31.5795 12.9014C31.4024 12.6261 31.2985 12.3163 31.2699 12H48.73Z" fill="#1547FE"/>
</svg>
