<svg width="80" height="80" viewBox="0 0 80 80" fill="none" xmlns="http://www.w3.org/2000/svg">
<path d="M9.24554 25.3573L38.8592 4.79222C39.5451 4.31587 40.4549 4.31587 41.1408 4.79222L70.7545 25.3573C72.3637 26.4748 71.5729 29 69.6137 29H68C66.8954 29 66 29.8954 66 31V61C66 62.1046 66.8954 63 68 63H70C71.1046 63 72 63.8954 72 65V68C72 69.1046 71.1046 70 70 70H66H14H10C8.89543 70 8 69.1046 8 68V65C8 63.8954 8.89543 63 10 63H12C13.1046 63 14 62.1046 14 61V31C14 29.8954 13.1046 29 12 29H10.3863C8.42708 29 7.63627 26.4748 9.24554 25.3573Z" fill="#8756CC"/>
<path d="M28 51C28 44.3726 33.3726 39 40 39V39C46.6274 39 52 44.3726 52 51V74.8065C52 75.4656 51.4656 76 50.8065 76H29.1935C28.5344 76 28 75.4656 28 74.8065V51Z" fill="#728FF2"/>
<path fill-rule="evenodd" clip-rule="evenodd" d="M52 70H28V51C28 44.3726 33.3726 39 40 39C46.6274 39 52 44.3726 52 51V70Z" fill="#5D41AB"/>
<circle cx="40" cy="20" r="5" fill="white"/>
<path d="M33 60L37 60" stroke="white" stroke-width="2" stroke-linecap="round"/>
</svg>
