<svg width="80" height="80" viewBox="0 0 80 80" fill="none" xmlns="http://www.w3.org/2000/svg">
<path fill-rule="evenodd" clip-rule="evenodd" d="M57 37H68V34.0216C68 33.116 69.1076 32.6768 69.7282 33.3362L75.355 39.3146C75.7174 39.6997 75.7174 40.3003 75.355 40.6854L69.7282 46.6638C69.1076 47.3232 68 46.884 68 45.9784V44H57C56.4477 44 56 43.5523 56 43V38C56 37.4477 56.4477 37 57 37ZM22 57.5H11L11 60.4784C11 61.384 9.89247 61.8232 9.27181 61.1638L3.64506 55.1854C3.28266 54.8003 3.28266 54.1997 3.64506 53.8146L9.27181 47.8362C9.89247 47.1768 11 47.616 11 48.5216V50.5H22C22.5523 50.5 23 50.9477 23 51.5V56.5C23 57.0523 22.5523 57.5 22 57.5Z" fill="#FFAF28"/>
<path d="M65.0934 51C65.0934 64.8071 69.5934 76 40.0934 76C12.0935 76 15.0934 64.8071 15.0934 51C15.0934 37.1929 26.2863 26 40.0934 26C53.9005 26 65.0934 37.1929 65.0934 51Z" fill="#FB7C3D"/>
<circle cx="40.0934" cy="18" r="14" fill="#FFAF28"/>
<path fill-rule="evenodd" clip-rule="evenodd" d="M49.8964 27.9951C47.3709 30.4724 43.9106 32 40.0935 32C36.2763 32 32.816 30.4724 30.2905 27.9951C33.3006 26.7108 36.614 26 40.0935 26C43.5729 26 46.8863 26.7108 49.8964 27.9951Z" fill="#E86321"/>
<ellipse cx="40" cy="60" rx="2" ry="2" transform="rotate(90 40 60)" fill="white"/>
<ellipse cx="40" cy="52" rx="2" ry="2" transform="rotate(90 40 52)" fill="white"/>
<ellipse cx="40" cy="44" rx="2" ry="2" transform="rotate(90 40 44)" fill="white"/>
<path fill-rule="evenodd" clip-rule="evenodd" d="M60.8088 37C62.2466 39.1233 63.3665 41.4794 64.1002 44H57C56.4477 44 56 43.5523 56 43V38C56 37.4477 56.4477 37 57 37H60.8088ZM15.0983 50.5H22C22.5523 50.5 23 50.9477 23 51.5V56.5C23 57.0523 22.5523 57.5 22 57.5H15.0016C15.0071 56.5757 15.0259 55.6303 15.0451 54.667C15.069 53.4701 15.0934 52.2457 15.0934 51C15.0934 50.8329 15.0951 50.6663 15.0983 50.5Z" fill="#E86321"/>
</svg>
