<svg width="80" height="80" viewBox="0 0 80 80" fill="none" xmlns="http://www.w3.org/2000/svg">
<rect x="8" y="36" width="64" height="36" rx="2" fill="#FF5352"/>
<path fill-rule="evenodd" clip-rule="evenodd" d="M52 53C52 52.4477 52.4477 52 53 52L66 52C66.5523 52 67 52.4477 67 53C67 53.5523 66.5523 54 66 54L53 54C52.4477 54 52 53.5523 52 53Z" fill="white"/>
<path fill-rule="evenodd" clip-rule="evenodd" d="M52 57C52 56.4477 52.4477 56 53 56L60 56C60.5523 56 61 56.4477 61 57C61 57.5523 60.5523 58 60 58L53 58C52.4477 58 52 57.5523 52 57Z" fill="white"/>
<path d="M29 26.9672V15.9836L27.5154 14.2045C25.5251 11.8195 25.6844 8.30975 27.8824 6.11474L28.2431 5.75446C29.3681 4.63102 30.893 4 32.4829 4H34.363C36.0434 4 37.6468 4.70469 38.7832 5.94264L38.9485 6.12268C40.9817 8.33773 41.0615 11.7157 39.135 14.0242L37.5 15.9836V26.9672C37.5 28.0718 38.3954 28.9672 39.5 28.9672H42C46.9706 28.9672 51 32.9967 51 37.9672V42.123C51 42.6752 50.5523 43.123 50 43.123H47C46.4477 43.123 46 43.5707 46 44.123V45C46 45.5523 45.5523 46 45 46H21C20.4477 46 20 45.5523 20 45V44.123C20 43.5707 19.5523 43.123 19 43.123H16C15.4477 43.123 15 42.6752 15 42.123V37.9672C15 32.9967 19.0294 28.9672 24 28.9672H27C28.1046 28.9672 29 28.0718 29 26.9672Z" fill="#E12C37"/>
<path fill-rule="evenodd" clip-rule="evenodd" d="M50.7844 36C50.9255 36.6332 51 37.2915 51 37.9672V42.123C51 42.6752 50.5523 43.123 50 43.123H47C46.4477 43.123 46 43.5707 46 44.123V45C46 45.5523 45.5523 46 45 46H21C20.4477 46 20 45.5523 20 45V44.123C20 43.5707 19.5523 43.123 19 43.123H16C15.4477 43.123 15 42.6752 15 42.123V37.9672C15 37.2915 15.0745 36.6332 15.2156 36H50.7844Z" fill="#C12221"/>
<rect x="21" y="52" width="25" height="14" rx="2" fill="#E12C37"/>
</svg>
