<?xml version="1.0" encoding="UTF-8"?><!DOCTYPE svg PUBLIC "-//W3C//DTD SVG 1.1//EN" "http://www.w3.org/Graphics/SVG/1.1/DTD/svg11.dtd"><svg xmlns="http://www.w3.org/2000/svg" xmlns:xlink="http://www.w3.org/1999/xlink"><symbol id="icon-arrow-right" viewBox="-463 270.2 31.5 22.1">
<style type="text/css">
	.st0{fill:#1E201D;}
</style>
<path class="st0" d="M-441.8,270.5c-0.4-0.4-1.1-0.4-1.6,0c-0.4,0.4-0.4,1.1,0,1.6l8,8h-26.6c-0.6,0-1.1,0.5-1.1,1.1
	c0,0.6,0.5,1.1,1.1,1.1h26.6l-8,8c-0.4,0.4-0.4,1.2,0,1.6c0.4,0.4,1.2,0.4,1.6,0l10-10c0.4-0.4,0.4-1.1,0-1.6L-441.8,270.5z"/>
</symbol><symbol id="icon-arrow" viewBox="-381.6 222.5 62.1 116">
<g>
	<path d="M-374.6,337.3c-0.8,0.8-1.8,1.2-2.9,1.2s-2.1-0.4-2.9-1.2c-1.6-1.6-1.6-4.2,0-5.8l51-51l-51-51c-1.6-1.6-1.6-4.2,0-5.8
		c1.6-1.6,4.2-1.6,5.8,0l53.9,53.9c1.6,1.6,1.6,4.2,0,5.8L-374.6,337.3z"/>
</g>
</symbol><symbol id="icon-cart" viewBox="-408.4 222.5 115.8 116">
<g>
	<path d="M-404.3,315.5h4.8c-3.3,5.9-2.5,13.5,2.5,18.5c2.9,2.9,6.8,4.5,11,4.5c4.2,0,8-1.6,11-4.5c2.9-2.9,4.5-6.8,4.5-11
		c0-2.7-0.7-5.2-2-7.5h19.3c-3.3,5.9-2.5,13.5,2.5,18.5c2.9,2.9,6.8,4.5,11,4.5c4.2,0,8-1.6,11-4.5c2.9-2.9,4.5-6.8,4.5-11
		c0-2.7-0.7-5.2-2-7.5h5.2c2.3,0,4.1-1.8,4.1-4.1s-1.8-4.1-4.1-4.1h-79.2v-8h90c1.8,0,3.4-1.2,3.9-3l13.6-49.7
		c0.3-1.2,0.1-2.5-0.7-3.5c-0.8-1-2-1.6-3.2-1.6h-103.6v-14.9c0-2.3-1.8-4.1-4.1-4.1c-2.3,0-4.1,1.8-4.1,4.1v18.9v49.7v16.1
		C-408.4,313.7-406.6,315.5-404.3,315.5L-404.3,315.5z M-345,317.8c1.4-1.4,3.2-2.2,5.2-2.2s3.8,0.8,5.2,2.2
		c1.4,1.4,2.2,3.2,2.2,5.2s-0.8,3.8-2.2,5.2c-2.8,2.8-7.6,2.8-10.4,0C-347.9,325.3-347.9,320.7-345,317.8z M-391.2,317.8
		c1.4-1.4,3.2-2.2,5.2-2.2s3.8,0.8,5.2,2.2c1.4,1.4,2.2,3.2,2.2,5.2s-0.8,3.8-2.2,5.2c-2.8,2.8-7.6,2.8-10.4,0
		C-394.1,325.3-394.1,320.7-391.2,317.8z M-400.2,249.6h98.2l-11.4,41.6h-86.8C-400.2,291.2-400.2,249.6-400.2,249.6z"/>
</g>
</symbol><symbol id="icon-check" viewBox="-466 271 26 20">
<path d="M-465.7,282c-0.2-0.2-0.3-0.5-0.3-0.7c0-0.2,0.1-0.5,0.3-0.7l1.4-1.4c0.4-0.4,1-0.4,1.4,0l0.1,0.1l5.5,5.9
	c0.2,0.2,0.5,0.2,0.7,0l13.4-13.9h0.1l0,0c0.4-0.4,1-0.4,1.4,0l1.4,1.4c0.4,0.4,0.4,1,0,1.4l0,0l-16,16.6c-0.2,0.2-0.4,0.3-0.7,0.3
	s-0.5-0.1-0.7-0.3l-7.8-8.4C-465.5,282.3-465.7,282-465.7,282z"/>
</symbol><symbol id="icon-click" viewBox="-279.2 122.3 233 316.7">
<style type="text/css">
	.st0{fill:#222220;}
</style>
<g>
	<path class="st0" d="M-63.4,305.4c-11.1-12.8-26.5-21.2-43.2-23.6l-38.5-6v-67.2c0-16-13-28.9-28.9-28.9h-0.4
		c-16,0-28.9,13-28.9,28.9v107.9l-39.8-17.1c-8-3.4-17.1-2.6-24.4,2.2c-7.3,4.8-11.6,12.8-11.6,21.5v0.4c0,7.4,3.2,14.4,8.7,19.3
		l67.1,59.7v29c0,4.1,3.4,7.5,7.5,7.5s7.5-3.4,7.5-7.5v-32.4c0-2.1-0.9-4.2-2.5-5.6l-69.6-61.9c-2.3-2-3.6-5-3.6-8.1v-0.4
		c0-3.7,1.8-7,4.9-9c3.1-2,6.8-2.4,10.2-0.9l50.2,21.5c0.5,0.2,0.9,0.4,1.5,0.5c0.8,0.2,1.5,0.2,2.3,0.1c0.1,0,0.2,0,0.2,0
		c0.2,0,0.3,0,0.5-0.1c0.1,0,0.3-0.1,0.4-0.1c0.1,0,0.2,0,0.3-0.1c0.1,0,0.3-0.1,0.4-0.2c0.1,0,0.2-0.1,0.2-0.1
		c0.1-0.1,0.3-0.1,0.4-0.2c0.1,0,0.2-0.1,0.2-0.1c0.1-0.1,0.2-0.1,0.4-0.2c0.1-0.1,0.2-0.1,0.3-0.2c0.1-0.1,0.2-0.1,0.3-0.2
		c0.1-0.1,0.2-0.1,0.3-0.2c0.1-0.1,0.2-0.1,0.2-0.2c0.1-0.1,0.2-0.2,0.3-0.3c0.1-0.1,0.1-0.1,0.2-0.2c0.1-0.1,0.2-0.2,0.3-0.3
		c0.1-0.1,0.1-0.2,0.2-0.3c0.1-0.1,0.2-0.2,0.2-0.3c0.1-0.1,0.2-0.3,0.3-0.4c0-0.1,0.1-0.1,0.1-0.2c0.4-0.7,0.6-1.4,0.8-2.1
		c0.1-0.5,0.2-1,0.2-1.5V208.7c0-7.7,6.2-13.9,13.9-13.9h0.4c7.7,0,13.9,6.2,13.9,13.9v72c0,0.3,0,0.6,0,0.8
		c-0.4,3.9,2.3,7.5,6.3,8.2l44.9,7c0,0,0.1,0,0.1,0c27.1,3.9,47.6,27.4,47.6,54.9v0.8c0,12.7-3.1,25.3-9,36.6L-90.5,428
		c-1.9,3.7-0.5,8.2,3.2,10.1c1.1,0.6,2.3,0.9,3.5,0.9c2.7,0,5.3-1.5,6.7-4l20.3-39.1c7-13.4,10.7-28.4,10.7-43.5v-0.8
		C-46.2,334.6-52.3,318.2-63.4,305.4z"/>
	<path class="st0" d="M-174.3,160.1c4.1,0,7.5-3.4,7.5-7.5v-22.8c0-4.1-3.4-7.5-7.5-7.5s-7.5,3.4-7.5,7.5v22.8
		C-181.8,156.8-178.4,160.1-174.3,160.1z"/>
	<path class="st0" d="M-127.8,221.2c0,4.1,3.4,7.5,7.5,7.5h22.8c4.1,0,7.5-3.4,7.5-7.5s-3.4-7.5-7.5-7.5h-22.8
		C-124.5,213.7-127.8,217.1-127.8,221.2z"/>
	<path class="st0" d="M-126.3,178.8c1.9,0,3.8-0.7,5.3-2.2l16.1-16.1c2.9-2.9,2.9-7.7,0-10.6c-2.9-2.9-7.7-2.9-10.6,0l-16.1,16.1
		c-2.9,2.9-2.9,7.7,0,10.6C-130.1,178.1-128.2,178.8-126.3,178.8z"/>
	<path class="st0" d="M-233.5,176.6c1.5,1.5,3.4,2.2,5.3,2.2c1.9,0,3.8-0.7,5.3-2.2c2.9-2.9,2.9-7.7,0-10.6l-16.1-16.1
		c-2.9-2.9-7.7-2.9-10.6,0c-2.9,2.9-2.9,7.7,0,10.6L-233.5,176.6z"/>
	<path class="st0" d="M-256.6,228.7h22.8c4.1,0,7.5-3.4,7.5-7.5s-3.4-7.5-7.5-7.5h-22.8c-4.1,0-7.5,3.4-7.5,7.5
		S-260.7,228.7-256.6,228.7z"/>
</g>
</symbol><symbol id="icon-clock" viewBox="0 0 612 612">
<g>
	<g>
		<path d="M587.572,186.881c-32.266-75.225-87.096-129.934-162.949-162.285C386.711,8.427,346.992,0.168,305.497,0.168
			c-41.488,0-80.914,8.181-118.784,24.428C111.488,56.861,56.415,111.535,24.092,186.881C7.895,224.629,0,264.176,0,305.664
			c0,41.496,7.895,81.371,24.092,119.127c32.323,75.346,87.403,130.348,162.621,162.621c37.877,16.247,77.295,24.42,118.784,24.42
			c41.489,0,81.214-8.259,119.12-24.42c75.853-32.352,130.683-87.403,162.956-162.621C603.819,386.914,612,347.16,612,305.664
			C612,264.176,603.826,224.757,587.572,186.881z M538.724,440.853c-24.021,41.195-56.929,73.876-98.375,98.039
			c-41.195,24.021-86.332,36.135-134.845,36.135c-36.47,0-71.27-7.024-104.4-21.415c-33.129-14.384-61.733-33.294-85.661-57.215
			c-23.928-23.928-42.973-52.811-57.214-85.997c-14.199-33.065-21.08-68.258-21.08-104.735c0-48.52,11.921-93.428,35.807-134.509
			c23.971-41.231,56.886-73.947,98.039-98.04c41.146-24.092,85.99-36.142,134.502-36.142c48.52,0,93.649,12.121,134.845,36.142
			c41.446,24.164,74.283,56.879,98.375,98.039c24.092,41.153,36.135,85.99,36.135,134.509
			C574.852,354.185,562.888,399.399,538.724,440.853z"/>
		<path d="M324.906,302.988V129.659c0-10.372-9.037-18.738-19.41-18.738c-9.701,0-18.403,8.366-18.403,18.738v176.005
			c0,0.336,0.671,1.678,0.671,2.678c-0.671,6.024,1.007,11.043,5.019,15.062l100.053,100.046c6.695,6.695,19.073,6.695,25.763,0
			c7.694-7.695,7.188-18.86,0-26.099L324.906,302.988z"/>
	</g>
</g>
<g>
</g>
<g>
</g>
<g>
</g>
<g>
</g>
<g>
</g>
<g>
</g>
<g>
</g>
<g>
</g>
<g>
</g>
<g>
</g>
<g>
</g>
<g>
</g>
<g>
</g>
<g>
</g>
<g>
</g>
</symbol><symbol id="icon-close" viewBox="0 0 357 357">
<g>
	<g id="close">
		<polygon points="357,35.7 321.3,0 178.5,142.8 35.7,0 0,35.7 142.8,178.5 0,321.3 35.7,357 178.5,214.2 321.3,357 357,321.3 
			214.2,178.5 		"/>
	</g>
</g>
<g>
</g>
<g>
</g>
<g>
</g>
<g>
</g>
<g>
</g>
<g>
</g>
<g>
</g>
<g>
</g>
<g>
</g>
<g>
</g>
<g>
</g>
<g>
</g>
<g>
</g>
<g>
</g>
<g>
</g>
</symbol><symbol id="icon-courier" viewBox="-211.5 25 489 512">
<g>
	<g>
		<path d="M237.2,411.4l-1.8-0.5c-26.5-7.1-35.4-13.9-47.2-18.4c-24.8-9.5-38.7-17.3-46.5-23.3l3.7-2.4l-11.8-46.1
			c21.5-29.5,36.8-65.9,36.9-103.6h4.4v0h6.6c5.9,0,8.4-4.2,5.7-9.4c0,0-3.3-6.1-12.3-14.2v-15.7c0-74.5-58.6-135.5-130.5-141.5
			c0-0.2,0-0.3,0-0.5c0-5.9-4.8-10.7-10.7-10.7s-10.7,4.8-10.7,10.7c0,0.1,0,0.2,0,0.4c-72.7,5.1-132.1,66.6-132.1,141.6v15.7
			c-9,8.1-12.3,14.2-12.3,14.2c-2.8,5.2-0.2,9.4,5.7,9.4h6.6v0h4.4c0.1,37.7,15.4,74.1,36.9,103.5l-11.8,46.2l3.7,2.4
			c-7.8,6-21.7,13.9-46.5,23.3c-11.8,4.5-20.7,11.3-47.2,18.4l-1.8,0.5c-24.1,8-40.3,30.3-40.3,55.5V537h96H33h150.1h94.4v-70.1
			C277.5,441.7,261.3,419.3,237.2,411.4z M-87.6,177.6c0-16.2,3.2-32,9.6-46.8c6.2-14.4,15-27.3,26.2-38.4
			c11.2-11.1,24.1-19.8,38.5-25.9C1.4,60.2,17,57,33,57c16,0,31.6,3.2,46.4,9.5c14.4,6.1,27.3,14.8,38.5,25.9
			c11.2,11.1,20,24,26.2,38.4c6.4,14.9,9.6,30.6,9.6,46.8v0.7c-23.3-13-61-25.3-120.6-25.3c-59.6,0-97.4,12.4-120.6,25.3
			L-87.6,177.6L-87.6,177.6z M140.9,195.7H-74.9c11.2-5.9,24.4-10.7,39.3-14.2c20-4.7,43.1-7.1,68.6-7.1c25.4,0,48.5,2.4,68.5,7.1
			C116.4,185,129.6,189.7,140.9,195.7z M-83.2,217h232.4c-0.2,35-16.1,73.1-43.8,104.8c-12.2,14-26,25.6-39.7,33.8
			c-12.3,7.3-23.9,11.3-32.7,11.3c-8.8,0-20.5-4-32.7-11.3c-13.7-8.2-27.4-19.8-39.7-33.8C-67.1,290.1-83.1,252-83.2,217z
			 M122.4,430.3l26.7,21.3H-81.4l26.7-21.3H122.4z M1.8,393.9l-56.8-36.8l2.9-11.5l12.7,6.7c16.2,14.8,33.5,25.8,49.5,31.5
			L1.8,393.9z M17,409l16-19.2L49,409H17z M55.8,383.8c16.1-5.7,33.4-16.7,49.5-31.5l12.7-6.7l2.9,11.5l-56.8,36.8L55.8,383.8z
			 M-115.5,451.7L-115.5,451.7l-0.1,64h-74.6v-48.8c0-15.9,10.2-30,25.3-35.2l1.2-0.4c19.9-5.4,31-10.6,39.8-14.9
			c3.4-1.6,6.4-3.1,9.3-4.2c18.8-7.1,43.1-17.5,57.5-31.2l43,27.8h-48.1L-115.5,451.7L-115.5,451.7L-115.5,451.7z M161.8,515.7H33
			H-94.2V473h256V515.7z M183.1,515.7v-19.1h0.1v-44.9L129.9,409H80.1l43-27.8c14.4,13.6,38.8,24,57.6,31.2c2.9,1.1,5.8,2.5,9.2,4.1
			c8.9,4.3,19.9,9.5,39.8,14.9l1.2,0.4c15.2,5.2,25.3,19.3,25.3,35.2v48.8H183.1z"/>
	</g>
</g>
<g>
	<g>
		<path d="M33.8,78.3c-17.7,0-32,14.3-32,32c0,17.7,14.3,32,32,32s32-14.3,32-32C65.8,92.7,51.5,78.3,33.8,78.3z M33.8,121
			c-5.9,0-10.7-4.8-10.7-10.7s4.8-10.7,10.7-10.7c5.9,0,10.7,4.8,10.7,10.7S39.7,121,33.8,121z"/>
	</g>
</g>
</symbol><symbol id="icon-graph" viewBox="-223 26 512 402.1">
<path d="M273,396.1h-10.3V42c0-8.8-7.2-16-16-16h-97.6c-8.8,0-16,7.2-16,16v354.1H97.8V116.7c0-8.8-7.2-16-16-16h-97.6
	c-8.8,0-16,7.2-16,16v279.5h-35.3V191.3c0-8.8-7.2-16-16-16h-97.6c-8.8,0-16,7.2-16,16v204.8H-207c-8.8,0-16,7.2-16,16s7.2,16,16,16
	h480c8.8,0,16-7.2,16-16S281.8,396.1,273,396.1z M165.1,58h65.6v338.1h-65.6V58z M0.2,396.1V132.7h65.6v263.5H0.2z M-164.7,207.3
	h65.6v188.8h-65.6V207.3z"/>
</symbol><symbol id="icon-home" viewBox="-231 50.6 495.4 461.3">
<g>
	<g>
		<g>
			<path d="M256.1,259.1L181,184V97.3c0-15.7-12.7-28.4-28.4-28.4c-15.7,0-28.4,12.7-28.4,28.4v29.9L68.3,71.3
				C40.7,43.7-7.4,43.8-35,71.4l-187.7,187.7c-11.1,11.1-11.1,29.1,0,40.2c11.1,11.1,29.1,11.1,40.2,0L5.2,111.5
				c6.1-6.1,16.9-6.1,23,0l187.7,187.7c5.6,5.6,12.8,8.3,20.1,8.3c7.3,0,14.5-2.8,20.1-8.3C267.2,288.2,267.2,270.2,256.1,259.1z"/>
			<path d="M26.6,165.4c-5.5-5.5-14.3-5.5-19.7,0l-165.1,165.1c-2.6,2.6-4.1,6.2-4.1,9.9v120.4c0,28.3,22.9,51.2,51.2,51.2h81.8
				V385.3h92.3V512h81.8c28.3,0,51.2-22.9,51.2-51.2V340.4c0-3.7-1.5-7.3-4.1-9.9L26.6,165.4z"/>
		</g>
	</g>
</g>
</symbol><symbol id="icon-mail" viewBox="-457 265 44 32">
<g>
	<g>
		<g>
			<path d="M-414,265h-42c-0.6,0-1,0.4-1,1v30c0,0.6,0.4,1,1,1h42c0.6,0,1-0.4,1-1v-30C-413,265.4-413.4,265-414,265z M-415,292.6
				l-12.4-12.4l-1.4,1.4l13.4,13.4h-39.2l13.4-13.4l-1.4-1.4l-12.4,12.4V267h40V292.6z"/>
		</g>
	</g>
	<g>
		<g>
			<path d="M-417,267l-18,18l-18-18h-2v0.8l19.3,19.3c0.4,0.4,1,0.4,1.4,0l19.3-19.3V267H-417z"/>
		</g>
	</g>
</g>
</symbol><symbol id="icon-money" viewBox="-240 49.1 478.9 462.9">
<g>
	<g>
		<path d="M166.9,201.2C166.9,201.2,166.9,201.2,166.9,201.2h-400c-3.8,0-6.9,3.1-6.9,6.8c0,0,0,0,0,0v192c0,3.8,3.1,6.9,6.8,6.9
			c0,0,0,0,0,0h272c3.8,0,6.9-3.1,6.9-6.9c0-3.8-3.1-6.9-6.9-6.9h-265.1V214.9H160V232c0,3.8,3.1,6.9,6.8,6.9c0,0,0,0,0,0
			c3.8,0,6.9-3.1,6.9-6.8c0,0,0,0,0,0v-24C173.7,204.2,170.7,201.2,166.9,201.2z"/>
	</g>
</g>
<g>
	<g>
		<path d="M120.4,169.3l-320-72c-1.8-0.4-3.6-0.1-5.2,0.9c-1.5,1-2.6,2.5-3,4.3l-16,72c-0.8,3.7,1.5,7.4,5.2,8.2
			c3.7,0.8,7.4-1.5,8.2-5.2l14.5-65.3l313.3,70.5c0.5,0.1,1,0.2,1.5,0.2c3.8,0,6.9-3.1,6.8-6.9C125.7,172.8,123.5,170,120.4,169.3z"/>
	</g>
</g>
<g>
	<g>
		<path d="M81.5,129.7l-192-80c-3.3-1.4-7.2,0-8.8,3.3l-16,32c-1.8,3.3-0.6,7.5,2.8,9.3c3.3,1.8,7.5,0.6,9.3-2.8
			c0.1-0.1,0.1-0.3,0.2-0.4v0l13.1-26.3l186.1,77.5c3.5,1.5,7.5-0.2,9-3.7C86.7,135.1,85,131.1,81.5,129.7z"/>
	</g>
</g>
<g>
	<g>
		<path d="M86.4,233.2H22.9c-3.8,0-6.9,3.1-6.9,6.9s3.1,6.9,6.9,6.9h63.5c3.8,0,6.9-3.1,6.9-6.9S90.1,233.2,86.4,233.2z"/>
	</g>
</g>
<g>
	<g>
		<path d="M-41.1,233.6c-38.9,0-70.4,31.5-70.4,70.4c0,38.9,31.5,70.4,70.4,70.4c38.9,0,70.4-31.5,70.4-70.4S-2.3,233.6-41.1,233.6z
			 M-41.1,361.6c-31.8,0-57.6-25.8-57.6-57.6c0-31.8,25.8-57.6,57.6-57.6c31.8,0,57.6,25.8,57.6,57.6
			C16.5,335.8-9.3,361.6-41.1,361.6z"/>
	</g>
</g>
<g>
	<g>
		<path d="M150.9,256c-42.4,0-88,10-88,32v192c0,22,45.6,32,88,32s88-10,88-32V288C238.9,266,193.3,256,150.9,256z M222.9,479.9
			c-1.2,4.4-25.2,16.1-72,16.1s-70.8-11.7-72-16v-12.6c17,8.6,45.1,12.6,72,12.6s55-4,72-12.6V479.9z M222.9,447.9
			c-1.2,4.4-25.2,16.1-72,16.1s-70.8-11.7-72-16v-12.6c17,8.6,45.1,12.6,72,12.6s55-4,72-12.6V447.9z M222.9,415.9
			c-1.2,4.4-25.2,16.1-72,16.1s-70.8-11.7-72-16v-12.6c17,8.6,45.1,12.6,72,12.6s55-4,72-12.6V415.9z M222.9,383.9
			c-1.2,4.4-25.2,16.1-72,16.1s-70.8-11.7-72-16v-12.6c17,8.6,45.1,12.6,72,12.6s55-4,72-12.6V383.9z M222.9,351.9
			c-1.2,4.4-25.2,16.1-72,16.1s-70.8-11.7-72-16v-12.6c17,8.5,45.1,12.6,72,12.6s55-4,72-12.6V351.9z M222.9,319.9
			c-1.2,4.4-25.2,16.1-72,16.1s-70.8-11.7-72-16v-12.6c17,8.5,45.1,12.6,72,12.6s55-4,72-12.6V319.9z M150.9,304
			c-46.7,0-70.7-11.6-72-15.9v0c1.3-4.5,25.3-16.1,72-16.1c46.4,0,70.4,11.5,72,16C221.3,292.5,197.3,304,150.9,304z"/>
	</g>
</g>
<g>
	<g>
		<path d="M-105.1,361.2h-60.5l-28.7-31.4v-52l31.7-30.9h57.5c3.8,0,6.9-3.1,6.9-6.9s-3.1-6.9-6.9-6.9h-60.3c-1.8,0-3.5,0.7-4.8,1.9
			l-35.7,34.9c-1.3,1.6-2.1,3.5-2.1,5.6v56.9c0,1.7,0.6,3.4,1.8,4.6l32.5,35.6c1.3,1.4,3.1,2.2,5.1,2.2h63.5c3.8,0,6.9-3.1,6.9-6.9
			S-101.4,361.2-105.1,361.2z"/>
	</g>
</g>
<g>
	<g>
		<path d="M-37.1,296h-8c-2.5,0-4-1.4-4-2s1.5-2,4-2h20c4.4,0,8-3.6,8-8s-3.6-8-8-8h-8c0-4.4-3.6-8-8-8s-8,3.6-8,8v0.4
			c-8.9,1.3-15.6,8.6-16,17.6c0.6,10.5,9.5,18.5,20,18h8c2.5,0,4,1.4,4,2s-1.5,2-4,2h-20c-4.4,0-8,3.6-8,8s3.6,8,8,8h8
			c0,4.4,3.6,8,8,8s8-3.6,8-8v-0.4c8.9-1.3,15.6-8.6,16-17.6C-17.7,303.6-26.7,295.5-37.1,296z"/>
	</g>
</g>
</symbol><symbol id="icon-phone" viewBox="-241.7 44.2 473.1 473.8">
<g>
	<g>
		<path d="M132.5,337.7c-9.7-10.1-21.4-15.5-33.8-15.5c-12.3,0-24.1,5.3-34.2,15.4l-31.6,31.5c-2.6-1.4-5.2-2.7-7.7-4
			c-3.6-1.8-7-3.5-9.9-5.3c-29.6-18.8-56.5-43.3-82.3-75c-12.5-15.8-20.9-29.1-27-42.6c8.2-7.5,15.8-15.3,23.2-22.8
			c2.8-2.8,5.6-5.7,8.4-8.5c21-21,21-48.2,0-69.2l-27.3-27.3c-3.1-3.1-6.3-6.3-9.3-9.5c-6-6.2-12.3-12.6-18.8-18.6
			c-9.7-9.6-21.3-14.7-33.5-14.7s-24,5.1-34,14.7c-0.1,0.1-0.1,0.1-0.2,0.2l-34,34.3c-12.8,12.8-20.1,28.4-21.7,46.5
			c-2.4,29.2,6.2,56.4,12.8,74.2c16.2,43.7,40.4,84.2,76.5,127.6c43.8,52.3,96.5,93.6,156.7,122.7c23,10.9,53.7,23.8,88,26
			c2.1,0.1,4.3,0.2,6.3,0.2c23.1,0,42.5-8.3,57.7-24.8c0.1-0.2,0.3-0.3,0.4-0.5c5.2-6.3,11.2-12,17.5-18.1c4.3-4.1,8.7-8.4,13-12.9
			c9.9-10.3,15.1-22.3,15.1-34.6c0-12.4-5.3-24.3-15.4-34.3L132.5,337.7z M168.3,443C168.2,443,168.2,443.1,168.3,443
			c-3.9,4.2-7.9,8-12.2,12.2c-6.5,6.2-13.1,12.7-19.3,20c-10.1,10.8-22,15.9-37.6,15.9c-1.5,0-3.1,0-4.6-0.1
			c-29.7-1.9-57.3-13.5-78-23.4C-40,440.2-89.7,401.3-131,352c-34.1-41.1-56.9-79.1-72-119.9c-9.3-24.9-12.7-44.3-11.2-62.6
			c1-11.7,5.5-21.4,13.8-29.7l34.1-34.1c4.9-4.6,10.1-7.1,15.2-7.1c6.3,0,11.4,3.8,14.6,7c0.1,0.1,0.2,0.2,0.3,0.3
			c6.1,5.7,11.9,11.6,18,17.9c3.1,3.2,6.3,6.4,9.5,9.7l27.3,27.3c10.6,10.6,10.6,20.4,0,31c-2.9,2.9-5.7,5.8-8.6,8.6
			c-8.4,8.6-16.4,16.6-25.1,24.4c-0.2,0.2-0.4,0.3-0.5,0.5c-8.6,8.6-7,17-5.2,22.7c0.1,0.3,0.2,0.6,0.3,0.9
			c7.1,17.2,17.1,33.4,32.3,52.7l0.1,0.1c27.6,34,56.7,60.5,88.8,80.8c4.1,2.6,8.3,4.7,12.3,6.7c3.6,1.8,7,3.5,9.9,5.3
			c0.4,0.2,0.8,0.5,1.2,0.7c3.4,1.7,6.6,2.5,9.9,2.5c8.3,0,13.5-5.2,15.2-6.9l34.2-34.2c3.4-3.4,8.8-7.5,15.1-7.5
			c6.2,0,11.3,3.9,14.4,7.3c0.1,0.1,0.1,0.1,0.2,0.2l55.1,55.1C178.5,421.9,178.5,432.4,168.3,443z"/>
		<path d="M14.1,156.9c26.2,4.4,50,16.8,69,35.8s31.3,42.8,35.8,69c1.1,6.6,6.8,11.2,13.3,11.2c0.8,0,1.5-0.1,2.3-0.2
			c7.4-1.2,12.3-8.2,11.1-15.6c-5.4-31.7-20.4-60.6-43.3-83.5s-51.8-37.9-83.5-43.3c-7.4-1.2-14.3,3.7-15.6,11S6.7,155.7,14.1,156.9
			z"/>
		<path d="M231.3,253.2c-8.9-52.2-33.5-99.7-71.3-137.5S74.7,53.3,22.5,44.4c-7.3-1.3-14.2,3.7-15.5,11C5.8,62.8,10.7,69.7,18.1,71
			c46.6,7.9,89.1,30,122.9,63.7c33.8,33.8,55.8,76.3,63.7,122.9c1.1,6.6,6.8,11.2,13.3,11.2c0.8,0,1.5-0.1,2.3-0.2
			C227.6,267.5,232.6,260.5,231.3,253.2z"/>
	</g>
</g>
</symbol><symbol id="icon-pointer-empty" viewBox="-147 25 360 512">
<g>
	<g>
		<path d="M33,25c-99.3,0-180,80.7-180,180c0,33.5,9.3,66.3,26.9,94.7L22.8,529.9c2.7,4.4,7.6,7.1,12.7,7.1c0,0,0.1,0,0.1,0
			c5.2,0,10.1-2.8,12.8-7.3l139.2-232.5c16.6-27.8,25.4-59.7,25.4-92.2C213,105.7,132.3,25,33,25z M161.9,281.8L35.3,493.2
			L-94.6,283.8c-14.6-23.6-22.6-50.9-22.6-78.8c0-82.7,67.5-150.2,150.2-150.2S183.1,122.3,183.1,205
			C183.1,232.1,175.7,258.7,161.9,281.8z"/>
	</g>
</g>
<g>
	<g>
		<path d="M33,115c-49.6,0-90,40.4-90,90c0,49.3,39.7,90,90,90c50.9,0,90-41.2,90-90C123,155.4,82.6,115,33,115z M33,265.2
			c-33.3,0-60.2-27-60.2-60.2c0-33.1,27.1-60.2,60.2-60.2s60.1,27.1,60.1,60.2C93.1,237.7,66.8,265.2,33,265.2z"/>
	</g>
</g>
</symbol><symbol id="icon-pointer" viewBox="-417.1 232.3 71.9 97.7">
<g>
	<path d="M-381.1,232.3c-19.8,0-36,16.1-36,36c0,5.2,1.1,10.1,3.1,14.7c9,19.7,26.2,40.5,31.3,46.4c0.4,0.4,0.9,0.7,1.5,0.7
		s1.1-0.3,1.5-0.7c5.1-5.9,22.3-26.7,31.3-46.4c2.1-4.6,3.1-9.5,3.1-14.7C-345.2,248.4-361.3,232.3-381.1,232.3z M-381.1,286.9
		c-10.3,0-18.7-8.4-18.7-18.7c0-10.3,8.4-18.7,18.7-18.7c10.3,0,18.7,8.4,18.7,18.7C-362.5,278.6-370.8,286.9-381.1,286.9z"/>
</g>
</symbol><symbol id="icon-route" viewBox="-448.5 251 59 60">
<g>
	<path d="M-428,280c-2.3-2.6-5.3-4-8.5-4s-6.3,1.4-8.5,4c-4.6,5.2-4.6,13.7,0,18.9l8.5,9.6l8.5-9.6
		C-423.4,293.7-423.4,285.2-428,280z M-429.5,297.5l-7,7.9l-7-7.9c-4-4.5-4-11.8,0-16.2c1.9-2.1,4.4-3.3,7-3.3s5.1,1.2,7,3.3
		C-425.5,285.8-425.5,293.1-429.5,297.5z"/>
	<path d="M-400.3,275.5l6.5-7.3c3.5-3.9,3.5-10.3,0-14.2c-1.7-1.9-4-3-6.5-3c-2.4,0-4.7,1.1-6.5,3c-3.5,3.9-3.5,10.3,0,14.2
		L-400.3,275.5z M-405.2,255.3c1.3-1.5,3.1-2.3,5-2.3c1.9,0,3.6,0.8,5,2.3c2.8,3.2,2.8,8.4,0,11.6l-5,5.6l-5-5.6
		C-408.1,263.7-408.1,258.5-405.2,255.3z"/>
	<path d="M-396.4,305.5c-0.5-0.1-1.1,0.2-1.2,0.8c-0.1,0.5-0.3,1-0.7,1.4c-0.3,0.4-0.3,1.1,0.2,1.4c0.2,0.1,0.4,0.2,0.6,0.2
		c0.3,0,0.6-0.1,0.8-0.4c0.5-0.6,0.9-1.4,1-2.2C-395.5,306.2-395.9,305.6-396.4,305.5z"/>
	<path d="M-417,282c-0.4,0-0.9-0.1-1.3-0.2c-0.5-0.2-1.1,0.1-1.3,0.6c-0.2,0.5,0.1,1.1,0.6,1.3c0.6,0.2,1.3,0.4,2,0.4h0.4
		c0.6,0,1-0.4,1-1s-0.4-1-1-1H-417z"/>
	<path d="M-419.4,275.7c0.2,0,0.4,0,0.5-0.2c0.4-0.3,0.9-0.4,1.5-0.5c0.5-0.1,0.9-0.6,0.9-1.1c-0.1-0.5-0.6-0.9-1.1-0.9
		c-0.8,0.1-1.6,0.4-2.3,0.8c-0.5,0.3-0.6,0.9-0.3,1.4C-420,275.5-419.7,275.7-419.4,275.7z"/>
	<path d="M-430.9,309h-2c-0.6,0-1,0.4-1,1s0.4,1,1,1h2c0.6,0,1-0.4,1-1S-430.4,309-430.9,309z"/>
	<path d="M-413,291c-0.1,0-0.2,0-0.3,0c-0.6,0-1,0.5-1,1c0,0.5,0.5,1,1,1c0,0,0,0,0,0l2,0c0.6,0,1-0.4,1-1s-0.4-1-1-1H-413z"/>
	<path d="M-413.5,275h2c0.6,0,1-0.4,1-1s-0.4-1-1-1h-2c-0.6,0-1,0.4-1,1S-414.1,275-413.5,275z"/>
	<path d="M-401.2,291c-0.6,0-1,0.4-1,1s0.4,1,1,1h2c0.6,0,1-0.4,1-1s-0.4-1-1-1H-401.2z"/>
	<path d="M-397.6,283c0-0.6-0.4-1-1-1h-2c-0.6,0-1,0.4-1,1s0.4,1,1,1h2C-398.1,284-397.6,283.6-397.6,283z"/>
	<path d="M-407.2,293h2c0.6,0,1-0.4,1-1s-0.4-1-1-1h-2c-0.6,0-1,0.4-1,1S-407.8,293-407.2,293z"/>
	<path d="M-405.5,275c0.6,0,1-0.4,1-1s-0.4-1-1-1h-2c-0.6,0-1,0.4-1,1s0.4,1,1,1H-405.5z"/>
	<path d="M-412.6,282c-0.6,0-1,0.4-1,1s0.4,1,1,1h2c0.6,0,1-0.4,1-1s-0.4-1-1-1H-412.6z"/>
	<path d="M-403.6,283c0-0.6-0.4-1-1-1h-2c-0.6,0-1,0.4-1,1s0.4,1,1,1h2C-404.1,284-403.6,283.6-403.6,283z"/>
	<path d="M-389.6,286.6c-0.1-0.5-0.6-0.9-1.1-0.8c-0.5,0.1-0.9,0.6-0.8,1.1c0,0.2,0,0.4,0,0.6c0,0.3,0,0.7-0.1,1
		c-0.2,0.5,0.1,1.1,0.7,1.2c0.1,0,0.2,0,0.3,0c0.4,0,0.8-0.3,1-0.7c0.1-0.5,0.2-1,0.2-1.5C-389.5,287.2-389.5,286.9-389.6,286.6z"/>
	<path d="M-406.9,309h-2c-0.6,0-1,0.4-1,1s0.4,1,1,1h2c0.6,0,1-0.4,1-1S-406.4,309-406.9,309z"/>
	<path d="M-412.9,309h-2c-0.6,0-1,0.4-1,1s0.4,1,1,1h2c0.6,0,1-0.4,1-1S-412.4,309-412.9,309z"/>
	<path d="M-401.9,301c0-0.6-0.4-1-1-1h-2c-0.6,0-1,0.4-1,1s0.4,1,1,1h2C-402.4,302-401.9,301.6-401.9,301z"/>
	<path d="M-407.9,301c0-0.6-0.4-1-1-1h-2c-0.6,0-1,0.4-1,1s0.4,1,1,1h2C-408.4,302-407.9,301.6-407.9,301z"/>
	<path d="M-401,309h-1.9c-0.6,0-1,0.4-1,1s0.4,1,1,1l2,0l0-1v1c0.6,0,1-0.4,1-1C-400,309.4-400.5,309-401,309z"/>
	<path d="M-397.5,303.7c0.2,0,0.4-0.1,0.6-0.2c0.4-0.3,0.5-1,0.2-1.4c-0.5-0.6-1.2-1.2-1.9-1.5c-0.5-0.2-1.1,0-1.3,0.5
		c-0.2,0.5,0,1.1,0.5,1.3c0.5,0.2,0.9,0.6,1.2,1C-398.1,303.6-397.8,303.7-397.5,303.7z"/>
	<path d="M-393.7,290.7c-0.4,0.2-0.9,0.3-1.4,0.3h-0.2c-0.6,0-1,0.4-1,1s0.4,1,1,1h0.2c0.7,0,1.5-0.1,2.1-0.4
		c0.5-0.2,0.7-0.8,0.5-1.3C-392.6,290.8-393.2,290.5-393.7,290.7z"/>
	<path d="M-421,280.9c0.5-0.2,0.8-0.7,0.6-1.3c-0.1-0.4-0.2-0.7-0.2-1.1c0-0.2,0-0.3,0-0.4c0.1-0.5-0.3-1-0.9-1.1
		c-0.6-0.1-1,0.3-1.1,0.9c0,0.2,0,0.5,0,0.7c0,0.6,0.1,1.2,0.3,1.7c0.1,0.4,0.5,0.7,1,0.7C-421.2,280.9-421.1,280.9-421,280.9z"/>
	<path d="M-424.9,309h-2c-0.6,0-1,0.4-1,1s0.4,1,1,1h2c0.6,0,1-0.4,1-1S-424.4,309-424.9,309z"/>
	<path d="M-414.9,301.6c0.4,0,0.7-0.2,0.9-0.6c0.2-0.5,0-1.1-0.5-1.3c-0.5-0.2-0.9-0.5-1.2-0.9c-0.4-0.4-1-0.5-1.4-0.1
		c-0.4,0.4-0.5,1-0.1,1.4c0.5,0.6,1.2,1.1,1.9,1.5C-415.2,301.6-415,301.6-414.9,301.6z"/>
	<path d="M-392.3,282.7c-0.7-0.4-1.5-0.7-2.3-0.7c-0.5,0-1,0.4-1.1,0.9c0,0.6,0.4,1,0.9,1.1c0.5,0,1,0.2,1.5,0.5
		c0.2,0.1,0.3,0.1,0.5,0.1c0.3,0,0.7-0.2,0.9-0.5C-391.6,283.6-391.8,283-392.3,282.7z"/>
	<path d="M-418.9,309h-2c-0.6,0-1,0.4-1,1s0.4,1,1,1h2c0.6,0,1-0.4,1-1S-418.4,309-418.9,309z"/>
	<path d="M-416.4,295.8c0.1-0.5,0.3-1,0.6-1.4c0.3-0.4,0.2-1.1-0.2-1.4c-0.4-0.3-1.1-0.2-1.4,0.2c-0.5,0.7-0.8,1.4-1,2.2
		c-0.1,0.5,0.3,1.1,0.8,1.2c0.1,0,0.1,0,0.2,0C-417,296.6-416.5,296.3-416.4,295.8z"/>
	<path d="M-400,266c3,0,5.5-2.5,5.5-5.5s-2.5-5.5-5.5-5.5c-3,0-5.5,2.5-5.5,5.5S-403,266-400,266z M-400,257c1.9,0,3.5,1.6,3.5,3.5
		s-1.6,3.5-3.5,3.5c-1.9,0-3.5-1.6-3.5-3.5S-401.9,257-400,257z"/>
	<path d="M-436.5,282c-3.3,0-6,2.7-6,6s2.7,6,6,6c3.3,0,6-2.7,6-6S-433.2,282-436.5,282z M-436.5,292c-2.2,0-4-1.8-4-4s1.8-4,4-4
		s4,1.8,4,4S-434.3,292-436.5,292z"/>
</g>
</symbol><symbol id="icon-search" viewBox="0 0 451 451">
<g>
	<path d="M447.05,428l-109.6-109.6c29.4-33.8,47.2-77.9,47.2-126.1C384.65,86.2,298.35,0,192.35,0C86.25,0,0.05,86.3,0.05,192.3
		s86.3,192.3,192.3,192.3c48.2,0,92.3-17.8,126.1-47.2L428.05,447c2.6,2.6,6.1,4,9.5,4s6.9-1.3,9.5-4
		C452.25,441.8,452.25,433.2,447.05,428z M26.95,192.3c0-91.2,74.2-165.3,165.3-165.3c91.2,0,165.3,74.2,165.3,165.3
		s-74.1,165.4-165.3,165.4C101.15,357.7,26.95,283.5,26.95,192.3z"/>
</g>
<g>
</g>
<g>
</g>
<g>
</g>
<g>
</g>
<g>
</g>
<g>
</g>
<g>
</g>
<g>
</g>
<g>
</g>
<g>
</g>
<g>
</g>
<g>
</g>
<g>
</g>
<g>
</g>
<g>
</g>
</symbol><symbol id="icon-star" viewBox="-266 77.8 426.7 405.8">

<polygon points="-52.7,77.8 13.2,211.4 160.7,232.8 54,336.7 79.2,483.6 -52.7,414.2 -184.5,483.6 -159.3,336.7 
	-266,232.8 -118.6,211.4 "/>
</symbol><symbol id="icon-verified" viewBox="-223 25 512 512">
<g>
	<g>
		<path d="M214,100C165.7,51.6,101.4,25,33,25c-68.4,0-132.7,26.6-181,75c-48.4,48.4-75,112.6-75,181s26.6,132.7,75,181
			s112.6,75,181,75c68.4,0,132.7-26.6,181-75s75-112.6,75-181S262.4,148.3,214,100z M33,507c-124.6,0-226-101.4-226-226
			S-91.6,55,33,55s226,101.4,226,226S157.6,507,33,507z"/>
	</g>
</g>
<g>
	<g>
		<path d="M155.3,198.9c-5.9-5.9-15.4-5.9-21.2,0L1.6,331.3l-69.7-69.7c-5.9-5.9-15.4-5.9-21.2,0s-5.9,15.4,0,21.2L-9,363.1
			c2.9,2.9,6.8,4.4,10.6,4.4s7.7-1.5,10.6-4.4l143.1-143.1C161.2,214.2,161.2,204.7,155.3,198.9z"/>
	</g>
</g>
</symbol><symbol id="icon-delivery" viewBox="-446.1 238.2 512.1 323.9">
<g>
	<g>
		<path d="M30.2,375.5l-13.3-53c3.6-0.8,6.3-4,6.3-7.8v-8.6c0-18.6-15.1-33.7-33.7-33.7h-60.4v-17.6c0-9.1-7.4-16.6-16.6-16.6
			h-307.8c-9.1,0-16.6,7.4-16.6,16.6v145.3c0,4.4,3.6,8,8,8c4.4,0,8-3.6,8-8V254.7c0-0.3,0.2-0.5,0.5-0.5h307.8
			c0.3,0,0.5,0.2,0.5,0.5v145.4c0,4.4,3.6,8,8,8s8-3.6,8-8V391h94.6l0,0l0,0c11.6,0,21.5,7.6,24.9,18.2H23.5c-4.4,0-8,3.6-8,8v17.1
			c0,13.9,11.3,25.1,25.1,25.1h9.1v35.3h-21c-6.9-19.9-25.8-34.2-48-34.2s-41.1,14.3-48,34.2h-3.9v-60.4c0-4.4-3.6-8-8-8s-8,3.6-8,8
			v60.4h-166c-6.9-19.9-25.8-34.2-48-34.2s-41.1,14.3-48,34.2h-46.1c-0.3,0-0.5-0.2-0.5-0.5v-17.6h34.7c4.4,0,8-3.6,8-8s-3.6-8-8-8
			h-77c-4.4,0-8,3.6-8,8s3.6,8,8,8h26.2v17.6c0,9.1,7.4,16.6,16.6,16.6h43.3c0,0.2,0,0.4,0,0.5c0,28,22.8,50.8,50.8,50.8
			s50.8-22.8,50.8-50.8c0-0.2,0-0.4,0-0.5h180.7c0,0.2,0,0.4,0,0.5c0,28,22.8,50.8,50.8,50.8s50.8-22.8,50.8-50.8c0-0.2,0-0.4,0-0.5
			H58c4.4,0,8-3.6,8-8v-85.5C66,396.1,50.4,378.5,30.2,375.5z M-70.8,288.4h60.4c9.7,0,17.6,7.9,17.6,17.6v0.5h-78L-70.8,288.4
			L-70.8,288.4z M-70.8,375v-52.4H0.4L13.5,375H-70.8L-70.8,375z M-301.2,546c-19.2,0-34.7-15.6-34.7-34.7
			c0-19.1,15.6-34.7,34.7-34.7s34.7,15.6,34.7,34.7C-266.5,530.4-282,546-301.2,546z M-19,546c-19.2,0-34.7-15.6-34.7-34.7
			c0-19.1,15.6-34.7,34.7-34.7c19.2,0,34.7,15.6,34.7,34.7C15.7,530.4,0.2,546-19,546z M50,443.4h-9.1c-5,0-9.1-4.1-9.1-9.1v-9.1H50
			V443.4L50,443.4z"/>
	</g>
</g>
<g>
	<g>
		<path d="M-301.2,494.7c-9.1,0-16.6,7.4-16.6,16.6c0,9.2,7.4,16.6,16.6,16.6c9.1,0,16.6-7.4,16.6-16.6
			C-284.6,502.1-292,494.7-301.2,494.7z"/>
	</g>
</g>
<g>
	<g>
		<path d="M-19,494.7c-9.1,0-16.6,7.4-16.6,16.6c0,9.2,7.4,16.6,16.6,16.6s16.6-7.4,16.6-16.6C-2.4,502.1-9.8,494.7-19,494.7z"/>
	</g>
</g>
<g>
	<g>
		<path d="M-113,460.5h-119.8c-4.4,0-8,3.6-8,8s3.6,8,8,8H-113c4.4,0,8-3.6,8-8S-108.6,460.5-113,460.5z"/>
	</g>
</g>
<g>
	<g>
		<path d="M-318.3,426.3h-102.6c-4.4,0-8,3.6-8,8s3.6,8,8,8h102.6c4.4,0,8-3.6,8-8S-313.8,426.3-318.3,426.3z"/>
	</g>
</g>
<g>
	<g>
		<path d="M-167.2,317.5c-3.1-3.1-8.2-3.1-11.3,0l-71.3,71.3l-37.1-37.1c-3.1-3.1-8.2-3.1-11.3,0s-3.1,8.2,0,11.3l42.8,42.8
			c1.6,1.6,3.6,2.3,5.7,2.3c2.1,0,4.1-0.8,5.7-2.3l77-77C-164.1,325.7-164.1,320.6-167.2,317.5z"/>
	</g>
</g>
</symbol><symbol id="icon-purse" viewBox="-223 53.5 512 455">
<g>
	<g>
		<path d="M266.5,243.5H259V221v-80c0-26.2-21.3-47.5-47.5-47.5H5.5l-139-39.7c0,0-0.1,0-0.1,0c0,0-0.1,0-0.1,0c-0.1,0-0.2,0-0.3,0
			c-0.1,0-0.3-0.1-0.4-0.1c-0.1,0-0.2,0-0.3,0c-0.1,0-0.3,0-0.4,0c-0.1,0-0.2,0-0.3,0c-0.1,0-0.3,0-0.4,0c-0.1,0-0.2,0-0.3,0
			c-0.1,0-0.3,0-0.4,0c-0.1,0-0.2,0-0.3,0c-0.1,0-0.3,0.1-0.4,0.1c-0.1,0-0.2,0-0.3,0.1c-0.1,0-0.3,0.1-0.4,0.1
			c-0.1,0-0.2,0.1-0.2,0.1c-0.1,0.1-0.3,0.1-0.4,0.2c-0.1,0-0.1,0.1-0.2,0.1c-0.1,0.1-0.3,0.1-0.4,0.2c-0.1,0-0.1,0.1-0.2,0.1
			c-0.1,0.1-0.3,0.2-0.4,0.3c-0.1,0-0.1,0.1-0.2,0.2c-0.1,0.1-0.2,0.2-0.4,0.3c-0.1,0.1-0.1,0.1-0.2,0.2c-0.1,0.1-0.2,0.2-0.3,0.3
			c-0.1,0.1-0.1,0.1-0.2,0.2c-0.1,0.1-0.2,0.2-0.3,0.3c-0.1,0.1-0.1,0.2-0.2,0.3c-0.1,0.1-0.2,0.2-0.2,0.3c-0.1,0.1-0.1,0.2-0.2,0.3
			c-0.1,0.1-0.1,0.2-0.2,0.3c-0.1,0.1-0.1,0.2-0.2,0.3c-0.1,0.1-0.1,0.2-0.1,0.3c0,0.1-0.1,0.2-0.1,0.4c0,0.1-0.1,0.2-0.1,0.2
			c0,0,0,0.1,0,0.1c0,0,0,0.1,0,0.1l-8.6,34.3h-24.1c-26.1,0-47.4,21.2-47.5,47.3c0,0.1,0,0.1,0,0.2v260c0,4.1,3.4,7.5,7.5,7.5
			c4.1,0,7.5-3.4,7.5-7.5V175.6c8.5,8,19.9,12.9,32.5,12.9h387c0,0,0,0,0,0c17.9,0,32.5,14.6,32.5,32.5v52.5h-82.5c0,0,0,0,0,0
			c-0.2,0-0.4,0-0.6,0c-0.2,0-0.5,0.1-0.7,0.1c0,0-0.1,0-0.1,0c-0.2,0-0.4,0.1-0.6,0.1c0,0-0.1,0-0.1,0c-0.2,0.1-0.3,0.1-0.5,0.2
			c-0.1,0-0.1,0-0.2,0.1c-0.1,0.1-0.3,0.1-0.4,0.2c-0.1,0-0.2,0.1-0.3,0.1c-0.1,0.1-0.2,0.1-0.3,0.2c-0.1,0.1-0.2,0.1-0.3,0.2
			c-0.1,0-0.1,0.1-0.2,0.2c-0.1,0.1-0.3,0.2-0.4,0.3c-0.1,0-0.1,0.1-0.2,0.1c-0.1,0.1-0.3,0.2-0.4,0.4c-0.1,0.1-0.1,0.2-0.2,0.2
			c-0.1,0.1-0.2,0.2-0.3,0.3c-0.2,0.2-0.3,0.4-0.4,0.6c0,0,0,0,0,0l-40,60c-0.3,0.4-0.5,0.9-0.7,1.3c-0.1,0.2-0.1,0.3-0.2,0.5
			c0,0.1,0,0.1-0.1,0.2c-0.1,0.2-0.1,0.4-0.1,0.6c0,0,0,0.1,0,0.1c0,0.2-0.1,0.3-0.1,0.5c0,0.1,0,0.1,0,0.2c0,0.1,0,0.3,0,0.4
			c0,0.1,0,0.2,0,0.3c0,0.1,0,0.2,0,0.3c0,0.1,0,0.3,0,0.4c0,0.1,0,0.1,0,0.2c0,0.2,0,0.3,0.1,0.5c0,0,0,0.1,0,0.1
			c0,0.2,0.1,0.4,0.1,0.6c0,0.1,0,0.1,0.1,0.2c0.1,0.2,0.1,0.3,0.2,0.5c0.2,0.5,0.4,0.9,0.7,1.3l40,60c0,0,0,0,0,0
			c0.2,0.2,0.3,0.5,0.5,0.7c0.1,0.1,0.1,0.1,0.2,0.2c0.1,0.1,0.3,0.3,0.4,0.4c0.1,0.1,0.2,0.1,0.2,0.2c0.1,0.1,0.3,0.2,0.5,0.4
			c0.1,0.1,0.1,0.1,0.2,0.2c0.2,0.2,0.5,0.3,0.7,0.4c0.1,0,0.1,0.1,0.2,0.1c0.2,0.1,0.4,0.2,0.6,0.3c0.1,0,0.2,0.1,0.2,0.1
			c0.2,0.1,0.4,0.1,0.6,0.2c0.1,0,0.2,0,0.2,0.1c0.2,0,0.4,0.1,0.6,0.1c0.1,0,0.2,0,0.2,0c0.3,0,0.5,0,0.8,0c0,0,0,0,0.1,0
			c0,0,0,0,0,0H244V461c0,17.9-14.6,32.5-32.5,32.5h-387c-17.9,0-32.5-14.6-32.5-32.5c0,0,0-0.1,0-0.1V431c0-4.1-3.4-7.5-7.5-7.5
			c-4.1,0-7.5,3.4-7.5,7.5v30c0,0.1,0,0.2,0,0.2c0.1,26.1,21.4,47.3,47.5,47.3h387c26.2,0,47.5-21.3,47.5-47.5c0,0,0,0,0,0v-52.5
			h7.5c12.4,0,22.5-10.1,22.5-22.5V266C289,253.6,278.9,243.5,266.5,243.5z M-130.1,70.3L2.2,108.1c0,0,0,0,0,0L91,133.5h-236.8
			L-130.1,70.3z M244,186.4c-8.5-8-19.9-12.9-32.5-12.9c0,0,0,0,0,0h-387c-17.9,0-32.5-14.6-32.5-32.5s14.6-32.5,32.5-32.5h20.4
			l-6.3,25h-14.1c-4.1,0-7.5,3.4-7.5,7.5s3.4,7.5,7.5,7.5h20c0,0,0,0,0,0c0,0,0,0,0,0h299.9c0,0,0,0,0,0c0,0,0,0,0,0h57
			c4.1,0,7.5-3.4,7.5-7.5s-3.4-7.5-7.5-7.5h-55.9l-87.5-25h153.5c17.9,0,32.5,14.6,32.5,32.5V186.4z M274,386L274,386
			c0,4.1-3.4,7.5-7.5,7.5h-101l-35-52.5l35-52.5h101c0.1,0,0.2,0,0.3,0c2.5,0,4.9-0.5,7.2-1.3L274,386L274,386z M266.5,273.5
			c-0.1,0-0.1,0-0.2,0H259v-15h7.5c4.1,0,7.5,3.4,7.5,7.5S270.6,273.5,266.5,273.5z"/>
	</g>
</g>
<g>
	<g>
		<path d="M191.5,313.5c-15.2,0-27.5,12.3-27.5,27.5s12.3,27.5,27.5,27.5S219,356.2,219,341C219,325.8,206.7,313.5,191.5,313.5z
			 M191.5,353.5c-6.9,0-12.5-5.6-12.5-12.5s5.6-12.5,12.5-12.5S204,334.1,204,341S198.4,353.5,191.5,353.5z"/>
	</g>
</g>
</symbol><symbol id="icon-quality" viewBox="0 0 512 512">
<g>
	<g>
		<path d="M392.327,226.071c0-16.209-13.186-29.394-29.395-29.394H308.91c13.125-14.753,21.703-31.552,23.36-46.623
			c1.012-9.205-1.832-18.342-7.805-25.069c-5.459-6.149-12.924-9.576-21.02-9.651c-0.094-0.001-0.188-0.001-0.281-0.001
			c-7.831,0-15.181,3.016-20.728,8.512c-5.548,5.497-8.618,12.82-8.654,20.635c-0.285,1.711-3.295,7.61-10.66,14.614
			c-6.03,5.736-16.446,13.621-31.825,18.614c-6.03,1.958-11.541,5.563-16.379,10.715c-2.539,2.702-6.341,6.434-11.048,10.18
			c-2.31-1.224-4.937-1.924-7.728-1.924h-51.307c-9.136,0-16.568,7.432-16.568,16.568v136.818c0,9.136,7.432,16.568,16.568,16.568
			h51.307c6.228,0,11.659-3.458,14.489-8.551h130.923c13.851,0,25.119-11.268,25.119-25.119c0-4.657-1.273-9.021-3.491-12.765
			c7.217-4.418,12.042-12.376,12.042-21.44c0-4.657-1.273-9.021-3.491-12.765c7.217-4.418,12.042-12.376,12.042-21.44
			c0-5.242-1.614-10.114-4.371-14.146C387.197,245.114,392.327,236.18,392.327,226.071z M362.932,239.432h-4.276
			c-4.427,0-8.017,3.589-8.017,8.017c0,4.427,3.589,8.017,8.017,8.017c5.01,0,9.086,4.076,9.086,9.086s-4.076,9.086-9.086,9.086
			h-8.551c-4.427,0-8.017,3.589-8.017,8.017c0,4.427,3.589,8.017,8.017,8.017c5.01,0,9.086,4.076,9.086,9.086
			c0,5.01-4.076,9.086-9.086,9.086h-8.551c-4.427,0-8.017,3.589-8.017,8.017c0,4.427,3.589,8.017,8.017,8.017
			c5.01,0,9.086,4.076,9.086,9.086c0,5.01-4.076,9.086-9.086,9.086H212.71v-77.495c0-4.427-3.589-8.017-8.017-8.017
			s-8.017,3.589-8.017,8.017v85.511c0,0.295-0.239,0.534-0.534,0.534h-51.307c-0.295,0-0.534-0.239-0.534-0.534V213.244
			c0-0.295,0.239-0.534,0.534-0.534h51.307c0.295,0,0.534,0.239,0.534,0.534v17.103c0,4.427,3.589,8.017,8.017,8.017
			s8.017-3.589,8.017-8.017v-17.103c0-0.389-0.032-0.77-0.059-1.152c6.011-4.653,10.818-9.357,13.954-12.695
			c2.967-3.161,6.211-5.327,9.642-6.44c18.87-6.126,31.569-15.99,38.898-23.186c9.186-9.019,14.669-18.421,14.669-25.152
			c0-3.556,1.387-6.889,3.906-9.385c2.55-2.527,5.927-3.862,9.576-3.867c4.494,0.042,7.47,2.341,9.177,4.263
			c2.926,3.295,4.366,8.033,3.857,12.672c-1.751,15.929-14.49,35.619-32.454,50.161c-2.639,2.137-3.646,5.705-2.513,8.906
			c1.133,3.201,4.161,5.341,7.557,5.341h74.01c7.368,0,13.361,5.993,13.361,13.361S370.299,239.432,362.932,239.432z"/>
	</g>
</g>
<g>
	<g>
		<path d="M170.489,316.306c-4.427,0-8.059,3.632-8.059,8.059c0,4.427,3.632,8.059,8.059,8.059c4.427,0,8.059-3.632,8.059-8.059
			C178.549,319.939,174.917,316.306,170.489,316.306z"/>
	</g>
</g>
<g>
	<g>
		<path d="M497.71,256l13.772-36.443c1.003-2.651,0.53-5.634-1.243-7.847l-24.359-30.404l1.836-38.915
			c0.134-2.83-1.238-5.523-3.606-7.078l-32.562-21.389l-10.278-37.578c-0.748-2.734-2.884-4.87-5.617-5.617l-37.578-10.278
			L376.686,27.89c-1.556-2.369-4.248-3.735-7.078-3.606l-38.915,1.836L300.289,1.761c-2.212-1.772-5.195-2.245-7.847-1.243
			l-36.443,13.772L219.558,0.519c-2.653-1.003-5.635-0.53-7.847,1.243l-30.404,24.359l-38.915-1.836
			c-2.844-0.134-5.523,1.238-7.078,3.606l-21.388,32.562L76.348,70.731c-2.734,0.748-4.87,2.884-5.617,5.617l-10.278,37.578
			l-32.562,21.388c-2.369,1.556-3.74,4.248-3.606,7.078l1.836,38.915L1.762,211.711c-1.772,2.212-2.245,5.195-1.243,7.847L14.29,256
			L0.518,292.442c-1.003,2.651-0.53,5.634,1.243,7.847l24.359,30.404l-1.836,38.915c-0.134,2.83,1.238,5.523,3.606,7.078
			l32.562,21.389l10.278,37.578c0.748,2.734,2.884,4.87,5.617,5.617l37.578,10.278l21.388,32.562
			c1.556,2.369,4.253,3.731,7.078,3.606l38.915-1.836l30.404,24.359c2.212,1.773,5.196,2.246,7.847,1.243l36.443-13.772
			l36.443,13.772c0.92,0.347,1.879,0.517,2.833,0.517c1.796,0,3.569-0.603,5.013-1.76l30.404-24.359l38.915,1.836
			c2.839,0.126,5.522-1.238,7.078-3.606l21.389-32.562l37.578-10.278c2.734-0.748,4.87-2.884,5.617-5.617l10.278-37.578
			l32.562-21.389c2.369-1.556,3.74-4.248,3.606-7.078l-1.836-38.915l24.359-30.404c1.772-2.212,2.245-5.195,1.243-7.847L497.71,256z
			 M481.641,258.834l13.226,34.999l-23.394,29.199c-1.221,1.523-1.844,3.44-1.752,5.39l1.764,37.373l-31.271,20.541
			c-1.631,1.071-2.817,2.702-3.332,4.586l-9.871,36.089l-36.089,9.871c-1.883,0.515-3.513,1.7-4.586,3.332l-20.541,31.271
			l-37.373-1.764c-1.951-0.09-3.867,0.531-5.39,1.752l-29.199,23.394l-34.999-13.226c-0.913-0.345-1.874-0.517-2.834-0.517
			c-0.96,0-1.921,0.173-2.834,0.517l-34.999,13.226l-29.199-23.394c-1.523-1.221-3.443-1.842-5.39-1.752l-37.373,1.764
			l-20.541-31.271c-1.071-1.631-2.702-2.817-4.586-3.332l-36.089-9.871l-9.871-36.089c-0.515-1.883-1.7-3.513-3.332-4.586
			l-31.271-20.541l1.764-37.373c0.092-1.951-0.531-3.867-1.752-5.39l-23.394-29.199l13.227-34.999c0.69-1.826,0.69-3.842,0-5.668
			l-13.227-34.999l23.394-29.199c1.221-1.523,1.844-3.44,1.752-5.39l-1.764-37.373l31.271-20.541
			c1.631-1.071,2.817-2.702,3.332-4.586l9.871-36.089l36.089-9.871c1.883-0.515,3.513-1.7,4.586-3.332l20.541-31.271l37.373,1.764
			c1.948,0.091,3.867-0.531,5.39-1.752l29.199-23.394l34.999,13.227c1.827,0.69,3.842,0.69,5.668,0l34.999-13.227l29.199,23.394
			c1.523,1.222,3.441,1.844,5.39,1.752l37.373-1.764l20.541,31.271c1.071,1.631,2.702,2.817,4.586,3.332l36.089,9.871l9.871,36.089
			c0.515,1.883,1.7,3.513,3.332,4.586l31.271,20.541l-1.764,37.373c-0.092,1.951,0.531,3.867,1.752,5.39l23.394,29.199
			l-13.227,34.999C480.951,254.993,480.951,257.008,481.641,258.834z"/>
	</g>
</g>
<g>
	<g>
		<path d="M406.634,117.574c-1.995-2.172-4.064-4.332-6.153-6.42c-2.089-2.088-4.248-4.158-6.42-6.153
			c-3.261-2.994-8.332-2.778-11.327,0.484c-2.994,3.261-2.778,8.333,0.484,11.327c2.003,1.84,3.997,3.75,5.925,5.678
			c1.927,1.927,3.838,3.922,5.679,5.926c1.581,1.722,3.741,2.595,5.908,2.595c1.937,0,3.88-0.698,5.419-2.111
			C409.411,125.907,409.628,120.835,406.634,117.574z"/>
	</g>
</g>
<g>
	<g>
		<path d="M365.592,83.125c-38.66-24.63-85.206-35.576-131.059-30.829c-46.525,4.82-90.395,25.722-123.531,58.857
			c-36.467,36.467-57.699,84.911-59.785,136.408C49.144,298.755,66.1,348.459,98.963,387.515c1.585,1.884,3.853,2.855,6.139,2.855
			c1.822,0,3.654-0.618,5.157-1.882c3.387-2.851,3.823-7.908,0.973-11.295c-30.281-35.989-45.905-81.795-43.995-128.982
			c1.922-47.462,21.49-92.11,55.101-125.72c30.54-30.541,70.972-49.806,113.846-54.247c42.275-4.38,85.171,5.709,120.792,28.403
			c3.735,2.379,8.689,1.281,11.068-2.453C370.424,90.459,369.325,85.504,365.592,83.125z"/>
	</g>
</g>
<g>
	<g>
		<path d="M428.511,146.043c-2.379-3.735-7.337-4.833-11.069-2.454c-3.735,2.379-4.832,7.335-2.453,11.068
			c22.694,35.622,32.781,78.52,28.403,120.792c-4.441,42.874-23.706,83.305-54.246,113.847
			c-33.611,33.61-78.259,53.179-125.72,55.101c-47.179,1.918-92.994-13.713-128.982-43.993c-3.387-2.851-8.444-2.415-11.295,0.973
			c-2.851,3.387-2.415,8.444,0.973,11.295c36.921,31.065,83.351,47.917,131.566,47.916c2.789,0,5.589-0.057,8.389-0.17
			c51.497-2.085,99.94-23.317,136.408-59.784c33.136-33.136,54.039-77.007,58.857-123.532
			C464.09,231.246,453.141,184.702,428.511,146.043z"/>
	</g>
</g>
<g>
</g>
<g>
</g>
<g>
</g>
<g>
</g>
<g>
</g>
<g>
</g>
<g>
</g>
<g>
</g>
<g>
</g>
<g>
</g>
<g>
</g>
<g>
</g>
<g>
</g>
<g>
</g>
<g>
</g>
</symbol><symbol id="icon-store" viewBox="-223 41.4 512 479.2">
<g>
	<g>
		<rect x="73.5" y="345.8" width="15" height="15"/>
	</g>
</g>
<g>
	<g>
		<rect x="105.5" y="345.8" width="15" height="15"/>
	</g>
</g>
<g>
	<g>
		<rect x="138.6" y="345.8" width="15" height="15"/>
	</g>
</g>
<g>
	<g>
		<path d="M8.4,442V217.7h-143.2V442h-25V184.6h-15V442H-223v15h352.5v-15H8.4z M-6.7,442h-113.2V232.7H-6.7V442z"/>
	</g>
</g>
<g>
	<g>
		<rect x="-38.7" y="320.8" width="15" height="32"/>
	</g>
</g>
<g>
	<g>
		<path d="M240.7,381.4v-340H-154l-69,68v3.1c0,30.7,25.2,55.6,55.8,55.6c20.5,0,38.6-11.2,48.2-27.7c9.6,16.6,27.6,27.7,48.1,27.7
			s38.5-11.2,48.1-27.7c9.6,16.6,27.6,27.7,48.1,27.7s38.4-11.2,48.1-27.7c9.6,16.6,27.6,27.7,48.1,27.7c29.6,0,53.6-23.2,55.2-52.4
			l48.9-49.2v311.4c-2-0.3-5.4-0.5-8.3-0.5c-39.5,0-71.5,32.1-71.5,71.6s32.2,71.6,71.7,71.6S289,488.5,289,449
			C289,417.8,268.8,391.1,240.7,381.4z M-166.9,153.6c-19.8,0-36.3-15-39.9-33.1h79.7C-130.6,138.5-147.1,153.6-166.9,153.6z
			 M-122,105.5h-74.9l49.1-49.1h74.9L-122,105.5z M-70.8,153.6c-19.8,0-36.3-15-39.9-33.1h79.7C-34.4,138.5-51,153.6-70.8,153.6z
			 M-25.8,105.5h-74.9l49.1-49.1h74.9L-25.8,105.5z M25.4,153.6c-19.8,0-36.3-15-39.9-33.1h79.7C61.7,138.5,45.2,153.6,25.4,153.6z
			 M70.3,105.5H-4.6l49.1-49.1h74.9L70.3,105.5z M121.5,153.6c-19.8,0-36.3-15-39.9-33.1h79.7C157.8,138.5,141.3,153.6,121.5,153.6z
			 M166.5,105.5H91.6l49.1-49.1h74.9L166.5,105.5z M217.7,505.6c-31.2,0-56.6-25.4-56.6-56.6s25.4-56.6,56.6-56.6
			s56.6,25.4,56.6,56.6S248.9,505.6,217.7,505.6z"/>
	</g>
</g>
<g>
	<g>
		<polygon points="248.4,419.7 205.7,462.4 186.9,443.7 176.3,454.3 205.7,483.7 259,430.3 		"/>
	</g>
</g>
<g>
	<g>
		<path d="M184.6,313.8v-96.1H41.4v96.1h-16v15h176.3v-15H184.6z M120.5,232.7h17v17h-17V232.7z M88.5,232.7h17v17h-17V232.7z
			 M56.4,232.7h17v17h-17V232.7z M169.6,313.8H56.4v-49.1h113.2V313.8z M169.6,249.7h-17v-17h17V249.7z"/>
	</g>
</g>
</symbol><symbol id="icon-chandeliers" viewBox="-238 41 416 480">
<path d="M-118,521c21.1,0,41.7-7,58.4-20c4.9,12.1,16.6,20,29.6,20s24.7-7.9,29.6-20c27.8,21.5,65.1,26,97.2,11.8
	c32.1-14.2,53.9-44.8,56.8-79.8H178v-16h-8v-64h-16v-8h-16v8h-16v64h-8v16h23.6c-2.9,29-21.3,54.2-48.2,65.6
	c-26.8,11.4-57.8,7.3-80.7-10.7c27.5-13.5,46-40.4,48.9-70.9H82v-16h-8v-64H58v-8H42v8H26v64h-8v16h23.5
	c-3,26.5-20.4,49.1-45.1,58.9C-15.5,461.6-22,443.6-22,425V216.2C-6.3,213,6,200.7,9.2,185H34c4.4,0,8-3.6,8-8s-3.6-8-8-8H9.2
	C6,153.3-6.3,141-22,137.8V105h8c13.3,0,24-10.7,24-24S-0.7,57-14,57h-8V41h-16v16h-8c-13.3,0-24,10.7-24,24s10.7,24,24,24h8v32.8
	c-15.7,3.2-28,15.5-31.2,31.2H-94c-4.4,0-8,3.6-8,8s3.6,8,8,8h24.8c3.2,15.7,15.5,28,31.2,31.2V425c0,18.6-6.5,36.6-18.4,50.9
	c-24.8-9.8-42.1-32.5-45.1-58.9H-78v-16h-8v-64h-16v-8h-16v8h-16v64h-8v16h24.4c2.8,30.5,21.3,57.4,48.9,70.9
	c-22.9,18-53.9,22.1-80.7,10.7c-26.8-11.4-45.3-36.6-48.2-65.6h23.6v-16h-8v-64h-16v-8h-16v8h-16v64h-8v16h24.4
	C-209.4,482.7-167.9,520.9-118,521z M138,369h16v48h-16V369z M42,353h16v48H42V353z M-54,81c0-4.4,3.6-8,8-8h32c4.4,0,8,3.6,8,8
	s-3.6,8-8,8h-32C-50.4,89-54,85.4-54,81z M-22,199.5V185h14.5C-9.9,191.8-15.2,197.1-22,199.5z M-7.5,169H-22v-14.5
	C-15.2,156.9-9.9,162.2-7.5,169z M-38,154.5V169h-14.5C-50.1,162.2-44.8,156.9-38,154.5z M-52.5,185H-38v14.5
	C-44.8,197.1-50.1,191.8-52.5,185z M-118,353h16v48h-16V353z M-30,505c-6.2,0-11.9-3.6-14.5-9.3c9.6,1.7,19.4,1.7,29,0
	C-18.1,501.4-23.8,505-30,505z M-30,463.3c2.6,6,5.9,11.7,9.6,17c-6.4,1-12.9,1-19.3,0C-35.9,474.9-32.6,469.2-30,463.3z M-214,369
	h16v48h-16V369z"/>
<path d="M-3.7,214.7l11.3-11.3l16,16l-11.3,11.3L-3.7,214.7z"/>
<path d="M28.3,246.7l11.3-11.3l16,16l-11.3,11.3L28.3,246.7z"/>
<path d="M60.3,278.7l11.3-11.3l16,16l-11.3,11.3L60.3,278.7z"/>
<path d="M92.3,310.7l11.3-11.3l16,16l-11.3,11.3L92.3,310.7z"/>
<path d="M-83.7,219.3l16-16l11.3,11.3l-16,16L-83.7,219.3z"/>
<path d="M-115.7,251.3l16-16l11.3,11.3l-16,16L-115.7,251.3z"/>
<path d="M-147.7,283.3l16-16l11.3,11.3l-16,16L-147.7,283.3z"/>
<path d="M-179.7,315.3l16-16l11.3,11.3l-16,16L-179.7,315.3z"/>
</symbol><symbol id="icon-discount" viewBox="-223.5 25 504.4 512">
<path d="M28.7,25c12,0,20.3,9.5,28.5,18.9c4.9,5.6,9.7,11.1,12.6,11.6c3,0.6,9.5-3.1,16-6.6c10.7-5.9,21.3-11.8,32.2-7.8
	c11,4.1,15.1,15.6,19.2,27.1c2.4,6.8,4.8,13.6,7.2,14.9c2.3,1.4,9.4,0.1,16.5-1.1c11.9-2.1,23.9-4.2,32.7,3.3
	c8.8,7.4,8.8,19.6,8.7,31.7c0,7.2-0.1,14.3,1.7,16.4c1.7,2.1,8.8,3.2,15.8,4.4c12,2,24,4,29.9,14.1c5.9,10,1.8,21.4-2.2,32.8
	c-2.4,6.9-4.9,13.8-3.9,16.4c1,2.6,7.2,6.3,13.5,9.9c10.6,6.2,21.3,12.4,23.5,24.1c2.1,11.5-5.5,21-13.2,30.7
	c-4.7,5.9-9.4,11.9-9.4,15.3c0,3.4,4.7,9.4,9.4,15.3c7.7,9.6,15.2,19.2,13.2,30.7c-2.1,11.7-12.8,17.9-23.5,24.1
	c-6.3,3.6-12.5,7.3-13.5,9.9c-1,2.6,1.5,9.5,3.9,16.4c4.1,11.4,8.1,22.8,2.2,32.8c-5.9,10-17.9,12-29.9,14.1
	c-7.1,1.2-14.1,2.4-15.8,4.4c-1.7,2.1-1.7,9.2-1.7,16.4c0.1,12.1,0.1,24.3-8.7,31.7c-8.9,7.5-20.8,5.4-32.7,3.3
	c-7.1-1.2-14.2-2.5-16.5-1.1c-2.3,1.4-4.7,8.1-7.2,14.9c-4.1,11.5-8.2,23-19.2,27.1c-10.9,4-21.5-1.9-32.2-7.8
	c-6.5-3.6-12.9-7.2-16-6.6c-3,0.5-7.8,6-12.6,11.6C49,527.5,40.7,537,28.7,537c-12,0-20.3-9.5-28.5-18.9
	c-4.9-5.6-9.7-11.1-12.6-11.6c-3-0.6-9.5,3.1-16,6.6c-10.7,5.9-21.3,11.8-32.2,7.8c-11-4.1-15.1-15.6-19.2-27.1
	c-2.4-6.8-4.8-13.6-7.2-14.9s-9.4-0.1-16.5,1.1c-11.9,2.1-23.9,4.2-32.7-3.3c-8.8-7.4-8.8-19.6-8.7-31.7c0-7.2,0.1-14.3-1.7-16.4
	c-1.7-2.1-8.8-3.2-15.8-4.4c-12-2-24-4-29.9-14.1c-5.9-10-1.8-21.4,2.2-32.8c2.4-6.9,4.9-13.8,3.9-16.4c-1-2.6-7.2-6.3-13.5-9.9
	c-10.6-6.2-21.3-12.4-23.5-24.1c-2.1-11.5,5.5-21,13.2-30.7c4.7-5.9,9.4-11.9,9.4-15.3c0-3.4-4.7-9.4-9.4-15.3
	c-7.7-9.6-15.2-19.2-13.2-30.7c2.1-11.7,12.8-17.9,23.5-24.1c6.3-3.7,12.5-7.3,13.5-9.9c1-2.6-1.5-9.5-3.9-16.4
	c-4.1-11.4-8.1-22.8-2.2-32.8c5.9-10,17.9-12,29.9-14.1c7.1-1.2,14.1-2.4,15.8-4.4c1.7-2.1,1.7-9.2,1.7-16.4
	c-0.1-12.1-0.1-24.3,8.7-31.7c8.9-7.5,20.8-5.4,32.7-3.3c7.1,1.2,14.2,2.5,16.5,1.1c2.3-1.4,4.7-8.1,7.2-14.9
	c4.1-11.5,8.2-23,19.2-27.1c10.9-4,21.5,1.9,32.2,7.8c6.5,3.6,12.9,7.2,16,6.6c3-0.5,7.8-6,12.6-11.6C8.4,34.5,16.7,25,28.7,25z
	 M152.6,154.2c-5.5,0-10,4.5-10,10c0,2.5,0.9,4.7,2.4,6.5v0l0,0l0,0c0.2,0.2,0.4,0.5,0.6,0.7C172.5,200,189,238.6,189,281
	c0,44.3-17.9,84.4-47,113.4c-29,29-69.1,47-113.4,47c-19,0-37.1-3.3-54-9.3c-0.3-0.1-0.6-0.2-0.9-0.3l0,0v0
	c-0.9-0.3-1.9-0.4-2.9-0.4c-5.5,0-10,4.5-10,10c0,4.5,3,8.4,7.1,9.6c19,6.8,39.4,10.5,60.7,10.5c49.8,0,94.9-20.2,127.5-52.8
	C188.8,375.9,209,330.8,209,281c0-47.6-18.5-91-48.7-123.2C158.5,155.6,155.7,154.2,152.6,154.2z M122.4,128.8c-5.5,0-10,4.5-10,10
	c0,5.5,4.5,10,10,10c5.5,0,10-4.5,10-10C132.4,133.3,128,128.8,122.4,128.8z M90,111.4c-19.1-6.9-39.8-10.7-61.3-10.7
	c-49.8,0-94.9,20.2-127.5,52.8c-32.6,32.6-52.8,77.7-52.8,127.5c0,47.5,18.4,90.8,48.5,123c1.8,2.2,4.6,3.6,7.7,3.6
	c5.5,0,10-4.5,10-10c0-2.5-0.9-4.7-2.4-6.4v0l0,0c-0.2-0.2-0.4-0.4-0.6-0.7c-26.8-28.7-43.2-67.1-43.2-109.4
	c0-44.3,17.9-84.4,47-113.4c29-29,69.1-47,113.4-47c19.1,0,37.5,3.4,54.5,9.5h0c1.2,0.5,2.5,0.8,3.9,0.8c5.5,0,10-4.5,10-10
	C97.1,116.4,94.1,112.6,90,111.4z M-65.1,413.2c-5.5,0-10,4.5-10,10s4.5,10,10,10c5.5,0,10-4.5,10-10S-59.5,413.2-65.1,413.2z
	 M-29.5,182.7c-11.5,0-21.8,4.6-29.4,12.2c-7.5,7.5-12.2,17.9-12.2,29.4c0,11.5,4.6,21.8,12.2,29.4c7.5,7.5,17.9,12.2,29.4,12.2
	s21.8-4.6,29.4-12.2c7.5-7.5,12.2-17.9,12.2-29.4c0-11.5-4.6-21.8-12.2-29.4C-7.7,187.4-18.1,182.7-29.5,182.7z M-14.3,209
	c-3.9-3.9-9.3-6.3-15.2-6.3c-5.9,0-11.3,2.4-15.2,6.3s-6.3,9.3-6.3,15.2c0,5.9,2.4,11.3,6.3,15.2c3.9,3.9,9.3,6.3,15.2,6.3
	c6,0,11.3-2.4,15.2-6.3s6.3-9.3,6.3-15.2C-8,218.3-10.4,212.9-14.3,209z M78.6,187.2L-37.8,363.8c-3,4.6-1.7,10.8,2.8,13.8
	s10.8,1.7,13.8-2.8L95.2,198.2c3-4.6,1.7-10.8-2.8-13.8S81.6,182.7,78.6,187.2z M86.9,296.2c-11.5,0-21.8,4.6-29.4,12.2
	c-7.5,7.5-12.2,17.9-12.2,29.4c0,11.5,4.6,21.8,12.2,29.4c7.5,7.5,17.9,12.2,29.4,12.2s21.8-4.6,29.4-12.2
	c7.5-7.5,12.2-17.9,12.2-29.4s-4.6-21.8-12.2-29.4C108.8,300.9,98.4,296.2,86.9,296.2z M102.1,322.5c-3.9-3.9-9.3-6.3-15.2-6.3
	c-6,0-11.3,2.4-15.2,6.3s-6.3,9.3-6.3,15.2c0,6,2.4,11.3,6.3,15.2s9.3,6.3,15.2,6.3c5.9,0,11.3-2.4,15.2-6.3
	c3.9-3.9,6.3-9.3,6.3-15.2C108.5,331.8,106.1,326.4,102.1,322.5z M42.3,57C37,51,31.7,45,28.7,45c-3.1,0-8.3,6-13.6,12
	C8,65.2,0.9,73.3-9,75.1c-10,1.8-19.6-3.5-29.2-8.8c-6.7-3.7-13.3-7.4-15.5-6.5c-2.2,0.8-4.8,8-7.4,15.2
	c-3.6,10.2-7.3,20.3-15.9,25.4c-8.7,5.1-19.4,3.2-30,1.4c-7.4-1.3-14.7-2.6-16.4-1.2c-1.7,1.5-1.7,8.9-1.7,16.4
	c0.1,10.8,0.1,21.7-6.3,29.3c-6.4,7.6-17.1,9.4-27.8,11.2c-7.4,1.2-14.8,2.5-16,4.5c-1.1,2,1.4,9,3.9,16.1c3.6,10.2,7.3,20.5,3.7,30
	c-3.5,9.4-12.8,14.8-22.2,20.2c-6.7,3.9-13.4,7.8-13.9,10.4c-0.5,2.6,4.3,8.7,9.2,14.8c6.9,8.7,13.8,17.4,13.8,27.7
	c0,10.3-6.9,19-13.8,27.7c-4.8,6.1-9.7,12.1-9.2,14.8c0.5,2.6,7.2,6.5,13.9,10.4c9.4,5.4,18.7,10.9,22.2,20.2
	c3.5,9.5-0.1,19.7-3.7,30c-2.5,7.1-5,14.2-3.9,16.1c1.2,2,8.6,3.2,16,4.5c10.7,1.8,21.4,3.6,27.8,11.2c6.4,7.6,6.4,18.5,6.3,29.3
	c0,7.5-0.1,14.9,1.7,16.4c1.7,1.4,9,0.1,16.4-1.2c10.7-1.9,21.3-3.7,30,1.4c8.6,5.1,12.3,15.2,15.9,25.4c2.6,7.2,5.1,14.3,7.4,15.2
	c2.3,0.8,8.9-2.8,15.5-6.5c9.6-5.3,19.2-10.6,29.2-8.8c9.9,1.8,17,9.9,24.1,18.1c5.2,6,10.5,12,13.6,12c3.1,0,8.3-6,13.6-12
	c7.2-8.2,14.3-16.3,24.1-18.1c10-1.8,19.6,3.5,29.2,8.8c6.7,3.7,13.3,7.4,15.5,6.5c2.2-0.8,4.8-8,7.4-15.2
	c3.6-10.2,7.3-20.3,15.9-25.4c8.7-5.1,19.4-3.2,30-1.4c7.4,1.3,14.7,2.6,16.4,1.2c1.7-1.5,1.7-8.9,1.7-16.4
	c-0.1-10.8-0.1-21.7,6.3-29.3c6.4-7.6,17.1-9.4,27.8-11.2c7.4-1.2,14.8-2.5,16-4.5c1.1-2-1.4-9-3.9-16.1c-3.6-10.2-7.3-20.5-3.7-30
	c3.5-9.4,12.8-14.8,22.2-20.2c6.7-3.9,13.4-7.8,13.9-10.4c0.5-2.6-4.3-8.7-9.2-14.8C244.9,300,238,291.3,238,281
	c0-10.3,6.9-19,13.8-27.7c4.8-6.1,9.7-12.2,9.2-14.8c-0.5-2.6-7.2-6.5-13.9-10.4c-9.4-5.4-18.7-10.9-22.2-20.2
	c-3.5-9.5,0.1-19.7,3.7-30c2.5-7.1,5-14.2,3.9-16.1c-1.2-2-8.6-3.2-16-4.5c-10.7-1.8-21.4-3.6-27.8-11.2c-6.4-7.6-6.4-18.5-6.3-29.3
	c0-7.5,0.1-14.9-1.7-16.4c-1.7-1.4-9-0.1-16.4,1.2c-10.7,1.9-21.3,3.7-30-1.4c-8.6-5.1-12.3-15.2-15.9-25.4
	c-2.6-7.2-5.1-14.3-7.4-15.2c-2.3-0.8-8.9,2.8-15.5,6.5c-9.6,5.3-19.2,10.6-29.2,8.8C56.5,73.3,49.4,65.2,42.3,57z"/>
</symbol><symbol id="icon-floor-lamps" viewBox="-223 25 265.7 512">
<path d="M41.3,206.8C32.3,188.7,2.7,124-2.7,50.6C-3.8,36.2-15.9,25-30.2,25h-119.8c-14.4,0-26.4,11.2-27.5,25.6
	c-5.5,73.4-35.1,138.2-44,156.3c-2.1,4.3-1.9,9.3,0.6,13.4c2.5,4.1,6.9,6.5,11.7,6.5h109.1v65.8c-14.4,4.3-25,17.7-25,33.5
	c0,15.8,10.6,29.2,25,33.5v115.3h-36.3c-23.4,0-42.4,18.8-42.8,42.1h-21.9c-5.5,0-10,4.5-10,10c0,5.5,4.5,10,10,10H20.8
	c5.5,0,10-4.5,10-10c0-5.5-4.5-10-10-10H-1.1c-0.3-23.3-19.4-42.1-42.8-42.1h-36.3V359.6c14.4-4.3,25-17.7,25-33.5
	c0-15.8-10.6-29.2-25-33.5v-65.8H28.9c4.8,0,9.2-2.4,11.7-6.5S43.4,211.1,41.3,206.8z M-21.1,517h-138.2
	c0.3-12.3,10.4-22.1,22.7-22.1h92.7C-31.5,494.9-21.4,504.7-21.1,517z M-75.1,326c0,8.3-6.7,15-15,15s-15-6.7-15-15s6.7-15,15-15
	S-75.1,317.8-75.1,326z M-157.6,52.1c0.3-4,3.6-7.1,7.6-7.1h24.9c-2.6,55.7-25.4,137.4-32.5,161.7h-41.7
	C-187.1,180.2-162.6,119.7-157.6,52.1z M-22.7,206.7c-3.2-11.1-9.8-34.1-16.1-61c-1.3-5.4-6.7-8.7-12-7.4c-5.4,1.3-8.7,6.6-7.4,12
	c5.5,23.4,11.1,43.9,14.7,56.5h-93.3c8.7-30.3,29.3-106.8,31.7-161.7h29.9c0.3,7.3,1,15.3,2,23.9c0.6,5.5,5.6,9.4,11.1,8.8
	c5.5-0.6,9.4-5.6,8.8-11.1c-0.9-7.7-1.5-15-1.8-21.6h24.9c3.9,0,7.3,3.1,7.6,7.1c5,67.7,29.5,128.2,41.8,154.7H-22.7z"/>
<path d="M-56.8,98.9c-5.5,0-10,4.5-10,10v0c0,5.5,4.5,10,10,10s10-4.5,10-10S-51.3,98.9-56.8,98.9z"/>
</symbol><symbol id="icon-glass-holders" viewBox="-223 25 512 512">
<g>
	<g>
		<g>
			<path d="M214,100C165.7,51.6,101.4,25,33,25s-132.7,26.6-181,75c-48.4,48.4-75,112.6-75,181s26.6,132.7,75,181
				c48.4,48.4,112.6,75,181,75s132.7-26.6,181-75c48.4-48.4,75-112.6,75-181S262.4,148.3,214,100z M203.3,451.3
				C157.8,496.7,97.3,521.8,33,521.8s-124.8-25-170.3-70.5c-45.5-45.5-70.5-105.9-70.5-170.3s25-124.8,70.5-170.3
				C-91.8,65.3-31.3,40.2,33,40.2s124.8,25,170.3,70.5c45.5,45.5,70.5,105.9,70.5,170.3S248.7,405.8,203.3,451.3z"/>
			<path d="M237.6,185.6l-13.8,6.4c13,27.8,19.6,57.8,19.6,88.9h15.2C258.6,247.6,251.5,215.5,237.6,185.6z"/>
			<path d="M192.5,121.5C149.9,78.9,93.3,55.4,33,55.4v15.2c56.2,0,109,21.9,148.8,61.6c12.9,12.9,24,27.3,33.1,42.8l13.1-7.7
				C218.2,150.7,206.3,135.3,192.5,121.5z"/>
			<path d="M33,106.1c-96.4,0-174.9,78.5-174.9,174.9c0,42.9,15.7,84.2,44.3,116.2l11.4-10.1c-26.1-29.3-40.5-67-40.5-106.1
				c0-88.1,71.6-159.7,159.7-159.7S192.7,192.9,192.7,281S121,440.7,33,440.7c-39,0-76.5-14.2-105.7-40.1l-10.1,11.4
				c32,28.3,73.1,43.9,115.8,43.9c96.4,0,174.9-78.5,174.9-174.9S129.4,106.1,33,106.1z"/>
			<path d="M33,410.3v15.2c79.7,0,144.5-64.8,144.5-144.5S112.7,136.5,33,136.5v15.2c71.3,0,129.3,58,129.3,129.3
				S104.3,410.3,33,410.3z"/>
		</g>
	</g>
</g>
</symbol><symbol id="icon-glasses" viewBox="-231 41 464 480">
<g>
	<g>
		<path d="M-143.8,505h-24V300.3l30.6-30.6c11.2-11.2,17.2-26.5,16.6-42.3l-7.1-178.7c-0.2-4.3-3.7-7.7-8-7.7h-80
			c-4.3,0-7.8,3.4-8,7.7l-7.2,178.7c-0.6,15.8,5.4,31.1,16.6,42.3l30.6,30.6V505h-24c-4.4,0-8,3.6-8,8c0,4.4,3.6,8,8,8h64
			c4.4,0,8-3.6,8-8C-135.8,508.6-139.4,505-143.8,505z M-203.1,258.4c-8-8-12.3-19-11.9-30.4l6.9-171h64.6l6.8,171
			c0.4,11.3-3.9,22.4-11.9,30.4l-27.3,27.3L-203.1,258.4z"/>
	</g>
</g>
<g>
	<g>
		<path d="M41,505H-7V297c0-0.1-0.1-0.2-0.1-0.4c45.6-4.1,80.5-42.5,80.1-88.3l-8-96c-0.3-4.2-3.8-7.3-8-7.3H-87
			c-4.2,0-7.7,3.2-8,7.3l-8,96.7c0,45.5,34.7,83.5,80.1,87.6c0,0.1-0.1,0.2-0.1,0.4v208h-48c-4.4,0-8,3.6-8,8c0,4.4,3.6,8,8,8H41
			c4.4,0,8-3.6,8-8C49,508.6,45.4,505,41,505z M-65.9,259.9L-65.9,259.9c-13.4-13.3-21-31.4-21.1-50.2l7.4-88.7H49.6l7.4,88
			c0,39.8-32.2,72-72,72C-34.1,281-52.4,273.4-65.9,259.9z"/>
	</g>
</g>
<g>
	<g>
		<path d="M32.9,208l-8-64c-0.5-4.4-4.5-7.5-8.9-6.9c0,0,0,0,0,0c-4.4,0.5-7.5,4.5-6.9,8.9l8,64c0.5,4,3.9,7,7.9,7
			c0.3,0,0.7,0,1-0.1C30.4,216.4,33.5,212.4,32.9,208z"/>
	</g>
</g>
<g>
	<g>
		<path d="M0.8,183.4C0.8,183.4,0.8,183.4,0.8,183.4l-8-40c-0.8-4.3-5-7.1-9.3-6.3c0,0-0.1,0-0.1,0c-4.3,0.9-7.1,5.1-6.2,9.4
			c0,0,0,0,0,0l8,40c0.8,3.7,4,6.4,7.8,6.4c0.5,0,1.1-0.1,1.6-0.2C-1.1,192,1.7,187.7,0.8,183.4z"/>
	</g>
</g>
<g>
	<g>
		<path d="M217,73H89c-4.4,0-8,3.6-8,8s3.6,8,8,8h128c4.4,0,8-3.6,8-8S221.4,73,217,73z"/>
	</g>
</g>
<g>
	<g>
		<path d="M212,305.1c-12.4-22.4-19-47.6-19-73.3v-9.5c0-13.4,1.8-26.8,5.3-39.7l18.4-67.5c1.2-4.3-1.4-8.7-5.6-9.8
			c-0.7-0.2-1.4-0.3-2.1-0.3H97c-4.4,0-8,3.6-8,8c0,0.7,0.1,1.4,0.3,2.1l18.4,67.5c3.5,12.9,5.3,26.3,5.3,39.7v9.5
			c0,25.6-6.6,50.9-19,73.3c-13.8,24.8-21,52.7-21,81.1V513c0,4.4,3.6,8,8,8h144c4.4,0,8-3.6,8-8V386.2
			C233,357.8,225.8,329.9,212,305.1z M217,473h-96c-4.4,0-8,3.6-8,8s3.6,8,8,8h96v16H89V386.2c0-25.6,6.6-50.9,19-73.3
			c13.8-24.8,21-52.7,21-81.1v-9.5c0-14.8-2-29.6-5.9-43.9L107.5,121h91l-15.6,57.4c-3.9,14.3-5.9,29.1-5.9,43.9v9.5
			c0,28.4,7.2,56.3,21,81.1c12.4,22.4,19,47.6,19,73.3V473z"/>
	</g>
</g>
<g>
	<g>
		<path d="M160.4,413.8l-24-56c-1.7-4.1-6.4-6-10.4-4.3c-4.1,1.7-6,6.4-4.3,10.4c0,0.1,0.1,0.1,0.1,0.2l24,56
			c1.3,2.9,4.2,4.8,7.4,4.8c1.1,0,2.2-0.2,3.2-0.6C160.2,422.6,162.1,417.9,160.4,413.8z"/>
	</g>
</g>
<g>
	<g>
		<path d="M128.2,421.4l-8-16c-2-4-6.8-5.6-10.7-3.6c-4,2-5.6,6.8-3.6,10.7l8,16c2,4,6.8,5.6,10.7,3.6
			C128.6,430.2,130.2,425.4,128.2,421.4z"/>
	</g>
</g>
<g>
	<g>
		<path d="M-167.8,81c-4.4,0-8,3.6-8,8v80c0,4.4,3.6,8,8,8s8-3.6,8-8V89C-159.8,84.6-163.4,81-167.8,81z"/>
	</g>
</g>
<g>
	<g>
		<path d="M-167.8,193c-4.4,0-8,3.6-8,8v8c0,4.4,3.6,8,8,8s8-3.6,8-8v-8C-159.8,196.6-163.4,193-167.8,193z"/>
	</g>
</g>
</symbol><symbol id="icon-souvenirs" viewBox="-238.9 41 447.9 480">
<path d="M-129.7,131.8l-10.4-12.1c-26.9,23.1-46.8,53.2-57.7,87l15.2,4.9C-172.7,180.6-154.3,153-129.7,131.8z"/>
<path d="M-91.4,106.6l-7-14.4c-8.5,4.1-16.8,8.9-24.6,14.3l9,13.2C-106.8,114.8-99.3,110.4-91.4,106.6z"/>
<path d="M-206.5,510.5c-0.8,2.4-0.4,5.1,1.1,7.2c1.5,2.1,3.9,3.3,6.5,3.3H169c2.6,0,5-1.2,6.5-3.3c1.5-2.1,1.9-4.8,1.1-7.2
	l-30.1-90.3c69.9-72.7,82.6-183.1,31-269.7S22.8,22.3-74.4,49c-97.2,26.8-164.5,115.2-164.5,216c-0.1,57.9,22.3,113.5,62.5,155.1
	L-206.5,510.5z M157.9,505h-345.7l26.7-80h292.4L157.9,505z M-2.6,289.1l34.3,40h-74.9l-34.3-40H-2.6z M-22.9,273.1v-16h16v16H-22.9
	z M41,345v64h-80v-64H41z M-54.9,340v69h-16v-48c0-4.4-3.6-8-8-8h-32c-4.4,0-8,3.6-8,8v48h-16v-69l40-46.7L-54.9,340z M-86.9,369v40
	h-16v-40H-86.9z M71.5,324.4c-1.5-2.1-3.9-3.3-6.5-3.3h-4.2l11.6-29c1-2.5,0.7-5.3-0.8-7.5c-1.5-2.2-4-3.5-6.6-3.5h-2.2L81,249.2
	l18.2,31.9H97c-2.7,0-5.1,1.3-6.6,3.5c-1.5,2.2-1.8,5-0.8,7.5l11.6,29H97c-2.6,0-5,1.2-6.5,3.3c-1.5,2.1-1.9,4.8-1.1,7.2l12.5,37.5
	H60.1l12.5-37.5C73.4,329.1,73,326.5,71.5,324.4z M73,385v24H57v-24H73z M-222.9,265.1c0-93.6,62.5-175.7,152.7-200.6
	c90.3-24.9,186,13.6,233.9,94.1s36.1,183-28.7,250.5H89v-24h24c2.6,0,5-1.2,6.5-3.3c1.5-2.1,1.9-4.8,1.1-7.2L108.1,337h4.9
	c2.7,0,5.1-1.3,6.6-3.5c1.5-2.2,1.8-5,0.8-7.5l-11.6-29h4.2c2.9,0,5.5-1.5,6.9-4c1.4-2.5,1.4-5.5,0-8l-32-56
	c-1.5-2.3-4.1-3.7-6.9-3.7s-5.4,1.4-6.9,3.7l-32,56c-1.4,2.5-1.4,5.5,0,8c1.4,2.5,4.1,4,6.9,4h4.2l-8.9,22.2L9.1,278.1v-29
	c0-4.4-3.6-8-8-8h-32c-4.4,0-8,3.6-8,8v24h-56c-1.1,0-2.3,0.3-3.3,0.8h-0.1c-1,0.5-1.9,1.1-2.7,1.9l-48,56c-1.3,1.5-2,3.3-2,5.3v72
	h-14C-202.2,370.4-223,318.8-222.9,265.1z"/>
<path d="M57,441h-144c-4.4,0-8,3.6-8,8v32c0,4.4,3.6,8,8,8H57c4.4,0,8-3.6,8-8v-32C65,444.6,61.5,441,57,441z M49,473h-128v-16H49
	V473z"/>
<path d="M-22.9,361h16v24h-16V361z"/>
<path d="M9.1,361h16v24h-16V361z"/>
<path d="M-46.9,185.1h16v16h-16V185.1z"/>
<path d="M-78.9,137.1h16v16h-16V137.1z"/>
<path d="M145,249.1h16v16h-16V249.1z"/>
<path d="M105,169.1h16v16h-16V169.1z"/>
<path d="M-198.9,289.1h16v16h-16V289.1z"/>
<path d="M-6.9,81.1h16v16h-16V81.1z"/>
<path d="M25.1,153.1h16v16h-16V153.1z"/>
<path d="M-150.9,225.1h16v16h-16V225.1z"/>
</symbol><symbol id="icon-table-setting" viewBox="-223 54.7 512 452.7">
<g>
	<g>
		<path d="M289,320.5V216c0-7.4-6-13.4-13.4-13.4h-96.5C154.3,126.8,83.3,72-0.1,72c-104,0-188.6,85.1-188.6,189.8
			c0,13.5,1.4,26.7,4.1,39.4h-21.3c-7.8,0-14.1,6.4-14.1,14.2c0,7.2,0.6,14.4,1.7,21.3c-2.3,2.5-3.6,5.9-3.6,9.5
			c0,7.7,0.6,15.3,1.9,22.7c-1.8,2.4-2.8,5.3-2.8,8.5c0,56.1,33.3,106.2,84.9,127.6c1.7,0.7,3.6,1.1,5.5,1.1h108.1
			c1.9,0,3.7-0.4,5.5-1.1c29.2-12.1,52.5-33.4,67.3-59.8c39.7-10.6,74.3-33.9,99.2-65.3v64.4c-10.4,3-18.8,12.1-21.8,23.9h-6.2
			c-6.9,0-12.5,5.6-12.5,12.5v14.2c0,6.9,5.6,12.5,12.5,12.5h150.4c6.9,0,12.5-5.6,12.5-12.5v-14.2c0-6.9-5.6-12.5-12.5-12.5h-6.2
			c-3-11.8-11.4-20.9-21.8-23.9V375C268.4,371.3,289,348.3,289,320.5z M47.9,316.2c0,5.3-0.4,10.6-1.1,15.8h-250.7
			c-0.7-5.2-1.1-10.4-1.1-15.8H47.9z M-24.7,491.1h-107.8c-15-6.2-28.2-15.2-39.2-26.2H14.6C3.5,475.9-9.7,484.8-24.7,491.1z
			 M27.4,449.9h-212c-14.8-20.4-23.3-45.3-23.4-71.8h174c4.1,0,7.5-3.4,7.5-7.5s-3.4-7.5-7.5-7.5h-171.9c-0.7-5.3-1.1-10.7-1.2-16.2
			H49.8c0,5.5-0.4,10.9-1.2,16.2H6c-4.1,0-7.5,3.4-7.5,7.5s3.4,7.5,7.5,7.5h44.8C50.7,404.6,42.2,429.5,27.4,449.9z M56.8,426.9
			c5.9-15.5,9.1-32.2,9.1-49.5c0-3.2-1.1-6.1-2.8-8.5c1.2-7.4,1.9-15,1.9-22.7c0-3.7-1.4-7-3.6-9.5c1.1-7,1.7-14.1,1.7-21.3
			c0-0.2,0-0.3,0-0.5c12-14.4,19.2-32.9,19.2-53.1c0-21.3-8-41.5-22.6-56.9c-2.8-3-7.6-3.1-10.6-0.3c-3,2.8-3.1,7.6-0.3,10.6
			c11.9,12.6,18.5,29.2,18.5,46.6c0,15.1-5,29.1-13.3,40.3c-1.6-0.6-3.3-0.9-5-0.9H-54.7c-7.9-11.1-12.6-24.7-12.6-39.4
			c0-37.3,30.1-67.7,67.2-67.7c5.8,0,11.6,0.8,17.2,2.2c4,1.1,8.1-1.3,9.2-5.3c1.1-4-1.3-8.1-5.3-9.2c-6.8-1.8-13.9-2.7-21-2.7
			c-45.3,0-82.2,37.1-82.2,82.7c0,14.3,3.6,27.7,10,39.4h-96.9c-2.9-12.7-4.5-25.9-4.5-39.4C-173.7,165.4-95.8,87-0.1,87
			C75,87,139,135.2,163.2,202.5h-49.6c-7.4,0-13.4,6-13.4,13.4v104.5c0,23.2,14.4,43.1,34.6,51.1C114.6,396.7,87.7,416.1,56.8,426.9
			z M154.9,458.2c5.7,0,10.8,4,13.5,10h-27C144.1,462.2,149.2,458.2,154.9,458.2z M162.4,444.3V375c12.6-1.7,23.8-7.8,32.2-16.7
			c8.3,8.9,19.6,14.9,32.2,16.7v69.3c-10.4,3-18.8,12.1-21.8,23.9h-20.7C181.2,456.4,172.9,447.3,162.4,444.3z M187.9,492.3h-66
			v-9.2h66V492.3z M267.3,483.2v9.2h-64.4v-9.2H267.3z M247.8,468.2h-27c2.7-6,7.8-10,13.5-10C240,458.2,245.1,462.2,247.8,468.2z
			 M234.3,360.5c-12.4,0-23.5-5.8-30.8-14.8c3.9-7.6,6.1-16.1,6.1-25.2V295c0-4.1-3.4-7.5-7.5-7.5s-7.5,3.4-7.5,7.5v25.5
			c0,22.1-17.8,40-39.7,40c-21.9,0-39.7-18-39.7-40v-103h79.4V255c0,4.1,3.4,7.5,7.5,7.5s7.5-3.4,7.5-7.5v-37.5H274v103
			C274,342.5,256.2,360.5,234.3,360.5z"/>
	</g>
</g>
<g>
	<g>
		<path d="M-162.4,121.8c-9.6-3-10.4-3.7-13.4-13.4c-1.3-4.2-5.1-7-9.4-7c-4.4,0-8.1,2.8-9.4,6.9c-3,9.6-3.7,10.4-13.4,13.4
			c-4.2,1.3-6.9,5.1-6.9,9.4c0,4.4,2.8,8.1,6.9,9.4c9.6,3,10.4,3.7,13.4,13.4c1.3,4.2,5.1,7,9.4,7c4.4,0,8.1-2.8,9.4-6.9
			c3-9.6,3.7-10.4,13.4-13.4c4.2-1.3,6.9-5.1,6.9-9.4C-155.5,126.9-158.3,123.1-162.4,121.8z M-185.2,138.1c-1.8-2.9-4-5-6.8-6.8
			c2.9-1.8,5-4,6.8-6.8c1.8,2.9,4,5,6.8,6.8C-181.3,133.1-183.4,135.2-185.2,138.1z"/>
	</g>
</g>
<g>
	<g>
		<path d="M263.5,149.5c-9.6-3-10.4-3.7-13.4-13.4c-1.3-4.2-5.1-7-9.4-7c-4.4,0-8.1,2.8-9.4,7c-3,9.6-3.7,10.4-13.4,13.4
			c-4.2,1.3-6.9,5.1-6.9,9.4c0,4.4,2.8,8.1,6.9,9.4c9.6,3,10.4,3.7,13.4,13.4c1.3,4.2,5.1,6.9,9.4,6.9c4.4,0,8.1-2.8,9.4-6.9
			c3-9.6,3.7-10.4,13.4-13.4c4.2-1.3,6.9-5.1,6.9-9.4C270.4,154.5,267.6,150.8,263.5,149.5z M240.7,165.7c-1.8-2.9-4-5-6.8-6.8
			c2.9-1.8,5-4,6.8-6.8c1.8,2.9,4,5,6.8,6.8C244.6,160.7,242.5,162.9,240.7,165.7z"/>
	</g>
</g>
<g>
	<g>
		<path d="M190.7,79.1c-12.1-3.8-13.4-5.1-17.1-17.2c-1.4-4.4-5.3-7.3-9.9-7.3c-4.6,0-8.6,2.9-9.9,7.3c-3.8,12.1-5,13.4-17.1,17.2
			c-4.4,1.4-7.3,5.3-7.3,9.9s2.9,8.6,7.3,9.9c12.1,3.8,13.4,5.1,17.1,17.2c1.4,4.4,5.3,7.3,9.9,7.3c4.6,0,8.6-2.9,9.9-7.3
			c3.8-12.1,5-13.4,17.1-17.2c4.4-1.4,7.3-5.3,7.3-9.9S195.1,80.5,190.7,79.1z M163.7,100.4c-2.8-5.2-6.2-8.6-11.4-11.4
			c5.2-2.8,8.6-6.2,11.4-11.4c2.8,5.2,6.2,8.6,11.4,11.4C169.8,91.8,166.4,95.2,163.7,100.4z"/>
	</g>
</g>
</symbol><symbol id="icon-wall-lamps" viewBox="-204.2 25 474.4 512">
<g>
	<g>
		<rect x="-33.9" y="318" width="15.2" height="15.2"/>
	</g>
</g>
<g>
	<g>
		<rect x="-64.3" y="318" width="15.2" height="15.2"/>
	</g>
</g>
<g>
	<g>
		<path d="M-67.1,25h-104l-33.1,186.6h62.3v50.7h45.6v-50.7H-34L-67.1,25z M-111.5,247h-15.2v-35.5h15.2V247z M-186,196.3
			l27.7-156.1h78.5l27.7,156.1L-186,196.3L-186,196.3z"/>
	</g>
</g>
<g>
	<g>
		<path d="M228.2,264.8v5.1c0,4.2-3.4,7.6-7.6,7.6h-12.7h-45.6h-12.7c-4.2,0-7.6-3.4-7.6-7.6v-5.1h-15.2v5.1
			c0,12.6,10.2,22.8,22.8,22.8h12.7v17.7c0,4.2-3.4,7.6-7.6,7.6H55.8v-29.4H40.6v-16.1C55.1,269.1,66,256,66,240.4
			c0-18.2-14.8-33-33-33c-18.2,0-33,14.8-33,33c0,15.6,10.8,28.6,25.3,32.1v16.1H10.2V318H-3.5v15.2h28.9v-29.4h15.2v29.4h114.1
			c12.6,0,22.8-10.2,22.8-22.8v-17.7h15.2v17.7c0,21-17.1,38-38,38H40.6v94.8c0,4.2-3.4,7.6-7.6,7.6s-7.6-3.4-7.6-7.6v-94.8H-88.7
			c-21,0-38-17.1-38-38v-17.7h15.2v17.7c0,12.6,10.2,22.8,22.8,22.8h9.1V318h-9.1c-4.2,0-7.6-3.4-7.6-7.6v-17.7h12.7
			c12.6,0,22.8-10.2,22.8-22.8v-5.1H-76v5.1c0,4.2-3.4,7.6-7.6,7.6h-71c-4.2,0-7.6-3.4-7.6-7.6v-5.1h-15.2v5.1
			c0,12.6,10.2,22.8,22.8,22.8h12.7v17.7c0,29.4,23.9,53.2,53.2,53.2h98.9v79.6c0,12.6,10.2,22.8,22.8,22.8
			c12.6,0,22.8-10.2,22.8-22.8v-79.6h98.9c29.3,0,53.2-23.9,53.2-53.2v-17.7h12.7c12.6,0,22.8-10.2,22.8-22.8v-5.1H228.2z M33,258.2
			c-9.8,0-17.7-8-17.7-17.7s8-17.7,17.7-17.7s17.7,8,17.7,17.7S42.8,258.2,33,258.2z"/>
	</g>
</g>
<g>
	<g>
		<path d="M237.1,25h-104L100,211.6h62.3v50.7h45.6v-50.7h62.3L237.1,25z M192.7,247h-15.2v-35.5h15.2V247z M118.1,196.3l27.7-156.1
			h78.5L252,196.3H118.1z"/>
	</g>
</g>
<g>
	<g>
		<rect x="136.4" y="450.8" width="15.2" height="15.2"/>
	</g>
</g>
<g>
	<g>
		<rect x="197.2" y="450.8" width="15.2" height="15.2"/>
	</g>
</g>
<g>
	<g>
		<rect x="166.8" y="450.8" width="15.2" height="15.2"/>
	</g>
</g>
<g>
	<g>
		<rect x="-146.5" y="450.8" width="15.2" height="15.2"/>
	</g>
</g>
<g>
	<g>
		<rect x="-85.6" y="450.8" width="15.2" height="15.2"/>
	</g>
</g>
<g>
	<g>
		<rect x="-116" y="450.8" width="15.2" height="15.2"/>
	</g>
</g>
<g>
	<g>
		<path d="M77.9,394l-8.7,12.5c17,11.9,27.2,31.3,27.2,52c0,34.9-28.4,63.4-63.4,63.4s-63.4-28.4-63.4-63.4
			c0-20.7,10.2-40.1,27.2-52l-8.7-12.5c-21.1,14.7-33.7,38.8-33.7,64.5c0,43.3,35.2,78.6,78.6,78.6s78.6-35.2,78.6-78.6
			C111.6,432.8,99,408.7,77.9,394z"/>
	</g>
</g>
<g>
	<g>
		<path d="M80.3,449.4l-14.9,2.9c0.4,2,0.6,4.1,0.6,6.2c0,2-0.2,4-0.5,5.9l15,2.7c0.5-2.8,0.8-5.8,0.8-8.7
			C81.2,455.4,80.9,452.3,80.3,449.4z"/>
	</g>
</g>
<g>
	<g>
		<path d="M61,475.8c-6.1,9.8-16.5,15.6-28,15.6c-18.2,0-33-14.8-33-33c0-2.1,0.2-4.2,0.6-6.2l-14.9-2.9c-0.6,3-0.9,6-0.9,9.1
			c0,26.6,21.6,48.2,48.2,48.2c16.7,0,32-8.5,40.9-22.7L61,475.8z"/>
	</g>
</g>
</symbol><symbol id="icon-palette" viewBox="-239 41 480.1 480">
<path d="M92.9,59.3C3.2,22.1-100,42.6-168.7,111.3c-68.6,68.6-89.2,171.9-52,261.6C-183.5,462.5-96,521,1,521
	c97.1,0,184.6-58.5,221.7-148.1C273.5,250.4,215.3,110,92.9,59.3z M94.1,77.3c49.1,22.3,88.4,61.6,110.7,110.7l-74,30.7
	c-14.1-29.5-37.9-53.3-67.4-67.4L94.1,77.3z M-92,77.3l30.6,74c-29.5,14.1-53.3,37.9-67.4,67.4l-74-30.6
	C-180.4,138.9-141.1,99.5-92,77.3z M-208.8,202.7l74,30.6c-10.9,30.8-10.9,64.4,0,95.3l-74,30.6
	C-227.8,308.8-227.8,253.2-208.8,202.7z M-92,484.8c-49.1-22.3-88.4-61.6-110.7-110.7l74-30.6c14.1,29.5,37.9,53.3,67.4,67.4
	L-92,484.8z M-77.2,490.9l28.1-67.9l2.5-6.1c4.5,1.6,9.1,2.9,13.8,4.1l3.8-15.5c-6.4-1.6-12.7-3.6-18.9-6.2
	c-47.8-19.8-79-66.5-79-118.2s31.2-98.4,79-118.2c4.1-1.7,6-6.4,4.3-10.5l-33.6-81.2c50.4-19,106.1-19,156.5,0l-33.6,81.2
	c-1.7,4.1,0.2,8.8,4.3,10.5c47.8,19.8,79,66.5,79,118.2s-31.2,98.4-79,118.2c-6.1,2.5-12.4,4.6-18.9,6.2L35,421
	c4.6-1.1,9.2-2.5,13.7-4.1l2.5,6.1l28.1,67.9C28.9,509.9-26.7,509.9-77.2,490.9L-77.2,490.9z M94.1,484.8l-30.6-74
	c29.5-14.1,53.3-37.9,67.4-67.4l74,30.6C182.5,423.2,143.2,462.5,94.1,484.8L94.1,484.8z M210.9,359.3l-74-30.6
	c10.9-30.8,10.9-64.4,0-95.3l74-30.6C229.9,253.2,229.9,308.8,210.9,359.3L210.9,359.3z"/>
<path d="M-99.9,117.6l-8.4-13.6c-5.4,3.3-10.6,6.9-15.6,10.6l9.6,12.8C-109.7,124-104.8,120.7-99.9,117.6z"/>
<path d="M-134.3,122.9c-16.4,14-30.4,30.5-41.7,48.8l13.6,8.4c10.4-16.9,23.4-32.1,38.4-45L-134.3,122.9z"/>
<path d="M-6.9,369h16c3,0,5.8-1.7,7.2-4.4l16-32c0.5-1.1,0.8-2.3,0.8-3.6V209h16v-16h-16v-72c0-17.7-14.3-32-32-32
	c-17.7,0-32,14.3-32,32v72h-16v16h16v120c0,1.2,0.3,2.5,0.8,3.6l16,32C-12.7,367.3-10,369-6.9,369z M-14.9,121c0-8.8,7.2-16,16-16
	c8.8,0,16,7.2,16,16v72h-32V121z M-14.9,209h32v28l-4.2,3.2c-2.7,1.1-5.7,1-8.3-0.3c-6.1-3-13.1-3.4-19.6-1.3V209z M-14.9,255.3
	l1.8-0.4c0.6-0.1,1.2-0.4,1.7-0.6c2.8-1.4,6.1-1.4,8.8,0c6.1,3.1,13.2,3.6,19.6,1.3v71.6L4.1,353H-2l-12.9-25.9V255.3z"/>
<path d="M8.4,389.7c-1.3-2.9-4.1-4.8-7.3-4.8c-3.2,0-6,1.9-7.3,4.8l-19,42.8c-5.4,12.1-1.8,26.3,8.6,34.4c10.4,8.1,25,8.1,35.5,0
	c10.4-8.1,14-22.3,8.6-34.4L8.4,389.7z M11.8,451.2c-2.5,3.5-6.5,5.6-10.7,5.6s-8.3-2.1-10.7-5.6c-2.4-3.6-2.8-8.2-1-12.2l11.7-26.3
	L12.8,439C14.6,443,14.2,447.5,11.8,451.2z"/>
</symbol><symbol id="icon-photo" viewBox="-223 57 512 448">
<g>
	<g>
		<path d="M257,121h-384c-17.7,0-32,14.3-32,32v320c0,17.7,14.3,32,32,32h384c17.7,0,32-14.3,32-32V153C289,135.3,274.7,121,257,121
			z M267.7,473c0,5.9-4.8,10.7-10.7,10.7h-384c-5.9,0-10.7-4.8-10.7-10.7V153c0-5.9,4.8-10.7,10.7-10.7h384
			c5.9,0,10.7,4.8,10.7,10.7V473z"/>
	</g>
</g>
<g>
	<g>
		<path d="M214.3,57H-191c-17.7,0-32,14.3-32,32v341.3c0,17.7,14.3,32,32,32h10.7V441H-191c-5.9,0-10.7-4.8-10.7-10.7V89
			c0-5.9,4.8-10.7,10.7-10.7h405.3c5.9,0,10.7,4.8,10.7,10.7v10.7h21.3V89C246.3,71.3,232,57,214.3,57z"/>
	</g>
</g>
<g>
	<g>
		<path d="M19.2,273.5c-4.2-4.2-10.9-4.2-15.1,0l-160,160l15.1,15.1L11.7,296.1l163.1,163.1l15.1-15.1L19.2,273.5z"/>
	</g>
</g>
<g>
	<g>
		<path d="M168.5,273.5c-4.2-4.2-10.9-4.2-15.1,0l-53.3,53.3l15.1,15.1l45.8-45.8l109.8,109.8l15.1-15.1L168.5,273.5z"/>
	</g>
</g>
<g>
	<g>
		<path d="M86.3,163.7C56.9,163.7,33,187.5,33,217s23.9,53.3,53.3,53.3c29.4,0,53.3-23.9,53.3-53.3
			C139.7,187.5,115.8,163.7,86.3,163.7z M86.3,249c-17.7,0-32-14.3-32-32s14.3-32,32-32s32,14.3,32,32S104,249,86.3,249z"/>
	</g>
</g>
</symbol><symbol id="icon-prototyping" viewBox="-223 25 512 512">
<path d="M237.8,127.4H126.9c0-14.5-6.2-28.4-17.1-38.1V59.1c0-18.9-15.3-34.1-34.1-34.1S41.5,40.3,41.5,59.1v30.2
	c-10.9,9.7-17.1,23.5-17.1,38.1h-145.1v-17.1c0-28.3-22.9-51.2-51.2-51.2S-223,82.1-223,110.3v375.5c0,28.3,22.9,51.2,51.2,51.2
	h409.6c28.3,0,51.2-22.9,51.2-51.2V178.6C289,150.3,266.1,127.4,237.8,127.4z M196,373.2L152.6,280l-50.7-108.7
	c5.1-3,9.6-6.9,13.4-11.5l86,184.3C205.8,353.9,203.7,365.6,196,373.2L196,373.2z M-44.7,373.2c-7.7-7.6-9.8-19.2-5.2-29.1
	l85.9-184.3c3.8,4.6,8.3,8.5,13.4,11.5L-1.2,280L-44.7,373.2z M65.4,177.6c6.8,1.4,13.8,1.4,20.6,0l47.2,101.2
	c-37,14.3-78,14.3-115,0L65.4,177.6z M58.6,59.1c0-9.4,7.6-17.1,17.1-17.1s17.1,7.6,17.1,17.1v20.1c-11-4-23.1-4-34.1,0V59.1z
	 M75.7,93.3c18.9,0,34.1,15.3,34.1,34.1s-15.3,34.1-34.1,34.1s-34.1-15.3-34.1-34.1S56.8,93.3,75.7,93.3z M-171.8,76.2
	c18.9,0,34.1,15.3,34.1,34.1v303.3c-19.4-17.5-48.9-17.5-68.3,0V110.3C-205.9,91.5-190.7,76.2-171.8,76.2z M271.9,485.8
	c0,18.9-15.3,34.1-34.1,34.1h-409.6c-18.9,0-34.1-15.3-34.1-34.1v-34.1c0-18.9,15.3-34.1,34.1-34.1s34.1,15.3,34.1,34.1
	c0,4.7,3.8,8.5,8.5,8.5c4.7,0,8.5-3.8,8.5-8.5V144.5h145l-89.7,192.4c-8.6,18.4-3.1,40.2,13.2,52.3l-7.6,16.2
	c-1.4,2.8-1.2,6.1,0.6,8.7c1.8,2.6,4.8,4,7.9,3.7c3.1-0.3,5.8-2.3,7-5.1l18-38.7l37.1-79.6c41.6,16.4,87.9,16.4,129.5,0l37.1,79.6
	l18,38.7c1.2,2.9,3.9,4.8,7,5.1c3.1,0.3,6.1-1.1,7.9-3.7c1.8-2.6,2-5.9,0.6-8.7l-7.6-16.2c16.3-12.1,21.8-33.9,13.2-52.3L127,144.5
	h110.8c18.9,0,34.1,15.3,34.1,34.1V485.8z"/>
<path d="M70.9,134.5c0.5,0.3,1,0.6,1.5,0.8c0.5,0.2,1,0.4,1.5,0.5c0.6,0.1,1.1,0.2,1.7,0.2c0.5,0,1.1-0.1,1.6-0.2
	c0.6-0.1,1.1-0.3,1.6-0.5c0.5-0.2,1-0.4,1.4-0.8c0.5-0.3,0.9-0.6,1.4-1c3.3-3.3,3.3-8.7,0-12.1c-3.3-3.3-8.7-3.3-12.1,0
	c-3.3,3.3-3.3,8.7,0,12.1C70,133.8,70.4,134.2,70.9,134.5z"/>
<path d="M177.4,448.4c-0.4-1-1.1-2-1.9-2.8L150,420c-3.3-3.2-8.7-3.2-12,0.1s-3.3,8.6-0.1,12l11,11H2.4l11-11
	c3.2-3.4,3.2-8.7-0.1-12c-3.3-3.3-8.6-3.3-12-0.1l-25.6,25.6c-0.7,0.7-1.3,1.6-1.7,2.6c-0.1,0.3-0.2,0.6-0.3,0.9
	c-0.2,0.7-0.4,1.4-0.4,2.1c0,0.3-0.1,0.6,0,0.9c0,0.9,0.2,1.8,0.5,2.7c0,0.1,0,0.2,0.1,0.2c0.4,0.9,1,1.8,1.7,2.5
	c0.1,0.1,0.1,0.2,0.2,0.3l25.6,25.6c3.3,3.2,8.7,3.2,12-0.1s3.3-8.6,0.1-12l-11.1-11h146.5l-11,11c-2.2,2.1-3.1,5.3-2.3,8.3
	s3.1,5.3,6.1,6.1c3,0.8,6.2-0.1,8.3-2.3l25.6-25.6C178,455.3,178.7,451.6,177.4,448.4L177.4,448.4z"/>
<path d="M-95,204.2c4.7,0,8.5-3.8,8.5-8.5v-17.1h17.1c4.7,0,8.5-3.8,8.5-8.5c0-4.7-3.8-8.5-8.5-8.5H-95c-4.7,0-8.5,3.8-8.5,8.5v25.6
	C-103.5,200.4-99.7,204.2-95,204.2z"/>
<path d="M246.3,161.5h-25.6c-4.7,0-8.5,3.8-8.5,8.5c0,4.7,3.8,8.5,8.5,8.5h17.1v17.1c0,4.7,3.8,8.5,8.5,8.5c4.7,0,8.5-3.8,8.5-8.5
	v-25.6C254.9,165.4,251,161.5,246.3,161.5z"/>
<path d="M-69.4,485.8h-17.1v-17.1c0-4.7-3.8-8.5-8.5-8.5s-8.5,3.8-8.5,8.5v25.6c0,4.7,3.8,8.5,8.5,8.5h25.6c4.7,0,8.5-3.8,8.5-8.5
	C-60.9,489.6-64.7,485.8-69.4,485.8z"/>
<path d="M246.3,460.2c-4.7,0-8.5,3.8-8.5,8.5v17.1h-17.1c-4.7,0-8.5,3.8-8.5,8.5c0,4.7,3.8,8.5,8.5,8.5h25.6c4.7,0,8.5-3.8,8.5-8.5
	v-25.6C254.9,464,251,460.2,246.3,460.2z"/>
</symbol><symbol id="icon-tape-measure" viewBox="-239 41 480 368">
<path d="M191.4,89.9c-0.6-0.6-1.1-1.3-1.7-1.8c-2.4-2.3-5-4.4-7.5-6.6c-1-0.9-2-1.8-3-2.6c-3.3-2.7-6.8-5.3-10.3-7.7
	c-0.9-0.6-1.8-1.3-2.7-1.9c-3.7-2.5-7.6-4.8-11.5-7c-0.8-0.4-1.6-0.9-2.4-1.4c-4-2.1-8.1-4.1-12.2-5.9c-0.9-0.4-1.8-0.8-2.6-1.2
	c-4.1-1.7-8.2-3.2-12.3-4.5c-1.2-0.4-2.3-0.8-3.5-1.1c-3.9-1.2-7.9-2.2-11.9-3.1c-1.6-0.4-3.2-0.7-4.8-1c-3.6-0.7-7.3-1.2-11-1.7
	c-2.1-0.3-4.2-0.5-6.3-0.7c-3.3-0.3-6.6-0.4-9.9-0.5C76.2,41.2,74.6,41,73,41H-55c-22.1,0-40,17.9-40,40v128c0,0.3,0.1,0.5,0.2,0.8
	c0,1-0.2,2-0.2,3.1v80.9l-21.7,21.7c-1.5,1.5-2.3,3.5-2.3,5.7h-95c-13.8,0-25,11.2-25,25v55c0,4.4,3.6,8,8,8s8-3.6,8-8v-32h104
	c0,4.4,3.6,8,8,8h320.4c8,0,15.4-3.9,19.9-10.5c4.5-6.6,5.4-15,2.4-22.4c-3.9-9.7-3.9-20.5,0-30.2c6.2-15.4,9.4-31.9,9.3-48.5V209
	c0.1-43.7-17-85.7-47.6-116.9C192.7,91.4,192.1,90.6,191.4,89.9z M73,113c53,0,96,43,96,96s-43,96-96,96s-96-43-96-96
	C-22.9,156,20,113.1,73,113z M-79,81c0-13.3,10.7-24,24-24H1.5c-35.3,16.7-63.8,45.2-80.5,80.5V81z M-223,353v-7c0-5,4-9,9-9h95v16
	H-223z M-103,329v-4.7l21.7-21.7c1.5-1.5,2.3-3.5,2.3-5.7v-84.2c0-71,47.7-133.1,116.3-151.4c0.4-0.1,0.8-0.2,1.2-0.3
	c3.4-0.8,6.9-1.4,10.4-2c1.9-0.3,3.9-0.7,5.8-0.9c2.5-0.3,5.1-0.5,7.7-0.7c0.9-0.1,1.8-0.1,2.6-0.1v40
	c-48.8,3.4-89.6,38.1-100.9,85.7C-47.3,230.6-26.4,280,15.6,305H-55c-4.4,0-8,3.6-8,8v48h-40V329z M225,265.4
	c0,14.6-2.8,29.1-8.2,42.6c-5.4,13.5-5.4,28.6,0,42.1c1,2.5,0.7,5.3-0.8,7.5c-1.5,2.2-4,3.5-6.6,3.5H-47v-40H73
	c61.8-0.1,111.9-50.2,112-112c0-3.8-0.2-7.5-0.6-11.2c-0.1-1.3-0.4-2.5-0.5-3.7c-0.3-2.4-0.6-4.8-1.1-7.2c-0.3-1.4-0.7-2.9-1.1-4.3
	c-0.5-2.1-1-4.2-1.6-6.2c-0.4-1.5-1-2.9-1.5-4.4c-0.7-1.9-1.3-3.8-2.1-5.7c-0.6-1.5-1.3-2.9-2-4.3c-0.8-1.8-1.6-3.6-2.5-5.3
	c-0.8-1.4-1.6-2.8-2.4-4.2c-1-1.7-1.9-3.3-3-4.9c-0.9-1.4-1.9-2.7-2.8-4c-1.1-1.5-2.2-3.1-3.4-4.5c-1-1.3-2.1-2.5-3.2-3.7
	c-1.2-1.4-2.5-2.8-3.8-4.1c-1.1-1.2-2.3-2.3-3.5-3.5c-1.4-1.3-2.7-2.5-4.1-3.8c-1.3-1.1-2.5-2.1-3.9-3.1c-1.5-1.2-2.9-2.3-4.5-3.4
	c-1.4-1-2.7-1.9-4.1-2.8c-1.6-1-3.2-2-4.8-2.9c-1.4-0.8-2.9-1.6-4.4-2.4c-1.7-0.9-3.4-1.7-5.1-2.5c-1.5-0.7-3-1.3-4.6-2
	c-1.8-0.7-3.6-1.4-5.4-2c-1.6-0.5-3.1-1.1-4.8-1.5c-1.9-0.5-3.7-1-5.6-1.5c-1.6-0.4-3.3-0.8-4.9-1.1c-2-0.4-3.9-0.6-5.9-0.9
	c-1.7-0.2-3.3-0.5-5-0.6c-0.6-0.1-1.2-0.2-1.8-0.2v-40h1.2c1.9,0.1,3.8,0.4,5.7,0.6c3.1,0.3,6.2,0.6,9.2,1.1
	c2.3,0.4,4.5,0.9,6.7,1.4c2.5,0.5,5.1,1,7.6,1.6c2.8,0.7,5.5,1.6,8.2,2.5c1.8,0.6,3.7,1.1,5.5,1.8c3.1,1.1,6.1,2.4,9.1,3.8
	c1.4,0.6,2.7,1.2,4.1,1.8c3.1,1.5,6.1,3.1,9.1,4.8c1.2,0.7,2.4,1.3,3.6,2c2.9,1.7,5.7,3.6,8.5,5.6c1.2,0.9,2.5,1.7,3.7,2.6
	c2.6,1.9,5.1,3.9,7.6,6c1.3,1.1,2.6,2.3,3.9,3.4c2.3,2.1,4.6,4.2,6.8,6.5c1.2,1.2,2.3,2.5,3.5,3.7c2.2,2.4,4.4,4.9,6.5,7.5
	c0.8,1,1.5,2,2.3,3c2.3,3,4.5,6,6.5,9.1c0.4,0.6,0.7,1.1,1,1.7c2.3,3.6,4.4,7.2,6.4,10.9l0.1,0.3c6.6,12.7,11.4,26.3,14.3,40.4
	c0.1,0.3,0.1,0.7,0.2,1c0.9,4.5,1.6,9,2,13.6c0.5,5,0.8,10,0.8,15.1L225,265.4z"/>
</symbol><symbol id="icon-fb" viewBox="0 0 10 21">

<g><g transform="translate(-1650 -151)">
<path id="p1qpa" d="M1659.09 161.331h-2.802v9.995h-4.153v-9.995h-1.974v-3.53h1.974v-2.284c0-1.635.776-4.191 4.19-4.191l3.077.011v3.428h-2.233a.845.845 0 0 0-.88.965v2.074h3.164z"/>
</g></g></symbol><symbol id="icon-ok" viewBox="0 0 13 22">
<g><g transform="translate(-1849 -150)">
<path id="9bcla" d="M1861.217 163.337a6.347 6.347 0 0 1-2.3 1.487c-.842.303-1.72.5-2.61.585.134.147.198.219.282.302 1.207 1.215 2.425 2.424 3.626 3.643.395.358.506.934.271 1.413a1.428 1.428 0 0 1-1.34.837 1.304 1.304 0 0 1-.85-.434c-.914-.918-1.844-1.82-2.738-2.755-.261-.272-.385-.22-.615.016-.918.945-1.85 1.875-2.79 2.8a1.168 1.168 0 0 1-1.41.254 1.429 1.429 0 0 1-.825-1.316 1.32 1.32 0 0 1 .442-.882c1.197-1.195 2.392-2.392 3.585-3.59.079-.08.152-.163.267-.287a8.162 8.162 0 0 1-4.353-1.553 5.565 5.565 0 0 1-.459-.378 1.305 1.305 0 0 1 1.477-2.126c.126.061.247.132.362.213a7.132 7.132 0 0 0 7.907.072 2.16 2.16 0 0 1 .772-.397 1.207 1.207 0 0 1 1.383.552c.366.462.33 1.124-.084 1.544zm-5.95-12.717a5.314 5.314 0 1 1-5.332 5.303 5.311 5.311 0 0 1 5.332-5.305zm-.007 7.916a2.6 2.6 0 1 0-2.617-2.574 2.583 2.583 0 0 0 2.617 2.575z"/>
</g></g></symbol><symbol id="icon-vk" viewBox="0 0 25 15">
<g><g transform="translate(-1693 -154)">
<path id="tkbqa" d="M1705.227 168.477h1.494c.252-.029.49-.133.682-.299.137-.19.21-.421.206-.657 0 0-.03-2.026.902-2.322.93-.296 2.095 1.938 3.345 2.796.47.376 1.07.55 1.667.482h3.336s1.746-.139.918-1.506a11.163 11.163 0 0 0-2.483-2.874c-2.094-1.946-1.807-1.629.71-4.99 1.529-2.049 2.15-3.3 1.957-3.835a1.5 1.5 0 0 0-1.304-.417h-3.769a.91.91 0 0 0-.485.098 1.053 1.053 0 0 0-.332.435 21.198 21.198 0 0 1-1.39 2.961c-1.667 2.843-2.343 2.993-2.616 2.817-.638-.417-.479-1.654-.479-2.535 0-2.756.417-3.905-.814-4.202a6.431 6.431 0 0 0-1.755-.175 8.12 8.12 0 0 0-3.12.32c-.428.21-.757.676-.556.702.428.038.825.237 1.112.556.26.529.388 1.113.373 1.701 0 0 .22 3.244-.519 3.647-.506.278-1.202-.288-2.695-2.867a23.349 23.349 0 0 1-1.342-2.81 1.111 1.111 0 0 0-.31-.417 1.538 1.538 0 0 0-.578-.233h-3.573c-.265 0-.523.087-.734.247a.78.78 0 0 0-.014.636s2.798 6.596 5.966 9.894a8.66 8.66 0 0 0 6.2 2.847z"/>
</g></g></symbol><symbol id="icon-diamond" viewBox="-177.3 25 420.6 512">
<g>
	<g>
		<path d="M158.2,58.5c-4.8-2.8-10.9-1.1-13.7,3.7c-2.8,4.8-1.1,10.9,3.7,13.7c4.8,2.8,10.9,1.1,13.7-3.7
			C164.6,67.4,163,61.3,158.2,58.5z"/>
	</g>
</g>
<g>
	<g>
		<path d="M33,25c-5.5,0-10,4.5-10,10s4.5,10,10,10s10-4.5,10-10C43,29.5,38.5,25,33,25z"/>
	</g>
</g>
<g>
	<g>
		<path d="M33,291.4c-5.5,0-10,4.5-10,10s4.5,10,10,10s10-4.5,10-10C43,295.9,38.5,291.4,33,291.4z"/>
	</g>
</g>
<g>
	<g>
		<path d="M-78.5,62.2c-2.8-4.8-8.9-6.4-13.7-3.7c-4.8,2.8-6.4,8.9-3.7,13.7c2.8,4.8,8.9,6.4,13.7,3.7C-77.4,73.1-75.7,67-78.5,62.2
			z"/>
	</g>
</g>
<g>
	<g>
		<path d="M33,65.1c-5.5,0-10,4.5-10,10v40.1c0,5.5,4.5,10,10,10c5.5,0,10-4.5,10-10V75.1C43,69.5,38.5,65.1,33,65.1z"/>
	</g>
</g>
<g>
	<g>
		<path d="M-38.4,131.6l-20-34.7c-2.8-4.8-8.9-6.4-13.7-3.7c-4.8,2.8-6.4,8.9-3.7,13.7l20,34.7c1.9,3.2,5.2,5,8.7,5
			c1.7,0,3.4-0.4,5-1.3C-37.3,142.5-35.7,136.4-38.4,131.6z"/>
	</g>
</g>
<g>
	<g>
		<path d="M138.1,93.2c-4.8-2.8-10.9-1.1-13.7,3.7l-20,34.7c-2.8,4.8-1.1,10.9,3.7,13.7c1.6,0.9,3.3,1.3,5,1.3c3.5,0,6.8-1.8,8.7-5
			l20-34.7C144.6,102.1,142.9,96,138.1,93.2z"/>
	</g>
</g>
<g>
	<g>
		<path d="M243.3,301.3c0-0.1,0-0.2,0-0.4c0-0.1,0-0.3,0-0.4c0-0.1,0-0.2,0-0.2c0-0.1,0-0.2,0-0.3c0-0.1,0-0.3-0.1-0.4
			c0-0.1,0-0.2,0-0.3c0-0.1,0-0.2-0.1-0.3c0-0.1-0.1-0.3-0.1-0.4c0-0.1-0.1-0.2-0.1-0.3c0-0.1-0.1-0.1-0.1-0.2
			c0-0.1-0.1-0.3-0.1-0.4c0-0.1-0.1-0.2-0.1-0.3c0-0.1-0.1-0.1-0.1-0.2c-0.1-0.1-0.1-0.3-0.2-0.4c-0.1-0.1-0.1-0.2-0.2-0.3
			c0,0,0,0,0-0.1l-60-106.1c0-0.1-0.1-0.1-0.1-0.1c-0.2-0.3-0.3-0.6-0.5-0.8c-0.1-0.1-0.1-0.1-0.2-0.2c-0.2-0.3-0.5-0.6-0.8-0.9
			c0,0,0,0,0,0c-0.3-0.3-0.6-0.5-0.9-0.8c-0.1-0.1-0.2-0.1-0.2-0.2c-0.2-0.2-0.5-0.4-0.8-0.5c-0.1-0.1-0.2-0.1-0.3-0.2
			c-0.3-0.2-0.7-0.4-1.1-0.5c0,0,0,0,0,0c0,0,0,0,0,0c-0.4-0.2-0.8-0.3-1.1-0.4c-0.1,0-0.2-0.1-0.3-0.1c-0.3-0.1-0.6-0.1-0.9-0.2
			c-0.1,0-0.2,0-0.3,0c-0.4,0-0.8-0.1-1.2-0.1c0,0,0,0,0,0h0c0,0,0,0,0,0H33h0h-140.2c-0.4,0-0.8,0-1.2,0.1c-0.1,0-0.2,0-0.3,0
			c-0.3,0-0.6,0.1-0.9,0.2c-0.1,0-0.2,0.1-0.3,0.1c-0.3,0.1-0.7,0.2-1,0.3c-0.1,0-0.1,0-0.2,0.1c0,0,0,0,0,0c-0.4,0.2-0.7,0.3-1,0.5
			c-0.1,0-0.2,0.1-0.2,0.2c-0.3,0.2-0.5,0.3-0.8,0.5c-0.1,0.1-0.2,0.1-0.2,0.2c-0.3,0.2-0.5,0.5-0.8,0.7c0,0-0.1,0.1-0.1,0.1
			c-0.3,0.3-0.6,0.6-0.8,0.9c0,0.1-0.1,0.1-0.1,0.2c-0.2,0.3-0.4,0.5-0.5,0.8c0,0.1-0.1,0.1-0.1,0.1l-60,105.9c0,0,0,0,0,0l-0.1,0.2
			c0,0,0,0,0,0.1c-0.1,0.1-0.1,0.2-0.2,0.3c-0.1,0.1-0.1,0.3-0.2,0.4c0,0,0,0.1-0.1,0.1c0,0.1-0.1,0.2-0.1,0.3
			c-0.1,0.1-0.1,0.3-0.2,0.4c0,0.1,0,0.1-0.1,0.2c0,0.1-0.1,0.2-0.1,0.3c0,0.1-0.1,0.3-0.1,0.4c0,0.1,0,0.2-0.1,0.2
			c0,0.1,0,0.2-0.1,0.3c0,0.1,0,0.3-0.1,0.4c0,0.1,0,0.2,0,0.3c0,0.1,0,0.2,0,0.3c0,0.1,0,0.3,0,0.4c0,0.1,0,0.2,0,0.3
			c0,0,0,0,0,0.1c0,0.1,0,0.1,0,0.2c0,0.1,0,0.3,0,0.4c0,0.1,0,0.2,0,0.3c0,0.1,0,0.2,0,0.3c0,0.1,0,0.3,0.1,0.4
			c0,0.1,0,0.2,0.1,0.3c0,0.1,0,0.2,0.1,0.3c0,0.1,0.1,0.2,0.1,0.4c0,0.1,0,0.2,0.1,0.3c0,0.1,0.1,0.2,0.1,0.3
			c0,0.1,0.1,0.2,0.1,0.3c0,0.1,0.1,0.2,0.1,0.3c0,0.1,0.1,0.2,0.1,0.3c0,0.1,0.1,0.2,0.1,0.3c0,0.1,0.1,0.2,0.1,0.3
			c0.1,0.1,0.1,0.2,0.2,0.3c0.1,0.1,0.1,0.2,0.2,0.3c0.1,0.1,0.1,0.2,0.2,0.3c0.1,0.1,0.1,0.2,0.2,0.3c0.1,0.1,0.1,0.2,0.2,0.2
			c0.1,0.1,0.2,0.2,0.2,0.3c0.1,0.1,0.1,0.2,0.2,0.3c0,0,0.1,0.1,0.1,0.1L26.8,533.7c0.2,0.3,0.5,0.5,0.8,0.8c0,0,0.1,0.1,0.1,0.1
			c0.3,0.3,0.6,0.5,0.9,0.7c0.1,0.1,0.2,0.1,0.3,0.2c0.3,0.2,0.6,0.4,0.9,0.5c0.1,0,0.2,0.1,0.3,0.1c0.4,0.2,0.8,0.3,1.2,0.5
			c0.1,0,0.2,0.1,0.3,0.1c0.3,0.1,0.7,0.2,1,0.2c0.1,0,0.2,0,0.4,0.1c0.4,0.1,0.9,0.1,1.3,0.1c0,0,0,0,0,0c0.4,0,0.9,0,1.3-0.1
			c0.1,0,0.2,0,0.4-0.1c0.3-0.1,0.7-0.1,1-0.2c0.1,0,0.2,0,0.3-0.1c0.4-0.1,0.8-0.3,1.2-0.5c0.1,0,0.2-0.1,0.3-0.1
			c0.3-0.2,0.6-0.3,0.9-0.5c0.1-0.1,0.2-0.1,0.3-0.2c0.3-0.2,0.6-0.4,0.9-0.7c0,0,0.1-0.1,0.1-0.1c0.3-0.2,0.5-0.5,0.8-0.8
			l199-225.6c0,0,0.1-0.1,0.1-0.1c0.1-0.1,0.1-0.2,0.2-0.2c0.1-0.1,0.2-0.2,0.2-0.3c0.1-0.1,0.1-0.2,0.2-0.2
			c0.1-0.1,0.1-0.2,0.2-0.2c0.1-0.1,0.1-0.2,0.2-0.3c0.1-0.1,0.1-0.2,0.2-0.3c0-0.1,0.1-0.2,0.1-0.3c0.1-0.1,0.1-0.2,0.1-0.3
			c0-0.1,0.1-0.2,0.1-0.3c0-0.1,0.1-0.2,0.1-0.3c0-0.1,0.1-0.2,0.1-0.3c0-0.1,0.1-0.2,0.1-0.3c0-0.1,0.1-0.2,0.1-0.3
			c0-0.1,0.1-0.2,0.1-0.3c0-0.1,0.1-0.2,0.1-0.4c0-0.1,0-0.2,0.1-0.3c0-0.1,0-0.2,0.1-0.3c0-0.1,0-0.3,0.1-0.4c0-0.1,0-0.2,0-0.2
			c0-0.1,0-0.2,0-0.4c0-0.1,0-0.3,0-0.4C243.3,301.5,243.3,301.4,243.3,301.3C243.3,301.4,243.3,301.3,243.3,301.3z M158.2,205.2
			l-32.5,77.5l-70.2-77.5H158.2z M10.6,205.2L-59,282.8L-92,205.2H10.6z M-108.5,217.8l31.4,73.6h-73L-108.5,217.8z M-144.9,311.4
			h76.3L1.2,474.9L-144.9,311.4z M34.2,501.3l-81-189.9h39.7c5.5,0,10-4.5,10-10s-4.5-10-10-10h-32.7L33,210.2l73.5,81.2H73.1
			c-5.5,0-10,4.5-10,10s4.5,10,10,10h40.7L34.2,501.3z M67,474.7l68.4-163.3h75.6L67,474.7z M143.8,291.4l30.8-73.4l41.5,73.4H143.8
			z"/>
	</g>
</g>
</symbol><symbol id="icon-favorites" viewBox="-223 28.8 512 504.4">
<g>
	<g>
		<path d="M249.2,226.7c9.3-9,12.5-22.3,8.5-34.6c-4-12.3-14.4-21.1-27.3-23l-112-16.3c-2.2-0.3-4.1-1.7-5.1-3.7L63.3,47.6
			C57.6,36,45.9,28.8,33,28.8C20.1,28.8,8.5,36,2.7,47.6l-50.1,101.5c-1,2-2.9,3.4-5.1,3.7l-112,16.3c-12.8,1.9-23.3,10.7-27.3,23
			s-0.7,25.6,8.5,34.6l81.1,79c1.6,1.6,2.3,3.8,1.9,6l-19.1,111.6c-2.2,12.8,3,25.4,13.4,33c10.5,7.6,24.1,8.6,35.6,2.6l100.2-52.7
			c2-1,4.3-1,6.3,0l100.2,52.7c5,2.6,10.4,3.9,15.7,3.9c7,0,13.9-2.2,19.8-6.5c10.5-7.6,15.6-20.3,13.4-33l-19.1-111.6
			c-0.4-2.2,0.4-4.4,1.9-6L249.2,226.7z M139.6,316.3l19.1,111.6c0.6,3.7-1.7,5.9-2.7,6.6c-1,0.7-3.8,2.3-7.1,0.5L48.7,382.3
			c-4.9-2.6-10.3-3.9-15.7-3.9s-10.8,1.3-15.7,3.9L-82.9,435c-3.4,1.8-6.1,0.2-7.1-0.5s-3.3-2.9-2.7-6.6l19.1-111.6
			c1.9-11-1.8-22.1-9.7-29.9l-81.1-79c-2.7-2.6-2.1-5.7-1.7-6.9c0.4-1.2,1.7-4.1,5.5-4.6l112-16.3c11-1.6,20.5-8.5,25.4-18.5
			L26.9,59.6c1.7-3.4,4.8-3.8,6.1-3.8c1.3,0,4.4,0.4,6.1,3.8v0l50.1,101.5c4.9,10,14.4,16.9,25.4,18.5l112,16.3
			c3.7,0.5,5.1,3.4,5.5,4.6c0.4,1.2,1,4.3-1.7,6.9l-81.1,79C141.3,294.1,137.7,305.3,139.6,316.3z"/>
	</g>
</g>
<g>
	<g>
		<path d="M190.8,47.6c-6-4.4-14.5-3-18.9,3l-14.3,19.7c-4.4,6-3,14.5,3,18.9c2.4,1.7,5.2,2.6,7.9,2.6c4.2,0,8.3-1.9,10.9-5.6
			l14.3-19.7C198.2,60.5,196.8,52,190.8,47.6z"/>
	</g>
</g>
<g>
	<g>
		<path d="M-91.6,70.3L-106,50.5c-4.4-6-12.8-7.4-18.9-3c-6,4.4-7.4,12.8-3,18.9l14.3,19.7c2.6,3.6,6.8,5.6,10.9,5.6
			c2.8,0,5.5-0.8,7.9-2.6C-88.6,84.7-87.3,76.3-91.6,70.3z"/>
	</g>
</g>
<g>
	<g>
		<path d="M-173.4,331.8c-2.3-7.1-9.9-11-17-8.7l-23.2,7.5c-7.1,2.3-11,9.9-8.7,17c1.9,5.7,7.1,9.3,12.8,9.3c1.4,0,2.8-0.2,4.2-0.7
			l23.2-7.5C-175,346.5-171.1,338.9-173.4,331.8z"/>
	</g>
</g>
<g>
	<g>
		<path d="M33,481.8c-7.5,0-13.5,6-13.5,13.5v24.4c0,7.5,6,13.5,13.5,13.5c7.5,0,13.5-6,13.5-13.5v-24.4
			C46.5,487.8,40.5,481.8,33,481.8z"/>
	</g>
</g>
<g>
	<g>
		<path d="M279.7,330.7l-23.2-7.5c-7.1-2.3-14.7,1.6-17,8.7c-2.3,7.1,1.6,14.7,8.7,17l23.2,7.5c1.4,0.5,2.8,0.7,4.2,0.7
			c5.7,0,11-3.6,12.8-9.3C290.6,340.6,286.8,333,279.7,330.7z"/>
	</g>
</g>
</symbol></svg>