<?xml version="1.0" encoding="utf-8"?><svg xmlns="http://www.w3.org/2000/svg" xmlns:xlink="http://www.w3.org/1999/xlink">
    <symbol viewBox="0 0 16 17" id="arrow" xmlns="http://www.w3.org/2000/svg">
        <path d="m5.896 1.853 6.32 6.5-6.32 6.5" />
    </symbol>
    <symbol viewBox="0 0 20 20" id="arrow-2" xmlns="http://www.w3.org/2000/svg">
        <path d="m8 2.555 7.611 7.612L8 17.778" />
    </symbol>
    <symbol viewBox="0 0 20 20" id="caret-down" xmlns="http://www.w3.org/2000/svg">
        <path d="m16.914 8.163-6.25 6.25a.94.94 0 0 1-1.328 0l-6.25-6.25a.94.94 0 0 1 1.328-1.328L10 12.422l5.586-5.588a.94.94 0 1 1 1.328 1.329h-.001Z" />
    </symbol>
    <symbol viewBox="0 0 32 32" id="chartLineUp" xmlns="http://www.w3.org/2000/svg">
        <path d="M29.5 26a1.5 1.5 0 0 1-1.5 1.5H4A1.5 1.5 0 0 1 2.5 26V6a1.5 1.5 0 0 1 3 0v12.375l5.439-5.44a1.5 1.5 0 0 1 2.125 0L16 15.875l5.375-5.375H20a1.5 1.5 0 1 1 0-3h5A1.5 1.5 0 0 1 26.5 9v5a1.5 1.5 0 1 1-3 0v-1.375l-6.439 6.44a1.501 1.501 0 0 1-2.125 0L12 16.125l-6.5 6.5V24.5H28a1.5 1.5 0 0 1 1.5 1.5Z" />
    </symbol>
    <symbol viewBox="0 0 32 32" id="chat-circle-dots" xmlns="http://www.w3.org/2000/svg">
        <path d="M15 16a2 2 0 1 1-4 0 2 2 0 0 1 4 0Zm4-2a2 2 0 1 0 0 4.001A2 2 0 0 0 19 14Zm10.5 2A13.5 13.5 0 0 1 9.846 28.019l-4.053 1.356a2.5 2.5 0 0 1-3.168-3.168l1.351-4.053A13.5 13.5 0 1 1 29.5 16Zm-3 0A10.5 10.5 0 1 0 6.91 21.258a1.5 1.5 0 0 1 .125 1.226l-1.241 3.723 3.723-1.24a1.5 1.5 0 0 1 1.225.125A10.5 10.5 0 0 0 26.501 16Z" />
    </symbol>
    <symbol viewBox="0 0 24 24" id="clock" xmlns="http://www.w3.org/2000/svg">
        <path d="M12 8v4l3 3m6-3a9 9 0 1 1-18 0 9 9 0 0 1 18 0Z" />
    </symbol>
    <symbol viewBox="0 0 28 28" id="close" xmlns="http://www.w3.org/2000/svg">
        <path d="M21.55 19.662 15.887 14l5.663-5.662a1.335 1.335 0 0 0-1.888-1.888L14 12.113 8.338 6.45A1.335 1.335 0 1 0 6.45 8.338L12.113 14 6.45 19.662a1.334 1.334 0 1 0 1.888 1.888L14 15.887l5.662 5.663a1.334 1.334 0 1 0 1.888-1.888Z" />
    </symbol>
    <symbol viewBox="0 0 22 22" id="cross" xmlns="http://www.w3.org/2000/svg">
        <path d="M17.918 16.458a1.033 1.033 0 1 1-1.461 1.46L11 12.462l-5.458 5.456a1.033 1.033 0 0 1-1.461-1.46L9.54 11 4.084 5.542a1.033 1.033 0 1 1 1.46-1.46l5.457 5.457 5.458-5.459a1.033 1.033 0 1 1 1.46 1.461L12.462 11l5.456 5.458Z" />
    </symbol>
    <symbol viewBox="0 0 17 17" id="eye" xmlns="http://www.w3.org/2000/svg">
        <path d="M15.527 8.217C14.096 4.895 11.404 2.833 8.5 2.833S2.904 4.895 1.473 8.217a.708.708 0 0 0 0 .566c1.431 3.322 4.123 5.384 7.027 5.384s5.596-2.062 7.027-5.384a.708.708 0 0 0 0-.566ZM8.5 12.75c-2.245 0-4.37-1.622-5.596-4.25C4.13 5.872 6.254 4.25 8.5 4.25c2.245 0 4.37 1.622 5.596 4.25-1.226 2.628-3.35 4.25-5.596 4.25Zm0-7.083a2.833 2.833 0 1 0 0 5.666 2.833 2.833 0 0 0 0-5.666Zm0 4.25a1.417 1.417 0 1 1 0-2.834 1.417 1.417 0 0 1 0 2.834Z" />
    </symbol>
    <symbol viewBox="0 0 22 22" id="filters" xmlns="http://www.w3.org/2000/svg">
        <path d="M20.134 4.117a1.719 1.719 0 0 0-1.572-1.023H3.437a1.719 1.719 0 0 0-1.272 2.874l.01.012 5.731 6.116v6.466a1.72 1.72 0 0 0 2.673 1.43l2.75-1.832a1.718 1.718 0 0 0 .765-1.431v-4.633l5.729-6.116.01-.012a1.718 1.718 0 0 0 .301-1.85Zm-7.82 6.866c-.18.19-.282.442-.283.704v4.858L9.97 17.92v-6.233c0-.261-.1-.513-.28-.704L4.231 5.156h13.538l-5.455 5.827Z" />
    </symbol>
    <symbol viewBox="0 0 20 20" id="grid" xmlns="http://www.w3.org/2000/svg">
        <path d="M4.71 5.455H.745A.744.744 0 0 1 0 4.71V.744A.744.744 0 0 1 .744 0H4.71a.744.744 0 0 1 .744.744V4.71a.744.744 0 0 1-.744.744ZM4.71 12.727H.745A.744.744 0 0 1 0 11.983V8.017a.744.744 0 0 1 .744-.744H4.71a.744.744 0 0 1 .744.744v3.966a.744.744 0 0 1-.744.744ZM4.71 20H.745A.744.744 0 0 1 0 19.256V15.29a.744.744 0 0 1 .744-.744H4.71a.744.744 0 0 1 .744.744v3.967A.744.744 0 0 1 4.71 20ZM11.984 5.455H8.017a.744.744 0 0 1-.744-.744V.744A.744.744 0 0 1 8.017 0h3.967a.744.744 0 0 1 .744.744V4.71a.744.744 0 0 1-.744.744ZM19.256 5.455h-3.967a.744.744 0 0 1-.744-.744V.744A.744.744 0 0 1 15.289 0h3.967A.744.744 0 0 1 20 .744V4.71a.744.744 0 0 1-.744.744ZM11.984 12.727H8.017a.744.744 0 0 1-.744-.744V8.017a.744.744 0 0 1 .744-.744h3.967a.744.744 0 0 1 .744.744v3.966a.744.744 0 0 1-.744.744ZM11.984 20H8.017a.744.744 0 0 1-.744-.744V15.29a.744.744 0 0 1 .744-.744h3.967a.744.744 0 0 1 .744.744v3.967a.744.744 0 0 1-.744.744ZM19.256 12.727h-3.967a.744.744 0 0 1-.744-.744V8.017a.744.744 0 0 1 .744-.744h3.967a.744.744 0 0 1 .744.744v3.966a.744.744 0 0 1-.744.744ZM19.256 20h-3.967a.744.744 0 0 1-.744-.744V15.29a.744.744 0 0 1 .744-.744h3.967a.744.744 0 0 1 .744.744v3.967a.744.744 0 0 1-.744.744Z" />
    </symbol>
    <symbol viewBox="0 0 32 32" id="handshake" xmlns="http://www.w3.org/2000/svg">
        <path d="m31.732 13.514-3.19-6.375a2.502 2.502 0 0 0-3.355-1.125L22.29 7.462l-5.83-1.89a1.518 1.518 0 0 0-.925 0l-5.83 1.89-2.898-1.448a2.5 2.5 0 0 0-3.353 1.125L.262 13.514a2.5 2.5 0 0 0 1.125 3.353l3.334 1.668 6.398 4.676c.151.111.322.193.503.241l7.75 2a1.5 1.5 0 0 0 1.435-.393l6.578-6.577 3.229-1.615a2.5 2.5 0 0 0 1.118-3.353Zm-7.265 3.643-3.44-3.25a1.5 1.5 0 0 0-2.095.033c-1.207 1.217-3.132 2.101-5.1 1.194l4.773-4.625h2.84l3.226 6.453-.204.195ZM5.912 8.921l1.66.829-2.75 5.487-1.66-.828 2.75-5.488Zm13.375 13.413-6.636-1.71-5.25-3.832 3.243-6.48 5.353-1.736.212.069-4.962 4.815-.016.015a2.499 2.499 0 0 0 .425 3.875c2.619 1.674 5.75 1.509 8.291-.341l2.4 2.268-3.06 3.057Zm7.875-7.097-2.75-5.487 1.66-.829 2.743 5.488-1.653.828ZM14.816 27.375a1.501 1.501 0 0 1-1.827 1.077l-3.325-.858a1.499 1.499 0 0 1-.51-.242l-3.042-2.227a1.5 1.5 0 0 1 1.77-2.421l2.81 2.052 3.047.786a1.5 1.5 0 0 1 1.077 1.833Z" />
    </symbol>
    <symbol viewBox="0 0 24 24" id="link" xmlns="http://www.w3.org/2000/svg">
        <path d="M10.985 17.694a1.125 1.125 0 0 1 0 1.594l-.48.48a5.463 5.463 0 0 1-3.887 1.607 5.496 5.496 0 0 1-3.886-9.383l3.257-3.257a5.498 5.498 0 0 1 9.24 2.635 1.125 1.125 0 1 1-2.19.51 3.248 3.248 0 0 0-5.459-1.555l-3.257 3.258a3.246 3.246 0 1 0 4.589 4.591l.479-.48a1.125 1.125 0 0 1 1.594 0Zm10.28-13.46a5.498 5.498 0 0 0-7.775 0l-.479.48a1.127 1.127 0 0 0 1.594 1.593l.48-.48a3.248 3.248 0 0 1 4.594 4.594l-3.264 3.253a3.226 3.226 0 0 1-2.296.95 3.246 3.246 0 0 1-3.158-2.504 1.125 1.125 0 1 0-2.192.51 5.498 5.498 0 0 0 5.346 4.245h.004a5.463 5.463 0 0 0 3.888-1.61l3.258-3.258a5.495 5.495 0 0 0 0-7.772Z" />
    </symbol>
    <symbol viewBox="0 0 20 20" id="list" xmlns="http://www.w3.org/2000/svg">
        <path d="M19.256 5.455H.744A.744.744 0 0 1 0 4.71V.744A.744.744 0 0 1 .744 0h18.512A.743.743 0 0 1 20 .744V4.71a.744.744 0 0 1-.744.744ZM19.256 12.727H.744A.744.744 0 0 1 0 11.983V8.017a.744.744 0 0 1 .744-.744h18.512a.743.743 0 0 1 .744.744v3.966a.744.744 0 0 1-.744.744ZM19.256 20H.744A.744.744 0 0 1 0 19.256V15.29a.744.744 0 0 1 .744-.744h18.512a.743.743 0 0 1 .744.744v3.967a.744.744 0 0 1-.744.744Z" />
    </symbol>
    <symbol viewBox="0 0 20 20" id="location" xmlns="http://www.w3.org/2000/svg">
        <path d="M10 9a1.667 1.667 0 1 0 0-3.333A1.667 1.667 0 0 0 10 9Zm-.592 5.759a.833.833 0 0 0 1.183 0L14 11.342a5.659 5.659 0 1 0-8 0l3.408 3.417ZM6.025 6.95A4.008 4.008 0 0 1 7.8 3.992a4.008 4.008 0 0 1 4.4 0 4.017 4.017 0 0 1 .625 6.175L10 12.992l-2.825-2.825a3.976 3.976 0 0 1-1.15-3.217Zm9.808 9.717H4.166a.834.834 0 0 0 0 1.667h11.667a.834.834 0 0 0 0-1.667Z" />
    </symbol>
    <symbol viewBox="0 0 20 20" id="location-pin" xmlns="http://www.w3.org/2000/svg">
        <path d="M10.003 9a1.667 1.667 0 1 0 0-3.333 1.667 1.667 0 0 0 0 3.333ZM9.41 14.76a.833.833 0 0 0 1.183 0l3.409-3.417a5.659 5.659 0 1 0-8 0L9.41 14.76ZM6.028 6.95a4.008 4.008 0 0 1 1.775-2.958 4.008 4.008 0 0 1 4.4 0 4.017 4.017 0 0 1 .625 6.175l-2.825 2.825-2.825-2.825a3.976 3.976 0 0 1-1.15-3.217Zm9.808 9.717H4.169a.834.834 0 0 0 0 1.667h11.667a.834.834 0 1 0 0-1.667Z" />
    </symbol>
    <symbol viewBox="0 0 20 20" id="mail" xmlns="http://www.w3.org/2000/svg">
        <path d="M15.834 3.333H4.167a2.5 2.5 0 0 0-2.5 2.5v8.333a2.5 2.5 0 0 0 2.5 2.5h11.667a2.5 2.5 0 0 0 2.5-2.5V5.833a2.5 2.5 0 0 0-2.5-2.5ZM15.492 5l-4.9 4.9a.833.833 0 0 1-1.183 0L4.509 5h10.983Zm1.175 9.166a.833.833 0 0 1-.833.834H4.167a.833.833 0 0 1-.833-.834V6.175l4.9 4.9a2.5 2.5 0 0 0 3.533 0l4.9-4.9v7.991Z" />
    </symbol>
    <symbol viewBox="0 0 18 18" id="menu" xmlns="http://www.w3.org/2000/svg">
        <path d="M16.031 9a.843.843 0 0 1-.843.844H2.812a.844.844 0 0 1 0-1.688h12.376A.844.844 0 0 1 16.03 9ZM2.813 5.344h12.374a.844.844 0 1 0 0-1.688H2.813a.844.844 0 1 0 0 1.688Zm12.374 7.312H2.813a.844.844 0 1 0 0 1.688h12.374a.843.843 0 1 0 0-1.688Z" />
    </symbol>
    <symbol viewBox="0 0 32 32" id="menu-2" xmlns="http://www.w3.org/2000/svg">
        <path d="M28.5 16a1.5 1.5 0 0 1-1.5 1.5H5a1.5 1.5 0 1 1 0-3h22a1.5 1.5 0 0 1 1.5 1.5ZM5 9.5h22a1.5 1.5 0 0 0 0-3H5a1.5 1.5 0 0 0 0 3Zm22 13H5a1.5 1.5 0 1 0 0 3h22a1.5 1.5 0 1 0 0-3Z" />
    </symbol>
    <symbol viewBox="0 0 20 20" id="nav" xmlns="http://www.w3.org/2000/svg">
        <path d="m8 6 4 4-4 4" />
    </symbol>
    <symbol viewBox="0 0 32 32" id="phone" xmlns="http://www.w3.org/2000/svg">
        <path d="m26.5 18.431-5.15-2.309-.02-.008a2.182 2.182 0 0 0-2.078.191c-.043.028-.084.06-.123.092l-2.44 2.078c-1.422-.771-2.89-2.228-3.663-3.632l2.085-2.479a1.3 1.3 0 0 0 .093-.126 2.188 2.188 0 0 0 .173-2.079L13.069 5a2.195 2.195 0 0 0-2.273-1.296 6.592 6.592 0 0 0-5.733 6.546c0 8.926 7.26 16.188 16.187 16.188a6.592 6.592 0 0 0 6.546-5.734 2.194 2.194 0 0 0-1.296-2.273Zm-5.25 5.381A13.578 13.578 0 0 1 7.688 10.25a3.97 3.97 0 0 1 3.115-3.887l2.058 4.594-2.096 2.495c-.034.04-.065.083-.094.127a2.188 2.188 0 0 0-.14 2.148c1.03 2.11 3.153 4.218 5.284 5.25a2.187 2.187 0 0 0 2.154-.158 1.27 1.27 0 0 0 .121-.093l2.453-2.086 4.594 2.058a3.97 3.97 0 0 1-3.887 3.114Z" />
    </symbol>
    <symbol viewBox="0 0 44 44" id="play" xmlns="http://www.w3.org/2000/svg">
        <path d="M32.256 19.504c1.781 1.187 1.781 3.805 0 4.992L16.664 34.891C14.67 36.22 12 34.79 12 32.394V11.606c0-2.397 2.67-3.826 4.664-2.497l15.592 10.395Z" />
    </symbol>
    <symbol viewBox="0 0 32 32" id="polygon" xmlns="http://www.w3.org/2000/svg">
        <path d="M29.18 12.181a4.5 4.5 0 1 0-6.88-5.746l-2.819-.769a4.5 4.5 0 1 0-8.642 2.055l-3.694 3.325a4.51 4.51 0 0 0-5.332.772 4.5 4.5 0 0 0 5.716 6.9l8.16 5.984a4.5 4.5 0 1 0 7.135-2.202l3.172-9a4.49 4.49 0 0 0 3.184-1.319ZM17.462 22.282 9.302 16.3a4.524 4.524 0 0 0-.15-3.021l3.694-3.327a4.5 4.5 0 0 0 5.333-.77c.19-.192.363-.401.515-.625l2.819.769a4.483 4.483 0 0 0 1.302 2.85c.113.114.232.223.356.325l-3.175 9a4.5 4.5 0 0 0-2.534.782ZM27.06 7.937a1.5 1.5 0 1 1-2.125 2.118 1.5 1.5 0 0 1 2.125-2.118Zm-13.125-3a1.5 1.5 0 1 1 2.115 2.126 1.5 1.5 0 0 1-2.114-2.126h-.001Zm-10 11.125a1.5 1.5 0 1 1 2.125-2.115 1.5 1.5 0 0 1-2.125 2.114v.002Zm17.125 11a1.5 1.5 0 1 1-2.115-2.125 1.5 1.5 0 0 1 2.114 2.125Z" />
    </symbol>
    <symbol viewBox="0 0 36 38" id="promotion" xmlns="http://www.w3.org/2000/svg">
        <path d="M31.984 20.644a1.875 1.875 0 0 0-2.081 1.631A13.126 13.126 0 0 1 16.872 33.75H6.39l1.2-1.181a1.875 1.875 0 0 0 0-2.644 13.125 13.125 0 0 1 6-22.013 1.878 1.878 0 0 0-.937-3.637 16.875 16.875 0 0 0-8.906 26.888L.54 34.293a1.874 1.874 0 0 0-.393 2.044A1.875 1.875 0 0 0 1.872 37.5h15a16.875 16.875 0 0 0 16.743-14.775 1.875 1.875 0 0 0-1.63-2.081Zm-.112-11.269a3.75 3.75 0 0 0-2.213.731l-3.281-1.5 3.619-1.65a3.75 3.75 0 0 0 1.875.544 3.75 3.75 0 1 0-3.75-3.75l-3.563 1.631a3.75 3.75 0 0 0-2.062-.694 3.75 3.75 0 0 0 0 7.5 3.75 3.75 0 0 0 1.743-.45l3.92 1.876a3.75 3.75 0 1 0 3.712-4.238Z" />
    </symbol>
    <symbol viewBox="0 0 16 14" id="rutube" xmlns="http://www.w3.org/2000/svg">
        <path d="M8.43 8.466H2.51V6.094h5.92c.345 0 .586.061.706.168.121.106.196.304.196.593v.851c0 .304-.075.502-.196.609-.12.106-.36.152-.706.152v-.001Zm.406-4.608H0V14h2.51v-3.3h4.627L9.332 14h2.81l-2.42-3.315c.893-.134 1.294-.41 1.624-.867.33-.456.496-1.186.496-2.16v-.76c0-.577-.06-1.033-.166-1.383a2.312 2.312 0 0 0-.54-.927 2.44 2.44 0 0 0-.933-.563c-.36-.107-.812-.168-1.367-.168v.001ZM14.071 3.857a1.929 1.929 0 1 0 0-3.857 1.929 1.929 0 0 0 0 3.857Z" />
    </symbol>
    <symbol viewBox="0 0 32 32" id="seal-check" xmlns="http://www.w3.org/2000/svg">
        <path d="M28.594 12.506c-.44-.459-.894-.932-1.043-1.291-.132-.32-.142-.979-.151-1.559-.019-1.25-.042-2.805-1.147-3.909-1.105-1.103-2.66-1.125-3.91-1.147-.58-.009-1.238-.019-1.558-.151-.359-.149-.832-.603-1.291-1.043C18.609 2.557 17.506 1.5 16 1.5c-1.506 0-2.609 1.058-3.494 1.906-.459.44-.932.894-1.291 1.043-.32.132-.979.142-1.559.151-1.25.025-2.805.043-3.906 1.15S4.625 8.406 4.6 9.656c-.009.58-.019 1.239-.151 1.559-.149.359-.603.832-1.043 1.291C2.557 13.391 1.5 14.5 1.5 16c0 1.5 1.058 2.609 1.906 3.5.44.459.894.933 1.043 1.291.132.32.142.979.151 1.559.019 1.25.043 2.805 1.147 3.909 1.106 1.104 2.66 1.125 3.91 1.147.58.009 1.238.019 1.558.152.359.148.832.602 1.291 1.042.885.842 1.994 1.9 3.494 1.9 1.5 0 2.609-1.058 3.494-1.906.459-.44.932-.894 1.291-1.043.32-.132.979-.142 1.559-.151 1.25-.019 2.805-.042 3.909-1.147 1.103-1.105 1.125-2.66 1.147-3.91.009-.58.019-1.238.151-1.558.149-.359.603-.832 1.043-1.291.848-.885 1.906-1.988 1.906-3.494 0-1.506-1.058-2.609-1.906-3.494Zm-2.165 4.912c-.603.625-1.285 1.34-1.649 2.22-.353.85-.366 1.77-.375 2.66-.01.67-.024 1.59-.269 1.833-.245.244-1.162.259-1.832.269-.891.014-1.811.027-2.662.375-.875.364-1.59 1.046-2.22 1.649-.45.431-1.122 1.076-1.422 1.076-.3 0-.973-.645-1.418-1.071-.625-.603-1.34-1.285-2.22-1.649-.85-.353-1.77-.366-2.66-.375-.67-.01-1.59-.024-1.833-.269-.244-.245-.259-1.162-.269-1.832-.014-.891-.027-1.811-.375-2.662-.364-.875-1.046-1.59-1.649-2.22C5.145 16.973 4.5 16.3 4.5 16c0-.3.645-.973 1.071-1.418.603-.625 1.285-1.34 1.649-2.22.353-.85.366-1.77.375-2.66.015-.67.03-1.59.28-1.827.25-.237 1.162-.259 1.832-.269.892-.013 1.812-.027 2.662-.375.875-.364 1.591-1.046 2.22-1.649C15.027 5.145 15.7 4.5 16 4.5c.3 0 .973.645 1.418 1.071.625.603 1.34 1.285 2.22 1.649.85.353 1.77.366 2.66.375.67.01 1.59.024 1.833.269.244.245.259 1.162.269 1.832.014.892.027 1.812.375 2.662.364.874 1.046 1.59 1.649 2.22.426.445 1.071 1.117 1.071 1.417 0 .3-.64.978-1.066 1.423Zm-4.368-5.48a1.501 1.501 0 0 1 0 2.126l-7 7a1.5 1.5 0 0 1-2.125 0l-3-3a1.502 1.502 0 1 1 2.125-2.125L14 17.875l5.939-5.94a1.5 1.5 0 0 1 2.122.004Z" />
    </symbol>
    <symbol viewBox="0 0 24 24" id="search" xmlns="http://www.w3.org/2000/svg">
        <path d="m21.796 20.204-4.452-4.454a8.636 8.636 0 1 0-1.594 1.594l4.456 4.457a1.124 1.124 0 0 0 1.594 0 1.127 1.127 0 0 0 0-1.594l-.004-.003ZM4.126 10.5a6.375 6.375 0 1 1 6.374 6.375A6.382 6.382 0 0 1 4.125 10.5Z" />
    </symbol>
    <symbol viewBox="0 0 26 26" id="share" xmlns="http://www.w3.org/2000/svg">
        <path d="M24.424 10.514 16.3 2.389a1.22 1.22 0 0 0-2.08.86v3.732c-2.617.317-5.45 1.614-7.796 3.603-2.961 2.512-4.806 5.757-5.193 9.14a1.625 1.625 0 0 0 2.799 1.3c1.062-1.132 4.773-4.646 10.19-5.121V19.5a1.219 1.219 0 0 0 2.08.861l8.124-8.125a1.22 1.22 0 0 0 .001-1.722Zm-7.768 6.04v-1.93a1.218 1.218 0 0 0-1.219-1.218c-4.976 0-8.792 2.19-11.15 4.074C5.01 15.635 6.28 13.903 8 12.443c2.287-1.94 5.067-3.1 7.436-3.1a1.219 1.219 0 0 0 1.219-1.218v-1.93l5.18 5.18-5.18 5.18Z" />
    </symbol>
    <symbol viewBox="0 0 32 32" id="star" xmlns="http://www.w3.org/2000/svg">
        <path d="M30.375 12a2.54 2.54 0 0 0-2.218-1.75l-7.073-.571-2.73-6.601a2.546 2.546 0 0 0-4.708 0L10.92 9.68l-7.074.57a2.556 2.556 0 0 0-1.458 4.485l5.398 4.655-1.65 6.963a2.546 2.546 0 0 0 3.811 2.772L16 25.4l6.054 3.726a2.549 2.549 0 0 0 3.81-2.769l-1.65-6.962 5.398-4.655A2.554 2.554 0 0 0 30.375 12Zm-8.809 5.713a1.499 1.499 0 0 0-.48 1.482L22.697 26l-5.91-3.635a1.5 1.5 0 0 0-1.573 0L9.302 26l1.612-6.8a1.501 1.501 0 0 0-.48-1.482L5.15 13.155l6.925-.559a1.5 1.5 0 0 0 1.266-.922L16 5.236l2.659 6.438a1.5 1.5 0 0 0 1.266.922l6.925.56-5.284 4.557Z" />
    </symbol>
    <symbol viewBox="0 0 37 37" id="support" xmlns="http://www.w3.org/2000/svg">
        <path d="M18.526 16.65a1.846 1.846 0 0 0-1.847 1.85v5.549a1.851 1.851 0 0 0 1.847 1.85 1.846 1.846 0 0 0 1.847-1.85v-5.55a1.851 1.851 0 0 0-1.847-1.85Zm0-5.55a1.845 1.845 0 0 0-1.707 1.142 1.852 1.852 0 0 0 1.347 2.522 1.845 1.845 0 0 0 2.207-1.815 1.851 1.851 0 0 0-1.847-1.85Zm0-11.1A18.452 18.452 0 0 0 5.463 5.418 18.512 18.512 0 0 0 .053 18.5a18.311 18.311 0 0 0 4.174 11.71l-3.695 3.7a1.85 1.85 0 0 0-.388 2.016A1.849 1.849 0 0 0 1.9 36.998h16.627c4.9 0 9.599-1.949 13.063-5.418A18.512 18.512 0 0 0 37 18.5c0-4.907-1.946-9.612-5.41-13.082A18.461 18.461 0 0 0 18.525 0Zm0 33.298H6.352l1.718-1.72a1.85 1.85 0 0 0 .554-1.313 1.851 1.851 0 0 0-.554-1.295A14.815 14.815 0 0 1 6.22 10.285a14.78 14.78 0 0 1 7.994-5.945 14.76 14.76 0 0 1 9.946.483 14.787 14.787 0 0 1 7.383 6.69 14.817 14.817 0 0 1-3.645 18.42 14.767 14.767 0 0 1-9.373 3.365Z" />
    </symbol>
</svg>