<svg width="138" height="58" viewBox="0 0 138 58" fill="none" xmlns="http://www.w3.org/2000/svg">
<path d="M0 17.6465H14.8459V39.5633C14.8459 41.7681 15.782 42.8744 17.6619 42.8744C19.5418 42.8744 20.4392 41.7681 20.4392 39.5633V17.6465H35.2851V39.2848C35.2851 44.3211 33.5754 48.576 30.1637 52.0496C26.752 55.5 22.5667 57.2252 17.6232 57.2252C12.6797 57.2252 7.45001 55.2137 4.00738 51.1909C1.33837 48.05 0 43.6945 0 38.1166V17.6465Z" fill="white"/>
<path d="M74.3769 57.2328H59.531V35.3392C59.531 33.1112 58.5949 31.9972 56.715 31.9972C54.8351 31.9972 53.9377 33.1112 53.9377 35.3392V57.2328H39.0918V35.61C39.0918 30.5582 40.8015 26.3033 44.2132 22.8529C47.6249 19.3793 51.8102 17.6387 56.7537 17.6387C61.6971 17.6387 66.9501 19.6501 70.3695 23.6652C73.0385 26.7984 74.3769 31.1694 74.3769 36.7704V57.2251V57.2328Z" fill="white"/>
<path d="M93.0368 17.6619V57.2328H78.1909V17.6619H93.0368ZM85.6487 0C87.6601 0 89.393 0.711736 90.8474 2.14294C92.3328 3.54321 93.0677 5.21424 93.0677 7.14057C93.0677 9.06689 92.3637 10.9004 90.9635 12.2233C89.5864 13.5462 87.8148 14.2115 85.6487 14.2115C83.4825 14.2115 81.6954 13.5462 80.2874 12.2233C78.9104 10.9004 78.2219 9.20615 78.2219 7.14057C78.2219 5.07498 78.9491 3.54321 80.4035 2.14294C81.8888 0.711736 83.6295 0 85.6409 0H85.6487Z" fill="white"/>
<path d="M111.728 17.6621V57.2331H96.8818V17.6621H111.728ZM134.472 17.6621L126.589 31.1464L138 57.2331H121.568L111.728 31.1464L119.031 17.6621H134.472Z" fill="white"/>
</svg>
