<svg width="114" height="58" viewBox="0 0 114 58" fill="none" xmlns="http://www.w3.org/2000/svg">
<path d="M0 17.0775H12.264V35.1827C12.264 37.0041 13.0373 37.918 14.5903 37.918C16.1432 37.918 16.8846 37.0041 16.8846 35.1827V17.0775H29.1486V34.9527C29.1486 39.1131 27.7362 42.6281 24.9179 45.4975C22.0995 48.3479 18.6421 49.773 14.5583 49.773C10.4746 49.773 6.15437 48.1114 3.31045 44.7882C1.10561 42.1935 0 38.5954 0 33.9877V17.0775Z" fill="#9480EC"/>
<path d="M61.4416 49.7793H49.1775V31.6933C49.1775 29.8527 48.4043 28.9324 46.8513 28.9324C45.2983 28.9324 44.557 29.8527 44.557 31.6933V49.7793H32.293V31.9169C32.293 27.7437 33.7053 24.2288 36.5237 21.3785C39.3421 18.509 42.7995 17.071 46.8832 17.071C50.967 17.071 55.3064 18.7327 58.1311 22.0495C60.3359 24.6378 61.4416 28.2486 61.4416 32.8756V49.7729V49.7793Z" fill="#9480EC"/>
<path d="M76.8568 17.0903V49.7794H64.5928V17.0903H76.8568ZM70.7535 2.5C72.4151 2.5 73.8467 3.08796 75.0482 4.27026C76.2752 5.427 76.8823 6.80742 76.8823 8.39874C76.8823 9.99006 76.3008 11.5047 75.144 12.5975C74.0065 13.6903 72.543 14.24 70.7535 14.24C68.9641 14.24 67.4878 13.6903 66.3247 12.5975C65.1871 11.5047 64.6183 10.1051 64.6183 8.39874C64.6183 6.69239 65.2191 5.427 66.4205 4.27026C67.6476 3.08796 69.0855 2.5 70.7471 2.5H70.7535Z" fill="#9480EC"/>
<path d="M92.2967 17.0906V49.7797H80.0327V17.0906H92.2967ZM111.086 17.0906L104.574 28.2298L114 49.7797H100.426L92.2967 28.2298L98.3297 17.0906H111.086Z" fill="#9480EC"/>
</svg>
