<svg width="2057" height="1415" viewBox="0 0 2057 1415" fill="none" xmlns="http://www.w3.org/2000/svg">
<g style="mix-blend-mode:multiply" clip-path="url(#clip0_3729_466)">
<path d="M18.0004 1226.77C51.1691 1212.63 91.3014 1221.77 122.311 1239.11C251.832 1311.46 347.903 1521.51 510.863 1511.91C709.912 1500.15 669.141 1215.93 839.273 1184.39C941.511 1165.47 1034.42 1249.04 1082.94 1334.62C1125.99 1410.54 1157.31 1489.42 1246.14 1520.42C1336.49 1551.94 1403.82 1472.18 1490.14 1532.63C1493.44 1534.98 1497.81 1537.72 1499.53 1541.58L352.604 2023.35L18.0376 1226.86L18.0004 1226.77Z" fill="#6A59A3" fill-opacity="0.05"/>
<path d="M1434.58 721.936C1423.71 724.913 1412.82 728.095 1402.15 731.723C1354.71 747.528 1253.38 782.382 1225.16 823.405C1211.43 843.371 1201.79 882.022 1213.29 904.337C1227.43 931.783 1265.63 942.907 1294.02 947.875C1330.65 954.277 1368.86 953.491 1405.79 955.126L1373.4 1217.54C1341.4 1229.4 1310.07 1243.23 1277.7 1254.14C1250.78 1263.21 1198.21 1280.61 1171.06 1275.17C1161.15 1273.18 1139.66 1265.23 1133.93 1257.07C1104.42 1214.98 1166.73 1181.23 1197.28 1164.74C1235.35 1144.22 1313.71 1115.73 1341.2 1086.8C1361.58 1065.36 1350.33 1050.6 1325.43 1043.83C1282.37 1032.11 1225.35 1039.35 1180.15 1035.86C1088.04 1028.73 936.308 995.864 935.867 878.865C935.545 786.259 1025.82 674.122 1083.81 606.127C1171.01 503.709 1272.38 420.035 1378.83 338.591C1412.84 312.7 1448.21 285.932 1483.08 261.471C1517.95 237.01 1489.16 257.277 1492.04 256.517L1434.58 721.936Z" fill="#6A59A3" fill-opacity="0.05"/>
<path d="M599.133 625.874C608.249 620.963 617.345 615.863 626.15 610.41C665.352 586.457 748.862 534.315 765.654 491.757C773.821 471.044 774.465 434.45 759.555 416.849C741.226 395.199 704.727 393.135 678.285 394.554C644.171 396.391 610.125 404.99 576.718 411.16L551.493 169.536C577.688 152.305 602.884 133.455 629.606 116.999C651.834 103.312 695.304 76.8706 720.733 76.1317C730.016 75.8651 750.891 78.5389 757.715 84.6594C792.832 116.243 744.022 159.334 720.079 180.417C690.233 206.649 625.974 248.352 607.335 279.928C593.519 303.337 606.643 314.228 630.332 315.14C671.309 316.737 720.862 298.473 762.043 292.258C845.977 279.6 988.612 277.673 1013.18 382.325C1032.61 465.165 974.957 584.213 937.098 657.068C880.194 766.778 806.731 862.636 728.26 957.547C703.165 987.754 677.033 1019.03 650.867 1048.13C624.701 1077.24 646.289 1053.14 643.871 1054.42L599.133 625.874Z" fill="#6A59A3" fill-opacity="0.05"/>
<path d="M1411.94 1414.1C1411.31 1410.52 1413.73 1411.78 1416.06 1411.69C1418.39 1411.6 1421.71 1411.6 1424.57 1411.69C1427.44 1411.78 1429.32 1410.44 1428.7 1414.1H1411.94Z" fill="#6A59A3" fill-opacity="0.05"/>
</g>
<defs>
<clipPath id="clip0_3729_466">
<rect width="2057" height="1415" fill="white"/>
</clipPath>
</defs>
</svg>
