<svg width="2057" height="1415" viewBox="0 0 2057 1415" fill="none" xmlns="http://www.w3.org/2000/svg">
<g style="mix-blend-mode:multiply" clip-path="url(#clip0_3737_779)">
<path d="M18.0004 1226.77C51.1691 1212.63 91.3014 1221.77 122.311 1239.11C251.832 1311.46 347.903 1521.51 510.863 1511.91C709.912 1500.15 669.141 1215.93 839.273 1184.39C941.511 1165.47 1034.42 1249.04 1082.94 1334.62C1125.99 1410.54 1157.31 1489.42 1246.14 1520.42C1336.49 1551.94 1403.82 1472.18 1490.14 1532.63C1493.44 1534.98 1497.81 1537.72 1499.53 1541.58L352.604 2023.35L18.0376 1226.86L18.0004 1226.77Z" fill="#6A59A3" fill-opacity="0.05"/>
<path d="M847.608 505.738C853.165 519.252 858.991 532.767 865.355 545.924C893.23 604.457 954.178 729.31 1011.45 759.113C1039.33 773.612 1090.59 779.877 1117.48 761.53C1150.56 738.976 1158.8 688.05 1160.68 650.728C1163.1 602.577 1156.02 553.531 1152.26 505.738H1495.09C1515.44 545.029 1538.2 583.156 1557.39 623.073C1573.34 656.277 1604.08 721.165 1601.39 756.965C1600.41 770.032 1593.6 798.941 1584.01 807.623C1534.53 852.283 1481.2 777.461 1455.12 740.766C1422.67 695.031 1373.55 598.729 1331.97 567.941C1301.13 545.118 1283.93 561.944 1279.17 595.059C1270.93 652.339 1289.3 724.566 1291.99 783.278C1297.46 902.94 1279.26 1103.42 1128.78 1122.57C1009.66 1137.7 851.014 1039.34 754.304 975.525C608.656 879.581 484.877 762.425 363.16 638.377C324.44 598.729 284.376 557.469 247.359 516.478C210.341 475.487 240.995 509.318 239.561 505.738H847.608Z" fill="#6A59A3" fill-opacity="0.05"/>
<path d="M1706.76 617.089L1818.91 1415.74L1196.71 1503.11C1196.83 1499.48 1194.61 1501.06 1192.29 1501.29C1189.97 1501.53 1186.69 1501.99 1183.86 1502.48C1181.03 1502.96 1178.98 1501.9 1180.11 1505.44L1174.16 1506.28C1175.7 1474.07 1207.22 1454.19 1233.6 1441.63C1266.95 1425.83 1298.18 1418.1 1327.66 1394.07C1416.69 1321.65 1478.12 1205.47 1506.99 1095.86C1537.5 979.956 1559.21 861.224 1596.88 747.299C1615.05 692.328 1642.72 628.341 1706.65 617.013L1706.76 617.089Z" fill="#6A59A3" fill-opacity="0.05"/>
<path d="M1754.91 566C1753.57 625.07 1727.21 685.035 1661.16 690.047C1582.01 696.133 1497.94 633.662 1443.18 582.11C1438.25 577.546 1431.79 571.907 1428.84 566H1754.91Z" fill="#6A59A3" fill-opacity="0.05"/>
<path d="M1411.94 1414.1C1411.31 1410.52 1413.73 1411.78 1416.06 1411.69C1418.39 1411.6 1421.71 1411.6 1424.57 1411.69C1427.44 1411.78 1429.32 1410.44 1428.7 1414.1H1411.94Z" fill="#6A59A3" fill-opacity="0.05"/>
</g>
<defs>
<clipPath id="clip0_3737_779">
<rect width="2057" height="1415" fill="white"/>
</clipPath>
</defs>
</svg>
