<svg width="2295" height="1581" viewBox="0 0 2295 1581" fill="none" xmlns="http://www.w3.org/2000/svg">
<g style="mix-blend-mode:multiply" clip-path="url(#clip0_3729_296)">
<path d="M0 678.9C38.9 678.7 75 703.7 98.6 732.9C197.2 854.8 205 1095.6 371.1 1152.2C574 1221.3 652.2 931.5 834.6 969.9C944.2 993 1001.7 1110.9 1014.2 1212.8C1025.3 1303.2 1023.5 1391.7 1098.9 1457.4C1175.6 1524.2 1275.9 1474.7 1336.5 1567.7C1338.8 1571.3 1342 1575.7 1342.1 1580.1H0V679V678.9Z" fill="#6A59A3" fill-opacity="0.05"/>
<path d="M707.7 11C713.9 26.1 720.4 41.2 727.5 55.9C758.6 121.3 826.6 260.8 890.5 294.1C921.6 310.3 978.8 317.3 1008.8 296.8C1045.7 271.6 1054.9 214.7 1057 173C1059.7 119.2 1051.8 64.4 1047.6 11H1430.1C1452.8 54.9 1478.2 97.5 1499.6 142.1C1517.4 179.2 1551.7 251.7 1548.7 291.7C1547.6 306.3 1540 338.6 1529.3 348.3C1474.1 398.2 1414.6 314.6 1385.5 273.6C1349.3 222.5 1294.5 114.9 1248.1 80.5C1213.7 55 1194.5 73.8 1189.2 110.8C1180 174.8 1200.5 255.5 1203.5 321.1C1209.6 454.8 1189.3 678.8 1021.4 700.2C888.5 717.1 711.5 607.2 603.6 535.9C441.1 428.7 303 297.8 167.2 159.2C124 114.9 79.3002 68.8 38.0002 23C-3.29977 -22.8 30.9002 15 29.3002 11H707.7Z" fill="#6A59A3" fill-opacity="0.05"/>
<path d="M2295 678.9V1580H1594C1594.7 1576 1592 1577.4 1589.4 1577.3C1586.8 1577.2 1583.1 1577.2 1579.9 1577.3C1576.7 1577.4 1574.6 1575.9 1575.3 1580H1568.6C1575.3 1544.6 1613.2 1527.5 1644.3 1517.7C1683.6 1505.4 1719.3 1501.7 1755.6 1479.7C1865.2 1413.4 1951.1 1294.4 2000 1177.6C2051.7 1054.1 2094.1 926.1 2153.4 805.9C2182 747.9 2222.5 681.4 2294.9 678.8L2295 678.9Z" fill="#6A59A3" fill-opacity="0.05"/>
<path d="M1996.5 11C1995 77 1965.6 144 1891.9 149.6C1803.6 156.4 1709.8 86.6 1648.7 29C1643.2 23.9 1636 17.6 1632.7 11H1996.5Z" fill="#6A59A3" fill-opacity="0.05"/>
<path d="M1575.3 1580C1574.6 1576 1577.3 1577.4 1579.9 1577.3C1582.5 1577.2 1586.2 1577.2 1589.4 1577.3C1592.6 1577.4 1594.7 1575.9 1594 1580H1575.3Z" fill="#6A59A3" fill-opacity="0.05"/>
<path d="M2059.9 603.7C2036 631.8 1980.4 690.2 1945.5 699.3C1902.4 710.6 1869.2 679.6 1868.4 636.9C1867.4 582.1 1906.3 488.8 1933.7 441C1963.1 389.8 2041.6 280.5 2100.3 363.7C2152.8 438.2 2112.7 541.6 2059.8 603.8L2059.9 603.7Z" fill="#6A59A3" fill-opacity="0.05"/>
</g>
<defs>
<clipPath id="clip0_3729_296">
<rect width="2295" height="1581" fill="white"/>
</clipPath>
</defs>
</svg>
