<svg width="44" height="30" viewBox="0 0 44 30" fill="none" xmlns="http://www.w3.org/2000/svg">
<path d="M16.02 27.424L16.4871 28.3082L16.4931 28.305L16.02 27.424ZM6.84 27.424L6.35999 28.3013L6.36978 28.3066L6.37968 28.3118L6.84 27.424ZM2.268 20.296L1.29042 20.5066L2.268 20.296ZM2.268 9.892L3.2449 10.1057L3.24558 10.1026L2.268 9.892ZM3.852 5.716L4.71397 6.22304L4.71819 6.21572L3.852 5.716ZM6.84 2.836L6.37967 1.94822L6.37288 1.9518L6.84 2.836ZM16.02 2.836L15.5529 3.72022L15.5597 3.72375L16.02 2.836ZM19.044 5.716L18.1778 6.21574L18.1821 6.22302L19.044 5.716ZM20.628 9.892L19.6504 10.1026L19.6511 10.1057L20.628 9.892ZM20.628 20.296L19.6504 20.0854L20.628 20.296ZM19.044 24.508L19.9102 25.0077L19.044 24.508ZM15.5529 26.5398C14.4548 27.1199 13.0988 27.432 11.448 27.432V29.432C13.3492 29.432 15.0412 29.0721 16.4871 28.3082L15.5529 26.5398ZM11.448 27.432C9.79793 27.432 8.42649 27.1202 7.30032 26.5362L6.37968 28.3118C7.84551 29.0718 9.54607 29.432 11.448 29.432V27.432ZM7.32001 26.5467C6.20784 25.9382 5.34591 25.0963 4.71819 24.0083L2.98581 25.0077C3.79809 26.4157 4.92816 27.5178 6.35999 28.3013L7.32001 26.5467ZM4.71819 24.0083C4.05538 22.8594 3.56203 21.5547 3.24558 20.0854L1.29042 20.5066C1.64597 22.1573 2.20862 23.6606 2.98581 25.0077L4.71819 24.0083ZM3.24558 20.0854C2.92713 18.6069 2.764 16.939 2.764 15.076H0.764C0.764 17.053 0.936871 18.8651 1.29042 20.5066L3.24558 20.0854ZM2.764 15.076C2.764 13.2127 2.92719 11.5581 3.2449 10.1057L1.2911 9.6783C0.936814 11.2979 0.764 13.0993 0.764 15.076H2.764ZM3.24558 10.1026C3.56185 8.63416 4.0543 7.34439 4.71393 6.22302L2.99007 5.20898C2.2097 6.53561 1.64615 8.02984 1.29042 9.68144L3.24558 10.1026ZM4.71819 6.21572C5.34419 5.13065 6.20197 4.30404 7.30712 3.72019L6.37288 1.9518C4.93403 2.71195 3.79981 3.80535 2.98581 5.21628L4.71819 6.21572ZM7.30032 3.72375C8.42649 3.13981 9.79793 2.828 11.448 2.828V0.827998C9.54607 0.827998 7.84551 1.18818 6.37968 1.94824L7.30032 3.72375ZM11.448 2.828C13.0988 2.828 14.4548 3.14006 15.5529 3.72019L16.4871 1.9518C15.0412 1.18794 13.3492 0.827998 11.448 0.827998V2.828ZM15.5597 3.72375C16.6885 4.30906 17.5546 5.13548 18.1778 6.21572L19.9102 5.21628C19.0934 3.80052 17.9435 2.70694 16.4803 1.94824L15.5597 3.72375ZM18.1821 6.22302C18.8417 7.34439 19.3341 8.63416 19.6504 10.1026L21.6056 9.68144C21.2499 8.02984 20.6863 6.53561 19.9059 5.20898L18.1821 6.22302ZM19.6511 10.1057C19.9688 11.5581 20.132 13.2127 20.132 15.076H22.132C22.132 13.0993 21.9592 11.2979 21.6049 9.6783L19.6511 10.1057ZM20.132 15.076C20.132 16.939 19.9689 18.6069 19.6504 20.0854L21.6056 20.5066C21.9591 18.8651 22.132 17.053 22.132 15.076H20.132ZM19.6504 20.0854C19.334 21.5547 18.8406 22.8594 18.1778 24.0083L19.9102 25.0077C20.6874 23.6606 21.25 22.1573 21.6056 20.5066L19.6504 20.0854ZM18.1778 24.0083C17.5528 25.0916 16.6826 25.9331 15.5469 26.543L16.4931 28.305C17.9494 27.5229 19.0952 26.4204 19.9102 25.0077L18.1778 24.0083ZM7.244 15.076C7.244 17.648 7.51077 19.7087 8.12361 21.1616C8.43436 21.8984 8.85565 22.5309 9.42623 22.9818C10.0118 23.4446 10.7002 23.672 11.448 23.672V21.672C11.1279 21.672 10.8817 21.5829 10.6663 21.4127C10.4358 21.2306 10.1896 20.9136 9.96639 20.3844C9.51123 19.3053 9.244 17.568 9.244 15.076H7.244ZM11.448 23.672C12.1959 23.672 12.8842 23.4446 13.4698 22.9818C14.0403 22.5309 14.4616 21.8984 14.7724 21.1616C15.3852 19.7087 15.652 17.648 15.652 15.076H13.652C13.652 17.568 13.3848 19.3053 12.9296 20.3844C12.7064 20.9136 12.4602 21.2306 12.2297 21.4127C12.0143 21.5829 11.7682 21.672 11.448 21.672V23.672ZM15.652 15.076C15.652 12.5392 15.3852 10.5034 14.7704 9.06661C14.4584 8.33754 14.0357 7.71222 13.4643 7.26712C12.8786 6.81087 12.1923 6.588 11.448 6.588V8.588C11.7717 8.588 12.0199 8.67712 12.2352 8.84487C12.4648 9.02377 12.7096 9.33446 12.9316 9.85338C13.3848 10.9126 13.652 12.6208 13.652 15.076H15.652ZM11.448 6.588C10.7037 6.588 10.0174 6.81087 9.4317 7.26712C8.86034 7.71222 8.43759 8.33754 8.12563 9.06661C7.51084 10.5034 7.244 12.5392 7.244 15.076H9.244C9.244 12.6208 9.51116 10.9126 9.96437 9.85338C10.1864 9.33446 10.4312 9.02377 10.6608 8.84487C10.8761 8.67712 11.1243 8.588 11.448 8.588V6.588ZM24.8667 28H23.8667V29H24.8667V28ZM24.8667 22.6V21.6H23.8667V22.6H24.8667ZM30.3387 22.6V23.6H31.3387V22.6H30.3387ZM30.3387 11.872L29.3389 11.8538L29.3387 11.8629V11.872H30.3387ZM30.3747 9.892L31.3746 9.91018L31.3931 8.892H30.3747V9.892ZM30.3027 9.892V8.892H29.6561L29.3908 9.48163L30.3027 9.892ZM29.2947 11.26L29.9665 12.0007L29.9746 11.9934L29.9825 11.986L29.2947 11.26ZM27.7467 12.664L27.0163 13.347L27.689 14.0664L28.4185 13.4047L27.7467 12.664ZM24.1107 8.776L23.4267 8.04658L22.6983 8.72969L23.3803 9.45904L24.1107 8.776ZM31.0587 2.26V1.26H30.6632L30.3747 1.53058L31.0587 2.26ZM36.4947 2.26H37.4947V1.26H36.4947V2.26ZM36.4947 22.6H35.4947V23.6H36.4947V22.6ZM42.0027 22.6H43.0027V21.6H42.0027V22.6ZM42.0027 28V29H43.0027V28H42.0027ZM25.8667 28V22.6H23.8667V28H25.8667ZM24.8667 23.6H30.3387V21.6H24.8667V23.6ZM31.3387 22.6V11.872H29.3387V22.6H31.3387ZM31.3386 11.8902L31.3746 9.91018L29.3749 9.87382L29.3389 11.8538L31.3386 11.8902ZM30.3747 8.892H30.3027V10.892H30.3747V8.892ZM29.3908 9.48163C29.2375 9.82224 28.9863 10.1747 28.607 10.534L29.9825 11.986C30.5151 11.4813 30.9359 10.9218 31.2146 10.3024L29.3908 9.48163ZM28.6229 10.5193L27.0749 11.9233L28.4185 13.4047L29.9665 12.0007L28.6229 10.5193ZM28.4771 11.981L24.8411 8.09296L23.3803 9.45904L27.0163 13.347L28.4771 11.981ZM24.7948 9.50542L31.7428 2.98942L30.3747 1.53058L23.4267 8.04658L24.7948 9.50542ZM31.0587 3.26H36.4947V1.26H31.0587V3.26ZM35.4947 2.26V22.6H37.4947V2.26H35.4947ZM36.4947 23.6H42.0027V21.6H36.4947V23.6ZM41.0027 22.6V28H43.0027V22.6H41.0027ZM42.0027 27H24.8667V29H42.0027V27Z" fill="white" fill-opacity="0.1"/>
</svg>
