<svg width="23" height="11" viewBox="0 0 23 11" fill="none" xmlns="http://www.w3.org/2000/svg">
<path d="M22.7693 6.55309C22.6478 6.66137 22.4995 6.71414 22.3522 6.71414C22.1677 6.71414 21.9843 6.63122 21.8561 6.47017L20.1573 4.33658C19.4166 5.04863 18.4817 5.75726 17.3228 6.33893L18.2919 8.82152C18.4285 9.17138 18.271 9.57212 17.9402 9.71656C17.8591 9.75185 17.7754 9.76864 17.693 9.76864C17.4385 9.76864 17.1969 9.60896 17.0937 9.3446L16.1241 6.8608C14.9391 7.29958 13.5603 7.59702 11.966 7.66144V10.3147C11.966 10.6931 11.6758 11 11.3179 11C10.96 11 10.6697 10.6931 10.6697 10.3147V7.66144C9.21644 7.60267 7.94446 7.34876 6.83289 6.972L5.90669 9.3446C5.80348 9.60896 5.56204 9.76864 5.30732 9.76864C5.22484 9.76864 5.14123 9.75185 5.06022 9.71656C4.72934 9.57212 4.57184 9.17138 4.70843 8.82152L5.61956 6.48747C4.42698 5.93202 3.46011 5.23915 2.68752 4.5319L1.14429 6.47017C1.01611 6.63105 0.832689 6.71414 0.64813 6.71414C0.500677 6.71414 0.352576 6.6612 0.231049 6.55309C-0.0427923 6.30929 -0.0779541 5.87702 0.152624 5.58747L1.75419 3.57604C0.593848 2.24205 0.0989893 1.07014 0.052809 0.956551C-0.0884866 0.608919 0.0635035 0.205775 0.392437 0.0563741C0.721209 -0.0933697 1.10248 0.0676821 1.24378 0.415485C1.28769 0.521711 1.79243 1.69893 3.00219 2.97329C3.01888 2.98546 3.03654 2.99539 3.05242 3.00944C3.09504 3.04748 3.12988 3.09117 3.16083 3.13691C3.99402 3.97678 5.13605 4.83926 6.65595 5.45246C6.67636 5.45897 6.69694 5.46308 6.7172 5.47182C6.7253 5.47542 6.73211 5.4809 6.74005 5.48484C7.99842 5.98067 9.50957 6.3062 11.3177 6.3062C18.9098 6.3062 21.3677 0.474081 21.3915 0.415143C21.5328 0.0675109 21.9143 -0.0938835 22.2429 0.0560316C22.5718 0.205433 22.7238 0.608575 22.5825 0.956207C22.5389 1.06346 22.0946 2.11441 21.0691 3.35382L22.8473 5.58713C23.0783 5.87702 23.0432 6.30929 22.7693 6.55309Z" fill="#CFD4E4"/>
</svg>
