<?xml version="1.0" encoding="UTF-8"?><!DOCTYPE svg PUBLIC "-//W3C//DTD SVG 1.1//EN" "http://www.w3.org/Graphics/SVG/1.1/DTD/svg11.dtd"><svg xmlns="http://www.w3.org/2000/svg" xmlns:xlink="http://www.w3.org/1999/xlink"><symbol id="icon-arrow-2" viewBox="0 0 9 8">
<path d="M8.35355 4.35355C8.54882 4.15829 8.54882 3.84171 8.35355 3.64645L5.17157 0.464466C4.97631 0.269204 4.65973 0.269204 4.46447 0.464466C4.2692 0.659728 4.2692 0.976311 4.46447 1.17157L7.29289 4L4.46447 6.82843C4.2692 7.02369 4.2692 7.34027 4.46447 7.53553C4.65973 7.7308 4.97631 7.7308 5.17157 7.53553L8.35355 4.35355ZM0 4.5H8V3.5H0V4.5Z"/>
</symbol><symbol id="icon-arrow-3" viewBox="0 0 15 8">
<path d="M14.3536 4.35355C14.5488 4.15829 14.5488 3.84171 14.3536 3.64645L11.1716 0.464466C10.9763 0.269204 10.6597 0.269204 10.4645 0.464466C10.2692 0.659728 10.2692 0.976311 10.4645 1.17157L13.2929 4L10.4645 6.82843C10.2692 7.02369 10.2692 7.34027 10.4645 7.53553C10.6597 7.7308 10.9763 7.7308 11.1716 7.53553L14.3536 4.35355ZM0 4.5L14 4.5V3.5L0 3.5L0 4.5Z"/>
</symbol><symbol id="icon-arrow" viewBox="0 0 8 11">
<path d="M3.64645 10.3536C3.84171 10.5488 4.15829 10.5488 4.35355 10.3536L7.53553 7.17157C7.7308 6.97631 7.7308 6.65973 7.53553 6.46447C7.34027 6.2692 7.02369 6.2692 6.82843 6.46447L4 9.29289L1.17157 6.46447C0.976311 6.2692 0.659728 6.2692 0.464466 6.46447C0.269204 6.65973 0.269204 6.97631 0.464466 7.17157L3.64645 10.3536ZM3.5 0L3.5 10H4.5L4.5 0L3.5 0Z"/>
</symbol><symbol id="icon-basket" viewBox="0 0 15 16">
<path d="M12.2168 3.0785L11.2058 14.7027H3.79413L2.78336 3.0785L1.50259 3.19178L2.53181 15.0268C2.58598 15.5723 3.05507 16 3.6 16H11.4C11.9447 16 12.414 15.5725 12.4691 15.019L13.4976 3.19178L12.2168 3.0785Z"/>
<path d="M9.85712 0H5.14285C4.55205 0 4.07141 0.484969 4.07141 1.08109V3.13516H5.35711V1.29728H9.6428V3.13512H10.9285V1.08106C10.9286 0.484969 10.4479 0 9.85712 0Z"/>
<path d="M14.3571 2.4865H0.642864C0.287782 2.4865 0 2.77688 0 3.13516C0 3.49344 0.287782 3.78381 0.642864 3.78381H14.3571C14.7122 3.78381 15 3.49344 15 3.13516C15 2.77688 14.7122 2.4865 14.3571 2.4865Z"/>
</symbol><symbol id="icon-candles" viewBox="0 0 36 45">
<path d="M35.25 17.9934V9.74139C35.25 9.32711 34.9142 8.99121 34.5 8.99121H32.25V7.38425C33.5706 7.04322 34.4949 5.85421 34.5 4.49011C34.5 3.03407 32.4661 0.692674 32.0581 0.238095C31.912 0.0860806 31.7106 0 31.5 0C31.2894 0 31.0876 0.0860806 30.9419 0.238095C30.5339 0.692674 28.5 3.03407 28.5 4.49011C28.5051 5.85421 29.4294 7.04322 30.75 7.38425V8.99121H28.5C28.0858 8.99121 27.75 9.32711 27.75 9.74139V17.9934C27.3358 17.9934 27 18.3293 27 18.7436V24.7451C27.0026 26.8154 28.6798 28.4934 30.75 28.496V29.2462C30.7474 31.3165 29.0698 32.9945 27 32.9971H18.75V28.496C20.8198 28.4934 22.4974 26.8154 22.5 24.7451V18.7436C22.5 18.3293 22.1642 17.9934 21.75 17.9934V9.74139C21.75 9.32711 21.4142 8.99121 21 8.99121H18.75V7.38425C20.0706 7.04322 20.9949 5.85421 21 4.49011C21 3.03407 18.9661 0.692674 18.5581 0.238095C18.412 0.0860806 18.2106 0 18 0C17.7894 0 17.5876 0.0860806 17.4419 0.238095C17.0339 0.692674 15 3.03407 15 4.49011C15.0051 5.85421 15.9294 7.04322 17.25 7.38425V8.99121H15C14.5858 8.99121 14.25 9.32711 14.25 9.74139V17.9934C13.8358 17.9934 13.5 18.3293 13.5 18.7436V24.7451C13.5026 26.8154 15.1798 28.4934 17.25 28.496V32.9971H9C6.92981 32.9945 5.25256 31.3165 5.25 29.2462V28.496C7.31982 28.4934 8.99744 26.8154 9 24.7451V18.7436C9 18.3293 8.66418 17.9934 8.25 17.9934V9.74139C8.25 9.32711 7.91419 8.99121 7.5 8.99121H5.25V7.38425C6.57056 7.04322 7.49487 5.85421 7.5 4.49011C7.5 3.03407 5.46606 0.692674 5.05811 0.238095C4.91199 0.0860806 4.71057 0 4.5 0C4.28943 0 4.08765 0.0860806 3.94189 0.238095C3.53394 0.692674 1.5 3.03407 1.5 4.49011C1.50513 5.85421 2.42944 7.04322 3.75 7.38425V8.99121H1.5C1.08582 8.99121 0.75 9.32711 0.75 9.74139V17.9934C0.335816 17.9934 0 18.3293 0 18.7436V24.7451C0.0025635 26.8154 1.67981 28.4934 3.75 28.496V29.2462C3.7533 32.1451 6.10181 34.4941 9 34.4974H17.25V40.4989H4.5C4.08582 40.4989 3.75 40.8348 3.75 41.2491V44.2498C3.75 44.6641 4.08582 45 4.5 45H31.5C31.9142 45 32.25 44.6641 32.25 44.2498V41.2491C32.25 40.8348 31.9142 40.4989 31.5 40.4989H18.75V34.4974H27C29.8982 34.4941 32.2467 32.1451 32.25 29.2462V28.496C34.3198 28.4934 35.9974 26.8154 36 24.7451V18.7436C36 18.3293 35.6642 17.9934 35.25 17.9934ZM30 4.49011C30 4.01209 30.7042 2.89597 31.5 1.9011C32.2965 2.90037 33 4.02491 33 4.49011C33 5.31868 32.3284 5.99048 31.5 5.99048C30.6716 5.99048 30 5.31868 30 4.49011ZM16.5 4.49011C16.5 4.01209 17.2042 2.89597 18 1.9011C18.7965 2.90037 19.5 4.02491 19.5 4.49011C19.5 5.31868 18.8284 5.99048 18 5.99048C17.1716 5.99048 16.5 5.31868 16.5 4.49011ZM15.75 10.4916H20.25V17.9934H15.75V10.4916ZM15 24.7451V19.4938H21V24.7451C21 25.9879 19.9926 26.9956 18.75 26.9956H17.25C16.0074 26.9956 15 25.9879 15 24.7451ZM3 4.49011C3 4.01209 3.70422 2.89597 4.5 1.9011C5.29651 2.90037 6 4.02491 6 4.49011C6 5.31868 5.32837 5.99048 4.5 5.99048C3.67163 5.99048 3 5.31868 3 4.49011ZM2.25 10.4916H6.75V17.9934H2.25V10.4916ZM1.5 24.7451V19.4938H7.5V24.7451C7.5 25.9879 6.49255 26.9956 5.25 26.9956H3.75C2.50745 26.9956 1.5 25.9879 1.5 24.7451ZM30.75 43.4996H5.25V41.9993H30.75V43.4996ZM29.25 10.4916H33.75V17.9934H29.25V10.4916ZM34.5 24.7451C34.5 25.9879 33.4926 26.9956 32.25 26.9956H30.75C29.5074 26.9956 28.5 25.9879 28.5 24.7451V19.4938H34.5V24.7451Z"/>
</symbol><symbol id="icon-check" viewBox="0 0 14 10">
<path d="M0 5.42539L4.79421 10L14 1.24129L12.6784 0L4.79421 7.49996L1.30334 4.17535L0 5.42539Z"/>
</symbol><symbol id="icon-clock" viewBox="0 0 20 20">
<path d="M10 0C4.4861 0 0 4.4861 0 10C0 15.5139 4.4861 20 10 20C15.5139 20 20 15.5139 20 10C20 4.4861 15.5139 0 10 0ZM10 18.75C5.17517 18.75 1.25001 14.8248 1.25001 10C1.25001 5.17517 5.17517 1.25001 10 1.25001C14.8248 1.25001 18.75 5.17517 18.75 10C18.75 14.8248 14.8248 18.75 10 18.75Z"/>
<path d="M10.625 3.75002H9.375V10.2588L13.3081 14.1919L14.1919 13.3081L10.625 9.74121V3.75002Z"/>
</symbol><symbol id="icon-close" viewBox="0 0 9 9">
<path d="M9 1.06054L7.93946 0L4.49999 3.43945L1.06054 0L0 1.06054L3.43945 4.49999L0 7.93946L1.06054 9L4.49999 5.56055L7.93944 9L8.99998 7.93946L5.56055 4.49999L9 1.06054Z"/>
</symbol><symbol id="icon-dog" viewBox="0 0 44 45">
<path d="M30.9559 16.8119C30.2733 15.5914 28.996 14.8331 27.6228 14.8331C26.2496 14.8331 24.9723 15.5914 24.2897 16.8119C24.0528 17.2356 24.2046 17.771 24.6288 18.0078C25.0532 18.2445 25.5892 18.0929 25.8261 17.6692C26.1982 17.0041 26.8867 16.5909 27.6229 16.5909C28.3591 16.5909 29.0475 17.0041 29.4196 17.6692C29.5808 17.9573 29.88 18.1196 30.1885 18.1196C30.3337 18.1196 30.4811 18.0836 30.6169 18.0078C31.0411 17.771 31.1929 17.2356 30.9559 16.8119Z"/>
<path d="M19.7102 16.812C19.0274 15.5913 17.7502 14.8331 16.377 14.8331C15.0036 14.8331 13.7265 15.5914 13.0438 16.8119C12.8068 17.2357 12.9586 17.771 13.3828 18.0078C13.8071 18.2445 14.3433 18.0929 14.5801 17.6692C14.9522 17.0041 15.6406 16.5909 16.377 16.5909C17.1133 16.5909 17.8017 17.0041 18.1736 17.6692C18.3348 17.9573 18.6341 18.1196 18.9427 18.1196C19.0879 18.1196 19.2352 18.0836 19.3711 18.0079C19.7953 17.7712 19.9472 17.2357 19.7102 16.812Z"/>
<path d="M41.8575 7.1278C41.4327 6.63359 41.0249 6.14739 40.6306 5.67726C38.968 3.69516 37.5322 1.98333 35.9244 0.967846C34.0571 -0.211639 32.1117 -0.307 29.9772 0.676139C29.8462 0.736431 29.6203 0.860532 28.6542 1.51962C26.7241 0.490691 24.5188 0 22 0C19.4811 0 17.2757 0.49069 15.3457 1.51953C14.3799 0.860708 14.1539 0.736519 14.0227 0.676051C11.8881 -0.307088 9.94266 -0.211639 8.07534 0.967846C6.46759 1.98333 5.03179 3.69516 3.36923 5.67735C2.97493 6.14747 2.56708 6.63368 2.14242 7.1278C0.333343 9.23321 -0.349405 11.7119 0.168089 14.2961C0.727996 17.0922 2.67795 19.7595 5.2135 21.259C4.95348 22.851 4.73745 25.1622 4.81471 27.4918C3.9646 29.1089 3.65037 31.0283 3.93081 32.901C4.216 34.8059 5.10791 36.584 6.44225 37.9078C8.07138 39.5242 10.2813 40.4331 12.833 40.5366C12.9998 40.5434 13.1676 40.5467 13.3366 40.5467C14.4466 40.5467 15.6062 40.4009 16.8103 40.1111C16.9705 42.8338 19.2365 45 22.0001 45C24.7581 45 27.0203 42.8425 27.1886 40.1275C28.393 40.4174 29.553 40.5632 30.6634 40.5632C30.8322 40.5632 31.0005 40.5599 31.167 40.5531C33.7187 40.4498 35.9286 39.5407 37.5577 37.9243C38.892 36.6004 39.7839 34.8224 40.0691 32.9176C40.3497 31.0445 40.0353 29.1248 39.1849 27.5076C39.186 27.4738 39.187 27.4405 39.188 27.4089C39.2485 25.4049 39.099 23.1502 38.7865 21.259C41.3221 19.7595 43.272 17.0923 43.832 14.2962C44.3494 11.712 43.6666 9.23321 41.8575 7.1278ZM22 1.7578C25.8285 1.7578 28.6723 2.97719 30.9495 5.59526C33.592 8.63318 35.5519 13.6515 36.9404 20.9325C36.9414 20.9387 36.9429 20.9448 36.9439 20.951C36.9502 20.984 36.9567 21.0163 36.963 21.0493C37.1561 22.0701 37.3454 23.575 37.414 25.2324C36.6771 24.5709 35.8134 24.0346 34.8426 23.6439C32.9347 22.8762 30.6865 22.6814 28.1512 23.0587C28.013 22.694 27.7964 22.3526 27.5005 22.0616C26.9748 21.5448 26.2791 21.2601 25.542 21.2601L18.464 21.2545C17.2764 21.2545 16.26 21.9978 15.854 23.0429C13.3164 22.6647 11.0663 22.8591 9.15723 23.6273C8.18647 24.0179 7.32272 24.5541 6.58595 25.2156C6.65441 23.5747 6.84139 22.0822 7.03683 21.0492C7.04281 21.0176 7.04906 20.9868 7.05504 20.9553C7.05663 20.9473 7.05848 20.9392 7.05971 20.9312C8.44817 13.6508 10.408 8.63301 13.0503 5.59526C15.3276 2.97719 18.1714 1.7578 22 1.7578ZM26.2768 24.7785L22.7418 28.3857C22.5394 28.5867 22.275 28.6974 21.9968 28.6974C21.7216 28.6974 21.462 28.5876 21.2671 28.3895L17.826 24.8782C17.8108 24.8626 17.7949 24.8476 17.7785 24.8332C17.5536 24.6355 17.4247 24.3507 17.4247 24.0519C17.4248 23.4787 17.891 23.0124 18.4632 23.0124L25.5416 23.018C25.8143 23.018 26.0715 23.1233 26.2659 23.3143C26.6726 23.7143 26.6781 24.3706 26.2768 24.7785ZM1.89374 13.9513C1.48633 11.9166 2.03409 9.95294 3.4779 8.27274C3.90943 7.77063 4.32062 7.28038 4.71827 6.80621C8.18322 2.67511 9.99475 0.75647 13.2781 2.26871C13.3086 2.28418 13.412 2.34245 13.7331 2.55417C9.91433 5.4513 7.32017 10.9069 5.56961 19.3964C3.73361 18.1061 2.31154 16.0375 1.89374 13.9513ZM25.4398 39.8029C25.4398 41.6993 23.8967 43.2421 22 43.2421C20.1033 43.2421 18.5602 41.6993 18.5602 39.8029V39.5991C19.395 39.313 20.2488 38.962 21.12 38.5473V40.069C21.12 40.5544 21.514 40.9479 22 40.9479C22.486 40.9479 22.8799 40.5544 22.8799 40.069V38.564C23.7512 38.9787 24.605 39.3297 25.4398 39.6158V39.8029ZM36.3173 36.6772C33.3655 39.6059 28.35 39.5109 22.543 36.4246C22.5332 36.4169 22.523 36.41 22.513 36.4028C22.5046 36.3968 22.4965 36.3904 22.488 36.3847C22.4754 36.3763 22.4623 36.3689 22.4494 36.3612C22.4375 36.3541 22.4258 36.3467 22.4136 36.3402C22.4033 36.3347 22.3926 36.3302 22.3822 36.3251C22.3667 36.3176 22.3514 36.31 22.3356 36.3034C22.3271 36.2999 22.3183 36.2972 22.3097 36.294C22.2917 36.2873 22.2736 36.2804 22.255 36.2748C22.2463 36.2722 22.2374 36.2704 22.2286 36.268C22.2101 36.263 22.1917 36.2579 22.1728 36.2541C22.1546 36.2505 22.1362 36.2483 22.1178 36.2457C22.1082 36.2444 22.0988 36.2425 22.089 36.2414C22.0304 36.2354 21.9711 36.2354 21.9118 36.2414C21.9047 36.2421 21.8979 36.2435 21.8909 36.2444C21.8694 36.247 21.848 36.2499 21.8267 36.2541C21.8126 36.257 21.799 36.2609 21.7852 36.2644C21.7714 36.2679 21.7575 36.2708 21.7437 36.2751C21.7232 36.2813 21.7031 36.2889 21.6831 36.2967C21.6763 36.2993 21.6694 36.3013 21.6626 36.3042C21.634 36.3161 21.606 36.3293 21.5791 36.344C15.7202 39.4944 10.6552 39.61 7.68262 36.6606C5.50309 34.4982 4.95691 30.9766 6.38382 28.287C7.93886 25.356 11.3407 24.1054 15.7702 24.8086C15.912 25.3123 16.1933 25.7717 16.5893 26.1289L20.0109 29.6202C20.5405 30.1586 21.2459 30.4552 21.9971 30.4552C22.7468 30.4552 23.4544 30.1605 23.9897 29.6255C23.9918 29.6234 23.9939 29.6213 23.996 29.6191L27.5335 26.0094C27.8707 25.6667 28.1011 25.2584 28.2252 24.826C32.6569 24.1213 36.0607 25.3716 37.6164 28.3036C39.043 30.993 38.4969 34.5147 36.3173 36.6772ZM42.1061 13.9514C41.6883 16.0377 40.2662 18.1062 38.4302 19.3965C36.6796 10.9069 34.0854 5.4513 30.2666 2.55417C30.5866 2.34306 30.6881 2.28567 30.7141 2.27231C34.0048 0.75647 35.8166 2.67502 39.2815 6.80603C39.6792 7.2802 40.0904 7.77045 40.522 8.27266C41.9659 9.95294 42.5136 11.9166 42.1061 13.9514Z"/>
<path d="M12.0786 28.0281C11.594 28.0281 11.1987 28.4229 11.1987 28.907C11.1987 29.3911 11.594 29.7859 12.0786 29.7859C12.5633 29.7859 12.9586 29.3911 12.9586 28.907C12.9586 28.423 12.5633 28.0281 12.0786 28.0281Z"/>
<path d="M10.2308 32.862C9.74608 32.862 9.35081 33.2568 9.35081 33.7409C9.35081 34.225 9.74608 34.6198 10.2308 34.6198C10.7154 34.6198 11.1107 34.225 11.1107 33.7409C11.1107 33.2569 10.7154 32.862 10.2308 32.862Z"/>
<path d="M15.4664 31.6316C14.9817 31.6316 14.5865 32.0264 14.5865 32.5105C14.5865 32.9946 14.9817 33.3894 15.4664 33.3894C15.9511 33.3894 16.3464 32.9946 16.3464 32.5105C16.3464 32.0265 15.9511 31.6316 15.4664 31.6316Z"/>
<path d="M31.9213 28.0281C31.4367 28.0281 31.0414 28.4229 31.0414 28.907C31.0414 29.3911 31.4367 29.7859 31.9213 29.7859C32.406 29.7859 32.8013 29.3911 32.8013 28.907C32.8013 28.423 32.406 28.0281 31.9213 28.0281Z"/>
<path d="M33.7692 32.862C33.2845 32.862 32.8893 33.2568 32.8893 33.7409C32.8893 34.225 33.2845 34.6198 33.7692 34.6198C34.2539 34.6198 34.6491 34.225 34.6491 33.7409C34.6491 33.2569 34.2539 32.862 33.7692 32.862Z"/>
<path d="M28.5335 31.6316C28.0489 31.6316 27.6536 32.0264 27.6536 32.5105C27.6536 32.9946 28.0489 33.3894 28.5335 33.3894C29.0182 33.3894 29.4135 32.9946 29.4135 32.5105C29.4135 32.0265 29.0182 31.6316 28.5335 31.6316Z"/>
<path d="M12.9281 9.62282C12.4952 9.40248 11.9653 9.57448 11.7446 10.0071C11.7442 10.008 11.7368 10.0228 11.7362 10.0238C11.5173 10.4572 11.6915 10.9857 12.1254 11.2044C12.2525 11.2685 12.3878 11.2989 12.5211 11.2989C12.8426 11.2988 13.1525 11.1221 13.3074 10.8158C13.3079 10.8147 13.3123 10.806 13.3136 10.8033C13.5329 10.3711 13.3606 9.8429 12.9281 9.62282Z"/>
<path d="M19.3779 4.25397C19.2628 3.78244 18.7871 3.49293 18.3146 3.60815C16.208 4.1209 14.0172 6.37572 13.0586 7.76623C12.7829 8.16596 12.884 8.71325 13.2843 8.98852C13.4367 9.09337 13.6105 9.14365 13.7826 9.14365C14.0624 9.14365 14.3375 9.01067 14.5082 8.76308C15.4932 7.33408 17.3422 5.65406 18.7313 5.31595C19.2035 5.20099 19.493 4.72559 19.3779 4.25397Z"/>
</symbol><symbol id="icon-eye" viewBox="0 0 20 13">
<path d="M0.122631 6.12645C0.295034 5.89061 4.40282 0.351807 9.64921 0.351807C14.8956 0.351807 19.0036 5.89061 19.1758 6.12622C19.3391 6.34997 19.3391 6.65342 19.1758 6.87716C19.0036 7.113 14.8956 12.6518 9.64921 12.6518C4.40282 12.6518 0.295034 7.11296 0.122631 6.87735C-0.040877 6.65365 -0.040877 6.34996 0.122631 6.12645ZM9.64921 11.3794C13.5137 11.3794 16.8608 7.70318 17.8516 6.50137C16.8621 5.29851 13.522 1.62421 9.64921 1.62421C5.78488 1.62421 2.43801 5.29979 1.44679 6.50224C2.43632 7.70507 5.7764 11.3794 9.64921 11.3794Z"/>
<path d="M9.64972 2.68484C11.7545 2.68484 13.467 4.3973 13.467 6.5021C13.467 8.6069 11.7545 10.3194 9.64972 10.3194C7.54493 10.3194 5.83247 8.6069 5.83247 6.5021C5.83247 4.3973 7.54493 2.68484 9.64972 2.68484ZM9.64972 9.04692C11.053 9.04692 12.1945 7.90534 12.1945 6.5021C12.1945 5.09886 11.053 3.95729 9.64972 3.95729C8.24649 3.95729 7.10491 5.09886 7.10491 6.5021C7.10491 7.90534 8.24645 9.04692 9.64972 9.04692Z"/>
</symbol><symbol id="icon-facebook" viewBox="0 0 7 13">
<path d="M6.7364 0.00270487L5.05742 0C3.17114 0 1.95214 1.25573 1.95214 3.19932V4.67442H0.264004C0.118128 4.67442 0 4.79316 0 4.93963V7.07688C0 7.22335 0.118263 7.34196 0.264004 7.34196H1.95214V12.7349C1.95214 12.8814 2.07027 13 2.21615 13H4.41869C4.56457 13 4.6827 12.8813 4.6827 12.7349V7.34196H6.65653C6.8024 7.34196 6.92053 7.22335 6.92053 7.07688L6.92134 4.93963C6.92134 4.8693 6.89346 4.80195 6.84402 4.75218C6.79459 4.70241 6.72724 4.67442 6.6572 4.67442H4.6827V3.42396C4.6827 2.82294 4.82534 2.51783 5.60509 2.51783L6.73613 2.51742C6.88187 2.51742 7 2.39868 7 2.25234V0.267782C7 0.121584 6.88201 0.00297535 6.7364 0.00270487Z"/>
</symbol><symbol id="icon-flash" viewBox="0 0 47 45">
<path d="M4.80371 23.414H0.925197C0.414211 23.414 0 22.9998 0 22.4888C0 21.9779 0.414211 21.5636 0.925197 21.5636H4.80371C5.3147 21.5636 5.72891 21.9779 5.72891 22.4888C5.72891 22.9998 5.3147 23.414 4.80371 23.414ZM46.0748 21.5636H42.1963C41.6853 21.5636 41.2711 21.9779 41.2711 22.4888C41.2711 22.9998 41.6853 23.414 42.1963 23.414H46.0748C46.5858 23.414 47 22.9998 47 22.4888C47 21.9779 46.5858 21.5636 46.0748 21.5636ZM6.8459 31.0358L3.48697 32.975C3.04445 33.2305 2.89281 33.7963 3.14835 34.2388C3.40389 34.6814 3.96965 34.833 4.41217 34.5775L7.7711 32.6383C8.21362 32.3828 8.36526 31.817 8.10972 31.3744C7.85418 30.9319 7.28842 30.7803 6.8459 31.0358ZM40.1541 13.942L43.513 12.0028C43.9555 11.7473 44.1072 11.1815 43.8517 10.7389C43.5962 10.2964 43.0303 10.1448 42.5878 10.4003L39.2289 12.3395C38.7864 12.595 38.6347 13.1608 38.8903 13.6033C39.1458 14.0459 39.7116 14.1975 40.1541 13.942ZM43.5129 32.975L40.154 31.0358C39.7115 30.7803 39.1456 30.9319 38.8902 31.3744C38.6347 31.817 38.7863 32.3828 39.2288 32.6383L42.5877 34.5775C43.0303 34.833 43.5961 34.6814 43.8516 34.2388C44.107 33.7963 43.9555 33.2305 43.5129 32.975ZM7.7711 12.3395L4.41217 10.4003C3.96965 10.1448 3.4038 10.2964 3.14835 10.7389C2.89291 11.1815 3.04445 11.7473 3.48697 12.0028L6.8459 13.942C7.28842 14.1975 7.85427 14.0459 8.10972 13.6033C8.36517 13.1608 8.21362 12.595 7.7711 12.3395ZM36.3766 14.8068H24.5547L25.5382 12.4013C26.0029 11.265 24.2904 10.5646 23.8257 11.701L22.3208 15.3819C22.0721 15.9906 22.5197 16.6572 23.1772 16.6572H34.768L22.102 38.4373L25.1061 23.782C25.2237 23.2083 24.7855 22.671 24.1998 22.671H11.8619L17.9312 2.13164H27.7383L26.9769 3.99314C26.5103 5.13465 28.2238 5.83502 28.6904 4.69351L29.973 1.55663C30.2219 0.947947 29.7742 0.28125 29.1167 0.28125H17.2392C16.8229 0.28125 16.4694 0.558809 16.3547 0.939065C16.3539 0.93999 11.459 17.5064 9.7364 23.3361C9.56145 23.9283 10.0054 24.5215 10.6228 24.5215H23.0661L19.1548 43.6036C18.9443 44.6303 20.3341 45.1605 20.861 44.2545L37.1764 16.1971C37.535 15.5803 37.0901 14.8068 36.3766 14.8068ZM26.2579 7.27204C25.7469 7.27204 25.3327 7.68625 25.3327 8.19723C25.3327 8.70822 25.7469 9.12243 26.2579 9.12243C26.7689 9.12243 27.1831 8.70822 27.1831 8.19723C27.1831 7.68625 26.7689 7.27204 26.2579 7.27204Z"/>
</symbol><symbol id="icon-inst" viewBox="0 0 15 15">
<path d="M4.6875 0H10.3125C12.9009 0 15 2.09906 15 4.6875V10.3125C15 12.9009 12.9009 15 10.3125 15H4.6875C2.09906 15 0 12.9009 0 10.3125V4.6875C0 2.09906 2.09906 0 4.6875 0ZM1.40625 10.3125C1.40625 12.1219 2.87812 13.5938 4.6875 13.5938H10.3125C12.1219 13.5938 13.5938 12.1219 13.5938 10.3125V4.6875C13.5938 2.87812 12.1219 1.40625 10.3125 1.40625H4.6875C2.87812 1.40625 1.40625 2.87812 1.40625 4.6875V10.3125Z"/>
<path d="M7.5 3.75C9.57094 3.75 11.25 5.42906 11.25 7.5C11.25 9.57094 9.57094 11.25 7.5 11.25C5.42906 11.25 3.75 9.57094 3.75 7.5C3.75 5.42906 5.42906 3.75 7.5 3.75ZM7.5 9.84375C8.79187 9.84375 9.84375 8.79187 9.84375 7.5C9.84375 6.20719 8.79187 5.15625 7.5 5.15625C6.20813 5.15625 5.15625 6.20719 5.15625 7.5C5.15625 8.79187 6.20813 9.84375 7.5 9.84375Z"/>
<path d="M3.4688 3.96839C3.19283 3.96839 2.96911 3.74468 2.96911 3.46871C2.96911 3.19274 3.19283 2.96902 3.4688 2.96902C3.74477 2.96902 3.96849 3.19274 3.96849 3.46871C3.96849 3.74468 3.74477 3.96839 3.4688 3.96839Z"/>
</symbol><symbol id="icon-lock" viewBox="0 0 16 20">
<path d="M0 10.5687V18.5352C0 19.3412 0.648213 20 1.44137 20H14.5586C15.3518 20 16 19.3412 16 18.5352V10.5687C16 9.76268 15.3518 9.10393 14.5586 9.10393H13.544V5.63421C13.544 2.52864 11.0559 0 8 0C4.94414 0 2.45596 2.52864 2.45596 5.63421C2.45596 5.91244 2.6774 6.13748 2.95118 6.13748C3.22496 6.13748 3.4464 5.91244 3.4464 5.63421C3.4464 3.08101 5.4917 1.00245 8.00403 1.00245C10.5164 1.00245 12.5617 3.08101 12.5617 5.63421V9.10393H1.44137C0.648213 9.10802 0 9.76268 0 10.5687ZM15.0136 10.5687V18.5352C15.0136 18.7889 14.8083 18.9975 14.5586 18.9975H1.44137C1.19175 18.9975 0.986412 18.7889 0.986412 18.5352V10.5687C0.986412 10.3151 1.19175 10.1064 1.44137 10.1064H14.5586C14.8083 10.1105 15.0136 10.3151 15.0136 10.5687Z"/>
<path d="M8 16.5917C9.1072 16.5917 10.0091 15.6751 10.0091 14.5499C10.0091 13.4247 9.1072 12.5082 8 12.5082C6.8928 12.5082 5.99094 13.4247 5.99094 14.5499C5.99094 15.6792 6.8928 16.5917 8 16.5917ZM8 13.5147C8.56366 13.5147 9.02265 13.9812 9.02265 14.554C9.02265 15.1268 8.56366 15.5892 8 15.5892C7.43634 15.5892 6.97735 15.1228 6.97735 14.5499C6.97735 13.9771 7.43634 13.5147 8 13.5147Z"/>
</symbol><symbol id="icon-menu" viewBox="0 0 17 11">
<path d="M0 0H17V2.2H0V0Z"/>
<path d="M0 4.4H13.9091V6.6H0V4.4Z"/>
<path d="M0 8.8H12.3636V11H0V8.8Z"/>
</symbol><symbol id="icon-menu3" viewBox="0 0 11 8">
<path d="M0 0H11V1.448H0V0Z"/>
<path d="M0 2.896H9V4.344H0V2.896Z"/>
<path d="M0 5.792H8V7.24H0V5.792Z"/>
</symbol><symbol id="icon-play" viewBox="0 0 13 19">
<path d="M13 9.5L0.249999 18.5933L0.25 0.406733L13 9.5Z"/>
</symbol><symbol id="icon-suitcase" viewBox="0 0 18 20">
<path d="M2.40016 0.582275C2.40016 0.583496 2.4 0.584717 2.4 0.585938L2.4 5.89844L1.8 5.89844C0.8075 5.89844 1.58756e-07 6.68701 1.47198e-07 7.65625L9.12999e-08 12.3438C7.97418e-08 13.313 0.8075 14.1016 1.8 14.1016L2.4 14.1016L2.4 19.4141C2.4 19.7403 2.67375 20 3 20L16.2 20C17.1925 20 18 19.2114 18 18.2422L18 1.75781C18 0.788574 17.1925 2.05019e-07 16.2 1.93183e-07L3.01266 3.59256e-08C3.01188 3.59162e-08 3.01109 3.59069e-08 3.01031 3.58976e-08C2.61625 0.0224305 2.40234 0.259094 2.40016 0.582275ZM1.8 12.9297C1.46922 12.9297 1.2 12.6668 1.2 12.3438L1.2 7.65625C1.2 7.33322 1.46922 7.07031 1.8 7.07031L2.4 7.07031L2.4 12.9297L1.8 12.9297ZM3.6 1.39893L9.18969 3.21854C9.43516 3.29834 9.6 3.52173 9.6 3.77426L9.6 7.07031L9 7.07031C8.66859 7.07031 8.4 7.33261 8.4 7.65625L8.4 12.3438C8.4 12.6674 8.66859 12.9297 9 12.9297L9.6 12.9297L9.6 16.2257C9.6 16.4783 9.43516 16.7017 9.18969 16.7815L3.6 18.6011L3.6 1.39893ZM9.6 8.24219L10.8 8.24219L10.8 11.7578L9.6 11.7578L9.6 8.24219ZM16.2 1.17188C16.5308 1.17188 16.8 1.43478 16.8 1.75781L16.8 18.2422C16.8 18.5652 16.5308 18.8281 16.2 18.8281L6.69734 18.8281L9.56922 17.8932C10.3055 17.6537 10.8 16.9835 10.8 16.2257L10.8 12.9297L11.4 12.9297C11.7314 12.9297 12 12.6674 12 12.3438L12 7.65625C12 7.33261 11.7314 7.07031 11.4 7.07031L10.8 7.07031L10.8 3.77426C10.8 3.01651 10.3055 2.34634 9.56922 2.10678L6.69734 1.17188L16.2 1.17188Z"/>
</symbol><symbol id="icon-user" viewBox="0 0 18 21">
<path d="M8.92329 11.3154C8.9452 11.3154 8.96712 11.3154 8.99341 11.3154C9.00217 11.3154 9.01094 11.3154 9.0197 11.3154C9.03285 11.3154 9.05038 11.3154 9.06352 11.3154C10.3475 11.2936 11.3861 10.8457 12.153 9.98903C13.8401 8.10168 13.5596 4.86623 13.529 4.55747C13.4194 2.23959 12.3151 1.13067 11.4036 0.613171C10.7244 0.226134 9.93119 0.0173949 9.04599 0H9.01532C9.01094 0 9.00217 0 8.99779 0H8.9715C8.48508 0 7.52976 0.0782771 6.61389 0.595776C5.69363 1.11327 4.5718 2.2222 4.46224 4.55747C4.43157 4.86623 4.15111 8.10168 5.83825 9.98903C6.60074 10.8457 7.63932 11.2936 8.92329 11.3154ZM5.63228 4.66618C5.63228 4.65314 5.63667 4.64009 5.63667 4.63139C5.78128 1.51336 8.0118 1.17851 8.96712 1.17851H8.98464C8.99341 1.17851 9.00655 1.17851 9.0197 1.17851C10.2029 1.2046 12.2143 1.68296 12.3502 4.63139C12.3502 4.64444 12.3502 4.65749 12.3545 4.66618C12.3589 4.69663 12.6657 7.65376 11.2721 9.2106C10.72 9.82812 9.98378 10.1325 9.01532 10.1412C9.00656 10.1412 9.00217 10.1412 8.99341 10.1412C8.98464 10.1412 8.98026 10.1412 8.9715 10.1412C8.00742 10.1325 7.26683 9.82812 6.71906 9.2106C5.32991 7.66246 5.6279 4.69228 5.63228 4.66618Z" fill="black"/>
<path d="M17.9988 16.6817C17.9988 16.6774 17.9988 16.673 17.9988 16.6687C17.9988 16.6339 17.9944 16.5991 17.9944 16.56C17.9681 15.6989 17.9111 13.6854 16.0093 13.0418C15.9961 13.0375 15.9786 13.0331 15.9654 13.0288C13.9891 12.5287 12.3458 11.398 12.3282 11.385C12.0609 11.198 11.6928 11.2632 11.5044 11.5285C11.316 11.7937 11.3817 12.159 11.649 12.346C11.7235 12.3982 13.4676 13.6028 15.6499 14.1595C16.671 14.5204 16.7849 15.6032 16.8156 16.5947C16.8156 16.6339 16.8156 16.6687 16.82 16.7035C16.8244 17.0948 16.7981 17.6993 16.7279 18.0472C16.018 18.4473 13.2354 19.8302 9.00217 19.8302C4.78652 19.8302 1.98632 18.4429 1.27202 18.0429C1.20191 17.695 1.17123 17.0905 1.18 16.6991C1.18 16.6643 1.18438 16.6295 1.18438 16.5904C1.21505 15.5989 1.32899 14.5161 2.35004 14.1551C4.53236 13.5985 6.27646 12.3895 6.35096 12.3417C6.61827 12.1547 6.684 11.7894 6.49557 11.5241C6.30714 11.2589 5.93904 11.1936 5.67172 11.3806C5.65419 11.3937 4.01964 12.5243 2.03452 13.0244C2.01699 13.0288 2.00385 13.0331 1.9907 13.0375C0.0888362 13.6854 0.031868 15.6989 0.00557494 16.5556C0.00557494 16.5947 0.00557484 16.6295 0.00119267 16.6643C0.00119267 16.6687 0.00119267 16.673 0.00119267 16.6774C-0.0031895 16.9035 -0.00757158 18.0646 0.224684 18.6473C0.268505 18.7604 0.347384 18.8561 0.452557 18.9213C0.584022 19.0083 3.7348 21 9.00656 21C14.2783 21 17.4291 19.0039 17.5606 18.9213C17.6613 18.8561 17.7446 18.7604 17.7884 18.6473C18.0075 18.069 18.0032 16.9078 17.9988 16.6817Z"/>
</symbol><symbol id="icon-vk" viewBox="0 0 16 9">
<path d="M15.8574 8.02743C15.8144 7.95645 15.5484 7.38659 14.2683 6.21531C12.9282 4.98883 13.1082 5.18799 14.7223 3.06728C15.7054 1.77572 16.0984 0.986988 15.9754 0.649804C15.8584 0.328395 15.1353 0.413184 15.1353 0.413184L12.7312 0.426986C12.7312 0.426986 12.5531 0.403324 12.4201 0.481212C12.2911 0.558114 12.2081 0.735579 12.2081 0.735579C12.2081 0.735579 11.8271 1.7353 11.3191 2.58516C10.248 4.37855 9.81894 4.4732 9.64393 4.36179C9.2369 4.10249 9.33891 3.31869 9.33891 2.76263C9.33891 1.02445 9.60593 0.299803 8.81787 0.112478C8.55585 0.0503654 8.36384 0.00895679 7.69479 0.00205536C6.83672 -0.00681791 6.10967 0.00501311 5.69864 0.203183C5.42462 0.335296 5.21361 0.630086 5.34262 0.646846C5.50163 0.667551 5.86165 0.74248 6.05267 0.998819C6.29969 1.3291 6.29069 2.07248 6.29069 2.07248C6.29069 2.07248 6.4327 4.11827 5.95966 4.37263C5.63464 4.54714 5.1896 4.19122 4.23453 2.56347C3.7455 1.73037 3.37547 0.808537 3.37547 0.808537C3.37547 0.808537 3.30447 0.636987 3.17746 0.545297C3.02345 0.433888 2.80743 0.398395 2.80743 0.398395L0.521262 0.412198C0.521262 0.412198 0.178236 0.422057 0.0522271 0.568959C-0.0597811 0.700086 0.0432264 0.970227 0.0432264 0.970227C0.0432264 0.970227 1.83336 5.09827 3.85951 7.17954C5.71864 9.0873 7.8288 8.96208 7.8288 8.96208H8.78487C8.78487 8.96208 9.07389 8.93054 9.2209 8.77377C9.35691 8.62983 9.35191 8.35969 9.35191 8.35969C9.35191 8.35969 9.33291 7.09475 9.92895 6.90842C10.516 6.72504 11.2701 8.13095 12.0691 8.67222C12.6732 9.08138 13.1322 8.99166 13.1322 8.99166L15.2693 8.96208C15.2693 8.96208 16.3874 8.89406 15.8574 8.02743Z"/>
</symbol></svg>