<?xml version="1.0" encoding="UTF-8"?><!DOCTYPE svg PUBLIC "-//W3C//DTD SVG 1.1//EN" "http://www.w3.org/Graphics/SVG/1.1/DTD/svg11.dtd"><svg xmlns="http://www.w3.org/2000/svg" xmlns:xlink="http://www.w3.org/1999/xlink"><symbol id="icon-arrow-2" viewBox="0 0 9 8">
<path d="M8.35355 4.35355C8.54882 4.15829 8.54882 3.84171 8.35355 3.64645L5.17157 0.464466C4.97631 0.269204 4.65973 0.269204 4.46447 0.464466C4.2692 0.659728 4.2692 0.976311 4.46447 1.17157L7.29289 4L4.46447 6.82843C4.2692 7.02369 4.2692 7.34027 4.46447 7.53553C4.65973 7.7308 4.97631 7.7308 5.17157 7.53553L8.35355 4.35355ZM0 4.5H8V3.5H0V4.5Z"/>
</symbol><symbol id="icon-arrow-3" viewBox="0 0 15 8">
<path d="M14.3536 4.35355C14.5488 4.15829 14.5488 3.84171 14.3536 3.64645L11.1716 0.464466C10.9763 0.269204 10.6597 0.269204 10.4645 0.464466C10.2692 0.659728 10.2692 0.976311 10.4645 1.17157L13.2929 4L10.4645 6.82843C10.2692 7.02369 10.2692 7.34027 10.4645 7.53553C10.6597 7.7308 10.9763 7.7308 11.1716 7.53553L14.3536 4.35355ZM0 4.5L14 4.5V3.5L0 3.5L0 4.5Z"/>
</symbol><symbol id="icon-arrow" viewBox="0 0 8 11">
<path d="M3.64645 10.3536C3.84171 10.5488 4.15829 10.5488 4.35355 10.3536L7.53553 7.17157C7.7308 6.97631 7.7308 6.65973 7.53553 6.46447C7.34027 6.2692 7.02369 6.2692 6.82843 6.46447L4 9.29289L1.17157 6.46447C0.976311 6.2692 0.659728 6.2692 0.464466 6.46447C0.269204 6.65973 0.269204 6.97631 0.464466 7.17157L3.64645 10.3536ZM3.5 0L3.5 10H4.5L4.5 0L3.5 0Z"/>
</symbol><symbol id="icon-check" viewBox="0 0 14 10">
<path d="M0 5.42539L4.79421 10L14 1.24129L12.6784 0L4.79421 7.49996L1.30334 4.17535L0 5.42539Z"/>
</symbol><symbol id="icon-clock" viewBox="0 0 20 20">
<path d="M10 0C4.4861 0 0 4.4861 0 10C0 15.5139 4.4861 20 10 20C15.5139 20 20 15.5139 20 10C20 4.4861 15.5139 0 10 0ZM10 18.75C5.17517 18.75 1.25001 14.8248 1.25001 10C1.25001 5.17517 5.17517 1.25001 10 1.25001C14.8248 1.25001 18.75 5.17517 18.75 10C18.75 14.8248 14.8248 18.75 10 18.75Z"/>
<path d="M10.625 3.75002H9.375V10.2588L13.3081 14.1919L14.1919 13.3081L10.625 9.74121V3.75002Z"/>
</symbol><symbol id="icon-close" viewBox="0 0 9 9">
<path d="M9 1.06054L7.93946 0L4.49999 3.43945L1.06054 0L0 1.06054L3.43945 4.49999L0 7.93946L1.06054 9L4.49999 5.56055L7.93944 9L8.99998 7.93946L5.56055 4.49999L9 1.06054Z"/>
</symbol><symbol id="icon-eye" viewBox="0 0 20 13">
<path d="M0.122631 6.12645C0.295034 5.89061 4.40282 0.351807 9.64921 0.351807C14.8956 0.351807 19.0036 5.89061 19.1758 6.12622C19.3391 6.34997 19.3391 6.65342 19.1758 6.87716C19.0036 7.113 14.8956 12.6518 9.64921 12.6518C4.40282 12.6518 0.295034 7.11296 0.122631 6.87735C-0.040877 6.65365 -0.040877 6.34996 0.122631 6.12645ZM9.64921 11.3794C13.5137 11.3794 16.8608 7.70318 17.8516 6.50137C16.8621 5.29851 13.522 1.62421 9.64921 1.62421C5.78488 1.62421 2.43801 5.29979 1.44679 6.50224C2.43632 7.70507 5.7764 11.3794 9.64921 11.3794Z"/>
<path d="M9.64972 2.68484C11.7545 2.68484 13.467 4.3973 13.467 6.5021C13.467 8.6069 11.7545 10.3194 9.64972 10.3194C7.54493 10.3194 5.83247 8.6069 5.83247 6.5021C5.83247 4.3973 7.54493 2.68484 9.64972 2.68484ZM9.64972 9.04692C11.053 9.04692 12.1945 7.90534 12.1945 6.5021C12.1945 5.09886 11.053 3.95729 9.64972 3.95729C8.24649 3.95729 7.10491 5.09886 7.10491 6.5021C7.10491 7.90534 8.24645 9.04692 9.64972 9.04692Z"/>
</symbol><symbol id="icon-facebook" viewBox="0 0 7 13">
<path d="M6.7364 0.00270487L5.05742 0C3.17114 0 1.95214 1.25573 1.95214 3.19932V4.67442H0.264004C0.118128 4.67442 0 4.79316 0 4.93963V7.07688C0 7.22335 0.118263 7.34196 0.264004 7.34196H1.95214V12.7349C1.95214 12.8814 2.07027 13 2.21615 13H4.41869C4.56457 13 4.6827 12.8813 4.6827 12.7349V7.34196H6.65653C6.8024 7.34196 6.92053 7.22335 6.92053 7.07688L6.92134 4.93963C6.92134 4.8693 6.89346 4.80195 6.84402 4.75218C6.79459 4.70241 6.72724 4.67442 6.6572 4.67442H4.6827V3.42396C4.6827 2.82294 4.82534 2.51783 5.60509 2.51783L6.73613 2.51742C6.88187 2.51742 7 2.39868 7 2.25234V0.267782C7 0.121584 6.88201 0.00297535 6.7364 0.00270487Z"/>
</symbol><symbol id="icon-inst" viewBox="0 0 15 15">
<path d="M4.6875 0H10.3125C12.9009 0 15 2.09906 15 4.6875V10.3125C15 12.9009 12.9009 15 10.3125 15H4.6875C2.09906 15 0 12.9009 0 10.3125V4.6875C0 2.09906 2.09906 0 4.6875 0ZM1.40625 10.3125C1.40625 12.1219 2.87812 13.5938 4.6875 13.5938H10.3125C12.1219 13.5938 13.5938 12.1219 13.5938 10.3125V4.6875C13.5938 2.87812 12.1219 1.40625 10.3125 1.40625H4.6875C2.87812 1.40625 1.40625 2.87812 1.40625 4.6875V10.3125Z"/>
<path d="M7.5 3.75C9.57094 3.75 11.25 5.42906 11.25 7.5C11.25 9.57094 9.57094 11.25 7.5 11.25C5.42906 11.25 3.75 9.57094 3.75 7.5C3.75 5.42906 5.42906 3.75 7.5 3.75ZM7.5 9.84375C8.79187 9.84375 9.84375 8.79187 9.84375 7.5C9.84375 6.20719 8.79187 5.15625 7.5 5.15625C6.20813 5.15625 5.15625 6.20719 5.15625 7.5C5.15625 8.79187 6.20813 9.84375 7.5 9.84375Z"/>
<path d="M3.4688 3.96839C3.19283 3.96839 2.96911 3.74468 2.96911 3.46871C2.96911 3.19274 3.19283 2.96902 3.4688 2.96902C3.74477 2.96902 3.96849 3.19274 3.96849 3.46871C3.96849 3.74468 3.74477 3.96839 3.4688 3.96839Z"/>
</symbol><symbol id="icon-lock" viewBox="0 0 16 20">
<path d="M0 10.5687V18.5352C0 19.3412 0.648213 20 1.44137 20H14.5586C15.3518 20 16 19.3412 16 18.5352V10.5687C16 9.76268 15.3518 9.10393 14.5586 9.10393H13.544V5.63421C13.544 2.52864 11.0559 0 8 0C4.94414 0 2.45596 2.52864 2.45596 5.63421C2.45596 5.91244 2.6774 6.13748 2.95118 6.13748C3.22496 6.13748 3.4464 5.91244 3.4464 5.63421C3.4464 3.08101 5.4917 1.00245 8.00403 1.00245C10.5164 1.00245 12.5617 3.08101 12.5617 5.63421V9.10393H1.44137C0.648213 9.10802 0 9.76268 0 10.5687ZM15.0136 10.5687V18.5352C15.0136 18.7889 14.8083 18.9975 14.5586 18.9975H1.44137C1.19175 18.9975 0.986412 18.7889 0.986412 18.5352V10.5687C0.986412 10.3151 1.19175 10.1064 1.44137 10.1064H14.5586C14.8083 10.1105 15.0136 10.3151 15.0136 10.5687Z"/>
<path d="M8 16.5917C9.1072 16.5917 10.0091 15.6751 10.0091 14.5499C10.0091 13.4247 9.1072 12.5082 8 12.5082C6.8928 12.5082 5.99094 13.4247 5.99094 14.5499C5.99094 15.6792 6.8928 16.5917 8 16.5917ZM8 13.5147C8.56366 13.5147 9.02265 13.9812 9.02265 14.554C9.02265 15.1268 8.56366 15.5892 8 15.5892C7.43634 15.5892 6.97735 15.1228 6.97735 14.5499C6.97735 13.9771 7.43634 13.5147 8 13.5147Z"/>
</symbol><symbol id="icon-menu" viewBox="0 0 17 11">
<path d="M0 0H17V2.2H0V0Z"/>
<path d="M0 4.4H13.9091V6.6H0V4.4Z"/>
<path d="M0 8.8H12.3636V11H0V8.8Z"/>
</symbol><symbol id="icon-menu3" viewBox="0 0 11 8">
<path d="M0 0H11V1.448H0V0Z"/>
<path d="M0 2.896H9V4.344H0V2.896Z"/>
<path d="M0 5.792H8V7.24H0V5.792Z"/>
</symbol><symbol id="icon-play" viewBox="0 0 13 19">
<path d="M13 9.5L0.249999 18.5933L0.25 0.406733L13 9.5Z"/>
</symbol><symbol id="icon-suitcase" viewBox="0 0 18 20">
<path d="M2.40016 0.582275C2.40016 0.583496 2.4 0.584717 2.4 0.585938L2.4 5.89844L1.8 5.89844C0.8075 5.89844 1.58756e-07 6.68701 1.47198e-07 7.65625L9.12999e-08 12.3438C7.97418e-08 13.313 0.8075 14.1016 1.8 14.1016L2.4 14.1016L2.4 19.4141C2.4 19.7403 2.67375 20 3 20L16.2 20C17.1925 20 18 19.2114 18 18.2422L18 1.75781C18 0.788574 17.1925 2.05019e-07 16.2 1.93183e-07L3.01266 3.59256e-08C3.01188 3.59162e-08 3.01109 3.59069e-08 3.01031 3.58976e-08C2.61625 0.0224305 2.40234 0.259094 2.40016 0.582275ZM1.8 12.9297C1.46922 12.9297 1.2 12.6668 1.2 12.3438L1.2 7.65625C1.2 7.33322 1.46922 7.07031 1.8 7.07031L2.4 7.07031L2.4 12.9297L1.8 12.9297ZM3.6 1.39893L9.18969 3.21854C9.43516 3.29834 9.6 3.52173 9.6 3.77426L9.6 7.07031L9 7.07031C8.66859 7.07031 8.4 7.33261 8.4 7.65625L8.4 12.3438C8.4 12.6674 8.66859 12.9297 9 12.9297L9.6 12.9297L9.6 16.2257C9.6 16.4783 9.43516 16.7017 9.18969 16.7815L3.6 18.6011L3.6 1.39893ZM9.6 8.24219L10.8 8.24219L10.8 11.7578L9.6 11.7578L9.6 8.24219ZM16.2 1.17188C16.5308 1.17188 16.8 1.43478 16.8 1.75781L16.8 18.2422C16.8 18.5652 16.5308 18.8281 16.2 18.8281L6.69734 18.8281L9.56922 17.8932C10.3055 17.6537 10.8 16.9835 10.8 16.2257L10.8 12.9297L11.4 12.9297C11.7314 12.9297 12 12.6674 12 12.3438L12 7.65625C12 7.33261 11.7314 7.07031 11.4 7.07031L10.8 7.07031L10.8 3.77426C10.8 3.01651 10.3055 2.34634 9.56922 2.10678L6.69734 1.17188L16.2 1.17188Z"/>
</symbol><symbol id="icon-user" viewBox="0 0 18 21">
<path d="M8.92329 11.3154C8.9452 11.3154 8.96712 11.3154 8.99341 11.3154C9.00217 11.3154 9.01094 11.3154 9.0197 11.3154C9.03285 11.3154 9.05038 11.3154 9.06352 11.3154C10.3475 11.2936 11.3861 10.8457 12.153 9.98903C13.8401 8.10168 13.5596 4.86623 13.529 4.55747C13.4194 2.23959 12.3151 1.13067 11.4036 0.613171C10.7244 0.226134 9.93119 0.0173949 9.04599 0H9.01532C9.01094 0 9.00217 0 8.99779 0H8.9715C8.48508 0 7.52976 0.0782771 6.61389 0.595776C5.69363 1.11327 4.5718 2.2222 4.46224 4.55747C4.43157 4.86623 4.15111 8.10168 5.83825 9.98903C6.60074 10.8457 7.63932 11.2936 8.92329 11.3154ZM5.63228 4.66618C5.63228 4.65314 5.63667 4.64009 5.63667 4.63139C5.78128 1.51336 8.0118 1.17851 8.96712 1.17851H8.98464C8.99341 1.17851 9.00655 1.17851 9.0197 1.17851C10.2029 1.2046 12.2143 1.68296 12.3502 4.63139C12.3502 4.64444 12.3502 4.65749 12.3545 4.66618C12.3589 4.69663 12.6657 7.65376 11.2721 9.2106C10.72 9.82812 9.98378 10.1325 9.01532 10.1412C9.00656 10.1412 9.00217 10.1412 8.99341 10.1412C8.98464 10.1412 8.98026 10.1412 8.9715 10.1412C8.00742 10.1325 7.26683 9.82812 6.71906 9.2106C5.32991 7.66246 5.6279 4.69228 5.63228 4.66618Z" fill="black"/>
<path d="M17.9988 16.6817C17.9988 16.6774 17.9988 16.673 17.9988 16.6687C17.9988 16.6339 17.9944 16.5991 17.9944 16.56C17.9681 15.6989 17.9111 13.6854 16.0093 13.0418C15.9961 13.0375 15.9786 13.0331 15.9654 13.0288C13.9891 12.5287 12.3458 11.398 12.3282 11.385C12.0609 11.198 11.6928 11.2632 11.5044 11.5285C11.316 11.7937 11.3817 12.159 11.649 12.346C11.7235 12.3982 13.4676 13.6028 15.6499 14.1595C16.671 14.5204 16.7849 15.6032 16.8156 16.5947C16.8156 16.6339 16.8156 16.6687 16.82 16.7035C16.8244 17.0948 16.7981 17.6993 16.7279 18.0472C16.018 18.4473 13.2354 19.8302 9.00217 19.8302C4.78652 19.8302 1.98632 18.4429 1.27202 18.0429C1.20191 17.695 1.17123 17.0905 1.18 16.6991C1.18 16.6643 1.18438 16.6295 1.18438 16.5904C1.21505 15.5989 1.32899 14.5161 2.35004 14.1551C4.53236 13.5985 6.27646 12.3895 6.35096 12.3417C6.61827 12.1547 6.684 11.7894 6.49557 11.5241C6.30714 11.2589 5.93904 11.1936 5.67172 11.3806C5.65419 11.3937 4.01964 12.5243 2.03452 13.0244C2.01699 13.0288 2.00385 13.0331 1.9907 13.0375C0.0888362 13.6854 0.031868 15.6989 0.00557494 16.5556C0.00557494 16.5947 0.00557484 16.6295 0.00119267 16.6643C0.00119267 16.6687 0.00119267 16.673 0.00119267 16.6774C-0.0031895 16.9035 -0.00757158 18.0646 0.224684 18.6473C0.268505 18.7604 0.347384 18.8561 0.452557 18.9213C0.584022 19.0083 3.7348 21 9.00656 21C14.2783 21 17.4291 19.0039 17.5606 18.9213C17.6613 18.8561 17.7446 18.7604 17.7884 18.6473C18.0075 18.069 18.0032 16.9078 17.9988 16.6817Z"/>
</symbol><symbol id="icon-vk" viewBox="0 0 16 9">
<path d="M15.8574 8.02743C15.8144 7.95645 15.5484 7.38659 14.2683 6.21531C12.9282 4.98883 13.1082 5.18799 14.7223 3.06728C15.7054 1.77572 16.0984 0.986988 15.9754 0.649804C15.8584 0.328395 15.1353 0.413184 15.1353 0.413184L12.7312 0.426986C12.7312 0.426986 12.5531 0.403324 12.4201 0.481212C12.2911 0.558114 12.2081 0.735579 12.2081 0.735579C12.2081 0.735579 11.8271 1.7353 11.3191 2.58516C10.248 4.37855 9.81894 4.4732 9.64393 4.36179C9.2369 4.10249 9.33891 3.31869 9.33891 2.76263C9.33891 1.02445 9.60593 0.299803 8.81787 0.112478C8.55585 0.0503654 8.36384 0.00895679 7.69479 0.00205536C6.83672 -0.00681791 6.10967 0.00501311 5.69864 0.203183C5.42462 0.335296 5.21361 0.630086 5.34262 0.646846C5.50163 0.667551 5.86165 0.74248 6.05267 0.998819C6.29969 1.3291 6.29069 2.07248 6.29069 2.07248C6.29069 2.07248 6.4327 4.11827 5.95966 4.37263C5.63464 4.54714 5.1896 4.19122 4.23453 2.56347C3.7455 1.73037 3.37547 0.808537 3.37547 0.808537C3.37547 0.808537 3.30447 0.636987 3.17746 0.545297C3.02345 0.433888 2.80743 0.398395 2.80743 0.398395L0.521262 0.412198C0.521262 0.412198 0.178236 0.422057 0.0522271 0.568959C-0.0597811 0.700086 0.0432264 0.970227 0.0432264 0.970227C0.0432264 0.970227 1.83336 5.09827 3.85951 7.17954C5.71864 9.0873 7.8288 8.96208 7.8288 8.96208H8.78487C8.78487 8.96208 9.07389 8.93054 9.2209 8.77377C9.35691 8.62983 9.35191 8.35969 9.35191 8.35969C9.35191 8.35969 9.33291 7.09475 9.92895 6.90842C10.516 6.72504 11.2701 8.13095 12.0691 8.67222C12.6732 9.08138 13.1322 8.99166 13.1322 8.99166L15.2693 8.96208C15.2693 8.96208 16.3874 8.89406 15.8574 8.02743Z"/>
</symbol></svg>