<svg viewBox="0 0 112 23" fill="none" xmlns="http://www.w3.org/2000/svg">
<path d="M4.14037 22V11.83H0.234375V9.13H11.1964V11.83H7.29038V22H4.14037Z" fill="black"/>
<path d="M12.7762 22V9.13H15.9262V15.142L15.7822 17.338H15.8182C16.2022 16.438 16.5622 15.706 16.8982 15.142L20.4622 9.13H23.6482V22H20.4982V16.006L20.6422 13.81H20.6062C20.2222 14.71 19.8622 15.442 19.5262 16.006L15.9442 22H12.7762Z" fill="black"/>
<path d="M29.7125 17.446C28.3805 17.446 27.3725 17.092 26.6885 16.384C26.0165 15.676 25.6805 14.686 25.6805 13.414V9.13H28.9025V12.676C28.9025 13.948 29.4725 14.584 30.6125 14.584C31.4645 14.584 32.2205 14.386 32.8805 13.99V9.13H36.1025V22H32.8805V17.338L32.9165 16.762H32.8805C31.8125 17.218 30.7565 17.446 29.7125 17.446Z" fill="black"/>
<path d="M37.4054 22L41.7794 9.13H45.0914L49.4654 22H46.2254L45.4334 19.3H41.4194L40.6454 22H37.4054ZM42.1574 16.78H44.6954L43.9754 14.278L43.4534 12.064H43.4174C43.2254 13 43.0514 13.738 42.8954 14.278L42.1574 16.78Z" fill="black"/>
<path d="M54.3805 20.38L56.0365 17.986C56.4445 18.346 56.9305 18.658 57.4945 18.922C58.0585 19.186 58.6045 19.318 59.1325 19.318C59.5525 19.318 59.8765 19.234 60.1045 19.066C60.3445 18.898 60.4645 18.682 60.4645 18.418C60.4645 18.142 60.3205 17.89 60.0325 17.662C59.7565 17.422 59.4085 17.224 58.9885 17.068C58.5685 16.912 58.1125 16.714 57.6205 16.474C57.1285 16.222 56.6725 15.958 56.2525 15.682C55.8325 15.406 55.4785 15.028 55.1905 14.548C54.9145 14.056 54.7765 13.492 54.7765 12.856C54.7765 11.68 55.2085 10.732 56.0725 10.012C56.9485 9.28 58.0705 8.914 59.4385 8.914C61.0345 8.914 62.3785 9.4 63.4705 10.372L62.1385 12.946C61.7665 12.622 61.3225 12.352 60.8065 12.136C60.2905 11.92 59.7865 11.812 59.2945 11.812C58.8385 11.812 58.4965 11.896 58.2685 12.064C58.0405 12.232 57.9265 12.454 57.9265 12.73C57.9265 13.006 58.0645 13.258 58.3405 13.486C58.6285 13.714 58.9825 13.906 59.4025 14.062C59.8225 14.206 60.2785 14.398 60.7705 14.638C61.2625 14.866 61.7185 15.118 62.1385 15.394C62.5585 15.658 62.9065 16.036 63.1825 16.528C63.4705 17.008 63.6145 17.566 63.6145 18.202C63.6145 19.342 63.2065 20.296 62.3905 21.064C61.5865 21.832 60.4705 22.216 59.0425 22.216C58.1785 22.216 57.3325 22.06 56.5045 21.748C55.6885 21.436 54.9805 20.98 54.3805 20.38Z" fill="black"/>
<path d="M68.388 22V11.83H64.482V9.13H75.444V11.83H71.538V22H68.388Z" fill="black"/>
<path d="M76.0234 15.484C76.0234 13.612 76.6534 12.052 77.9134 10.804C79.1734 9.544 80.7874 8.914 82.7554 8.914C84.7234 8.914 86.3374 9.544 87.5974 10.804C88.8574 12.052 89.4874 13.612 89.4874 15.484C89.4874 17.404 88.8574 19.006 87.5974 20.29C86.3374 21.574 84.7234 22.216 82.7554 22.216C80.7874 22.216 79.1734 21.574 77.9134 20.29C76.6534 19.006 76.0234 17.404 76.0234 15.484ZM79.2814 15.484C79.2814 16.588 79.6054 17.506 80.2534 18.238C80.9134 18.97 81.7474 19.336 82.7554 19.336C83.7634 19.336 84.5914 18.97 85.2394 18.238C85.8994 17.506 86.2294 16.588 86.2294 15.484C86.2294 14.428 85.8994 13.552 85.2394 12.856C84.5914 12.148 83.7634 11.794 82.7554 11.794C81.7474 11.794 80.9134 12.148 80.2534 12.856C79.6054 13.552 79.2814 14.428 79.2814 15.484Z" fill="black"/>
<path d="M91.491 22V9.13H95.973C97.113 9.13 97.947 9.232 98.475 9.436C99.219 9.724 99.801 10.192 100.221 10.84C100.641 11.476 100.851 12.256 100.851 13.18C100.851 13.9 100.683 14.59 100.347 15.25C100.011 15.898 99.537 16.378 98.925 16.69V16.726C99.045 16.882 99.207 17.14 99.411 17.5L101.913 22H98.403L96.117 17.662H94.641V22H91.491ZM94.641 14.962H96.009C96.525 14.962 96.927 14.824 97.215 14.548C97.503 14.272 97.647 13.882 97.647 13.378C97.647 12.67 97.395 12.214 96.891 12.01C96.615 11.89 96.219 11.83 95.703 11.83H94.641V14.962Z" fill="black"/>
<path d="M103.339 22V9.13H111.403V11.83H106.489V14.17H110.413V16.87H106.489V19.3H111.655V22H103.339Z" fill="black"/>
<path d="M56.427 7.84109H53.9101L58 0L49.5056 9.12597L52.098 9.12202L48 17L56.5447 7.84109L56.4261 7.84174L56.427 7.84109Z" fill="url(#paint0_linear)"/>
<defs>
<linearGradient id="paint0_linear" x1="48.0004" y1="8.50106" x2="56.1025" y2="4.85102" gradientUnits="userSpaceOnUse">
<stop stop-color="#FDCA00"/>
<stop offset="1" stop-color="#FADD22"/>
</linearGradient>
</defs>
</svg>
