<svg viewBox="0 0 494 99" fill="none" xmlns="http://www.w3.org/2000/svg">
<mask id="path-1-inside-1" fill="white">
<path d="M17.3512 97.6645V52.5563H0.0683594V40.5806H48.5718V52.5563H31.289V97.6645H17.3512Z"/>
<path d="M55.5618 97.6645V40.5806H69.4996V67.2464L68.8624 76.9866H69.0217C70.7208 72.9947 72.3137 69.748 73.8004 67.2464L89.57 40.5806H103.667V97.6645H89.7293V71.0786L90.3664 61.3384H90.2071C88.5081 65.3303 86.9152 68.577 85.4285 71.0786L69.5792 97.6645H55.5618Z"/>
<path d="M130.5 77.4656C124.606 77.4656 120.146 75.8955 117.119 72.7552C114.146 69.6149 112.659 65.2238 112.659 59.582V40.5806H126.916V56.3086C126.916 61.9505 129.438 64.7714 134.482 64.7714C138.252 64.7714 141.597 63.8932 144.517 62.1368V40.5806H158.773V97.6645H144.517V76.9866L144.676 74.4318H144.517C139.792 76.4543 135.119 77.4656 130.5 77.4656Z"/>
<path d="M164.538 97.6645L183.892 40.5806H198.547L217.9 97.6645H203.564L200.06 85.6889H182.299L178.874 97.6645H164.538ZM185.564 74.5116H196.794L193.609 63.4142L191.299 53.5941H191.14C190.29 57.7457 189.52 61.019 188.83 63.4142L185.564 74.5116Z"/>
<path d="M239.648 90.4791L246.975 79.8607C248.781 81.4575 250.931 82.8413 253.426 84.0123C255.922 85.1832 258.338 85.7687 260.674 85.7687C262.533 85.7687 263.966 85.3961 264.975 84.651C266.037 83.9058 266.568 82.9478 266.568 81.7768C266.568 80.5526 265.931 79.4349 264.656 78.4236C263.435 77.3591 261.895 76.4809 260.037 75.789C258.179 75.0971 256.161 74.2189 253.984 73.1544C251.807 72.0366 249.789 70.8657 247.931 69.6415C246.073 68.4173 244.506 66.7407 243.232 64.6117C242.011 62.4295 241.4 59.9279 241.4 57.107C241.4 51.8909 243.312 47.6862 247.135 44.4927C251.011 41.2459 255.975 39.6226 262.028 39.6226C269.09 39.6226 275.037 41.7782 279.868 46.0894L273.975 57.5062C272.329 56.0691 270.364 54.8715 268.081 53.9135C265.798 52.9554 263.568 52.4764 261.391 52.4764C259.373 52.4764 257.86 52.849 256.851 53.5941C255.842 54.3393 255.338 55.324 255.338 56.5481C255.338 57.7723 255.949 58.89 257.17 59.9013C258.444 60.9126 260.01 61.7642 261.869 62.4561C263.727 63.0948 265.745 63.9464 267.922 65.0109C270.099 66.0222 272.116 67.1399 273.975 68.3641C275.833 69.5351 277.373 71.2116 278.594 73.3939C279.868 75.5229 280.506 77.9978 280.506 80.8188C280.506 85.8752 278.7 90.1065 275.09 93.513C271.532 96.9194 266.594 98.6226 260.276 98.6226C256.453 98.6226 252.71 97.9306 249.046 96.5468C245.436 95.1629 242.303 93.1404 239.648 90.4791Z"/>
<path d="M301.627 97.6645V52.5563H284.344V40.5806H332.848V52.5563H315.565V97.6645H301.627Z"/>
<path d="M335.411 68.7633C335.411 60.4602 338.199 53.5409 343.774 48.0055C349.349 42.4169 356.49 39.6226 365.198 39.6226C373.906 39.6226 381.047 42.4169 386.622 48.0055C392.198 53.5409 394.985 60.4602 394.985 68.7633C394.985 77.2793 392.198 84.3848 386.622 90.0799C381.047 95.775 373.906 98.6226 365.198 98.6226C356.49 98.6226 349.349 95.775 343.774 90.0799C338.199 84.3848 335.411 77.2793 335.411 68.7633ZM349.827 68.7633C349.827 73.66 351.26 77.7317 354.127 80.9784C357.048 84.2252 360.738 85.8485 365.198 85.8485C369.658 85.8485 373.322 84.2252 376.189 80.9784C379.109 77.7317 380.569 73.66 380.569 68.7633C380.569 64.0795 379.109 60.194 376.189 57.107C373.322 53.9667 369.658 52.3966 365.198 52.3966C360.738 52.3966 357.048 53.9667 354.127 57.107C351.26 60.194 349.827 64.0795 349.827 68.7633Z"/>
<path d="M403.85 97.6645V40.5806H423.682C428.726 40.5806 432.416 41.033 434.753 41.9379C438.044 43.2153 440.62 45.291 442.478 48.1652C444.336 50.9861 445.266 54.4457 445.266 58.5441C445.266 61.7376 444.522 64.798 443.036 67.7254C441.549 70.5996 439.452 72.7286 436.744 74.1124V74.2721C437.275 74.964 437.991 76.1084 438.894 77.7051L449.965 97.6645H434.434L424.319 78.4236H417.788V97.6645H403.85ZM417.788 66.448H423.841C426.124 66.448 427.903 65.8359 429.177 64.6117C430.452 63.3876 431.089 61.6577 431.089 59.4223C431.089 56.282 429.974 54.2595 427.744 53.3546C426.523 52.8224 424.77 52.5563 422.487 52.5563H417.788V66.448Z"/>
<path d="M456.273 97.6645V40.5806H491.953V52.5563H470.21V62.9351H487.573V74.9108H470.21V85.6889H493.068V97.6645H456.273Z"/>
</mask>
<path d="M17.3512 97.6645V52.5563H0.0683594V40.5806H48.5718V52.5563H31.289V97.6645H17.3512Z" stroke="black" stroke-opacity="0.1" stroke-width="2" mask="url(#path-1-inside-1)"/>
<path d="M55.5618 97.6645V40.5806H69.4996V67.2464L68.8624 76.9866H69.0217C70.7208 72.9947 72.3137 69.748 73.8004 67.2464L89.57 40.5806H103.667V97.6645H89.7293V71.0786L90.3664 61.3384H90.2071C88.5081 65.3303 86.9152 68.577 85.4285 71.0786L69.5792 97.6645H55.5618Z" stroke="black" stroke-opacity="0.1" stroke-width="2" mask="url(#path-1-inside-1)"/>
<path d="M130.5 77.4656C124.606 77.4656 120.146 75.8955 117.119 72.7552C114.146 69.6149 112.659 65.2238 112.659 59.582V40.5806H126.916V56.3086C126.916 61.9505 129.438 64.7714 134.482 64.7714C138.252 64.7714 141.597 63.8932 144.517 62.1368V40.5806H158.773V97.6645H144.517V76.9866L144.676 74.4318H144.517C139.792 76.4543 135.119 77.4656 130.5 77.4656Z" stroke="black" stroke-opacity="0.1" stroke-width="2" mask="url(#path-1-inside-1)"/>
<path d="M164.538 97.6645L183.892 40.5806H198.547L217.9 97.6645H203.564L200.06 85.6889H182.299L178.874 97.6645H164.538ZM185.564 74.5116H196.794L193.609 63.4142L191.299 53.5941H191.14C190.29 57.7457 189.52 61.019 188.83 63.4142L185.564 74.5116Z" stroke="black" stroke-opacity="0.1" stroke-width="2" mask="url(#path-1-inside-1)"/>
<path d="M239.648 90.4791L246.975 79.8607C248.781 81.4575 250.931 82.8413 253.426 84.0123C255.922 85.1832 258.338 85.7687 260.674 85.7687C262.533 85.7687 263.966 85.3961 264.975 84.651C266.037 83.9058 266.568 82.9478 266.568 81.7768C266.568 80.5526 265.931 79.4349 264.656 78.4236C263.435 77.3591 261.895 76.4809 260.037 75.789C258.179 75.0971 256.161 74.2189 253.984 73.1544C251.807 72.0366 249.789 70.8657 247.931 69.6415C246.073 68.4173 244.506 66.7407 243.232 64.6117C242.011 62.4295 241.4 59.9279 241.4 57.107C241.4 51.8909 243.312 47.6862 247.135 44.4927C251.011 41.2459 255.975 39.6226 262.028 39.6226C269.09 39.6226 275.037 41.7782 279.868 46.0894L273.975 57.5062C272.329 56.0691 270.364 54.8715 268.081 53.9135C265.798 52.9554 263.568 52.4764 261.391 52.4764C259.373 52.4764 257.86 52.849 256.851 53.5941C255.842 54.3393 255.338 55.324 255.338 56.5481C255.338 57.7723 255.949 58.89 257.17 59.9013C258.444 60.9126 260.01 61.7642 261.869 62.4561C263.727 63.0948 265.745 63.9464 267.922 65.0109C270.099 66.0222 272.116 67.1399 273.975 68.3641C275.833 69.5351 277.373 71.2116 278.594 73.3939C279.868 75.5229 280.506 77.9978 280.506 80.8188C280.506 85.8752 278.7 90.1065 275.09 93.513C271.532 96.9194 266.594 98.6226 260.276 98.6226C256.453 98.6226 252.71 97.9306 249.046 96.5468C245.436 95.1629 242.303 93.1404 239.648 90.4791Z" stroke="black" stroke-opacity="0.1" stroke-width="2" mask="url(#path-1-inside-1)"/>
<path d="M301.627 97.6645V52.5563H284.344V40.5806H332.848V52.5563H315.565V97.6645H301.627Z" stroke="black" stroke-opacity="0.1" stroke-width="2" mask="url(#path-1-inside-1)"/>
<path d="M335.411 68.7633C335.411 60.4602 338.199 53.5409 343.774 48.0055C349.349 42.4169 356.49 39.6226 365.198 39.6226C373.906 39.6226 381.047 42.4169 386.622 48.0055C392.198 53.5409 394.985 60.4602 394.985 68.7633C394.985 77.2793 392.198 84.3848 386.622 90.0799C381.047 95.775 373.906 98.6226 365.198 98.6226C356.49 98.6226 349.349 95.775 343.774 90.0799C338.199 84.3848 335.411 77.2793 335.411 68.7633ZM349.827 68.7633C349.827 73.66 351.26 77.7317 354.127 80.9784C357.048 84.2252 360.738 85.8485 365.198 85.8485C369.658 85.8485 373.322 84.2252 376.189 80.9784C379.109 77.7317 380.569 73.66 380.569 68.7633C380.569 64.0795 379.109 60.194 376.189 57.107C373.322 53.9667 369.658 52.3966 365.198 52.3966C360.738 52.3966 357.048 53.9667 354.127 57.107C351.26 60.194 349.827 64.0795 349.827 68.7633Z" stroke="black" stroke-opacity="0.1" stroke-width="2" mask="url(#path-1-inside-1)"/>
<path d="M403.85 97.6645V40.5806H423.682C428.726 40.5806 432.416 41.033 434.753 41.9379C438.044 43.2153 440.62 45.291 442.478 48.1652C444.336 50.9861 445.266 54.4457 445.266 58.5441C445.266 61.7376 444.522 64.798 443.036 67.7254C441.549 70.5996 439.452 72.7286 436.744 74.1124V74.2721C437.275 74.964 437.991 76.1084 438.894 77.7051L449.965 97.6645H434.434L424.319 78.4236H417.788V97.6645H403.85ZM417.788 66.448H423.841C426.124 66.448 427.903 65.8359 429.177 64.6117C430.452 63.3876 431.089 61.6577 431.089 59.4223C431.089 56.282 429.974 54.2595 427.744 53.3546C426.523 52.8224 424.77 52.5563 422.487 52.5563H417.788V66.448Z" stroke="black" stroke-opacity="0.1" stroke-width="2" mask="url(#path-1-inside-1)"/>
<path d="M456.273 97.6645V40.5806H491.953V52.5563H470.21V62.9351H487.573V74.9108H470.21V85.6889H493.068V97.6645H456.273Z" stroke="black" stroke-opacity="0.1" stroke-width="2" mask="url(#path-1-inside-1)"/>
<path d="M248.311 35.7201L213.221 72.6749L229.921 41.1191L230.31 40.3831L229.477 40.3853L218.978 40.4124L253.83 3.62344L237.186 34.9909L236.795 35.7262L237.628 35.7253L247.401 35.7147L247.385 35.7261L248.311 35.7201Z" stroke="black" stroke-opacity="0.1"/>
</svg>
