<svg viewBox="0 0 493 98" fill="none" xmlns="http://www.w3.org/2000/svg">
<path d="M17.2828 97.042V51.9337H0V39.9581H48.5034V51.9337H31.2206V97.042H17.2828Z" fill="white"/>
<path d="M55.4935 97.042V39.9581H69.4312V66.6238L68.7941 76.364H68.9534C70.6525 72.3721 72.2453 69.1254 73.732 66.6238L89.5016 39.9581H103.599V97.042H89.6609V70.456L90.2981 60.7158H90.1388C88.4397 64.7077 86.8468 67.9544 85.3601 70.456L69.5109 97.042H55.4935Z" fill="white"/>
<path d="M130.431 76.843C124.538 76.843 120.078 75.2729 117.051 72.1326C114.078 68.9923 112.591 64.6013 112.591 58.9594V39.9581H126.847V55.6861C126.847 61.3279 129.369 64.1489 134.414 64.1489C138.183 64.1489 141.528 63.2706 144.449 61.5142V39.9581H158.705V97.042H144.449V76.364L144.608 73.8092H144.449C139.723 75.8318 135.051 76.843 130.431 76.843Z" fill="white"/>
<path d="M164.47 97.042L183.824 39.9581H198.478L217.832 97.042H203.496L199.991 85.0663H182.231L178.806 97.042H164.47ZM185.496 73.889H196.726L193.54 62.7916L191.231 52.9716H191.071C190.222 57.1231 189.452 60.3965 188.762 62.7916L185.496 73.889Z" fill="white"/>
<path d="M239.58 89.8566L246.907 79.2382C248.712 80.8349 250.863 82.2188 253.358 83.3897C255.854 84.5607 258.27 85.1461 260.606 85.1461C262.464 85.1461 263.898 84.7736 264.907 84.0284C265.969 83.2833 266.499 82.3252 266.499 81.1543C266.499 79.9301 265.862 78.8124 264.588 77.8011C263.367 76.7366 261.827 75.8584 259.969 75.1664C258.11 74.4745 256.093 73.5963 253.916 72.5318C251.739 71.4141 249.721 70.2431 247.863 69.0189C246.004 67.7948 244.438 66.1182 243.164 63.9892C241.942 61.807 241.332 59.3054 241.332 56.4844C241.332 51.2684 243.243 47.0636 247.066 43.8701C250.942 40.6234 255.907 39 261.96 39C269.022 39 274.968 41.1556 279.8 45.4669L273.906 56.8836C272.26 55.4466 270.296 54.249 268.013 53.2909C265.73 52.3329 263.5 51.8539 261.323 51.8539C259.305 51.8539 257.792 52.2264 256.783 52.9716C255.774 53.7167 255.27 54.7014 255.27 55.9256C255.27 57.1498 255.88 58.2675 257.101 59.2788C258.376 60.29 259.942 61.1416 261.8 61.8336C263.659 62.4723 265.676 63.3239 267.853 64.3884C270.03 65.3996 272.048 66.5174 273.906 67.7415C275.765 68.9125 277.305 70.5891 278.526 72.7713C279.8 74.9003 280.437 77.3753 280.437 80.1962C280.437 85.2526 278.632 89.484 275.021 92.8904C271.464 96.2968 266.526 98 260.208 98C256.385 98 252.641 97.3081 248.978 95.9242C245.367 94.5404 242.234 92.5178 239.58 89.8566Z" fill="white"/>
<path d="M301.559 97.042V51.9337H284.276V39.9581H332.779V51.9337H315.496V97.042H301.559Z" fill="white"/>
<path d="M335.343 68.1407C335.343 59.8376 338.13 52.9184 343.705 47.383C349.28 41.7943 356.422 39 365.13 39C373.837 39 380.979 41.7943 386.554 47.383C392.129 52.9184 394.917 59.8376 394.917 68.1407C394.917 76.6567 392.129 83.7623 386.554 89.4574C380.979 95.1525 373.837 98 365.13 98C356.422 98 349.28 95.1525 343.705 89.4574C338.13 83.7623 335.343 76.6567 335.343 68.1407ZM349.758 68.1407C349.758 73.0374 351.192 77.1092 354.059 80.3559C356.979 83.6026 360.67 85.226 365.13 85.226C369.59 85.226 373.253 83.6026 376.121 80.3559C379.041 77.1092 380.501 73.0374 380.501 68.1407C380.501 63.4569 379.041 59.5715 376.121 56.4844C373.253 53.3442 369.59 51.774 365.13 51.774C360.67 51.774 356.979 53.3442 354.059 56.4844C351.192 59.5715 349.758 63.4569 349.758 68.1407Z" fill="white"/>
<path d="M403.782 97.042V39.9581H423.614C428.658 39.9581 432.348 40.4105 434.684 41.3153C437.976 42.5927 440.551 44.6685 442.41 47.5426C444.268 50.3636 445.197 53.8232 445.197 57.9215C445.197 61.115 444.454 64.1755 442.967 67.1028C441.48 69.977 439.383 72.106 436.675 73.4899V73.6495C437.206 74.3415 437.923 75.4858 438.826 77.0825L449.896 97.042H434.366L424.251 77.8011H417.72V97.042H403.782ZM417.72 65.8254H423.773C426.056 65.8254 427.835 65.2134 429.109 63.9892C430.383 62.765 431.02 61.0352 431.02 58.7997C431.02 55.6595 429.905 53.6369 427.675 52.7321C426.454 52.1998 424.702 51.9337 422.419 51.9337H417.72V65.8254Z" fill="white"/>
<path d="M456.204 97.042V39.9581H491.885V51.9337H470.142V62.3126H487.505V74.2882H470.142V85.0663H493V97.042H456.204Z" fill="white"/>
<path d="M248.921 34.593H237.596L256 0L217.775 40.2616L229.441 40.2442L211 75L249.451 34.593L248.917 34.5959L248.921 34.593Z" fill="url(#paint0_linear)"/>
<defs>
<linearGradient id="paint0_linear" x1="211.002" y1="37.5047" x2="247.215" y2="20.8644" gradientUnits="userSpaceOnUse">
<stop stop-color="#FDCA00"/>
<stop offset="1" stop-color="#FADD22"/>
</linearGradient>
</defs>
</svg>
