<svg width="287" height="147" viewBox="0 0 287 147" fill="none" xmlns="http://www.w3.org/2000/svg">
<path d="M19.6999 65H35.4499V14.15H54.9799V0.649994H0.169922V14.15H19.6999V65Z" fill="white"/>
<path d="M62.8788 65H78.7188L96.6288 35.03C99.1488 30.8 102.029 24.05 102.029 24.05H102.209C102.209 24.05 101.489 30.98 101.489 35.03V65H117.239V0.649994H101.309L83.4888 30.71C80.9688 34.94 78.0888 41.69 78.0888 41.69H77.9088C77.9088 41.69 78.6288 34.76 78.6288 30.71V0.649994H62.8788V65Z" fill="white"/>
<path d="M147.56 42.23C154.31 42.23 160.25 40.16 163.4 38.81H163.58C163.58 38.81 163.4 40.43 163.4 41.69V65H179.51V0.649994H163.4V24.95C161.15 26.3 156.92 27.92 152.06 27.92C146.12 27.92 143.51 24.5 143.51 18.38V0.649994H127.4V22.07C127.4 34.49 133.97 42.23 147.56 42.23Z" fill="white"/>
<path d="M186.025 65H202.225L206.095 51.5H226.165L230.125 65H246.325L224.455 0.649994H207.895L186.025 65ZM209.785 38.9L213.475 26.39C214.645 22.34 216.085 15.32 216.085 15.32H216.265C216.265 15.32 217.705 22.34 218.875 26.39L222.475 38.9H209.785Z" fill="white"/>
<path d="M0.169922 136.83C6.28992 142.95 15.1099 146.01 23.4799 146.01C38.3299 146.01 46.3399 136.74 46.3399 125.94C46.3399 105.6 17.8999 107.76 17.8999 98.58C17.8999 95.97 19.9699 93.99 24.7399 93.99C29.7799 93.99 35.3599 96.51 38.9599 99.66L45.6199 86.79C40.0399 81.84 32.6599 79.5 25.4599 79.5C11.9599 79.5 2.14992 87.33 2.14992 99.21C2.14992 119.37 30.5899 117.93 30.5899 127.02C30.5899 129.54 28.3399 131.52 23.9299 131.52C18.1699 131.52 12.0499 128.01 8.44992 124.86L0.169922 136.83Z" fill="white"/>
<path d="M70.2075 144.93H85.9575V94.08H105.488V80.58H50.6775V94.08H70.2075V144.93Z" fill="white"/>
<path d="M108.384 112.35C108.384 131.25 122.064 146.01 142.044 146.01C162.024 146.01 175.704 131.25 175.704 112.35C175.704 93.9 162.024 79.5 142.044 79.5C122.064 79.5 108.384 93.9 108.384 112.35ZM124.674 112.35C124.674 101.82 131.874 93.9 142.044 93.9C152.214 93.9 159.414 101.82 159.414 112.35C159.414 123.33 152.214 131.61 142.044 131.61C131.874 131.61 124.674 123.33 124.674 112.35Z" fill="white"/>
<path d="M185.723 144.93H201.473V123.24H208.853L220.283 144.93H237.833L225.323 122.43C223.793 119.73 222.893 118.56 222.893 118.56V118.38C229.283 115.14 232.523 107.67 232.523 100.83C232.523 91.47 227.932 84.9 220.643 82.11C217.852 81.03 214.703 80.58 208.133 80.58H185.723V144.93ZM201.473 109.74V94.08H206.783C209.393 94.08 211.283 94.35 212.723 94.98C215.693 96.15 216.503 98.58 216.503 101.82C216.503 106.95 213.353 109.74 208.312 109.74H201.473Z" fill="white"/>
<path d="M244.961 144.93H286.541V131.43H260.711V119.28H280.331V105.78H260.711V94.08H285.281V80.58H244.961V144.93Z" fill="white"/>
</svg>
