<?xml version="1.0" encoding="iso-8859-1"?><svg xmlns="http://www.w3.org/2000/svg" xmlns:xlink="http://www.w3.org/1999/xlink"><symbol viewBox="0 0 480.002 480.002" id="svg--brush" xmlns="http://www.w3.org/2000/svg"><path d="M456 288.001h-72v-120h72a8 8 0 0 0 8-8v-39.44L479.92 9.137A8 8 0 0 0 472 .001H248a8 8 0 0 0-7.92 9.136L256 120.561v39.44a8 8 0 0 0 8 8h72v120h-8c-13.255 0-24 10.745-24 24s10.745 24 24 24h8v16h-56l7.464-112H296a8 8 0 0 0 8-8v-32a8 8 0 0 0-8-8h-56.6a56.112 56.112 0 0 0-28.336-40.984c12.684-28.207.1-61.356-28.108-74.04-28.207-12.684-61.356-.1-74.04 28.108a55.97 55.97 0 0 0-4.412 15.397c-43.856-4.744-83.255 26.962-87.999 70.818-.025.234-.05.468-.073.702H8a8 8 0 0 0-8 8v32a8 8 0 0 0 8 8h8.52L32 472.529a8 8 0 0 0 8 7.472h432a8 8 0 0 0 8-8v-160c0-13.255-10.745-24-24-24zm-198.776-272H288v48h16v-48h16v16h16v-16h48v24h16v-24h16v48h16v-48h30.776l-13.712 96H270.936l-13.712-96zm14.776 136v-24h176v24H272zm96 16v120h-16v-120h16zm-80 40v16H168v-16h120zm-184.237-71.496c2.199.273 4.382.66 6.541 1.16h.264a64.298 64.298 0 0 1 25.656 12.552l10.064-12.44a80.388 80.388 0 0 0-25.872-13.872c2.297-21.914 21.924-37.817 43.838-35.52 21.914 2.297 37.817 21.924 35.52 43.838a39.897 39.897 0 0 1-6.557 18.082 8 8 0 0 0 4 12 40.001 40.001 0 0 1 25.872 29.696H160a8 8 0 0 0-8 8v72a8 8 0 0 1-16 0v-16c0-13.255-10.745-24-24-24s-24 10.745-24 24v56a8 8 0 0 1-16 0v-112a8 8 0 0 0-8-8H32.536c4.344-34.994 36.233-59.84 71.227-55.496zM16 224.001v-16h40v16H16zm208 152v88H47.488l-14.936-224H56v72c0 13.255 10.745 24 24 24s24-10.745 24-24v-56a8 8 0 0 1 16 0v16c0 13.255 10.745 24 24 24s24-10.745 24-24v-32h103.448l-7.448 112h-16c-13.255 0-24 10.745-24 24zm240 88h-24v-40h-16v40h-24v-40h-16v40h-24v-40h-16v40h-24v-40h-16v40h-24v-40h-16v40h-24v-64h224v64zm0-80H240v-8a8 8 0 0 1 8-8h176c13.255 0 24-10.745 24-24s-10.745-24-24-24h-96a8 8 0 0 1 0-16h128a8 8 0 0 1 8 8v72zm-112-32v-16h16v16h-16zm32 0v-16h40a8 8 0 0 1 0 16h-40zM32 80.001v-16H16v16H0v16h16v16h16v-16h16v-16z"/><path d="M456 224.001v-16h-16v16h-16v16h16v16h16v-16h16v-16zM152 16.001v-16h-16v16h-16v16h16v16h16v-16h16v-16zM288 80.001h16v16h-16z"/></symbol><symbol viewBox="0 0 477.33 488.15" id="svg--calendar" xmlns="http://www.w3.org/2000/svg"><g data-name="Слой 2"><g data-name="Capa 1"><path d="M172.44 269.31a11.07 11.07 0 0 0-11.08-11.07H122.7a11.07 11.07 0 0 0-11.07 11.07V308a11.08 11.08 0 0 0 11.07 11.08h38.67A11.08 11.08 0 0 0 172.44 308v-38.69zM269.07 269.31A11.07 11.07 0 0 0 258 258.24h-38.67a11.07 11.07 0 0 0-11.07 11.07V308a11.08 11.08 0 0 0 11.07 11.08H258A11.07 11.07 0 0 0 269.07 308zM365.71 269.31a11.07 11.07 0 0 0-11.07-11.07H316a11.07 11.07 0 0 0-11.08 11.07V308A11.08 11.08 0 0 0 316 319.05h38.67A11.08 11.08 0 0 0 365.71 308zM172.44 366a11.07 11.07 0 0 0-11.08-11.08H122.7A11.07 11.07 0 0 0 111.62 366v38.6a11.07 11.07 0 0 0 11.07 11.07h38.67a11.08 11.08 0 0 0 11.08-11.07V366zM269.07 366A11.07 11.07 0 0 0 258 354.88h-38.67A11.07 11.07 0 0 0 208.26 366v38.6a11.07 11.07 0 0 0 11.07 11.07H258a11.07 11.07 0 0 0 11.07-11.07zM365.71 366a11.07 11.07 0 0 0-11.07-11.08H316A11.07 11.07 0 0 0 304.89 366v38.6A11.07 11.07 0 0 0 316 415.68h38.67a11.07 11.07 0 0 0 11.07-11.07V366z"/><path d="M434.84 54.35v59a48.23 48.23 0 0 1-48.34 48.2H356c-26.69 0-48.63-21.51-48.63-48.2V54.14H169.94v59.26c0 26.69-21.94 48.2-48.62 48.2h-30.5a48.23 48.23 0 0 1-48.34-48.2v-59A44 44 0 0 0 0 98.08v346.06a44 44 0 0 0 43.76 44h389.82a44 44 0 0 0 43.76-44V98.08a44 44 0 0 0-42.5-43.73zm-14.16 368.24a18.92 18.92 0 0 1-18.92 18.92h-327a18.92 18.92 0 0 1-18.92-18.92V243.84a18.92 18.92 0 0 1 18.92-18.92h327a18.92 18.92 0 0 1 18.92 18.92v178.75z"/><path d="M90.72 129.95h30.16a16.57 16.57 0 0 0 16.58-16.57V16.57A16.57 16.57 0 0 0 120.88 0H90.72a16.57 16.57 0 0 0-16.58 16.57v96.8a16.57 16.57 0 0 0 16.58 16.58zM355.62 129.95h30.16a16.57 16.57 0 0 0 16.57-16.57V16.57A16.57 16.57 0 0 0 385.79 0h-30.17A16.57 16.57 0 0 0 339 16.57v96.8a16.57 16.57 0 0 0 16.62 16.58z"/></g></g></symbol><symbol viewBox="0 0 212.982 212.982" id="svg--cancel" xmlns="http://www.w3.org/2000/svg"><path d="M131.804 106.491l75.936-75.936c6.99-6.99 6.99-18.323 0-25.312-6.99-6.99-18.322-6.99-25.312 0L106.491 81.18 30.554 5.242c-6.99-6.99-18.322-6.99-25.312 0-6.989 6.99-6.989 18.323 0 25.312l75.937 75.936-75.937 75.937c-6.989 6.99-6.989 18.323 0 25.312 6.99 6.99 18.322 6.99 25.312 0l75.937-75.937 75.937 75.937c6.989 6.99 18.322 6.99 25.312 0 6.99-6.99 6.99-18.322 0-25.312l-75.936-75.936z" fill-rule="evenodd" clip-rule="evenodd"/></symbol><symbol viewBox="0 0 26 26" id="svg--checked" xmlns="http://www.w3.org/2000/svg"><path d="M.3 14c-.2-.2-.3-.5-.3-.7s.1-.5.3-.7l1.4-1.4c.4-.4 1-.4 1.4 0l.1.1 5.5 5.9c.2.2.5.2.7 0L22.8 3.3h.1c.4-.4 1-.4 1.4 0l1.4 1.4c.4.4.4 1 0 1.4l-16 16.6c-.2.2-.4.3-.7.3-.3 0-.5-.1-.7-.3L.5 14.3.3 14z"/></symbol><symbol viewBox="0 0 448 480" id="svg--cleaning" xmlns="http://www.w3.org/2000/svg"><g data-name="Слой 2"><g data-name="Capa 1"><path d="M400 336h-12.53a56.81 56.81 0 0 0-25.31 6 40.8 40.8 0 0 1-36.32 0 56.6 56.6 0 0 0-14.4-4.8L327 216h17a8 8 0 0 0 8-8v-32a8 8 0 0 0-8-8h-32v-24a8 8 0 0 0-2.34-5.66L272 100.69V75.84l12.13-9.7 20.71 41.43 14.32-7.15-22.26-44.5 9.9-7.92H336a8 8 0 0 0 8-8V8a8 8 0 0 0-8-8h-80a72.09 72.09 0 0 0-72 72 8 8 0 0 0 8 8h16v20.69l-21.66 21.66A8 8 0 0 0 184 128v40h-16v-64a7.91 7.91 0 0 0-.58-2.89 8.26 8.26 0 0 0-.5-.9 8.91 8.91 0 0 0-.67-1.21L136 61.2V8a8 8 0 0 0-8-8H80a8 8 0 0 0-8 8v53.2L41.75 99a8.91 8.91 0 0 0-.67 1.21 8.26 8.26 0 0 0-.5.9A7.91 7.91 0 0 0 40 104v64H8a8 8 0 0 0-8 8v32a8 8 0 0 0 8 8h17l31.1 241a8 8 0 0 0 7.9 7h188.32A47.86 47.86 0 0 0 288 480h12.53a56.81 56.81 0 0 0 25.31-6 40.8 40.8 0 0 1 36.32 0 56.81 56.81 0 0 0 25.31 6H400a48 48 0 0 0 48-48v-48a48 48 0 0 0-48-48zM312 16h16v16h-16zm24 168v16H224v-16zM200.57 64A56.09 56.09 0 0 1 256 16h40v20.16L261.19 64zM256 80v16h-32V80zm-56 51.31L219.31 112h41.38L296 147.31V168h-96zM192 184h16v56a8 8 0 0 0 4.42 7.2l48 24a9.66 9.66 0 0 1 4.92 5.69 10.29 10.29 0 0 1-.8 8 9.34 9.34 0 0 1-12.54 4.19l-32.48-16.24A8 8 0 0 0 208 280v80a16 16 0 0 1-16 16v-72h-16v72h-16v-72h-16v72h-16v-72h-16v72a16 16 0 0 1-16-16V184zM88 16h32v40H88zm-4.16 56h40.32l19.2 24H64.64zM56 112h96v56H56zm-40 88v-16h64v16zm224 184v48a47.82 47.82 0 0 0 2.8 16H71L41.1 216H80v144a32 32 0 0 0 32 32h80a32 32 0 0 0 32-32v-67.06l20.9 10.45a25.5 25.5 0 0 0 34.1-11.58l.08-.16a25.9 25.9 0 0 0 1.46-19.8 25.6 25.6 0 0 0-13-15L224 235.06V216h86.9l-15.48 120H288a48 48 0 0 0-48 48zm192 48a32 32 0 0 1-32 32h-12.53a40.8 40.8 0 0 1-18.15-4.29 56.9 56.9 0 0 0-50.64 0 40.8 40.8 0 0 1-18.15 4.29H288a32 32 0 0 1-32-32v-12.32A47.75 47.75 0 0 0 288 432h12.53a56.81 56.81 0 0 0 25.31-6 40.8 40.8 0 0 1 36.32 0 56.81 56.81 0 0 0 25.31 6H400a47.75 47.75 0 0 0 32-12.32zm-32-16h-12.53a40.8 40.8 0 0 1-18.15-4.29 56.9 56.9 0 0 0-50.64 0 40.8 40.8 0 0 1-18.15 4.29H288a32 32 0 0 1 0-64h12.53a40.8 40.8 0 0 1 18.15 4.29 56.93 56.93 0 0 0 50.64 0 40.8 40.8 0 0 1 18.15-4.29H400a32 32 0 0 1 0 64z"/><path d="M392 368h16v16h-16zM312 368h16v16h-16zM280 376h16v16h-16zM360 376h16v16h-16z"/></g></g></symbol><symbol viewBox="0 0 512.043 512.043" id="svg--click" xmlns="http://www.w3.org/2000/svg"><path d="M444.902 365.824L231.569 152.491c-3.072-3.029-7.637-3.968-11.627-2.304a10.667 10.667 0 0 0-6.592 9.856v295.381c0 4.075 2.325 7.787 5.995 9.579 3.669 1.792 8.043 1.344 11.221-1.173l54.165-42.347 47.275 85.077a10.689 10.689 0 0 0 14.123 4.352l64-32a10.641 10.641 0 0 0 5.419-6.379 10.821 10.821 0 0 0-.853-8.341l-44.544-80.149h67.2c4.309 0 8.192-2.603 9.856-6.592a10.645 10.645 0 0 0-2.305-11.627zm-92.864-3.093a10.674 10.674 0 0 0-9.195 5.269 10.643 10.643 0 0 0-.149 10.581l47.936 86.251-44.907 22.464-48.363-87.083a10.7 10.7 0 0 0-7.211-5.291 10.711 10.711 0 0 0-8.704 2.048l-46.763 36.565V185.792l176.939 176.939h-59.583zM224.017 0c-5.888 0-10.667 4.779-10.667 10.667v64c0 5.888 4.779 10.667 10.667 10.667s10.667-4.779 10.667-10.667v-64C234.683 4.779 229.905 0 224.017 0zM138.683 149.333h-64c-5.888 0-10.667 4.779-10.667 10.667s4.779 10.667 10.667 10.667h64c5.888 0 10.667-4.779 10.667-10.667s-4.779-10.667-10.667-10.667zM373.35 149.333h-64c-5.888 0-10.667 4.779-10.667 10.667s4.779 10.667 10.667 10.667h64c5.888 0 10.667-4.779 10.667-10.667s-4.779-10.667-10.667-10.667zM171.217 92.117l-45.269-45.248c-4.16-4.16-10.923-4.16-15.083 0s-4.16 10.923 0 15.083l45.269 45.248a10.716 10.716 0 0 0 7.552 3.115c2.731 0 5.461-1.024 7.531-3.115 4.16-4.16 4.16-10.923 0-15.083zM171.217 212.821c-4.16-4.16-10.923-4.16-15.083 0l-45.269 45.248c-4.16 4.16-4.16 10.923 0 15.083 2.091 2.069 4.821 3.115 7.552 3.115s5.461-1.045 7.531-3.115l45.269-45.248c4.16-4.16 4.16-10.923 0-15.083zM337.169 46.869c-4.16-4.181-10.923-4.181-15.104 0l-45.269 45.248c-4.16 4.16-4.16 10.923 0 15.083a10.716 10.716 0 0 0 7.552 3.115c2.731 0 5.461-1.024 7.552-3.115l45.269-45.248c4.16-4.16 4.16-10.901 0-15.083z"/></symbol><symbol viewBox="0 0 480 479.92" id="svg--contract" xmlns="http://www.w3.org/2000/svg"><g data-name="Слой 2"><g data-name="Слой 1"><path d="M479.12 113.74a24 24 0 0 0-44-5.76l-4 7a8 8 0 0 0-10.88 2.88l-20.32 34.63-7-4a8 8 0 1 0-8 13.84l7 4-68 117.82L307.15 329l-8 15a24 24 0 0 0 1.28 25.92l-18 22.07-5-12.63a16 16 0 0 0-28.56-2.24l-2.87 4.81-2.72-32a16 16 0 0 0-31.12-3.76l-19.68 59a8 8 0 0 0 5 10.08 6.93 6.93 0 0 0 2.48.64 8 8 0 0 0 7.6-5.44l19.59-59 2.8 32.47a16 16 0 0 0 29.67 6.88l3-4.88 5 12.56a16 16 0 0 0 27.35 4.08L313.55 379a24.64 24.64 0 0 0 6.32.8 24 24 0 0 0 20.88-11.84l8-13.36 30.48-37 68.71-119.26 7 4a8 8 0 0 1 3 11l-32 55.43a7.94 7.94 0 1 0 13.43 8.23l32-55.43a24 24 0 0 0-8.8-32.8l-7-4 20-34.63a8 8 0 0 0-2.88-10.88l4-7a24 24 0 0 0 2.43-18.52zM449 116a8 8 0 0 1 4.88-3.76 8.4 8.4 0 0 1 6.08.8 8 8 0 0 1 3.76 4.88 8.4 8.4 0 0 1-.8 6.08l-4 7-13.92-8zM340 339.33l-4-2.32-11.9-6.91 11.36-30.39 25.19 14.56zm-24 23.11a8 8 0 0 1-2.4-10.48l4-7 13.92 8-4 6.88A8 8 0 0 1 316 362.4zm53.83-61.27l-27.67-16 64-110.86 27.67 16zm72-124.7l-27.67-16 16-27.67 27.67 16zM126.22 358.42l-28.31 28.24-17-17a8 8 0 1 0-11.28 11.36l17 17a16.12 16.12 0 0 0 22.64 0l28.23-28.32a8 8 0 0 0-11.28-11.28z"/><path d="M32 379.94a68 68 0 1 0 136 0 8 8 0 1 0-16 0 52 52 0 1 1-20.8-41.59 8 8 0 0 0 9.6-12.8A68 68 0 0 0 32 379.94zM288 64a8 8 0 1 0 0-16H80a8 8 0 0 0-8 8v32a8 8 0 0 0 8 8h208a8 8 0 1 0 0-16H88V64zM104 112a8 8 0 1 0 0 16h160a8 8 0 1 0 0-16zM311.95 168H136a8 8 0 1 0 0 16h176a8 8 0 0 0 0-16zM232 224a8 8 0 0 0-8-8H64a8 8 0 1 0 0 16h160a8 8 0 0 0 8-8zM311.95 216H256a8 8 0 0 0 0 16h56a8 8 0 0 0 0-16zM144 272a8 8 0 0 0 0-16H64a8 8 0 0 0 0 16zM176 272h56a8 8 0 0 0 0-16h-56a8 8 0 1 0 0 16z"/><path d="M359.94 367.94a8 8 0 0 0-8 8v80a8 8 0 0 1-8 8H24a8 8 0 0 1-8-8V24a8 8 0 0 1 8-8h319.94a8 8 0 0 1 8 8v150.21a8 8 0 1 0 16 0V24a24 24 0 0 0-24-24H24A24 24 0 0 0 0 24v431.92a24 24 0 0 0 24 24h319.94a24 24 0 0 0 24-24v-80a8 8 0 0 0-8-7.98z"/></g></g></symbol><symbol viewBox="-4 0 511 512" id="svg--discount" xmlns="http://www.w3.org/2000/svg"><path d="M252.691 0c12.024 0 20.32 9.48 28.54 18.871 4.867 5.563 9.69 11.074 12.644 11.61 3.023.55 9.516-3.055 15.969-6.641 10.676-5.934 21.293-11.828 32.164-7.781 10.992 4.093 15.11 15.617 19.21 27.101 2.43 6.797 4.848 13.57 7.16 14.926 2.317 1.355 9.438.11 16.548-1.133 11.937-2.09 23.86-4.176 32.71 3.29 8.805 7.429 8.75 19.558 8.696 31.687-.031 7.16-.066 14.32 1.664 16.37 1.73 2.055 8.785 3.243 15.844 4.43 11.98 2.02 23.98 4.04 29.851 14.06 5.856 9.995 1.817 21.397-2.238 32.839-2.433 6.863-4.875 13.75-3.89 16.394.984 2.637 7.23 6.27 13.507 9.922 10.64 6.188 21.344 12.41 23.465 24.094 2.086 11.484-5.504 21.035-13.16 30.676-4.695 5.914-9.434 11.879-9.434 15.285 0 3.41 4.739 9.375 9.434 15.29 7.656 9.636 15.246 19.187 13.16 30.67-2.12 11.685-12.824 17.911-23.465 24.099-6.277 3.648-12.523 7.28-13.507 9.921-.985 2.645 1.457 9.532 3.89 16.395 4.055 11.441 8.094 22.844 2.238 32.836-5.87 10.023-17.87 12.043-29.851 14.059-7.059 1.19-14.113 2.378-15.844 4.43-1.73 2.054-1.695 9.214-1.664 16.374.055 12.13.11 24.258-8.695 31.688-8.852 7.465-20.774 5.379-32.711 3.289-7.11-1.242-14.23-2.489-16.547-1.133-2.313 1.355-4.73 8.129-7.16 14.926-4.102 11.484-8.219 23.008-19.211 27.101-10.871 4.047-21.488-1.851-32.164-7.78-6.453-3.587-12.942-7.192-15.969-6.642-2.953.536-7.777 6.047-12.645 11.606-8.218 9.39-16.515 18.871-28.539 18.871-12.02 0-20.316-9.48-28.539-18.871-4.863-5.563-9.687-11.074-12.644-11.61-3.024-.55-9.512 3.055-15.969 6.641-10.676 5.934-21.289 11.828-32.16 7.781-10.996-4.093-15.11-15.617-19.215-27.101-2.426-6.793-4.848-13.57-7.16-14.926-2.313-1.355-9.434-.11-16.547 1.137-11.937 2.086-23.86 4.172-32.71-3.293-8.806-7.43-8.75-19.559-8.696-31.688.035-7.16.066-14.32-1.664-16.37-1.73-2.055-8.782-3.243-15.844-4.43-11.98-2.016-23.98-4.04-29.852-14.06-5.851-9.995-1.812-21.397 2.243-32.839 2.433-6.863 4.87-13.75 3.886-16.394-.98-2.637-7.226-6.27-13.507-9.922-10.637-6.188-21.344-12.41-23.461-24.094-2.086-11.484 5.5-21.04 13.156-30.676 4.699-5.914 9.437-11.879 9.437-15.289 0-3.406-4.738-9.371-9.437-15.285-7.656-9.64-15.242-19.188-13.156-30.676 2.117-11.683 12.824-17.906 23.46-24.094 6.282-3.652 12.528-7.285 13.508-9.921.985-2.645-1.453-9.532-3.886-16.395-4.055-11.441-8.098-22.844-2.243-32.836 5.872-10.023 17.872-12.043 29.852-14.059 7.062-1.19 14.113-2.378 15.844-4.43 1.73-2.054 1.699-9.214 1.664-16.374-.055-12.13-.11-24.262 8.695-31.684 8.852-7.465 20.774-5.383 32.711-3.293 7.113 1.242 14.234 2.489 16.547 1.133 2.312-1.352 4.734-8.129 7.16-14.926 4.102-11.48 8.223-23.008 19.215-27.101 10.871-4.047 21.484 1.851 32.16 7.78 6.457 3.587 12.945 7.192 15.969 6.642 2.957-.536 7.781-6.047 12.644-11.606C232.375 9.481 240.672 0 252.692 0zm123.922 129.176c-5.523 0-10 4.476-10 10 0 2.46.89 4.715 2.367 6.457v.004l-.003-.004.03.035c.204.238.419.465.641.68 26.895 28.672 43.364 67.238 43.364 109.652 0 44.273-17.942 84.352-46.953 113.363-29.012 29.016-69.094 46.957-113.368 46.957-18.953 0-37.136-3.289-54.011-9.328-.301-.125-.614-.234-.93-.332l-.023-.012v.004a10.033 10.033 0 0 0-2.903-.43c-5.52 0-10 4.477-10 10 0 4.532 3.016 8.356 7.145 9.587 18.972 6.785 39.418 10.484 60.722 10.484 49.786 0 94.86-20.184 127.485-52.809 32.629-32.629 52.808-77.699 52.808-127.484 0-47.64-18.48-90.96-48.656-123.191a9.987 9.987 0 0 0-7.715-3.633zm-30.18-25.383c-5.519 0-10 4.477-10 10 0 5.52 4.481 10 10 10 5.524 0 10-4.48 10-10 0-5.523-4.476-10-10-10zm-32.456-17.398c-19.133-6.915-39.766-10.688-61.286-10.688-49.785 0-94.855 20.18-127.484 52.809C92.582 161.14 72.398 206.215 72.398 256c0 47.54 18.403 90.777 48.465 122.988a9.986 9.986 0 0 0 7.68 3.594c5.523 0 10-4.477 10-10 0-2.453-.883-4.7-2.352-6.437v-.008l-.039-.043a8.938 8.938 0 0 0-.617-.656C108.762 336.784 92.371 298.308 92.371 256c0-44.273 17.945-84.355 46.957-113.363C168.34 113.62 208.422 95.68 252.691 95.68c19.133 0 37.48 3.351 54.493 9.5h.004a9.966 9.966 0 0 0 3.914.793c5.523 0 10-4.477 10-10 0-4.524-3.004-8.344-7.125-9.578zM158.949 388.207c-5.52 0-10 4.477-10 10s4.48 10 10 10c5.524 0 10-4.477 10-10s-4.476-10-10-10zm35.524-230.488c-11.465 0-21.844 4.644-29.36 12.16-7.511 7.516-12.16 17.894-12.16 29.36 0 11.46 4.649 21.843 12.16 29.355 7.516 7.515 17.895 12.164 29.36 12.164s21.843-4.649 29.359-12.164c7.512-7.512 12.16-17.895 12.16-29.356 0-11.465-4.648-21.843-12.16-29.36-7.516-7.515-17.894-12.16-29.36-12.16zM209.71 184a21.483 21.483 0 0 0-15.238-6.312c-5.95 0-11.34 2.414-15.239 6.312s-6.308 9.285-6.308 15.238c0 5.95 2.41 11.34 6.308 15.239a21.502 21.502 0 0 0 15.239 6.308 21.48 21.48 0 0 0 15.238-6.308 21.486 21.486 0 0 0 6.309-15.239A21.48 21.48 0 0 0 209.71 184zm92.894-21.758l-116.44 176.594c-3.017 4.59-1.743 10.754 2.847 13.77 4.59 3.015 10.754 1.742 13.77-2.848l116.44-176.594c3.016-4.59 1.743-10.754-2.847-13.77s-10.754-1.742-13.77 2.848zm8.31 109c-11.466 0-21.849 4.649-29.36 12.16-7.512 7.516-12.16 17.899-12.16 29.36 0 11.465 4.648 21.843 12.16 29.36 7.515 7.51 17.894 12.16 29.36 12.16 11.464 0 21.843-4.65 29.355-12.16 7.515-7.517 12.164-17.895 12.164-29.36s-4.649-21.844-12.164-29.36c-7.512-7.511-17.891-12.16-29.356-12.16zm15.233 26.281a21.486 21.486 0 0 0-15.234-6.308 21.48 21.48 0 0 0-15.238 6.308 21.49 21.49 0 0 0-6.313 15.239c0 5.953 2.414 11.34 6.313 15.238a21.48 21.48 0 0 0 15.238 6.309c5.95 0 11.34-2.41 15.234-6.309a21.466 21.466 0 0 0 6.313-15.238 21.48 21.48 0 0 0-6.313-15.239zM266.254 31.98c-5.23-5.976-10.508-12.007-13.559-12.007-3.054 0-8.332 6.03-13.562 12.007-7.16 8.18-14.262 16.293-24.113 18.083-10 1.816-19.602-3.52-29.153-8.829-6.656-3.699-13.277-7.375-15.543-6.53-2.234.831-4.8 8.01-7.355 15.163-3.637 10.176-7.258 20.32-15.899 25.38-8.699 5.097-19.379 3.23-30.043 1.362-7.363-1.285-14.722-2.574-16.402-1.152-1.742 1.469-1.71 8.934-1.676 16.395.051 10.84.098 21.68-6.347 29.324-6.426 7.62-17.098 9.418-27.782 11.215-7.394 1.246-14.808 2.492-15.96 4.464-1.15 1.958 1.359 9.04 3.878 16.141 3.625 10.23 7.262 20.492 3.73 29.969-3.484 9.355-12.8 14.773-22.167 20.223-6.68 3.882-13.403 7.792-13.867 10.363-.473 2.605 4.332 8.652 9.18 14.758 6.874 8.652 13.808 17.379 13.808 27.691 0 10.316-6.934 19.04-13.809 27.695-4.847 6.102-9.652 12.149-9.18 14.758.465 2.57 7.188 6.477 13.868 10.363 9.367 5.446 18.683 10.864 22.168 20.22 3.531 9.48-.106 19.741-3.73 29.972-2.52 7.101-5.028 14.18-3.88 16.14 1.153 1.97 8.563 3.22 15.961 4.461 10.688 1.801 21.356 3.594 27.782 11.22 6.445 7.64 6.398 18.48 6.347 29.323-.035 7.461-.066 14.922 1.676 16.395 1.684 1.418 9.04.133 16.402-1.156 10.664-1.864 21.344-3.735 30.043 1.363 8.64 5.059 12.266 15.203 15.899 25.379 2.554 7.152 5.12 14.336 7.355 15.164 2.266.844 8.887-2.832 15.543-6.531 9.551-5.305 19.153-10.641 29.153-8.825 9.855 1.786 16.953 9.899 24.113 18.082 5.23 5.977 10.508 12.008 13.562 12.008 3.051 0 8.328-6.031 13.559-12.008 7.16-8.183 14.262-16.296 24.11-18.082 10-1.816 19.605 3.52 29.156 8.825 6.656 3.699 13.277 7.375 15.543 6.53 2.234-.827 4.8-8.01 7.355-15.163 3.637-10.176 7.258-20.317 15.895-25.38 8.703-5.097 19.378-3.23 30.042-1.362 7.368 1.289 14.723 2.578 16.41 1.156 1.739-1.473 1.708-8.934 1.673-16.395-.051-10.84-.098-21.683 6.347-29.324 6.426-7.625 17.094-9.418 27.777-11.219 7.399-1.242 14.813-2.492 15.965-4.46 1.149-1.961-1.359-9.04-3.879-16.141-3.625-10.23-7.261-20.492-3.73-29.973 3.48-9.355 12.8-14.773 22.164-20.219 6.684-3.886 13.402-7.793 13.871-10.363.473-2.61-4.332-8.656-9.18-14.758-6.875-8.656-13.808-17.379-13.808-27.695 0-10.312 6.933-19.04 13.808-27.691 4.848-6.106 9.653-12.153 9.18-14.758-.469-2.57-7.187-6.48-13.871-10.363-9.363-5.45-18.684-10.868-22.164-20.223-3.531-9.477.105-19.738 3.73-29.969 2.52-7.101 5.028-14.183 3.88-16.14-1.153-1.973-8.567-3.22-15.966-4.465-10.683-1.797-21.351-3.594-27.777-11.215-6.445-7.645-6.398-18.485-6.348-29.324.036-7.461.067-14.926-1.671-16.395-1.688-1.422-9.043-.133-16.41 1.152-10.665 1.868-21.34 3.735-30.04-1.363-8.64-5.058-12.265-15.203-15.898-25.379-2.555-7.152-5.121-14.332-7.356-15.164-2.265-.844-8.886 2.832-15.542 6.531-9.555 5.309-19.157 10.645-29.157 8.829-9.851-1.79-16.949-9.903-24.11-18.083zm0 0" fill-rule="evenodd"/></symbol><symbol viewBox="0 0 306 188.7" id="svg--expand" xmlns="http://www.w3.org/2000/svg"><g data-name="Слой 2"><path d="M270.3 0L153 117.3 35.7 0 0 35.7l153 153 153-153L270.3 0z" data-name="Capa 1"/></g></symbol><symbol viewBox="0 0 512 512" id="svg--information" xmlns="http://www.w3.org/2000/svg"><g data-name="Слой 2"><g data-name="Capa 1"><circle cx="256" cy="378.5" r="25"/><path d="M256 0C114.52 0 0 114.5 0 256s114.5 256 256 256 256-114.5 256-256S397.5 0 256 0zm0 472a216 216 0 1 1 216-216 215.88 215.88 0 0 1-216 216z"/><path d="M256 128.5a80.09 80.09 0 0 0-80 80 20 20 0 0 0 40 0 40 40 0 1 1 40 40 20 20 0 0 0-20 20v50a20 20 0 0 0 40 0V286a80 80 0 0 0-20-157.5z"/></g></g></symbol><symbol viewBox="0 0 476.213 476.213" id="svg--left-arrow" xmlns="http://www.w3.org/2000/svg"><path d="M476.213 223.107H57.427l94.393-94.394-21.213-21.213L0 238.106l130.607 130.608L151.82 347.5l-94.393-94.393h418.786z"/></symbol><symbol viewBox="0 0 512 512" id="svg--menu" xmlns="http://www.w3.org/2000/svg"><path d="M491.318 235.318H20.682C9.26 235.318 0 244.577 0 256s9.26 20.682 20.682 20.682h470.636c11.423 0 20.682-9.259 20.682-20.682 0-11.422-9.259-20.682-20.682-20.682zM491.318 78.439H20.682C9.26 78.439 0 87.699 0 99.121c0 11.422 9.26 20.682 20.682 20.682h470.636c11.423 0 20.682-9.26 20.682-20.682 0-11.422-9.259-20.682-20.682-20.682zM491.318 392.197H20.682C9.26 392.197 0 401.456 0 412.879s9.26 20.682 20.682 20.682h470.636c11.423 0 20.682-9.259 20.682-20.682s-9.259-20.682-20.682-20.682z"/></symbol><symbol viewBox="0 0 512 512" id="svg--money" xmlns="http://www.w3.org/2000/svg"><path d="M495.432 76.96H16.568C7.432 76.96 0 84.392 0 93.528v324.944c0 9.136 7.432 16.568 16.568 16.568h478.864c9.136 0 16.568-7.432 16.568-16.568V93.528c0-9.136-7.432-16.568-16.568-16.568zm.535 273.637h-26.189a8.017 8.017 0 0 0 0 16.034h26.189v18.171H367.166a8.017 8.017 0 0 0 0 16.034h128.801v17.637a.534.534 0 0 1-.534.534H16.568a.534.534 0 0 1-.534-.534v-17.637H332.96a8.017 8.017 0 0 0 0-16.034H16.033V366.63h419.543a8.017 8.017 0 0 0 0-16.034H16.033v-18.198c.179.005.354.027.534.027h478.864c.181 0 .356-.021.534-.027v18.199zm0-34.739a.534.534 0 0 1-.534.534H16.568a.534.534 0 0 1-.534-.534V93.528c0-.295.239-.534.534-.534h478.864c.295 0 .534.239.534.534v222.33z"/><path d="M469.779 145.369c-14.44 0-26.188-11.748-26.188-26.188a8.017 8.017 0 0 0-8.017-8.017h-94.066a8.017 8.017 0 0 0 0 16.034h86.813c3.254 16.866 16.575 30.187 33.441 33.441v88.107c-16.866 3.254-30.188 16.575-33.441 33.441h-86.813a8.017 8.017 0 0 0 0 16.034h94.066a8.017 8.017 0 0 0 8.017-8.017c0-14.44 11.748-26.188 26.188-26.188a8.017 8.017 0 0 0 8.017-8.017V153.386a8.018 8.018 0 0 0-8.017-8.017zM170.487 282.188H83.679c-3.254-16.864-16.577-30.186-33.441-33.441V160.64c16.864-3.256 30.188-16.576 33.441-33.441h86.808a8.017 8.017 0 0 0 0-16.034H76.426a8.017 8.017 0 0 0-8.017 8.017c0 14.44-11.748 26.188-26.188 26.188a8.017 8.017 0 0 0-8.017 8.017V256a8.017 8.017 0 0 0 8.017 8.017c14.44 0 26.188 11.748 26.188 26.188a8.017 8.017 0 0 0 8.017 8.017h94.062a8.017 8.017 0 1 0-.001-16.034z"/><path d="M256 111.165c-51.572 0-93.528 41.957-93.528 93.528s41.956 93.528 93.528 93.528 93.528-41.956 93.528-93.528-41.956-93.528-93.528-93.528zm0 171.023c-42.731 0-77.495-34.764-77.495-77.495s34.764-77.495 77.495-77.495 77.495 34.764 77.495 77.495-34.764 77.495-77.495 77.495z"/><path d="M264.017 198.533v-27.974c11.431 1.758 18.171 6.984 18.171 10.084a8.017 8.017 0 0 0 16.034 0c0-13.489-14.236-24.034-34.205-26.274v-.982a8.017 8.017 0 0 0-16.034 0v.982c-19.969 2.24-34.205 12.786-34.205 26.274 0 18.806 18.787 25.929 34.205 30.21v27.974c-11.431-1.758-18.171-6.984-18.171-10.084a8.017 8.017 0 0 0-16.034 0c0 13.489 14.236 24.034 34.205 26.274V256a8.017 8.017 0 0 0 16.034 0v-.982c19.969-2.24 34.205-12.786 34.205-26.274-.001-18.807-18.788-25.93-34.205-30.211zm-16.034-4.444c-13.372-4.204-18.171-7.957-18.171-13.446 0-3.1 6.74-8.326 18.171-10.084v23.53zm16.034 44.738v-23.53c13.372 4.204 18.171 7.957 18.171 13.446 0 3.1-6.741 8.326-18.171 10.084z"/></symbol><symbol viewBox="0 0 473.806 473.806" id="svg--phone-call" xmlns="http://www.w3.org/2000/svg"><path d="M374.456 293.506c-9.7-10.1-21.4-15.5-33.8-15.5-12.3 0-24.1 5.3-34.2 15.4l-31.6 31.5c-2.6-1.4-5.2-2.7-7.7-4-3.6-1.8-7-3.5-9.9-5.3-29.6-18.8-56.5-43.3-82.3-75-12.5-15.8-20.9-29.1-27-42.6 8.2-7.5 15.8-15.3 23.2-22.8 2.8-2.8 5.6-5.7 8.4-8.5 21-21 21-48.2 0-69.2l-27.3-27.3c-3.1-3.1-6.3-6.3-9.3-9.5-6-6.2-12.3-12.6-18.8-18.6-9.7-9.6-21.3-14.7-33.5-14.7s-24 5.1-34 14.7l-.2.2-34 34.3c-12.8 12.8-20.1 28.4-21.7 46.5-2.4 29.2 6.2 56.4 12.8 74.2 16.2 43.7 40.4 84.2 76.5 127.6 43.8 52.3 96.5 93.6 156.7 122.7 23 10.9 53.7 23.8 88 26 2.1.1 4.3.2 6.3.2 23.1 0 42.5-8.3 57.7-24.8.1-.2.3-.3.4-.5 5.2-6.3 11.2-12 17.5-18.1 4.3-4.1 8.7-8.4 13-12.9 9.9-10.3 15.1-22.3 15.1-34.6 0-12.4-5.3-24.3-15.4-34.3l-54.9-55.1zm35.8 105.3c-.1 0-.1.1 0 0-3.9 4.2-7.9 8-12.2 12.2-6.5 6.2-13.1 12.7-19.3 20-10.1 10.8-22 15.9-37.6 15.9-1.5 0-3.1 0-4.6-.1-29.7-1.9-57.3-13.5-78-23.4-56.6-27.4-106.3-66.3-147.6-115.6-34.1-41.1-56.9-79.1-72-119.9-9.3-24.9-12.7-44.3-11.2-62.6 1-11.7 5.5-21.4 13.8-29.7l34.1-34.1c4.9-4.6 10.1-7.1 15.2-7.1 6.3 0 11.4 3.8 14.6 7l.3.3c6.1 5.7 11.9 11.6 18 17.9 3.1 3.2 6.3 6.4 9.5 9.7l27.3 27.3c10.6 10.6 10.6 20.4 0 31-2.9 2.9-5.7 5.8-8.6 8.6-8.4 8.6-16.4 16.6-25.1 24.4-.2.2-.4.3-.5.5-8.6 8.6-7 17-5.2 22.7l.3.9c7.1 17.2 17.1 33.4 32.3 52.7l.1.1c27.6 34 56.7 60.5 88.8 80.8 4.1 2.6 8.3 4.7 12.3 6.7 3.6 1.8 7 3.5 9.9 5.3.4.2.8.5 1.2.7 3.4 1.7 6.6 2.5 9.9 2.5 8.3 0 13.5-5.2 15.2-6.9l34.2-34.2c3.4-3.4 8.8-7.5 15.1-7.5 6.2 0 11.3 3.9 14.4 7.3l.2.2 55.1 55.1c10.3 10.2 10.3 20.7.1 31.3zM256.056 112.706c26.2 4.4 50 16.8 69 35.8s31.3 42.8 35.8 69c1.1 6.6 6.8 11.2 13.3 11.2.8 0 1.5-.1 2.3-.2 7.4-1.2 12.3-8.2 11.1-15.6-5.4-31.7-20.4-60.6-43.3-83.5s-51.8-37.9-83.5-43.3c-7.4-1.2-14.3 3.7-15.6 11s3.5 14.4 10.9 15.6zM473.256 209.006c-8.9-52.2-33.5-99.7-71.3-137.5s-85.3-62.4-137.5-71.3c-7.3-1.3-14.2 3.7-15.5 11-1.2 7.4 3.7 14.3 11.1 15.6 46.6 7.9 89.1 30 122.9 63.7 33.8 33.8 55.8 76.3 63.7 122.9 1.1 6.6 6.8 11.2 13.3 11.2.8 0 1.5-.1 2.3-.2 7.3-1.1 12.3-8.1 11-15.4z"/></symbol><symbol viewBox="0 0 512 512" id="svg--recommended" xmlns="http://www.w3.org/2000/svg"><path d="M392.327 226.071c0-16.209-13.186-29.394-29.395-29.394H308.91c13.125-14.753 21.703-31.552 23.36-46.623 1.012-9.205-1.832-18.342-7.805-25.069-5.459-6.149-12.924-9.576-21.02-9.651l-.281-.001c-7.831 0-15.181 3.016-20.728 8.512-5.548 5.497-8.618 12.82-8.654 20.635-.285 1.711-3.295 7.61-10.66 14.614-6.03 5.736-16.446 13.621-31.825 18.614-6.03 1.958-11.541 5.563-16.379 10.715a105.986 105.986 0 0 1-11.048 10.18 16.454 16.454 0 0 0-7.728-1.924h-51.307c-9.136 0-16.568 7.432-16.568 16.568v136.818c0 9.136 7.432 16.568 16.568 16.568h51.307c6.228 0 11.659-3.458 14.489-8.551h130.923c13.851 0 25.119-11.268 25.119-25.119 0-4.657-1.273-9.021-3.491-12.765 7.217-4.418 12.042-12.376 12.042-21.44 0-4.657-1.273-9.021-3.491-12.765 7.217-4.418 12.042-12.376 12.042-21.44a24.982 24.982 0 0 0-4.371-14.146c7.793-5.293 12.923-14.227 12.923-24.336zm-29.395 13.361h-4.276a8.017 8.017 0 0 0 0 16.034c5.01 0 9.086 4.076 9.086 9.086s-4.076 9.086-9.086 9.086h-8.551a8.017 8.017 0 0 0 0 16.034c5.01 0 9.086 4.076 9.086 9.086 0 5.01-4.076 9.086-9.086 9.086h-8.551a8.017 8.017 0 0 0 0 16.034c5.01 0 9.086 4.076 9.086 9.086 0 5.01-4.076 9.086-9.086 9.086H212.71v-77.495a8.017 8.017 0 0 0-16.034 0v85.511a.534.534 0 0 1-.534.534h-51.307a.534.534 0 0 1-.534-.534V213.244c0-.295.239-.534.534-.534h51.307c.295 0 .534.239.534.534v17.103a8.017 8.017 0 0 0 16.034 0v-17.103c0-.389-.032-.77-.059-1.152a121.724 121.724 0 0 0 13.954-12.695c2.967-3.161 6.211-5.327 9.642-6.44 18.87-6.126 31.569-15.99 38.898-23.186 9.186-9.019 14.669-18.421 14.669-25.152 0-3.556 1.387-6.889 3.906-9.385 2.55-2.527 5.927-3.862 9.576-3.867 4.494.042 7.47 2.341 9.177 4.263 2.926 3.295 4.366 8.033 3.857 12.672-1.751 15.929-14.49 35.619-32.454 50.161a8.018 8.018 0 0 0 5.044 14.247h74.01c7.368 0 13.361 5.993 13.361 13.361s-5.992 13.361-13.359 13.361z"/><path d="M170.489 316.306c-4.427 0-8.059 3.632-8.059 8.059s3.632 8.059 8.059 8.059 8.059-3.632 8.059-8.059c.001-4.426-3.631-8.059-8.059-8.059z"/><path d="M497.71 256l13.772-36.443a8.014 8.014 0 0 0-1.243-7.847l-24.359-30.404 1.836-38.915a8.017 8.017 0 0 0-3.606-7.078l-32.562-21.389-10.278-37.578a8.016 8.016 0 0 0-5.617-5.617l-37.578-10.278-21.389-32.561a8.027 8.027 0 0 0-7.078-3.606l-38.915 1.836-30.404-24.359a8.018 8.018 0 0 0-7.847-1.243L255.999 14.29 219.558.519a8.012 8.012 0 0 0-7.847 1.243l-30.404 24.359-38.915-1.836a8.001 8.001 0 0 0-7.078 3.606l-21.388 32.562-37.578 10.278a8.016 8.016 0 0 0-5.617 5.617l-10.278 37.578-32.562 21.388a8.016 8.016 0 0 0-3.606 7.078l1.836 38.915-24.359 30.404a8.018 8.018 0 0 0-1.243 7.847L14.29 256 .518 292.442a8.014 8.014 0 0 0 1.243 7.847l24.359 30.404-1.836 38.915a8.017 8.017 0 0 0 3.606 7.078l32.562 21.389 10.278 37.578a8.016 8.016 0 0 0 5.617 5.617l37.578 10.278 21.388 32.562a8.041 8.041 0 0 0 7.078 3.606l38.915-1.836 30.404 24.359a8.013 8.013 0 0 0 7.847 1.243L256 497.71l36.443 13.772a8.02 8.02 0 0 0 7.846-1.243l30.404-24.359 38.915 1.836a8.025 8.025 0 0 0 7.078-3.606l21.389-32.562 37.578-10.278a8.016 8.016 0 0 0 5.617-5.617l10.278-37.578 32.562-21.389a8.016 8.016 0 0 0 3.606-7.078l-1.836-38.915 24.359-30.404a8.018 8.018 0 0 0 1.243-7.847L497.71 256zm-16.069 2.834l13.226 34.999-23.394 29.199a8.014 8.014 0 0 0-1.752 5.39l1.764 37.373-31.271 20.541a8.017 8.017 0 0 0-3.332 4.586l-9.871 36.089-36.089 9.871a8.022 8.022 0 0 0-4.586 3.332l-20.541 31.271-37.373-1.764a8.023 8.023 0 0 0-5.39 1.752l-29.199 23.394-34.999-13.226a8.018 8.018 0 0 0-5.668 0l-34.999 13.226-29.199-23.394a8.03 8.03 0 0 0-5.39-1.752l-37.373 1.764-20.541-31.271a8.017 8.017 0 0 0-4.586-3.332l-36.089-9.871-9.871-36.089a8.022 8.022 0 0 0-3.332-4.586l-31.271-20.541 1.764-37.373a8.012 8.012 0 0 0-1.752-5.39l-23.394-29.199 13.227-34.999a8.019 8.019 0 0 0 0-5.668l-13.227-34.999 23.394-29.199a8.014 8.014 0 0 0 1.752-5.39l-1.764-37.373 31.271-20.541a8.017 8.017 0 0 0 3.332-4.586l9.871-36.089 36.089-9.871a8.022 8.022 0 0 0 4.586-3.332l20.541-31.271 37.373 1.764a8.022 8.022 0 0 0 5.39-1.752l29.199-23.394 34.999 13.227c1.827.69 3.842.69 5.668 0l34.999-13.227 29.199 23.394a8.01 8.01 0 0 0 5.39 1.752l37.373-1.764 20.541 31.271a8.017 8.017 0 0 0 4.586 3.332l36.089 9.871 9.871 36.089a8.022 8.022 0 0 0 3.332 4.586l31.271 20.541-1.764 37.373a8.012 8.012 0 0 0 1.752 5.39l23.394 29.199-13.227 34.999a8.024 8.024 0 0 0 .001 5.668z"/><path d="M406.634 117.574a209.24 209.24 0 0 0-12.573-12.573 8.017 8.017 0 0 0-11.327.484 8.016 8.016 0 0 0 .484 11.327c2.003 1.84 3.997 3.75 5.925 5.678a194.67 194.67 0 0 1 5.679 5.926 7.996 7.996 0 0 0 5.908 2.595c1.937 0 3.88-.698 5.419-2.111a8.015 8.015 0 0 0 .485-11.326zM365.592 83.125c-38.66-24.63-85.206-35.576-131.059-30.829-46.525 4.82-90.395 25.722-123.531 58.857-36.467 36.467-57.699 84.911-59.785 136.408-2.073 51.194 14.883 100.898 47.746 139.954a7.998 7.998 0 0 0 6.139 2.855 8.017 8.017 0 0 0 6.13-13.177c-30.281-35.989-45.905-81.795-43.995-128.982 1.922-47.462 21.49-92.11 55.101-125.72 30.54-30.541 70.972-49.806 113.846-54.247 42.275-4.38 85.171 5.709 120.792 28.403a8.016 8.016 0 0 0 11.068-2.453 8.017 8.017 0 0 0-2.452-11.069zM428.511 146.043a8.017 8.017 0 1 0-13.522 8.614c22.694 35.622 32.781 78.52 28.403 120.792-4.441 42.874-23.706 83.305-54.246 113.847-33.611 33.61-78.259 53.179-125.72 55.101-47.179 1.918-92.994-13.713-128.982-43.993a8.016 8.016 0 0 0-11.295.973 8.016 8.016 0 0 0 .973 11.295c36.921 31.065 83.351 47.917 131.566 47.916 2.789 0 5.589-.057 8.389-.17 51.497-2.085 99.94-23.317 136.408-59.784 33.136-33.136 54.039-77.007 58.857-123.532 4.748-45.856-6.201-92.4-30.831-131.059z"/></symbol><symbol viewBox="0 0 496 496" id="svg--roller" xmlns="http://www.w3.org/2000/svg"><path d="M88 48c-13.68 0-24 17.192-24 40s10.32 40 24 40 24-17.192 24-40-10.32-40-24-40zm0 64c-1.992 0-8-8.512-8-24s6.008-24 8-24 8 8.512 8 24-6.008 24-8 24z"/><path d="M408 0H88C56.6 0 32 38.656 32 88s24.6 88 56 88h320c15.824 0 29.912-9.832 40-25.88V168c0 17.673-14.327 32-32 32H288c-23.397.043-43.361 16.934-47.28 40H232a8 8 0 0 0-8 8v24h-8a8 8 0 0 0-8 8v208a8 8 0 0 0 8 8h64a8 8 0 0 0 8-8V280a8 8 0 0 0-8-8h-8v-24a8 8 0 0 0-8-8h-6.864c3.637-14.086 16.317-23.945 30.864-24h128c26.499-.026 47.974-21.501 48-48V88c0-49.344-24.6-88-56-88zM240 256h16v16h-16v-16zm32 32v192h-48V288h48zM88 160c-21.68 0-40-32.976-40-72s18.32-72 40-72 40 32.976 40 72-18.32 72-40 72zm320 0H160.52A108.591 108.591 0 0 0 184 88h-16c0 39.024-18.32 72-40 72h-7.48A108.591 108.591 0 0 0 144 88a108.591 108.591 0 0 0-23.48-72H368c21.68 0 40 32.976 40 72h16a108.591 108.591 0 0 0-23.48-72H408c21.68 0 40 32.976 40 72s-18.32 72-40 72z"/><path d="M80 192h16v16H80zM80 224h16v16H80zM64 208h16v16H64zM96 208h16v16H96zM320 432h16v16h-16zM320 464h16v16h-16zM304 448h16v16h-16zM336 448h16v16h-16zM240 448h16v16h-16z"/></symbol><symbol viewBox="0 0 60 60" id="svg--stopwatch" xmlns="http://www.w3.org/2000/svg"><path d="M31.634 37.989a3.558 3.558 0 0 0 2.606-1.459l9.363-12.944a1 1 0 0 0-1.397-1.397L29.26 31.555c-.844.614-1.375 1.563-1.456 2.604s.296 2.06 1.033 2.797a3.554 3.554 0 0 0 2.797 1.033zm-1.836-3.674a1.56 1.56 0 0 1 .637-1.142l7.897-5.713-5.711 7.895a1.565 1.565 0 0 1-2.371.187 1.564 1.564 0 0 1-.452-1.227z"/><path d="M54.034 19.564c-.01-.021-.01-.043-.021-.064-.012-.02-.031-.031-.044-.05a27.185 27.185 0 0 0-3.565-4.809l2.148-2.147 1.414 1.414 4.242-4.243-4.242-4.242-4.243 4.242 1.415 1.415-2.148 2.147a27.154 27.154 0 0 0-4.809-3.566c-.019-.013-.03-.032-.05-.044-.021-.012-.043-.011-.064-.022a26.81 26.81 0 0 0-10.273-3.404V5h1.5c1.379 0 2.5-1.121 2.5-2.5S36.672 0 35.293 0h-9c-1.379 0-2.5 1.121-2.5 2.5s1.121 2.5 2.5 2.5h1.5v1.156c-1.08.115-2.158.291-3.224.535a1 1 0 1 0 .447 1.949 25.43 25.43 0 0 1 2.78-.477l1.073-.083c.328-.025.63-.043.924-.057V10a1 1 0 1 0 2 0V8.03a24.805 24.805 0 0 1 10.456 2.845l-.986 1.707a1 1 0 0 0 1.732 1l.983-1.703a25.194 25.194 0 0 1 7.772 7.772l-1.703.983a1 1 0 0 0 1.002 1.732l1.707-.986a24.82 24.82 0 0 1 2.849 10.619H53.63a1 1 0 1 0 0 2h1.975a24.82 24.82 0 0 1-2.849 10.619l-1.707-.986a1 1 0 0 0-1 1.732l1.703.983a25.194 25.194 0 0 1-7.772 7.772l-.983-1.703a.998.998 0 0 0-1.366-.366.999.999 0 0 0-.366 1.366l.986 1.707a24.805 24.805 0 0 1-10.456 2.845V56a1 1 0 1 0-2 0v1.976a25.235 25.235 0 0 1-4.776-.617.996.996 0 0 0-1.198.751 1 1 0 0 0 .751 1.198c1.996.46 4.035.692 6.058.692.049 0 .096-.003.145-.004.007 0 .012.004.018.004.008 0 .015-.005.023-.005a26.825 26.825 0 0 0 13.219-3.573c.031-.014.064-.021.094-.039.02-.012.031-.031.05-.044a27.197 27.197 0 0 0 9.773-9.761c.019-.027.043-.048.06-.078.012-.021.011-.043.021-.064C56.317 42.476 57.63 37.89 57.63 33s-1.313-9.476-3.596-13.436zm-.069-11.313l1.414 1.414-1.414 1.415-1.415-1.415 1.415-1.414zm-24.172-2.23V3h-3.5c-.275 0-.5-.225-.5-.5s.225-.5.5-.5h9c.275 0 .5.225.5.5s-.225.5-.5.5h-3.5v3.021c-.348-.014-.68-.021-1-.021l-.088.002L30.63 6c-.164 0-.328.011-.492.014-.116.003-.225.002-.345.007zM21.793 14h-5a1 1 0 1 0 0 2h5a1 1 0 1 0 0-2zM21.793 21h-10a1 1 0 1 0 0 2h10a1 1 0 1 0 0-2zM21.793 28h-15a1 1 0 1 0 0 2h15a1 1 0 1 0 0-2zM21.793 35h-19a1 1 0 1 0 0 2h19a1 1 0 1 0 0-2zM21.793 42h-13a1 1 0 1 0 0 2h13a1 1 0 1 0 0-2zM21.793 49h-7a1 1 0 1 0 0 2h7a1 1 0 1 0 0-2z"/></symbol><symbol viewBox="0 0 512.001 512" id="svg--tag" xmlns="http://www.w3.org/2000/svg"><path d="M177.8 206.922c3.91-3.91 3.91-10.242 0-14.14-3.898-3.91-10.23-3.91-14.14 0-3.91 3.898-3.91 10.23 0 14.14 3.91 3.898 10.242 3.898 14.14 0zm0 0M276.8 221.063c11.696-11.696 11.696-30.727 0-42.422-11.722-11.723-30.706-11.727-42.429 0-11.726 11.722-11.726 30.695 0 42.422 11.695 11.695 30.73 11.699 42.43 0zm-28.288-28.282a10.006 10.006 0 0 1 14.148 0c3.895 3.899 3.895 10.239 0 14.137-3.902 3.898-10.25 3.902-14.148 0a9.985 9.985 0 0 1 0-14.137zm0 0M234.371 291.766c-11.726 11.726-11.726 30.707 0 42.433 11.723 11.723 30.703 11.727 42.43 0 11.699-11.699 11.699-30.734 0-42.433-11.723-11.72-30.707-11.723-42.43 0zm28.29 28.293c-3.911 3.906-10.243 3.906-14.15 0-3.902-3.903-3.917-10.23 0-14.149 3.91-3.91 10.239-3.906 14.15 0 3.898 3.899 3.898 10.246 0 14.149zm0 0M175.066 272.52c1.082 5.421 6.356 8.925 11.766 7.843l141.418-28.289c5.414-1.082 8.926-6.351 7.844-11.765-1.082-5.418-6.352-8.926-11.766-7.844L182.91 260.754c-5.418 1.082-8.93 6.351-7.844 11.766zm0 0"/><path d="M304.008 56.574a9.996 9.996 0 0 0-7.07 2.926L191.948 164.488c-3.906 3.907-3.906 10.239 0 14.145s10.238 3.906 14.14 0l97.919-97.918L431.28 207.992l-224.5 224.5L79.504 305.22l70.02-70.02c3.906-3.902 3.906-10.234 0-14.14-3.907-3.903-10.239-3.903-14.145 0l-77.086 77.09c-3.906 3.902-3.906 10.234 0 14.14l141.418 141.418a9.996 9.996 0 0 0 14.14 0l238.645-238.644c3.906-3.907 3.906-10.239 0-14.145L311.078 59.5a9.996 9.996 0 0 0-7.07-2.926zm0 0"/><path d="M494.926 2.934l-42.922 42.918c-25.043-18.91-59.625-19.22-84.457-.782L332.39 8.895l-.102-.102c-11.664-11.664-30.633-11.79-42.437.016L8.793 291.079c-11.723 11.722-11.727 30.706 0 42.433l39.664 39.66c-8.86 25.355-2.469 54.101 16.902 73.465 19.368 19.375 48.114 25.761 73.47 16.91l39.663 39.66c11.723 11.723 30.715 11.719 42.414.016l282.301-281.09c11.727-11.727 11.727-30.7 0-42.422l-.102-.102-36.171-35.148c18.37-24.664 18.3-59.262-.786-84.465l42.918-42.918c3.907-3.906 3.907-10.238 0-14.144a9.996 9.996 0 0 0-14.14 0zM446.145 138a10.027 10.027 0 0 0-2.93 7.145 10.002 10.002 0 0 0 3.031 7.097l42.86 41.653c3.878 3.921 3.835 10.218-.028 14.078l-282.297 281.09c-3.902 3.902-10.25 3.902-14.148 0l-44.352-44.348a9.998 9.998 0 0 0-11.316-1.984c-19.23 9.023-42.324 4.91-57.461-10.239-15.149-15.137-19.262-38.226-10.238-57.457a10 10 0 0 0-1.98-11.32l-44.349-44.348c-3.902-3.902-3.902-10.246.012-14.164l281.063-282.27c3.89-3.886 10.18-3.91 14.093-.042l41.649 42.859c3.734 3.844 10.129 4.219 14.246.105 17.117-17.125 43.922-18.953 63.668-5.668L423 74.855c-11.152-5.312-24.926-3.363-34.145 5.856-11.695 11.7-11.695 30.734 0 42.43 11.723 11.722 30.707 11.726 42.434 0 9.43-9.43 11.082-23.262 5.867-34.157L451.82 74.32c13.184 19.516 11.664 46.344-5.675 63.68zm-29-43.148c3.902 3.902 3.917 10.23 0 14.148-3.907 3.906-10.239 3.906-14.145 0-3.902-3.902-3.902-10.25-.004-14.148 3.902-3.895 10.25-3.903 14.149 0zm0 0"/></symbol><symbol viewBox="0 0 512 512" id="svg--team" xmlns="http://www.w3.org/2000/svg"><path d="M451.72 237.26c-17.422-8.71-50.087-8.811-51.469-8.811a7.5 7.5 0 0 0 0 15c8.429.001 32.902 1.299 44.761 7.228a7.502 7.502 0 0 0 6.708-13.417z"/><path d="M489.112 344.041l-30.975-8.85a3.145 3.145 0 0 1-2.271-3.011v-10.339a56.368 56.368 0 0 0 7.171-5.881c10.89-10.568 16.887-24.743 16.887-39.915v-14.267l2.995-5.989a47.846 47.846 0 0 0 5.024-21.286v-38.65a7.5 7.5 0 0 0-7.5-7.5H408.27c-26.244 0-47.596 21.352-47.596 47.596v.447a39.78 39.78 0 0 0 4.178 17.699l3.841 7.682v12.25c0 19.414 9.567 36.833 24.058 47.315l.002 10.836c0 1.671 0 2.363-6.193 4.133l-15.114 4.318-43.721-15.898a7.491 7.491 0 0 0-2.044-5.742l-13.971-14.678v-24.64a90.427 90.427 0 0 0 4.344-3.789c17.625-16.52 27.733-39.844 27.733-63.991v-19.678c5.322-11.581 8.019-23.836 8.019-36.457v-80.19a7.5 7.5 0 0 0-7.5-7.5H232.037c-39.51 0-71.653 32.144-71.653 71.653v16.039c0 12.621 2.697 24.876 8.019 36.457v16.931c0 28.036 12.466 53.294 32.077 69.946v25.22l-13.971 14.678a7.491 7.491 0 0 0-2.044 5.742l-46.145 16.779a39.33 39.33 0 0 0-9.272 4.858l-7.246-3.623c21.57-9.389 28.403-22.594 28.731-23.25a7.498 7.498 0 0 0 0-6.708c-5.407-10.814-6.062-30.635-6.588-46.561-.175-5.302-.341-10.311-.658-14.771-2.557-35.974-29.905-63.103-63.615-63.103s-61.059 27.128-63.615 63.103c-.317 4.461-.483 9.47-.658 14.773-.526 15.925-1.182 35.744-6.588 46.558a7.498 7.498 0 0 0 0 6.708c.328.656 7.147 13.834 28.76 23.234l-20.127 10.063C6.684 358.176 0 368.991 0 381.02v55.409a7.5 7.5 0 0 0 15 0V381.02c0-6.312 3.507-11.987 9.152-14.81l25.063-12.531 8.718 8.285a31.466 31.466 0 0 0 21.739 8.688 31.475 31.475 0 0 0 21.739-8.688l8.717-8.284 8.172 4.086c-3.848 6.157-6.032 13.377-6.032 20.94v57.725a7.5 7.5 0 0 0 15 0v-57.725c0-10.296 6.501-19.578 16.178-23.097l48.652-17.691 20.253 30.381a15.462 15.462 0 0 0 11.383 6.835 15.458 15.458 0 0 0 12.504-4.47l12.356-12.356v78.124a7.5 7.5 0 0 0 15 0v-78.124l12.356 12.356a15.452 15.452 0 0 0 10.957 4.547c.513 0 1.029-.025 1.546-.076a15.462 15.462 0 0 0 11.384-6.835l20.254-30.38 48.651 17.691c9.676 3.519 16.178 12.801 16.178 23.097v57.725a7.5 7.5 0 0 0 15 0v-57.725c0-10.428-4.143-20.208-11.093-27.441l1.853-.529c1.869-.534 4.419-1.265 6.979-2.52l19.149 19.149v69.066a7.5 7.5 0 0 0 15 0v-69.066l19.016-19.016c1.011.514 2.073.948 3.191 1.267l30.976 8.85c7.07 2.02 12.009 8.567 12.009 15.921v62.044a7.5 7.5 0 0 0 15 0v-62.044c0-14.018-9.412-26.497-22.888-30.348zM48.115 330.794c-14.029-5.048-21.066-11.778-24.07-15.453 2.048-5.354 3.376-11.486 4.275-17.959 4.136 9.917 11.063 18.383 19.795 24.423v8.989zm42.965 20.298c-6.397 6.078-16.418 6.077-22.813-.001l-6.975-6.628a15.518 15.518 0 0 0 1.824-7.324v-7.994a55.427 55.427 0 0 0 16.558 2.517c5.757 0 11.316-.886 16.557-2.512l-.001 7.988c0 2.62.646 5.121 1.824 7.327l-6.974 6.627zm-11.404-34.43c-22.396 0-40.615-18.22-40.615-40.615a7.5 7.5 0 0 0-7.5-7.5c-.42 0-.83.043-1.231.11l.065-1.93c.167-5.157.328-10.028.625-14.206.958-13.476 6.343-25.894 15.163-34.968 8.899-9.156 20.793-14.198 33.491-14.198s24.591 5.042 33.491 14.198c8.82 9.074 14.205 21.492 15.163 34.968.296 4.177.458 9.047.628 14.203l.045 1.338c-8.16-12.572-20.762-21.837-37.045-27.069-15.043-4.833-27.981-4.534-28.527-4.52a7.5 7.5 0 0 0-5.191 2.291l-13.532 14.034a7.5 7.5 0 1 0 10.798 10.412l11.26-11.677c9.697.474 40.894 4.102 53.027 30.819-3.053 19.688-19.975 34.31-40.115 34.31zm31.553 14.157l.001-8.945a55.477 55.477 0 0 0 19.801-24.449c.899 6.458 2.226 12.576 4.27 17.918-2.987 3.64-10.057 10.43-24.072 15.476zm72.174-121.674v-18.608a7.501 7.501 0 0 0-.746-3.261c-4.826-9.994-7.273-20.598-7.273-31.518V139.72c0-31.239 25.415-56.653 56.653-56.653h104.769v72.692c0 10.92-2.447 21.524-7.273 31.518a7.501 7.501 0 0 0-.746 3.261v21.355c0 20.311-8.165 39.15-22.991 53.047a74.636 74.636 0 0 1-5.758 4.875c-.044.03-.086.063-.129.094-13.889 10.545-30.901 15.67-48.667 14.519-38.041-2.463-67.839-35.531-67.839-75.283zm42.229 150.911c-.052.052-.173.175-.418.149a.477.477 0 0 1-.381-.229l-23.325-34.988 7.506-7.887 35.385 24.187-18.767 18.768zm30.463-28.943l-40.615-27.762v-14c10.509 5.681 22.276 9.234 34.791 10.044 1.977.128 3.942.191 5.901.191 14.341 0 28.143-3.428 40.538-9.935v13.7l-40.615 27.762zm31.262 28.865a.477.477 0 0 1-.381.229c-.245.031-.365-.098-.418-.149l-18.767-18.767 35.385-24.188 7.507 7.887-23.326 34.988zm136.951-6.328l-17.02-17.019c.297-1.349.465-2.826.464-4.455l-.001-3.165a52.589 52.589 0 0 0 16.579 2.65 55.71 55.71 0 0 0 16.536-2.501v3.02c0 1.496.188 2.962.542 4.371l-17.1 17.099zm28.283-48.454c-7.949 7.714-18.45 11.788-29.537 11.446-21.704-.651-39.361-19.768-39.361-42.613v-14.021a7.493 7.493 0 0 0-.792-3.354l-4.633-9.266a24.706 24.706 0 0 1-2.594-10.991v-.447c0-17.974 14.623-32.596 32.596-32.596h64.673v31.15a32.77 32.77 0 0 1-3.441 14.578l-3.786 7.572a7.496 7.496 0 0 0-.792 3.354v16.038c0 11.08-4.38 21.432-12.333 29.15z"/><path d="M472.423 380.814a7.5 7.5 0 0 0-7.5 7.5v48.115a7.5 7.5 0 0 0 15 0v-48.115a7.5 7.5 0 0 0-7.5-7.5zM39.577 390.728a7.5 7.5 0 0 0-7.5 7.5v38.201a7.5 7.5 0 0 0 15 0v-38.201a7.5 7.5 0 0 0-7.5-7.5zM317.532 158.475c-28.366-28.366-87.715-22.943-111.917-19.295-7.623 1.149-13.155 7.6-13.155 15.339v17.278a7.5 7.5 0 0 0 15 0v-17.279c0-.255.168-.473.392-.507 9.667-1.457 28.85-3.705 48.725-2.38 23.388 1.557 40.328 7.428 50.349 17.45a7.5 7.5 0 0 0 10.606 0 7.5 7.5 0 0 0 0-10.606zM167.884 396.853a7.5 7.5 0 0 0-7.5 7.5v32.077a7.5 7.5 0 0 0 15 0v-32.077a7.5 7.5 0 0 0-7.5-7.5zM344.306 396.853a7.5 7.5 0 0 0-7.5 7.5v32.077a7.5 7.5 0 0 0 15 0v-32.077a7.5 7.5 0 0 0-7.5-7.5z"/></symbol><symbol viewBox="0 0 480 480.005" id="svg--transfer" xmlns="http://www.w3.org/2000/svg"><path d="M392.004 24.004h-304v-16c0-3.23-1.945-6.16-4.934-7.39a7.99 7.99 0 0 0-8.722 1.734l-72 72a7.99 7.99 0 0 0 0 11.312l72 72c2.297 2.297 5.738 2.992 8.722 1.738a8 8 0 0 0 4.934-7.394v-16h304c13.234 0 24 10.77 24 24v104c0 13.234-10.766 24-24 24h-40v-72c0-4.422-3.574-8-8-8h-336c-4.422 0-8 3.578-8 8v256c0 4.426 3.578 8 8 8h336c4.426 0 8-3.574 8-8v-136h40c48.52 0 88-39.48 88-88v-136c0-48.52-39.48-88-88-88zm-376 392h320v16h-320zm0-55.277c20.055 3.382 35.887 19.222 39.281 39.277H16.004zm320-32.723v16.555c-28.895 3.62-51.817 26.55-55.45 55.445h-209.1c-3.634-28.895-26.552-51.816-55.45-55.445v-65.114c28.898-3.625 51.816-26.55 55.45-55.449h209.112c3.621 28.899 26.551 51.817 55.446 55.45v48.558zm0 32.723v39.277h-39.281c3.394-20.055 19.226-35.887 39.28-39.277zm0-97.442c-20.055-3.383-35.887-19.222-39.281-39.281h39.28zM55.285 224.004c-3.394 20.059-19.226 35.89-39.281 39.281v-39.281zm-39.281 240v-16h320v16zm448-216c0 39.707-32.297 72-72 72h-40v-16h40c22.055 0 40-17.941 40-40v-104c0-22.055-17.945-40-40-40h-312c-4.422 0-8 3.578-8 8v4.687L19.316 80.004l52.688-52.688v4.688c0 4.426 3.578 8 8 8h312c39.703 0 72 32.297 72 72zm0 0"/><path d="M176.004 256.004c-30.871 0-56 25.129-56 56 0 30.875 25.129 56 56 56s56-25.125 56-56c0-30.871-25.129-56-56-56zm0 96c-22.055 0-40-17.942-40-40 0-22.055 17.945-40 40-40s40 17.945 40 40c0 22.058-17.945 40-40 40zm0 0M264.004 304.004h16v16h-16zm0 0M72.004 304.004h16v16h-16zm0 0M88.004 56.004h72v16h-72zm0 0M176.004 56.004h16v16h-16zm0 0M208.004 56.004h16v16h-16zm0 0M240.004 56.004h16v16h-16zm0 0"/></symbol><symbol viewBox="0 0 496 496" id="svg--wardrobe" xmlns="http://www.w3.org/2000/svg"><path d="M432 448c-3.667.022-7.28.896-10.552 2.552l.208-.208L375.312 404l14.344-14.344a8 8 0 0 0 0-11.312L376 364.688V0H40v496h336v-68.688l34.344 34.344.208-.208A23.685 23.685 0 0 0 408 472c0 13.255 10.745 24 24 24s24-10.745 24-24-10.745-24-24-24zm-109.656-69.656A8 8 0 0 0 320 384c0 8.837-7.163 16-16 16s-16-7.163-16-16a8 8 0 0 0-8-8c-8.837 0-16-7.163-16-16a8 8 0 0 0-8-8c-8.756.001-15.886-7.037-16-15.792 0-.168.112-.944.128-1.112a8 8 0 0 0-10.688-8.136A15.765 15.765 0 0 1 224 328c-8.837 0-16-7.163-16-16 .021-1.852.37-3.686 1.032-5.416a8 8 0 0 0-1.112-7.528 7.921 7.921 0 0 0-6.896-3.2c-.2 0-.8.112-1.024.136-8.825.455-16.348-6.329-16.803-15.154-.455-8.825 6.329-16.348 15.154-16.803.664-.034 1.33-.027 1.993.021v.008h.128l1.072.136a8.071 8.071 0 0 0 7.56-3.688 8.001 8.001 0 0 0 .088-8.4A7.929 7.929 0 0 1 215.999 240a7.865 7.865 0 0 1 4.328 1.304 8 8 0 0 0 12.144-4.92c2.127-8.577 10.804-13.806 19.38-11.679A16.002 16.002 0 0 1 263.999 240a15.651 15.651 0 0 1-1.032 5.416 8 8 0 0 0 8 10.72c.2 0 .8-.112 1.024-.136 8.756-.001 15.886 7.037 16 15.792 0 .168-.112.944-.128 1.112a8 8 0 0 0 10.696 8.136 15.816 15.816 0 0 1 5.44-1.04c8.837 0 16 7.163 16 16a8 8 0 0 0 8 8c8.73-.027 15.86 6.967 16 15.696 0 .24-.12 1.104-.136 1.336a8 8 0 0 0 5.36 7.952c8.329 2.845 12.773 11.904 9.928 20.232A15.935 15.935 0 0 1 343.999 360a8 8 0 0 0-5.656 2.344l-15.999 16zM328 419.312V448H216V342.792a32.006 32.006 0 0 0 9.008 1.208 32.118 32.118 0 0 0 23.792 23.2 32.096 32.096 0 0 0 24 24c3.373 14.513 16.3 24.789 31.2 24.8a31.735 31.735 0 0 0 16.208-4.48l7.792 7.792zM200 336v112H88V336h112zm-30.872-48H152v-64H88v-16h240v66.944A31.673 31.673 0 0 0 302.992 264 32.118 32.118 0 0 0 280 241.008V240c-.029-17.673-14.379-31.976-32.052-31.947a32.002 32.002 0 0 0-27.836 16.307A23.514 23.514 0 0 0 216 224c-13.255 0-24 10.745-24 24v1.008c-14.12 3.666-23.984 16.404-24 30.992a31.856 31.856 0 0 0 1.128 8zM136 240v48h-16v-48h16zm-32 0v48H88v-48h16zm256 240H56V16h304v300.416l-.216-.144A32.048 32.048 0 0 0 344 292.32V192H72v112h106.928A31.937 31.937 0 0 0 192 310.992V312a31.453 31.453 0 0 0 1.136 8H72v144h272v-32a8 8 0 0 0 5.656-2.344L360 419.312V480zm-16-67.312l-12.52-12.52a31.525 31.525 0 0 0 4.336-12.664l11.688-11.696a31.635 31.635 0 0 0 12.664-4.328l12.52 12.52L344 412.688zM432 480a8 8 0 1 1 0-16 8 8 0 0 1 0 16z"/><path d="M344 144V32H72v112h272zm-112-16h-16V80h16v48zm32 0h-16V80h16v48zm32 0h-16V80h16v48zm32 0h-16V80h16v48zm-228.688 0L144 83.312 156.688 96l-32 32H99.312zM168 128h-20.688L168 107.312V128zm0-43.312l-24-24-56 56V48h240v16H168v20.688zM184 80h16v48h-16V80zM72 160h272v16H72zM168 376h16v32h-16zM232 376h16v32h-16zM408 248h16v16h-16zM440 248h16v16h-16zM424 264h16v16h-16zM424 232h16v16h-16zM392 320h16v16h-16zM424 320h16v16h-16zM408 336h16v16h-16zM408 304h16v16h-16z"/></symbol><symbol viewBox="0 0 448 480" id="svg--window" xmlns="http://www.w3.org/2000/svg"><g data-name="Слой 2"><g data-name="Capa 1"><path d="M416 216V8a8 8 0 0 0-8-8H8a8 8 0 0 0-8 8v464a8 8 0 0 0 8 8h400a8 8 0 0 0 8-8V328h-16v136H16V16h384v200z"/><path d="M384 208V40a8 8 0 0 0-8-8H40a8 8 0 0 0-8 8v400a8 8 0 0 0 8 8h336a8 8 0 0 0 8-8v-96h-16v88H48V48h320v160z"/><path d="M74.337 130.345l55.996-55.996 11.313 11.313-55.996 55.996zM74.349 178.33L178.35 74.328l11.314 11.314L85.662 189.643zM160 368v24a8 8 0 0 1-16 0v-32a24 24 0 0 0-48 0v8a8 8 0 0 1-16 0v-40H64v40a24 24 0 0 0 48 0v-8a8 8 0 0 1 16 0v32a24 24 0 0 0 48 0v-24zM448 248v-16h-64a8 8 0 0 0-2.58-5.89 7.8 7.8 0 0 0-6.08-2.08l-90.6 7.54-13.6-27.15A8 8 0 0 0 264 200h-24a7.79 7.79 0 0 0-3.68 1L223 187.68l-5.84-17.52 52.5-52.5a8 8 0 0 0 0-11.31l-24-24a8 8 0 0 0-11.31 0l-152 151.77a8 8 0 0 0 0 11.3l24 24.23a8 8 0 0 0 11.31 0l52.5-52.5 17.52 5.85 9.6 9.6A8 8 0 0 0 192 240v64a8 8 0 0 0 7.28 8l85.11 7.74 30 30a8 8 0 0 0 11.31 0l24-24 25.6 2.33h.7a8 8 0 0 0 8-8v-8h64V296h-64v-48zm-336 4.66L99.26 239.8 240 99.31 252.69 112zm85.66-42.31a8.09 8.09 0 0 0-3.13-1.93l-11.74-3.91 10.85-10.85 10.85-10.84 3.9 11.71a8 8 0 0 0 1.94 3.13L232 219.31V232h-12.69zM320 332.69L309.28 322l19.66 1.78zm48-21.45L208 296.7V248h32a8 8 0 0 0 8-8v-24h11.06l13.74 27.58a7.94 7.94 0 0 0 7.82 4.39L368 240.7z"/><path d="M274.34 133.629l11.313-11.314 64 64-11.313 11.314zM122.326 285.633l11.313-11.313 64 64-11.313 11.314z"/></g></g></symbol></svg>