<?xml version="1.0" encoding="utf-8"?><svg xmlns="http://www.w3.org/2000/svg" xmlns:xlink="http://www.w3.org/1999/xlink">
    <symbol viewBox="0 0 24 24" id="arrow" xmlns="http://www.w3.org/2000/svg">
        <path fill-rule="evenodd" clip-rule="evenodd" d="M8.204 20.296a1.125 1.125 0 0 1 0-1.591L14.91 12 8.204 5.295a1.125 1.125 0 1 1 1.591-1.59l7.5 7.5c.44.439.44 1.151 0 1.59l-7.5 7.5c-.439.44-1.151.44-1.59 0Z" />
    </symbol>
    <symbol viewBox="0 0 24 24" id="arrow-down" xmlns="http://www.w3.org/2000/svg">
        <path fill-rule="evenodd" clip-rule="evenodd" d="M3.704 8.204c.44-.439 1.152-.439 1.591 0L12 14.91l6.704-6.705a1.125 1.125 0 0 1 1.591 1.591l-7.5 7.5c-.439.44-1.151.44-1.59 0l-7.5-7.5a1.125 1.125 0 0 1 0-1.59Z" />
    </symbol>
    <symbol viewBox="0 0 24 24" id="calendar" xmlns="http://www.w3.org/2000/svg">
        <path fill-rule="evenodd" clip-rule="evenodd" d="M4.875 4.875v14.25h14.25V4.875H4.875ZM2.625 4.5c0-1.036.84-1.875 1.875-1.875h15c1.035 0 1.875.84 1.875 1.875v15c0 1.035-.84 1.875-1.875 1.875h-15A1.875 1.875 0 0 1 2.625 19.5v-15Z" />
        <path fill-rule="evenodd" clip-rule="evenodd" d="M16.5.75c.621 0 1.125.504 1.125 1.125V3.75a1.125 1.125 0 0 1-2.25 0V1.875c0-.621.504-1.125 1.125-1.125ZM7.5.75c.621 0 1.125.504 1.125 1.125V3.75a1.125 1.125 0 0 1-2.25 0V1.875C6.375 1.254 6.879.75 7.5.75ZM2.625 8.25c0-.621.504-1.125 1.125-1.125h16.5a1.125 1.125 0 0 1 0 2.25H3.75A1.125 1.125 0 0 1 2.625 8.25Z" />
    </symbol>
    <symbol viewBox="0 0 18 18" id="clock" xmlns="http://www.w3.org/2000/svg">
        <path fill-rule="evenodd" clip-rule="evenodd" d="M9 3a6 6 0 1 0 0 12A6 6 0 0 0 9 3ZM1.5 9a7.5 7.5 0 1 1 15 0 7.5 7.5 0 0 1-15 0Z" />
        <path fill-rule="evenodd" clip-rule="evenodd" d="M9.624 8.584a.75.75 0 0 1-.208 1.04l-2.25 1.5a.75.75 0 1 1-.832-1.248l2.25-1.5a.75.75 0 0 1 1.04.208Z" />
        <path fill-rule="evenodd" clip-rule="evenodd" d="M9 4.5a.75.75 0 0 1 .75.75V9a.75.75 0 0 1-1.5 0V5.25A.75.75 0 0 1 9 4.5Z" />
    </symbol>
    <symbol viewBox="0 0 24 24" id="close" xmlns="http://www.w3.org/2000/svg">
        <path fill-rule="evenodd" clip-rule="evenodd" d="M4.293 4.293a1 1 0 0 1 1.414 0l14 14a1 1 0 0 1-1.414 1.414l-14-14a1 1 0 0 1 0-1.414Z" />
        <path fill-rule="evenodd" clip-rule="evenodd" d="M4.293 19.707a1 1 0 0 0 1.414 0l14-14a1 1 0 0 0-1.414-1.414l-14 14a1 1 0 0 0 0 1.414Z" />
    </symbol>
    <symbol viewBox="0 0 24 24" id="contact" xmlns="http://www.w3.org/2000/svg">
        <path fill-rule="evenodd" clip-rule="evenodd" d="M6.875 3.875v16.25h10.25V3.875H6.875ZM4.625 3.5c0-1.036.84-1.875 1.875-1.875h11c1.035 0 1.875.84 1.875 1.875v17c0 1.035-.84 1.875-1.875 1.875h-11A1.875 1.875 0 0 1 4.625 20.5v-17Z" />
        <circle cx="12" cy="6" r="1" />
        <rect x="4" y="5" width="1" height="3" rx=".5" />
        <rect x="4" y="8" width="1" height="3" rx=".5" />
        <rect x="19" y="9" width="1" height="5" rx=".5" />
    </symbol>
    <symbol viewBox="0 0 24 24" id="menu" xmlns="http://www.w3.org/2000/svg">
        <path fill-rule="evenodd" clip-rule="evenodd" d="M2.1 12a1 1 0 0 1 1-1h17.8a1 1 0 1 1 0 2H3.1a1 1 0 0 1-1-1ZM2.1 18a1 1 0 0 1 1-1h17.8a1 1 0 1 1 0 2H3.1a1 1 0 0 1-1-1ZM2.1 6a1 1 0 0 1 1-1h17.8a1 1 0 1 1 0 2H3.1a1 1 0 0 1-1-1Z" />
    </symbol>
    <symbol viewBox="0 0 24 24" id="phone" xmlns="http://www.w3.org/2000/svg">
        <path fill-rule="evenodd" clip-rule="evenodd" d="M5 5a1 1 0 0 0-1 .974A15 15 0 0 0 18.026 20 1 1 0 0 0 19 19v-3.323l-3.58-1.432-1.063 1.77a1 1 0 0 1-1.3.382 12 12 0 0 1-5.454-5.455 1 1 0 0 1 .383-1.3l1.77-1.061L8.322 5H5ZM2.879 3.879A3 3 0 0 1 5 3h4a1 1 0 0 1 .928.629l2 5a1 1 0 0 1-.414 1.228l-1.673 1.005a10.001 10.001 0 0 0 3.297 3.297l1.005-1.674a1 1 0 0 1 1.228-.413l5 2A1 1 0 0 1 21 15v4a3 3 0 0 1-3.06 2.998A17 17 0 0 1 2 6a3 3 0 0 1 .879-2.121Z" />
    </symbol>
    <symbol viewBox="0 0 24 24" id="play" xmlns="http://www.w3.org/2000/svg">
        <path fill-rule="evenodd" clip-rule="evenodd" d="M6.587 2.113a1.875 1.875 0 0 1 1.895.04l.002.002 13.482 8.244a1.865 1.865 0 0 1 0 3.202L8.484 21.845l-.002.001a1.874 1.874 0 0 1-2.857-1.595V3.75a1.875 1.875 0 0 1 .962-1.636Zm14.797 9.25-.586.96.014.008.572-.968ZM20.27 12 7.875 4.42v15.16L20.27 12Z" />
    </symbol>
    <symbol viewBox="0 0 20 20" id="pointer" xmlns="http://www.w3.org/2000/svg">
        <path fill-rule="evenodd" clip-rule="evenodd" d="M10 6.563a1.562 1.562 0 1 0 0 3.124 1.562 1.562 0 0 0 0-3.124ZM6.562 8.124a3.437 3.437 0 1 1 6.875 0 3.437 3.437 0 0 1-6.874 0Z" />
        <path fill-rule="evenodd" clip-rule="evenodd" d="M10 2.813a5.313 5.313 0 0 0-5.313 5.312c0 2.475 1.387 4.759 2.895 6.494A19.397 19.397 0 0 0 10 16.945a19.403 19.403 0 0 0 2.418-2.326c1.508-1.735 2.895-4.02 2.895-6.494A5.312 5.312 0 0 0 10 2.812Zm0 15.312-.538.768-.003-.002-.005-.004-.017-.012a10.438 10.438 0 0 1-.275-.204 21.258 21.258 0 0 1-2.995-2.821c-1.616-1.859-3.354-4.575-3.354-7.725a7.188 7.188 0 0 1 14.374 0c0 3.15-1.738 5.866-3.355 7.725a21.25 21.25 0 0 1-2.994 2.82 12.73 12.73 0 0 1-.275.205l-.017.012-.005.004-.002.001c-.001 0-.001.001-.539-.767Zm0 0 .538.768a.937.937 0 0 1-1.076 0l.538-.768Z" />
    </symbol>
    <symbol viewBox="0 0 37 34" id="quotes" xmlns="http://www.w3.org/2000/svg">
        <path d="m0 33.68.91-6.526c2.004.14 3.566-.234 4.685-1.123 1.12-.888 1.866-2.128 2.239-3.718.373-1.59.443-3.392.21-5.403H0V0h15.457v18.313c0 5.52-1.329 9.683-3.986 12.49C8.859 33.609 5.036 34.568 0 33.679Zm21.543 0 .909-6.526c2.005.14 3.567-.234 4.686-1.123 1.12-.888 1.865-2.128 2.238-3.718.373-1.59.443-3.392.21-5.403h-8.043V0H37v18.313c0 5.52-1.329 9.683-3.987 12.49-2.611 2.806-6.435 3.765-11.47 2.876Z" />
    </symbol>
    <symbol viewBox="0 0 24 24" id="search" xmlns="http://www.w3.org/2000/svg">
        <path fill-rule="evenodd" clip-rule="evenodd" d="M10.875 4.125a6.75 6.75 0 1 0 0 13.5 6.75 6.75 0 0 0 0-13.5Zm-9 6.75a9 9 0 1 1 18 0 9 9 0 0 1-18 0Z" />
        <path fill-rule="evenodd" clip-rule="evenodd" d="M15.648 15.648c.44-.44 1.152-.44 1.591 0l4.557 4.556a1.125 1.125 0 0 1-1.591 1.591l-4.557-4.556a1.125 1.125 0 0 1 0-1.59Z" />
    </symbol>
</svg>