<svg width="186" height="50" viewBox="0 0 186 50" fill="none" xmlns="http://www.w3.org/2000/svg">
<path d="M91 10.4C91 7.96995 92.7909 6 95 6H182C184.209 6 186 7.96995 186 10.4V45.6C186 48.0301 184.209 50 182 50H95C92.7909 50 91 48.0301 91 45.6V10.4Z" fill="#E21F1D"/>
<path d="M179 0V13L164 15L179 0Z" fill="#E21F1D"/>
<path d="M96.4893 39.7576V16.4848H103.985C104.168 16.4848 104.543 16.4902 105.111 16.501C105.68 16.5118 106.227 16.5495 106.752 16.6141C108.618 16.8404 110.2 17.4923 111.498 18.5697C112.795 19.6471 113.782 21.0155 114.458 22.6747C115.133 24.334 115.471 26.1495 115.471 28.1212C115.471 30.0929 115.133 31.9084 114.458 33.5677C113.782 35.2269 112.795 36.5953 111.498 37.6727C110.2 38.7502 108.618 39.402 106.752 39.6283C106.227 39.6929 105.68 39.7306 105.111 39.7414C104.543 39.7522 104.168 39.7576 103.985 39.7576H96.4893ZM100.929 35.6202H103.985C104.275 35.6202 104.666 35.6148 105.16 35.604C105.653 35.5825 106.098 35.534 106.495 35.4586C107.503 35.2539 108.323 34.7798 108.956 34.0364C109.6 33.2929 110.071 32.3987 110.372 31.3535C110.683 30.3084 110.838 29.231 110.838 28.1212C110.838 26.9576 110.677 25.8532 110.356 24.8081C110.045 23.763 109.567 22.8795 108.924 22.1576C108.28 21.4357 107.471 20.9778 106.495 20.7838C106.098 20.6976 105.653 20.6492 105.16 20.6384C104.666 20.6276 104.275 20.6222 103.985 20.6222H100.929V35.6202Z" fill="white"/>
<path d="M117.078 19.8788V16H121.454V19.8788H117.078ZM117.078 39.7576V22.303H121.454V39.7576H117.078Z" fill="white"/>
<path d="M128.529 40.2424C127.285 40.2424 126.228 40.0054 125.36 39.5313C124.502 39.0465 123.847 38.4054 123.397 37.6081C122.957 36.8 122.738 35.9111 122.738 34.9414C122.738 34.1333 122.861 33.3953 123.107 32.7273C123.354 32.0593 123.751 31.4721 124.298 30.9657C124.856 30.4485 125.601 30.0175 126.534 29.6727C127.177 29.4357 127.944 29.2256 128.834 29.0424C129.724 28.8593 130.732 28.6869 131.858 28.5253C132.984 28.3529 134.223 28.1643 135.574 27.9596L133.998 28.8323C133.998 27.798 133.751 27.0384 133.258 26.5535C132.765 26.0687 131.939 25.8263 130.781 25.8263C130.137 25.8263 129.467 25.9825 128.77 26.2949C128.073 26.6074 127.585 27.1623 127.306 27.9596L123.349 26.699C123.788 25.2552 124.614 24.0808 125.826 23.1758C127.038 22.2707 128.689 21.8182 130.781 21.8182C132.314 21.8182 133.676 22.0552 134.867 22.5293C136.057 23.0034 136.958 23.8222 137.569 24.9859C137.912 25.6323 138.116 26.2788 138.18 26.9253C138.245 27.5717 138.277 28.2936 138.277 29.0909V39.7576H134.448V36.1697L134.995 36.9131C134.148 38.0875 133.231 38.9387 132.244 39.4667C131.269 39.9838 130.03 40.2424 128.529 40.2424ZM129.462 36.7838C130.266 36.7838 130.941 36.6438 131.488 36.3636C132.046 36.0727 132.486 35.7441 132.807 35.3778C133.14 35.0114 133.365 34.7044 133.483 34.4566C133.708 33.9825 133.837 33.433 133.869 32.8081C133.912 32.1724 133.934 31.6444 133.934 31.2242L135.22 31.5475C133.923 31.763 132.872 31.9461 132.068 32.097C131.263 32.237 130.614 32.3663 130.121 32.4848C129.628 32.6034 129.193 32.7327 128.818 32.8727C128.389 33.0451 128.041 33.2337 127.773 33.4384C127.515 33.6323 127.322 33.8478 127.193 34.0848C127.075 34.3219 127.016 34.5859 127.016 34.8768C127.016 35.2754 127.113 35.6202 127.306 35.9111C127.51 36.1912 127.794 36.4067 128.159 36.5576C128.523 36.7084 128.958 36.7838 129.462 36.7838Z" fill="white"/>
<path d="M140.207 39.7576V16H144.583V39.7576H140.207Z" fill="white"/>
<path d="M154.65 40.2424C152.902 40.2424 151.368 39.8492 150.049 39.0626C148.73 38.2761 147.7 37.1933 146.96 35.8141C146.231 34.4242 145.867 32.8296 145.867 31.0303C145.867 29.2094 146.242 27.6094 146.993 26.2303C147.743 24.8404 148.778 23.7576 150.097 22.9818C151.416 22.2061 152.934 21.8182 154.65 21.8182C156.398 21.8182 157.931 22.2114 159.25 22.998C160.58 23.7845 161.615 24.8727 162.355 26.2626C163.095 27.6418 163.465 29.231 163.465 31.0303C163.465 32.8404 163.09 34.4404 162.339 35.8303C161.599 37.2094 160.564 38.2923 159.234 39.0788C157.915 39.8545 156.387 40.2424 154.65 40.2424ZM154.65 36.1374C156.054 36.1374 157.1 35.6633 157.786 34.7152C158.484 33.7562 158.832 32.5279 158.832 31.0303C158.832 29.4788 158.478 28.2397 157.77 27.3131C157.073 26.3865 156.033 25.9232 154.65 25.9232C153.695 25.9232 152.912 26.1387 152.301 26.5697C151.69 27.0007 151.234 27.5987 150.934 28.3636C150.644 29.1286 150.499 30.0175 150.499 31.0303C150.499 32.5926 150.848 33.837 151.545 34.7636C152.253 35.6795 153.288 36.1374 154.65 36.1374Z" fill="white"/>
<path d="M171.86 48C170.874 48 169.935 47.8384 169.045 47.5152C168.155 47.2027 167.356 46.7609 166.648 46.1899C165.951 45.6296 165.383 44.9724 164.943 44.2182L168.997 42.2465C169.276 42.7636 169.673 43.1569 170.187 43.4263C170.713 43.6956 171.281 43.8303 171.893 43.8303C172.547 43.8303 173.163 43.7172 173.742 43.4909C174.322 43.2754 174.783 42.9468 175.126 42.5051C175.48 42.0741 175.646 41.5354 175.625 40.8889V35.8141H176.172V22.303H180V40.9535C180 41.3845 179.979 41.7885 179.936 42.1657C179.904 42.5535 179.839 42.936 179.743 43.3131C179.464 44.3798 178.944 45.2579 178.182 45.9475C177.432 46.637 176.509 47.1488 175.415 47.4828C174.322 47.8276 173.137 48 171.86 48ZM171.474 40.2424C169.876 40.2424 168.477 39.8384 167.276 39.0303C166.075 38.2222 165.136 37.1232 164.461 35.7333C163.796 34.3434 163.463 32.7758 163.463 31.0303C163.463 29.2525 163.801 27.6741 164.477 26.2949C165.163 24.905 166.123 23.8114 167.356 23.0141C168.59 22.2168 170.037 21.8182 171.7 21.8182C173.351 21.8182 174.74 22.2222 175.866 23.0303C176.992 23.8384 177.844 24.9374 178.424 26.3273C179.003 27.7172 179.292 29.2848 179.292 31.0303C179.292 32.7758 178.997 34.3434 178.408 35.7333C177.828 37.1232 176.96 38.2222 175.802 39.0303C174.643 39.8384 173.201 40.2424 171.474 40.2424ZM172.182 36.3313C173.158 36.3313 173.936 36.1104 174.515 35.6687C175.104 35.2269 175.528 34.6074 175.785 33.8101C176.043 33.0128 176.172 32.0862 176.172 31.0303C176.172 29.9744 176.043 29.0478 175.785 28.2505C175.528 27.4532 175.115 26.8337 174.547 26.3919C173.989 25.9502 173.255 25.7293 172.343 25.7293C171.367 25.7293 170.563 25.9717 169.93 26.4566C169.308 26.9306 168.847 27.5717 168.547 28.3798C168.246 29.1771 168.096 30.0606 168.096 31.0303C168.096 32.0108 168.241 32.905 168.531 33.7131C168.82 34.5104 169.265 35.1461 169.866 35.6202C170.466 36.0943 171.238 36.3313 172.182 36.3313Z" fill="white"/>
<path d="M10.9387 40.2424C9.48017 40.2424 8.09139 39.9838 6.77231 39.4667C5.45324 38.9387 4.28431 38.163 3.26551 37.1394C2.25744 36.1158 1.45849 34.8498 0.868658 33.3414C0.289553 31.833 0 30.0929 0 28.1212C0 25.5461 0.48795 23.3589 1.46385 21.5596C2.45047 19.7495 3.76955 18.3704 5.42107 17.4222C7.08332 16.4741 8.92251 16 10.9387 16C13.92 16 16.2632 16.6949 17.9683 18.0848C19.6735 19.4747 20.8156 21.4411 21.3947 23.9838L16.9227 24.6303C16.5045 23.2727 15.8182 22.1899 14.8637 21.3818C13.92 20.563 12.7081 20.1481 11.2282 20.1374C9.759 20.1158 8.53644 20.4337 7.56054 21.0909C6.58464 21.7481 5.85004 22.6801 5.35672 23.8869C4.87414 25.0936 4.63284 26.505 4.63284 28.1212C4.63284 29.7374 4.87414 31.138 5.35672 32.3232C5.85004 33.5084 6.58464 34.4296 7.56054 35.0869C8.53644 35.7441 9.759 36.0835 11.2282 36.105C12.2256 36.1266 13.1264 35.9542 13.9307 35.5879C14.7457 35.2215 15.4321 34.6451 15.9897 33.8586C16.5474 33.0721 16.9442 32.0646 17.1801 30.8364H13.5125V27.4424H21.8451C21.8666 27.5825 21.8827 27.8303 21.8934 28.1859C21.9041 28.5414 21.9095 28.7461 21.9095 28.8C21.9095 31.0303 21.4591 33.0074 20.5582 34.7313C19.6574 36.4552 18.3866 37.8074 16.7458 38.7879C15.105 39.7576 13.1693 40.2424 10.9387 40.2424Z" fill="#100202"/>
<path d="M22.8814 39.7576V16H27.2569V39.7576H22.8814Z" fill="#100202"/>
<path d="M37.3236 40.2424C35.5756 40.2424 34.042 39.8492 32.723 39.0626C31.4039 38.2761 30.3744 37.1933 29.6344 35.8141C28.9052 34.4242 28.5405 32.8296 28.5405 31.0303C28.5405 29.2094 28.9159 27.6094 29.6666 26.2303C30.4173 24.8404 31.4522 23.7576 32.7712 22.9818C34.0903 22.2061 35.6078 21.8182 37.3236 21.8182C39.0717 21.8182 40.6052 22.2114 41.9243 22.998C43.2541 23.7845 44.289 24.8727 45.029 26.2626C45.7689 27.6418 46.1389 29.231 46.1389 31.0303C46.1389 32.8404 45.7636 34.4404 45.0129 35.8303C44.2729 37.2094 43.238 38.2923 41.9082 39.0788C40.5891 39.8545 39.061 40.2424 37.3236 40.2424ZM37.3236 36.1374C38.7285 36.1374 39.7741 35.6633 40.4605 34.7152C41.1575 33.7562 41.5061 32.5279 41.5061 31.0303C41.5061 29.4788 41.1522 28.2397 40.4444 27.3131C39.7473 26.3865 38.7071 25.9232 37.3236 25.9232C36.3692 25.9232 35.5863 26.1387 34.975 26.5697C34.3638 27.0007 33.908 27.5987 33.6077 28.3636C33.3182 29.1286 33.1734 30.0175 33.1734 31.0303C33.1734 32.5926 33.5219 33.837 34.219 34.7636C34.9268 35.6795 35.9617 36.1374 37.3236 36.1374Z" fill="#100202"/>
<path d="M55.6283 40.2424C53.9017 40.2424 52.4593 39.8384 51.3011 39.0303C50.1429 38.2222 49.2688 37.1232 48.679 35.7333C48.0999 34.3434 47.8104 32.7758 47.8104 31.0303C47.8104 29.2848 48.0999 27.7172 48.679 26.3273C49.2581 24.9374 50.1107 23.8384 51.2367 23.0303C52.3628 22.2222 53.7516 21.8182 55.4031 21.8182C57.0653 21.8182 58.5131 22.2168 59.7464 23.0141C60.9796 23.8114 61.9341 24.905 62.6097 26.2949C63.2961 27.6741 63.6392 29.2525 63.6392 31.0303C63.6392 32.7758 63.3014 34.3434 62.6258 35.7333C61.9609 37.1232 61.0279 38.2222 59.8268 39.0303C58.6257 39.8384 57.2262 40.2424 55.6283 40.2424ZM47.0704 39.7576V16.4848H51.478V27.798H50.9311V39.7576H47.0704ZM54.9205 36.3313C55.8642 36.3313 56.6364 36.0943 57.2369 35.6202C57.8375 35.1461 58.2825 34.5104 58.5721 33.7131C58.8616 32.905 59.0064 32.0108 59.0064 31.0303C59.0064 30.0606 58.8563 29.1771 58.556 28.3798C58.2557 27.5717 57.7892 26.9306 57.1565 26.4566C56.5345 25.9717 55.7355 25.7293 54.7596 25.7293C53.8481 25.7293 53.1081 25.9502 52.5397 26.3919C51.9821 26.8337 51.5745 27.4532 51.3172 28.2505C51.0598 29.0478 50.9311 29.9744 50.9311 31.0303C50.9311 32.0862 51.0598 33.0128 51.3172 33.8101C51.5745 34.6074 51.9928 35.2269 52.5719 35.6687C53.1617 36.1104 53.9446 36.3313 54.9205 36.3313Z" fill="#100202"/>
<path d="M69.4311 40.2424C68.187 40.2424 67.1307 40.0054 66.2621 39.5313C65.4041 39.0465 64.7499 38.4054 64.2995 37.6081C63.8598 36.8 63.64 35.9111 63.64 34.9414C63.64 34.1333 63.7633 33.3953 64.01 32.7273C64.2566 32.0593 64.6534 31.4721 65.2004 30.9657C65.758 30.4485 66.5033 30.0175 67.4364 29.6727C68.0798 29.4357 68.8466 29.2256 69.7367 29.0424C70.6268 28.8593 71.6349 28.6869 72.7609 28.5253C73.8869 28.3529 75.1256 28.1643 76.4768 27.9596L74.9004 28.8323C74.9004 27.798 74.6537 27.0384 74.1604 26.5535C73.6671 26.0687 72.8413 25.8263 71.6831 25.8263C71.0397 25.8263 70.3694 25.9825 69.6723 26.2949C68.9753 26.6074 68.4873 27.1623 68.2085 27.9596L64.2513 26.699C64.691 25.2552 65.5167 24.0808 66.7286 23.1758C67.9404 22.2707 69.5919 21.8182 71.6831 21.8182C73.2167 21.8182 74.5787 22.0552 75.769 22.5293C76.9594 23.0034 77.8603 23.8222 78.4715 24.9859C78.8147 25.6323 79.0185 26.2788 79.0828 26.9253C79.1471 27.5717 79.1793 28.2936 79.1793 29.0909V39.7576H75.3508V36.1697L75.8977 36.9131C75.0505 38.0875 74.1336 38.9387 73.147 39.4667C72.1711 39.9838 70.9324 40.2424 69.4311 40.2424ZM70.3641 36.7838C71.1684 36.7838 71.844 36.6438 72.3909 36.3636C72.9486 36.0727 73.3883 35.7441 73.71 35.3778C74.0424 35.0114 74.2677 34.7044 74.3856 34.4566C74.6108 33.9825 74.7395 33.433 74.7717 32.8081C74.8146 32.1724 74.836 31.6444 74.836 31.2242L76.1229 31.5475C74.8253 31.763 73.7743 31.9461 72.97 32.097C72.1657 32.237 71.5169 32.3663 71.0236 32.4848C70.5303 32.6034 70.0959 32.7327 69.7206 32.8727C69.2916 33.0451 68.9431 33.2337 68.675 33.4384C68.4176 33.6323 68.2246 33.8478 68.0959 34.0848C67.9779 34.3219 67.9189 34.5859 67.9189 34.8768C67.9189 35.2754 68.0155 35.6202 68.2085 35.9111C68.4122 36.1912 68.6964 36.4067 69.0611 36.5576C69.4257 36.7084 69.86 36.7838 70.3641 36.7838Z" fill="#100202"/>
<path d="M81.1099 39.7576V16H85.4854V39.7576H81.1099Z" fill="#100202"/>
</svg>
