<svg width="50" height="49" viewBox="0 0 50 49" fill="none" xmlns="http://www.w3.org/2000/svg">
<path d="M29.1867 18.9043L23.6232 30.0313H27.7989L33.3624 18.9043H29.1867Z" fill="#D7D8F9"/>
<path d="M22.5304 18.9043L16.9669 30.0313H21.1426L26.7061 18.9043H22.5304Z" fill="#D7D8F9"/>
<path d="M35.8429 18.9043L30.2794 30.0313H34.4551L40.0186 18.9043H35.8429Z" fill="#D7D8F9"/>
<path d="M42.4992 18.9043L36.9357 30.0313H41.1114L46.6749 18.9043H42.4992Z" fill="#D7D8F9"/>
<path d="M15.8742 18.9043L10.3107 30.0313H14.4864L20.0499 18.9043H15.8742Z" fill="#D7D8F9"/>
<path d="M0.75 18.9043V30.0313H1.17378L6.7373 18.9043H0.75Z" fill="#D7D8F9"/>
<path d="M0.75 32.25V45.5625C0.75 46.4452 1.10064 47.2917 1.72478 47.9158C2.34893 48.54 3.19545 48.8906 4.07812 48.8906H46.2344C47.1171 48.8906 47.9636 48.54 48.5877 47.9158C49.2119 47.2917 49.5625 46.4452 49.5625 45.5625V32.25H0.75Z" fill="#D7D8F9"/>
<path d="M9.21794 18.9043L3.65442 30.0313H7.83011L13.3936 18.9043H9.21794Z" fill="#D7D8F9"/>
<path d="M49.5625 16.6855V3.40625C49.5625 2.52358 49.2119 1.67705 48.5877 1.05291C47.9636 0.428765 47.1171 0.078125 46.2344 0.078125H4.07812C3.19545 0.078125 2.34893 0.428765 1.72478 1.05291C1.10064 1.67705 0.75 2.52358 0.75 3.40625V16.6855H49.5625Z" fill="#D7D8F9"/>
<path d="M49.5626 18.9043H49.1554L43.5919 30.0313H49.5626V18.9043Z" fill="#D7D8F9"/>
</svg>
