<svg width="43" height="55" viewBox="0 0 43 55" fill="none" xmlns="http://www.w3.org/2000/svg">
<path d="M37.0469 23.4062H35.9375V14.5312C35.9375 10.7063 34.4181 7.03807 31.7134 4.33344C29.0088 1.62882 25.3405 0.109375 21.5156 0.109375C17.6907 0.109375 14.0224 1.62882 11.3178 4.33344C8.61319 7.03807 7.09375 10.7063 7.09375 14.5312V23.4062H5.98438C4.51379 23.408 3.10395 23.993 2.06409 25.0328C1.02423 26.0727 0.439262 27.4825 0.4375 28.9531V48.9219C0.439262 50.3925 1.02423 51.8023 2.06409 52.8422C3.10395 53.882 4.51379 54.467 5.98438 54.4688H37.0469C38.5175 54.467 39.9273 53.882 40.9672 52.8422C42.007 51.8023 42.592 50.3925 42.5938 48.9219V28.9531C42.592 27.4825 42.007 26.0727 40.9672 25.0328C39.9273 23.993 38.5175 23.408 37.0469 23.4062ZM9.3125 14.5312C9.3125 11.2948 10.5982 8.19087 12.8867 5.90234C15.1752 3.61381 18.2792 2.32812 21.5156 2.32812C24.7521 2.32812 27.856 3.61381 30.1445 5.90234C32.4331 8.19087 33.7188 11.2948 33.7188 14.5312V23.4062H9.3125V14.5312ZM40.375 48.9219C40.375 49.8046 40.0244 50.6511 39.4002 51.2752C38.7761 51.8994 37.9296 52.25 37.0469 52.25H5.98438C5.1017 52.25 4.25518 51.8994 3.63104 51.2752C3.00689 50.6511 2.65625 49.8046 2.65625 48.9219V28.9531C2.65625 28.0705 3.00689 27.2239 3.63104 26.5998C4.25518 25.9756 5.1017 25.625 5.98438 25.625H37.0469C37.9296 25.625 38.7761 25.9756 39.4002 26.5998C40.0244 27.2239 40.375 28.0705 40.375 28.9531V48.9219Z" fill="#051F39"/>
<path d="M21.5156 32.2813C20.4369 32.2799 19.3948 32.6723 18.5849 33.3848C17.7751 34.0972 17.253 35.0808 17.1169 36.1508C16.9807 37.2208 17.2397 38.3038 17.8454 39.1964C18.451 40.089 19.3616 40.7298 20.4062 40.9987V44.4843C20.4062 44.7786 20.5231 45.0607 20.7311 45.2688C20.9392 45.4768 21.2213 45.5937 21.5156 45.5937C21.8098 45.5937 22.092 45.4768 22.3 45.2688C22.5081 45.0607 22.6249 44.7786 22.6249 44.4843V40.9987C23.6696 40.7298 24.5801 40.089 25.1858 39.1964C25.7914 38.3038 26.0505 37.2208 25.9143 36.1508C25.7781 35.0808 25.2561 34.0972 24.4462 33.3848C23.6363 32.6723 22.5942 32.2799 21.5156 32.2813ZM21.5156 38.9375C21.0767 38.9375 20.6478 38.8074 20.2829 38.5636C19.918 38.3198 19.6336 37.9732 19.4657 37.5678C19.2978 37.1624 19.2538 36.7163 19.3395 36.2859C19.4251 35.8555 19.6364 35.4601 19.9467 35.1499C20.257 34.8396 20.6523 34.6282 21.0827 34.5426C21.5131 34.457 21.9592 34.501 22.3647 34.6689C22.7701 34.8368 23.1166 35.1212 23.3604 35.4861C23.6042 35.8509 23.7343 36.2799 23.7343 36.7187C23.7343 37.3072 23.5006 37.8715 23.0845 38.2876C22.6684 38.7037 22.104 38.9375 21.5156 38.9375Z" fill="#051F39"/>
</svg>
