<svg width="54" height="52" viewBox="0 0 54 52" fill="none" xmlns="http://www.w3.org/2000/svg">
<path d="M22.785 3.99219C22.785 3.10951 22.4344 2.26299 21.8102 1.63885C21.1861 1.0147 20.3396 0.664063 19.4569 0.664062H13.91C13.0273 0.664063 12.1808 1.0147 11.5567 1.63885C10.9325 2.26299 10.5819 3.10951 10.5819 3.99219V9.53906H10.0938C9.35149 9.5389 8.63046 9.78688 8.04532 10.2436C7.46017 10.7003 7.0445 11.3395 6.86437 12.0596L4.16859 22.8516H3.43751C2.93164 22.8514 2.43241 22.9667 1.97774 23.1884C1.52308 23.4102 1.12495 23.7327 0.813612 24.1314C0.502277 24.5301 0.285929 24.9946 0.181011 25.4894C0.0760923 25.9843 0.0853639 26.4966 0.208121 26.9873L5.755 49.1748C5.93512 49.8949 6.3508 50.5341 6.93594 50.9908C7.52109 51.4475 8.24211 51.6955 8.98439 51.6953H42.3255C43.0024 51.693 43.6627 51.4855 44.219 51.1C44.7754 50.7146 45.2018 50.1694 45.4418 49.5365L53.7621 27.349C53.9511 26.8454 54.0152 26.3036 53.9489 25.7698C53.8827 25.236 53.6881 24.7263 53.3817 24.2842C53.0754 23.8421 52.6665 23.4808 52.19 23.2313C51.7136 22.9818 51.1837 22.8515 50.6459 22.8516H50.5194V20.6328C50.5194 19.7501 50.1687 18.9036 49.5446 18.2795C48.9205 17.6553 48.0739 17.3047 47.1913 17.3047H46.0819V15.0859C46.0819 14.2033 45.7312 13.3567 45.1071 12.7326C44.483 12.1085 43.6364 11.7578 42.7538 11.7578H38.3163C37.4336 11.7578 36.5871 12.1085 35.9629 12.7326C35.3388 13.3567 34.9881 14.2033 34.9881 15.0859V17.3047H33.8788C32.9961 17.3047 32.1496 17.6553 31.5254 18.2795C30.9013 18.9036 30.5506 19.7501 30.5506 20.6328V22.8516H30.2411L26.5624 11.8144C26.3415 11.152 25.9179 10.5758 25.3515 10.1675C24.7851 9.75912 24.1045 9.53928 23.4063 9.53906H22.785V3.99219ZM13.91 2.88281H19.4569C19.7511 2.88281 20.0333 2.99969 20.2413 3.20774C20.4494 3.41579 20.5663 3.69796 20.5663 3.99219V5.10156H12.8006V3.99219C12.8006 3.69796 12.9175 3.41579 13.1256 3.20774C13.3336 2.99969 13.6158 2.88281 13.91 2.88281ZM43.365 48.7566C43.2848 48.9676 43.1425 49.1493 42.957 49.2778C42.7714 49.4063 42.5513 49.4756 42.3255 49.4766H8.98439C8.73689 49.4768 8.49641 49.3943 8.30122 49.2421C8.10603 49.0899 7.96733 48.8769 7.90718 48.6368L5.34675 38.3828H12.9582C13.2003 39.3342 13.7525 40.1778 14.5276 40.7803C15.3027 41.3828 16.2564 41.7099 17.2381 41.7099C18.2199 41.7099 19.1736 41.3828 19.9487 40.7803C20.7237 40.1778 21.276 39.3342 21.5181 38.3828H47.2578L43.365 48.7566ZM15.0194 37.2734C15.0194 36.8346 15.1495 36.4056 15.3933 36.0408C15.6371 35.6759 15.9836 35.3915 16.3891 35.2236C16.7945 35.0556 17.2406 35.0117 17.671 35.0973C18.1014 35.1829 18.4967 35.3942 18.807 35.7045C19.1173 36.0148 19.3286 36.4102 19.4143 36.8406C19.4999 37.271 19.4559 37.7171 19.288 38.1225C19.1201 38.5279 18.8357 38.8745 18.4708 39.1183C18.1059 39.3621 17.677 39.4922 17.2381 39.4922C16.6497 39.4922 16.0853 39.2584 15.6692 38.8423C15.2531 38.4262 15.0194 37.8619 15.0194 37.2734ZM51.6842 26.5691L48.0865 36.1641H21.5203C21.2782 35.2127 20.7259 34.3691 19.9509 33.7666C19.1758 33.1641 18.2221 32.837 17.2404 32.837C16.2586 32.837 15.3049 33.1641 14.5298 33.7666C13.7548 34.3691 13.2025 35.2127 12.9604 36.1641H4.79206L2.36253 26.4482C2.32177 26.2847 2.31875 26.1142 2.35371 25.9494C2.38866 25.7847 2.46067 25.6301 2.56426 25.4973C2.66786 25.3645 2.80033 25.257 2.95164 25.1831C3.10294 25.1091 3.26909 25.0705 3.43751 25.0703H50.6459C50.8251 25.0704 51.0016 25.1139 51.1603 25.197C51.3191 25.2802 51.4553 25.4006 51.5573 25.5479C51.6594 25.6952 51.7243 25.865 51.7463 26.0429C51.7684 26.2207 51.7471 26.4013 51.6842 26.5691ZM48.3006 20.6328V22.8516H41.6444V19.5234H47.1913C47.4855 19.5234 47.7677 19.6403 47.9757 19.8484C48.1838 20.0564 48.3006 20.3386 48.3006 20.6328ZM37.2069 15.0859C37.2069 14.7917 37.3238 14.5095 37.5318 14.3015C37.7399 14.0934 38.022 13.9766 38.3163 13.9766H42.7538C43.048 13.9766 43.3302 14.0934 43.5382 14.3015C43.7463 14.5095 43.8631 14.7917 43.8631 15.0859V17.3047H37.2069V15.0859ZM32.7694 20.6328C32.7694 20.3386 32.8863 20.0564 33.0943 19.8484C33.3024 19.6403 33.5845 19.5234 33.8788 19.5234H39.4256V22.8516H32.7694V20.6328ZM24.4568 12.5166L27.9026 22.8516H6.45612L9.01878 12.5987C9.07862 12.3588 9.21689 12.1457 9.41165 11.9934C9.60641 11.841 9.84649 11.7581 10.0938 11.7578H23.4063C23.6388 11.7582 23.8654 11.8317 24.0539 11.9679C24.2424 12.104 24.3834 12.296 24.4568 12.5166ZM12.8006 9.53906V7.32031H20.5663V9.53906H12.8006Z" fill="white"/>
<path d="M19.4568 16.1953C19.1626 16.1953 18.8804 16.3122 18.6724 16.5202C18.4644 16.7283 18.3475 17.0105 18.3475 17.3047C18.3475 17.5989 18.4644 17.8811 18.6724 18.0891C18.8804 18.2972 19.1626 18.4141 19.4568 18.4141H21.6756C21.9698 18.4141 22.252 18.2972 22.46 18.0891C22.6681 17.8811 22.785 17.5989 22.785 17.3047C22.785 17.0105 22.6681 16.7283 22.46 16.5202C22.252 16.3122 21.9698 16.1953 21.6756 16.1953H19.4568Z" fill="white"/>
<path d="M15.0193 16.1953H12.8006C12.5064 16.1953 12.2242 16.3122 12.0162 16.5202C11.8081 16.7283 11.6912 17.0105 11.6912 17.3047C11.6912 17.5989 11.8081 17.8811 12.0162 18.0891C12.2242 18.2972 12.5064 18.4141 12.8006 18.4141H15.0193C15.3136 18.4141 15.5957 18.2972 15.8038 18.0891C16.0118 17.8811 16.1287 17.5989 16.1287 17.3047C16.1287 17.0105 16.0118 16.7283 15.8038 16.5202C15.5957 16.3122 15.3136 16.1953 15.0193 16.1953Z" fill="white"/>
</svg>
