<svg width="49" height="39" viewBox="0 0 49 39" fill="none" xmlns="http://www.w3.org/2000/svg">
<path d="M1.1875 11.7109C5.45083 11.7109 5.73039 15.0391 8.95312 15.0391C12.1293 15.0391 12.4765 11.7109 16.7188 11.7109C20.981 11.7109 21.2539 15.0391 24.4777 15.0391C27.7382 15.0391 27.9334 11.7109 32.2433 11.7109C36.5533 11.7109 36.774 15.0391 40.0156 15.0391C43.2572 15.0391 43.5179 11.7109 47.7868 11.7109H48.8962V1.72656C48.8962 1.43234 48.7793 1.15016 48.5712 0.942115C48.3632 0.734067 48.081 0.617188 47.7868 0.617188C43.509 0.617188 43.245 3.94531 40.0156 3.94531C36.7862 3.94531 36.5111 0.617188 32.2433 0.617188C27.9756 0.617188 27.7038 3.94531 24.4777 3.94531C21.2206 3.94531 21.0387 0.617188 16.7188 0.617188C12.4532 0.617188 12.1792 3.94531 8.95312 3.94531C5.69933 3.94531 5.49077 0.617188 1.1875 0.617188C0.893275 0.617188 0.611101 0.734067 0.403053 0.942115C0.195004 1.15016 0.078125 1.43234 0.078125 1.72656V11.7109H1.1875Z" fill="#D7D8F9"/>
<path d="M40.0156 17.2578C35.7379 17.2578 35.4738 13.9297 32.2433 13.9297C29.0661 13.9297 28.7177 17.2578 24.4777 17.2578C20.2144 17.2578 19.9415 13.9297 16.7188 13.9297C13.5415 13.9297 13.1943 17.2578 8.95312 17.2578C4.68758 17.2578 4.41578 13.9297 1.1875 13.9297H0.078125V23.9141H1.1875C5.45083 23.9141 5.73039 27.2422 8.95312 27.2422C12.1293 27.2422 12.4765 23.9141 16.7188 23.9141C20.981 23.9141 21.2539 27.2422 24.4777 27.2422C27.7382 27.2422 27.9334 23.9141 32.2433 23.9141C36.5533 23.9141 36.774 27.2422 40.0156 27.2422C43.2572 27.2422 43.5179 23.9141 47.7868 23.9141H48.8962V13.9297H47.7812C44.5186 13.9297 44.3222 17.2578 40.0156 17.2578Z" fill="#D7D8F9"/>
<path d="M47.7812 26.1328C44.5186 26.1328 44.3222 29.4609 40.0101 29.4609C35.7323 29.4609 35.4683 26.1328 32.2378 26.1328C29.0605 26.1328 28.7122 29.4609 24.4722 29.4609C20.2088 29.4609 19.9359 26.1328 16.7132 26.1328C13.536 26.1328 13.1887 29.4609 8.94758 29.4609C4.68203 29.4609 4.41024 26.1328 1.18195 26.1328H0.078125V35.0078C0.078125 35.8905 0.428765 36.737 1.05291 37.3612C1.67705 37.9853 2.52358 38.3359 3.40625 38.3359H45.5625C46.4452 38.3359 47.2917 37.9853 47.9158 37.3612C48.54 36.737 48.8906 35.8905 48.8906 35.0078V26.1328H47.7812Z" fill="#D7D8F9"/>
</svg>
