<svg width="44" height="40" viewBox="0 0 44 40" fill="none" xmlns="http://www.w3.org/2000/svg">
<path d="M28.2513 3.44149C28.7157 4.02163 28.9002 4.77876 28.7603 5.51622L24.6344 27.2632H26.9471L31.8014 4.49689C32.0432 3.35628 33.042 2.53032 34.1777 2.53032H35.1129V0H24.803V2.53032H26.3776C27.1061 2.53032 27.79 2.86463 28.2545 3.44477L28.2513 3.44149Z" fill="#D7926D"/>
<path d="M13.8695 28.6855H9.37149V9.55083H26.5907L27.0711 7.02051H0V9.55083H0.919335C2.25857 9.55083 3.34969 10.675 3.34969 12.0549V26.1749C3.34969 27.558 2.25857 28.6823 0.919335 28.6823H0V31.2126H14.4103L13.8695 28.6823V28.6855ZM6.90933 28.6855H5.32832C5.66552 27.971 5.85639 27.168 5.85639 26.3191V11.9173C5.85639 11.0684 5.66552 10.2653 5.32832 9.55083H6.90933V28.6823V28.6855Z" fill="#D7926D"/>
<path d="M36.9325 8.56447C35.7236 7.93517 33.9391 7.53203 32.6189 7.29932L32.0018 10.2C32.3199 10.3344 32.6094 10.4819 32.8766 10.649C34.0409 11.3799 34.9347 12.4714 35.5264 13.8939C36.1149 15.3131 36.4139 17.0699 36.4139 19.1184C36.4139 21.1669 36.1149 22.8975 35.5264 24.3232C34.9316 25.7588 34.0409 26.8568 32.8734 27.5845C31.7091 28.3121 30.3031 28.6825 28.6871 28.6825H22.7225L23.2061 31.2128H30.1408C32.6825 31.2128 34.9697 30.7015 36.9293 29.6887C38.8857 28.6792 40.4317 27.2436 41.5228 25.4245C42.6139 23.6022 43.1674 21.4816 43.1674 19.1184C43.1674 16.7552 42.6139 14.6674 41.5228 12.8483C40.4317 11.026 38.8888 9.58709 36.9293 8.56447H36.9325ZM39.2801 24.002C38.8538 24.7133 38.3321 25.3491 37.7214 25.9063C37.8009 25.7392 37.8772 25.5687 37.9472 25.3917C38.6757 23.6218 39.0479 21.5143 39.0479 19.1184C39.0479 16.7225 38.6757 14.5822 37.944 12.8254C37.8836 12.6812 37.82 12.5369 37.7564 12.3993C38.3512 12.9499 38.8602 13.5759 39.2769 14.2741C40.1072 15.6605 40.5271 17.2895 40.5271 19.1184C40.5271 20.9473 40.1072 22.6123 39.2769 23.9988L39.2801 24.002Z" fill="#D7926D"/>
<path d="M25.7732 36.637C25.3596 36.1093 25.2069 35.4243 25.3469 34.7622L25.8018 32.635H23.6164L22.9897 35.9356L17.9191 10.9766H15.231L20.8329 37.286H18.7366C19.1597 36.3256 19.2774 35.244 19.0515 34.1853L14.1017 10.9798H11.5092L16.583 34.7688C16.723 35.4308 16.5703 36.1159 16.1567 36.6436C15.7432 37.1713 15.1292 37.4761 14.4708 37.4761H14.1463V40.0064H27.7486V37.4761H27.4591C26.8007 37.4761 26.1867 37.1713 25.7732 36.6436V36.637Z" fill="#D7926D"/>
<path d="M10.1254 4.49689L10.3608 5.60144H12.9534L12.594 3.91675C12.5049 3.49394 12.3649 3.09407 12.1836 2.71714H14.6108C14.1813 3.60538 14.0095 4.60177 14.1145 5.60144H16.8884L16.8725 5.52278C16.7326 4.78532 16.9139 4.02819 17.3783 3.44477C17.8428 2.86463 18.5267 2.53032 19.2583 2.53032H20.3844V0H6.7821V2.53032H7.75234C8.8848 2.53032 9.88367 3.35955 10.1286 4.49689H10.1254Z" fill="#D7926D"/>
</svg>
