<svg width="110" height="110" viewBox="0 0 110 110" fill="none" xmlns="http://www.w3.org/2000/svg">
<path d="M82.5 82.5C97.6878 67.3122 97.6878 42.6878 82.5 27.5C67.3122 12.3122 42.6878 12.3122 27.5 27.5C12.3122 42.6878 12.3122 67.3122 27.5 82.5C42.6878 97.6878 67.3122 97.6878 82.5 82.5Z" fill="#152142"/>
<path d="M55.1124 86.5695C72.4852 86.5695 86.5686 72.4861 86.5686 55.1134C86.5686 37.7406 72.4852 23.6572 55.1124 23.6572C37.7397 23.6572 23.6562 37.7406 23.6562 55.1134C23.6562 72.4861 37.7397 86.5695 55.1124 86.5695Z" fill="white"/>
<path d="M105.184 44.7144H7.01953V65.4338H105.184V44.7144Z" fill="white"/>
<path d="M11.0161 60.508H7.53906V49.394H15.8745V60.508H12.3975V52.1725H11.0161V60.508Z" fill="#3B5FA9"/>
<path d="M25.4241 60.508H21.9629V52.1725H21.4707L20.1688 60.508H16.6758V59.1267L18.7716 49.394H25.4241V60.508Z" fill="#3B5FA9"/>
<path d="M30.3077 55.4909H31.3238L31.0063 52.1884H30.6252L30.3077 55.4909ZM27.9261 49.394H33.7054L35.2614 59.1267V60.508H31.7843L31.5779 58.2693H30.0537L29.8314 60.508H26.3702V59.1267L27.9261 49.394Z" fill="#3B5FA9"/>
<path d="M39.669 53.4268H41.0662V49.394H44.5274V60.508H41.0662V56.2053H39.669V60.508H36.2078V49.394H39.669V53.4268Z" fill="#3B5FA9"/>
<path d="M53.2204 60.508H45.7899V49.394H53.2204V50.7754L52.6647 52.1884H49.2511V53.4268H52.6647V56.2053H49.2511V57.7295H53.2204V60.508Z" fill="#3B5FA9"/>
<path d="M55.7817 52.1884H53.7018V49.394H61.4815V50.7754L60.9258 52.1884H59.2587V60.508H55.7817V52.1884Z" fill="#3B5FA9"/>
<path d="M65.1009 55.4909H66.117L65.7995 52.1884H65.4184L65.1009 55.4909ZM62.7193 49.394H68.4986L70.0546 59.1267V60.508H66.5775L66.3711 58.2693H64.8469L64.6246 60.508H61.1634V59.1267L62.7193 49.394Z" fill="#3B5FA9"/>
<path d="M82.2616 52.1884V54.2683H83.6429V52.1884H82.2616ZM85.7228 57.0468H82.2616V60.508H78.7845V49.394H85.7228C86.5484 49.394 87.12 49.9656 87.12 50.7754V55.6496C87.12 56.4594 86.5484 57.0468 85.7228 57.0468Z" fill="#3B5FA9"/>
<path d="M89.8306 52.1884H87.7507V49.394H95.5305V50.7754L94.9748 52.1884H93.3077V60.508H89.8306V52.1884Z" fill="#3B5FA9"/>
<path d="M101.179 50.5054V49.394H104.64V60.508H101.179V59.1267L101.703 55.5702H101.417L99.7818 59.3966V60.508H96.3206V49.394H99.7818V50.7754L99.2738 54.3318H99.5437L101.179 50.5054Z" fill="#3B5FA9"/>
</svg>
