<?xml version="1.0" encoding="utf-8"?><svg xmlns="http://www.w3.org/2000/svg" xmlns:xlink="http://www.w3.org/1999/xlink">
    <symbol viewBox="0 0 24 25" id="animal" xmlns="http://www.w3.org/2000/svg">
        <circle cx="12" cy="12.291" r="9.004" />
        <path fill-rule="evenodd" clip-rule="evenodd" d="m10.998 6.789 1.118 2h.821a1.5 1.5 0 0 1 1.415 1.002l.353 1H17v2.765a1.295 1.295 0 0 1-1.294 1.295h-2.707v2.942l-6.003-3.001 2.292-6.777a1.805 1.805 0 0 1 1.71-1.226Z" />
    </symbol>
    <symbol viewBox="0 0 48 20" id="arrow" xmlns="http://www.w3.org/2000/svg">
        <path d="M0 9.333h47.609v1.333H0V9.333Zm47.609.666v.667h-.006l-.033.001a8.415 8.415 0 0 0-.693.055c-.474.057-1.139.172-1.891.401-1.509.46-3.336 1.37-4.712 3.169l-1.059-.81c1.597-2.088 3.702-3.122 5.382-3.634a12.436 12.436 0 0 1 2.121-.45 9.856 9.856 0 0 1 .818-.064l.05-.001h.023v.666Zm-7.335 4.293c-.766 1.003-1.217 2.302-1.474 3.389a13.78 13.78 0 0 0-.292 1.734 8.147 8.147 0 0 0-.009.1l-.001.024v.005l-.666-.042-.666-.042v-.004l.002-.01c0-.009 0-.02.002-.034a12.073 12.073 0 0 1 .061-.562c.049-.37.133-.886.271-1.475.276-1.166.781-2.674 1.713-3.893l1.06.81Zm7.335-4.293v.667h-.023l-.05-.001a9.78 9.78 0 0 1-.817-.064 12.423 12.423 0 0 1-2.122-.45c-1.68-.512-3.785-1.546-5.382-3.634l1.06-.81c1.375 1.8 3.202 2.71 4.71 3.169.753.23 1.418.344 1.893.4a8.568 8.568 0 0 0 .692.056h.039V10Zm-8.394-3.482c-.932-1.219-1.437-2.727-1.713-3.892A15.082 15.082 0 0 1 37.181.71a7.404 7.404 0 0 1-.013-.157l-.001-.01V.54l.665-.042.665-.043V.46l.002.023a8.394 8.394 0 0 0 .054.491c.044.336.12.807.247 1.344.257 1.087.708 2.386 1.474 3.39l-1.059.809Z" />
    </symbol>
    <symbol viewBox="0 0 20 48" id="arrow-down" xmlns="http://www.w3.org/2000/svg">
        <path d="M10.667 0v47.609H9.334V0h1.333Zm-.666 47.609h-.667v-.006l-.001-.033a8.455 8.455 0 0 0-.055-.693 11.096 11.096 0 0 0-.401-1.891c-.46-1.509-1.37-3.336-3.169-4.712l.81-1.059c2.088 1.597 3.122 3.702 3.634 5.382.257.842.385 1.586.45 2.121a9.923 9.923 0 0 1 .065.883v.008h-.666Zm-4.293-7.335c-1.003-.766-2.302-1.217-3.389-1.474a13.78 13.78 0 0 0-1.734-.292 8.254 8.254 0 0 0-.1-.009l-.024-.001H.456l.042-.666.042-.666h.005l.01.002c.007 0 .019 0 .033.002l.123.01a15.08 15.08 0 0 1 1.915.322c1.165.276 2.673.781 3.892 1.713l-.81 1.06Zm4.293 7.335h-.667v-.023l.001-.05a9.856 9.856 0 0 1 .064-.817c.065-.536.193-1.28.45-2.122.512-1.68 1.546-3.785 3.634-5.382l.81 1.06c-1.8 1.375-2.71 3.202-3.169 4.71-.23.753-.344 1.418-.4 1.893a8.501 8.501 0 0 0-.056.692v.039H10Zm3.482-8.394c1.219-.932 2.727-1.437 3.892-1.713a15.086 15.086 0 0 1 1.915-.321 7.343 7.343 0 0 1 .157-.013l.01-.001h.004l.042.665.043.665h-.006l-.023.002a8.323 8.323 0 0 0-.491.054c-.336.044-.807.12-1.344.247-1.087.257-2.386.708-3.39 1.474l-.809-1.059Z" />
    </symbol>
    <symbol viewBox="0 0 11 6" id="arrow-sm" xmlns="http://www.w3.org/2000/svg">
        <path d="m1 .75 4.5 4.5L10 .75" />
    </symbol>
    <symbol viewBox="0 0 24 25" id="calendar-warning" xmlns="http://www.w3.org/2000/svg">
        <path d="M16 3.79v2M7 3.79v2M3 9.79h17M20 10.79v-3a3 3 0 0 0-3-3H6a3 3 0 0 0-3 3v9a3 3 0 0 0 3 3h3" />
        <path fill-rule="evenodd" clip-rule="evenodd" d="m18.693 14.396 3.046 5.413c.75 1.333-.213 2.982-1.743 2.982h-6.09c-1.53 0-2.494-1.648-1.744-2.982l3.046-5.414c.763-1.36 2.72-1.36 3.485 0Z" />
        <path d="M16.951 18.21v-1.835M16.95 20.235a.09.09 0 0 0-.09.09c0 .05.042.092.092.092a.09.09 0 0 0 .09-.091.09.09 0 0 0-.091-.091" />
    </symbol>
    <symbol viewBox="0 0 36 36" id="chat" xmlns="http://www.w3.org/2000/svg">
        <path d="M24 9.75v-4.5a3.75 3.75 0 0 0-3.75-3.75H6.75A3.75 3.75 0 0 0 3 5.25v14.806L9.556 13.5H20.25A3.75 3.75 0 0 0 24 9.75ZM8.935 12l-.44.44L4.5 16.434V5.25A2.253 2.253 0 0 1 6.75 3h13.5a2.253 2.253 0 0 1 2.25 2.25v4.5A2.253 2.253 0 0 1 20.25 12H8.935Zm20.315 4.5h-13.5A3.75 3.75 0 0 0 12 20.25v4.5a3.75 3.75 0 0 0 3.75 3.75h10.694L33 35.056V20.25a3.75 3.75 0 0 0-3.75-3.75Zm2.25 14.935-3.995-3.996-.44-.439H15.75a2.253 2.253 0 0 1-2.25-2.25v-4.5A2.252 2.252 0 0 1 15.75 18h13.5a2.253 2.253 0 0 1 2.25 2.25v11.185Z" />
    </symbol>
    <symbol viewBox="0 0 9 7" id="check" xmlns="http://www.w3.org/2000/svg">
        <path d="m1 3 2.5 2.5L8 1" />
    </symbol>
    <symbol viewBox="0 0 16 16" id="check-circle" xmlns="http://www.w3.org/2000/svg">
        <path d="M8.003 1.333a6.667 6.667 0 1 0 0 13.334 6.667 6.667 0 0 0 0-13.333ZM7.6 9.642 5.544 7.584l.471-.471 1.586 1.585 2.514-2.513.472.471L7.6 9.641Z" />
    </symbol>
    <symbol viewBox="0 0 24 25" id="children-slide" xmlns="http://www.w3.org/2000/svg">
        <path fill-rule="evenodd" clip-rule="evenodd" d="M4.002 21.29H7.84a2 2 0 0 0 1.736-1.007L17 7.29h-5.56a2 2 0 0 0-1.737 1.007l-6.57 11.496a1 1 0 0 0 .869 1.497Z" />
        <path d="M15 21.29v-10.5M21 21.29v-14M14 7.29v-2.5a1.5 1.5 0 0 0-3 0v2.5M21 11.29h-6M21 15.29h-6M21 19.29h-6M21 7.29v-2.5a1.5 1.5 0 0 0-3 0v2.5M17 7.29h4" />
    </symbol>
    <symbol viewBox="0 0 16 17" id="cross" xmlns="http://www.w3.org/2000/svg">
        <path d="M16 1.178 15.322.5 8 7.823.678.5 0 1.178 7.323 8.5 0 15.822l.678.678L8 9.177l7.322 7.323.678-.678L8.677 8.5 16 1.178Z" />
    </symbol>
    <symbol viewBox="0 0 16 16" id="cross-circle" xmlns="http://www.w3.org/2000/svg">
        <path d="M8.003 1.333a6.667 6.667 0 1 0 0 13.334 6.667 6.667 0 0 0 0-13.333Zm1.86 8.057-.471.47-1.39-1.388L6.614 9.86l-.471-.472L7.532 8l-1.39-1.39.471-.47 1.39 1.389 1.389-1.39.471.472L8.473 8l1.39 1.389Z" />
    </symbol>
    <symbol viewBox="0 0 24 24" id="fullscreen" xmlns="http://www.w3.org/2000/svg">
        <path d="M20 20H4V4h5V3H3v18h18v-6h-1v5ZM12 3v1h7.293l-9.646 9.646.707.707L20 4.707V12h1V3h-9Z" />
    </symbol>
    <symbol viewBox="0 0 28 28" id="google" xmlns="http://www.w3.org/2000/svg">
        <path fill-rule="evenodd" clip-rule="evenodd" d="M22.668 14.212c0-.662-.058-1.298-.167-1.909h-8.65v3.61h4.943a4.298 4.298 0 0 1-1.832 2.817v2.342h2.968c1.736-1.625 2.738-4.017 2.738-6.86Z" />
        <path fill-rule="evenodd" clip-rule="evenodd" d="M13.852 23.333c2.48 0 4.558-.835 6.078-2.26l-2.968-2.343c-.823.56-1.875.891-3.11.891-2.392 0-4.417-1.642-5.139-3.848H5.645v2.419c1.51 3.05 4.617 5.141 8.207 5.141Z" />
        <path fill-rule="evenodd" clip-rule="evenodd" d="M8.713 15.773A5.694 5.694 0 0 1 8.425 14c0-.615.104-1.213.288-1.773V9.808H5.645A9.454 9.454 0 0 0 4.668 14c0 1.506.355 2.931.977 4.192l3.068-2.419Z" />
        <path fill-rule="evenodd" clip-rule="evenodd" d="M13.852 8.379c1.348 0 2.559.47 3.51 1.396l2.634-2.677c-1.59-1.507-3.669-2.431-6.144-2.431-3.59 0-6.696 2.091-8.207 5.141l3.068 2.419c.722-2.206 2.747-3.848 5.139-3.848Z" />
    </symbol>
    <symbol viewBox="0 0 24 24" id="grid" xmlns="http://www.w3.org/2000/svg">
        <path d="M4.5 4.5h5v5h-5zM4.5 14.5h5v5h-5zM14.5 4.5h5v5h-5zM14.5 14.5h5v5h-5z" />
    </symbol>
    <symbol viewBox="0 0 24 25" id="help" xmlns="http://www.w3.org/2000/svg">
        <path fill-rule="evenodd" clip-rule="evenodd" d="M3 11.581c0 2.683 1.42 5.045 3.599 6.534-.001.855.001 2.007.001 3.216l3.531-1.747a9.896 9.896 0 0 0 1.869.18c4.952 0 9-3.644 9-8.183S16.952 3.4 12 3.4s-9 3.643-9 8.182Z" />
        <path d="M11.9 12.618v-.207c0-.678.418-1.044.838-1.326.41-.277.821-.637.821-1.3a1.659 1.659 0 0 0-3.319-.002M11.897 14.957a.148.148 0 0 0-.149.15.15.15 0 1 0 .15-.15" />
    </symbol>
    <symbol viewBox="0 0 32 32" id="linkedin" xmlns="http://www.w3.org/2000/svg">
        <path d="M25.28 5.111H6.716A1.608 1.608 0 0 0 5.109 6.72V25.28a1.608 1.608 0 0 0 1.608 1.608H25.28a1.608 1.608 0 0 0 1.607-1.608V6.72A1.608 1.608 0 0 0 25.28 5.11ZM11.6 23.663H8.326v-10.4H11.6v10.4ZM9.961 11.821a1.88 1.88 0 1 1 1.89-1.878 1.853 1.853 0 0 1-1.89 1.878Zm13.708 11.851h-3.273V17.99c0-1.675-.712-2.193-1.632-2.193-.97 0-1.923.732-1.923 2.236v5.64h-3.275V13.27h3.15v1.441h.041c.316-.64 1.424-1.733 3.113-1.733 1.827 0 3.8 1.085 3.8 4.26l-.001 6.434Z" />
    </symbol>
    <symbol viewBox="0 0 24 24" id="location" xmlns="http://www.w3.org/2000/svg">
        <path d="m11.331 18.93.669.602.669-.602c.259-.232 6.326-5.753 6.326-10.935a6.996 6.996 0 1 0-13.99 0c0 5.182 6.067 10.703 6.326 10.935ZM12 2a6.002 6.002 0 0 1 5.995 5.995c0 4.752-5.934 10.137-5.995 10.192-.06-.054-5.995-5.44-5.995-10.192A6.002 6.002 0 0 1 12 2ZM4 22v1h16v-1H4Zm9.5-14a1.5 1.5 0 1 0-3 0 1.5 1.5 0 0 0 3 0Zm-2.1 0a.6.6 0 1 1 1.2 0 .6.6 0 0 1-1.2 0Z" />
    </symbol>
    <symbol viewBox="0 0 24 24" id="message" xmlns="http://www.w3.org/2000/svg">
        <path d="M19 3a2.002 2.002 0 0 1 2 2v10a2.002 2.002 0 0 1-2 2H7.586l-.293.293L3 21.586V5a2.002 2.002 0 0 1 2-2h14Zm0-1H5a3 3 0 0 0-3 3v19l6-6h11a3 3 0 0 0 3-3V5a3 3 0 0 0-3-3Z" />
    </symbol>
    <symbol viewBox="0 0 24 24" id="ok" xmlns="http://www.w3.org/2000/svg">
        <path d="M12.096.889a5.763 5.763 0 0 0-5.768 5.758 5.764 5.764 0 0 0 5.768 5.76 5.763 5.763 0 0 0 5.768-5.76A5.763 5.763 0 0 0 12.096.89Zm0 8.14a2.383 2.383 0 0 1-2.384-2.381 2.382 2.382 0 0 1 2.384-2.38 2.382 2.382 0 0 1 2.385 2.38 2.383 2.383 0 0 1-2.385 2.38ZM14.134 16.988c2.309-.47 3.693-1.561 3.766-1.62a1.564 1.564 0 0 0 .242-2.2 1.57 1.57 0 0 0-2.204-.243c-.015.012-1.49 1.142-3.92 1.144-2.427-.002-3.935-1.132-3.949-1.144a1.57 1.57 0 0 0-2.205.242 1.564 1.564 0 0 0 .243 2.201c.074.06 1.515 1.18 3.889 1.639l-3.309 3.451a1.564 1.564 0 0 0 1.13 2.653c.41 0 .82-.16 1.128-.479l3.074-3.269 3.384 3.29a1.57 1.57 0 0 0 2.218-.001 1.564 1.564 0 0 0-.002-2.215l-3.485-3.449ZM12.017 14.069c-.004 0 .003 0 0 0-.004 0 .004 0 0 0Z" />
    </symbol>
    <symbol viewBox="0 0 36 36" id="phone" xmlns="http://www.w3.org/2000/svg">
        <path d="m24.798 20.37-3.963 3.963a20.599 20.599 0 0 1-9.168-9.168l3.962-3.962L11.3 2.938 7.66 4.103a6.677 6.677 0 0 0-4.573 7.702 27.611 27.611 0 0 0 7.476 13.634 27.611 27.611 0 0 0 13.633 7.475 6.677 6.677 0 0 0 7.704-4.573l1.164-3.641-8.265-4.33Zm5.672 7.515a5.194 5.194 0 0 1-5.953 3.565A26.264 26.264 0 0 1 4.551 11.483 5.194 5.194 0 0 1 8.115 5.53l2.44-.78 3.234 6.171-3.182 3.183-.77.77.493.97a22.094 22.094 0 0 0 9.826 9.826l.97.494.77-.77 3.183-3.183 6.171 3.234-.78 2.44ZM24.75 15h1.5A5.257 5.257 0 0 0 21 9.75v1.5A3.754 3.754 0 0 1 24.75 15Zm6 0h1.5A11.262 11.262 0 0 0 21 3.75v1.5A9.761 9.761 0 0 1 30.75 15Z" />
    </symbol>
    <symbol viewBox="0 0 24 25" id="pool" xmlns="http://www.w3.org/2000/svg">
        <path d="M3 16.909a4.434 4.434 0 0 1 3.6 0 4.434 4.434 0 0 0 3.6 0 4.434 4.434 0 0 1 3.6 0 4.434 4.434 0 0 0 3.6 0 4.434 4.434 0 0 1 3.6 0M8 8.29h8M8 12.29h8M16 14.29v-9.5a1.5 1.5 0 0 1 3 0M8 14.29v-9.5a1.5 1.5 0 0 1 3 0M3 20.909a4.434 4.434 0 0 1 3.6 0 4.434 4.434 0 0 0 3.6 0 4.434 4.434 0 0 1 3.6 0 4.434 4.434 0 0 0 3.6 0 4.434 4.434 0 0 1 3.6 0" />
    </symbol>
    <symbol viewBox="0 0 24 25" id="router" xmlns="http://www.w3.org/2000/svg">
        <path d="M14 17.29H7" />
        <path fill-rule="evenodd" clip-rule="evenodd" d="M7 13.29h10a4 4 0 0 1 0 8H7a4 4 0 0 1 0-8Z" />
        <path d="M17 13.29v-4M16.965 17.326a.05.05 0 0 1 0-.072.05.05 0 0 1 .07 0 .05.05 0 0 1 0 .072.05.05 0 0 1-.07 0M17 3.29a6.58 6.58 0 0 0-2.121.368 5.687 5.687 0 0 0-3.513 3.513A6.596 6.596 0 0 0 11 9.29M14 9.29c.039-1.755 1.244-2.96 3-3" />
    </symbol>
    <symbol viewBox="0 0 24 24" id="scales" xmlns="http://www.w3.org/2000/svg">
        <path d="M18.5 4h-6V2.5a.5.5 0 0 0-1 0V4h-6L1 13.994a4.68 4.68 0 0 0 4.5 3.203 4.68 4.68 0 0 0 4.5-3.203L5.95 5h5.55v14.93l-4.5.499V21h10v-.571l-4.5-.499V5h5.55L14 13.994a4.763 4.763 0 0 0 9 0L18.5 4Zm-13 12.197a3.676 3.676 0 0 1-3.415-2.177l.009-.02h6.812l.01.02A3.678 3.678 0 0 1 5.5 16.197ZM2.544 13 5.5 6.436 8.456 13H2.544Zm18.912 0h-5.912L18.5 6.436 21.456 13ZM18.5 16.197a3.677 3.677 0 0 1-3.415-2.177l.009-.02h6.812l.009.02a3.676 3.676 0 0 1-3.415 2.177Z" />
    </symbol>
    <symbol viewBox="0 0 16 16" id="scales-fill" xmlns="http://www.w3.org/2000/svg">
        <path d="M12.33 2.667h-4v-1a.333.333 0 0 0-.666 0v1h-4l-3 6.663a3.12 3.12 0 0 0 3 2.135 3.12 3.12 0 0 0 3-2.135l-2.7-5.997h3.7v9.954l-3 .332V14h6.667v-.38l-3-.333V3.333h3.7L9.33 9.33a3.176 3.176 0 0 0 6 0l-3-6.663Zm-8.666 8.131a2.45 2.45 0 0 1-2.277-1.451l.006-.013h4.542l.006.013a2.452 2.452 0 0 1-2.277 1.451Zm-1.97-2.131 1.97-4.376 1.97 4.376h-3.94Zm12.607 0h-3.94l1.97-4.376 1.97 4.376Zm-1.97 2.131a2.452 2.452 0 0 1-2.277-1.451l.006-.013h4.541l.006.013a2.45 2.45 0 0 1-2.276 1.451Z" />
        <path d="m1.694 8.667 1.97-4.376 1.97 4.376h-3.94ZM3.664 10.798a2.45 2.45 0 0 1-2.277-1.451l.006-.013h4.542l.006.013a2.452 2.452 0 0 1-2.277 1.451ZM14.301 8.667h-3.94l1.97-4.376 1.97 4.376ZM12.33 10.798a2.452 2.452 0 0 1-2.276-1.451l.006-.013h4.541l.006.013a2.45 2.45 0 0 1-2.276 1.451Z" />
    </symbol>
    <symbol viewBox="0 0 24 24" id="search" xmlns="http://www.w3.org/2000/svg">
        <path d="m21.854 21.146-5.86-5.86a8.02 8.02 0 1 0-.707.707l5.86 5.86.707-.707ZM10 17a7 7 0 1 1 7-7 7.008 7.008 0 0 1-7 7Z" />
    </symbol>
    <symbol viewBox="0 0 24 25" id="settings" xmlns="http://www.w3.org/2000/svg">
        <path d="M12.75 12.693V3.5h-1.5v9.193a2.902 2.902 0 0 0 0 5.614V21.5h1.5v-3.193a2.901 2.901 0 0 0 0-5.614ZM12 17.05a1.55 1.55 0 1 1 0-3.1 1.55 1.55 0 0 1 0 3.1Zm7.75-10.357V3.5h-1.5v3.193a2.902 2.902 0 0 0 0 5.614V21.5h1.5v-9.193a2.901 2.901 0 0 0 0-5.614ZM19 11.05a1.55 1.55 0 1 1 0-3.1 1.55 1.55 0 0 1 0 3.1ZM5.75 6.693V3.5h-1.5v3.193a2.902 2.902 0 0 0 0 5.614V21.5h1.5v-9.193a2.902 2.902 0 0 0 0-5.614ZM5 11.05a1.55 1.55 0 1 1 0-3.1 1.55 1.55 0 0 1 0 3.1Z" />
    </symbol>
    <symbol viewBox="0 0 24 24" id="share" xmlns="http://www.w3.org/2000/svg">
        <path d="M18 16a2.985 2.985 0 0 0-2.355 1.163l-7.813-4.21a2.77 2.77 0 0 0 0-1.905l7.813-4.21A2.985 2.985 0 1 0 15 5c.003.326.06.65.17.957l-7.812 4.21a3 3 0 1 0 0 3.667l7.812 4.21A2.992 2.992 0 1 0 18 16Zm0-13a2 2 0 1 1 0 4 2 2 0 0 1 0-4ZM5 14a2 2 0 1 1 0-4 2 2 0 0 1 0 4Zm13 7a2 2 0 1 1 0-4 2 2 0 0 1 0 4Z" />
    </symbol>
    <symbol viewBox="0 0 24 25" id="shower" xmlns="http://www.w3.org/2000/svg">
        <path d="M9 8.29a5 5 0 0 1 10 0v13" />
        <path fill-rule="evenodd" clip-rule="evenodd" d="M11.416 13.039H6.584a1.582 1.582 0 0 1-1.501-2.083A3.895 3.895 0 0 1 8.78 8.29h.44a3.896 3.896 0 0 1 3.697 2.665 1.582 1.582 0 0 1-1.501 2.083Z" />
        <path d="M9 20.29v1M9 17.29v-1M15 19.94l-.55-.83M12.24 15.79l.55.83M5.761 15.79l-.55.83M3.55 19.11l-.55.83" />
    </symbol>
    <symbol viewBox="0 0 24 25" id="skating" xmlns="http://www.w3.org/2000/svg">
        <path fill-rule="evenodd" clip-rule="evenodd" d="M3.5 16.79v-.567c0-1.46.18-2.916.533-4.332.355-1.417.534-2.872.534-4.333v-2.2A1.067 1.067 0 0 1 5.633 4.29h5.334a1.066 1.066 0 0 1 1.066 1.066V7.12a5.5 5.5 0 0 0 4.723 5.445l.168.024a3 3 0 0 1 2.576 2.97v1.232a1.5 1.5 0 0 1-1.5 1.5h-2.95a2.133 2.133 0 0 1-1.508-.625l-.884-.884c-.4-.4-.942-.625-1.508-.625H9.9c-.59 0-1.067.478-1.067 1.067a1.067 1.067 0 0 1-1.066 1.067H5a1.5 1.5 0 0 1-1.5-1.5Z" />
        <path d="M6 18.29v3M16.5 18.29v3M21 19.29a2 2 0 0 1-2 2H3M12.033 7.265H4.566" />
    </symbol>
    <symbol viewBox="0 0 24 24" id="snowflake" xmlns="http://www.w3.org/2000/svg">
        <path d="M22 11.483h-5.308l3.614-3.614-.612-.613-4.228 4.227h-2.949V8.534l4.227-4.228-.613-.612-3.614 3.614V2h-1.034v5.308L7.869 3.694l-.613.612 4.227 4.228v2.949H8.534L4.306 7.256l-.612.613 3.614 3.614H2v1.034h5.308l-3.614 3.614.612.613 4.228-4.227h2.949v2.949l-4.227 4.228.613.612 3.614-3.614V22h1.034v-5.308l3.614 3.614.613-.612-4.227-4.228v-2.949h2.949l4.228 4.227.612-.613-3.614-3.614H22v-1.034Z" />
    </symbol>
    <symbol viewBox="0 0 24 24" id="star" xmlns="http://www.w3.org/2000/svg">
        <path d="m12 1.158 3.012 6.291.117.244.268.036 6.914.92-5.052 4.81-.196.186.049.266 1.26 6.86-6.134-3.319-.238-.129-.238.13-6.135 3.319 1.261-6.86.049-.267-.196-.186-5.053-4.81 6.915-.92.268-.036.117-.244L12 1.158Z" />
    </symbol>
    <symbol viewBox="0 0 24 24" id="sun" xmlns="http://www.w3.org/2000/svg">
        <path d="M12.5 2h-1v4h1V2ZM8.11 7.404 5.283 4.575l-.707.707 2.829 2.829.707-.707ZM6 11.5H2v1h4v-1Zm-1.425 7.218.707.707 2.829-2.829-.707-.707-2.829 2.829ZM11.5 22h1v-4h-1v4Zm4.39-5.404 2.828 2.829.707-.707-2.829-2.829-.707.707ZM18 11.5v1h4v-1h-4Zm1.425-6.218-.707-.707-2.829 2.829.707.707 2.829-2.829ZM12 8a4 4 0 1 0 0 8 4 4 0 0 0 0-8Zm0 7a3 3 0 1 1 0-5.999A3 3 0 0 1 12 15Z" />
    </symbol>
    <symbol viewBox="0 0 33 32" id="telegram" xmlns="http://www.w3.org/2000/svg">
        <path fill-rule="evenodd" clip-rule="evenodd" d="M4.425 13.99c7.516-3.275 12.528-5.434 15.036-6.477C26.62 4.535 28.109 4.017 29.078 4c.214-.004.69.05 1 .3.26.212.332.498.366.698.035.2.078.658.044 1.015-.389 4.077-2.067 13.97-2.921 18.537-.362 1.932-1.074 2.58-1.762 2.643-1.498.138-2.635-.99-4.085-1.94-2.27-1.488-3.551-2.414-5.754-3.865-2.545-1.678-.895-2.6.556-4.106.38-.395 6.976-6.395 7.104-6.94.016-.068.03-.321-.12-.455s-.373-.088-.534-.052c-.228.052-3.853 2.448-10.875 7.188-1.03.707-1.961 1.051-2.796 1.033-.92-.02-2.692-.52-4.008-.948-1.615-.525-2.898-.803-2.786-1.694.058-.464.697-.94 1.918-1.425Z" />
    </symbol>
    <symbol viewBox="0 0 24 25" id="tv" xmlns="http://www.w3.org/2000/svg">
        <path fill-rule="evenodd" clip-rule="evenodd" d="M20 17.861H4a2.286 2.286 0 0 1-2.285-2.286v-8A2.286 2.286 0 0 1 4 5.292h16a2.286 2.286 0 0 1 2.286 2.286v8A2.286 2.286 0 0 1 20 17.86Z" />
        <path d="m16.898 9.79-1.336 4h-.915l-1.337-4M8.9 9.79v4M10.692 9.79h-3.59M8 21.29h8" />
    </symbol>
    <symbol viewBox="0 0 28 28" id="twitter" xmlns="http://www.w3.org/2000/svg">
        <path d="M21.416 9.984c.008.176.008.344.008.52C21.432 15.84 17.58 22 10.536 22c-2.077 0-4.117-.632-5.868-1.816a7.43 7.43 0 0 0 5.664-1.68c-1.638-.032-3.079-1.16-3.579-2.808.576.12 1.168.096 1.729-.072C6.7 15.256 5.419 13.6 5.41 11.672v-.048c.53.312 1.13.488 1.736.504-1.675-1.184-2.199-3.544-1.183-5.392 1.949 2.528 4.815 4.056 7.893 4.224-.31-1.4.114-2.872 1.107-3.864 1.54-1.528 3.966-1.448 5.421.176a7.37 7.37 0 0 0 2.434-.984 4.038 4.038 0 0 1-1.683 2.232 7.562 7.562 0 0 0 2.199-.632 8.084 8.084 0 0 1-1.919 2.096Z" />
    </symbol>
    <symbol viewBox="0 0 33 32" id="vk" xmlns="http://www.w3.org/2000/svg">
        <path d="M17.93 25.968C6.995 25.968.76 18.471.5 6h5.477c.18 9.154 4.217 13.032 7.415 13.831V6h5.157v7.895c3.158-.34 6.475-3.937 7.595-7.895H31.3c-.86 4.877-4.458 8.475-7.016 9.954 2.558 1.199 6.656 4.337 8.215 10.014h-5.677c-1.219-3.798-4.257-6.736-8.274-7.136v7.136h-.62Z" />
    </symbol>
    <symbol viewBox="0 0 24 24" id="weather" xmlns="http://www.w3.org/2000/svg">
        <path d="M20.642 8.36c.006-.102.03-.2.03-.304a4.943 4.943 0 0 0-4.944-4.944 4.89 4.89 0 0 0-2.402.648 5.663 5.663 0 0 0-9.734 4.508A3.993 3.993 0 0 0 5 16h14a3.995 3.995 0 0 0 1.642-7.64ZM19 15H5a3.003 3.003 0 0 1-3-3 2.972 2.972 0 0 1 1.946-2.797l.722-.272-.08-.768A4.663 4.663 0 0 1 9.227 3a4.625 4.625 0 0 1 3.375 1.45l.535.562.677-.38a3.881 3.881 0 0 1 1.913-.52 3.946 3.946 0 0 1 3.945 3.927l-.007.054c-.01.068-.018.136-.023.205l-.042.69.629.283a2.995 2.995 0 0 1-1.23 5.73Zm-8.51 3.947-1.64.947V18h-.7v1.894l-1.64-.947-.35.606 1.64.947-1.64.947.35.606 1.64-.947V23h.7v-1.894l1.64.947.35-.606L9.2 20.5l1.64-.947-.35-.606Zm7 0-1.64.947V18h-.7v1.894l-1.64-.947-.35.606 1.64.947-1.64.947.35.606 1.64-.947V23h.7v-1.894l1.64.947.35-.606-1.64-.947 1.64-.947-.35-.606Z" />
    </symbol>
    <symbol viewBox="0 0 33 32" id="whatsapp" xmlns="http://www.w3.org/2000/svg">
        <path d="M.634 15.857a15.773 15.773 0 0 0 2.127 7.927L.5 32l8.446-2.205a15.98 15.98 0 0 0 7.614 1.93h.007c8.78 0 15.93-7.114 15.933-15.856A15.725 15.725 0 0 0 27.837 4.65 15.87 15.87 0 0 0 16.567 0C7.784 0 .637 7.113.634 15.857Zm5.03 7.512-.316-.498a13.1 13.1 0 0 1-2.024-7.014C3.326 8.591 9.267 2.678 16.572 2.678a13.188 13.188 0 0 1 9.362 3.865 13.07 13.07 0 0 1 3.876 9.325c-.003 7.266-5.944 13.18-13.243 13.18h-.006a13.274 13.274 0 0 1-6.74-1.838l-.484-.286-5.012 1.309 1.338-4.864Z" />
        <path d="m5.663 23.37-.315-.5a13.1 13.1 0 0 1-2.024-7.013C3.326 8.591 9.267 2.678 16.572 2.678a13.188 13.188 0 0 1 9.362 3.865 13.07 13.07 0 0 1 3.876 9.325c-.003 7.266-5.944 13.18-13.243 13.18h-.006a13.274 13.274 0 0 1-6.74-1.838l-.484-.286-5.012 1.309 1.338-4.864Z" />
        <path fill-rule="evenodd" clip-rule="evenodd" d="M12.584 9.227c-.298-.66-.612-.673-.896-.685-.232-.01-.497-.01-.763-.01-.265 0-.696.1-1.061.497-.365.396-1.394 1.355-1.394 3.305 0 1.95 1.427 3.834 1.626 4.099.2.264 2.754 4.394 6.8 5.982 3.363 1.32 4.048 1.058 4.778.992.73-.066 2.355-.959 2.687-1.884.332-.926.332-1.719.232-1.885-.1-.165-.365-.264-.763-.462s-2.355-1.157-2.72-1.29c-.365-.131-.63-.197-.896.2-.266.396-1.028 1.288-1.26 1.552-.233.265-.465.298-.863.1-.398-.199-1.68-.617-3.202-1.967-1.183-1.05-1.982-2.348-2.214-2.745-.233-.396-.025-.61.174-.808.18-.178.399-.463.598-.694.198-.232.265-.397.397-.661.133-.265.067-.496-.033-.694-.1-.199-.873-2.159-1.227-2.942" />
    </symbol>
    <symbol viewBox="0 0 24 24" id="yandex" xmlns="http://www.w3.org/2000/svg">
        <path d="M17.831 21.26h-3.235V5.243H13.15c-2.646 0-4.03 1.323-4.03 3.296 0 2.239.957 3.277 2.93 4.6l1.629 1.098L9 21.26H5.52l4.212-6.268c-2.422-1.73-3.785-3.418-3.785-6.267 0-3.562 2.483-5.983 7.183-5.983h4.68v18.518h.021Z" />
    </symbol>
</svg>