<svg width="48" height="53" viewBox="0 0 48 53" fill="none" xmlns="http://www.w3.org/2000/svg">
<rect y="0.00012207" width="48" height="48" rx="24" fill="#4E8580"/>
<path d="M24 53.0001L32.6603 41.7501H15.3397L24 53.0001Z" fill="#4E8580"/>
<g>
<path d="M23.9086 39.6618C32.4011 39.6618 39.309 32.7301 39.309 24.2113C39.309 15.6925 32.3998 8.76086 23.9086 8.76086C15.4175 8.76086 8.5083 15.6925 8.5083 24.2113C8.5083 32.7301 15.4175 39.6618 23.9086 39.6618ZM23.9086 11.2181C31.0497 11.2181 36.8584 17.047 36.8584 24.2101C36.8584 31.3732 31.0485 37.2033 23.9086 37.2033C16.7688 37.2033 10.9588 31.3744 10.9588 24.2101C10.9588 17.0457 16.7675 11.2181 23.9086 11.2181Z" fill="white"/>
<path d="M30.146 26.3449C30.3729 26.1438 30.5658 25.9136 30.7246 25.6569C31.0322 25.1548 31.1885 24.5617 31.1885 23.8927C31.1885 23.2237 31.0322 22.6432 30.7246 22.1411C30.5695 21.8882 30.3805 21.6618 30.1599 21.4633C30.1838 21.5138 30.2078 21.5657 30.2292 21.6175C30.5002 22.2537 30.6389 23.0188 30.6389 23.8927C30.6389 24.7666 30.5015 25.5203 30.2305 26.159C30.204 26.2222 30.175 26.2842 30.146 26.3449Z" fill="white"/>
<path d="M23.9087 36.6265C30.7321 36.6265 36.2836 31.0569 36.2836 24.2113C36.2836 17.3656 30.7321 11.796 23.9087 11.796C17.0852 11.796 11.5337 17.3656 11.5337 24.2113C11.5337 31.0569 17.0852 36.6265 23.9087 36.6265ZM26.4437 31.4401H21.3938V30.5258H21.5136C21.7581 30.5258 21.9863 30.4158 22.1388 30.2248C22.2914 30.0338 22.3493 29.7872 22.2977 29.5469L20.4144 20.9484H21.3762L23.2128 29.3357C23.296 29.7177 23.2532 30.1097 23.0956 30.4562H23.8746L21.7947 20.9484H22.7931L24.6751 29.9693L24.907 28.7767H25.7188L25.5499 29.5457C25.497 29.7847 25.555 30.0313 25.7088 30.2235C25.8613 30.4145 26.0894 30.5245 26.334 30.5245H26.4411V31.4389L26.4437 31.4401ZM31.5578 21.6263C31.9624 22.2852 32.1679 23.0478 32.1679 23.8926C32.1679 24.7374 31.9624 25.5139 31.5578 26.1728C31.1531 26.8304 30.5796 27.3489 29.8535 27.7144C29.1249 28.0799 28.2778 28.2646 27.3336 28.2646H24.7595L24.5793 27.3502H26.7928C27.3929 27.3502 27.9147 27.2161 28.3471 26.9531C28.7795 26.69 29.111 26.2929 29.3316 25.7744C29.551 25.2584 29.6619 24.6248 29.6619 23.8926C29.6619 23.1603 29.551 22.5166 29.3316 22.0044C29.111 21.4897 28.7795 21.0951 28.3471 20.8321C28.2475 20.7714 28.1404 20.7183 28.0219 20.6689L28.2513 19.6205C28.7417 19.704 29.4035 19.8507 29.8522 20.0771C30.5783 20.4464 31.1519 20.9674 31.5565 21.625L31.5578 21.6263ZM25.3508 16.9837H29.1766V17.8981H28.8299C28.4089 17.8981 28.0383 18.1978 27.9488 18.6088L26.1474 26.8355H25.289L26.8206 18.9756C26.8723 18.7087 26.8042 18.4355 26.6315 18.2256C26.4588 18.0157 26.2054 17.8955 25.9344 17.8955H25.3508V16.9812V16.9837ZM18.6622 16.9837H23.712V17.8981H23.2935C23.0225 17.8981 22.7679 18.0182 22.5964 18.2281C22.4237 18.4381 22.3556 18.7125 22.4086 18.9793L22.4136 19.0084H21.3838C21.3447 18.648 21.409 18.2876 21.5678 17.9663H20.6677C20.7358 18.1017 20.7875 18.2471 20.8203 18.3989L20.9539 19.0084H19.9921L19.9051 18.6101C19.8156 18.1978 19.4437 17.8993 19.024 17.8993H18.6647V16.985L18.6622 16.9837ZM16.1448 27.3502H16.4865C16.9844 27.3502 17.389 26.9442 17.389 26.4447V21.3417C17.389 20.8422 16.9844 20.4362 16.4865 20.4362H16.1448V19.5219H26.1915L26.0138 20.4362H19.6227V27.3515H21.293L21.4934 28.2658H16.1448V27.3515V27.3502Z" fill="white"/>
<path d="M18.3179 21.29V26.4954C18.3179 26.8027 18.2474 27.0923 18.1226 27.3503H18.71V20.4351H18.1226C18.2474 20.6931 18.3179 20.9827 18.3179 21.29Z" fill="white"/>
</g>
</svg>
