<svg width="48" height="54" viewBox="0 0 48 54" fill="none" xmlns="http://www.w3.org/2000/svg">
<rect y="0.500122" width="48" height="48" rx="24" fill="#D7926D"/>
<path d="M24 53.5001L32.6603 42.2501H15.3397L24 53.5001Z" fill="#D7926D"/>
<g clip-path="url(#clip0_203_31636)">
<path d="M23.9084 40.1618C32.4008 40.1618 39.3087 33.2302 39.3087 24.7113C39.3087 16.1925 32.3996 9.26086 23.9084 9.26086C15.4172 9.26086 8.50806 16.1925 8.50806 24.7113C8.50806 33.2302 15.4172 40.1618 23.9084 40.1618ZM23.9084 11.7181C31.0495 11.7181 36.8582 17.547 36.8582 24.7101C36.8582 31.8732 31.0482 37.7033 23.9084 37.7033C16.7685 37.7033 10.9586 31.8744 10.9586 24.7101C10.9586 17.5457 16.7673 11.7181 23.9084 11.7181Z" fill="white"/>
<path d="M30.1458 26.8449C30.3727 26.6438 30.5655 26.4136 30.7244 26.1569C31.0319 25.6548 31.1882 25.0617 31.1882 24.3927C31.1882 23.7237 31.0319 23.1432 30.7244 22.6411C30.5693 22.3882 30.3802 22.1618 30.1596 21.9633C30.1836 22.0138 30.2075 22.0657 30.2289 22.1175C30.5 22.7537 30.6386 23.5188 30.6386 24.3927C30.6386 25.2666 30.5012 26.0203 30.2302 26.659C30.2037 26.7222 30.1747 26.7842 30.1458 26.8449Z" fill="white"/>
<path d="M23.9084 37.1265C30.7319 37.1265 36.2834 31.5569 36.2834 24.7113C36.2834 17.8656 30.7319 12.296 23.9084 12.296C17.085 12.296 11.5334 17.8656 11.5334 24.7113C11.5334 31.5569 17.085 37.1265 23.9084 37.1265ZM26.4434 31.9401H21.3936V31.0258H21.5133C21.7579 31.0258 21.9861 30.9158 22.1386 30.7248C22.2911 30.5338 22.3491 30.2872 22.2974 30.0469L20.4141 21.4484H21.3759L23.2126 29.8357C23.2958 30.2177 23.2529 30.6097 23.0954 30.9562H23.8744L21.7944 21.4484H22.7928L24.6748 30.4693L24.9068 29.2767H25.7186L25.5497 30.0457C25.4967 30.2847 25.5547 30.5313 25.7085 30.7235C25.861 30.9145 26.0892 31.0245 26.3337 31.0245H26.4409V31.9389L26.4434 31.9401ZM31.5575 22.1263C31.9622 22.7852 32.1676 23.5478 32.1676 24.3926C32.1676 25.2374 31.9622 26.0139 31.5575 26.6728C31.1529 27.3304 30.5793 27.8489 29.8532 28.2144C29.1246 28.5799 28.2775 28.7646 27.3334 28.7646H24.7593L24.579 27.8502H26.7926C27.3926 27.8502 27.9145 27.7161 28.3469 27.4531C28.7792 27.19 29.1108 26.7929 29.3314 26.2744C29.5507 25.7584 29.6616 25.1248 29.6616 24.3926C29.6616 23.6603 29.5507 23.0166 29.3314 22.5044C29.1108 21.9897 28.7792 21.5951 28.3469 21.3321C28.2473 21.2714 28.1401 21.2183 28.0216 21.1689L28.2511 20.1205C28.7414 20.204 29.4032 20.3507 29.852 20.5771C30.5781 20.9464 31.1516 21.4674 31.5563 22.125L31.5575 22.1263ZM25.3505 17.4837H29.1763V18.3981H28.8297C28.4086 18.3981 28.038 18.6978 27.9485 19.1088L26.1472 27.3355H25.2887L26.8203 19.4756C26.872 19.2087 26.8039 18.9355 26.6312 18.7256C26.4585 18.5157 26.2052 18.3955 25.9341 18.3955H25.3505V17.4812V17.4837ZM18.6619 17.4837H23.7118V18.3981H23.2933C23.0222 18.3981 22.7676 18.5182 22.5962 18.7281C22.4235 18.9381 22.3554 19.2125 22.4083 19.4793L22.4134 19.5084H21.3835C21.3444 19.148 21.4087 18.7876 21.5675 18.4663H20.6675C20.7356 18.6017 20.7873 18.7471 20.82 18.8989L20.9537 19.5084H19.9918L19.9049 19.1101C19.8154 18.6978 19.4435 18.3993 19.0237 18.3993H18.6645V17.485L18.6619 17.4837ZM16.1446 27.8502H16.4862C16.9841 27.8502 17.3888 27.4442 17.3888 26.9447V21.8417C17.3888 21.3422 16.9841 20.9362 16.4862 20.9362H16.1446V20.0219H26.1913L26.0136 20.9362H19.6225V27.8515H21.2927L21.4932 28.7658H16.1446V27.8515V27.8502Z" fill="white"/>
<path d="M18.3177 21.79V26.9954C18.3177 27.3027 18.2471 27.5923 18.1223 27.8503H18.7097V20.9351H18.1223C18.2471 21.1931 18.3177 21.4827 18.3177 21.79Z" fill="white"/>
</g>
<defs>
<clipPath id="clip0_203_31636">
<rect width="32" height="32" fill="white" transform="translate(8 8.50012)"/>
</clipPath>
</defs>
</svg>
