<?xml version="1.0" encoding="utf-8"?>
<!-- Generator: Adobe Illustrator 19.0.1, SVG Export Plug-In . SVG Version: 6.00 Build 0)  -->
<svg version="1.1" id="Layer_1" xmlns="http://www.w3.org/2000/svg" xmlns:xlink="http://www.w3.org/1999/xlink" x="0px" y="0px"
	 viewBox="243.1 14.1 1266.7 522.1" style="enable-background:new 243.1 14.1 1266.7 522.1;" xml:space="preserve">
<style type="text/css">
	.st0{fill:#F6E5A3;}
	.st1{fill:#D6AD47;}
	.st2{fill:#D6AD46;}
</style>
<path class="st0" d="M740.2,198.9c-0.1-4.3-1.3-6-5.9-4.3c-6.4,2.3-13,3.9-19.4,6.2c-27,9.5-54.1,18.8-78.4,34.5
	c-11.9,7.7-17.7,17.2-17.4,32.1c1.3,55.2,1.8,110.5,1.8,165.8c0,12.8-0.5,26.6-5.1,38.3c-12.3,31.7-43.7,43.5-73.1,42.8
	c-13.4-0.3-22.9-7.8-26.4-21.1c-2-7.6-3.3-15.6-3.4-23.5c-0.4-36.4-0.2-72.8-0.1-109.1c0.1-28.1,0.3-56.2,0.4-84.3
	c-0.1-27.2-0.2-54.4-0.3-81.6c0-2.7-0.7-7.2-1.4-9.3c-1-2.9-2.3-4.9-5.8-5.2c-3.4,0.4-4.7,2.4-5.8,5.2c-0.8,2.1-1.4,6.6-1.4,9.3
	c-0.1,27.2-0.2,54.4-0.3,81.6c0.1,28.1,0.4,56.2,0.4,84.3c0.1,36.4,0.2,72.8-0.1,109.1c-0.1,7.8-1.4,15.9-3.4,23.5
	c-3.5,13.3-13,20.8-26.4,21.1c-29.3,0.7-60.8-11.1-73.1-42.8c-4.5-11.7-5.1-25.5-5.1-38.3c0-55.3,0.5-110.5,1.8-165.8
	c0.3-15-5.5-24.4-17.4-32.1c-24.3-15.8-51.4-25.1-78.4-34.5c-6.4-2.2-13-3.9-19.4-6.2c-4.6-1.6-5.8,0-5.9,4.3
	c-2.4,77.8,6.1,153.7,45.1,222.8c34.3,60.8,86.9,95.6,156.2,105.7c11.2,1.6,22.2,2.5,33.2,2.6c10.9-0.1,22-1,33.2-2.6
	c69.3-10.1,121.9-44.9,156.2-105.7C734.1,352.6,742.5,276.7,740.2,198.9z"/>
<path class="st1" d="M768,266c-2.6-31.8-8.5-63.1-21.2-92.7c-1.8-4.1-3.6-6.2-8.5-4.4c-56.5,21.1-112.8,42.5-164.4,74.4
	c-10.4,6.5-19.4,15.3-29.1,23c-1.3,1-2.7,1.9-4,2.8c-0.2-1.6-0.8-3.3-0.7-4.9c1-24.5,2.1-49,3.2-73.5c0.3-5.9,0.8-11.2-8-11.4
	c-8.7-0.1-9.4,4.6-9.5,11.3c-0.6,25.1-1.9,50.2-2.1,75.3c-0.1,8.1-2.5,11.4-10.5,10.3c-0.1,28.1-0.4,56.2-0.4,84.3
	c-0.1,36.4-0.2,72.8,0.1,109.1c0.1,7.8,1.4,15.9,3.4,23.5c3.5,13.3,13,20.8,26.4,21.1c29.3,0.7,60.8-11.1,73.1-42.8
	c4.5-11.7,5.1-25.5,5.1-38.3c0-55.3-0.5-110.5-1.8-165.8c-0.3-15,5.5-24.4,17.4-32.1c24.3-15.8,51.4-25.1,78.4-34.5
	c6.4-2.2,13-3.9,19.4-6.2c4.6-1.6,5.8,0,5.9,4.3c2.4,77.8-6.1,153.7-45.1,222.8c-34.3,60.8-86.9,95.6-156.2,105.7
	c-11.2,1.6-22.2,2.5-33.2,2.6c-10.9-0.1-22-1-33.2-2.6c-69.3-10.1-121.9-44.9-156.2-105.7c-39-69.2-47.5-145-45.1-222.8
	c0.1-4.3,1.3-6,5.9-4.3c6.4,2.3,13,3.9,19.4,6.2c27,9.5,54.1,18.8,78.4,34.5c11.9,7.7,17.7,17.2,17.4,32.1
	c-1.3,55.2-1.8,110.5-1.8,165.8c0,12.8,0.5,26.6,5.1,38.3c12.3,31.7,43.7,43.5,73.1,42.8c13.4-0.3,22.9-7.8,26.4-21.1
	c2-7.6,3.3-15.6,3.4-23.5c0.4-36.4,0.2-72.8,0.1-109.1c-0.1-28.1-0.3-56.2-0.4-84.3c-8,1.2-10.4-2.2-10.5-10.3
	c-0.2-25.1-1.5-50.2-2.1-75.3c-0.2-6.7-0.8-11.4-9.5-11.3c-8.8,0.1-8.3,5.5-8,11.4c1.1,24.5,2.2,49,3.2,73.5
	c0.1,1.6-0.4,3.3-0.7,4.9c-1.3-0.9-2.7-1.8-4-2.8c-9.7-7.7-18.7-16.5-29.1-23C386,211.4,329.6,190,273.1,168.9
	c-4.9-1.8-6.7,0.2-8.5,4.4c-12.7,29.6-18.6,61-21.2,92.7c-1.2,14.4,1.4,29.3,3.4,43.9c18,131.7,130,226,258.9,226.3
	c128.9-0.3,240.9-94.5,258.9-226.3C766.6,295.3,769.2,280.4,768,266z M591.2,356.4c-0.6,31.3,0,62.6,0,93.9
	c0,36.6-7.7,45.6-43.8,51.5c-0.3,0-0.6,0.1-0.9,0.1c-6,1.5-8.2-0.4-8.2-7c0.2-49.9-1.6-99.9,0.7-149.8c1.7-38,22.2-66.9,55.6-86
	C594.8,258.9,591.8,324,591.2,356.4z M416.7,259.2c33.4,19,53.8,48,55.6,86c2.3,49.8,0.5,99.8,0.7,149.8c0,6.6-2.1,8.5-8.2,7
	c-0.3-0.1-0.6-0.1-0.9-0.1c-36.1-5.9-43.8-15-43.8-51.5c0-31.3,0.6-62.6,0-93.9C419.6,324,416.6,258.9,416.7,259.2z"/>
<path class="st2" d="M505.7,106.8L505.7,106.8c-2,0-3.7-1.6-3.7-3.7V17.8c0-2,1.6-3.7,3.7-3.7l0,0c2,0,3.7,1.6,3.7,3.7v85.4
	C509.4,105.2,507.7,106.8,505.7,106.8z"/>
<path class="st2" d="M520.5,107.5L520.5,107.5c-2-0.2-3.5-2-3.3-4l7.4-85.1c0.2-2,2-3.5,4-3.3l0,0c2,0.2,3.5,2,3.3,4l-7.4,85.1
	C524.3,106.1,522.5,107.6,520.5,107.5z"/>
<path class="st2" d="M491,107.5L491,107.5c-2,0.2-3.8-1.3-4-3.3l-7.4-85.1c-0.2-2,1.3-3.8,3.3-4l0,0c2-0.2,3.8,1.3,4,3.3l7.4,85.1
	C494.5,105.5,493,107.3,491,107.5z"/>
<path class="st2" d="M461.9,112.6L461.9,112.6c-2,0.5-4-0.6-4.5-2.6l-22.1-82.5c-0.5-2,0.6-4,2.6-4.5l0,0c2-0.5,4,0.6,4.5,2.6
	l22.1,82.5C465,110,463.9,112.1,461.9,112.6z"/>
<path class="st2" d="M476.3,109.4L476.3,109.4c-2,0.4-3.9-1-4.2-3l-14.8-84.1c-0.4-2,1-3.9,3-4.2l0,0c2-0.4,3.9,1,4.2,3l14.8,84.1
	C479.7,107.1,478.3,109,476.3,109.4z"/>
<path class="st2" d="M447.9,117L447.9,117c-1.9,0.7-4-0.3-4.7-2.2L414,34.6c-0.7-1.9,0.3-4,2.2-4.7l0,0c1.9-0.7,4,0.3,4.7,2.2
	l29.2,80.2C450.7,114.2,449.8,116.3,447.9,117z"/>
<path class="st2" d="M549.5,112.6L549.5,112.6c-2-0.5-3.1-2.5-2.6-4.5L569,25.6c0.5-2,2.5-3.1,4.5-2.6l0,0c2,0.5,3.1,2.5,2.6,4.5
	L554,110C553.5,111.9,551.5,113.1,549.5,112.6z"/>
<path class="st2" d="M563.6,117L563.6,117c-1.9-0.7-2.9-2.8-2.2-4.7l29.2-80.2c0.7-1.9,2.8-2.9,4.7-2.2l0,0c1.9,0.7,2.9,2.8,2.2,4.7
	l-29.2,80.2C567.6,116.7,565.5,117.7,563.6,117z"/>
<path class="st2" d="M535.1,109.4L535.1,109.4c-2-0.4-3.3-2.3-3-4.2l14.8-84.1c0.4-2,2.3-3.3,4.2-3l0,0c2,0.4,3.3,2.3,3,4.2
	l-14.8,84.1C539,108.4,537.1,109.7,535.1,109.4z"/>
<path class="st2" d="M625.3,156.4L625.3,156.4c-1.4-1.4-1.4-3.8,0-5.2l60.4-60.4c1.4-1.4,3.8-1.4,5.2,0l0,0c1.4,1.4,1.4,3.8,0,5.2
	l-60.4,60.4C629.1,157.8,626.8,157.8,625.3,156.4z"/>
<path class="st2" d="M635.3,167.2L635.3,167.2c-1.3-1.6-1.1-3.9,0.5-5.2l65.4-54.9c1.6-1.3,3.9-1.1,5.2,0.5l0,0
	c1.3,1.6,1.1,3.9-0.5,5.2l-65.4,54.9C638.9,169,636.6,168.8,635.3,167.2z"/>
<path class="st2" d="M614.5,146.4L614.5,146.4c-1.6-1.3-1.8-3.6-0.5-5.2l54.9-65.4c1.3-1.6,3.6-1.8,5.2-0.5l0,0
	c1.6,1.3,1.8,3.6,0.5,5.2l-54.9,65.4C618.3,147.5,616,147.7,614.5,146.4z"/>
<path class="st2" d="M590.3,129.5L590.3,129.5c-1.8-1-2.4-3.3-1.3-5l42.7-73.9c1-1.8,3.3-2.4,5-1.3l0,0c1.8,1,2.4,3.3,1.3,5
	l-42.7,73.8C594.3,129.9,592.1,130.5,590.3,129.5z"/>
<path class="st2" d="M602.8,137.4L602.8,137.4c-1.7-1.2-2.1-3.4-0.9-5.1l49-69.9c1.2-1.7,3.4-2.1,5.1-0.9l0,0
	c1.7,1.2,2.1,3.4,0.9,5.1l-49,69.9C606.7,138.2,604.4,138.6,602.8,137.4z"/>
<path class="st2" d="M577.2,122.7L577.2,122.7c-1.8-0.9-2.6-3-1.8-4.9l36.1-77.4c0.9-1.8,3-2.6,4.9-1.8l0,0c1.8,0.9,2.6,3,1.8,4.9
	l-36.1,77.4C581.2,122.7,579,123.5,577.2,122.7z"/>
<path class="st2" d="M652.2,191.4L652.2,191.4c-1-1.8-0.4-4,1.3-5l73.9-42.7c1.8-1,4-0.4,5,1.3l0,0c1,1.8,0.4,4-1.3,5l-73.9,42.7
	C655.5,193.8,653.2,193.2,652.2,191.4z"/>
<path class="st2" d="M644.3,179L644.3,179c-1.2-1.7-0.8-3.9,0.9-5.1l69.9-49c1.7-1.2,3.9-0.8,5.1,0.9l0,0c1.2,1.7,0.8,3.9-0.9,5.1
	l-69.9,49C647.7,181,645.5,180.6,644.3,179z"/>
<path class="st2" d="M386.1,156.4L386.1,156.4c-1.4,1.4-3.8,1.4-5.2,0L320.5,96c-1.4-1.4-1.4-3.8,0-5.2l0,0c1.4-1.4,3.8-1.4,5.2,0
	l60.4,60.4C387.5,152.6,387.5,154.9,386.1,156.4z"/>
<path class="st2" d="M397,146.4L397,146.4c-1.6,1.3-3.9,1.1-5.2-0.5l-54.9-65.4c-1.3-1.6-1.1-3.9,0.5-5.2l0,0
	c1.6-1.3,3.9-1.1,5.2,0.5l54.9,65.4C398.7,142.8,398.5,145.1,397,146.4z"/>
<path class="st2" d="M376.1,167.2L376.1,167.2c-1.3,1.6-3.6,1.8-5.2,0.5l-65.4-54.9c-1.6-1.3-1.8-3.6-0.5-5.2l0,0
	c1.3-1.6,3.6-1.8,5.2-0.5l65.4,54.9C377.2,163.4,377.4,165.7,376.1,167.2z"/>
<path class="st2" d="M359.2,191.4L359.2,191.4c-1,1.8-3.3,2.4-5,1.3l-73.9-42.6c-1.8-1-2.4-3.3-1.3-5l0,0c1-1.8,3.3-2.4,5-1.3
	l73.9,42.7C359.6,187.4,360.2,189.7,359.2,191.4z"/>
<path class="st2" d="M367.1,179L367.1,179c-1.2,1.7-3.4,2.1-5.1,0.9l-69.9-49c-1.7-1.2-2.1-3.4-0.9-5.1l0,0c1.2-1.7,3.4-2.1,5.1-0.9
	l69.9,49C367.9,175,368.3,177.3,367.1,179z"/>
<path class="st2" d="M421.1,129.5L421.1,129.5c-1.8,1-4,0.4-5-1.3l-42.7-73.9c-1-1.8-0.4-4,1.3-5l0,0c1.8-1,4-0.4,5,1.3l42.7,73.9
	C423.5,126.2,422.9,128.5,421.1,129.5z"/>
<path class="st2" d="M434.2,122.7L434.2,122.7c-1.8,0.9-4,0.1-4.9-1.8l-36.1-77.4c-0.9-1.8-0.1-4,1.8-4.9l0,0c1.8-0.9,4-0.1,4.9,1.8
	l36.1,77.4C436.8,119.6,436.1,121.8,434.2,122.7z"/>
<path class="st2" d="M408.7,137.4L408.7,137.4c-1.7,1.2-3.9,0.8-5.1-0.9l-49-69.9c-1.2-1.7-0.8-3.9,0.9-5.1l0,0
	c1.7-1.2,3.9-0.8,5.1,0.9l49,69.9C410.7,134,410.3,136.3,408.7,137.4z"/>
<g>
	<path d="M881.1,193.2h-8.8v-65.3h29.4c12.1,0,19.3,7.8,19.3,18.4c0,9.1-5.2,19.4-19.3,19.4h-20.6L881.1,193.2L881.1,193.2z
		 M881.1,158.1h17.5c7.9,0,13.3-3,13.3-11.8c0-8.2-5.7-10.9-13-10.9H881v22.7H881.1z"/>
	<path d="M960.9,194.9c-24.4,0-31.8-20.2-31.8-34.4c0-14.1,7.4-34.4,31.8-34.4c24.4,0,31.8,20.2,31.8,34.4
		C992.6,174.6,985.3,194.9,960.9,194.9z M960.9,133.9c-14.2,0-22.7,11-22.7,26.4s8.5,26.7,22.7,26.7s22.7-11.2,22.7-26.5
		C983.6,145.1,975.1,133.9,960.9,133.9z"/>
	<path d="M1049.4,147.5c-2.4-11.5-12-13.6-18.3-13.6c-11.8,0-21.3,8.7-21.3,25.9c0,15.4,5.4,27.2,21.6,27.2
		c5.8,0,15.7-2.7,18.6-17.9h8.5c-3.6,24.7-23.6,25.7-28.5,25.7c-14.8,0-29.3-9.6-29.3-34.7c0-20.1,11.4-34,30.4-34
		c16.8,0,25.6,10.4,26.8,21.4L1049.4,147.5L1049.4,147.5z"/>
	<path d="M1115.1,147.5c-2.4-11.5-12-13.6-18.3-13.6c-11.8,0-21.3,8.7-21.3,25.9c0,15.4,5.4,27.2,21.6,27.2
		c5.8,0,15.7-2.7,18.6-17.9h8.5c-3.6,24.7-23.6,25.7-28.5,25.7c-14.8,0-29.3-9.6-29.3-34.7c0-20.1,11.4-34,30.4-34
		c16.8,0,25.6,10.4,26.8,21.4L1115.1,147.5L1115.1,147.5z"/>
	<path d="M1143.6,181.3h0.4l33.1-53.5h10.1v65.3h-8.8v-52.7h-0.2l-33.2,52.7h-10.2v-65.3h8.8V181.3L1143.6,181.3z"/>
	<path d="M1209.3,181.3h0.4l33.1-53.5h10.1v65.3h-8.8v-52.7h-0.2l-33.2,52.7h-10.2v-65.3h8.8V181.3z M1226,117.2
		c6.1,0,8-2.9,9.1-6.8h4.4c-0.4,3.2-1.5,12.4-13.5,12.4s-13.2-9.2-13.6-12.4h4.5C1218.1,114.3,1219.8,117.2,1226,117.2z"/>
	<path d="M1312.2,147.5c-2.4-11.5-12-13.6-18.3-13.6c-11.8,0-21.3,8.7-21.3,25.9c0,15.4,5.4,27.2,21.6,27.2
		c5.8,0,15.7-2.7,18.6-17.9h8.5c-3.6,24.7-23.6,25.7-28.5,25.7c-14.8,0-29.3-9.6-29.3-34.7c0-20.1,11.4-34,30.4-34
		c16.8,0,25.6,10.4,26.8,21.4L1312.2,147.5L1312.2,147.5z"/>
	<path d="M1340.7,159.5l31.7-31.7h12.1l-27.2,26.4l27.9,39h-11.4l-22.9-32.8l-10.3,9.8v22.9h-8.8v-65.3h8.8v31.7H1340.7z"/>
	<path d="M1419.1,194.9c-24.4,0-31.8-20.2-31.8-34.4c0-14.1,7.4-34.4,31.8-34.4s31.8,20.2,31.8,34.4
		C1450.8,174.6,1443.5,194.9,1419.1,194.9z M1419.1,133.9c-14.2,0-22.7,11-22.7,26.4s8.5,26.7,22.7,26.7s22.7-11.2,22.7-26.5
		C1441.7,145.1,1433.3,133.9,1419.1,133.9z"/>
	<path d="M1509.8,193.2h-48.2v-65.3h47.6v7.8h-38.8v19.2h35.7v7.8h-35.7v22.7h39.4V193.2z"/>
	<path d="M882.8,282.1l-6.8,19.1h-9.1l24.6-65.3h10l23.6,65.3h-9.6l-6.5-19.1L882.8,282.1L882.8,282.1z M905.7,274.3l-9.6-28.8h-0.2
		l-10.4,28.8H905.7z"/>
	<path d="M932.9,235.8h28.7c12.2,0,18.4,7.6,18.4,16.5c0,4.3-1.5,10.3-8.7,13.7c4.3,1.7,11.9,4.7,11.9,15.8
		c0,10.5-7.7,19.3-22.2,19.3h-28.1L932.9,235.8L932.9,235.8z M941.7,263.5h15.9c8.5,0,13.6-2.5,13.6-10.5c0-6-3.7-9.5-13.5-9.5h-16
		V263.5z M941.7,293.6h18.8c9.2,0,13.9-4.7,13.9-12c0-9.2-8.1-11-15.3-11h-17.4V293.6z"/>
	<path d="M1019.5,301.2h-8.8v-57.5h-22.1v-7.8h53.1v7.8h-22.1v57.5H1019.5z"/>
	<path d="M1077.2,302.9c-24.4,0-31.8-20.2-31.8-34.4c0-14.1,7.4-34.4,31.8-34.4s31.8,20.2,31.8,34.4
		C1109,282.6,1101.6,302.9,1077.2,302.9z M1077.2,241.9c-14.2,0-22.7,11-22.7,26.4s8.5,26.7,22.7,26.7c14.2,0,22.7-11.2,22.7-26.5
		C1099.9,253.1,1091.5,241.9,1077.2,241.9z"/>
	<path d="M1128.5,301.2h-8.8v-65.3h29.4c12.1,0,19.3,7.8,19.3,18.4c0,9.1-5.2,19.4-19.3,19.4h-20.6L1128.5,301.2L1128.5,301.2z
		 M1128.5,266.1h17.5c7.9,0,13.3-3,13.3-11.8c0-8.2-5.7-10.9-13-10.9h-17.9L1128.5,266.1L1128.5,266.1z"/>
	<path d="M1225.3,255.5c-2.4-11.5-12-13.6-18.3-13.6c-11.8,0-21.3,8.7-21.3,25.9c0,15.4,5.4,27.2,21.6,27.2
		c5.8,0,15.7-2.7,18.6-17.9h8.5c-3.6,24.7-23.6,25.7-28.5,25.7c-14.8,0-29.3-9.6-29.3-34.7c0-20.1,11.4-34,30.4-34
		c16.8,0,25.6,10.4,26.8,21.4H1225.3z"/>
	<path d="M1253.7,267.5l31.7-31.7h12.1l-27.2,26.4l27.9,39h-11.4l-22.9-32.8l-10.3,9.8v22.9h-8.8v-65.3h8.8v31.7H1253.7z"/>
	<path d="M1332.1,302.9c-24.4,0-31.8-20.2-31.8-34.4c0-14.1,7.4-34.4,31.8-34.4s31.8,20.2,31.8,34.4
		C1363.9,282.6,1356.5,302.9,1332.1,302.9z M1332.1,241.9c-14.2,0-22.7,11-22.7,26.4s8.5,26.7,22.7,26.7s22.7-11.2,22.7-26.5
		C1354.8,253.1,1346.3,241.9,1332.1,241.9z"/>
	<path d="M1422.8,301.2h-48.2v-65.3h47.6v7.8h-38.8v19.2h35.7v7.8h-35.7v22.7h39.4V301.2z"/>
	<path d="M901.4,410.9c-24.4,0-31.8-20.2-31.8-34.4c0-14.1,7.4-34.4,31.8-34.4c24.4,0,31.8,20.2,31.8,34.4
		C933.2,390.6,925.8,410.9,901.4,410.9z M901.4,349.9c-14.2,0-22.7,11-22.7,26.4s8.5,26.7,22.7,26.7s22.7-11.2,22.7-26.5
		C924.1,361.1,915.6,349.9,901.4,349.9z"/>
	<path d="M989.9,343.8v7.8h-37.2v19.2h21.2c14.2,0,19.6,10.9,19.6,20c0,10.5-7.6,18.4-19.3,18.4h-30.3v-65.3L989.9,343.8
		L989.9,343.8z M952.7,401.3h18.9c7.3,0,12.9-2.4,12.9-10.6c0-8.8-5.6-12.1-13.5-12.1h-18.3L952.7,401.3L952.7,401.3z"/>
	<path d="M1013.1,401.3h24v-57.5h8.8v57.5h24v-57.5h8.8v57.5h5.8v22h-8v-14.1h-72.3v-65.3h8.8v57.4H1013.1z"/>
	<path d="M1141,409.2h-48.2v-65.3h47.6v7.8h-38.8v19.2h35.7v7.8h-35.7v22.7h39.4V409.2z"/>
	<path d="M1198.3,363.5c-2.4-11.5-12-13.6-18.3-13.6c-11.8,0-21.3,8.7-21.3,25.9c0,15.4,5.4,27.2,21.6,27.2
		c5.8,0,15.7-2.7,18.6-17.9h8.5c-3.6,24.7-23.6,25.7-28.5,25.7c-14.8,0-29.3-9.6-29.3-34.7c0-20.1,11.4-34,30.4-34
		c16.8,0,25.6,10.4,26.8,21.4H1198.3z"/>
	<path d="M1241.5,409.2h-8.8v-57.5h-22.1v-7.8h53.1v7.8h-22.1L1241.5,409.2L1241.5,409.2z"/>
	<path d="M1271.5,343.8h28.7c12.2,0,18.4,7.6,18.4,16.5c0,4.3-1.5,10.3-8.7,13.7c4.3,1.7,11.9,4.7,11.9,15.8
		c0,10.5-7.7,19.3-22.2,19.3h-28.1L1271.5,343.8L1271.5,343.8z M1280.3,371.5h15.9c8.5,0,13.6-2.5,13.6-10.5c0-6-3.7-9.5-13.5-9.5
		h-16V371.5z M1280.3,401.6h18.8c9.2,0,13.9-4.7,13.9-12c0-9.2-8.1-11-15.3-11h-17.4V401.6z"/>
	<path d="M1361.6,410.9c-24.4,0-31.8-20.2-31.8-34.4c0-14.1,7.4-34.4,31.8-34.4s31.8,20.2,31.8,34.4
		C1393.4,390.6,1386,410.9,1361.6,410.9z M1361.6,349.9c-14.2,0-22.7,11-22.7,26.4s8.5,26.7,22.7,26.7s22.7-11.2,22.7-26.5
		C1384.3,361.1,1375.9,349.9,1361.6,349.9z"/>
</g>
</svg>
