<?xml version="1.0" encoding="utf-8"?>
<!-- Generator: Adobe Illustrator 19.0.1, SVG Export Plug-In . SVG Version: 6.00 Build 0)  -->
<svg version="1.1" id="Layer_1" xmlns="http://www.w3.org/2000/svg" xmlns:xlink="http://www.w3.org/1999/xlink" x="0px" y="0px"
	 viewBox="372 -42.4 1601.2 631.5" style="enable-background:new 372 -42.4 1601.2 631.5;" xml:space="preserve">
<style type="text/css">
	.st0{fill:#263C92;}
	.st1{fill:#253E91;}
</style>
<path d="M380,210.1C380,79.5,485.9-26.4,616.5-26.4c89.5,0,167.4,49.7,207.5,123c-37.1-82-119.7-139-215.5-139
	C477.9-42.4,372,63.5,372,194.1c0,41.1,10.5,79.8,29,113.5C387.5,277.8,380,244.8,380,210.1z"/>
<path d="M690.5,294.6c-19.7,0-36.2,13.2-41.4,31.2c-10.7,3.1-21.9,4.8-33.6,4.8C549,330.6,495,276.7,495,210.1S549,89.6,615.5,89.6
	c19.2,0,37.3,4.5,53.4,12.5c7.1-0.6,14.3-1,21.5-1c29,0,56.8,5.2,82.5,14.8c-32.1-53.5-90.6-89.3-157.5-89.3
	C514.2,26.6,432,108.8,432,210.1s82.2,183.5,183.5,183.5c24.4,0,47.7-4.8,69-13.4c2,0.3,4,0.4,6,0.4c23.7,0,43-19.3,43-43
	S714.2,294.6,690.5,294.6z"/>
<path class="st0" d="M917.2,270.2c6.3,21.4,9.8,44,9.8,67.4c0,128.8-102.9,233.5-231,236.4l0,0v-26.8V521
	c98.8-2.9,178-83.9,178-183.4c0-101.3-82.2-183.5-183.5-183.5c-24.4,0-47.7,4.8-68.9,13.4c-2-0.3-4-0.4-6-0.4c-23.7,0-43,19.3-43,43
	s19.3,43,43,43c19.7,0,36.2-13.2,41.4-31.2c10.7-3.1,21.9-4.8,33.6-4.8C757,217.1,811,271,811,337.6s-54,120.5-120.5,120.5
	c-19.6,0-38.1-4.7-54.5-13v44v23.8v34.3v20.6c-77.3-18.2-140-74.4-167.2-147.8c29,97.8,119.5,169.1,226.7,169.1
	c130.6,0,236.5-105.9,236.5-236.5C932,323.6,926.8,295.9,917.2,270.2z"/>
<g>
	<path class="st1" d="M1004,99.1V8.3h27.7c8.5,0,15,1.9,19.6,5.6c4.6,3.8,6.9,8.9,6.9,15.6c0,4.9-1.4,9.2-4.3,12.9
		s-6.4,6.3-10.8,7.7v0.2c5.4,0.8,9.8,3.1,13.2,7c3.3,3.9,5,8.8,5,14.7c0,8.2-2.5,14.8-7.6,19.7c-5,4.9-11.9,7.3-20.6,7.3H1004V99.1z
		 M1020.6,22.8v22.4h7.9c3.8,0,6.8-1.1,9-3.2c2.2-2.1,3.3-5.1,3.3-8.8c0-7-4.4-10.4-13.1-10.4H1020.6z M1020.6,59.8v24.9h9.9
		c4.2,0,7.5-1.1,9.8-3.4c2.4-2.3,3.5-5.4,3.5-9.4c0-3.8-1.2-6.8-3.5-8.9c-2.3-2.1-5.7-3.2-10-3.2L1020.6,59.8L1020.6,59.8z"/>
	<path class="st1" d="M1112.1,96.7c-3.9,2.7-9.4,4-16.6,4c-8.5,0-15.4-3-20.6-9c-5.2-6-7.9-13.8-7.9-23.4c0-11,2.8-19.7,8.5-26
		c5.6-6.3,13.2-9.5,22.6-9.5c6.3,0,11,1,14.1,3V52c-3.7-3.2-7.8-4.7-12.2-4.7c-5,0-9,1.8-12,5.3s-4.5,8.3-4.5,14.5
		c0,5.9,1.4,10.6,4.3,14s6.7,5.1,11.6,5.1c4.3,0,8.6-1.6,12.7-4.8L1112.1,96.7L1112.1,96.7z"/>
	<path class="st1" d="M1170.1,72h-36.7c0.6,10,5.8,15.1,15.6,15.1c6.1,0,11.6-1.8,16.3-5.3v13.9c-5.1,3.3-11.7,5-19.9,5
		c-8.9,0-15.8-2.9-20.7-8.7c-4.9-5.8-7.4-13.9-7.4-24.3c0-10.4,2.6-18.8,7.9-25.2c5.2-6.5,11.8-9.7,19.7-9.7s14.1,2.8,18.5,8.3
		c4.4,5.6,6.7,13.2,6.7,22.9L1170.1,72L1170.1,72z M1154.9,60.2c0-9.7-3.4-14.5-10.1-14.5c-2.8,0-5.3,1.3-7.4,4s-3.5,6.2-4,10.5
		H1154.9z"/>
	<path class="st1" d="M1195,91.3v37.6h-16.3V34.3h16.3v9.9h0.2c4.3-7.7,10.3-11.5,18.1-11.5c7.1,0,12.6,2.9,16.6,8.6
		c4,5.8,6,13.6,6,23.5c0,10.8-2.3,19.5-6.9,26c-4.6,6.5-10.7,9.8-18.2,9.8c-6.8,0-12-3.1-15.5-9.4h-0.3V91.3z M1194.7,70.4
		c0,4.6,1.1,8.4,3.2,11.3c2.1,2.9,4.9,4.4,8.4,4.4c4.1,0,7.2-1.8,9.5-5.5s3.4-8.9,3.4-15.6c0-11.9-4-17.8-11.9-17.8
		c-3.7,0-6.7,1.6-9,4.9s-3.5,7.5-3.5,12.7v5.6H1194.7z"/>
	<path class="st1" d="M1241.6,67c0-10.7,2.7-19,8.2-25.1s12.9-9.1,22.1-9.1c9,0,16.1,3,21.4,9c5.3,6,7.9,14.1,7.9,24.2
		c0,10.6-2.7,19.1-8.1,25.4c-5.4,6.3-12.7,9.4-22,9.4c-9.1,0-16.3-3-21.6-9.1C1244.2,85.6,1241.6,77.4,1241.6,67z M1258,66.8
		c0,12.9,4.5,19.4,13.6,19.4c8.7,0,13-6.6,13-19.9c0-12.7-4.4-19-13.1-19c-4.3,0-7.6,1.7-9.9,5.1C1259.2,55.7,1258,60.5,1258,66.8z"
		/>
	<path class="st1" d="M1351.9,96.7c-3.9,2.7-9.4,4-16.6,4c-8.5,0-15.4-3-20.6-9c-5.2-6-7.9-13.8-7.9-23.4c0-11,2.8-19.7,8.5-26
		c5.6-6.3,13.2-9.5,22.6-9.5c6.3,0,11,1,14.1,3V52c-3.7-3.2-7.8-4.7-12.2-4.7c-5,0-9,1.8-12,5.3s-4.5,8.3-4.5,14.5
		c0,5.9,1.4,10.6,4.3,14s6.7,5.1,11.6,5.1c4.3,0,8.6-1.6,12.7-4.8L1351.9,96.7L1351.9,96.7z"/>
	<path class="st1" d="M1402.2,96.7c-3.9,2.7-9.4,4-16.6,4c-8.5,0-15.4-3-20.6-9s-7.9-13.8-7.9-23.4c0-11,2.8-19.7,8.5-26
		c5.6-6.3,13.2-9.5,22.6-9.5c6.3,0,11,1,14.1,3V52c-3.7-3.2-7.8-4.7-12.2-4.7c-5,0-9,1.8-12,5.3s-4.5,8.3-4.5,14.5
		c0,5.9,1.4,10.6,4.3,14s6.7,5.1,11.6,5.1c4.3,0,8.6-1.6,12.7-4.8V96.7z"/>
	<path class="st1" d="M1466.4,99.1h-14.8V55.6c-1.4,3.3-2.9,6.3-4.5,9.1l-19.7,34.4H1412V34.3h14.9v42.2c1.3-3,2.5-5.5,3.7-7.7
		l19.8-34.5h16.1L1466.4,99.1L1466.4,99.1z"/>
	<path class="st1" d="M1532.8,99.1H1518V55.6c-1.4,3.3-2.9,6.3-4.5,9.1l-19.7,34.4h-15.5V34.3h14.9v42.2c1.3-3,2.5-5.5,3.7-7.7
		l19.8-34.5h16.1V99.1z M1523.2,5.1c-0.5,5.9-2.4,10.5-5.6,13.9s-7.4,5.1-12.5,5.1c-5,0-9.2-1.7-12.5-5.2s-5.1-8.1-5.3-13.8h9.3
		c0.5,5.7,3.4,8.6,8.7,8.6c5,0,7.9-2.9,8.6-8.6H1523.2z"/>
	<path class="st1" d="M1586.8,96.7c-3.9,2.7-9.4,4-16.6,4c-8.5,0-15.4-3-20.6-9s-7.9-13.8-7.9-23.4c0-11,2.8-19.7,8.5-26
		c5.6-6.3,13.2-9.5,22.6-9.5c6.3,0,11,1,14.1,3V52c-3.7-3.2-7.8-4.7-12.2-4.7c-5,0-9,1.8-12,5.3s-4.5,8.3-4.5,14.5
		c0,5.9,1.4,10.6,4.3,14s6.7,5.1,11.6,5.1c4.3,0,8.6-1.6,12.7-4.8V96.7z"/>
	<path class="st1" d="M1651.4,99.1h-19.7L1613.2,67h-0.2v32.1h-16.3V34.3h16.3v29.9h0.2l17.4-29.9h19.4l-20.6,30.6L1651.4,99.1z"/>
	<path class="st1" d="M1657.1,38.2c2.5-1.6,5.9-3,10.1-4s7.8-1.5,10.8-1.5c15.6,0,23.4,9.1,23.4,27.2v39.2h-15.5v-9.4h-0.2
		c-3.8,7.3-9.3,11-16.7,11c-5.3,0-9.5-1.7-12.7-5.2s-4.8-8.3-4.8-14.3c0-12.4,6.4-19.6,19.1-21.7l15.3-2.4c0-7.5-3.4-11.3-10.1-11.3
		c-6.6,0-12.9,2.3-18.8,7L1657.1,38.2L1657.1,38.2z M1675.5,69.7c-5.9,0.9-8.8,4-8.8,9.3c0,2.4,0.7,4.4,2.1,5.9s3.3,2.2,5.8,2.2
		c3.3,0,6.1-1.4,8.2-4.1c2.1-2.7,3.2-6.1,3.2-10.2v-4.6L1675.5,69.7z"/>
	<path class="st1" d="M1760.3,99.1h-16.1V74.5h-4.3c-3.1,0-5.9,3.1-8.4,9.4l-6.1,15.1h-18.1l8.3-18.6c2.5-5.5,5.8-9,10.1-10.5
		c-9.2-1.8-13.8-7.4-13.8-16.8c0-12.6,7.8-18.9,23.4-18.9h25.1L1760.3,99.1L1760.3,99.1z M1744.2,63V46.6h-6.9
		c-6.1,0-9.2,2.7-9.2,8.1c0,5.5,3.1,8.3,9.2,8.3L1744.2,63L1744.2,63z"/>
	<path class="st1" d="M999.1,198.9c0-14.2,3.6-25.8,10.7-34.7c7.1-8.9,16.6-13.4,28.3-13.4c11.1,0,20.1,4.3,26.9,12.9
		s10.2,19.7,10.2,33.3c0,14.1-3.5,25.6-10.6,34.4c-7.1,8.8-16.3,13.2-27.8,13.2c-11.2,0-20.3-4.3-27.2-12.8
		C1002.6,223.3,999.1,212.4,999.1,198.9z M1016.6,197.9c0,8.8,1.8,16,5.5,21.7c3.7,5.6,8.7,8.4,15.1,8.4c6.5,0,11.6-2.7,15.2-8.1
		c3.6-5.4,5.4-12.6,5.4-21.7c0-9.5-1.8-16.9-5.3-22.4s-8.5-8.2-14.9-8.2c-6.5,0-11.6,2.8-15.4,8.4
		C1018.5,181.6,1016.6,188.9,1016.6,197.9z"/>
	<path class="st1" d="M1100.3,235.3v37.6H1084v-94.6h16.3v9.9h0.2c4.3-7.7,10.3-11.5,18.1-11.5c7.1,0,12.6,2.9,16.6,8.6
		c4,5.8,6,13.6,6,23.5c0,10.8-2.3,19.5-6.9,26s-10.7,9.8-18.2,9.8c-6.8,0-12-3.1-15.5-9.4h-0.3V235.3z M1100.1,214.4
		c0,4.6,1.1,8.4,3.2,11.3c2.1,2.9,4.9,4.4,8.4,4.4c4.1,0,7.2-1.8,9.5-5.5c2.3-3.7,3.4-8.9,3.4-15.6c0-11.9-4-17.8-11.9-17.8
		c-3.7,0-6.7,1.6-9,4.9c-2.3,3.3-3.5,7.5-3.5,12.7L1100.1,214.4L1100.1,214.4z"/>
	<path class="st1" d="M1186.1,192.8h-19.4v50.3h-16.3v-64.8h35.7V192.8z"/>
	<path class="st1" d="M1193.1,182.2c2.5-1.6,5.9-3,10.1-4s7.8-1.5,10.8-1.5c15.6,0,23.4,9.1,23.4,27.2v39.2h-15.5v-9.4h-0.2
		c-3.8,7.3-9.3,11-16.7,11c-5.3,0-9.5-1.7-12.7-5.2s-4.8-8.3-4.8-14.3c0-12.4,6.4-19.6,19.1-21.7l15.4-2.4c0-7.5-3.4-11.3-10.1-11.3
		c-6.6,0-12.9,2.3-18.8,7L1193.1,182.2L1193.1,182.2z M1211.4,213.7c-5.9,0.9-8.8,4-8.8,9.3c0,2.4,0.7,4.4,2.1,5.9
		c1.4,1.5,3.3,2.2,5.8,2.2c3.3,0,6.1-1.4,8.2-4.1c2.1-2.7,3.2-6.1,3.2-10.2v-4.6L1211.4,213.7z"/>
	<path class="st1" d="M1301.6,243.1h-16.3v-27.4H1265v27.4h-16.3v-64.8h16.3v24.3h20.2v-24.3h16.3L1301.6,243.1L1301.6,243.1z"/>
	<path class="st1" d="M1367.9,243.1h-14.8v-43.5c-1.4,3.3-2.9,6.3-4.5,9.1l-19.6,34.4h-15.5v-64.8h14.9v42.2c1.3-3,2.5-5.5,3.7-7.7
		l19.8-34.5h16.1L1367.9,243.1L1367.9,243.1z"/>
	<path class="st1" d="M1377.3,227.4c5.3,2.9,10.7,4.3,16.2,4.3c8,0,11.9-2.6,11.9-7.8c0-5.4-4.3-8-13-8h-7.5v-12h7.6
		c7.5,0,11.2-2.6,11.2-7.7c0-4.5-3.3-6.8-10-6.8c-4.9,0-9.8,1.3-14.7,3.9v-13.2c6.4-2.2,12.3-3.3,17.6-3.3
		c15.9,0,23.9,5.8,23.9,17.5c0,8.1-4.3,13.1-12.8,15v0.4c4.4,0.4,7.9,2,10.5,4.8s3.9,6.3,3.9,10.5c0,13-8.9,19.6-26.7,19.6
		c-7,0-13-1-18-3L1377.3,227.4L1377.3,227.4z"/>
	<path class="st1" d="M1432.9,182.2c2.5-1.6,5.9-3,10.1-4s7.8-1.5,10.8-1.5c15.6,0,23.4,9.1,23.4,27.2v39.2h-15.5v-9.4h-0.2
		c-3.8,7.3-9.3,11-16.7,11c-5.3,0-9.5-1.7-12.7-5.2s-4.8-8.3-4.8-14.3c0-12.4,6.4-19.6,19.1-21.7l15.3-2.4c0-7.5-3.4-11.3-10.1-11.3
		c-6.6,0-12.9,2.3-18.8,7L1432.9,182.2L1432.9,182.2z M1451.3,213.7c-5.9,0.9-8.8,4-8.8,9.3c0,2.4,0.7,4.4,2.1,5.9s3.3,2.2,5.8,2.2
		c3.3,0,6.1-1.4,8.2-4.1s3.2-6.1,3.2-10.2v-4.6L1451.3,213.7z"/>
	<path class="st1" d="M1550.2,266.7H1537v-23.6h-48.4v-64.8h16.3v51.3h20.2v-51.3h16.3v51.3h8.9v37.1H1550.2z"/>
	<path class="st1" d="M1612,243.1h-14.8v-43.5c-1.4,3.3-2.9,6.3-4.5,9.1l-19.7,34.4h-15.5v-64.8h14.9v42.2c1.3-3,2.5-5.5,3.7-7.7
		l19.8-34.5h16.1V243.1z"/>
	<path class="st1" d="M1671.4,243.1h-16.1v-24.6h-4.3c-3.1,0-5.9,3.1-8.4,9.4l-6.1,15.1h-18.1l8.3-18.6c2.5-5.5,5.8-9,10.1-10.5
		c-9.2-1.8-13.8-7.4-13.8-16.8c0-12.6,7.8-18.9,23.4-18.9h25.1L1671.4,243.1L1671.4,243.1z M1655.3,207v-16.4h-6.9
		c-6.1,0-9.2,2.7-9.2,8.1c0,5.5,3.1,8.3,9.2,8.3H1655.3z"/>
	<path class="st1" d="M1073.4,387.1h-15.8v-51.6c0-5.4,0.2-10.2,0.6-14.5h-0.4c-0.5,1.4-1.8,3.8-3.7,7.4l-33.1,58.7h-17v-90.8h15.8
		v51.8c0,6.2-0.2,10.4-0.5,12.5h0.2l35.8-64.3h18L1073.4,387.1L1073.4,387.1z"/>
	<path class="st1" d="M1138.9,387.1h-16.3v-27.4h-20.2v27.4h-16.3v-64.8h16.3v24.3h20.2v-24.3h16.3V387.1z"/>
	<path class="st1" d="M1191.7,336.8h-15.1v50.3h-16.3v-50.3H1145v-14.5h46.7V336.8z"/>
	<path class="st1" d="M1247.6,360h-36.7c0.6,10,5.8,15.1,15.6,15.1c6.1,0,11.6-1.8,16.3-5.3v13.9c-5.1,3.3-11.7,5-19.9,5
		c-8.9,0-15.8-2.9-20.7-8.7c-4.9-5.8-7.4-13.9-7.4-24.3s2.6-18.8,7.9-25.2c5.2-6.5,11.8-9.7,19.7-9.7s14.1,2.8,18.5,8.3
		c4.4,5.6,6.7,13.2,6.7,22.9L1247.6,360L1247.6,360z M1232.4,348.2c0-9.7-3.4-14.5-10.1-14.5c-2.8,0-5.3,1.3-7.4,4s-3.5,6.2-4,10.5
		H1232.4z"/>
	<path class="st1" d="M1306.7,387.1h-16.3v-51.3h-9.9c-2.2,21.6-5.4,35.7-9.6,42.2c-4.2,6.5-9.4,9.8-15.7,9.8
		c-2.4,0-4.5-0.4-6.5-1.2v-13.1c1.3,0.7,2.7,1,4,1c3.2,0,6-3.4,8.3-10.2s4.4-20.8,6.4-42h39.2L1306.7,387.1L1306.7,387.1z"/>
	<path class="st1" d="M1370.3,387.1H1354v-51.3h-9.9c-2.2,21.6-5.4,35.7-9.6,42.2s-9.4,9.8-15.7,9.8c-2.4,0-4.5-0.4-6.5-1.2v-13.1
		c1.3,0.7,2.7,1,4,1c3.2,0,6-3.4,8.3-10.2s4.4-20.8,6.4-42h39.2v64.8H1370.3z"/>
	<path class="st1" d="M1431.9,360h-36.7c0.6,10,5.8,15.1,15.6,15.1c6.1,0,11.6-1.8,16.3-5.3v13.9c-5.1,3.3-11.7,5-19.9,5
		c-8.9,0-15.8-2.9-20.7-8.7c-4.9-5.8-7.4-13.9-7.4-24.3s2.6-18.8,7.9-25.2c5.2-6.5,11.8-9.7,19.7-9.7c7.9,0,14.1,2.8,18.5,8.3
		c4.4,5.6,6.7,13.2,6.7,22.9V360z M1416.7,348.2c0-9.7-3.4-14.5-10.1-14.5c-2.8,0-5.3,1.3-7.4,4s-3.5,6.2-4,10.5H1416.7z"/>
	<path class="st1" d="M1495.2,387.1h-19.7L1457,355h-0.2v32.1h-16.3v-64.8h16.3v29.9h0.2l17.4-29.9h19.4l-20.6,30.6L1495.2,387.1z"
		/>
	<path class="st1" d="M1543.5,336.8h-15.1v50.3h-16.3v-50.3h-15.3v-14.5h46.7L1543.5,336.8L1543.5,336.8z"/>
	<path class="st1" d="M1605.8,322.3l-23,70.6c-5.3,16.4-13.3,24.6-24,24.6c-4.2,0-7.5-0.5-9.8-1.5v-15.2c2.2,1.4,4.6,2.2,7.2,2.2
		c4.4,0,7.6-2.5,9.4-7.5l3.1-8.5l-22.5-64.7h18l10.9,40.6c0.7,2.5,1.2,5.2,1.5,8.3h0.3c0.2-2.1,0.8-4.8,1.7-8.1l11.1-40.7
		L1605.8,322.3L1605.8,322.3z"/>
	<path class="st1" d="M1611.3,326.2c2.5-1.6,5.9-3,10.1-4s7.8-1.5,10.8-1.5c15.6,0,23.4,9.1,23.4,27.2v39.2h-15.5v-9.4h-0.2
		c-3.8,7.3-9.3,11-16.7,11c-5.3,0-9.5-1.7-12.7-5.2s-4.8-8.3-4.8-14.3c0-12.4,6.4-19.6,19.1-21.7l15.3-2.4c0-7.5-3.4-11.3-10.1-11.3
		c-6.6,0-12.9,2.3-18.8,7L1611.3,326.2L1611.3,326.2z M1629.6,357.7c-5.9,0.9-8.8,4-8.8,9.3c0,2.4,0.7,4.4,2.1,5.9s3.3,2.2,5.8,2.2
		c3.3,0,6.1-1.4,8.2-4.1c2.1-2.7,3.2-6.1,3.2-10.2v-4.6L1629.6,357.7z"/>
	<path class="st1" d="M1718.8,387.1h-16.3v-51.3h-9.9c-2.2,21.6-5.4,35.7-9.6,42.2s-9.4,9.8-15.7,9.8c-2.4,0-4.5-0.4-6.5-1.2v-13.1
		c1.3,0.7,2.7,1,4,1c3.2,0,6-3.4,8.3-10.2s4.4-20.8,6.4-42h39.2L1718.8,387.1L1718.8,387.1z"/>
	<path class="st1" d="M1730.8,387.1v-64.8h16.3v22.9h14.7c6.3,0,11.2,1.8,14.6,5.4s5.2,8.5,5.2,14.9c0,6.5-1.7,11.8-5.2,15.7
		c-3.5,3.9-8.2,5.9-14.3,5.9H1730.8z M1747,357.4v17.4h8.9c6,0,9-3,9-9c0-5.6-2.9-8.4-8.8-8.4L1747,357.4L1747,357.4z"/>
	<path class="st1" d="M1841.5,387.1h-16.3v-27.4H1805v27.4h-16.3v-64.8h16.3v24.3h20.2v-24.3h16.3V387.1z"/>
	<path class="st1" d="M1850.4,355c0-10.7,2.7-19,8.2-25.1s12.9-9.1,22.1-9.1c9,0,16.1,3,21.4,9s7.9,14.1,7.9,24.2
		c0,10.6-2.7,19.1-8.1,25.4s-12.7,9.4-22,9.4c-9.1,0-16.3-3-21.6-9.1S1850.4,365.4,1850.4,355z M1866.8,354.8
		c0,12.9,4.5,19.4,13.6,19.4c8.7,0,13-6.6,13-19.9c0-12.7-4.4-19-13.1-19c-4.3,0-7.6,1.7-9.9,5.1
		C1868,343.7,1866.8,348.5,1866.8,354.8z"/>
	<path class="st1" d="M1973.2,387.1h-14.8v-43.5c-1.4,3.3-2.9,6.3-4.5,9.1l-19.7,34.4h-15.5v-64.8h14.9v42.2c1.3-3,2.5-5.5,3.7-7.7
		l19.8-34.5h16.1V387.1z M1963.5,293.1c-0.5,5.9-2.4,10.5-5.6,13.9s-7.4,5.1-12.5,5.1c-5,0-9.2-1.7-12.5-5.2s-5.1-8.1-5.3-13.8h9.3
		c0.5,5.7,3.4,8.6,8.7,8.6c5,0,7.9-2.9,8.6-8.6H1963.5z"/>
	<path class="st1" d="M1059.7,527.8c-5.7,3.2-13.1,4.9-22.2,4.9c-11.8,0-21.1-4.1-28-12.3s-10.3-19.1-10.3-32.7
		c0-14.3,3.9-26.1,11.6-35.2c7.7-9.1,17.6-13.7,29.8-13.7c7.6,0,14,1.2,19.1,3.5V461c-5.3-3.6-11.2-5.4-17.9-5.4
		c-7.6,0-13.7,2.8-18.3,8.5c-4.6,5.7-6.8,13.1-6.8,22.2c0,8.9,2.2,16.1,6.5,21.5c4.3,5.4,10.2,8.1,17.6,8.1c6.9,0,13.3-2,19-5.9
		L1059.7,527.8L1059.7,527.8z"/>
	<path class="st1" d="M1065.2,499c0-10.7,2.7-19,8.2-25.1s12.9-9.1,22.1-9.1c9,0,16.1,3,21.4,9c5.3,6,7.9,14.1,7.9,24.2
		c0,10.6-2.7,19.1-8.1,25.4c-5.4,6.3-12.7,9.4-22,9.4c-9.1,0-16.3-3-21.6-9.1S1065.2,509.4,1065.2,499z M1081.6,498.8
		c0,12.9,4.5,19.4,13.6,19.4c8.7,0,13-6.6,13-19.9c0-12.7-4.4-19-13.1-19c-4.3,0-7.6,1.7-9.9,5.1
		C1082.8,487.7,1081.6,492.5,1081.6,498.8z"/>
	<path class="st1" d="M1182.2,448.9c-1.7,1.5-4,2.5-7,3c-9.1,1.6-14.9,2.9-17.5,3.8c-2.6,0.9-4.8,2.8-6.6,5.8c-1.8,3-3,7.9-3.7,15.1
		h0.3c4.1-5.8,9.7-8.7,16.8-8.7c7.7,0,13.8,2.8,18.3,8.3s6.7,13.1,6.7,22.7c0,10.2-2.7,18.4-8.1,24.6c-5.4,6.1-12.6,9.2-21.6,9.2
		c-9.5,0-16.8-3.6-21.8-10.7s-7.5-17.5-7.5-31.1c0-10.4,1-19,3-25.9s4.6-12.1,7.7-15.6s6.4-5.9,9.9-7.2s8.5-2.6,15.2-3.8
		c5.6-1,9.3-1.8,11.1-2.4c1.8-0.6,3.4-1.4,4.7-2.3L1182.2,448.9L1182.2,448.9z M1147.3,490.1l-0.1,2.3c-0.2,9.1,0.9,15.7,3.4,19.7
		s5.7,6,9.7,6c3.7,0,6.8-1.7,9.1-5c2.3-3.4,3.5-7.8,3.5-13.3s-1.2-10-3.6-13.2c-2.4-3.3-5.6-4.9-9.5-4.9c-2.5,0-4.9,0.8-7.2,2.3
		C1150.3,485.5,1148.5,487.6,1147.3,490.1z"/>
	<path class="st1" d="M1240.3,528.7c-3.9,2.7-9.4,4-16.6,4c-8.5,0-15.4-3-20.6-9c-5.2-6-7.9-13.8-7.9-23.4c0-11,2.8-19.7,8.5-26
		c5.6-6.3,13.2-9.5,22.6-9.5c6.3,0,11,1,14.1,3V484c-3.7-3.2-7.8-4.7-12.2-4.7c-5,0-9,1.8-12,5.3s-4.5,8.3-4.5,14.5
		c0,5.9,1.4,10.6,4.3,14c2.9,3.4,6.7,5.1,11.6,5.1c4.3,0,8.6-1.6,12.7-4.8L1240.3,528.7L1240.3,528.7z"/>
	<path class="st1" d="M1291.6,480.8h-15.1v50.3h-16.3v-50.3h-15.3v-14.5h46.7L1291.6,480.8L1291.6,480.8z"/>
	<path class="st1" d="M1297.8,531.1v-64.8h30.3c13.1,0,19.7,5.3,19.7,15.8c0,3.7-1,6.8-3,9.5s-4.8,4.4-8.2,5.2
		c4.2,0.7,7.5,2.4,9.7,5.1c2.2,2.7,3.4,6,3.4,9.8c0,5.9-1.8,10.6-5.4,14.1c-3.6,3.5-8.5,5.3-14.5,5.3L1297.8,531.1L1297.8,531.1z
		 M1314,478.1v14.1h9c5.4,0,8.2-2.5,8.2-7.4c0-4.5-2.6-6.7-7.7-6.7L1314,478.1L1314,478.1z M1314,503.7V519h10.5
		c5.7,0,8.6-2.7,8.6-8c0-4.8-3-7.3-8.9-7.3H1314z"/>
	<path class="st1" d="M1408.1,504h-36.7c0.6,10,5.8,15.1,15.6,15.1c6.1,0,11.6-1.8,16.3-5.3v13.9c-5.1,3.3-11.7,5-19.9,5
		c-8.9,0-15.8-2.9-20.7-8.7c-4.9-5.8-7.4-13.9-7.4-24.3c0-10.4,2.6-18.8,7.9-25.2c5.2-6.5,11.8-9.7,19.7-9.7s14.1,2.8,18.5,8.3
		c4.4,5.6,6.7,13.2,6.7,22.9V504z M1392.9,492.2c0-9.7-3.4-14.5-10.1-14.5c-2.8,0-5.3,1.3-7.4,4s-3.5,6.2-4,10.5H1392.9z"/>
	<path class="st1" d="M1469.5,531.1h-16.3v-27.4H1433v27.4h-16.3v-64.8h16.3v24.3h20.2v-24.3h16.3V531.1z"/>
	<path class="st1" d="M1534.3,531.1H1518v-27.4h-20.2v27.4h-16.3v-64.8h16.3v24.3h20.2v-24.3h16.3V531.1z"/>
	<path class="st1" d="M1543.1,499c0-10.7,2.7-19,8.2-25.1s12.9-9.1,22.1-9.1c9,0,16.1,3,21.4,9s7.9,14.1,7.9,24.2
		c0,10.6-2.7,19.1-8.1,25.4c-5.4,6.3-12.7,9.4-22,9.4c-9.1,0-16.3-3-21.6-9.1S1543.1,509.4,1543.1,499z M1559.6,498.8
		c0,12.9,4.5,19.4,13.6,19.4c8.7,0,13-6.6,13-19.9c0-12.7-4.4-19-13.1-19c-4.3,0-7.6,1.7-9.9,5.1
		C1560.8,487.7,1559.6,492.5,1559.6,498.8z"/>
	<path class="st1" d="M1653.5,528.7c-3.9,2.7-9.4,4-16.6,4c-8.5,0-15.4-3-20.6-9s-7.9-13.8-7.9-23.4c0-11,2.8-19.7,8.5-26
		c5.6-6.3,13.2-9.5,22.6-9.5c6.3,0,11,1,14.1,3V484c-3.7-3.2-7.8-4.7-12.2-4.7c-5,0-9,1.8-12,5.3s-4.5,8.3-4.5,14.5
		c0,5.9,1.4,10.6,4.3,14s6.7,5.1,11.6,5.1c4.3,0,8.6-1.6,12.7-4.8V528.7z"/>
	<path class="st1" d="M1704.8,480.8h-15.1v50.3h-16.3v-50.3h-15.3v-14.5h46.7L1704.8,480.8L1704.8,480.8z"/>
	<path class="st1" d="M1765.3,531.1h-14.8v-43.5c-1.4,3.3-2.9,6.3-4.5,9.1l-19.7,34.4H1711v-64.8h14.9v42.2c1.3-3,2.5-5.5,3.7-7.7
		l19.8-34.5h16.1v64.8H1765.3z"/>
</g>
</svg>
