<svg viewBox="0 0 12 9" fill="none" xmlns="http://www.w3.org/2000/svg">
<path d="M0.522919 4.96076C0.438304 4.87615 0.395996 4.74922 0.395996 4.66461C0.395996 4.57999 0.438304 4.45307 0.522919 4.36845L1.11523 3.77615C1.28446 3.60692 1.5383 3.60692 1.70753 3.77615L1.74984 3.81845L4.07677 6.31461C4.16138 6.39922 4.2883 6.39922 4.37292 6.31461L10.0421 0.433838H10.0845C10.2537 0.264608 10.5075 0.264608 10.6768 0.433838L11.2691 1.02615C11.4383 1.19538 11.4383 1.44922 11.2691 1.61845L4.49984 8.64153C4.41523 8.72615 4.33061 8.76845 4.20369 8.76845C4.07677 8.76845 3.99215 8.72615 3.90753 8.64153L0.607535 5.08769L0.522919 4.96076Z" fill="#680BAA"/>
</svg>
