<svg width="36" height="48" viewBox="0 0 36 48" fill="none" xmlns="http://www.w3.org/2000/svg">
<path d="M35.0697 33.7025L15.6258 14.2587C15.3458 13.9826 14.9297 13.897 14.5661 14.0487C14.2025 14.1984 13.9652 14.5542 13.9652 14.947V41.869C13.9652 42.2404 14.1771 42.5787 14.5116 42.742C14.846 42.9054 15.2447 42.8645 15.5344 42.6351L20.4711 38.7755L24.7799 46.5297C24.9589 46.8486 25.2893 47.0294 25.6316 47.0294C25.7774 47.0294 25.9272 46.9963 26.0672 46.9263L31.9003 44.0098C32.1376 43.8912 32.3164 43.6812 32.3942 43.4284C32.472 43.1736 32.4428 42.8995 32.3165 42.6681L28.2566 35.3631H34.3814C34.7742 35.3631 35.1281 35.1258 35.2797 34.7623C35.4313 34.3986 35.3477 33.9806 35.0697 33.7025ZM26.6057 33.4206C26.2616 33.4206 25.9427 33.6034 25.7677 33.9009C25.5927 34.1964 25.5868 34.5639 25.7541 34.8653L30.1231 42.7265L26.0302 44.7739L21.6222 36.8369C21.4841 36.588 21.243 36.411 20.965 36.3546C20.8989 36.341 20.8347 36.3352 20.7705 36.3352C20.5566 36.3352 20.3428 36.4071 20.1716 36.5413L15.9095 39.8739V17.2938L32.0363 33.4206H26.6057Z" fill="url(#paint0_linear)"/>
<path d="M14.9375 0.360107C14.4008 0.360107 13.9652 0.795681 13.9652 1.33233V7.1655C13.9652 7.70216 14.4008 8.13773 14.9375 8.13773C15.4741 8.13773 15.9097 7.70216 15.9097 7.1655V1.33233C15.9096 0.795681 15.4741 0.360107 14.9375 0.360107Z" fill="url(#paint1_linear)"/>
<path d="M7.15983 13.9708H1.32666C0.790005 13.9708 0.354431 14.4064 0.354431 14.943C0.354431 15.4797 0.790005 15.9152 1.32666 15.9152H7.15983C7.69648 15.9152 8.13205 15.4797 8.13205 14.943C8.13205 14.4064 7.69648 13.9708 7.15983 13.9708Z" fill="url(#paint2_linear)"/>
<path d="M28.5482 13.9708H22.715C22.1783 13.9708 21.7428 14.4064 21.7428 14.943C21.7428 15.4797 22.1783 15.9152 22.715 15.9152H28.5482C29.0848 15.9152 29.5204 15.4797 29.5204 14.943C29.5204 14.4064 29.0848 13.9708 28.5482 13.9708Z" fill="url(#paint3_linear)"/>
<path d="M10.1251 8.75593L5.99911 4.63188C5.61995 4.25272 5.00355 4.25272 4.6244 4.63188C4.24524 5.01103 4.24524 5.62743 4.6244 6.00659L8.75036 10.1306C8.94094 10.3192 9.18976 10.4146 9.43868 10.4146C9.68759 10.4146 9.93641 10.3212 10.1251 10.1306C10.5042 9.75148 10.5042 9.13508 10.1251 8.75593Z" fill="url(#paint4_linear)"/>
<path d="M10.1251 19.7573C9.74592 19.3782 9.12952 19.3782 8.75036 19.7573L4.6244 23.8814C4.24524 24.2606 4.24524 24.877 4.6244 25.2561C4.81498 25.4447 5.0638 25.54 5.31271 25.54C5.56162 25.54 5.81044 25.4448 5.99911 25.2561L10.1251 21.1321C10.5042 20.7529 10.5042 20.1365 10.1251 19.7573Z" fill="url(#paint5_linear)"/>
<path d="M25.2505 4.63198C24.8713 4.25091 24.2549 4.25091 23.8739 4.63198L19.7479 8.75603C19.3687 9.13519 19.3687 9.75159 19.7479 10.1307C19.9385 10.3193 20.1873 10.4147 20.4362 10.4147C20.6851 10.4147 20.9339 10.3213 21.1245 10.1307L25.2505 6.00669C25.6296 5.62754 25.6296 5.01314 25.2505 4.63198Z" fill="url(#paint6_linear)"/>
<defs>
<linearGradient id="paint0_linear" x1="13.6878" y1="47.0294" x2="13.6878" y2="0.360108" gradientUnits="userSpaceOnUse">
<stop stop-color="#0809B5"/>
<stop offset="1" stop-color="#710BA9"/>
</linearGradient>
<linearGradient id="paint1_linear" x1="13.6878" y1="47.0294" x2="13.6878" y2="0.360108" gradientUnits="userSpaceOnUse">
<stop stop-color="#0809B5"/>
<stop offset="1" stop-color="#710BA9"/>
</linearGradient>
<linearGradient id="paint2_linear" x1="13.6878" y1="47.0294" x2="13.6878" y2="0.360108" gradientUnits="userSpaceOnUse">
<stop stop-color="#0809B5"/>
<stop offset="1" stop-color="#710BA9"/>
</linearGradient>
<linearGradient id="paint3_linear" x1="13.6878" y1="47.0294" x2="13.6878" y2="0.360108" gradientUnits="userSpaceOnUse">
<stop stop-color="#0809B5"/>
<stop offset="1" stop-color="#710BA9"/>
</linearGradient>
<linearGradient id="paint4_linear" x1="13.6878" y1="47.0294" x2="13.6878" y2="0.360108" gradientUnits="userSpaceOnUse">
<stop stop-color="#0809B5"/>
<stop offset="1" stop-color="#710BA9"/>
</linearGradient>
<linearGradient id="paint5_linear" x1="13.6878" y1="47.0294" x2="13.6878" y2="0.360108" gradientUnits="userSpaceOnUse">
<stop stop-color="#0809B5"/>
<stop offset="1" stop-color="#710BA9"/>
</linearGradient>
<linearGradient id="paint6_linear" x1="13.6878" y1="47.0294" x2="13.6878" y2="0.360108" gradientUnits="userSpaceOnUse">
<stop stop-color="#0809B5"/>
<stop offset="1" stop-color="#710BA9"/>
</linearGradient>
</defs>
</svg>
