<svg width="55" height="55" viewBox="0 0 55 55" fill="none" xmlns="http://www.w3.org/2000/svg">
<path d="M22.548 21.6002L24.4381 22.7331C24.8631 22.9783 25.4062 22.8377 25.6589 22.4171C25.9116 21.9966 25.7811 21.4508 25.3649 21.1906L23.6946 20.1874C24.5005 18.8158 24.9171 17.2505 24.9004 15.6601C24.9004 11.6901 22.4786 8.46011 19.5004 8.46011C16.5223 8.46011 14.1004 11.6901 14.1004 15.6601C14.1004 19.6301 16.5223 22.8601 19.5004 22.8601C20.6391 22.8408 21.728 22.3908 22.548 21.6002ZM15.9004 15.6601C15.9004 12.7333 17.5493 10.2601 19.5004 10.2601C21.4516 10.2601 23.1004 12.7333 23.1004 15.6601C23.1141 16.9235 22.7862 18.1676 22.1521 19.2601L20.8641 18.488C20.4391 18.2428 19.8959 18.3834 19.6433 18.804C19.3901 19.2245 19.5211 19.7703 19.9373 20.0305L20.9062 20.6119C20.4923 20.8971 20.0032 21.0531 19.5004 21.0601C17.5493 21.0601 15.9004 18.5869 15.9004 15.6601Z" fill="url(#paint0_linear)"/>
<path d="M36.5481 30.6578C36.4207 30.2992 36.081 30.0597 35.7004 30.0597C35.3199 30.0597 34.9806 30.2992 34.8527 30.6578L30.3527 43.2578C30.1857 43.7258 30.4301 44.2408 30.8981 44.4078C31.3666 44.5748 31.8811 44.3309 32.0481 43.8624L33.4425 39.9601H37.9588L39.3527 43.8624C39.4806 44.221 39.8199 44.4601 40.2004 44.4601C40.4931 44.4601 40.7678 44.3182 40.9361 44.0787C41.1048 43.8396 41.1466 43.5333 41.0481 43.2578L36.5481 30.6578ZM34.085 38.1601L35.7004 33.6359L37.3207 38.1601H34.085Z" fill="url(#paint1_linear)"/>
<path d="M51.0258 44.9425C53.318 42.3142 54.5871 38.948 54.6003 35.46C54.6003 27.2928 47.4328 20.4303 38.1006 19.4148C38.2988 18.4761 38.3994 17.5194 38.4003 16.5601C38.4003 7.62777 29.9224 0.360107 19.5004 0.360107C9.07832 0.360107 0.600411 7.62777 0.600411 16.5601C0.614473 19.7672 1.69553 22.8781 3.67306 25.4027L0.658858 33.3406C0.553829 33.617 0.591622 33.9277 0.759492 34.1711C0.927803 34.4146 1.20466 34.56 1.50041 34.56C1.62433 34.5596 1.74694 34.5341 1.86032 34.4844L10.362 30.746C12.4854 31.7431 14.7635 32.3716 17.0983 32.6036C16.9006 33.5427 16.8008 34.5003 16.8004 35.46C16.8004 44.3928 25.2783 51.66 35.7003 51.66C38.5862 51.6666 41.444 51.0935 44.1035 49.9743L53.3197 54.2756C53.6581 54.4334 54.0584 54.3661 54.3265 54.1064C54.5946 53.8467 54.6746 53.4486 54.5273 53.1054L51.0258 44.9425ZM10.0218 28.9306L3.10441 31.9717L5.53414 25.5644C5.6484 25.2634 5.59347 24.9246 5.38956 24.6754C3.47706 22.4017 2.42018 19.5312 2.40041 16.5601C2.40041 8.62049 10.071 2.1601 19.5004 2.1601C28.9297 2.1601 36.6003 8.62049 36.6003 16.5601C36.6003 17.7097 36.436 18.8536 36.1125 19.9566C34.2603 26.4359 27.425 30.96 19.5004 30.96C19.0948 30.96 18.6957 30.9521 18.2739 30.917C15.6701 30.7821 13.1217 30.1128 10.7878 28.9504C10.5479 28.83 10.267 28.823 10.0218 28.9306ZM44.496 48.1716C44.2582 48.0604 43.984 48.0591 43.7445 48.1672C41.2124 49.2918 38.4711 49.8688 35.7003 49.86C26.271 49.86 18.6004 43.4001 18.6004 35.46C18.6008 34.549 18.7036 33.6407 18.9075 32.753C19.1044 32.76 19.3017 32.76 19.5004 32.76C20.0369 32.76 20.5687 32.7407 21.0951 32.7025C21.2753 32.6897 21.4471 32.6638 21.6247 32.6467C21.9701 32.6133 22.3164 32.5829 22.657 32.5342C22.8666 32.5034 23.0709 32.4603 23.2779 32.4243C23.5794 32.372 23.8826 32.3237 24.1779 32.2586C24.3981 32.2112 24.6125 32.1501 24.8292 32.096C25.1056 32.0266 25.3838 31.9611 25.6558 31.8816C25.8768 31.817 26.0922 31.7396 26.3106 31.6676C26.569 31.5819 26.8291 31.5001 27.0822 31.4056C27.3006 31.3239 27.5133 31.2312 27.7282 31.142C27.9704 31.0422 28.2143 30.9438 28.4481 30.8361C28.6625 30.7368 28.8695 30.6278 29.0782 30.5228C29.305 30.4094 29.5326 30.2969 29.7532 30.1752C29.9738 30.0539 30.161 29.937 30.3627 29.8153C30.564 29.694 30.7864 29.5626 30.9925 29.4281C31.1986 29.2941 31.3823 29.1583 31.5748 29.0234C31.7677 28.8885 31.9663 28.7452 32.1562 28.5993C32.346 28.4534 32.5235 28.3022 32.7041 28.1493C32.8852 27.9964 33.0645 27.847 33.239 27.6896C33.4134 27.5319 33.5809 27.3662 33.7483 27.2018C33.9157 27.0371 34.0788 26.8758 34.2361 26.7075C34.3938 26.5392 34.5494 26.3603 34.7015 26.1828C34.8535 26.0057 34.9994 25.833 35.1413 25.6537C35.2837 25.4748 35.4222 25.2836 35.5584 25.0956C35.6942 24.9075 35.8282 24.7229 35.9491 24.5322C36.0695 24.3415 36.1956 24.1446 36.309 23.9464C36.4224 23.7486 36.5401 23.5496 36.6482 23.3461C36.7563 23.1426 36.857 22.9431 36.955 22.7379C37.053 22.5327 37.1514 22.3147 37.2419 22.0998C37.3329 21.8845 37.4116 21.6845 37.4898 21.4696C37.5293 21.3615 37.5794 21.2591 37.6155 21.1501C46.1892 21.9601 52.8003 28.1295 52.8003 35.46C52.7788 38.7001 51.5312 41.8119 49.3084 44.1695C49.0711 44.4301 49.0083 44.8059 49.1471 45.1297L51.9429 51.6464L44.496 48.1716Z" fill="url(#paint2_linear)"/>
<defs>
<linearGradient id="paint0_linear" x1="21.1717" y1="54.36" x2="21.1717" y2="0.360108" gradientUnits="userSpaceOnUse">
<stop stop-color="#0809B5"/>
<stop offset="1" stop-color="#710BA9"/>
</linearGradient>
<linearGradient id="paint1_linear" x1="21.1717" y1="54.36" x2="21.1717" y2="0.360108" gradientUnits="userSpaceOnUse">
<stop stop-color="#0809B5"/>
<stop offset="1" stop-color="#710BA9"/>
</linearGradient>
<linearGradient id="paint2_linear" x1="21.1717" y1="54.36" x2="21.1717" y2="0.360108" gradientUnits="userSpaceOnUse">
<stop stop-color="#0809B5"/>
<stop offset="1" stop-color="#710BA9"/>
</linearGradient>
</defs>
</svg>
