<svg width="54" height="49" viewBox="0 0 54 49" fill="none" xmlns="http://www.w3.org/2000/svg">
<path d="M47.9823 0.935059H13.7106C10.7364 0.935059 8.31652 3.33226 8.31652 6.26926L8.09566 36.4472H1.40738C0.933384 36.4472 0.571289 36.8663 0.571289 37.3403V41.4935C0.571289 45.3814 3.68262 48.561 7.43768 48.7354V48.7853H36.298V48.7291C36.5126 48.7379 36.6425 48.7853 36.79 48.7853H36.8105C40.8154 48.7618 44.0436 45.4975 44.0227 41.4926V15.097H52.7352C53.2092 15.097 53.5713 14.6679 53.5713 14.1943V6.57394C53.5767 3.47685 51.0793 0.95727 47.9823 0.935059ZM7.80732 47.0687C4.75424 47.0687 2.28789 44.5453 2.28789 41.4926V38.1638H29.5389V41.4784C29.5322 43.4104 30.2953 45.2653 31.6595 46.6332C31.8045 46.7791 31.9562 46.8541 32.1113 47.0687H7.80732ZM42.3061 41.4918C42.3061 44.5453 39.8636 47.0687 36.8093 47.0687H36.7917C33.7223 47.0464 31.2484 44.5482 31.2555 41.4788V37.3403C31.258 36.8596 30.8779 36.464 30.3972 36.4472H9.81225L10.0331 6.27512C10.0331 4.27899 11.6827 2.65166 13.7106 2.65166H43.9301C42.9519 3.72453 42.3061 5.08197 42.3061 6.59699V41.4918ZM51.8547 13.3804H44.0227V6.59531C44.0227 4.44705 45.8097 2.65166 47.9571 2.65166H47.981C50.1339 2.67303 51.8647 4.42944 51.8547 6.58274V13.3804Z" fill="url(#paint0_linear)"/>
<path d="M20.7258 22.0615L25.151 25.0869C25.4398 25.2859 25.8216 25.2859 26.1103 25.0869L30.5221 22.0623C32.0547 21.0167 33.1867 18.8307 33.1867 16.977V10.8558C33.1959 10.5322 33.0174 10.2322 32.729 10.0851L25.9913 6.7709C25.7549 6.65355 25.4775 6.65355 25.2411 6.7709L18.516 10.0759C18.2276 10.223 18.0495 10.523 18.0592 10.8466V16.977C18.0592 18.8307 19.1936 21.0167 20.7258 22.0615ZM19.7758 11.3822L25.6229 8.49714L31.4701 11.3901V16.977C31.4701 18.2699 30.6227 19.9144 29.5536 20.6432L25.6129 23.3384L21.6877 20.6437C20.6186 19.914 19.7758 18.2699 19.7758 16.977V11.3822Z" fill="url(#paint1_linear)"/>
<path d="M24.1712 18.2729C24.3313 18.4363 24.55 18.5289 24.7789 18.5302H24.781C25.009 18.5293 25.2273 18.438 25.3878 18.2762L28.8022 14.8606C29.1378 14.5253 29.1378 13.9814 28.8026 13.6461C28.4677 13.3104 27.9237 13.3104 27.5885 13.6457L24.7839 16.4498L23.6628 15.3178C23.3288 14.9809 22.7852 14.9784 22.4483 15.3124C22.1113 15.6464 22.1093 16.19 22.4428 16.5269L24.1712 18.2729Z" fill="url(#paint2_linear)"/>
<path d="M36.298 27.5423H15.6988C15.2248 27.5423 14.8405 27.9266 14.8405 28.4006C14.8405 28.8746 15.2248 29.2589 15.6988 29.2589H36.298C36.772 29.2589 37.1563 28.8746 37.1563 28.4006C37.1563 27.9266 36.772 27.5423 36.298 27.5423Z" fill="url(#paint3_linear)"/>
<path d="M36.298 31.5119H15.6988C15.2248 31.5119 14.8405 31.8962 14.8405 32.3702C14.8405 32.8442 15.2248 33.2285 15.6988 33.2285H36.298C36.772 33.2285 37.1563 32.8442 37.1563 32.3702C37.1563 31.8962 36.772 31.5119 36.298 31.5119Z" fill="url(#paint4_linear)"/>
<defs>
<linearGradient id="paint0_linear" x1="20.7618" y1="48.7853" x2="20.7618" y2="0.935059" gradientUnits="userSpaceOnUse">
<stop stop-color="#0809B5"/>
<stop offset="1" stop-color="#710BA9"/>
</linearGradient>
<linearGradient id="paint1_linear" x1="20.7618" y1="48.7853" x2="20.7618" y2="0.935059" gradientUnits="userSpaceOnUse">
<stop stop-color="#0809B5"/>
<stop offset="1" stop-color="#710BA9"/>
</linearGradient>
<linearGradient id="paint2_linear" x1="20.7618" y1="48.7853" x2="20.7618" y2="0.935059" gradientUnits="userSpaceOnUse">
<stop stop-color="#0809B5"/>
<stop offset="1" stop-color="#710BA9"/>
</linearGradient>
<linearGradient id="paint3_linear" x1="20.7618" y1="48.7853" x2="20.7618" y2="0.935059" gradientUnits="userSpaceOnUse">
<stop stop-color="#0809B5"/>
<stop offset="1" stop-color="#710BA9"/>
</linearGradient>
<linearGradient id="paint4_linear" x1="20.7618" y1="48.7853" x2="20.7618" y2="0.935059" gradientUnits="userSpaceOnUse">
<stop stop-color="#0809B5"/>
<stop offset="1" stop-color="#710BA9"/>
</linearGradient>
</defs>
</svg>
