<?xml version="1.0" encoding="UTF-8"?><!DOCTYPE svg PUBLIC "-//W3C//DTD SVG 1.1//EN" "http://www.w3.org/Graphics/SVG/1.1/DTD/svg11.dtd"><svg xmlns="http://www.w3.org/2000/svg" xmlns:xlink="http://www.w3.org/1999/xlink"><symbol id="icon-arrow" viewBox="0 0 16 9">
<path d="M15.5798 4.85355C15.775 4.65829 15.775 4.34171 15.5798 4.14645L12.3978 0.964466C12.2025 0.769204 11.8859 0.769204 11.6907 0.964466C11.4954 1.15973 11.4954 1.47631 11.6907 1.67157L14.5191 4.5L11.6907 7.32843C11.4954 7.52369 11.4954 7.84027 11.6907 8.03553C11.8859 8.2308 12.2025 8.2308 12.3978 8.03553L15.5798 4.85355ZM0.226196 5H15.2262V4H0.226196V5Z"/>
</symbol><symbol id="icon-check-circle" viewBox="0 0 54 54">
<path d="M27.0001 0.356079C21.7303 0.356079 16.5788 1.91875 12.1972 4.84649C7.81549 7.77423 4.4004 11.9355 2.38374 16.8042C0.367075 21.6728 -0.160576 27.0302 0.867509 32.1987C1.89559 37.3672 4.43324 42.1148 8.15954 45.8411C11.8858 49.5674 16.6334 52.1051 21.802 53.1332C26.9705 54.1613 32.3278 53.6336 37.1965 51.6169C42.0651 49.6003 46.2265 46.1852 49.1542 41.8035C52.0819 37.4218 53.6446 32.2704 53.6446 27.0006C53.6366 19.9365 50.8268 13.164 45.8317 8.16893C40.8367 3.17385 34.0642 0.364094 27.0001 0.356079ZM27.0001 51.567C22.1413 51.567 17.3916 50.1262 13.3517 47.4268C9.31178 44.7274 6.16305 40.8907 4.30367 36.4018C2.4443 31.9128 1.9578 26.9734 2.9057 22.2079C3.8536 17.4425 6.19333 13.0652 9.629 9.62954C13.0647 6.19386 17.442 3.85414 22.2074 2.90624C26.9728 1.95834 31.9123 2.44484 36.4012 4.30421C40.8902 6.16358 44.7269 9.31232 47.4263 13.3522C50.1257 17.3922 51.5665 22.1418 51.5665 27.0006C51.5591 33.5138 48.9685 39.758 44.363 44.3635C39.7575 48.969 33.5132 51.5596 27.0001 51.567Z"/>
<path d="M27.0001 5.45105C22.738 5.45105 18.5716 6.71491 15.0278 9.08281C11.484 11.4507 8.72191 14.8163 7.09087 18.754C5.45984 22.6916 5.03308 27.0245 5.86458 31.2047C6.69607 35.3849 8.74847 39.2247 11.7622 42.2385C14.776 45.2522 18.6158 47.3046 22.796 48.1361C26.9762 48.9676 31.3091 48.5408 35.2467 46.9098C39.1844 45.2788 42.55 42.5167 44.9179 38.9729C47.2858 35.4291 48.5496 31.2627 48.5496 27.0006C48.5432 21.2873 46.2707 15.8098 42.2308 11.7699C38.1909 7.72996 32.7134 5.45749 27.0001 5.45105ZM27.0001 46.4721C23.149 46.4721 19.3844 45.3301 16.1823 43.1905C12.9803 41.051 10.4846 38.01 9.01081 34.452C7.53706 30.8941 7.15146 26.979 7.90277 23.2019C8.65408 19.4248 10.5086 15.9554 13.2317 13.2322C15.9548 10.5091 19.4243 8.65462 23.2014 7.90331C26.9785 7.152 30.8935 7.5376 34.4515 9.01135C38.0094 10.4851 41.0504 12.9808 43.19 16.1829C45.3295 19.3849 46.4715 23.1495 46.4715 27.0006C46.4657 32.163 44.4124 37.1122 40.762 40.7626C37.1117 44.4129 32.1624 46.4662 27.0001 46.4721Z"/>
<path d="M34.7556 16.7609L23.3188 30.1903L19.0147 26.0614C18.6973 25.7568 18.3229 25.5178 17.9131 25.3579C17.5032 25.198 17.0659 25.1204 16.6261 25.1295C16.1862 25.1387 15.7525 25.2343 15.3496 25.4111C14.9468 25.5878 14.5827 25.8422 14.2781 26.1597C13.663 26.8008 13.3278 27.66 13.3462 28.5483C13.3647 29.4366 13.7352 30.2812 14.3764 30.8963L21.2461 37.4869C21.869 38.0862 22.7002 38.4204 23.5646 38.4191C23.624 38.4191 23.6834 38.4191 23.7333 38.415C24.1891 38.3913 24.6354 38.275 25.0449 38.0732C25.4543 37.8714 25.8184 37.5883 26.1148 37.2411L39.8566 21.1054C40.1418 20.7704 40.3583 20.3826 40.4937 19.964C40.6291 19.5454 40.6807 19.1042 40.6455 18.6657C40.6104 18.2272 40.4893 17.7998 40.289 17.4081C40.0887 17.0164 39.8133 16.668 39.4783 16.3827C39.1434 16.0974 38.7556 15.8809 38.337 15.7456C37.9184 15.6102 37.4772 15.5586 37.0387 15.5937C36.6001 15.6288 36.1728 15.75 35.7811 15.9502C35.3893 16.1505 35.0409 16.426 34.7556 16.7609ZM38.2748 19.757L24.5313 35.8927C24.4173 36.0253 24.2775 36.1333 24.1204 36.2099C23.9633 36.2866 23.7921 36.3304 23.6175 36.3386H23.5629C23.2344 36.3385 22.9189 36.2108 22.6829 35.9824L15.8132 29.3917C15.5731 29.1575 15.4352 28.8378 15.4296 28.5023C15.4241 28.1669 15.5513 27.8428 15.7836 27.6007C16.0159 27.3586 16.3344 27.2181 16.6698 27.2099C17.0052 27.2016 17.3303 27.3261 17.5743 27.5565L22.674 32.449C22.7774 32.5454 22.8988 32.6205 23.0312 32.6699C23.1637 32.7194 23.3046 32.7421 23.4459 32.7369C23.5873 32.7298 23.7258 32.6938 23.8528 32.6312C23.9798 32.5686 24.0927 32.4808 24.1845 32.373L36.3368 18.1087C36.4436 17.977 36.5757 17.868 36.7253 17.7881C36.8749 17.7082 37.0389 17.6589 37.2078 17.6433C37.3766 17.6277 37.5469 17.646 37.7086 17.6971C37.8703 17.7483 38.0201 17.8312 38.1493 17.9411C38.2785 18.0509 38.3844 18.1855 38.4608 18.3369C38.5373 18.4883 38.5826 18.6534 38.5943 18.8226C38.606 18.9918 38.5838 19.1616 38.5289 19.322C38.474 19.4825 38.3876 19.6304 38.2748 19.757Z"/>
</symbol><symbol id="icon-clock-2" viewBox="0 0 21 21">
<g>
<path d="M10.6497 20.0159C7.97856 20.0159 5.46735 18.9757 3.57856 17.087C1.68985 15.1982 0.649658 12.687 0.649658 10.0159C0.649658 7.34478 1.68985 4.83356 3.57856 2.94478C5.46735 1.05606 7.97856 0.0158691 10.6497 0.0158691C13.3208 0.0158691 15.832 1.05606 17.7208 2.94478C19.6095 4.83356 20.6497 7.34478 20.6497 10.0159C20.6497 12.687 19.6095 15.1982 17.7208 17.087C15.832 18.9757 13.3208 20.0159 10.6497 20.0159ZM10.6497 1.18774C8.29157 1.18774 6.07466 2.10603 4.40724 3.77345C2.73981 5.44087 1.82153 7.65778 1.82153 10.0159C1.82153 12.374 2.73981 14.5909 4.40724 16.2583C6.07466 17.9257 8.29157 18.844 10.6497 18.844C13.0077 18.844 15.2247 17.9257 16.8921 16.2583C18.5595 14.5909 19.4778 12.374 19.4778 10.0159C19.4778 7.65778 18.5595 5.44087 16.8921 3.77345C15.2247 2.10603 13.0077 1.18774 10.6497 1.18774Z"/>
<path d="M10.0637 2.36096H11.2356V3.92471H10.0637V2.36096Z"/>
<path d="M14.5404 5.29553L15.646 4.18996L16.4745 5.01848L15.3689 6.12405L14.5404 5.29553Z"/>
<path d="M16.7407 9.42993H18.3045V10.6018H16.7407V9.42993Z"/>
<path d="M14.5393 14.7373L15.3678 13.9088L16.4734 15.0144L15.6449 15.8429L14.5393 14.7373Z"/>
<path d="M10.0637 16.1069H11.2356V17.6707H10.0637V16.1069Z"/>
<path d="M4.82056 15.0133L5.92613 13.9077L6.75464 14.7362L5.64907 15.8418L4.82056 15.0133Z"/>
<path d="M2.99475 9.42993H4.5585V10.6018H2.99475V9.42993Z"/>
<path d="M4.82153 5.01746L5.65005 4.18894L6.75562 5.29451L5.9271 6.12303L4.82153 5.01746Z"/>
<path d="M14.7861 10.6017H10.0637V5.87939H11.2356V9.42986H14.7861V10.6017Z"/>
</g>
</symbol><symbol id="icon-clock" viewBox="0 0 42 42">
<g>
<path d="M37.204 12.9928L38.0424 12.0176L38.8594 12.7201C38.9695 12.8147 39.1095 12.8662 39.2536 12.8662C39.2688 12.8662 39.2839 12.8656 39.2991 12.8645C39.4589 12.8524 39.6075 12.7774 39.712 12.6557L41.0101 11.1459C41.2277 10.8927 41.1989 10.5111 40.9457 10.2934L36.4814 6.4553C36.3597 6.35075 36.2017 6.2982 36.0417 6.31085C35.8819 6.32286 35.7333 6.39799 35.6288 6.51955L34.3307 8.02935C34.1131 8.28255 34.1419 8.66423 34.3951 8.88187L35.2121 9.58438L34.3095 10.6342C32.4607 9.45331 30.3567 8.63803 28.1002 8.29182V6.46506H30.1824C31.1542 6.46506 31.9447 5.67445 31.9447 4.70263V3.296C31.9447 2.32418 31.1541 1.53357 30.1824 1.53357H21.0991C20.1273 1.53357 19.3367 2.32418 19.3367 3.296V4.70263C19.3367 5.67445 20.1273 6.46506 21.0991 6.46506H23.1813V8.29182C20.8803 8.64488 18.7383 9.48612 16.8632 10.7049L15.8999 9.58438L16.717 8.88187C16.8385 8.77732 16.9136 8.62876 16.9257 8.46891C16.9377 8.30907 16.8858 8.15091 16.7812 8.02927L15.4832 6.51947C15.2655 6.26636 14.8839 6.2375 14.6306 6.45522L10.1663 10.2933C10.0447 10.3979 9.9697 10.5464 9.95761 10.7063C9.9456 10.8661 9.99751 11.0243 10.1021 11.1459L11.4001 12.6557C11.5196 12.7948 11.6888 12.8661 11.8588 12.8661C11.9983 12.8661 12.1386 12.8181 12.2526 12.72L13.0697 12.0176L13.9876 13.0851C13.1932 13.9136 12.4864 14.8265 11.8814 15.8084C11.861 15.8063 11.8403 15.8053 11.8193 15.8053H8.00139C7.66751 15.8053 7.39683 16.076 7.39683 16.4099C7.39683 16.7437 7.66751 17.0144 8.00139 17.0144H11.2079C10.8896 17.6464 10.6117 18.3019 10.3773 18.9777H4.26888C3.935 18.9777 3.66431 19.2484 3.66431 19.5823C3.66431 19.9162 3.935 20.1869 4.26888 20.1869H10.0103C9.79204 21.0249 9.64049 21.8894 9.55964 22.7742H1.39509C1.06121 22.7742 0.790527 23.0448 0.790527 23.3787C0.790527 23.7126 1.06121 23.9833 1.39509 23.9833H9.49459C9.49306 24.0737 9.49112 24.1639 9.49112 24.2546C9.49112 25.041 9.54876 25.814 9.6579 26.5706H3.70462C3.37074 26.5706 3.10005 26.8413 3.10005 27.1752C3.10005 27.509 3.37074 27.7797 3.70462 27.7797H9.87974C10.0297 28.4507 10.2211 29.1061 10.452 29.743H7.43713C7.10325 29.743 6.83256 30.0136 6.83256 30.3475C6.83256 30.6814 7.10325 30.9521 7.43713 30.9521H10.9468C13.4965 36.5237 19.1237 40.4043 25.6409 40.4043C29.0447 40.4043 32.3003 39.3577 35.0557 37.3776C35.3267 37.1828 35.3887 36.8049 35.1938 36.5339C34.9987 36.2626 34.6211 36.2009 34.35 36.3958C31.8016 38.2272 28.7899 39.1952 25.6409 39.1952C17.4026 39.1952 10.7003 32.4929 10.7003 24.2547C10.7003 16.0164 17.4026 9.3141 25.6409 9.3141C29.6288 9.3141 33.2569 10.8848 35.939 13.4399C35.9445 13.4457 35.9506 13.451 35.9563 13.4567C38.8046 16.1788 40.5814 20.0131 40.5814 24.2547C40.5814 28.2503 39.024 32.0056 36.1961 34.8285C35.9598 35.0644 35.9594 35.4472 36.1954 35.6835C36.4312 35.9198 36.8141 35.9202 37.0503 35.6842C40.1071 32.6328 41.7905 28.5737 41.7905 24.2546C41.7905 19.8785 40.0403 15.9043 37.204 12.9928ZM36.1516 7.76625L39.6991 10.8161L39.1894 11.409L35.6418 8.35912L36.1516 7.76625ZM36.1291 10.3727L37.1255 11.2293L36.3275 12.1576C35.9994 11.8674 35.6601 11.5896 35.3091 11.3264L36.1291 10.3727ZM22.9672 5.25592V2.7427H23.9435V5.25592H22.9672ZM25.1526 2.7427H26.129V5.25592H25.1526V2.7427ZM27.3381 5.25592V2.7427H28.3145V5.25592H27.3381ZM30.7357 3.296V4.70263C30.7357 5.00773 30.4876 5.25592 30.1825 5.25592H29.5237V2.7427H30.1825C30.4876 2.7427 30.7357 2.9909 30.7357 3.296ZM20.5459 4.70263V3.296C20.5459 2.9909 20.7941 2.7427 21.0992 2.7427H21.758V5.25592H21.0992C20.7941 5.25592 20.5459 5.00773 20.5459 4.70263ZM11.9228 11.409L11.413 10.8162L14.9604 7.76633L15.4702 8.3592L14.6532 9.06163C14.6532 9.06163 14.6532 9.06171 14.6531 9.06171L12.7398 10.7066C12.7397 10.7067 12.7397 10.7067 12.7397 10.7068L11.9228 11.409ZM14.0047 11.2137L14.9829 10.3727L15.8703 11.4048C15.5216 11.6707 15.1837 11.9502 14.858 12.2429L13.9865 11.2294L14.0047 11.2137ZM24.3905 8.15285V6.46506H26.8912V8.15293C26.4785 8.12117 26.0615 8.10488 25.6408 8.10488C25.2201 8.10488 24.8032 8.12117 24.3905 8.15285Z"/>
<path d="M20.5775 13.24C20.4228 12.9441 20.0575 12.8296 19.7617 12.9842C16.086 14.9054 13.5722 18.5046 13.0369 22.612C12.1313 29.5617 17.0486 35.9526 23.9984 36.8582C24.5536 36.9306 25.1042 36.9657 25.6497 36.9657C31.9331 36.9651 37.4113 32.2913 38.2446 25.8968C38.6833 22.5301 37.7847 19.1942 35.7143 16.5034C33.6439 13.8127 30.6497 12.0892 27.283 11.6504C25.6405 11.4363 24.0025 11.5396 22.414 11.957C22.0911 12.0419 21.8981 12.3725 21.9829 12.6954C22.0678 13.0183 22.3985 13.2111 22.7213 13.1265C23.4821 12.9266 24.2558 12.8072 25.0361 12.7671V14.3555C25.0361 14.6894 25.3067 14.9601 25.6407 14.9601C25.9747 14.9601 26.2453 14.6894 26.2453 14.3555V12.7686C26.5388 12.7844 26.8327 12.811 27.1269 12.8493C29.4813 13.1561 31.6341 14.1579 33.3557 15.721L32.2608 16.8159C32.0246 17.052 32.0246 17.4347 32.2607 17.6708C32.3788 17.7889 32.5335 17.8479 32.6882 17.8479C32.8429 17.8479 32.9977 17.7889 33.1157 17.6708L34.2075 16.579C34.3974 16.7917 34.5805 17.0123 34.7561 17.2406C36.2017 19.1193 37.0152 21.3458 37.1293 23.6642H35.6297C35.2957 23.6642 35.0251 23.9349 35.0251 24.2688C35.0251 24.6027 35.2957 24.8734 35.6297 24.8734H37.126C37.11 25.1618 37.0834 25.4509 37.0456 25.7403C36.7342 28.1303 35.7054 30.2542 34.2049 31.9245L33.1692 30.8888C32.933 30.6527 32.5502 30.6527 32.3141 30.8888C32.078 31.1249 32.078 31.5077 32.3141 31.7437L33.351 32.7806C31.4468 34.5 28.981 35.579 26.3208 35.7356V34.2576C26.3208 33.9237 26.0502 33.653 25.7162 33.653C25.3823 33.653 25.1117 33.9237 25.1117 34.2576V35.743C24.7943 35.7281 24.4752 35.7008 24.1547 35.659C21.791 35.351 19.6872 34.3416 18.0253 32.8679L19.0961 31.7971C19.3322 31.561 19.3322 31.1783 19.0961 30.9422C18.86 30.7061 18.4772 30.7061 18.2412 30.9422L17.1643 32.019C15.4191 30.1108 14.3214 27.6288 14.1602 24.9487H15.7273C16.0612 24.9487 16.3319 24.678 16.3319 24.3442C16.3319 24.0103 16.0612 23.7396 15.7273 23.7396H14.1514C14.166 23.4175 14.1935 23.0934 14.2359 22.768C14.5386 20.4456 15.5405 18.3026 17.0611 16.5974L18.1878 17.7241C18.3059 17.8422 18.4606 17.9012 18.6153 17.9012C18.77 17.9012 18.9248 17.8422 19.0428 17.7241C19.2789 17.488 19.2789 17.1052 19.0428 16.8691L17.913 15.7393C18.6331 15.0849 19.44 14.5164 20.3217 14.0556C20.6176 13.9011 20.7322 13.5358 20.5775 13.24Z"/>
<path d="M25.6409 18.7089C25.3069 18.7089 25.0363 18.9795 25.0363 19.3134V22.9046C24.5208 23.1364 24.1604 23.6537 24.1604 24.2546C24.1604 25.0709 24.8245 25.7351 25.6409 25.7351C25.8646 25.7351 26.0762 25.6837 26.2666 25.5944L30.3 29.6278C30.4181 29.7459 30.5728 29.8049 30.7275 29.8049C30.8822 29.8049 31.037 29.7459 31.1551 29.6278C31.3912 29.3917 31.3912 29.0089 31.1551 28.7729L27.0592 24.6769C27.0992 24.5429 27.1213 24.4014 27.1213 24.2546C27.1213 23.6537 26.7609 23.1364 26.2455 22.9046V19.3135C26.2454 18.9795 25.9747 18.7089 25.6409 18.7089ZM25.3695 24.2545C25.3695 24.1049 25.4913 23.9832 25.6409 23.9832C25.7904 23.9832 25.9121 24.1049 25.9121 24.2545C25.9121 24.4041 25.7904 24.5258 25.6409 24.5258C25.4912 24.5258 25.3695 24.4041 25.3695 24.2545Z"/>
</g>
</symbol><symbol id="icon-contract" viewBox="0 0 32 34">
<path d="M31.1751 11.3499C30.0785 10.219 28.2942 10.219 27.1972 11.3501C26.8599 11.6984 24.7058 13.9215 24.3767 14.2612V6.5996C24.3767 5.82487 24.0842 5.09655 23.5529 4.54877L20.9014 1.81421C20.3702 1.26636 19.6639 0.964722 18.9126 0.964722H2.81424C1.26343 0.964722 0.0017395 2.26584 0.0017395 3.86511V31.0643C0.0017395 32.6636 1.26343 33.9647 2.81424 33.9647H21.5642C23.1151 33.9647 24.3767 32.6636 24.3767 31.0643V22.4683L31.175 15.4517C32.2742 14.3182 32.2744 12.4835 31.1751 11.3499ZM18.7518 2.89832C18.9289 2.89832 19.2702 2.86667 19.5756 3.18146L22.2272 5.91601C22.5247 6.22287 22.5018 6.55912 22.5018 6.7655H18.7518V2.89832ZM22.5017 31.0643C22.5017 31.5974 22.0812 32.0311 21.5642 32.0311H2.81424C2.2973 32.0311 1.87674 31.5974 1.87674 31.0643V3.86511C1.87674 3.33202 2.2973 2.89832 2.81424 2.89832H16.8767V7.7323C16.8767 8.26623 17.2965 8.6991 17.8142 8.6991H22.5017V16.1965C22.5017 16.1965 19.7359 19.0512 19.7357 19.0513L18.4106 20.418C18.3077 20.5241 18.2301 20.6535 18.1841 20.7959L16.8582 24.8976C16.7459 25.2451 16.8336 25.6281 17.0847 25.887C17.3361 26.1463 17.7077 26.2363 18.0441 26.1206L22.0216 24.7533C22.1596 24.7059 22.2851 24.6259 22.388 24.5198L22.5017 24.4025V31.0643ZM20.3992 21.1016L21.7251 22.4689L21.2186 22.9911L19.2299 23.6747L19.8928 21.6238L20.3992 21.1016ZM23.0506 21.1013L21.7248 19.7341C22.4308 19.0054 25.5664 15.7691 26.2314 15.0827L27.5572 16.45L23.0506 21.1013ZM29.8489 14.0847L28.8825 15.0821L27.5567 13.7149L28.5234 12.7171C28.8892 12.3401 29.4838 12.3402 29.8493 12.7171C30.2147 13.0942 30.2167 13.7054 29.8489 14.0847Z"/>
</symbol><symbol id="icon-dislike" viewBox="0 0 26 28">
<g>
<path d="M3.85901 15.4035H2.35218V16.9683H3.85901V15.4035Z"/>
<path d="M24.8137 13.7778C25.1806 13.2949 25.4004 12.6861 25.4004 12.0247C25.4004 11.0559 24.9299 10.1994 24.2141 9.68755C24.581 9.2046 24.8008 8.59584 24.8008 7.93439C24.8008 6.96598 24.3309 6.10931 23.6155 5.59736C23.9822 5.11453 24.2012 4.50544 24.2012 3.84416C24.2012 2.28032 22.976 1.008 21.4701 1.008H14.6915C13.2504 1.008 11.8355 1.27446 10.4862 1.79991L7.65111 2.90401V1.62805H0V20.277H7.65111V17.2815C10.2483 20.1736 12.6971 23.0177 13.1225 23.7247V26.836C13.1225 27.4631 13.6137 27.9732 14.2175 27.9732C16.7078 27.9732 18.7338 25.8693 18.7338 23.2833V21.8798L17.9173 18.9509L23.2689 18.9511C24.7748 18.9511 26 17.6788 26 16.115C26 15.1462 25.5296 14.2897 24.8137 13.7778ZM6.12767 18.6949H1.52344V3.21008H6.12767V18.6949ZM23.2689 17.3691L15.8902 17.3687L17.2104 22.1042V23.2833C17.2104 24.8459 16.0939 26.1429 14.6459 26.3595V23.5644C14.6459 23.1813 14.6459 22.8787 10.8996 18.6085C9.57531 17.0989 8.23829 15.6176 7.65111 14.9697V4.59346L11.0211 3.28111C12.1987 2.82248 13.4337 2.58997 14.6914 2.58997H21.4701C22.136 2.58997 22.6777 3.1526 22.6777 3.8441C22.6777 4.53561 22.136 5.09823 21.4701 5.09823H19.5218V6.68026H22.0697C22.7356 6.68026 23.2774 7.24283 23.2774 7.93434C23.2774 8.62584 22.7356 9.18847 22.0697 9.18847H20.218V10.7705H22.6693C23.3352 10.7705 23.8769 11.3331 23.8769 12.0246C23.8769 12.7161 23.3352 13.2788 22.6693 13.2788H20.8194V14.8608H23.2688C23.9347 14.8608 24.4765 15.4234 24.4765 16.1149C24.4766 16.8065 23.9348 17.3691 23.2689 17.3691Z"/>
</g>
</symbol><symbol id="icon-driver" viewBox="0 0 27 34">
<path d="M24.4332 20.1607C24.4198 20.1562 24.4063 20.152 24.3926 20.1481L20.7801 19.118L18.2158 16.6719V16.0143C19.4429 14.7886 20.216 13.0956 20.216 11.2283V7.23218C20.2161 3.51065 17.202 0.464722 13.4614 0.464722C9.72975 0.464722 6.69387 3.50066 6.69387 7.23225V11.2284C6.69387 13.0956 7.46699 14.7887 8.69412 16.0144V16.6719L6.14621 19.1147L2.60148 20.1499C2.58981 20.1533 2.57827 20.1569 2.5668 20.1607C1.01071 20.6794 0.0998535 22.326 0.482964 23.9179L2.19214 32.6828C2.28211 33.1445 2.68675 33.4648 3.13998 33.4648C3.16686 33.4648 3.19393 33.4632 3.22107 33.4609C3.24549 33.4628 3.26986 33.4647 3.29474 33.4647H23.7664C24.2253 33.4647 24.621 33.142 24.7134 32.6925L26.5158 23.9231C26.9023 22.3295 25.9911 20.68 24.4332 20.1607ZM18.9765 20.0652L16.2116 24.2128L14.7043 22.7055L17.4391 18.5838L18.9765 20.0652ZM13.4613 2.39832C15.0401 2.39832 16.4442 3.15919 17.327 4.33327C16.4201 5.53719 14.9864 6.26551 13.4613 6.26551H8.7246C9.17384 4.06173 11.1269 2.39832 13.4613 2.39832ZM8.61452 11.2284V8.19905H13.4614C15.2493 8.19905 16.9472 7.4842 18.1976 6.26242C18.2616 6.57586 18.2954 6.90019 18.2954 7.23225V11.2284C18.2954 13.8938 16.1269 16.0623 13.4614 16.0623C10.7959 16.0623 8.61452 13.8938 8.61452 11.2284ZM9.48367 18.5838L12.2186 22.7055L10.7113 24.2128L7.94633 20.0652L9.48367 18.5838ZM12.4946 31.531H3.93753C3.93031 31.4941 2.37467 23.5122 2.36539 23.4758C2.21012 22.8546 2.56023 22.2096 3.16351 22L6.30135 21.0836L9.75663 26.2666C10.0944 26.7734 10.8128 26.8459 11.2447 26.4139L12.4947 25.1639L12.4946 31.531ZM11.1425 17.5865C11.8662 17.8513 12.6472 17.9959 13.4614 17.9959C14.2756 17.9959 15.0566 17.8513 15.7803 17.5865L13.4614 21.0813L11.1425 17.5865ZM24.6255 23.5156L22.9781 31.531H14.4152V25.1639L15.6781 26.4139C16.1095 26.8455 16.8281 26.7738 17.1662 26.2666L20.6216 21.0834L23.8391 22.0009C24.3673 22.1857 24.7889 22.7285 24.6255 23.5156Z"/>
<path d="M21.1957 27.6639H19.2621C18.7282 27.6639 18.2953 28.0967 18.2953 28.6307C18.2953 29.1646 18.7282 29.5975 19.2621 29.5975H21.1957C21.7296 29.5975 22.1625 29.1646 22.1625 28.6307C22.1625 28.0967 21.7297 27.6639 21.1957 27.6639Z" fill="#FEE39E"/>
</symbol><symbol id="icon-growth" viewBox="0 0 40 40">
<path d="M6.35 26.1829C3.44246 26.1829 0.5 27.076 0.5 28.7829V36.5829C0.5 38.2897 3.44246 39.1829 6.35 39.1829C9.25754 39.1829 12.2 38.2897 12.2 36.5829V28.7829C12.2 27.076 9.25754 26.1829 6.35 26.1829ZM6.35 27.4829C9.30547 27.4829 10.9 28.4058 10.9 28.7829C10.9 29.1599 9.30547 30.0829 6.35 30.0829C3.39453 30.0829 1.8 29.1599 1.8 28.7829C1.8 28.4058 3.39453 27.4829 6.35 27.4829ZM6.35 37.8829C3.39453 37.8829 1.8 36.9599 1.8 36.5829V35.6729C3.22791 36.3182 4.78403 36.6292 6.35 36.5829C7.91597 36.6292 9.4721 36.3182 10.9 35.6729V36.5829C10.9 36.9599 9.30547 37.8829 6.35 37.8829ZM6.35 35.2829C3.39453 35.2829 1.8 34.3599 1.8 33.9829V33.0729C3.22791 33.7182 4.78403 34.0292 6.35 33.9829C7.91597 34.0292 9.4721 33.7182 10.9 33.0729V33.9829C10.9 34.3599 9.30547 35.2829 6.35 35.2829ZM6.35 32.6829C3.39453 32.6829 1.8 31.7599 1.8 31.3829V30.4729C3.22791 31.1182 4.78403 31.4292 6.35 31.3829C7.91597 31.4292 9.4721 31.1182 10.9 30.4729V31.3829C10.9 31.7599 9.30547 32.6829 6.35 32.6829Z"/>
<path d="M20 20.9829C17.0925 20.9829 14.15 21.876 14.15 23.5829V36.5829C14.15 38.2897 17.0925 39.1829 20 39.1829C22.9075 39.1829 25.85 38.2897 25.85 36.5829V23.5829C25.85 21.876 22.9075 20.9829 20 20.9829ZM20 22.2829C22.9555 22.2829 24.55 23.2058 24.55 23.5829C24.55 23.9599 22.9555 24.8829 20 24.8829C17.0445 24.8829 15.45 23.9599 15.45 23.5829C15.45 23.2058 17.0445 22.2829 20 22.2829ZM20 37.8829C17.0445 37.8829 15.45 36.9599 15.45 36.5829V35.6729C16.8779 36.3182 18.434 36.6292 20 36.5829C21.566 36.6292 23.1221 36.3182 24.55 35.6729V36.5829C24.55 36.9599 22.9555 37.8829 20 37.8829ZM20 35.2829C17.0445 35.2829 15.45 34.3599 15.45 33.9829V33.0729C16.8779 33.7182 18.434 34.0292 20 33.9829C21.566 34.0292 23.1221 33.7182 24.55 33.0729V33.9829C24.55 34.3599 22.9555 35.2829 20 35.2829ZM20 32.6829C17.0445 32.6829 15.45 31.7599 15.45 31.3829V30.4729C16.8779 31.1182 18.434 31.4292 20 31.3829C21.566 31.4292 23.1221 31.1182 24.55 30.4729V31.3829C24.55 31.7599 22.9555 32.6829 20 32.6829ZM20 30.0829C17.0445 30.0829 15.45 29.1599 15.45 28.7829V27.8729C16.8779 28.5182 18.434 28.8292 20 28.7829C21.566 28.8292 23.1221 28.5182 24.55 27.8729V28.7829C24.55 29.1599 22.9555 30.0829 20 30.0829ZM20 27.4829C17.0445 27.4829 15.45 26.5599 15.45 26.1829V25.2729C16.8779 25.9182 18.434 26.2292 20 26.1829C21.566 26.2292 23.1221 25.9182 24.55 25.2729V26.1829C24.55 26.5599 22.9555 27.4829 20 27.4829Z"/>
<path d="M33.65 13.1829C30.7425 13.1829 27.8 14.076 27.8 15.7829V36.5829C27.8 38.2897 30.7425 39.1829 33.65 39.1829C36.5575 39.1829 39.5 38.2897 39.5 36.5829V15.7829C39.5 14.076 36.5575 13.1829 33.65 13.1829ZM33.65 14.4829C36.6055 14.4829 38.2 15.4058 38.2 15.7829C38.2 16.1599 36.6055 17.0829 33.65 17.0829C30.6945 17.0829 29.1 16.1599 29.1 15.7829C29.1 15.4058 30.6945 14.4829 33.65 14.4829ZM33.65 37.8829C30.6945 37.8829 29.1 36.9599 29.1 36.5829V35.6729C30.5279 36.3182 32.084 36.6292 33.65 36.5829C35.216 36.6292 36.7721 36.3182 38.2 35.6729V36.5829C38.2 36.9599 36.6055 37.8829 33.65 37.8829ZM33.65 35.2829C30.6945 35.2829 29.1 34.3599 29.1 33.9829V33.0729C30.5279 33.7182 32.084 34.0292 33.65 33.9829C35.216 34.0292 36.7721 33.7182 38.2 33.0729V33.9829C38.2 34.3599 36.6055 35.2829 33.65 35.2829ZM33.65 32.6829C30.6945 32.6829 29.1 31.7599 29.1 31.3829V30.4729C30.5279 31.1182 32.084 31.4292 33.65 31.3829C35.216 31.4292 36.7721 31.1182 38.2 30.4729V31.3829C38.2 31.7599 36.6055 32.6829 33.65 32.6829ZM33.65 30.0829C30.6945 30.0829 29.1 29.1599 29.1 28.7829V27.8729C30.5279 28.5182 32.084 28.8292 33.65 28.7829C35.216 28.8292 36.7721 28.5182 38.2 27.8729V28.7829C38.2 29.1599 36.6055 30.0829 33.65 30.0829ZM33.65 27.4829C30.6945 27.4829 29.1 26.5599 29.1 26.1829V25.2729C30.5279 25.9182 32.084 26.2292 33.65 26.1829C35.216 26.2292 36.7721 25.9182 38.2 25.2729V26.1829C38.2 26.5599 36.6055 27.4829 33.65 27.4829ZM33.65 24.8829C30.6945 24.8829 29.1 23.9599 29.1 23.5829V22.6729C30.5279 23.3182 32.084 23.6292 33.65 23.5829C35.216 23.6292 36.7721 23.3182 38.2 22.6729V23.5829C38.2 23.9599 36.6055 24.8829 33.65 24.8829ZM33.65 22.2829C30.6945 22.2829 29.1 21.3599 29.1 20.9829V20.0729C30.5279 20.7182 32.084 21.0292 33.65 20.9829C35.216 21.0292 36.7721 20.7182 38.2 20.0729V20.9829C38.2 21.3599 36.6055 22.2829 33.65 22.2829ZM33.65 19.6829C30.6945 19.6829 29.1 18.7599 29.1 18.3829V17.4729C30.5279 18.1182 32.084 18.4292 33.65 18.3829C35.216 18.4292 36.7721 18.1182 38.2 17.4729V18.3829C38.2 18.7599 36.6055 19.6829 33.65 19.6829Z"/>
<path d="M32.35 0.182861V1.48286H37.2809L24.9309 13.8329H11.3056L0.721533 23.0935L1.57847 24.0723L11.7944 15.1329H25.4691L38.2 2.402V7.33286H39.5V0.182861H32.35Z"/>
</symbol><symbol id="icon-lamp" viewBox="0 0 20 29">
<path d="M18.2983 5.88359C18.1932 5.67851 17.942 5.59755 17.7369 5.70244C17.5318 5.80754 17.4507 6.05898 17.5558 6.26405C18.186 7.49452 18.5055 8.82453 18.5055 10.2171C18.5055 12.1207 17.901 13.928 16.7572 15.4432C16.2828 16.0719 16.0215 16.8625 16.0215 17.6694V17.7225C16.0215 18.8588 15.0972 19.7831 13.9611 19.7831H10.2377V14.5005C11.7431 14.296 12.9076 13.003 12.9076 11.4425C12.9076 11.212 12.7206 11.0253 12.4904 11.0253C12.2599 11.0253 12.0732 11.212 12.0732 11.4425C12.0732 12.6845 11.0627 13.6951 9.8205 13.6951C8.57829 13.6951 7.56786 12.6845 7.56786 11.4425C7.56786 11.212 7.38115 11.0253 7.15065 11.0253C6.92037 11.0253 6.73345 11.212 6.73345 11.4425C6.73345 13.003 7.8979 14.296 9.4033 14.5005V19.7831H5.67986C4.54382 19.7831 3.61947 18.8588 3.61947 17.7225V17.6687C3.61947 16.8572 3.35608 16.0757 2.8577 15.4088C1.749 13.9243 1.15363 12.1581 1.1359 10.3013C1.1139 7.97709 2.00769 5.78105 3.65237 4.11757C5.29662 2.45474 7.48134 1.53659 9.80427 1.53232H9.82072C12.5532 1.53232 15.0711 2.77944 16.7308 4.95583C16.8707 5.1389 17.1324 5.17415 17.3154 5.03444C17.4987 4.89473 17.534 4.63305 17.3943 4.44997C16.5229 3.30709 15.386 2.36139 14.1066 1.71518C12.7646 1.03735 11.3144 0.694063 9.80277 0.697908C7.25575 0.702608 4.86083 1.70877 3.05914 3.53075C1.25681 5.35359 0.277566 7.7609 0.301705 10.3092C0.321145 12.3446 0.973761 14.2807 2.18949 15.908C2.57913 16.4297 2.78507 17.0385 2.78507 17.6687V17.7225C2.78507 18.6123 3.18881 19.4091 3.8222 19.9406C3.21124 20.2181 2.78507 20.8335 2.78507 21.547C2.78507 22.3581 3.33578 23.0428 4.08261 23.2479C3.88907 23.5309 3.77585 23.8727 3.77585 24.2406C3.77585 25.2132 4.5671 26.0045 5.53973 26.0045H6.72383C6.92848 27.5231 8.23201 28.6978 9.80576 28.6978C11.3795 28.6978 12.683 27.5229 12.8875 26.0045H14.0716C15.0442 26.0045 15.8355 25.2132 15.8355 24.2406C15.8355 23.8727 15.7222 23.5309 15.5289 23.2479C16.2757 23.0428 16.8262 22.3581 16.8262 21.547C16.8262 20.841 16.409 20.2309 15.8086 19.9493C16.4479 19.4179 16.8559 18.6172 16.8559 17.7228V17.6696C16.8559 17.0428 17.0574 16.4308 17.4231 15.9458C18.6769 14.2847 19.3397 12.3036 19.3397 10.2173C19.3397 8.69102 18.9894 7.23304 18.2983 5.88359ZM9.80576 27.8636C8.693 27.8636 7.76503 27.0608 7.5685 26.0045H12.043C11.8465 27.0608 10.9183 27.8636 9.80576 27.8636ZM15.0624 20.6176C15.5751 20.6176 15.9921 21.0345 15.9921 21.547C15.9921 22.0597 15.5751 22.4767 15.0624 22.4767H7.80028C7.56999 22.4767 7.38307 22.6634 7.38307 22.8937C7.38307 23.1242 7.56999 23.3109 7.80028 23.3109H14.0716C14.5843 23.3109 15.0013 23.7279 15.0013 24.2406C15.0013 24.7531 14.5843 25.1701 14.0716 25.1701H5.53973C5.02725 25.1701 4.61025 24.7531 4.61025 24.2406C4.61025 23.7279 5.02725 23.3109 5.53973 23.3109H6.13167C6.36196 23.3109 6.54866 23.1242 6.54866 22.8937C6.54866 22.6634 6.36196 22.4767 6.13167 22.4767H4.54894C4.03647 22.4767 3.61947 22.0595 3.61947 21.547C3.61947 21.0343 4.03647 20.6176 4.54894 20.6176H15.0624Z"/>
</symbol><symbol id="icon-list" viewBox="0 0 24 23">
<path d="M20.4635 5.32481L15.5992 0.460584C15.3023 0.163561 14.9074 0 14.4874 0H4.97675C4.1098 0 3.40448 0.705318 3.40448 1.57227V21.4277C3.40448 22.2947 4.1098 23 4.97675 23H19.3517C20.2187 23 20.924 22.2947 20.924 21.4277V6.43659C20.924 6.0167 20.7605 5.62188 20.4635 5.32481ZM18.6234 5.39062H15.758C15.6341 5.39062 15.5334 5.28987 15.5334 5.16602V2.30063L18.6234 5.39062ZM19.3517 21.6523H4.97675C4.8529 21.6523 4.75214 21.5516 4.75214 21.4277V1.57227C4.75214 1.44842 4.8529 1.34766 4.97675 1.34766H14.1857V5.16602C14.1857 6.03296 14.891 6.73828 15.758 6.73828H19.5764V21.4277C19.5764 21.5516 19.4756 21.6523 19.3517 21.6523Z"/>
<path d="M12.8875 10.2871H17.1807C17.5529 10.2871 17.8546 9.98541 17.8546 9.61328C17.8546 9.24115 17.5529 8.93945 17.1807 8.93945H12.8875C12.5154 8.93945 12.2137 9.24115 12.2137 9.61328C12.2137 9.98541 12.5153 10.2871 12.8875 10.2871Z"/>
<path d="M12.8875 14.7793H17.1807C17.5529 14.7793 17.8546 14.4776 17.8546 14.1055C17.8546 13.7333 17.5529 13.4316 17.1807 13.4316H12.8875C12.5154 13.4316 12.2137 13.7333 12.2137 14.1055C12.2137 14.4776 12.5153 14.7793 12.8875 14.7793Z"/>
<path d="M17.2 17.9238H12.8875C12.5154 17.9238 12.2137 18.2255 12.2137 18.5977C12.2137 18.9698 12.5154 19.2715 12.8875 19.2715H17.2C17.5721 19.2715 17.8738 18.9698 17.8738 18.5977C17.8738 18.2255 17.5721 17.9238 17.2 17.9238Z"/>
<path d="M9.52537 7.77854L7.97143 9.33243L7.605 8.966C7.3419 8.70285 6.91523 8.70285 6.65208 8.966C6.38892 9.22915 6.38892 9.65578 6.65208 9.91893L7.49499 10.7618C7.62657 10.8934 7.79902 10.9592 7.97143 10.9592C8.14384 10.9592 8.31634 10.8935 8.44787 10.7618L10.4783 8.73147C10.7414 8.46831 10.7414 8.04169 10.4783 7.77854C10.2151 7.51539 9.78848 7.51539 9.52537 7.77854Z"/>
<path d="M9.52537 12.6138L7.97143 14.1677L7.605 13.8013C7.3419 13.5382 6.91523 13.5382 6.65208 13.8013C6.38892 14.0645 6.38892 14.4911 6.65208 14.7542L7.49499 15.5971C7.62657 15.7287 7.79902 15.7944 7.97143 15.7944C8.14384 15.7944 8.31634 15.7287 8.44787 15.5971L10.4783 13.5667C10.7414 13.3035 10.7414 12.8769 10.4783 12.6138C10.2151 12.3507 9.78848 12.3507 9.52537 12.6138Z"/>
<path d="M9.52537 17.106L7.97143 18.6599L7.605 18.2935C7.3419 18.0304 6.91523 18.0304 6.65208 18.2935C6.38892 18.5567 6.38892 18.9833 6.65208 19.2464L7.49499 20.0893C7.62657 20.2209 7.79902 20.2866 7.97143 20.2866C8.14384 20.2866 8.31634 20.2209 8.44787 20.0892L10.4783 18.0589C10.7414 17.7957 10.7414 17.3691 10.4783 17.106C10.2151 16.8428 9.78848 16.8428 9.52537 17.106Z"/>
</symbol><symbol id="icon-moneybox" viewBox="0 0 45 44">
<g>
<path d="M36.4431 23.2323C36.0894 23.2323 35.8027 23.5125 35.8027 23.8581C35.8027 24.2962 35.438 24.6526 34.9897 24.6526C34.5414 24.6526 34.1766 24.2962 34.1766 23.8581C34.1766 23.5124 33.8899 23.2323 33.5363 23.2323C33.1827 23.2323 32.896 23.5125 32.896 23.8581C32.896 24.9863 33.8353 25.9042 34.9897 25.9042C36.1441 25.9042 37.0834 24.9862 37.0834 23.8581C37.0834 23.5123 36.7967 23.2323 36.4431 23.2323Z"/>
<path d="M42.4537 23.3346L40.6514 22.7704C40.4206 22.6981 40.2386 22.518 40.1648 22.2886C39.785 21.1084 39.2118 20.0004 38.4611 18.9953C38.119 18.5371 37.7386 18.0997 37.323 17.6832C37.5888 16.5433 37.7334 15.2532 37.7147 14.1386C37.6878 12.5442 37.3618 11.609 36.718 11.2795C36.3712 11.1018 35.3159 10.5619 29.6039 13.1172C29.4686 13.1777 29.3423 13.2522 29.2253 13.3375C28.8402 13.2364 28.4466 13.1428 28.0506 13.0588C28.0029 13.0487 27.9538 13.0397 27.9058 13.0298C28.3686 12.0416 28.6389 10.9684 28.6897 9.86047C28.7055 9.51512 28.4319 9.22269 28.0786 9.20732C27.7261 9.19019 27.426 9.45911 27.4102 9.80445C27.3268 11.6262 26.5535 13.3402 25.233 14.6308C24.444 15.4018 23.5202 15.9619 22.5356 16.3147C20.8281 16.0805 19.0889 16.0805 17.3814 16.3147C16.3967 15.9619 15.473 15.4018 14.684 14.6308C13.2752 13.2539 12.4992 11.4233 12.4992 9.47615C12.4992 7.52889 13.2752 5.69837 14.684 4.32153C16.0929 2.94461 17.9661 2.18631 19.9585 2.18631C21.9509 2.18631 23.8242 2.94461 25.233 4.32153C25.7992 4.87482 26.267 5.50621 26.6236 6.19799C26.7826 6.50672 27.1677 6.63102 27.4835 6.47548C27.7994 6.32011 27.9265 5.94377 27.7675 5.63513C27.3496 4.82392 26.8015 4.08427 26.1387 3.43642C24.4879 1.82316 22.2931 0.934692 19.9586 0.934692C17.6241 0.934692 15.4293 1.82316 13.7785 3.43642C12.1277 5.04976 11.2186 7.19464 11.2186 9.47607C11.2186 11.7575 12.1277 13.9025 13.7785 15.5157C14.2547 15.9811 14.7727 16.3813 15.3206 16.7165C15.3208 16.7165 15.321 16.7164 15.3212 16.7164C14.923 16.8176 14.5279 16.9311 14.1371 17.0588C13.8017 17.1684 13.6207 17.5229 13.7329 17.8507C13.8449 18.1785 14.2078 18.3554 14.5432 18.2459C18.0353 17.105 21.8819 17.105 25.374 18.2459C25.4414 18.2679 25.5098 18.2783 25.5771 18.2783C25.845 18.2783 26.0947 18.1127 26.1843 17.8507C26.2965 17.5229 26.1155 17.1684 25.7801 17.0588C25.3893 16.9311 24.9942 16.8175 24.596 16.7164C24.5962 16.7164 24.5964 16.7165 24.5966 16.7165C25.1446 16.3813 25.6625 15.9811 26.1387 15.5157C26.56 15.104 26.9318 14.6545 27.2547 14.1767C27.4312 14.2102 27.6064 14.2453 27.7791 14.2819C28.0091 14.3307 28.238 14.3831 28.4649 14.4381C28.4577 14.4653 28.4504 14.4925 28.4445 14.5201C28.1322 15.9684 28.1525 17.2493 28.5047 18.3271C28.8213 19.2959 29.3927 20.0807 30.2029 20.6599C31.1577 21.3426 32.3105 21.6374 33.3547 21.6374C34.1406 21.6374 34.8651 21.4703 35.3973 21.1758C35.9992 20.8426 36.5035 20.1406 36.9026 19.0866C37.0871 19.297 37.262 19.5126 37.4269 19.7333C38.0952 20.6281 38.6054 21.6142 38.9433 22.6642C39.1417 23.2809 39.6343 23.7662 40.2609 23.9625L42.0632 24.5267C42.5361 24.6747 42.8538 25.1001 42.8538 25.5854V28.5059C42.8538 28.9912 42.5361 29.4166 42.0632 29.5646L39.1594 30.4736C38.6949 30.6191 38.3017 30.9311 38.0524 31.3522C36.9116 33.279 35.118 34.8734 32.7211 36.0913C32.4442 36.2321 32.2524 36.484 32.1946 36.7825L31.2646 41.5951C31.2389 41.7277 31.1201 41.8238 30.982 41.8238H27.9581C27.82 41.8238 27.7011 41.7276 27.6754 41.5951L27.1603 38.9354C27.0589 38.412 26.5567 38.0644 26.0162 38.1445C24.7136 38.337 23.3714 38.4345 22.0271 38.4345C21.027 38.4345 20.0396 38.38 19.0923 38.2724C18.5686 38.2135 18.0806 38.5625 17.9827 39.0679L17.4932 41.5951C17.4675 41.7277 17.3487 41.8238 17.2106 41.8238H14.1867C14.0486 41.8238 13.9297 41.7276 13.9037 41.593L13.0082 37.0476C12.9506 36.7548 12.7624 36.5058 12.4916 36.3644C8.40576 34.2328 6.24615 30.6715 6.24615 26.0658C6.24615 23.7388 6.76711 21.6811 7.79449 19.9497C8.75321 18.3339 10.1535 16.998 11.9564 15.9788C12.2625 15.8057 12.3671 15.4229 12.19 15.1237C12.013 14.8245 11.6213 14.7225 11.3151 14.8953C7.81924 16.8716 5.71076 19.9206 5.13025 23.7931V23.7931C5.06864 23.7876 5.00693 23.7824 4.94549 23.7762C4.95666 23.3584 4.87932 22.9368 4.71088 22.5276C4.33937 21.6251 3.57625 20.9737 2.76663 20.8681C2.12863 20.7846 1.52148 21.0494 1.10013 21.5934C0.489199 22.3824 0.588801 23.0067 0.77984 23.3915C1.10236 24.041 1.9314 24.5004 3.30718 24.7892C3.26936 24.8445 3.22777 24.9001 3.18222 24.956C2.36934 25.9523 1.41165 26.1726 0.789809 26.1933C0.425777 26.2053 0.134277 26.491 0.134277 26.847V26.85C0.134277 27.2011 0.417785 27.4875 0.776746 27.5036C0.822723 27.5057 0.870762 27.5068 0.920777 27.5068C1.70762 27.5068 2.97047 27.2231 4.18374 25.7364C4.37529 25.5017 4.53136 25.2541 4.65132 24.9983C4.77215 25.0117 4.88825 25.0231 4.99946 25.0332C4.99946 25.0329 4.99946 25.0327 4.99954 25.0325C4.97771 25.3716 4.9656 25.7157 4.9656 26.0658C4.9656 28.6717 5.60128 30.9951 6.85485 32.9719C8.01071 34.7943 9.6656 36.2866 11.7752 37.4088L12.6457 41.8277C12.7857 42.5506 13.4338 43.0754 14.1867 43.0754H17.2106C17.9635 43.0754 18.6115 42.5506 18.7515 41.8277L19.1941 39.5426C20.1133 39.6378 21.065 39.686 22.027 39.686C23.347 39.686 24.6655 39.5961 25.9504 39.4188L26.417 41.8279C26.5571 42.5508 27.2051 43.0754 27.9579 43.0754H30.9818C31.7347 43.0754 32.3828 42.5507 32.5228 41.8275L33.4284 37.1419C35.9865 35.82 37.9148 34.0833 39.1607 31.979C39.2505 31.8273 39.3888 31.7161 39.55 31.6656L42.4537 30.7566C43.4589 30.4418 44.1343 29.5373 44.1343 28.5058V25.5852C44.1343 24.5537 43.4589 23.6493 42.4537 23.3346ZM36.3379 15.8972C36.0914 17.957 35.4303 19.719 34.766 20.0867C34.0109 20.5046 32.2677 20.5854 30.9589 19.6497C29.6485 18.7129 29.2123 17.0284 29.6975 14.7781C29.6975 14.778 29.6975 14.778 29.6975 14.778C29.7462 14.552 29.9105 14.3565 30.1369 14.2552C33.3428 12.8211 35.191 12.352 35.8777 12.352C35.9813 12.352 36.0585 12.3627 36.1099 12.3823C36.3161 12.5972 36.5866 13.8184 36.3379 15.8972ZM1.93218 22.845C1.86592 22.7115 2.02232 22.4768 2.1215 22.3486C2.27868 22.1457 2.42348 22.1042 2.53288 22.1042C2.556 22.1042 2.57757 22.1061 2.59733 22.1087C2.89175 22.147 3.30425 22.4637 3.52279 22.9945C3.57427 23.1195 3.64113 23.3265 3.65677 23.5847C2.77032 23.4052 2.08162 23.1465 1.93218 22.845Z"/>
<path d="M20.5804 8.75888V6.51952C21.3706 6.5747 21.6641 6.92769 21.935 6.92769C22.2737 6.92769 22.4317 6.50852 22.4317 6.2989C22.4317 5.75829 21.348 5.52666 20.5804 5.50457V5.2066C20.5804 5.07424 20.411 4.95288 20.2417 4.95288C20.0497 4.95288 19.9143 5.07424 19.9143 5.2066V5.52649C18.8419 5.63685 17.7694 6.18846 17.7694 7.57848C17.7694 8.9906 18.8983 9.38776 19.9143 9.74075V12.3333C18.7628 12.245 18.4581 11.4728 18.0855 11.4728C17.8033 11.4728 17.5663 11.8368 17.5663 12.1016C17.5663 12.6422 18.5145 13.3813 19.9143 13.4034V13.7454C19.9143 13.8777 20.0498 13.9991 20.2417 13.9991C20.4111 13.9991 20.5804 13.8777 20.5804 13.7454V13.3703C21.7996 13.2048 22.6349 12.4546 22.6349 11.0977C22.6349 9.59738 21.5625 9.11187 20.5804 8.75888ZM19.982 8.54934C19.3837 8.32872 18.8983 8.09709 18.8983 7.4683C18.8983 6.8946 19.3498 6.61879 19.982 6.54161V8.54934ZM20.5126 12.3112V9.98346C21.0657 10.2151 21.5059 10.524 21.5059 11.219C21.5059 11.8479 21.1221 12.2009 20.5126 12.3112Z"/>
</g>
</symbol><symbol id="icon-phone" viewBox="0 0 23 24">
<g>
<path d="M21.3199 19.2676L16.9659 14.9136C16.368 14.3157 15.3905 14.3201 14.7869 14.9238L14.3669 15.3438C13.9371 15.7736 13.2447 15.7854 12.8231 15.3702C12.821 15.3681 12.8188 15.366 12.8166 15.3639C12.7768 15.3254 11.3385 13.9331 8.23696 10.7841C7.82179 10.3625 7.83352 9.66993 8.26324 9.2402L8.68326 8.82018C9.28688 8.21666 9.29146 7.23911 8.69346 6.64116L4.33945 2.28715C3.72838 1.67608 2.75483 1.70294 2.16043 2.29735L1.16451 3.29327C0.0352177 4.4226 -0.307896 6.09612 0.290284 7.55676C1.51184 10.5395 2.63691 13.8389 6.20254 17.4046C9.76399 20.9659 13.037 22.0828 16.0504 23.3169C17.5109 23.915 19.1845 23.572 20.3138 22.4426L21.3097 21.4466C21.9147 20.8417 21.9195 19.8671 21.3199 19.2676ZM20.3569 20.4939L19.361 21.4899C18.6169 22.2339 17.5177 22.4617 16.5611 22.0699C13.5788 20.8485 10.5078 19.804 7.15547 16.4517C3.79531 13.0916 2.75721 10.0248 1.53732 7.04608C1.14551 6.08938 1.37322 4.99032 2.11735 4.24615L3.11326 3.25023C3.19147 3.17202 3.31402 3.16753 3.38661 3.24003L7.74062 7.59409C7.81429 7.6678 7.80742 7.79035 7.73042 7.86744L7.3104 8.28746C6.35927 9.23863 6.34427 10.7828 7.27694 11.7298C9.96605 14.4602 11.7506 16.2158 11.8786 16.3294L11.8776 16.3304C12.8256 17.264 14.3697 17.2469 15.3197 16.2968L15.7398 15.8768C15.8167 15.7999 15.9394 15.7929 16.0131 15.8666L20.3671 20.2206C20.4397 20.2932 20.4351 20.4158 20.3569 20.4939Z"/>
<path d="M20.872 2.73519C18.0346 -0.10216 13.418 -0.10216 10.5807 2.73519C10.3175 2.9983 10.3175 3.42492 10.5807 3.68803C10.8438 3.95114 11.2704 3.95114 11.5335 3.68803C13.8454 1.37613 17.6072 1.37613 19.9191 3.68803C22.231 5.99993 22.231 9.76173 19.9191 12.0736C19.6559 12.3367 19.6559 12.7634 19.9191 13.0265C20.1822 13.2896 20.6088 13.2896 20.872 13.0265C23.7093 10.1892 23.7093 5.57254 20.872 2.73519Z"/>
<path d="M18.1941 5.41307C16.8334 4.05225 14.6192 4.05225 13.2585 5.41307C12.9954 5.67618 12.9954 6.1028 13.2585 6.36591C13.5216 6.62901 13.9482 6.62901 14.2114 6.36591C15.0468 5.53063 16.4059 5.53063 17.2413 6.36591C18.0766 7.20127 18.0766 8.56052 17.2413 9.39584C16.9781 9.65895 16.9781 10.0856 17.2413 10.3487C17.5044 10.6118 17.931 10.6118 18.1941 10.3487C19.5549 8.98795 19.5549 6.77384 18.1941 5.41307Z"/>
</g>
</symbol><symbol id="icon-place" viewBox="0 0 32 41">
<path d="M15.9871 0.854492C7.48802 0.854492 0.573364 7.77025 0.573364 16.2708C0.573364 22.3444 3.11622 28.4882 7.92706 34.038C11.5201 38.183 15.0812 40.5315 15.2312 40.6294C15.4609 40.7795 15.724 40.8545 15.9873 40.8545C16.2504 40.8545 16.5137 40.7795 16.7434 40.6294C16.8932 40.5313 20.4545 38.183 24.0477 34.038C28.8587 28.4882 31.4018 22.3444 31.4018 16.2708C31.4016 7.77025 24.4868 0.854492 15.9871 0.854492ZM15.986 37.777C13.1511 35.6709 3.33694 27.5617 3.33694 16.2708C3.33694 9.29409 9.01185 3.61807 15.9871 3.61807C22.9627 3.61807 28.638 9.29409 28.638 16.2708C28.638 27.5355 18.8194 35.666 15.986 37.777Z"/>
<path d="M21.8116 12.6391L16.6883 10.0774C16.7101 9.95308 16.7237 9.82577 16.7237 9.69515C16.7237 8.47217 15.729 7.47729 14.5062 7.47729C13.2832 7.47729 12.2881 8.47217 12.2881 9.69515C12.2881 10.3956 12.6155 11.02 13.1242 11.4268V23.9066C13.1242 24.6697 13.7429 25.2883 14.506 25.2883C15.2691 25.2883 15.8878 24.6697 15.8878 23.9066V18.0727L21.8116 15.1107C22.2798 14.8767 22.5755 14.3982 22.5755 13.8748C22.5755 13.3515 22.2798 12.8731 21.8116 12.6391ZM15.8878 14.983V12.767L18.1038 13.875L15.8878 14.983Z"/>
</symbol><symbol id="icon-pointer" viewBox="0 0 12 17">
<path d="M11.1719 4.02222C11.115 3.80877 10.9993 3.58133 10.9138 3.3822C9.88998 0.921754 7.65299 0.039978 5.84673 0.039978C3.42873 0.039978 0.765586 1.66135 0.410034 5.00339V5.68618C0.410034 5.71468 0.419855 5.97065 0.433805 6.09869C0.633119 7.69142 1.8899 9.38414 2.82852 10.9769C3.83833 12.6833 4.88617 14.362 5.92429 16.0399C6.56442 14.9449 7.20224 13.8355 7.82779 12.7689C7.99827 12.4558 8.19617 12.143 8.36685 11.8442C8.4806 11.6453 8.69792 11.4463 8.7972 11.2612C9.80698 9.41245 11.4323 7.54939 11.4323 5.71464V4.96091C11.4324 4.762 11.1858 4.06511 11.1719 4.02222ZM5.891 7.44985C5.18023 7.44985 4.40224 7.09444 4.01823 6.11294C3.96102 5.9567 3.96563 5.64359 3.96563 5.61491V5.17402C3.96563 3.92278 5.02805 3.35378 5.9523 3.35378C7.09016 3.35378 7.97019 4.26412 7.97019 5.40198C7.97019 6.5398 7.02886 7.44985 5.891 7.44985Z"/>
</symbol><symbol id="icon-road" viewBox="0 0 41 41">
<path d="M6.38433 25.5051C5.03134 25.5348 3.74531 26.0997 2.80808 27.0759C1.87084 28.0522 1.35886 29.3602 1.38433 30.7133C1.38433 34.9008 5.77808 38.9245 5.96496 39.0939C6.07988 39.1979 6.22934 39.2555 6.38433 39.2555C6.53932 39.2555 6.68878 39.1979 6.8037 39.0939C6.99058 38.9245 11.3843 34.9008 11.3843 30.7133C11.4098 29.3602 10.8978 28.0522 9.96058 27.0759C9.02335 26.0997 7.73732 25.5348 6.38433 25.5051ZM6.38433 37.7551C5.32558 36.6783 2.63433 33.6501 2.63433 30.7114C2.60911 29.6901 2.98954 28.7003 3.69236 27.9589C4.39518 27.2174 5.36312 26.7846 6.38433 26.7551C7.40587 26.7846 8.37411 27.2177 9.07698 27.9595C9.77985 28.7014 10.1601 29.6916 10.1343 30.7133C10.1343 33.6451 7.44183 36.6783 6.38433 37.7551Z"/>
<path d="M6.38428 28.0051C5.88983 28.0051 5.40648 28.1517 4.99535 28.4265C4.58423 28.7012 4.2638 29.0916 4.07458 29.5484C3.88536 30.0052 3.83585 30.5079 3.93232 30.9929C4.02878 31.4778 4.26688 31.9233 4.61651 32.2729C4.96614 32.6225 5.4116 32.8606 5.89655 32.9571C6.38151 33.0536 6.88417 33.0041 7.34099 32.8148C7.7978 32.6256 8.18825 32.3052 8.46295 31.8941C8.73766 31.4829 8.88428 30.9996 8.88428 30.5051C8.88428 29.8421 8.62089 29.2062 8.15205 28.7374C7.6832 28.2685 7.04732 28.0051 6.38428 28.0051ZM6.38428 31.7551C6.13705 31.7551 5.89538 31.6818 5.68982 31.5445C5.48425 31.4071 5.32404 31.2119 5.22943 30.9835C5.13482 30.7551 5.11007 30.5037 5.1583 30.2613C5.20653 30.0188 5.32558 29.7961 5.5004 29.6212C5.67521 29.4464 5.89794 29.3274 6.14042 29.2791C6.38289 29.2309 6.63422 29.2557 6.86263 29.3503C7.09104 29.4449 7.28626 29.6051 7.42362 29.8107C7.56097 30.0162 7.63428 30.2579 7.63428 30.5051C7.63428 30.8367 7.50258 31.1546 7.26816 31.389C7.03374 31.6234 6.7158 31.7551 6.38428 31.7551Z"/>
<path d="M32.2125 19.0914C32.3277 19.1968 32.4782 19.2552 32.6343 19.2552C32.7905 19.2552 32.941 19.1968 33.0562 19.0914C33.2943 18.8739 38.8843 13.6976 38.8843 8.34138C38.9263 6.6399 38.292 4.99118 37.1205 3.75659C35.9489 2.52199 34.3357 1.80225 32.6343 1.75513C30.9335 1.80226 29.3208 2.52156 28.1493 3.75548C26.9778 4.98939 26.3432 6.63731 26.3843 8.33825C26.3843 13.6976 31.9743 18.8739 32.2125 19.0914ZM32.6343 3.00513C34.0036 3.05228 35.2984 3.63988 36.2354 4.63937C37.1725 5.63885 37.6755 6.96882 37.6343 8.33825C37.6343 12.342 33.91 16.4633 32.6343 17.7558C31.3587 16.4626 27.6343 12.342 27.6343 8.33825C27.5932 6.96882 28.0962 5.63885 29.0332 4.63937C29.9703 3.63988 31.2651 3.05228 32.6343 3.00513Z"/>
<path d="M35.7593 8.00513C35.7593 7.38706 35.576 6.78287 35.2326 6.26897C34.8893 5.75507 34.4012 5.35453 33.8302 5.118C33.2592 4.88148 32.6308 4.8196 32.0246 4.94017C31.4184 5.06075 30.8616 5.35838 30.4246 5.79542C29.9875 6.23246 29.6899 6.78928 29.5693 7.39547C29.4487 8.00166 29.5106 8.62999 29.7472 9.20101C29.9837 9.77203 30.3842 10.2601 30.8981 10.6035C31.412 10.9469 32.0162 11.1301 32.6343 11.1301C33.4628 11.1291 34.2571 10.7996 34.8429 10.2137C35.4287 9.6279 35.7583 8.83363 35.7593 8.00513ZM30.7593 8.00513C30.7593 7.63429 30.8692 7.27178 31.0753 6.96343C31.2813 6.65509 31.5741 6.41477 31.9168 6.27285C32.2594 6.13094 32.6364 6.09381 33.0001 6.16616C33.3638 6.2385 33.6979 6.41708 33.9601 6.6793C34.2223 6.94153 34.4009 7.27562 34.4733 7.63933C34.5456 8.00305 34.5085 8.38005 34.3666 8.72266C34.2246 9.06527 33.9843 9.35811 33.676 9.56413C33.3676 9.77016 33.0051 9.88013 32.6343 9.88013C32.137 9.88013 31.6601 9.68258 31.3085 9.33095C30.9568 8.97932 30.7593 8.50241 30.7593 8.00513Z"/>
<path d="M5.75928 23.0051H7.00928V24.2551H5.75928V23.0051Z"/>
<path d="M23.7512 33.5125L23.9625 32.2806C23.2389 32.1556 22.5401 31.9148 21.8931 31.5675L21.3031 32.6688C22.0683 33.0803 22.895 33.3652 23.7512 33.5125Z"/>
<path d="M33.2593 25.5051V24.1814H32.0093V25.5051C32.0094 25.8339 31.9862 26.1622 31.9399 26.4876L33.1774 26.6645C33.2322 26.2805 33.2595 25.8931 33.2593 25.5051Z"/>
<path d="M26.3362 33.5413C27.1951 33.4134 28.0279 33.1479 28.8024 32.755L28.2399 31.6394C27.5849 31.9714 26.8807 32.1955 26.1543 32.3032L26.3362 33.5413Z"/>
<path d="M30.0093 30.3533L30.8955 31.2345C31.5077 30.6198 32.0175 29.9111 32.4055 29.1352L31.2874 28.5764C30.959 29.2332 30.5275 29.8331 30.0093 30.3533Z"/>
<path d="M15.3399 13.0251L16.1724 12.0932C15.5086 11.4973 14.7238 11.0519 13.8717 10.7876L13.5005 11.9807C14.1815 12.1926 14.8089 12.5488 15.3399 13.0251Z"/>
<path d="M17.728 14.2307L16.5848 14.7363C16.8725 15.3921 17.0172 16.1016 17.0092 16.8176L18.2592 16.7551C18.261 15.8857 18.08 15.0256 17.728 14.2307Z"/>
<path d="M9.39613 12.4913C10.0027 12.1168 10.6834 11.8786 11.3911 11.7931L11.2393 10.5519C10.3524 10.6592 9.49944 10.9577 8.73926 11.4269L9.39613 12.4913Z"/>
<path d="M7.86682 13.9545L6.83119 13.2551C6.32956 13.9933 5.99354 14.8312 5.84619 15.7114L7.07932 15.9189C7.1965 15.2148 7.46519 14.5446 7.86682 13.9545Z"/>
<path d="M5.75928 18.207H7.00928V20.6058H5.75928V18.207Z"/>
<path d="M17.0093 19.2145H18.2593V21.6132H17.0093V19.2145Z"/>
<path d="M18.3087 26.334C18.2759 26.0589 18.2594 25.7822 18.2593 25.5052V24.0121H17.0093V25.5052C17.0094 25.8321 17.029 26.1588 17.068 26.4833L18.3087 26.334Z"/>
<path d="M20.1518 30.2425C19.6453 29.7104 19.2273 29.1006 18.9137 28.4363L17.7831 28.97C18.1539 29.7548 18.6478 30.4751 19.2462 31.1038L20.1518 30.2425Z"/>
<path d="M32.0093 20.5051H33.2593V21.7551H32.0093V20.5051Z"/>
<path d="M4.50928 16.7551C4.50928 14.766 5.29945 12.8583 6.70598 11.4518C8.1125 10.0453 10.0202 9.25513 12.0093 9.25513C13.9984 9.25513 15.9061 10.0453 17.3126 11.4518C18.7191 12.8583 19.5093 14.766 19.5093 16.7551V25.5051C19.5093 26.997 20.1019 28.4277 21.1568 29.4826C22.2117 30.5375 23.6424 31.1301 25.1343 31.1301C26.6261 31.1301 28.0569 30.5375 29.1118 29.4826C30.1666 28.4277 30.7593 26.997 30.7593 25.5051V20.5051H29.5093V25.5051C29.5093 26.6654 29.0483 27.7782 28.2279 28.5987C27.4074 29.4192 26.2946 29.8801 25.1343 29.8801C23.974 29.8801 22.8612 29.4192 22.0407 28.5987C21.2202 27.7782 20.7593 26.6654 20.7593 25.5051V16.7551C20.7593 14.4345 19.8374 12.2089 18.1965 10.5679C16.5555 8.927 14.3299 8.00513 12.0093 8.00513C9.68863 8.00513 7.46304 8.927 5.82209 10.5679C4.18115 12.2089 3.25928 14.4345 3.25928 16.7551V24.2551H4.50928V16.7551Z"/>
<path d="M34.5093 25.5051C34.5093 27.9915 33.5216 30.3761 31.7634 32.1343C30.0052 33.8924 27.6207 34.8801 25.1343 34.8801C22.6479 34.8801 20.2633 33.8924 18.5052 32.1343C16.747 30.3761 15.7593 27.9915 15.7593 25.5051V16.7551C15.7593 15.7606 15.3642 14.8067 14.6609 14.1035C13.9577 13.4002 13.0038 13.0051 12.0093 13.0051C11.0147 13.0051 10.0609 13.4002 9.35763 14.1035C8.65437 14.8067 8.25928 15.7606 8.25928 16.7551V24.2551H9.50928V16.7551C9.50928 16.0921 9.77267 15.4562 10.2415 14.9874C10.7104 14.5185 11.3462 14.2551 12.0093 14.2551C12.6723 14.2551 13.3082 14.5185 13.777 14.9874C14.2459 15.4562 14.5093 16.0921 14.5093 16.7551V25.5051C14.5093 28.3231 15.6287 31.0256 17.6213 33.0181C19.6138 35.0107 22.3164 36.1301 25.1343 36.1301C27.9522 36.1301 30.6547 35.0107 32.6473 33.0181C34.6399 31.0256 35.7593 28.3231 35.7593 25.5051V20.5051H34.5093V25.5051Z"/>
</symbol><symbol id="icon-route-2" viewBox="0 0 36 43">
<path fill-rule="evenodd" clip-rule="evenodd" d="M10.3978 7.19362C10.3978 5.35181 8.89915 3.8532 7.05702 3.8532C5.21521 3.8532 3.7166 5.35181 3.7166 7.19362C3.7166 9.03575 5.21521 10.5341 7.05702 10.5341C8.89915 10.5344 10.3978 9.03575 10.3978 7.19362ZM5.34359 7.19362C5.34359 6.24889 6.11229 5.48019 7.05702 5.48019C8.00208 5.48019 8.77077 6.24889 8.77077 7.19362C8.77077 8.13836 8.00208 8.90705 7.05702 8.90705C6.11229 8.90737 5.34359 8.13836 5.34359 7.19362Z"/>
<path fill-rule="evenodd" clip-rule="evenodd" d="M29.5089 21.8881C27.4126 21.8881 25.6308 22.4105 24.5539 23.2405L21.6364 22.591C21.1989 22.4934 20.7635 22.7696 20.6656 23.2081C20.5681 23.6466 20.8442 24.0813 21.2831 24.1789L23.5192 24.6768C23.4776 24.8392 23.4554 25.0064 23.4554 25.177C23.4554 26.2822 24.3601 27.2266 25.8091 27.8164L24.5066 29.1565C24.1935 29.4787 24.2009 29.9938 24.5231 30.3068C24.681 30.4606 24.8857 30.5369 25.09 30.5369C25.3019 30.5369 25.5139 30.4546 25.6734 30.2906L27.5978 28.3106C28.194 28.4113 28.8349 28.466 29.5089 28.466C32.9599 28.466 35.5625 27.0519 35.5625 25.177C35.5625 23.3021 32.9599 21.8881 29.5089 21.8881ZM29.5089 26.839C26.8479 26.839 25.0824 25.8386 25.0824 25.177C25.0824 25.0385 25.1605 24.8853 25.307 24.7296C25.3321 24.7077 25.356 24.6845 25.3779 24.659C25.9851 24.0918 27.4882 23.5151 29.5089 23.5151C32.17 23.5151 33.9355 24.5154 33.9355 25.177C33.9355 25.8386 32.17 26.839 29.5089 26.839Z"/>
<path fill-rule="evenodd" clip-rule="evenodd" d="M19.8353 36.2971L21.1378 34.9567C21.4509 34.6345 21.4435 34.1197 21.1213 33.8064C20.7994 33.4934 20.2843 33.5007 19.971 33.8229L18.0466 35.8027C17.4504 35.7019 16.8095 35.6473 16.1355 35.6473C12.6845 35.6473 10.0819 37.0613 10.0819 38.9362C10.0819 40.8111 12.6845 42.2252 16.1355 42.2252C19.5865 42.2252 22.189 40.8111 22.189 38.9362C22.189 37.831 21.2843 36.8866 19.8353 36.2971ZM16.1355 40.5982C13.4744 40.5982 11.7089 39.5978 11.7089 38.9362C11.7089 38.2746 13.4744 37.2743 16.1355 37.2743C18.7965 37.2743 20.562 38.2746 20.562 38.9362C20.562 39.5978 18.7965 40.5982 16.1355 40.5982Z"/>
<path fill-rule="evenodd" clip-rule="evenodd" d="M14.9295 22.7642C14.9893 22.7775 15.0484 22.7839 15.1072 22.7839C15.4799 22.7839 15.8161 22.5258 15.9003 22.147C15.9979 21.7085 15.7217 21.2738 15.2832 21.1763L13.0467 20.678C13.0887 20.5156 13.1106 20.3488 13.1106 20.1778C13.1106 18.6535 11.415 17.6239 9.47273 17.1609L13.1026 9.89056C13.1084 9.8788 13.1141 9.86672 13.1195 9.85465C13.4891 9.0135 13.6765 8.11834 13.6765 7.19362C13.6765 3.54368 10.7073 0.574097 7.05702 0.574097C3.40709 0.574097 0.4375 3.54368 0.4375 7.19362C0.4375 8.11802 0.624986 9.01318 0.994873 9.85465C0.999958 9.86672 1.00568 9.8788 1.01172 9.89056L4.64513 17.1682C2.69782 17.6423 1.00345 18.6722 1.00345 20.1781C1.00345 22.053 3.60601 23.4668 7.05702 23.4668C9.15337 23.4668 10.9354 22.9443 12.0124 22.1146L14.9295 22.7642ZM2.0645 7.19362C2.0645 4.44075 4.30416 2.20109 7.05702 2.20109C9.80989 2.20109 12.0495 4.44075 12.0495 7.19362C12.0495 7.88509 11.911 8.554 11.6377 9.18224L7.05702 18.357L2.47665 9.18224C2.20304 8.55369 2.0645 7.88477 2.0645 7.19362ZM2.63045 20.1781C2.63045 19.7507 3.6899 19.0078 5.39412 18.6684L6.32932 20.5413C6.46692 20.8172 6.74878 20.9913 7.05702 20.9913C7.36526 20.9913 7.64713 20.8172 7.78504 20.5413L8.72247 18.6633C10.4461 18.9903 11.4836 19.7313 11.4836 20.1778C11.4836 20.3167 11.4048 20.4705 11.2577 20.6268C11.2329 20.6487 11.2094 20.6716 11.1874 20.6964C10.5802 21.2633 9.0771 21.8398 7.05702 21.8398C4.39599 21.8398 2.63045 20.8397 2.63045 20.1781Z"/>
<path fill-rule="evenodd" clip-rule="evenodd" d="M22.822 31.2433C22.374 31.2433 22.0085 31.6084 22.0085 32.0568C22.0085 32.5048 22.374 32.8703 22.822 32.8703C23.2701 32.8703 23.6355 32.5048 23.6355 32.0568C23.6355 31.6084 23.2701 31.2433 22.822 31.2433Z"/>
<path fill-rule="evenodd" clip-rule="evenodd" d="M18.283 23.4909C18.731 23.4909 19.0965 23.1255 19.0965 22.6774C19.0965 22.2294 18.731 21.8639 18.283 21.8639C17.8349 21.8639 17.4695 22.2294 17.4695 22.6774C17.4695 23.1255 17.8349 23.4909 18.283 23.4909Z"/>
</symbol><symbol id="icon-route" viewBox="0 0 33 34">
<path d="M25.4683 15.8252H7.53183C5.06813 15.8252 3.06387 13.8198 3.06387 11.3551C3.06387 8.89213 5.06813 6.88847 7.53183 6.88847H18.7426C19.3721 6.88847 19.8821 6.37829 19.8821 5.749C19.8821 5.1197 19.3721 4.60952 18.7426 4.60952H7.53183C3.81167 4.60952 0.784912 7.63552 0.784912 11.3551C0.784912 15.0764 3.81167 18.1041 7.53183 18.1041H25.4683C27.932 18.1041 29.9362 20.1094 29.9362 22.5744C29.9362 25.0373 27.932 27.0409 25.4683 27.0409H14.1607C13.5314 27.0409 13.0212 27.5511 13.0212 28.1804C13.0212 28.8097 13.5314 29.3199 14.1607 29.3199H25.4683C29.1884 29.3199 32.2152 26.2939 32.2152 22.5744C32.2152 18.8528 29.1884 15.8252 25.4683 15.8252Z"/>
<path d="M7.3711 20.2158C4.72645 20.2158 2.57497 22.3675 2.57497 25.012C2.57497 29.0936 6.40239 32.9681 6.56541 33.1309C6.77918 33.3447 7.06891 33.4647 7.37125 33.4647C7.67344 33.4647 7.96332 33.3447 8.17709 33.1309C8.33996 32.9679 12.1672 29.0936 12.1672 25.012C12.1669 22.3675 10.0156 20.2158 7.3711 20.2158ZM7.3711 30.6012C6.38705 29.3865 4.85392 27.1504 4.85392 25.012C4.85392 23.6239 5.98322 22.4948 7.3711 22.4948C8.75898 22.4948 9.88798 23.6241 9.88798 25.012C9.88798 27.1504 8.35485 29.3865 7.3711 30.6012Z"/>
<path d="M25.5324 13.7133C25.8239 13.7133 26.1155 13.6021 26.3379 13.3799C26.5009 13.217 30.3303 9.34261 30.3303 5.2607C30.3303 2.61621 28.1779 0.464722 25.5324 0.464722C22.8877 0.464722 20.7363 2.61621 20.7363 5.26055C20.7363 9.34231 24.5637 13.2167 24.7269 13.3795C24.9491 13.6021 25.2407 13.7133 25.5324 13.7133ZM25.5324 2.74367C26.9215 2.74367 28.0514 3.87282 28.0514 5.26055C28.0514 7.39912 26.5169 9.63553 25.5325 10.8501C24.5486 9.63553 23.0152 7.39927 23.0152 5.26055C23.0151 3.87282 24.1444 2.74367 25.5324 2.74367Z"/>
</symbol><symbol id="icon-security" viewBox="0 0 27 33">
<path d="M25.8522 7.00229L13.6171 0.482804C13.4356 0.385929 13.2181 0.387289 13.0379 0.486203L1.14137 7.00569C0.946265 7.11277 0.825256 7.31739 0.825256 7.54003V16.0562C0.832394 23.0566 4.97999 29.3898 11.3941 32.1944L13.0454 32.914C13.1997 32.9813 13.3754 32.9817 13.5301 32.9147L15.3908 32.1112C21.9239 29.3674 26.1741 22.973 26.1748 15.8872V7.54003C26.1748 7.31501 26.0507 7.10801 25.8522 7.00229ZM24.9565 15.8872C24.9552 22.4846 20.9969 28.4374 14.9139 30.9905L14.9098 30.9925L13.2894 31.6921L11.8815 31.0778C5.911 28.4673 2.04996 22.5726 2.04316 16.0562V7.90068L13.3347 1.71226L24.9565 7.9051V15.8872Z"/>
<path d="M8.84071 15.6612C8.62215 15.4052 8.23771 15.375 7.98176 15.5936C7.7258 15.8118 7.69555 16.1966 7.91411 16.4522L11.1317 20.2201C11.3465 20.4716 11.7228 20.5059 11.9791 20.2972L19.4728 14.2006C19.7338 13.9885 19.7733 13.6047 19.5608 13.3437C19.3487 13.083 18.965 13.0432 18.7039 13.2556L11.6718 18.9763L8.84071 15.6612Z"/>
</symbol><symbol id="icon-snowflake" viewBox="0 0 27 30">
<path d="M25.2805 16.716L20.0584 18.5129L17.9527 17.3056V13.4593L20.0584 12.252L25.2805 14.0489C25.6455 14.1892 26.0666 13.9646 26.1789 13.5996C26.3193 13.2347 26.0947 12.8135 25.7297 12.7012L21.6868 11.3255L25.477 9.1356C25.8139 8.93907 25.9262 8.48986 25.7297 8.15295C25.5332 7.81605 25.084 7.70374 24.747 7.90027L20.9568 10.0902L21.771 5.9069C21.8552 5.51384 21.6026 5.14885 21.2095 5.06463C20.8164 4.9804 20.4515 5.23308 20.3672 5.62614L19.3004 11.0448L17.1947 12.252L15.5944 11.3255L15.5663 11.2974L13.9379 10.3429V7.92835L18.0931 4.30658C18.4019 4.0539 18.43 3.60469 18.1493 3.29586C17.8966 2.98703 17.4474 2.95895 17.1385 3.23971L13.9379 6.04728V1.61132C13.9379 1.21826 13.6291 0.881348 13.2079 0.881348C12.8149 0.881348 12.478 1.19018 12.478 1.61132V5.99113L9.27733 3.21163C8.9685 2.95895 8.51929 2.98703 8.2666 3.26778C8.01392 3.57661 8.042 4.02583 8.32276 4.27851L12.478 7.90027V10.3148L9.22118 12.2239L7.1155 11.0167L6.04862 5.59807C5.9644 5.20501 5.59941 4.95232 5.20635 5.03655C4.81329 5.12078 4.56061 5.48576 4.64484 5.87882L5.45903 10.0621L1.66882 7.8722C1.33191 7.67567 0.882696 7.78797 0.686166 8.12488C0.489636 8.46179 0.601939 8.911 0.938847 9.10753L4.72907 11.2974L0.686166 12.6731C0.321182 12.8135 0.0965761 13.2066 0.236955 13.5716C0.377333 13.9365 0.770393 14.1612 1.13538 14.0208L6.35746 12.2239L8.46313 13.4312V17.2776H8.49121L6.38553 18.4848L1.16345 16.688C0.798469 16.5476 0.377333 16.7722 0.26503 17.1372C0.124652 17.5022 0.349257 17.9233 0.714242 18.0356L4.75714 19.4113L0.966923 21.6012C0.630014 21.7977 0.517712 22.247 0.714242 22.5839C0.910771 22.9208 1.35998 23.0331 1.69689 22.8365L5.48711 20.6466L4.67292 24.8299C4.58869 25.223 4.84137 25.588 5.23443 25.6722C5.62749 25.7564 5.99247 25.5037 6.0767 25.1107L7.14358 19.6921L9.24926 18.4848L10.9057 19.4394L12.5341 20.394V22.8085L8.37891 26.4302C8.07008 26.6829 8.042 27.1321 8.32276 27.441C8.57544 27.7498 9.02465 27.7779 9.33348 27.4971L12.5341 24.6895V29.1255C12.5341 29.5186 12.8429 29.8555 13.2641 29.8555C13.6571 29.8555 13.994 29.5466 13.994 29.1255V24.7457L17.1947 27.5533C17.5035 27.8059 17.9527 27.7779 18.2054 27.4971C18.4581 27.1883 18.43 26.7391 18.1493 26.4864L13.9379 22.8365V20.422L17.1947 18.5129L19.3004 19.7201L20.3672 25.1388C20.4515 25.5318 20.8164 25.7845 21.2095 25.7003C21.6026 25.616 21.8552 25.2511 21.771 24.858L20.9568 20.6747L24.747 22.8646C25.084 23.0612 25.5332 22.9488 25.7297 22.6119C25.9262 22.275 25.8139 21.8258 25.477 21.6293L21.6868 19.4394L25.7297 18.0637C26.0947 17.9233 26.3193 17.5302 26.1789 17.1653C26.0385 16.8003 25.6455 16.5757 25.2805 16.716ZM16.4366 17.2776L14.8082 18.2321L13.2079 19.1586L11.5515 18.2041L9.92307 17.2495V13.4593L13.1799 11.5501L14.8082 12.5047L14.8363 12.5328L16.4366 13.4593V17.2776Z"/>
</symbol><symbol id="icon-telegram" viewBox="0 0 21 20">
<g>
<path d="M8.83947 12.6508L8.50864 17.3042C8.98197 17.3042 9.18697 17.1008 9.4328 16.8567L11.652 14.7358L16.2503 18.1033C17.0936 18.5733 17.6878 18.3258 17.9153 17.3275L20.9336 3.18416L20.9345 3.18332C21.202 1.93666 20.4836 1.44916 19.662 1.75499L1.9203 8.54749C0.709469 9.01749 0.727803 9.69249 1.71447 9.99832L6.2503 11.4092L16.7861 4.81666C17.282 4.48832 17.7328 4.66999 17.362 4.99832L8.83947 12.6508Z"/>
</g>
</symbol><symbol id="icon-thermometer" viewBox="0 0 28 30">
<path d="M12.779 3.50274C12.779 1.82035 11.4101 0.451416 9.72766 0.451416C8.0452 0.451416 6.67633 1.82035 6.67633 3.50274V22.5016C5.89738 23.3001 5.45581 24.3681 5.45581 25.4724C5.45581 27.8277 7.37244 29.7444 9.72772 29.7444C12.0829 29.7444 13.9996 27.8277 13.9996 25.4724C13.9996 24.3681 13.5579 23.3001 12.779 22.5016V3.50274ZM9.72766 28.5238C8.04526 28.5238 6.67633 27.1549 6.67633 25.4725C6.67633 24.6084 7.03809 23.8062 7.69546 23.2144C7.82362 23.0982 7.89691 22.9337 7.89691 22.7608V3.50274C7.89691 2.49317 8.71814 1.67194 9.72772 1.67194C10.7373 1.67194 11.5585 2.49317 11.5585 3.50274V22.7608C11.5585 22.9336 11.6318 23.0981 11.76 23.2143C12.4173 23.8061 12.7791 24.6083 12.7791 25.4724C12.779 27.1549 11.4101 28.5238 9.72766 28.5238Z"/>
<path d="M10.3379 23.7541V13.2671C10.3379 12.9297 10.065 12.6568 9.72765 12.6568C9.39032 12.6568 9.11736 12.9297 9.11736 13.2671V23.7541C8.40855 24.0068 7.89684 24.6779 7.89684 25.4724C7.89684 26.482 8.71807 27.3032 9.72765 27.3032C10.7372 27.3032 11.5585 26.482 11.5585 25.4724C11.5585 24.6779 11.0467 24.0068 10.3379 23.7541ZM9.72765 26.0827C9.39095 26.0827 9.11736 25.8092 9.11736 25.4724C9.11736 25.1357 9.39089 24.8621 9.72765 24.8621C10.0643 24.8621 10.3379 25.1357 10.3379 25.4724C10.3379 25.8092 10.0644 26.0827 9.72765 26.0827Z"/>
<path d="M4.84551 19.98H1.1839C0.84657 19.98 0.573608 20.253 0.573608 20.5903C0.573608 20.9276 0.84657 21.2006 1.1839 21.2006H4.84551C5.18284 21.2006 5.4558 20.9276 5.4558 20.5903C5.4558 20.253 5.18284 19.98 4.84551 19.98Z"/>
<path d="M4.84552 17.539H3.625C3.28767 17.539 3.01471 17.8119 3.01471 18.1493C3.01471 18.4865 3.28767 18.7595 3.625 18.7595H4.84552C5.18285 18.7595 5.45581 18.4865 5.45581 18.1492C5.45581 17.8119 5.18285 17.539 4.84552 17.539Z"/>
<path d="M4.84552 15.0979H3.625C3.28767 15.0979 3.01471 15.3708 3.01471 15.7082C3.01471 16.0455 3.28767 16.3185 3.625 16.3185H4.84552C5.18285 16.3185 5.45581 16.0455 5.45581 15.7082C5.45581 15.3708 5.18285 15.0979 4.84552 15.0979Z"/>
<path d="M1.1839 13.8774H4.84551C5.18284 13.8774 5.4558 13.6044 5.4558 13.2671C5.4558 12.9297 5.18284 12.6568 4.84551 12.6568H1.1839C0.84657 12.6568 0.573608 12.9297 0.573608 13.2671C0.573608 13.6044 0.84657 13.8774 1.1839 13.8774Z"/>
<path d="M1.1839 6.55412H4.84551C5.18284 6.55412 5.4558 6.28116 5.4558 5.94384C5.4558 5.60651 5.18284 5.33355 4.84551 5.33355H1.1839C0.84657 5.33355 0.573608 5.60651 0.573608 5.94384C0.573608 6.28116 0.84657 6.55412 1.1839 6.55412Z"/>
<path d="M4.84552 10.2158H3.625C3.28767 10.2158 3.01471 10.4887 3.01471 10.826C3.01471 11.1633 3.28767 11.4363 3.625 11.4363H4.84552C5.18285 11.4363 5.45581 11.1633 5.45581 10.826C5.45581 10.4887 5.18285 10.2158 4.84552 10.2158Z"/>
<path d="M4.84552 7.77465H3.625C3.28767 7.77465 3.01471 8.04761 3.01471 8.38494C3.01471 8.72227 3.28767 8.99523 3.625 8.99523H4.84552C5.18285 8.99523 5.45581 8.72227 5.45581 8.38494C5.45581 8.04761 5.18285 7.77465 4.84552 7.77465Z"/>
<path d="M18.2715 10.2158H19.492C20.5016 10.2158 21.3228 11.037 21.3228 12.0466C21.3228 12.3839 21.5958 12.6569 21.9331 12.6569C22.2704 12.6569 22.5434 12.3839 22.5434 12.0466C22.5434 10.3642 21.1745 8.99524 19.4921 8.99524H18.2715C16.5891 8.99524 15.2202 10.3642 15.2202 12.0466V16.9287C15.2202 18.6111 16.5891 19.98 18.2715 19.98H19.492C21.1744 19.98 22.5433 18.6111 22.5433 16.9287C22.5433 16.5914 22.2704 16.3184 21.933 16.3184C21.5957 16.3184 21.3228 16.5914 21.3228 16.9287C21.3228 17.9383 20.5016 18.7595 19.492 18.7595H18.2715C17.2619 18.7595 16.4407 17.9383 16.4407 16.9287V12.0466C16.4407 11.037 17.2619 10.2158 18.2715 10.2158Z"/>
<path d="M25.5947 8.99516C24.5851 8.99516 23.7639 9.81639 23.7639 10.826C23.7639 11.8355 24.5851 12.6568 25.5947 12.6568C26.6043 12.6568 27.4255 11.8355 27.4255 10.826C27.4255 9.81645 26.6043 8.99516 25.5947 8.99516ZM25.5947 11.4363C25.258 11.4363 24.9844 11.1627 24.9844 10.826C24.9844 10.4893 25.2579 10.2157 25.5947 10.2157C25.9314 10.2157 26.205 10.4892 26.205 10.826C26.2049 11.1627 25.9314 11.4363 25.5947 11.4363Z"/>
</symbol><symbol id="icon-van" viewBox="0 0 31 22">
<path d="M7.245 16.7075C6.42045 16.7075 5.75196 17.376 5.75196 18.2005C5.75196 19.0251 6.42039 19.6936 7.245 19.6936C8.06961 19.6936 8.73804 19.0252 8.73804 18.2005C8.73711 17.3763 8.06921 16.7084 7.245 16.7075ZM7.245 18.6982C6.97013 18.6982 6.74734 18.4754 6.74734 18.2005C6.74734 17.9257 6.97013 17.7029 7.245 17.7029C7.51987 17.7029 7.74266 17.9257 7.74266 18.2005C7.74237 18.4753 7.51976 18.6979 7.245 18.6982Z"/>
<path d="M23.1707 16.7075C22.3462 16.7075 21.6777 17.376 21.6777 18.2005C21.6777 19.0251 22.3462 19.6936 23.1707 19.6936C23.9953 19.6936 24.6638 19.0252 24.6638 18.2005C24.6629 17.3763 23.9949 16.7084 23.1707 16.7075ZM23.1707 18.6982C22.8958 18.6982 22.6731 18.4754 22.6731 18.2005C22.6731 17.9257 22.8959 17.7029 23.1707 17.7029C23.4456 17.7029 23.6684 17.9257 23.6684 18.2005C23.6681 18.4753 23.4455 18.6979 23.1707 18.6982Z"/>
<path d="M29.7589 9.62333L26.3306 5.76242C26.0466 5.44259 25.639 5.25998 25.2113 5.26086H20.6824V2.27478C20.6815 1.45057 20.0135 0.782613 19.1893 0.781738H1.7705C0.946301 0.782613 0.278341 1.45057 0.277466 2.27478V15.2145C0.277408 15.3465 0.329839 15.4731 0.423212 15.5664C0.516527 15.6598 0.643144 15.7122 0.775184 15.7122H1.27284V17.2052C1.27372 18.0294 1.94168 18.6974 2.76588 18.6983H3.80098C4.04628 20.4118 5.51401 21.6843 7.245 21.6843C8.97599 21.6843 10.4437 20.4118 10.689 18.6983H19.7268C19.9721 20.4118 21.4398 21.6843 23.1708 21.6843C24.9018 21.6843 26.3695 20.4118 26.6149 18.6983H28.6452C29.4694 18.6974 30.1374 18.0294 30.1382 17.2052V10.6158C30.1379 10.2496 30.0029 9.89639 29.7589 9.62333ZM1.27284 14.7168V2.27478C1.27314 2.00002 1.49575 1.77735 1.7705 1.77712H19.1893C19.4641 1.77741 19.6867 2.00002 19.687 2.27478V14.7168H1.27284ZM3.80098 17.7028H2.76588C2.49113 17.7025 2.26846 17.4799 2.26822 17.2052V15.7121H4.81164C4.26493 16.2465 3.90969 16.9462 3.80098 17.7028ZM7.245 20.6889C5.87071 20.6889 4.75658 19.5748 4.75658 18.2005C4.75658 16.8262 5.87071 15.7121 7.245 15.7121C8.6193 15.7121 9.73342 16.8263 9.73342 18.2005C9.73179 19.5741 8.6186 20.6873 7.245 20.6889ZM12.2218 17.7028H10.689C10.5803 16.9462 10.2251 16.2464 9.67836 15.7121H12.2218V17.7028ZM16.7009 17.7028H13.2172V15.7121H16.7009V17.7028ZM19.7267 17.7028H17.6963V15.7121H20.7374C20.1906 16.2465 19.8355 16.9462 19.7267 17.7028ZM23.1707 20.6889C21.7964 20.6889 20.6823 19.5748 20.6823 18.2005C20.6823 16.8262 21.7964 15.7121 23.1707 15.7121C24.545 15.7121 25.6591 16.8262 25.6591 18.2005C25.6575 19.5741 24.5444 20.6873 23.1707 20.6889ZM29.1429 17.2052C29.1426 17.4799 28.92 17.7026 28.6452 17.7028H26.6147C26.3666 15.9909 24.9006 14.7198 23.1707 14.7168H20.6823V6.25623H22.6731V11.233C22.6739 12.0572 23.3419 12.7252 24.1661 12.7261H29.1429V17.2052ZM29.1429 11.7307H24.1661C23.8913 11.7304 23.6687 11.5078 23.6684 11.233V6.25623H25.2113C25.3542 6.25542 25.4905 6.31596 25.5858 6.42245L29.0153 10.2848C29.097 10.3758 29.1423 10.4935 29.1429 10.6158L29.1429 11.7307Z"/>
</symbol><symbol id="icon-viber" viewBox="0 0 23 22">
<g>
<path d="M21.7444 12.7353C22.4007 7.21053 21.4291 3.72261 19.6764 2.14502L19.6773 2.14411C16.8485 -0.549978 7.29499 -0.948728 3.91066 2.26511C2.39083 3.83719 1.85549 6.14444 1.79683 9.00078C1.73816 11.858 1.66849 17.2105 6.65608 18.6625H6.66066L6.65608 20.8799C6.65608 20.8799 6.62216 21.7782 7.19599 21.9588C7.85233 22.1715 8.14933 21.7544 10.1907 19.316C13.6044 19.6121 16.2261 18.9338 16.524 18.8348C17.2133 18.6038 21.1137 18.0877 21.7444 12.7353ZM10.5272 17.7559C10.5272 17.7559 8.36658 20.45 7.69466 21.1494C7.47466 21.3767 7.23358 21.3556 7.23724 20.9046C7.23724 20.6085 7.25374 17.2233 7.25374 17.2233C3.02516 16.0114 3.27449 11.4538 3.32033 9.06953C3.36616 6.68436 3.80249 4.73094 5.08949 3.41552C8.05858 0.631606 16.4342 1.25402 18.5682 3.25969C21.177 5.57244 20.2484 12.1064 20.2539 12.3292C19.7177 16.797 16.557 17.0803 15.9758 17.2737C15.7274 17.3562 13.422 17.9493 10.5272 17.7559Z"/>
<path d="M11.7226 3.93896C11.3697 3.93896 11.3697 4.48896 11.7226 4.49355C14.4607 4.51463 16.7157 6.42313 16.7404 9.92388C16.7404 10.2933 17.2812 10.2887 17.2767 9.9193H17.2757C17.2464 6.14722 14.7842 3.96005 11.7226 3.93896Z"/>
<path d="M15.3241 9.34362C15.3159 9.70845 15.8558 9.72587 15.8604 9.35645C15.9053 7.27653 14.6229 5.56328 12.2129 5.3827C11.86 5.35703 11.8234 5.91162 12.1754 5.93728C14.2654 6.09587 15.3663 7.5222 15.3241 9.34362Z"/>
<path d="M14.7466 11.7095C14.2938 11.4473 13.8327 11.6105 13.6421 11.8681L13.2433 12.3842C13.0407 12.6463 12.6622 12.6115 12.6622 12.6115C9.89932 11.8809 9.16049 8.98974 9.16049 8.98974C9.16049 8.98974 9.12657 8.59833 9.37957 8.38841L9.87824 7.97591C10.1276 7.77791 10.2852 7.30124 10.0313 6.83283C9.35299 5.60724 8.89741 5.18466 8.66549 4.86016C8.42166 4.55491 8.05499 4.48616 7.67366 4.69241H7.66541C6.87249 5.15624 6.00441 6.02433 6.28216 6.91808C6.75608 7.86041 7.62691 10.8643 10.4026 13.134C11.707 14.2074 13.7713 15.3074 14.6476 15.5613L14.6559 15.5742C15.5194 15.862 16.3591 14.96 16.8073 14.1432V14.1368C17.0062 13.7417 16.9402 13.3677 16.6496 13.123C16.1345 12.6207 15.3571 12.0661 14.7466 11.7095Z"/>
<path d="M12.5907 7.42871C13.4716 7.48004 13.8987 7.94021 13.9446 8.88529C13.9611 9.25471 14.4973 9.22905 14.4808 8.85963C14.4222 7.62579 13.7787 6.93829 12.62 6.87412C12.2671 6.85304 12.2341 7.40762 12.5907 7.42871Z"/>
</g>
</symbol><symbol id="icon-way" viewBox="0 0 40 40">
<path d="M1.10938 26.9583C0.772391 26.9583 0.5 27.2307 0.5 27.5677V38.5364C0.5 38.8734 0.772391 39.1458 1.10938 39.1458H12.0781C12.4151 39.1458 12.6875 38.8734 12.6875 38.5364V27.5677C12.6875 27.2307 12.4151 26.9583 12.0781 26.9583H1.10938ZM5.98438 28.1771H7.20312V29.3855H5.98438V28.1771ZM11.4688 37.9271H1.71875V28.1771H4.76562V29.9948C4.76562 30.3318 5.03802 30.6042 5.375 30.6042H7.8125C8.14948 30.6042 8.42188 30.3318 8.42188 29.9948V28.1771H11.4688V37.9271Z"/>
<path d="M34.0156 0.755188C30.9913 0.755188 28.5312 3.21523 28.5312 6.23956C28.5312 10.6393 33.402 15.0402 33.6098 15.2254C33.725 15.3284 33.8706 15.3802 34.0156 15.3802C34.1607 15.3802 34.3063 15.3284 34.4215 15.2254C34.6293 15.0402 39.5 10.6393 39.5 6.23956C39.5 3.21523 37.04 0.755188 34.0156 0.755188ZM34.015 13.928C32.8785 12.8025 29.75 9.41441 29.75 6.23956C29.75 3.88798 31.664 1.97394 34.0156 1.97394C36.3672 1.97394 38.2812 3.88798 38.2812 6.23956C38.2812 9.40831 35.1515 12.8013 34.015 13.928Z"/>
<path d="M31.8944 32.4445H15.1232C14.7862 32.4445 14.5138 32.7169 14.5138 33.0539C14.5138 33.3909 14.7862 33.6633 15.1232 33.6633H31.8938C34.7505 33.6633 37.0747 31.3398 37.0747 28.4824C37.0747 25.625 34.7511 23.3015 31.8938 23.3015H8.10987C5.92527 23.3015 4.14772 21.5239 4.14772 19.3393C4.14772 17.1547 5.92527 15.3772 8.10987 15.3772C8.16106 15.3772 8.20677 15.3601 8.2543 15.3479C8.30609 15.3619 8.35667 15.3802 8.41334 15.3802H29.7506C30.0876 15.3802 30.36 15.1078 30.36 14.7708C30.36 14.4339 30.0876 14.1615 29.7506 14.1615H8.41334C8.36216 14.1615 8.31645 14.1785 8.26892 14.1907C8.21712 14.1767 8.16655 14.1584 8.10987 14.1584C5.25312 14.1584 2.92897 16.482 2.92897 19.3393C2.92897 22.1967 5.25252 24.5202 8.10987 24.5202H31.8938C34.0784 24.5202 35.8559 26.2978 35.8559 28.4824C35.8559 30.667 34.079 32.4445 31.8944 32.4445Z"/>
<path d="M34.0119 3.80206C32.6677 3.80206 31.5744 4.89528 31.5744 6.23895C31.5744 7.58323 32.6677 8.67706 34.0119 8.67706C35.3562 8.67706 36.4494 7.58323 36.4494 6.23895C36.4494 4.89528 35.3562 3.80206 34.0119 3.80206ZM34.0119 7.45831C33.3398 7.45831 32.7932 6.9117 32.7932 6.23895C32.7932 5.56681 33.3398 5.02081 34.0119 5.02081C34.6841 5.02081 35.2307 5.56681 35.2307 6.23895C35.2307 6.9117 34.6841 7.45831 34.0119 7.45831Z"/>
<path d="M6.59375 34.2702H2.9375C2.60052 34.2702 2.32812 34.5426 2.32812 34.8796C2.32812 35.2166 2.60052 35.489 2.9375 35.489H6.59375C6.93073 35.489 7.20312 35.2166 7.20312 34.8796C7.20312 34.5426 6.93073 34.2702 6.59375 34.2702Z"/>
<path d="M4.76562 36.0984H2.9375C2.60052 36.0984 2.32812 36.3708 2.32812 36.7077C2.32812 37.0447 2.60052 37.3171 2.9375 37.3171H4.76562C5.10261 37.3171 5.375 37.0447 5.375 36.7077C5.375 36.3708 5.10261 36.0984 4.76562 36.0984Z"/>
</symbol><symbol id="icon-weight" viewBox="0 0 21 21">
<g>
<path d="M8.06848 13.0463C8.75047 13.2882 9.24036 13.9395 9.24036 14.7034V15.2893H10.4122V14.7034C10.4122 13.746 9.95059 12.8945 9.23833 12.3596C9.95059 11.8247 10.4122 10.9732 10.4122 10.0159V9.42993H9.24036V10.0159C9.24036 10.7797 8.75047 11.431 8.06848 11.6729V9.42993H6.89661V15.2893H8.06848V13.0463Z"/>
<path d="M13.3419 15.2893C14.3112 15.2893 15.0997 14.5008 15.0997 13.5315V11.7737H13.3419V12.9456H13.9279V13.5315C13.9279 13.8546 13.665 14.1174 13.3419 14.1174C13.0188 14.1174 12.756 13.8546 12.756 13.5315V11.1877C12.756 10.8647 13.0188 10.6018 13.3419 10.6018C13.665 10.6018 13.9279 10.8647 13.9279 11.1877H15.0997C15.0997 10.2185 14.3112 9.42993 13.3419 9.42993C12.3727 9.42993 11.5841 10.2185 11.5841 11.1877V13.5315C11.5841 14.5008 12.3727 15.2893 13.3419 15.2893Z"/>
<path d="M10.9991 0.0158691C9.38367 0.0158691 8.06941 1.33013 8.06941 2.94556V3.53149H3.46285L1.00281 20.0159H20.9954L18.5353 3.53149H13.9288V2.94556C13.9288 1.33013 12.6145 0.0158691 10.9991 0.0158691ZM9.24128 2.94556C9.24128 1.9763 10.0298 1.18774 10.9991 1.18774C11.9684 1.18774 12.7569 1.9763 12.7569 2.94556V3.53149H9.24128V2.94556ZM17.5253 4.70337L19.6356 18.844H2.36257L4.47285 4.70337H17.5253Z"/>
</g>
</symbol><symbol id="icon-whatsapp" viewBox="0 0 22 20">
<g>
<path fill-rule="evenodd" clip-rule="evenodd" d="M18.3941 3.34007C16.5522 1.58386 14.1027 0.616264 11.4931 0.615234C6.11585 0.615234 1.73951 4.78306 1.73735 9.90566C1.73663 11.5432 2.1858 13.1417 3.03955 14.5507L1.65552 19.3652L6.82721 18.0732C8.25222 18.8135 9.85652 19.2036 11.4892 19.2041H11.4933C16.8699 19.2041 21.2468 15.0359 21.2488 9.9131C21.2499 7.43042 20.2361 5.09617 18.3941 3.34007ZM11.4931 17.635H11.4898C10.0348 17.6344 8.6079 17.262 7.36278 16.5586L7.06682 16.3911L3.99785 17.1579L4.817 14.3082L4.62414 14.016C3.81244 12.7865 3.38382 11.3654 3.38454 9.90624C3.38622 5.64846 7.0238 2.18445 11.4964 2.18445C13.6622 2.18514 15.6981 2.98943 17.229 4.44912C18.7599 5.90881 19.6025 7.84905 19.6017 9.91253C19.5998 14.1706 15.9625 17.635 11.4931 17.635ZM15.9408 11.8513C15.6972 11.735 14.4987 11.1736 14.2752 11.096C14.0519 11.0185 13.8892 10.9799 13.7268 11.2122C13.5643 11.4446 13.0972 11.9675 12.9549 12.1224C12.8126 12.2773 12.6706 12.2968 12.4268 12.1805C12.183 12.0644 11.3976 11.8191 10.4665 11.0282C9.74188 10.4126 9.2527 9.65241 9.11043 9.42009C8.96839 9.18755 9.10922 9.07402 9.21737 8.94631C9.48125 8.63423 9.74549 8.30704 9.82672 8.1522C9.90807 7.99725 9.86733 7.86163 9.80629 7.74548C9.74549 7.62932 9.25799 6.48663 9.05491 6.02165C8.85688 5.56915 8.65609 5.63027 8.50637 5.62317C8.36433 5.61642 8.20175 5.61504 8.03917 5.61504C7.87671 5.61504 7.6126 5.67307 7.38909 5.90561C7.16571 6.13804 6.53606 6.6996 6.53606 7.84229C6.53606 8.98499 7.40952 10.0889 7.53137 10.2438C7.65321 10.3988 9.2503 12.7437 11.6955 13.7492C12.2771 13.9886 12.7311 14.1313 13.0852 14.2383C13.6692 14.415 14.2004 14.39 14.6205 14.3303C15.0889 14.2636 16.0626 13.7686 16.2659 13.2264C16.469 12.6841 16.469 12.2193 16.4079 12.1224C16.3471 12.0256 16.1845 11.9675 15.9408 11.8513Z"/>
</g>
</symbol></svg>