<svg viewBox="0 0 164 62" fill="none" xmlns="http://www.w3.org/2000/svg">
<path d="M89.4491 13.5119V32.9999H85.6971V17.1519H83.6811V24.5439C83.6811 25.8879 83.6251 27.0546 83.5131 28.0439C83.4011 29.0146 83.1771 29.8453 82.8411 30.5359C82.5238 31.2266 82.0664 31.8053 81.4691 32.2719C80.8718 32.7386 80.0878 33.1399 79.1171 33.4759L77.8291 30.5919C78.4451 30.2559 78.9211 29.9106 79.2571 29.5559C79.5931 29.1826 79.8358 28.7719 79.9851 28.3239C80.1531 27.8573 80.2464 27.3159 80.2651 26.6999C80.3024 26.0839 80.3211 25.3559 80.3211 24.5159V13.5119H89.4491ZM96.2141 17.1519V32.9999H92.4061V13.5119H101.338V17.1519H96.2141Z" fill="#FFC600"/>
<path d="M84.6051 42.1519V57.9999H80.7971V42.1519H77.8011V38.5119H87.6011V42.1519H84.6051ZM93.8269 38.5119C94.6483 38.5119 95.3856 38.6146 96.0389 38.8199C96.7109 39.0066 97.2803 39.3333 97.7469 39.7999C98.2323 40.2479 98.6056 40.8639 98.8669 41.6479C99.1283 42.4133 99.2589 43.3746 99.2589 44.5319C99.2589 46.5293 98.8389 48.0879 97.9989 49.2079C97.1589 50.3093 95.7963 50.8599 93.9109 50.8599H93.0149V57.9999H89.2069V38.5119H93.8269ZM93.0149 42.1519V47.1919H93.6589C93.9016 47.1919 94.1349 47.1639 94.3589 47.1079C94.6016 47.0333 94.8163 46.9026 95.0029 46.7159C95.1896 46.5106 95.3389 46.2306 95.4509 45.8759C95.5629 45.5213 95.6189 45.0639 95.6189 44.5039C95.6189 43.6453 95.4416 43.0386 95.0869 42.6839C94.7509 42.3293 94.2936 42.1519 93.7149 42.1519H93.0149ZM106.089 54.1919H103.233L102.645 57.9999H98.613L102.309 38.5119H106.957L110.681 57.9999H106.677L106.089 54.1919ZM104.157 47.4999L103.765 50.6079H105.529L105.165 47.4999L104.745 43.5519H104.577L104.157 47.4999ZM118.611 57.9999V49.9359H116.175V57.9999H112.367V38.5119H116.175V46.2399H118.611V38.5119H122.391V57.9999H118.611ZM130.119 38.3439C131.817 38.3439 133.068 38.7639 133.871 39.6039C134.692 40.4253 135.103 41.4986 135.103 42.8239C135.103 42.9173 135.103 43.0106 135.103 43.1039C135.103 43.1786 135.093 43.2626 135.075 43.3559L131.407 43.9999C131.388 43.4213 131.257 42.9453 131.015 42.5719C130.791 42.1799 130.483 41.9839 130.091 41.9839C129.829 41.9839 129.615 42.0399 129.447 42.1519C129.297 42.2453 129.176 42.3666 129.083 42.5159C128.989 42.6653 128.924 42.8333 128.887 43.0199C128.849 43.1879 128.831 43.3373 128.831 43.4679V53.4079C128.831 53.6693 128.896 53.9213 129.027 54.1639C129.157 54.4066 129.465 54.5279 129.951 54.5279C130.324 54.5279 130.623 54.3599 130.847 54.0239C131.089 53.6879 131.22 53.1839 131.239 52.5119L135.019 53.0159C135 54.5653 134.571 55.8159 133.731 56.7679C132.891 57.7013 131.677 58.1679 130.091 58.1679C128.336 58.1679 127.057 57.7573 126.255 56.9359C125.452 56.1146 125.051 54.8826 125.051 53.2399V43.4679C125.051 41.9186 125.461 40.6773 126.283 39.7439C127.123 38.8106 128.401 38.3439 130.119 38.3439Z" fill="white"/>
<path d="M31.8621 6.38306H32.2005L64.0341 61.5206H49.8051L24.9167 18.4127L31.8621 6.38306Z" fill="#ECB017"/>
<path d="M32.8491 49.5449L33.0183 49.2518L56.3839 49.2519L63.1504 61.5746H39.7945L32.8491 49.5449Z" fill="#ECB017"/>
<path fill-rule="evenodd" clip-rule="evenodd" d="M32.176 6.38307L31.8376 6.38306L0.00393677 61.5206L14.233 61.5206L39.1213 18.4128L32.176 6.38307Z" fill="white"/>
<path fill-rule="evenodd" clip-rule="evenodd" d="M36.2968 0.0510894L36.3974 0.0510864L45.8571 16.4358L41.6288 16.4358L34.233 3.62582L36.2968 0.0510894Z" fill="url(#paint0_linear)"/>
<defs>
<linearGradient id="paint0_linear" x1="41.4289" y1="16.4358" x2="41.4289" y2="0.0510865" gradientUnits="userSpaceOnUse">
<stop stop-color="#0809B5"/>
<stop offset="1" stop-color="#710BA9"/>
</linearGradient>
</defs>
</svg>
