<svg viewBox="0 0 34 43" fill="none" xmlns="http://www.w3.org/2000/svg">
<circle cx="17.195" cy="21.9859" r="10.0684" fill="#FFD057"/>
<path d="M33.1315 9.48968L17.3461 1.07839C17.1119 0.953402 16.8312 0.955156 16.5988 1.08277L1.25013 9.49407C0.998407 9.63221 0.842285 9.89622 0.842285 10.1835V21.1708C0.851495 30.2026 6.20262 38.3736 14.478 41.992L16.6084 42.9204C16.8075 43.0073 17.0343 43.0077 17.2338 42.9213L19.6344 41.8846C28.0632 38.3446 33.5468 30.0947 33.5477 20.9528V10.1835C33.5477 9.89315 33.3876 9.62607 33.1315 9.48968ZM31.9759 20.9528C31.9742 29.4645 26.8673 37.1448 19.0191 40.4387L19.0138 40.4413L16.9233 41.3439L15.1068 40.5514C7.4038 37.1834 2.42236 29.5781 2.41359 21.1708V10.6488L16.9816 2.6646L31.9759 10.6545V20.9528Z" fill="black"/>
<path d="M11.1836 20.6614C10.9016 20.3311 10.4056 20.2921 10.0754 20.5741C9.74519 20.8556 9.70615 21.3521 9.98814 21.6819L14.1394 26.5431C14.4166 26.8676 14.902 26.9119 15.2327 26.6427L24.9009 18.7769C25.2377 18.5033 25.2885 18.0082 25.0144 17.6714C24.7408 17.335 24.2457 17.2837 23.9089 17.5578L14.8363 24.9385L11.1836 20.6614Z" fill="black"/>
</svg>
