<svg width="467" height="31" viewBox="0 0 467 31" fill="none" xmlns="http://www.w3.org/2000/svg">
<path d="M18.8906 16.437C18.7135 18.8849 17.8073 20.812 16.1719 22.2183C14.5469 23.6245 12.401 24.3276 9.73438 24.3276C6.81771 24.3276 4.52083 23.3485 2.84375 21.3901C1.17708 19.4214 0.34375 16.7235 0.34375 13.2964V11.9058C0.34375 9.71826 0.729167 7.79118 1.5 6.12451C2.27083 4.45785 3.36979 3.1818 4.79688 2.29639C6.23438 1.40055 7.90104 0.952637 9.79688 0.952637C12.4219 0.952637 14.5365 1.65576 16.1406 3.06201C17.7448 4.46826 18.6719 6.44222 18.9219 8.98389H14.2344C14.1198 7.51514 13.7083 6.45264 13 5.79639C12.3021 5.12972 11.2344 4.79639 9.79688 4.79639C8.23438 4.79639 7.0625 5.35889 6.28125 6.48389C5.51042 7.59847 5.11458 9.33285 5.09375 11.687V13.4058C5.09375 15.8641 5.46354 17.661 6.20312 18.7964C6.95312 19.9318 8.13021 20.4995 9.73438 20.4995C11.1823 20.4995 12.2604 20.1714 12.9688 19.5151C13.6875 18.8485 14.099 17.8224 14.2031 16.437H18.8906ZM36.375 7.10889V24.0151H31.8594V10.7651H27.875L27.5938 15.9839C27.4167 18.7651 26.8698 20.7912 25.9531 22.062C25.0365 23.3328 23.6719 23.9839 21.8594 24.0151H20.3281L20.2812 20.3433L20.8438 20.2964C21.6562 20.2339 22.25 19.7547 22.625 18.8589C23 17.9631 23.2344 16.437 23.3281 14.2808L23.6406 7.10889H36.375ZM39.1562 15.4058C39.1562 13.7287 39.4792 12.2339 40.125 10.9214C40.7708 9.60889 41.6979 8.59326 42.9062 7.87451C44.125 7.15576 45.5365 6.79639 47.1406 6.79639C49.4219 6.79639 51.2812 7.4943 52.7188 8.89014C54.1667 10.286 54.974 12.1818 55.1406 14.5776L55.1719 15.7339C55.1719 18.3276 54.4479 20.411 53 21.9839C51.5521 23.5464 49.6094 24.3276 47.1719 24.3276C44.7344 24.3276 42.7865 23.5464 41.3281 21.9839C39.8802 20.4214 39.1562 18.2964 39.1562 15.6089V15.4058ZM43.6719 15.7339C43.6719 17.3381 43.974 18.5672 44.5781 19.4214C45.1823 20.2651 46.0469 20.687 47.1719 20.687C48.2656 20.687 49.1198 20.2703 49.7344 19.437C50.349 18.5933 50.6562 17.2495 50.6562 15.4058C50.6562 13.8328 50.349 12.6141 49.7344 11.7495C49.1198 10.8849 48.2552 10.4526 47.1406 10.4526C46.0365 10.4526 45.1823 10.8849 44.5781 11.7495C43.974 12.6037 43.6719 13.9318 43.6719 15.7339ZM58.25 24.0151V7.10889H65.3125C67.6146 7.10889 69.3802 7.51514 70.6094 8.32764C71.8385 9.14014 72.4531 10.3068 72.4531 11.8276C72.4531 12.6089 72.1927 13.312 71.6719 13.937C71.1615 14.5516 70.4115 15.0256 69.4219 15.3589C70.6302 15.5881 71.5781 16.0412 72.2656 16.7183C72.9635 17.3849 73.3125 18.2078 73.3125 19.187C73.3125 20.7599 72.7188 21.9578 71.5312 22.7808C70.3542 23.6037 68.6406 24.0151 66.3906 24.0151H58.25ZM62.7656 16.9995V20.4058H66.4062C68 20.4058 68.7969 19.8485 68.7969 18.7339C68.7969 17.5985 68.0365 17.0203 66.5156 16.9995H62.7656ZM62.7656 13.9683H65.5625C67.1458 13.9474 67.9375 13.437 67.9375 12.437C67.9375 11.8224 67.7188 11.3849 67.2812 11.1245C66.8542 10.8641 66.1979 10.7339 65.3125 10.7339H62.7656V13.9683ZM75.375 15.4058C75.375 13.7287 75.6979 12.2339 76.3438 10.9214C76.9896 9.60889 77.9167 8.59326 79.125 7.87451C80.3438 7.15576 81.7552 6.79639 83.3594 6.79639C85.6406 6.79639 87.5 7.4943 88.9375 8.89014C90.3854 10.286 91.1927 12.1818 91.3594 14.5776L91.3906 15.7339C91.3906 18.3276 90.6667 20.411 89.2188 21.9839C87.7708 23.5464 85.8281 24.3276 83.3906 24.3276C80.9531 24.3276 79.0052 23.5464 77.5469 21.9839C76.099 20.4214 75.375 18.2964 75.375 15.6089V15.4058ZM79.8906 15.7339C79.8906 17.3381 80.1927 18.5672 80.7969 19.4214C81.401 20.2651 82.2656 20.687 83.3906 20.687C84.4844 20.687 85.3385 20.2703 85.9531 19.437C86.5677 18.5933 86.875 17.2495 86.875 15.4058C86.875 13.8328 86.5677 12.6141 85.9531 11.7495C85.3385 10.8849 84.474 10.4526 83.3594 10.4526C82.2552 10.4526 81.401 10.8849 80.7969 11.7495C80.1927 12.6037 79.8906 13.9318 79.8906 15.7339ZM327.766 17.7808H325.953V24.0151H321.438V7.10889H325.953V13.4683H327.562L331.25 7.10889H336.953L331.422 15.1558L337.469 24.0151H331.453L327.766 17.7808ZM337.562 15.4058C337.562 13.7287 337.885 12.2339 338.531 10.9214C339.177 9.60889 340.104 8.59326 341.312 7.87451C342.531 7.15576 343.943 6.79639 345.547 6.79639C347.828 6.79639 349.688 7.4943 351.125 8.89014C352.573 10.286 353.38 12.1818 353.547 14.5776L353.578 15.7339C353.578 18.3276 352.854 20.411 351.406 21.9839C349.958 23.5464 348.016 24.3276 345.578 24.3276C343.141 24.3276 341.193 23.5464 339.734 21.9839C338.286 20.4214 337.562 18.2964 337.562 15.6089V15.4058ZM342.078 15.7339C342.078 17.3381 342.38 18.5672 342.984 19.4214C343.589 20.2651 344.453 20.687 345.578 20.687C346.672 20.687 347.526 20.2703 348.141 19.437C348.755 18.5933 349.062 17.2495 349.062 15.4058C349.062 13.8328 348.755 12.6141 348.141 11.7495C347.526 10.8849 346.661 10.4526 345.547 10.4526C344.443 10.4526 343.589 10.8849 342.984 11.7495C342.38 12.6037 342.078 13.9318 342.078 15.7339ZM366.656 18.687L371.078 7.10889H376.734V24.0151H372.219V13.6401L368.172 24.0151H365.141L361.172 13.812V24.0151H356.656V7.10889H362.266L366.656 18.687ZM395.375 24.0151H390.844V10.7651H385.188V24.0151H380.672V7.10889H395.375V24.0151ZM408.625 24.0151C408.417 23.6089 408.266 23.1037 408.172 22.4995C407.078 23.7183 405.656 24.3276 403.906 24.3276C402.25 24.3276 400.875 23.8485 399.781 22.8901C398.698 21.9318 398.156 20.7235 398.156 19.2651C398.156 17.4735 398.818 16.0985 400.141 15.1401C401.474 14.1818 403.396 13.6974 405.906 13.687H407.984V12.7183C407.984 11.937 407.781 11.312 407.375 10.8433C406.979 10.3745 406.349 10.1401 405.484 10.1401C404.724 10.1401 404.125 10.3224 403.688 10.687C403.26 11.0516 403.047 11.5516 403.047 12.187H398.531C398.531 11.2078 398.833 10.3016 399.438 9.46826C400.042 8.63493 400.896 7.98389 402 7.51514C403.104 7.03597 404.344 6.79639 405.719 6.79639C407.802 6.79639 409.453 7.32243 410.672 8.37451C411.901 9.41618 412.516 10.8849 412.516 12.7808V20.1089C412.526 21.7131 412.75 22.9266 413.188 23.7495V24.0151H408.625ZM404.891 20.8745C405.557 20.8745 406.172 20.7287 406.734 20.437C407.297 20.1349 407.714 19.7339 407.984 19.2339V16.3276H406.297C404.036 16.3276 402.833 17.1089 402.688 18.6714L402.672 18.937C402.672 19.4995 402.87 19.9631 403.266 20.3276C403.661 20.6922 404.203 20.8745 404.891 20.8745ZM430.641 24.0151H426.109V17.5151H420.5V24.0151H415.984V7.10889H420.5V13.8901H426.109V7.10889H430.641V24.0151ZM444.328 7.10889H448.844V24.0151H444.328V13.5776L438.672 24.0151H434.141V7.10889H438.672V17.5308L444.328 7.10889ZM462.484 7.10889H467V24.0151H462.484V13.5776L456.828 24.0151H452.297V7.10889H456.828V17.5308L462.484 7.10889Z" fill="white"/>
<path d="M117.359 15.7183C117.359 18.3224 116.766 20.411 115.578 21.9839C114.401 23.5464 112.807 24.3276 110.797 24.3276C109.089 24.3276 107.708 23.7339 106.656 22.5464V30.5151H102.141V7.10889H106.328L106.484 8.76514C107.578 7.45264 109.005 6.79639 110.766 6.79639C112.849 6.79639 114.469 7.56722 115.625 9.10889C116.781 10.6506 117.359 12.7756 117.359 15.4839V15.7183ZM112.844 15.3901C112.844 13.8172 112.562 12.6037 112 11.7495C111.448 10.8953 110.641 10.4683 109.578 10.4683C108.161 10.4683 107.188 11.0099 106.656 12.0933V19.0151C107.208 20.1297 108.193 20.687 109.609 20.687C111.766 20.687 112.844 18.9214 112.844 15.3901ZM126.297 17.6245L129.422 7.10889H134.266L127.469 26.6401L127.094 27.5308C126.083 29.7391 124.417 30.8433 122.094 30.8433C121.438 30.8433 120.771 30.7443 120.094 30.5464V27.1245L120.781 27.1401C121.635 27.1401 122.271 27.0099 122.688 26.7495C123.115 26.4891 123.448 26.0568 123.688 25.4526L124.219 24.062L118.297 7.10889H123.156L126.297 17.6245ZM142.672 17.7808H140.859V24.0151H136.344V7.10889H140.859V13.4683H142.469L146.156 7.10889H151.859L146.328 15.1558L152.375 24.0151H146.359L142.672 17.7808ZM152.469 15.4058C152.469 13.7287 152.792 12.2339 153.438 10.9214C154.083 9.60889 155.01 8.59326 156.219 7.87451C157.438 7.15576 158.849 6.79639 160.453 6.79639C162.734 6.79639 164.594 7.4943 166.031 8.89014C167.479 10.286 168.286 12.1818 168.453 14.5776L168.484 15.7339C168.484 18.3276 167.76 20.411 166.312 21.9839C164.865 23.5464 162.922 24.3276 160.484 24.3276C158.047 24.3276 156.099 23.5464 154.641 21.9839C153.193 20.4214 152.469 18.2964 152.469 15.6089V15.4058ZM156.984 15.7339C156.984 17.3381 157.286 18.5672 157.891 19.4214C158.495 20.2651 159.359 20.687 160.484 20.687C161.578 20.687 162.432 20.2703 163.047 19.437C163.661 18.5933 163.969 17.2495 163.969 15.4058C163.969 13.8328 163.661 12.6141 163.047 11.7495C162.432 10.8849 161.568 10.4526 160.453 10.4526C159.349 10.4526 158.495 10.8849 157.891 11.7495C157.286 12.6037 156.984 13.9318 156.984 15.7339ZM171.562 24.0151V7.10889H178.625C180.927 7.10889 182.693 7.51514 183.922 8.32764C185.151 9.14014 185.766 10.3068 185.766 11.8276C185.766 12.6089 185.505 13.312 184.984 13.937C184.474 14.5516 183.724 15.0256 182.734 15.3589C183.943 15.5881 184.891 16.0412 185.578 16.7183C186.276 17.3849 186.625 18.2078 186.625 19.187C186.625 20.7599 186.031 21.9578 184.844 22.7808C183.667 23.6037 181.953 24.0151 179.703 24.0151H171.562ZM176.078 16.9995V20.4058H179.719C181.312 20.4058 182.109 19.8485 182.109 18.7339C182.109 17.5985 181.349 17.0203 179.828 16.9995H176.078ZM176.078 13.9683H178.875C180.458 13.9474 181.25 13.437 181.25 12.437C181.25 11.8224 181.031 11.3849 180.594 11.1245C180.167 10.8641 179.51 10.7339 178.625 10.7339H176.078V13.9683ZM188.688 15.4058C188.688 13.7287 189.01 12.2339 189.656 10.9214C190.302 9.60889 191.229 8.59326 192.438 7.87451C193.656 7.15576 195.068 6.79639 196.672 6.79639C198.953 6.79639 200.812 7.4943 202.25 8.89014C203.698 10.286 204.505 12.1818 204.672 14.5776L204.703 15.7339C204.703 18.3276 203.979 20.411 202.531 21.9839C201.083 23.5464 199.141 24.3276 196.703 24.3276C194.266 24.3276 192.318 23.5464 190.859 21.9839C189.411 20.4214 188.688 18.2964 188.688 15.6089V15.4058ZM193.203 15.7339C193.203 17.3381 193.505 18.5672 194.109 19.4214C194.714 20.2651 195.578 20.687 196.703 20.687C197.797 20.687 198.651 20.2703 199.266 19.437C199.88 18.5933 200.188 17.2495 200.188 15.4058C200.188 13.8328 199.88 12.6141 199.266 11.7495C198.651 10.8849 197.786 10.4526 196.672 10.4526C195.568 10.4526 194.714 10.8849 194.109 11.7495C193.505 12.6037 193.203 13.9318 193.203 15.7339ZM206.594 20.3745C207.615 19.2912 208.307 18.2183 208.672 17.1558C209.036 16.0933 209.24 14.5881 209.281 12.6401L209.406 7.10889H221.844V20.3745H224.281V29.0933H219.766V24.0151H209.75V29.0933H205.141V20.3745H206.594ZM211.922 20.3745H217.344V10.8433H213.828L213.797 12.8745C213.703 15.9787 213.078 18.4787 211.922 20.3745ZM236.484 7.10889H241V24.0151H236.484V13.5776L230.828 24.0151H226.297V7.10889H230.828V17.5308L236.484 7.10889ZM258.484 10.7339H253.062V24.0151H248.531V10.7339H243.203V7.10889H258.484V10.7339ZM267.547 24.3276C265.068 24.3276 263.047 23.5672 261.484 22.0464C259.932 20.5256 259.156 18.4995 259.156 15.9683V15.5308C259.156 13.8328 259.484 12.3172 260.141 10.9839C260.797 9.64014 261.724 8.60889 262.922 7.89014C264.13 7.16097 265.505 6.79639 267.047 6.79639C269.359 6.79639 271.177 7.52555 272.5 8.98389C273.833 10.4422 274.5 12.5099 274.5 15.187V17.0308H263.734C263.88 18.1349 264.318 19.0203 265.047 19.687C265.786 20.3537 266.719 20.687 267.844 20.687C269.583 20.687 270.943 20.0568 271.922 18.7964L274.141 21.2808C273.464 22.2391 272.547 22.9891 271.391 23.5308C270.234 24.062 268.953 24.3276 267.547 24.3276ZM267.031 10.4526C266.135 10.4526 265.406 10.7547 264.844 11.3589C264.292 11.9631 263.938 12.8276 263.781 13.9526H270.062V13.5933C270.042 12.5933 269.771 11.8224 269.25 11.2808C268.729 10.7287 267.99 10.4526 267.031 10.4526ZM291.781 7.10889V24.0151H287.266V10.7651H283.281L283 15.9839C282.823 18.7651 282.276 20.7912 281.359 22.062C280.443 23.3328 279.078 23.9839 277.266 24.0151H275.734L275.688 20.3433L276.25 20.2964C277.062 20.2339 277.656 19.7547 278.031 18.8589C278.406 17.9631 278.641 16.437 278.734 14.2808L279.047 7.10889H291.781ZM309.359 7.10889V24.0151H304.859V18.1714H302L298.75 24.0151H294.172L297.859 17.4058C296.849 16.937 296.068 16.3016 295.516 15.4995C294.974 14.6974 294.703 13.786 294.703 12.7651C294.703 11.1297 295.333 9.79118 296.594 8.74951C297.865 7.69743 299.562 7.15055 301.688 7.10889H309.359ZM301.766 15.0151H304.859V10.7339H301.922C301.12 10.7339 300.469 10.9474 299.969 11.3745C299.469 11.7912 299.219 12.3016 299.219 12.9058C299.219 13.5099 299.458 14.0099 299.938 14.4058C300.417 14.8016 301.026 15.0047 301.766 15.0151Z" fill="#FFC600"/>
</svg>
