<svg width="65" height="64" viewBox="0 0 65 64" fill="none" xmlns="http://www.w3.org/2000/svg">
<path d="M59.1673 26.6667H5.83398M59.1673 29.3334V21.8667C59.1673 18.8798 59.1673 17.3863 58.586 16.2454C58.0747 15.2419 57.2588 14.426 56.2553 13.9147C55.1144 13.3334 53.6209 13.3334 50.634 13.3334H14.3673C11.3804 13.3334 9.8869 13.3334 8.74604 13.9147C7.7425 14.426 6.92661 15.2419 6.41528 16.2454C5.83398 17.3863 5.83398 18.8798 5.83398 21.8667V42.1334C5.83398 45.1203 5.83398 46.6138 6.41528 47.7547C6.92661 48.7582 7.7425 49.5741 8.74604 50.0854C9.8869 50.6667 11.3804 50.6667 14.3673 50.6667H31.1673" stroke="#0C989A" stroke-width="2" stroke-linecap="round" stroke-linejoin="round"/>
<path d="M48.5 56C48.5 56 56.5 52.1869 56.5 46.4673V39.7944L50.6664 37.7099C49.2648 37.2079 47.732 37.2079 46.3304 37.7099L40.5 39.7944V46.4673C40.5 52.1869 48.5 56 48.5 56Z" stroke="#81BB50" stroke-width="2" stroke-linecap="round" stroke-linejoin="round"/>
</svg>
