<svg width="64" height="64" viewBox="0 0 64 64" fill="none" xmlns="http://www.w3.org/2000/svg">
<path d="M31.4593 49.7889H12V10H43.3004V33.6655M17.6828 17.0714H37.6177M17.6828 22.5211H37.6177M17.6828 27.9708H37.6177M17.6828 33.4182H27.6502" stroke="#0C989A" stroke-width="1.5" stroke-miterlimit="10"/>
<path d="M35.3977 52.1618C35.607 53.3669 37.0271 53.9185 37.9945 53.1688C38.6876 52.6342 39.6777 52.7417 40.2378 53.4149C41.0214 54.3569 42.5263 54.125 42.9902 52.9906C43.3212 52.1816 44.2349 51.7799 45.0553 52.0826C46.2066 52.5069 47.3919 51.5536 47.2278 50.34C47.109 49.4744 47.6974 48.671 48.5602 48.5211C49.7653 48.3117 50.3169 46.8917 49.5673 45.9242C49.0327 45.2311 49.143 44.241 49.8134 43.6809C50.7554 42.8973 50.5234 41.3924 49.3891 40.9285C48.58 40.5975 48.1783 39.6838 48.481 38.8634C48.9053 37.7121 47.952 36.5268 46.7385 36.6909C45.8728 36.8097 45.0694 36.2213 44.9195 35.3585C44.7102 34.1534 43.2901 33.6018 42.3226 34.3514C41.6296 34.8861 40.6395 34.7758 40.0794 34.1053C39.2958 33.1633 37.7908 33.3953 37.3269 34.5296C36.9959 35.3387 36.0822 35.7404 35.2619 35.4377C34.1105 35.0134 32.9252 35.9667 33.0893 37.1803C33.2081 38.0459 32.6197 38.8493 31.7569 38.9992C30.5518 39.2085 30.0002 40.6286 30.7499 41.5961C31.2845 42.2892 31.1742 43.2792 30.5038 43.8394C29.5618 44.6229 29.7937 46.1279 30.9281 46.5918C31.7371 46.9228 32.1388 47.8365 31.8361 48.6568C31.4118 49.8082 32.3651 50.9935 33.5787 50.8294C34.4443 50.7106 35.2477 51.299 35.3977 52.1618Z" stroke="#81BB50" stroke-width="1.5" stroke-miterlimit="10"/>
</svg>
