<svg width="65" height="64" viewBox="0 0 65 64" fill="none" xmlns="http://www.w3.org/2000/svg">
<path d="M40.0219 42.7355V15.4565C40.0219 13.5468 38.4751 12 36.5654 12H7.95646C6.04676 12 4.5 13.5468 4.5 15.4565V44.0679C4.5 45.9776 6.04676 47.5243 7.95646 47.5243H14.2312M25.1754 47.5219C25.1754 50.5434 22.726 52.9928 19.7045 52.9928C16.683 52.9928 14.2336 50.5434 14.2336 47.5219C14.2336 44.5004 16.683 42.051 19.7045 42.051C22.726 42.051 25.1754 44.5004 25.1754 47.5219ZM25.1754 47.5219H41.2544M56.2056 47.5219H57.6744C59.2334 47.5219 60.5 46.2577 60.5 44.6963V38.4119C60.5 36.9236 59.9081 35.4937 58.8558 34.4414L50.7956 26.3812C49.7433 25.3289 48.3135 24.737 46.8252 24.737H40.0243M56.2056 47.5219C56.2056 50.5434 53.7562 52.9928 50.7347 52.9928C47.7132 52.9928 45.2638 50.5434 45.2638 47.5219C45.2638 44.5004 47.7132 42.051 50.7347 42.051C53.7562 42.051 56.2056 44.5004 56.2056 47.5219ZM45.6291 27.0803V32.4489C45.6291 33.8836 46.7934 35.048 48.2281 35.048H59.3794" stroke="#0C989A" stroke-width="1.5" stroke-miterlimit="10"/>
<path d="M29.3979 20.8673C29.6927 21.447 29.8583 22.1047 29.8583 22.7989C29.8583 25.1641 27.9413 27.0787 25.5785 27.0787H23.6152M27.2836 18.8723C26.7599 18.6433 26.1826 18.5191 25.5761 18.5191H19.8568V27.0811H14.2324M19.8568 31.1197V38.1666M27.7172 32.4131H14.2324M10.3984 41.2869L34.7423 15.1211" stroke="#81BB50" stroke-width="1.5" stroke-miterlimit="10"/>
</svg>
