<svg width="64" height="64" viewBox="0 0 64 64" fill="none" xmlns="http://www.w3.org/2000/svg">
<path d="M32.0007 58.6666C26.7265 58.6666 21.5708 57.1026 17.1855 54.1724C12.8001 51.2423 9.38221 47.0775 7.36388 42.2048C5.34554 37.3321 4.81745 31.9703 5.84639 26.7975C6.87533 21.6247 9.41508 16.8731 13.1445 13.1437C16.8739 9.41435 21.6254 6.8746 26.7983 5.84566C31.9711 4.81672 37.3329 5.34481 42.2055 7.36314C47.0782 9.38148 51.243 12.7994 54.1732 17.1847C57.1033 21.57 58.6673 26.7258 58.6673 31.9999C58.6673 39.0724 55.8578 45.8551 50.8568 50.8561C45.8559 55.8571 39.0731 58.6666 32.0007 58.6666ZM32.0007 7.55549C27.166 7.55549 22.4399 8.98913 18.4201 11.6751C14.4002 14.3611 11.2671 18.1788 9.41694 22.6454C7.5668 27.1121 7.08272 32.027 8.02591 36.7688C8.96911 41.5106 11.2972 45.8661 14.7158 49.2848C18.1344 52.7034 22.49 55.0315 27.2318 55.9747C31.9735 56.9179 36.8885 56.4338 41.3551 54.5836C45.8218 52.7335 49.6395 49.6004 52.3255 45.5805C55.0115 41.5607 56.4451 36.8346 56.4451 31.9999C56.4451 25.5169 53.8697 19.2993 49.2855 14.7151C44.7013 10.1309 38.4837 7.55549 32.0007 7.55549Z" fill="#0C989A"/>
<path d="M41.5499 42.5499C41.4176 42.5494 41.2867 42.5226 41.1649 42.4711C41.043 42.4196 40.9325 42.3444 40.8399 42.2499L21.7499 23.1599C21.6453 23.0703 21.5602 22.96 21.5002 22.8359C21.4402 22.7118 21.4065 22.5767 21.4011 22.439C21.3958 22.3013 21.419 22.1639 21.4693 22.0356C21.5196 21.9073 21.5958 21.7907 21.6933 21.6933C21.7907 21.5958 21.9073 21.5196 22.0356 21.4693C22.1639 21.419 22.3013 21.3958 22.439 21.4011C22.5767 21.4065 22.7118 21.4402 22.8359 21.5002C22.96 21.5602 23.0703 21.6453 23.1599 21.7499L42.2499 40.8399C42.4362 41.0273 42.5407 41.2807 42.5407 41.5449C42.5407 41.8091 42.4362 42.0626 42.2499 42.2499C42.0653 42.4383 41.8137 42.5462 41.5499 42.5499Z" fill="#81BB50"/>
<path d="M41 35C40.2089 35 39.4355 34.7654 38.7777 34.3259C38.1199 33.8864 37.6072 33.2616 37.3045 32.5307C37.0017 31.7998 36.9225 30.9956 37.0769 30.2196C37.2312 29.4437 37.6122 28.731 38.1716 28.1716C38.731 27.6122 39.4437 27.2312 40.2196 27.0769C40.9956 26.9225 41.7998 27.0017 42.5307 27.3045C43.2616 27.6072 43.8864 28.1199 44.3259 28.7777C44.7654 29.4355 45 30.2089 45 31C45 32.0609 44.5786 33.0783 43.8284 33.8284C43.0783 34.5786 42.0609 35 41 35ZM41 29C40.6044 29 40.2178 29.1173 39.8889 29.3371C39.56 29.5568 39.3036 29.8692 39.1522 30.2346C39.0009 30.6001 38.9613 31.0022 39.0384 31.3902C39.1156 31.7781 39.3061 32.1345 39.5858 32.4142C39.8655 32.6939 40.2219 32.8844 40.6098 32.9616C40.9978 33.0387 41.3999 32.9991 41.7654 32.8478C42.1308 32.6964 42.4432 32.44 42.6629 32.1111C42.8827 31.7822 43 31.3956 43 31C43 30.4696 42.7893 29.9609 42.4142 29.5858C42.0391 29.2107 41.5304 29 41 29Z" fill="#81BB50"/>
<path d="M21 36C20.2089 36 19.4355 35.7654 18.7777 35.3259C18.1199 34.8864 17.6072 34.2616 17.3045 33.5307C17.0017 32.7998 16.9225 31.9956 17.0769 31.2196C17.2312 30.4437 17.6122 29.731 18.1716 29.1716C18.731 28.6122 19.4437 28.2312 20.2196 28.0769C20.9956 27.9225 21.7998 28.0017 22.5307 28.3045C23.2616 28.6072 23.8864 29.1199 24.3259 29.7777C24.7654 30.4355 25 31.2089 25 32C25 33.0609 24.5786 34.0783 23.8284 34.8284C23.0783 35.5786 22.0609 36 21 36ZM21 30C20.6044 30 20.2178 30.1173 19.8889 30.3371C19.56 30.5568 19.3036 30.8692 19.1522 31.2346C19.0009 31.6001 18.9613 32.0022 19.0384 32.3902C19.1156 32.7781 19.3061 33.1345 19.5858 33.4142C19.8655 33.6939 20.2219 33.8844 20.6098 33.9616C20.9978 34.0387 21.3999 33.9991 21.7654 33.8478C22.1308 33.6964 22.4432 33.44 22.6629 33.1111C22.8827 32.7822 23 32.3956 23 32C23 31.4696 22.7893 30.9609 22.4142 30.5858C22.0391 30.2107 21.5304 30 21 30Z" fill="#81BB50"/>
</svg>
