<svg width="64" height="64" viewBox="0 0 64 64" fill="none" xmlns="http://www.w3.org/2000/svg">
<path d="M62.5156 14.903H23.25C17.2293 14.9098 11.4572 17.3046 7.19993 21.5619C2.94266 25.8191 0.547897 31.5913 0.541016 37.612V48.156C0.541334 48.4054 0.640663 48.6445 0.817181 48.8208C0.993699 48.997 1.23297 49.096 1.48242 49.096H40.748C46.7686 49.0893 52.5407 46.6947 56.798 42.4376C61.0553 38.1805 63.4501 32.4085 63.457 26.388V15.8444C63.4569 15.5947 63.3577 15.3553 63.1812 15.1788C63.0046 15.0023 62.7653 14.9031 62.5156 14.903ZM61.5742 26.3884C61.5681 31.91 59.372 37.2038 55.4677 41.1083C51.5634 45.0127 46.2697 47.2091 40.748 47.2154H2.42382V37.612C2.42969 32.0901 4.6257 26.7961 8.53004 22.8914C12.4344 18.9867 17.7282 16.7902 23.25 16.7838H61.5742V26.3884Z" fill="#0C989A"/>
<path d="M21.7753 26.8409C21.8988 26.8409 22.021 26.8166 22.1351 26.7694C22.2491 26.7221 22.3527 26.6529 22.44 26.5656C22.5273 26.4783 22.5965 26.3747 22.6438 26.2607C22.691 26.1466 22.7153 26.0244 22.7153 25.9009C22.7153 25.7775 22.691 25.6553 22.6438 25.5412C22.5965 25.4272 22.5273 25.3235 22.44 25.2363C22.3527 25.149 22.2491 25.0797 22.1351 25.0325C22.021 24.9853 21.8988 24.9609 21.7753 24.9609H12.6855C12.562 24.9608 12.4396 24.9849 12.3254 25.0321C12.2112 25.0792 12.1074 25.1485 12.02 25.2358C11.9325 25.3231 11.8632 25.4268 11.8158 25.5409C11.7685 25.655 11.7441 25.7774 11.7441 25.9009V39.6041C11.7443 39.8538 11.8435 40.0931 12.02 40.2696C12.1966 40.4461 12.4359 40.5454 12.6855 40.5455H21.7753C22.0246 40.5455 22.2637 40.4465 22.44 40.2702C22.6163 40.0939 22.7153 39.8548 22.7153 39.6055C22.7153 39.3562 22.6163 39.1171 22.44 38.9409C22.2637 38.7646 22.0246 38.6655 21.7753 38.6655H13.6269V33.6925H19.9491C20.1984 33.6925 20.4375 33.5935 20.6138 33.4172C20.7901 33.2409 20.8891 33.0018 20.8891 32.7525C20.8891 32.5032 20.7901 32.2641 20.6138 32.0879C20.4375 31.9116 20.1984 31.8125 19.9491 31.8125H13.6269V26.8409H21.7753Z" fill="#4E9D87"/>
<path d="M30.626 41.1032C31.9423 41.0915 33.2341 40.7455 34.38 40.0975C35.5259 39.4496 36.4883 38.521 37.1768 37.399C37.3102 37.1882 37.3543 36.933 37.2996 36.6896C37.2448 36.4462 37.0956 36.2346 36.8848 36.1012C36.674 35.9678 36.4188 35.9237 36.1754 35.9784C35.932 36.0332 35.7204 36.1824 35.587 36.3932C35.0675 37.2466 34.3398 37.9539 33.472 38.449C32.6042 38.944 31.6249 39.2104 30.626 39.2232C28.9737 39.1568 27.4149 38.4388 26.2905 37.2262C25.1662 36.0136 24.5677 34.4052 24.626 32.7526C24.5679 31.1 25.1665 29.4917 26.2908 28.2791C27.4151 27.0666 28.9737 26.3485 30.626 26.2818C31.6249 26.2947 32.6042 26.5611 33.472 27.0562C34.3398 27.5512 35.0675 28.2586 35.587 29.112C35.7204 29.3228 35.932 29.472 36.1754 29.5268C36.4188 29.5815 36.674 29.5374 36.8848 29.404C37.0956 29.2706 37.2448 29.059 37.2996 28.8156C37.3543 28.5722 37.3102 28.317 37.1768 28.1062C36.4884 26.984 35.526 26.0553 34.3801 25.4071C33.2342 24.759 31.9424 24.4128 30.626 24.401C28.4746 24.4675 26.4372 25.3836 24.9598 26.9489C23.4824 28.5141 22.6854 30.601 22.7432 32.7526C22.6856 34.904 23.4828 36.9906 24.9602 38.5557C26.4376 40.1207 28.4748 41.0367 30.626 41.1032Z" fill="#4E9D87"/>
<path d="M46.2353 41.1042C48.3867 41.0377 50.4241 40.1216 51.9015 38.5563C53.3789 36.9911 54.1759 34.9042 54.1181 32.7526C54.1759 30.601 53.3789 28.5141 51.9015 26.9489C50.4241 25.3836 48.3867 24.4675 46.2353 24.401C44.084 24.4675 42.0466 25.3836 40.5692 26.9489C39.0918 28.5141 38.2948 30.601 38.3525 32.7526C38.2948 34.9042 39.0918 36.9911 40.5692 38.5563C42.0466 40.1216 44.084 41.0377 46.2353 41.1042ZM46.2353 26.2818C47.8876 26.3485 49.4462 27.0666 50.5705 28.2791C51.6949 29.4917 52.2934 31.1 52.2353 32.7526C52.2936 34.4052 51.6951 36.0136 50.5708 37.2262C49.4464 38.4388 47.8876 39.1568 46.2353 39.2232C44.5831 39.1568 43.0243 38.4388 41.8999 37.2262C40.7755 36.0136 40.1771 34.4052 40.2353 32.7526C40.1773 31.1 40.7758 29.4917 41.9001 28.2791C43.0245 27.0666 44.5831 26.3485 46.2353 26.2818Z" fill="#4E9D87"/>
</svg>
