<svg width="64" height="64" viewBox="0 0 64 64" fill="none" xmlns="http://www.w3.org/2000/svg">
<path d="M53.3684 56H11.2632C10.5895 56 10 55.4105 10 54.7368V9.26316C10 8.58947 10.5895 8 11.2632 8H19.5158C20.1895 8 20.7789 8.58947 20.7789 9.26316V25.6842L30.2947 21.0526C30.7158 20.8842 31.1368 20.8842 31.5579 21.1368C31.8947 21.3895 32.1474 21.8105 32.1474 22.2316V25.6842L41.6632 21.0526C42.0842 20.8842 42.5053 20.8842 42.9263 21.1368C43.3474 21.3895 43.5158 21.8105 43.5158 22.2316V25.6842L53.0316 21.0526C53.4526 20.8842 53.8737 20.8842 54.2947 21.1368C54.6316 21.3895 54.8842 21.8105 54.8842 22.2316V54.8211C54.6316 55.4947 54.0421 56 53.3684 56ZM12.5263 53.4737H52.1053V24.2526L42.5895 28.8842C42.1684 29.0526 41.7474 29.0526 41.3263 28.8C40.9895 28.5474 40.7368 28.1263 40.7368 27.7053V24.2526L31.2211 28.8842C30.8 29.0526 30.3789 29.0526 29.9579 28.8C29.6211 28.5474 29.3684 28.1263 29.3684 27.7053V24.2526L20.0211 28.8842C19.6 29.0526 19.1789 29.0526 18.7579 28.8C18.4211 28.5474 18.1684 28.1263 18.1684 27.7053V10.5263H12.4421V53.4737H12.5263Z" fill="#0C989A" stroke="white"/>
<path d="M23.7319 41.0951H23.1424C22.8056 41.0951 22.4688 40.8424 22.4688 40.4214C22.4688 40.0003 22.7214 39.7477 23.1424 39.7477H23.7319C24.0688 39.7477 24.4056 40.0003 24.4056 40.4214C24.4056 40.8424 24.0688 41.0951 23.7319 41.0951Z" fill="#81BB50"/>
<path d="M27.935 41.0954H27.3456C27.0087 41.0954 26.6719 40.8428 26.6719 40.4217C26.6719 40.0007 26.9245 39.748 27.3456 39.748H27.935C28.2719 39.748 28.6087 40.0007 28.6087 40.4217C28.6087 40.8428 28.2719 41.0954 27.935 41.0954Z" fill="#81BB50"/>
<path d="M32.2358 41.0954H31.6463C31.3095 41.0954 30.9727 40.8428 30.9727 40.4217C30.9727 40.0007 31.2253 39.748 31.6463 39.748H32.2358C32.5727 39.748 32.9095 40.0007 32.9095 40.4217C32.9095 40.8428 32.5727 41.0954 32.2358 41.0954Z" fill="#81BB50"/>
<path d="M36.4546 41.0954H35.8651C35.5282 41.0954 35.1914 40.8428 35.1914 40.4217C35.1914 40.0007 35.444 39.748 35.8651 39.748H36.4546C36.7914 39.748 37.1282 40.0007 37.1282 40.4217C37.1282 40.8428 36.7914 41.0954 36.4546 41.0954Z" fill="#81BB50"/>
<path d="M16.5721 18.7792C16.2353 18.7792 15.8984 18.5266 15.8984 18.1055V12.2108C15.8984 11.874 16.1511 11.5371 16.5721 11.5371C16.9932 11.5371 17.2458 11.7897 17.2458 12.2108V18.1055C17.1616 18.5266 16.909 18.7792 16.5721 18.7792Z" fill="#81BB50"/>
<path d="M16.5721 23.5794C16.2353 23.5794 15.8984 23.3267 15.8984 22.9057V20.8846C15.8984 20.5478 16.1511 20.2109 16.5721 20.2109C16.9932 20.2109 17.2458 20.4636 17.2458 20.8846V22.9057C17.1616 23.3267 16.909 23.5794 16.5721 23.5794Z" fill="#81BB50"/>
</svg>
