<svg width="64" height="64" viewBox="0 0 64 64" fill="none" xmlns="http://www.w3.org/2000/svg">
<path d="M45.3327 26.6667V21.3333C45.3327 13.9695 39.3631 8 31.9993 8C24.6356 8 18.666 13.9695 18.666 21.3333V26.6667M23.466 56H40.5327C45.0131 56 47.2533 56 48.9646 55.1281C50.4699 54.3611 51.6937 53.1372 52.4607 51.6319C53.3327 49.9206 53.3327 47.6804 53.3327 43.2V39.4667C53.3327 34.9862 53.3327 32.746 52.4607 31.0347C51.6937 29.5294 50.4699 28.3056 48.9646 27.5386C47.2533 26.6667 45.0131 26.6667 40.5327 26.6667H23.466C18.9856 26.6667 16.7454 26.6667 15.0341 27.5386C13.5288 28.3056 12.305 29.5294 11.538 31.0347C10.666 32.746 10.666 34.9862 10.666 39.4667V43.2C10.666 47.6804 10.666 49.9206 11.538 51.6319C12.305 53.1372 13.5288 54.3611 15.0341 55.1281C16.7454 56 18.9856 56 23.466 56Z" stroke="#0C989A" stroke-width="2" stroke-linecap="round" stroke-linejoin="round"/>
<path d="M32 38.6666V44" stroke="#81BB50" stroke-width="2" stroke-linecap="round" stroke-linejoin="round"/>
</svg>
