<svg width="64" height="64" viewBox="0 0 64 64" fill="none" xmlns="http://www.w3.org/2000/svg">
<path d="M41.4855 44.2922C41.6758 44.3556 41.9506 44.4401 42.2677 44.419C42.7961 44.3978 43.2823 44.1865 43.6628 43.806C44.0645 43.4043 44.2759 42.8758 44.2547 42.3262C44.2124 38.796 46.4532 35.7097 49.7932 34.6527C50.0257 34.5893 50.2582 34.4625 50.4273 34.3357C50.8712 33.9974 51.1461 33.5112 51.2306 33.0039C51.3363 32.4543 51.1883 31.9047 50.8501 31.4396C48.7362 28.607 48.7362 24.802 50.829 21.9905L50.9769 21.8213C51.0615 21.7157 51.1038 21.6311 51.1461 21.5043C51.1672 21.4831 51.1883 21.3986 51.1883 21.3774C51.3574 20.849 51.294 20.2782 51.0615 19.8131C50.8078 19.3058 50.3639 18.9464 49.8354 18.7773C46.4955 17.7204 44.2547 14.6552 44.297 11.1461C44.297 10.8925 44.2547 10.6388 44.1702 10.4274C44.0011 9.92006 43.6206 9.49728 43.1132 9.24361C42.6059 9.01108 42.0774 8.98994 41.5701 9.15906C40.7456 9.43386 39.8789 9.58184 39.0122 9.58184C36.4333 9.53956 34.0023 8.29236 32.5226 6.19959C32.3746 5.9882 32.2055 5.81909 32.0364 5.71339C31.1062 5.05808 29.7956 5.26947 29.1403 6.19959C27.6606 8.29236 25.2296 9.53956 22.6718 9.53956C21.8051 9.53956 20.9384 9.39159 20.1562 9.11678C19.4586 8.86311 18.5496 9.05336 18 9.62412C17.5984 10.0258 17.387 10.5542 17.4081 11.1038C17.4504 14.6341 15.2097 17.6992 11.8697 18.7562C11.6372 18.8196 11.4258 18.9253 11.1933 19.0944C10.2843 19.7709 10.094 21.0815 10.7705 21.9905C12.8844 24.8231 12.8844 28.6281 10.7705 31.4608C10.6436 31.651 10.5379 31.8624 10.4745 32.0526C10.3054 32.5811 10.3477 33.1096 10.6225 33.6381C10.8973 34.1243 11.3201 34.4836 11.8274 34.6527C15.1885 35.7308 17.4081 38.8171 17.3659 42.2839C17.3447 42.5376 17.387 42.7913 17.4715 43.0449C17.6407 43.5523 18.0212 43.9751 18.5285 44.2287C19.0147 44.4613 19.5855 44.4824 20.0928 44.3133C20.9384 44.0385 21.8051 43.8905 22.6718 43.8905C25.2507 43.8905 27.5972 45.1166 29.1192 47.2305C29.246 47.4207 29.4151 47.5898 29.6054 47.7167C29.9647 47.9703 30.3664 48.0972 30.8103 48.0972C30.9371 48.0972 31.0428 48.076 31.1697 48.076C31.7193 47.9703 32.2055 47.6744 32.5014 47.2305C34.5519 44.3556 38.1667 43.1718 41.4855 44.2922ZM30.8314 46.0256C28.9501 43.3832 25.906 41.7977 22.6929 41.7977C21.5937 41.7977 20.4944 41.988 19.4586 42.3474C19.522 37.9082 16.7105 34.0186 12.4827 32.6868C15.1463 29.1143 15.1463 24.2946 12.4616 20.7433C16.7105 19.4115 19.5432 15.5219 19.4586 11.1038C20.4944 11.4632 21.5725 11.6323 22.6718 11.6323C25.906 11.6323 28.9712 10.0469 30.8103 7.40452C32.6917 10.0469 35.7357 11.6323 38.9911 11.6323C40.0903 11.6323 41.1684 11.4421 42.1831 11.1038C42.1408 15.5219 44.9523 19.3904 49.1801 20.6798L49.159 20.701C46.4955 24.2735 46.5166 29.0932 49.2013 32.6445C44.9523 33.9763 42.1197 37.8659 42.1831 42.3051H42.162C37.9553 40.8888 33.3681 42.3685 30.8314 46.0256Z" fill="#0C989A"/>
<path d="M30.8309 17.1902C25.5884 17.1902 21.3184 21.4603 21.3184 26.7028C21.3184 31.9452 25.5884 36.2153 30.8309 36.2153C36.0734 36.2153 40.3435 31.9452 40.3435 26.7028C40.3435 21.4603 36.0734 17.1902 30.8309 17.1902ZM30.8309 34.1437C26.73 34.1437 23.4111 30.8037 23.4111 26.7239C23.4111 22.6441 26.7511 19.3041 30.8309 19.3041C34.9108 19.3041 38.2507 22.6441 38.2507 26.7239C38.2507 30.8037 34.9108 34.1437 30.8309 34.1437Z" fill="#81BB50"/>
<path d="M23.7074 47.4217C23.2212 47.1046 22.5659 47.2314 22.2488 47.7176L17.1966 55.4756L14.5965 50.1697C14.4274 49.8104 14.068 49.5778 13.6663 49.5778L8.31817 49.5567L13.6029 41.4605C13.7086 41.2913 13.772 41.1011 13.772 40.8897C13.772 40.3189 13.307 39.8539 12.7151 39.8539C12.3346 39.8539 11.9964 40.0653 11.8273 40.3612L5.50668 50.0429C5.29529 50.36 5.27415 50.7828 5.4644 51.121C5.65465 51.4592 5.99287 51.6706 6.37338 51.6706L13.011 51.6917L16.1396 58.0757C16.3087 58.414 16.647 58.6465 17.0063 58.6676C17.0275 58.6676 17.0486 58.6676 17.0697 58.6676C17.4291 58.6676 17.7462 58.4985 17.9364 58.2026L24.0033 48.9014C24.3416 48.3941 24.1936 47.7387 23.7074 47.4217Z" fill="#0C989A"/>
<path d="M56.1562 50.0431L49.7934 40.298C49.4763 39.8118 48.821 39.685 48.3348 40.0021C47.8486 40.3191 47.7218 40.9745 48.0388 41.4607L53.3447 49.578L47.9754 49.5992C47.5738 49.5992 47.2144 49.8317 47.0453 50.1911L44.4452 55.497L39.3718 47.7389C39.0547 47.2527 38.3994 47.1259 37.9132 47.443C37.427 47.7601 37.3002 48.4154 37.6173 48.9016L43.7053 58.2028C43.8956 58.4987 44.2338 58.6678 44.572 58.6678C44.5932 58.6678 44.6143 58.6678 44.6355 58.6678C45.016 58.6467 45.3542 58.4142 45.5022 58.0759L48.6096 51.6919L55.2473 51.6708C55.6278 51.6708 55.9871 51.4594 56.1562 51.1212C56.3888 50.7618 56.3676 50.3602 56.1562 50.0431Z" fill="#0C989A"/>
</svg>
