<svg width="64" height="64" viewBox="0 0 64 64" fill="none" xmlns="http://www.w3.org/2000/svg">
<path d="M5.33398 27.2C5.33398 24.213 5.33398 22.7195 5.91528 21.5787C6.42661 20.5751 7.2425 19.7592 8.24604 19.2479C9.3869 18.6666 10.8804 18.6666 13.8673 18.6666H50.134C53.1209 18.6666 54.6144 18.6666 55.7553 19.2479C56.7588 19.7592 57.5747 20.5751 58.086 21.5787C58.6673 22.7195 58.6673 24.213 58.6673 27.2V47.4666C58.6673 50.4536 58.6673 51.947 58.086 53.0879C57.5747 54.0914 56.7588 54.9073 55.7553 55.4187C54.6144 56 53.1209 56 50.134 56H13.8673C10.8804 56 9.3869 56 8.24604 55.4187C7.2425 54.9073 6.42661 54.0914 5.91528 53.0879C5.33398 51.947 5.33398 50.4536 5.33398 47.4666V27.2Z" stroke="#0C989A" stroke-width="2" stroke-linecap="round" stroke-linejoin="round"/>
<path d="M42.3917 13.9294C41.6519 11.1687 39.4955 9.01233 36.7348 8.27259C35.7175 8 34.4775 8 31.9976 8C29.5177 8 28.2777 8 27.2604 8.27259C24.4996 9.01233 22.3433 11.1687 21.6035 13.9294" stroke="#81BB50" stroke-width="2" stroke-linecap="round" stroke-linejoin="round"/>
</svg>
