<svg width="150" height="35" viewBox="0 0 150 35" fill="none" xmlns="http://www.w3.org/2000/svg">
<path d="M52.6642 2.48902H59.6496V20.376C59.6496 22.9469 59.1186 25.1896 58.0564 27.1041C57.0216 29.0187 55.5101 30.4956 53.5221 31.5349C51.5613 32.5468 49.2192 33.0528 46.4959 33.0528C43.7725 33.0528 41.4169 32.5468 39.4288 31.5349C37.468 30.4956 35.9566 29.0187 34.8945 27.1041C33.8596 25.1896 33.3421 22.9469 33.3421 20.376V2.48902H40.3275V18.5299C40.3275 21.3196 40.8722 23.3709 41.9615 24.6837C43.0509 25.9965 44.5623 26.6529 46.4959 26.6529C48.4294 26.6529 49.9409 25.9965 51.0302 24.6837C52.1196 23.3709 52.6642 21.3196 52.6642 18.5299V2.48902Z" fill="#292929"/>
<path d="M91.0821 32.5195L82.7896 32.4785L76.1719 22.3452H72.2094V32.5195H65.224V2.48902H76.0902C78.5684 2.48902 80.7198 2.89927 82.5445 3.71977C84.3964 4.54028 85.8125 5.70266 86.7929 7.20692C87.7733 8.71117 88.2635 10.4479 88.2635 12.4171C88.2635 14.3043 87.8141 15.9726 86.9154 17.4222C86.0167 18.8718 84.7232 20.0205 83.0347 20.8683L91.0821 32.5195ZM72.2094 8.39665V16.4786H75.2732C76.8255 16.4786 78.1463 16.1778 79.2356 15.5761C80.3522 14.947 80.9105 13.894 80.9105 12.4171C80.9105 9.73681 79.0314 8.39665 75.2732 8.39665H72.2094Z" fill="#292929"/>
<path d="M115.219 23.6991C115.219 25.9144 114.634 27.7195 113.463 29.1144C112.319 30.5092 110.875 31.5212 109.132 32.1502C107.39 32.7519 105.606 33.0528 103.781 33.0528C101.031 33.0528 98.5114 32.4237 96.2238 31.1656C93.9362 29.8802 92.4112 28.0341 91.6486 25.6272L97.2859 22.3862C97.8851 23.7811 98.7565 24.8614 99.9003 25.6272C101.071 26.393 102.447 26.7759 104.026 26.7759C105.197 26.7759 106.137 26.5571 106.845 26.1195C107.58 25.6546 107.948 24.9845 107.948 24.1093C107.948 23.3982 107.703 22.8102 107.213 22.3452C106.722 21.8803 106.11 21.4974 105.374 21.1965C104.639 20.8957 103.604 20.5538 102.27 20.1709C100.309 19.5965 98.7021 19.0222 97.4493 18.4478C96.2238 17.8735 95.1617 17.0119 94.263 15.8632C93.3643 14.6872 92.915 13.1556 92.915 11.2684C92.915 9.1898 93.446 7.45307 94.5081 6.05821C95.5975 4.66335 97 3.62405 98.7157 2.94029C100.459 2.25654 102.324 1.91466 104.312 1.91466C106.927 1.91466 109.214 2.51637 111.175 3.71977C113.136 4.92318 114.402 6.63256 114.974 8.84793L109.255 12.0889C108.819 10.8582 108.138 9.90091 107.213 9.21715C106.314 8.5334 105.211 8.19152 103.904 8.19152C102.787 8.19152 101.875 8.45135 101.167 8.971C100.486 9.49065 100.145 10.1607 100.145 10.9812C100.145 11.6103 100.377 12.1436 100.84 12.5812C101.33 13.0188 101.929 13.3744 102.637 13.6479C103.345 13.9214 104.353 14.2633 105.66 14.6735C107.675 15.2752 109.309 15.8769 110.562 16.4786C111.815 17.053 112.904 17.9282 113.83 19.1042C114.756 20.2803 115.219 21.8119 115.219 23.6991Z" fill="#292929"/>
<path d="M30.3249 25.3004C28.6202 28.2679 25.9879 30.5876 22.8365 31.8994C19.6851 33.2112 16.1907 33.4419 12.8954 32.5557C9.60009 31.6695 6.68811 29.7159 4.6112 26.998C2.5343 24.2801 1.40856 20.9498 1.40862 17.5238C1.40869 14.0977 2.53456 10.7675 4.61158 8.04965C6.68859 5.33182 9.60064 3.37833 12.896 2.49224C16.1913 1.60615 19.6857 1.83699 22.8371 3.14895C25.9884 4.46091 28.6206 6.78064 30.3252 9.74829L24.0012 13.412C23.0998 11.8427 21.7078 10.6159 20.0413 9.92213C18.3748 9.22833 16.5269 9.10626 14.7842 9.57485C13.0416 10.0434 11.5016 11.0765 10.4032 12.5137C9.30483 13.951 8.70944 15.7121 8.7094 17.5239C8.70937 19.3357 9.30469 21.0968 10.403 22.5341C11.5013 23.9714 13.0413 25.0045 14.7839 25.4732C16.5265 25.9418 18.3745 25.8198 20.041 25.1261C21.7076 24.4324 23.0996 23.2057 24.0011 21.6364L30.3249 25.3004Z" fill="#292929"/>
<path d="M148.469 17.476C148.469 17.4843 148.469 17.4927 148.469 17.5011C148.469 17.6269 148.467 17.7525 148.464 17.8776C148.363 21.8817 146.756 25.5099 144.19 28.2123C144.019 28.3925 143.844 28.5685 143.665 28.7403C140.904 31.3833 137.174 33.0135 133.064 33.037C133.034 33.0372 133.004 33.0372 132.974 33.0372C132.945 33.0372 132.916 33.0372 132.886 33.037C132.857 33.0368 132.827 33.0366 132.797 33.0362C128.801 32.9913 125.168 31.427 122.444 28.8916C122.161 28.6279 121.887 28.3538 121.624 28.0697C119.094 25.3368 117.53 21.6888 117.48 17.6746C117.48 17.6085 117.479 17.5423 117.479 17.476C117.479 17.4138 117.48 17.3517 117.48 17.2897C117.58 8.78124 124.478 1.91466 132.974 1.91466C141.517 1.91466 148.446 8.85819 148.469 17.4324C148.469 17.4334 148.469 17.4344 148.469 17.4353C148.469 17.4362 148.469 17.4371 148.469 17.4379C148.469 17.449 148.469 17.4601 148.469 17.4712C148.469 17.4728 148.469 17.4744 148.469 17.476ZM124.78 17.476C124.78 22.0208 128.449 25.7052 132.974 25.7052C137.5 25.7052 141.168 22.0208 141.168 17.476C141.168 12.9311 137.5 9.24674 132.974 9.24674C128.449 9.24674 124.78 12.9311 124.78 17.476Z" fill="#292929"/>
<path d="M132.974 1.91466C136.385 1.91466 139.702 3.04529 142.408 5.13116C145.114 7.21702 147.059 10.1415 147.942 13.451C148.29 14.7581 148.465 16.0965 148.469 17.4324C148.469 17.4334 148.469 17.4344 148.469 17.4353C148.469 17.4362 148.469 17.4371 148.469 17.4379C148.469 17.449 148.469 17.4601 148.469 17.4712C148.469 17.4812 148.469 17.4911 148.469 17.5011C148.466 19.5245 148.069 21.5413 147.288 23.4347C146.552 25.217 145.498 26.834 144.19 28.2123C144.019 28.3924 143.844 28.5685 143.665 28.7403C142.779 29.5884 141.79 30.3332 140.717 30.9551C138.379 32.3099 135.74 33.0214 133.064 33.037C133.005 33.0373 132.946 33.0373 132.886 33.037C132.857 33.0368 132.827 33.0366 132.797 33.0362C132.18 33.0292 131.562 32.985 130.945 32.9032C127.762 32.4809 124.792 31.0766 122.444 28.8916C122.298 28.7554 122.153 28.6161 122.012 28.4738C121.88 28.3413 121.751 28.2065 121.624 28.0697C119.435 25.7042 118.03 22.7091 117.611 19.4979C117.531 18.8908 117.488 18.282 117.48 17.6746C117.479 17.5462 117.479 17.4179 117.48 17.2897C117.512 14.6302 118.222 12.0099 119.56 9.68611L122.532 11.4121L125.881 13.3565C124.978 14.9249 124.615 16.7488 124.849 18.5452C125.084 20.3416 125.902 22.0101 127.177 23.2919C128.452 24.5737 130.113 25.397 131.901 25.6343C133.69 25.8715 135.506 25.5094 137.069 24.6041C138.631 23.6987 139.853 22.3008 140.544 20.6271C141.234 18.9534 141.356 17.0975 140.889 15.3474C140.423 13.5973 139.394 12.0508 137.963 10.9477C136.532 9.84465 134.778 9.24674 132.974 9.24674V5.57154V1.91466Z" fill="#292929"/>
<path d="M132.974 5.5789C132.974 5.57645 132.974 5.57399 132.974 5.57154C132.978 4.72312 133.666 4.02779 134.506 4.12504C136.904 4.40262 139.193 5.32798 141.123 6.81581C143.461 8.61805 145.14 11.1448 145.902 14.0039C146.663 16.8629 146.463 19.8945 145.334 22.6279C144.204 25.3614 142.207 27.6439 139.654 29.1212C137.1 30.5985 134.133 31.188 131.211 30.7981C128.29 30.4083 125.579 29.061 123.498 26.9652C121.417 24.8695 120.083 22.1425 119.704 19.2076C119.39 16.7847 119.741 14.332 120.705 12.1095C121.015 11.3958 121.834 11.127 122.532 11.4121C122.598 11.439 122.663 11.4708 122.726 11.5076C123.46 11.9349 123.698 12.8759 123.386 13.668C122.746 15.2924 122.523 17.0614 122.749 18.8102C123.042 21.0715 124.07 23.1726 125.673 24.7873C127.276 26.4021 129.365 27.4402 131.616 27.7405C133.867 28.0409 136.153 27.5867 138.121 26.4485C140.088 25.3102 141.627 23.5516 142.497 21.4455C143.367 19.3394 143.521 17.0036 142.935 14.8008C142.348 12.5979 141.054 10.651 139.253 9.26245C137.86 8.18857 136.224 7.495 134.504 7.23578C133.665 7.10938 132.974 6.43066 132.974 5.5789Z" fill="#56AAC8"/>
<path fill-rule="evenodd" clip-rule="evenodd" d="M148.469 17.5011C148.469 17.4927 148.469 17.4843 148.469 17.476V17.4712L148.469 17.4379V17.4353" fill="#56AAC8"/>
</svg>
